<svg width="1283" height="397" viewBox="0 0 1283 397" fill="none" xmlns="http://www.w3.org/2000/svg">
<path opacity="0.2" d="M76.4 152C98.9388 152 118.25 144.113 131.929 130.56C145.609 117.007 153.6 97.8443 153.6 75.4H151.6C151.6 97.3557 143.791 115.993 130.521 129.14C117.25 142.287 98.4612 150 76.4 150V152ZM153.6 75.4C153.6 30.8389 121.543 -1 76.4 -1V0.999996C120.457 0.999996 151.6 31.961 151.6 75.4H153.6ZM76.4 -1C31.2565 -1 -0.799999 30.8389 -0.799999 75.4H1.2C1.2 31.961 32.3435 0.999996 76.4 0.999996V-1ZM-0.799999 75.4C-0.799999 97.8443 7.19124 117.007 20.8712 130.56C34.5504 144.113 53.8612 152 76.4 152V150C54.3388 150 35.5496 142.287 22.2788 129.14C9.00876 115.993 1.2 97.3557 1.2 75.4H-0.799999ZM76.4 134C43.1792 134 19.4 109.475 19.4 75.4H17.4C17.4 110.525 42.0208 136 76.4 136V134ZM19.4 75.4C19.4 41.3295 43.1748 17 76.4 17V15C42.0252 15 17.4 40.2705 17.4 75.4H19.4ZM76.4 17C109.621 17 133.2 41.3248 133.2 75.4H135.2C135.2 40.2752 110.779 15 76.4 15V17ZM133.2 75.4C133.2 109.48 109.616 134 76.4 134V136C110.784 136 135.2 110.52 135.2 75.4H133.2ZM296.252 4.99999H297.252V3.99999H296.252V4.99999ZM278.052 4.99999V3.99999H277.052V4.99999H278.052ZM199.052 4.99999H200.052V3.99999H199.052V4.99999ZM180.652 4.99999V3.99999H179.652V4.99999H180.652ZM238.652 152C272.831 152 297.252 126.725 297.252 91.8H295.252C295.252 125.675 271.672 150 238.652 150V152ZM297.252 91.8V4.99999H295.252V91.8H297.252ZM296.252 3.99999H278.052V5.99999H296.252V3.99999ZM277.052 4.99999V91.8H279.052V4.99999H277.052ZM277.052 91.8C277.052 116.537 261.014 134 238.652 134V136C262.289 136 279.052 117.463 279.052 91.8H277.052ZM238.652 134C216.282 134 200.052 116.53 200.052 91.8H198.052C198.052 117.47 215.021 136 238.652 136V134ZM200.052 91.8V4.99999H198.052V91.8H200.052ZM199.052 3.99999H180.652V5.99999H199.052V3.99999ZM179.652 4.99999V91.8H181.652V4.99999H179.652ZM179.652 91.8C179.652 126.734 204.481 152 238.652 152V150C205.622 150 181.652 125.666 181.652 91.8H179.652ZM333.219 146H332.219V147H333.219V146ZM351.419 146V147H352.419V146H351.419ZM351.419 90.8V89.8H350.419V90.8H351.419ZM377.419 90.8L378.168 90.1377L377.869 89.8H377.419V90.8ZM426.219 146L425.47 146.662L425.768 147H426.219V146ZM449.219 146V147H451.483L449.958 145.327L449.219 146ZM398.019 89.8V88.8H395.755L397.28 90.4735L398.019 89.8ZM400.419 89.8V90.8H400.442L400.465 90.7989L400.419 89.8ZM333.219 4.99999V3.99999H332.219V4.99999H333.219ZM351.419 74.8H350.419V75.8H351.419V74.8ZM351.419 21V20H350.419V21H351.419ZM333.219 147H351.419V145H333.219V147ZM352.419 146V90.8H350.419V146H352.419ZM351.419 91.8H377.419V89.8H351.419V91.8ZM376.67 91.4623L425.47 146.662L426.968 145.338L378.168 90.1377L376.67 91.4623ZM426.219 147H449.219V145H426.219V147ZM449.958 145.327L398.758 89.1265L397.28 90.4735L448.48 146.673L449.958 145.327ZM398.019 90.8H400.419V88.8H398.019V90.8ZM400.465 90.7989C427.077 89.58 446.419 72.4479 446.419 47.8H444.419C444.419 71.1521 426.16 87.62 400.373 88.801L400.465 90.7989ZM446.419 47.8C446.419 34.5202 441.25 23.5339 432.137 15.8841C423.041 8.24862 410.095 3.99999 394.619 3.99999V5.99999C409.743 5.99999 422.197 10.1514 430.851 17.4159C439.488 24.666 444.419 35.0798 444.419 47.8H446.419ZM394.619 3.99999H333.219V5.99999H394.619V3.99999ZM332.219 4.99999V146H334.219V4.99999H332.219ZM352.419 74.8V21H350.419V74.8H352.419ZM351.419 22H394.619V20H351.419V22ZM394.619 22C404.557 22 412.459 24.5586 417.857 29.0207C423.233 33.4653 426.219 39.873 426.219 47.8H428.219C428.219 39.327 425.004 32.3347 419.131 27.4793C413.279 22.6414 404.88 20 394.619 20V22ZM426.219 47.8C426.219 55.8307 423.23 62.2881 417.855 66.7559C412.458 71.2414 404.557 73.8 394.619 73.8V75.8C404.88 75.8 413.28 73.1586 419.133 68.2941C425.007 63.4119 428.219 56.3693 428.219 47.8H426.219ZM394.619 73.8H351.419V75.8H394.619V73.8ZM556.616 146L555.655 146.279L555.865 147H556.616V146ZM584.616 146V147H585.399L585.586 146.24L584.616 146ZM614.016 27V26H613.233L613.045 26.7601L614.016 27ZM615.816 27L616.786 26.7601L616.599 26H615.816V27ZM645.216 146L644.245 146.24L644.433 147H645.216V146ZM673.216 146V147H673.967L674.176 146.278L673.216 146ZM714.016 4.99999L714.976 5.27795L715.346 3.99999H714.016V4.99999ZM696.616 4.99999V3.99999H695.862L695.654 4.72446L696.616 4.99999ZM660.616 130.6V131.6H661.369L661.577 130.876L660.616 130.6ZM658.616 130.6L657.646 130.845L657.837 131.6H658.616V130.6ZM626.816 4.99999L627.785 4.75455L627.594 3.99999H626.816V4.99999ZM603.216 4.99999V3.99999H602.438L602.247 4.7531L603.216 4.99999ZM571.216 130.6V131.6H571.993L572.185 130.847L571.216 130.6ZM569.216 130.6L568.254 130.876L568.462 131.6H569.216V130.6ZM533.216 4.99999L534.177 4.72446L533.969 3.99999H533.216V4.99999ZM515.616 4.99999V3.99999H514.283L514.655 5.27921L515.616 4.99999ZM556.616 147H584.616V145H556.616V147ZM585.586 146.24L614.986 27.2398L613.045 26.7601L583.645 145.76L585.586 146.24ZM614.016 28H615.816V26H614.016V28ZM614.845 27.2398L644.245 146.24L646.186 145.76L616.786 26.7601L614.845 27.2398ZM645.216 147H673.216V145H645.216V147ZM674.176 146.278L714.976 5.27795L713.055 4.72203L672.255 145.722L674.176 146.278ZM714.016 3.99999H696.616V5.99999H714.016V3.99999ZM695.654 4.72446L659.654 130.324L661.577 130.876L697.577 5.27552L695.654 4.72446ZM660.616 129.6H658.616V131.6H660.616V129.6ZM659.585 130.355L627.785 4.75455L625.846 5.24543L657.646 130.845L659.585 130.355ZM626.816 3.99999H603.216V5.99999H626.816V3.99999ZM602.247 4.7531L570.247 130.353L572.185 130.847L604.185 5.24688L602.247 4.7531ZM571.216 129.6H569.216V131.6H571.216V129.6ZM570.177 130.324L534.177 4.72446L532.254 5.27552L568.254 130.876L570.177 130.324ZM533.216 3.99999H515.616V5.99999H533.216V3.99999ZM514.655 5.27921L555.655 146.279L557.576 145.721L516.576 4.72078L514.655 5.27921ZM806.088 152C828.626 152 847.937 144.113 861.616 130.56C875.296 117.007 883.288 97.8443 883.288 75.4H881.288C881.288 97.3557 873.479 115.993 860.209 129.14C846.938 142.287 828.149 150 806.088 150V152ZM883.288 75.4C883.288 30.8389 851.231 -1 806.088 -1V0.999996C850.144 0.999996 881.288 31.961 881.288 75.4H883.288ZM806.088 -1C760.944 -1 728.888 30.8389 728.888 75.4H730.888C730.888 31.961 762.031 0.999996 806.088 0.999996V-1ZM728.888 75.4C728.888 97.8443 736.879 117.007 750.559 130.56C764.238 144.113 783.549 152 806.088 152V150C784.026 150 765.237 142.287 751.966 129.14C738.696 115.993 730.888 97.3557 730.888 75.4H728.888ZM806.088 134C772.867 134 749.088 109.475 749.088 75.4H747.088C747.088 110.525 771.708 136 806.088 136V134ZM749.088 75.4C749.088 41.3295 772.862 17 806.088 17V15C771.713 15 747.088 40.2705 747.088 75.4H749.088ZM806.088 17C839.308 17 862.888 41.3248 862.888 75.4H864.888C864.888 40.2752 840.467 15 806.088 15V17ZM862.888 75.4C862.888 109.48 839.304 134 806.088 134V136C840.471 136 864.888 110.52 864.888 75.4H862.888ZM911.539 146H910.539V147H911.539V146ZM929.739 146V147H930.739V146H929.739ZM929.739 90.8V89.8H928.739V90.8H929.739ZM955.739 90.8L956.488 90.1377L956.19 89.8H955.739V90.8ZM1004.54 146L1003.79 146.662L1004.09 147H1004.54V146ZM1027.54 146V147H1029.8L1028.28 145.327L1027.54 146ZM976.339 89.8V88.8H974.075L975.6 90.4735L976.339 89.8ZM978.739 89.8V90.8H978.762L978.785 90.7989L978.739 89.8ZM911.539 4.99999V3.99999H910.539V4.99999H911.539ZM929.739 74.8H928.739V75.8H929.739V74.8ZM929.739 21V20H928.739V21H929.739ZM911.539 147H929.739V145H911.539V147ZM930.739 146V90.8H928.739V146H930.739ZM929.739 91.8H955.739V89.8H929.739V91.8ZM954.99 91.4623L1003.79 146.662L1005.29 145.338L956.488 90.1377L954.99 91.4623ZM1004.54 147H1027.54V145H1004.54V147ZM1028.28 145.327L977.078 89.1265L975.6 90.4735L1026.8 146.673L1028.28 145.327ZM976.339 90.8H978.739V88.8H976.339V90.8ZM978.785 90.7989C1005.4 89.58 1024.74 72.4479 1024.74 47.8H1022.74C1022.74 71.1521 1004.48 87.62 978.693 88.801L978.785 90.7989ZM1024.74 47.8C1024.74 34.5202 1019.57 23.5339 1010.46 15.8841C1001.36 8.24862 988.415 3.99999 972.939 3.99999V5.99999C988.063 5.99999 1000.52 10.1514 1009.17 17.4159C1017.81 24.666 1022.74 35.0798 1022.74 47.8H1024.74ZM972.939 3.99999H911.539V5.99999H972.939V3.99999ZM910.539 4.99999V146H912.539V4.99999H910.539ZM930.739 74.8V21H928.739V74.8H930.739ZM929.739 22H972.939V20H929.739V22ZM972.939 22C982.877 22 990.779 24.5586 996.177 29.0207C1001.55 33.4653 1004.54 39.873 1004.54 47.8H1006.54C1006.54 39.327 1003.32 32.3347 997.451 27.4793C991.599 22.6414 983.201 20 972.939 20V22ZM1004.54 47.8C1004.54 55.8307 1001.55 62.2881 996.175 66.7559C990.778 71.2414 982.877 73.8 972.939 73.8V75.8C983.201 75.8 991.6 73.1586 997.453 68.2941C1003.33 63.4119 1006.54 56.3693 1006.54 47.8H1004.54ZM972.939 73.8H929.739V75.8H972.939V73.8ZM1053.34 146H1052.34V147H1053.34V146ZM1071.54 146V147H1072.54V146H1071.54ZM1071.54 79.8V78.8H1070.54V79.8H1071.54ZM1073.54 79.8L1074.28 79.1272L1073.98 78.8H1073.54V79.8ZM1133.74 146L1133 146.673L1133.29 147H1133.74V146ZM1156.74 146V147H1159.03L1157.47 145.32L1156.74 146ZM1089.14 73.2L1088.42 72.5068L1087.76 73.1879L1088.4 73.8804L1089.14 73.2ZM1154.74 4.99999L1155.46 5.69323L1157.09 3.99999H1154.74V4.99999ZM1131.94 4.99999V3.99999H1131.51L1131.21 4.31199L1131.94 4.99999ZM1073.54 66.6V67.6H1073.97L1074.26 67.288L1073.54 66.6ZM1071.54 66.6H1070.54V67.6H1071.54V66.6ZM1071.54 4.99999H1072.54V3.99999H1071.54V4.99999ZM1053.34 4.99999V3.99999H1052.34V4.99999H1053.34ZM1053.34 147H1071.54V145H1053.34V147ZM1072.54 146V79.8H1070.54V146H1072.54ZM1071.54 80.8H1073.54V78.8H1071.54V80.8ZM1072.8 80.4728L1133 146.673L1134.48 145.327L1074.28 79.1272L1072.8 80.4728ZM1133.74 147H1156.74V145H1133.74V147ZM1157.47 145.32L1089.87 72.5195L1088.4 73.8804L1156 146.68L1157.47 145.32ZM1089.86 73.8932L1155.46 5.69323L1154.02 4.30676L1088.42 72.5068L1089.86 73.8932ZM1154.74 3.99999H1131.94V5.99999H1154.74V3.99999ZM1131.21 4.31199L1072.81 65.912L1074.26 67.288L1132.66 5.688L1131.21 4.31199ZM1073.54 65.6H1071.54V67.6H1073.54V65.6ZM1072.54 66.6V4.99999H1070.54V66.6H1072.54ZM1071.54 3.99999H1053.34V5.99999H1071.54V3.99999ZM1052.34 4.99999V146H1054.34V4.99999H1052.34ZM1227.61 66.2L1227.77 65.2131L1227.76 65.2116L1227.61 66.2ZM1261.41 47.8H1260.41V48.8H1261.41V47.8ZM1279.01 47.8V48.8H1280.02L1280.01 47.7933L1279.01 47.8ZM1223.21 83.2L1223.37 82.2126L1223.37 82.2122L1223.21 83.2ZM1185.61 100.2L1186.61 100.191L1186.6 99.2H1185.61V100.2ZM1167.61 100.2V99.2H1166.61V100.2H1167.61ZM1227.41 152C1244.86 152 1258.8 147.816 1268.41 140.183C1278.04 132.528 1283.21 121.48 1283.21 108H1281.21C1281.21 120.92 1276.28 131.372 1267.16 138.617C1258.02 145.884 1244.56 150 1227.41 150V152ZM1283.21 108C1283.21 99.8429 1281.36 93.3066 1278.13 88.037C1274.91 82.7709 1270.34 78.8311 1265 75.8051C1254.37 69.7774 1240.54 67.308 1227.77 65.2132L1227.45 67.1868C1240.28 69.292 1253.75 71.7226 1264.02 77.5449C1269.13 80.4439 1273.42 84.1666 1276.43 89.0818C1279.44 93.9934 1281.21 100.157 1281.21 108H1283.21ZM1227.76 65.2116C1217.32 63.6058 1207.59 61.972 1200.45 58.4769C1196.9 56.7396 1194.06 54.5678 1192.09 51.7612C1190.14 48.9651 1189.01 45.4711 1189.01 41H1187.01C1187.01 45.8289 1188.23 49.7349 1190.45 52.9075C1192.67 56.0697 1195.82 58.4354 1199.57 60.2731C1207.03 63.928 1217.1 65.5942 1227.46 67.1884L1227.76 65.2116ZM1189.01 41C1189.01 33.7061 1191.97 27.7615 1197.65 23.6073C1203.37 19.4255 1211.94 17 1223.21 17V15C1211.69 15 1202.65 17.4745 1196.47 21.9927C1190.25 26.5385 1187.01 33.0938 1187.01 41H1189.01ZM1223.21 17C1235.16 17 1244.46 19.9144 1250.74 25.1675C1257.01 30.3999 1260.41 38.0505 1260.41 47.8H1262.41C1262.41 37.5494 1258.81 29.3 1252.03 23.6325C1245.27 17.9856 1235.46 15 1223.21 15V17ZM1261.41 48.8H1279.01V46.8H1261.41V48.8ZM1280.01 47.7933C1279.91 32.6444 1274.51 20.4041 1264.66 11.9656C1254.83 3.54292 1240.68 -1 1223.21 -1V0.999996C1240.35 0.999996 1253.99 5.45707 1263.36 13.4844C1272.71 21.4959 1277.91 33.1556 1278.01 47.8067L1280.01 47.7933ZM1223.21 -1C1206.06 -1 1192.46 3.18594 1183.13 10.696C1173.78 18.2262 1168.81 29.0226 1168.81 42H1170.81C1170.81 29.5774 1175.54 19.3738 1184.39 12.254C1193.26 5.11405 1206.36 0.999996 1223.21 0.999996V-1ZM1168.81 42C1168.81 49.809 1170.6 56.143 1173.73 61.3028C1176.85 66.4586 1181.28 70.3854 1186.48 73.4373C1196.84 79.5198 1210.37 82.1893 1223.06 84.1878L1223.37 82.2122C1210.66 80.2106 1197.48 77.5801 1187.49 71.7127C1182.51 68.7896 1178.36 65.0789 1175.44 60.2659C1172.52 55.457 1170.81 49.491 1170.81 42H1168.81ZM1223.05 84.1874C1233.7 85.895 1243.74 87.5277 1251.13 91.1003C1254.8 92.8759 1257.76 95.1044 1259.8 98.0068C1261.83 100.899 1263.01 104.529 1263.01 109.2H1265.01C1265.01 104.171 1263.74 100.126 1261.43 96.8557C1259.14 93.5956 1255.87 91.1741 1252 89.2997C1244.29 85.5723 1233.92 83.905 1223.37 82.2126L1223.05 84.1874ZM1263.01 109.2C1263.01 116.78 1259.81 122.927 1253.85 127.213C1247.85 131.525 1238.98 134 1227.61 134V136C1239.24 136 1248.57 133.475 1255.02 128.837C1261.51 124.173 1265.01 117.42 1265.01 109.2H1263.01ZM1227.61 134C1214.56 134 1204.37 130.787 1197.43 125.007C1190.51 119.245 1186.71 110.84 1186.61 100.191L1184.61 100.209C1184.71 111.36 1188.71 120.355 1196.15 126.543C1203.55 132.713 1214.26 136 1227.61 136V134ZM1185.61 99.2H1167.61V101.2H1185.61V99.2ZM1166.61 100.2C1166.61 116.16 1172.42 129.151 1182.99 138.137C1193.54 147.106 1208.75 152 1227.41 152V150C1209.08 150 1194.38 145.194 1184.28 136.613C1174.21 128.049 1168.61 115.64 1168.61 100.2H1166.61ZM9 392H8V393H9V392ZM26.8 392V393H27.8V392H26.8ZM26.8 337.4V336.4H25.8V337.4H26.8ZM115.8 294.2L114.8 294.193V294.2H115.8ZM9 251V250H8V251H9ZM26.8 321.2H25.8V322.2H26.8V321.2ZM26.8 267V266H25.8V267H26.8ZM9 393H26.8V391H9V393ZM27.8 392V337.4H25.8V392H27.8ZM26.8 338.4H65.2V336.4H26.8V338.4ZM65.2 338.4C80.3769 338.4 93.2729 334.201 102.393 326.541C111.531 318.866 116.8 307.78 116.8 294.2H114.8C114.8 307.22 109.769 317.734 101.107 325.009C92.4271 332.299 80.0231 336.4 65.2 336.4V338.4ZM116.8 294.207C116.902 280.438 111.843 269.344 102.769 261.71C93.7163 254.093 80.7653 250 65.2 250V252C80.4347 252 92.8837 256.007 101.481 263.24C110.057 270.456 114.898 280.962 114.8 294.193L116.8 294.207ZM65.2 250H9V252H65.2V250ZM8 251V392H10V251H8ZM27.8 321.2V267H25.8V321.2H27.8ZM26.8 268H65.2V266H26.8V268ZM65.2 268C75.2361 268 83.1339 270.607 88.5051 275.139C93.8569 279.655 96.8 286.163 96.8 294.2H98.8C98.8 285.637 95.6431 278.545 89.7949 273.611C83.9661 268.693 75.5639 266 65.2 266V268ZM96.8 294.2C96.8 302.133 93.8597 308.592 88.5071 313.084C83.1351 317.593 75.236 320.2 65.2 320.2V322.2C75.564 322.2 83.9649 319.507 89.7929 314.616C95.6404 309.708 98.8 302.667 98.8 294.2H96.8ZM65.2 320.2H26.8V322.2H65.2V320.2ZM210.58 398C233.118 398 252.429 390.113 266.108 376.56C279.788 363.007 287.78 343.844 287.78 321.4H285.78C285.78 343.356 277.971 361.993 264.701 375.14C251.43 388.287 232.641 396 210.58 396V398ZM287.78 321.4C287.78 276.839 255.723 245 210.58 245V247C254.636 247 285.78 277.961 285.78 321.4H287.78ZM210.58 245C165.436 245 133.38 276.839 133.38 321.4H135.38C135.38 277.961 166.523 247 210.58 247V245ZM133.38 321.4C133.38 343.844 141.371 363.007 155.051 376.56C168.73 390.113 188.041 398 210.58 398V396C188.518 396 169.729 388.287 156.458 375.14C143.188 361.993 135.38 343.356 135.38 321.4H133.38ZM210.58 380C177.359 380 153.58 355.475 153.58 321.4H151.58C151.58 356.525 176.2 382 210.58 382V380ZM153.58 321.4C153.58 287.329 177.355 263 210.58 263V261C176.205 261 151.58 286.271 151.58 321.4H153.58ZM210.58 263C243.8 263 267.38 287.325 267.38 321.4H269.38C269.38 286.275 244.959 261 210.58 261V263ZM267.38 321.4C267.38 355.48 243.796 380 210.58 380V382C244.963 382 269.38 356.52 269.38 321.4H267.38ZM316.031 392H315.031V393H316.031V392ZM334.231 392V393H335.231V392H334.231ZM334.231 336.8V335.8H333.231V336.8H334.231ZM360.231 336.8L360.98 336.138L360.682 335.8H360.231V336.8ZM409.031 392L408.282 392.662L408.581 393H409.031V392ZM432.031 392V393H434.295L432.77 391.327L432.031 392ZM380.831 335.8V334.8H378.567L380.092 336.473L380.831 335.8ZM383.231 335.8V336.8H383.254L383.277 336.799L383.231 335.8ZM316.031 251V250H315.031V251H316.031ZM334.231 320.8H333.231V321.8H334.231V320.8ZM334.231 267V266H333.231V267H334.231ZM316.031 393H334.231V391H316.031V393ZM335.231 392V336.8H333.231V392H335.231ZM334.231 337.8H360.231V335.8H334.231V337.8ZM359.482 337.462L408.282 392.662L409.78 391.338L360.98 336.138L359.482 337.462ZM409.031 393H432.031V391H409.031V393ZM432.77 391.327L381.57 335.127L380.092 336.473L431.292 392.673L432.77 391.327ZM380.831 336.8H383.231V334.8H380.831V336.8ZM383.277 336.799C409.89 335.58 429.231 318.448 429.231 293.8H427.231C427.231 317.152 408.973 333.62 383.186 334.801L383.277 336.799ZM429.231 293.8C429.231 280.52 424.062 269.534 414.949 261.884C405.853 254.249 392.907 250 377.431 250V252C392.555 252 405.009 256.151 413.663 263.416C422.3 270.666 427.231 281.08 427.231 293.8H429.231ZM377.431 250H316.031V252H377.431V250ZM315.031 251V392H317.031V251H315.031ZM335.231 320.8V267H333.231V320.8H335.231ZM334.231 268H377.431V266H334.231V268ZM377.431 268C387.37 268 395.271 270.559 400.669 275.021C406.046 279.465 409.031 285.873 409.031 293.8H411.031C411.031 285.327 407.817 278.335 401.943 273.479C396.091 268.641 387.693 266 377.431 266V268ZM409.031 293.8C409.031 301.831 406.043 308.288 400.667 312.756C395.27 317.241 387.37 319.8 377.431 319.8V321.8C387.693 321.8 396.092 319.159 401.945 314.294C407.82 309.412 411.031 302.369 411.031 293.8H409.031ZM377.431 319.8H334.231V321.8H377.431V319.8ZM487.438 392H486.438V393H487.438V392ZM505.638 392V393H506.638V392H505.638ZM505.638 267V266H504.638V267H505.638ZM552.438 267V268H553.438V267H552.438ZM552.438 251H553.438V250H552.438V251ZM440.838 251V250H439.838V251H440.838ZM440.838 267H439.838V268H440.838V267ZM487.438 267H488.438V266H487.438V267ZM487.438 393H505.638V391H487.438V393ZM506.638 392V267H504.638V392H506.638ZM505.638 268H552.438V266H505.638V268ZM553.438 267V251H551.438V267H553.438ZM552.438 250H440.838V252H552.438V250ZM439.838 251V267H441.838V251H439.838ZM440.838 268H487.438V266H440.838V268ZM486.438 267V392H488.438V267H486.438ZM573.844 392H572.844V393H573.844V392ZM592.244 392V393H593.244V392H592.244ZM592.244 327V326H591.244V327H592.244ZM655.644 327V328H656.644V327H655.644ZM655.644 311H656.644V310H655.644V311ZM592.244 311H591.244V312H592.244V311ZM592.244 267V266H591.244V267H592.244ZM663.644 267V268H664.644V267H663.644ZM663.644 251H664.644V250H663.644V251ZM573.844 251V250H572.844V251H573.844ZM573.844 393H592.244V391H573.844V393ZM593.244 392V327H591.244V392H593.244ZM592.244 328H655.644V326H592.244V328ZM656.644 327V311H654.644V327H656.644ZM655.644 310H592.244V312H655.644V310ZM593.244 311V267H591.244V311H593.244ZM592.244 268H663.644V266H592.244V268ZM664.644 267V251H662.644V267H664.644ZM663.644 250H573.844V252H663.644V250ZM572.844 251V392H574.844V251H572.844ZM755.892 398C778.431 398 797.742 390.113 811.421 376.56C825.101 363.007 833.092 343.844 833.092 321.4H831.092C831.092 343.356 823.283 361.993 810.013 375.14C796.743 388.287 777.953 396 755.892 396V398ZM833.092 321.4C833.092 276.839 801.036 245 755.892 245V247C799.949 247 831.092 277.961 831.092 321.4H833.092ZM755.892 245C710.749 245 678.692 276.839 678.692 321.4H680.692C680.692 277.961 711.836 247 755.892 247V245ZM678.692 321.4C678.692 343.844 686.683 363.007 700.363 376.56C714.043 390.113 733.353 398 755.892 398V396C733.831 396 715.042 388.287 701.771 375.14C688.501 361.993 680.692 343.356 680.692 321.4H678.692ZM755.892 380C722.671 380 698.892 355.475 698.892 321.4H696.892C696.892 356.525 721.513 382 755.892 382V380ZM698.892 321.4C698.892 287.329 722.667 263 755.892 263V261C721.517 261 696.892 286.271 696.892 321.4H698.892ZM755.892 263C789.113 263 812.692 287.325 812.692 321.4H814.692C814.692 286.275 790.272 261 755.892 261V263ZM812.692 321.4C812.692 355.48 789.108 380 755.892 380V382C790.276 382 814.692 356.52 814.692 321.4H812.692ZM861.344 392H860.344V393H861.344V392ZM950.544 392V393H951.544V392H950.544ZM950.544 376H951.544V375H950.544V376ZM879.544 376H878.544V377H879.544V376ZM879.544 251H880.544V250H879.544V251ZM861.344 251V250H860.344V251H861.344ZM861.344 393H950.544V391H861.344V393ZM951.544 392V376H949.544V392H951.544ZM950.544 375H879.544V377H950.544V375ZM880.544 376V251H878.544V376H880.544ZM879.544 250H861.344V252H879.544V250ZM860.344 251V392H862.344V251H860.344ZM975.797 392H974.797V393H975.797V392ZM993.997 392V393H994.997V392H993.997ZM993.997 251H994.997V250H993.997V251ZM975.797 251V250H974.797V251H975.797ZM975.797 393H993.997V391H975.797V393ZM994.997 392V251H992.997V392H994.997ZM993.997 250H975.797V252H993.997V250ZM974.797 251V392H976.797V251H974.797ZM1099.45 398C1121.99 398 1141.3 390.113 1154.98 376.56C1168.66 363.007 1176.65 343.844 1176.65 321.4H1174.65C1174.65 343.356 1166.84 361.993 1153.57 375.14C1140.3 388.287 1121.51 396 1099.45 396V398ZM1176.65 321.4C1176.65 276.839 1144.59 245 1099.45 245V247C1143.5 247 1174.65 277.961 1174.65 321.4H1176.65ZM1099.45 245C1054.3 245 1022.25 276.839 1022.25 321.4H1024.25C1024.25 277.961 1055.39 247 1099.45 247V245ZM1022.25 321.4C1022.25 343.844 1030.24 363.007 1043.92 376.56C1057.6 390.113 1076.91 398 1099.45 398V396C1077.39 396 1058.6 388.287 1045.33 375.14C1032.06 361.993 1024.25 343.356 1024.25 321.4H1022.25ZM1099.45 380C1066.23 380 1042.45 355.475 1042.45 321.4H1040.45C1040.45 356.525 1065.07 382 1099.45 382V380ZM1042.45 321.4C1042.45 287.329 1066.22 263 1099.45 263V261C1065.07 261 1040.45 286.271 1040.45 321.4H1042.45ZM1099.45 263C1132.67 263 1156.25 287.325 1156.25 321.4H1158.25C1158.25 286.275 1133.83 261 1099.45 261V263ZM1156.25 321.4C1156.25 355.48 1132.66 380 1099.45 380V382C1133.83 382 1158.25 356.52 1158.25 321.4H1156.25Z" fill="#4AC6D2"/>
</svg>
