<svg width="1221" height="359" viewBox="0 0 1221 359" fill="none" xmlns="http://www.w3.org/2000/svg">
<path opacity="0.2" d="M10 149H9V150H10V149ZM99.2 149V150H100.2V149H99.2ZM99.2 133H100.2V132H99.2V133ZM28.2 133H27.2V134H28.2V133ZM28.2 7.99999H29.2V6.99999H28.2V7.99999ZM10 7.99999V6.99999H9V7.99999H10ZM10 150H99.2V148H10V150ZM100.2 149V133H98.2V149H100.2ZM99.2 132H28.2V134H99.2V132ZM29.2 133V7.99999H27.2V133H29.2ZM28.2 6.99999H10V8.99999H28.2V6.99999ZM9 7.99999V149H11V7.99999H9ZM218.072 125.4L218.975 125.83L219.394 124.95L218.524 124.508L218.072 125.4ZM204.272 118.4L204.724 117.508L203.851 117.065L203.39 117.929L204.272 118.4ZM131.872 104V103H130.747L130.879 104.117L131.872 104ZM221.272 104V105H222.185L222.268 104.091L221.272 104ZM132.072 89.4L131.084 89.2479L130.906 90.4H132.072V89.4ZM204.072 89.4V90.4H205.25L205.059 89.2374L204.072 89.4ZM169.272 154C191.981 154 210.578 143.443 218.975 125.83L217.169 124.97C209.166 141.757 191.363 152 169.272 152V154ZM218.524 124.508L204.724 117.508L203.82 119.292L217.62 126.292L218.524 124.508ZM203.39 117.929C197.18 129.572 184.339 137 169.672 137V139C185.005 139 198.564 131.228 205.154 118.871L203.39 117.929ZM169.672 137C149.594 137 135.208 123.795 132.865 103.883L130.879 104.117C133.336 125.005 148.549 139 169.672 139V137ZM131.872 105H221.272V103H131.872V105ZM222.268 104.091C222.473 101.838 222.472 99.3915 222.472 97.4H220.472C220.472 99.4085 220.471 101.762 220.276 103.909L222.268 104.091ZM222.472 97.4C222.472 65.8552 199.832 43 168.472 43V45C198.712 45 220.472 66.9448 220.472 97.4H222.472ZM168.472 43C136.725 43 113.872 65.8427 113.872 97.2H115.872C115.872 66.9573 137.819 45 168.472 45V43ZM113.872 97.2C113.872 130.128 137.096 154 169.272 154V152C138.248 152 115.872 129.072 115.872 97.2H113.872ZM133.06 89.5521C135.785 71.8424 149.563 60 167.672 60V58C148.581 58 133.959 70.5576 131.084 89.2479L133.06 89.5521ZM167.672 60C186.389 60 200.166 71.8524 203.085 89.5626L205.059 89.2374C201.978 70.5476 187.354 58 167.672 58V60ZM204.072 88.4H132.072V90.4H204.072V88.4ZM296.119 150.2L296.435 151.149L297.119 150.921V150.2H296.119ZM296.119 136.8H297.119V135.436L295.818 135.846L296.119 136.8ZM268.519 61.2V60.2H267.519V61.2H268.519ZM294.519 61.2V62.2H295.519V61.2H294.519ZM294.519 48H295.519V47H294.519V48ZM268.519 48L267.519 47.9939L267.513 49H268.519V48ZM268.719 15.4L269.719 15.4061L269.725 14.4H268.719V15.4ZM255.719 15.4V14.4H254.829L254.725 15.2842L255.719 15.4ZM251.919 48V49H252.809L252.912 48.1158L251.919 48ZM235.519 48V47H234.519V48H235.519ZM235.519 61.2H234.519V62.2H235.519V61.2ZM251.919 61.2H252.919V60.2H251.919V61.2ZM279.719 153.8C284.819 153.8 291.526 152.785 296.435 151.149L295.803 149.251C291.112 150.815 284.619 151.8 279.719 151.8V153.8ZM297.119 150.2V136.8H295.119V150.2H297.119ZM295.818 135.846C292.104 137.019 287.006 137.8 284.119 137.8V139.8C287.232 139.8 292.534 138.981 296.42 137.754L295.818 135.846ZM284.119 137.8C279.567 137.8 275.942 136.195 273.451 133.519C270.952 130.835 269.519 126.993 269.519 122.4H267.519C267.519 127.407 269.086 131.765 271.987 134.881C274.895 138.005 279.071 139.8 284.119 139.8V137.8ZM269.519 122.4V61.2H267.519V122.4H269.519ZM268.519 62.2H294.519V60.2H268.519V62.2ZM295.519 61.2V48H293.519V61.2H295.519ZM294.519 47H268.519V49H294.519V47ZM269.519 48.0061L269.719 15.4061L267.719 15.3939L267.519 47.9939L269.519 48.0061ZM268.719 14.4H255.719V16.4H268.719V14.4ZM254.725 15.2842L250.925 47.8842L252.912 48.1158L256.712 15.5158L254.725 15.2842ZM251.919 47H235.519V49H251.919V47ZM234.519 48V61.2H236.519V48H234.519ZM235.519 62.2H251.919V60.2H235.519V62.2ZM250.919 61.2V123H252.919V61.2H250.919ZM250.919 123C250.919 132.101 253.682 139.809 258.709 145.253C263.744 150.706 270.972 153.8 279.719 153.8V151.8C271.466 151.8 264.793 148.894 260.178 143.897C255.556 138.891 252.919 131.699 252.919 123H250.919ZM324.044 48.4L323.807 49.3715L324.62 49.5699L324.958 48.8043L324.044 48.4ZM336.244 20.8L337.158 21.2043L337.16 21.2008L336.244 20.8ZM325.044 23.2L325.973 23.5686L326.402 22.4872L325.269 22.2256L325.044 23.2ZM315.844 46.4L314.914 46.0314L314.491 47.0993L315.607 47.3715L315.844 46.4ZM324.958 48.8043L337.158 21.2043L335.329 20.3957L323.129 47.9957L324.958 48.8043ZM337.16 21.2008C338.581 17.9529 339.444 15.2035 339.444 12.2H337.444C337.444 14.7965 336.707 17.2471 335.328 20.3992L337.16 21.2008ZM339.444 12.2C339.444 5.43558 334.384 0.399993 327.444 0.399993V2.39999C333.304 2.39999 337.444 6.5644 337.444 12.2H339.444ZM327.444 0.399993C323.904 0.399993 320.892 1.63794 318.762 3.76789C316.633 5.89636 315.444 8.85819 315.444 12.2H317.444C317.444 9.3418 318.454 6.90363 320.176 5.1821C321.896 3.46205 324.383 2.39999 327.444 2.39999V0.399993ZM315.444 12.2C315.444 18.2593 319.159 22.8683 324.819 24.1744L325.269 22.2256C320.528 21.1317 317.444 17.3407 317.444 12.2H315.444ZM324.114 22.8314L314.914 46.0314L316.773 46.7686L325.973 23.5686L324.114 22.8314ZM315.607 47.3715L323.807 49.3715L324.281 47.4285L316.081 45.4285L315.607 47.3715ZM392.145 90.4L392.271 89.4079L392.264 89.4071L392.145 90.4ZM414.545 78.2L413.545 78.2161L413.561 79.2H414.545V78.2ZM430.745 78.2V79.2H431.745V78.2H430.745ZM388.345 105.8L388.476 104.809L388.469 104.808L388.462 104.807L388.345 105.8ZM361.945 114.8L362.945 114.786L362.932 113.8H361.945V114.8ZM345.945 114.8V113.8H344.945V114.8H345.945ZM391.745 154C404.775 154 415.315 151.124 422.622 145.624C429.966 140.096 433.945 131.99 433.945 121.8H431.945C431.945 131.41 428.224 138.904 421.419 144.026C414.576 149.176 404.516 152 391.745 152V154ZM433.945 121.8C433.945 115.594 432.546 110.573 430.099 106.506C427.654 102.442 424.198 99.3881 420.171 97.0593C412.153 92.4229 401.769 90.6076 392.271 89.4079L392.02 91.3921C401.522 92.5924 411.537 94.3771 419.17 98.7907C422.968 100.987 426.149 103.82 428.385 107.537C430.62 111.252 431.945 115.906 431.945 121.8H433.945ZM392.264 89.4071C384.695 88.4987 377.709 87.81 372.583 85.8179C370.044 84.8312 368.049 83.5544 366.687 81.8455C365.338 80.1532 364.545 77.9568 364.545 75H362.545C362.545 78.3432 363.453 80.9968 365.123 83.092C366.779 85.1706 369.122 86.6188 371.858 87.6821C377.282 89.79 384.596 90.5013 392.026 91.3929L392.264 89.4071ZM364.545 75C364.545 70.1666 366.851 66.2111 370.934 63.4261C375.046 60.6214 380.981 59 388.145 59V57C380.71 57 374.345 58.6786 369.807 61.7739C365.24 64.8889 362.545 69.4334 362.545 75H364.545ZM388.145 59C395.79 59 402.109 60.9121 406.517 64.2474C410.9 67.5646 413.45 72.3283 413.545 78.2161L415.545 78.1839C415.44 71.6717 412.59 66.3354 407.724 62.6526C402.881 58.9879 396.101 57 388.145 57V59ZM414.545 79.2H430.745V77.2H414.545V79.2ZM431.745 78.2C431.745 67.4975 427.308 58.6594 419.619 52.5186C411.951 46.3943 401.113 43 388.345 43V45C400.777 45 411.139 48.3057 418.371 54.0814C425.582 59.8406 429.745 68.1025 429.745 78.2H431.745ZM388.345 43C376.092 43 365.709 46.0367 358.363 51.6557C350.99 57.2953 346.745 65.4892 346.745 75.6H348.745C348.745 66.1108 352.701 58.5047 359.578 53.2443C366.482 47.9633 376.398 45 388.345 45V43ZM346.745 75.6C346.745 81.5153 348.149 86.3284 350.597 90.2428C353.042 94.152 356.493 97.1084 360.504 99.371C368.493 103.878 378.821 105.692 388.229 106.793L388.462 104.807C379.07 103.708 369.097 101.922 361.487 97.629C357.698 95.4916 354.523 92.748 352.293 89.1822C350.066 85.6215 348.745 81.1847 348.745 75.6H346.745ZM388.215 106.791C395.891 107.801 402.972 108.538 408.172 110.628C410.746 111.662 412.773 112.998 414.16 114.793C415.536 116.573 416.345 118.886 416.345 122H418.345C418.345 118.514 417.43 115.752 415.743 113.57C414.067 111.402 411.694 109.888 408.918 108.772C403.419 106.562 396 105.799 388.476 104.809L388.215 106.791ZM416.345 122C416.345 126.944 414.081 130.892 409.987 133.645C405.856 136.423 399.823 138 392.345 138V140C400.068 140 406.535 138.377 411.103 135.305C415.71 132.208 418.345 127.656 418.345 122H416.345ZM392.345 138C383.009 138 375.704 135.592 370.728 131.526C365.771 127.474 363.041 121.71 362.945 114.786L360.945 114.814C361.049 122.29 364.02 128.626 369.462 133.074C374.887 137.508 382.682 140 392.345 140V138ZM361.945 113.8H345.945V115.8H361.945V113.8ZM344.945 114.8C344.945 127.05 349.244 136.899 357.328 143.667C365.389 150.414 377.095 154 391.745 154V152C377.396 152 366.202 148.486 358.612 142.133C351.047 135.801 346.945 126.55 346.945 114.8H344.945ZM606.33 116.2L607.307 116.41L607.535 115.353L606.463 115.209L606.33 116.2ZM589.93 114L590.063 113.009L589.202 112.893L588.967 113.729L589.93 114ZM520.73 98.4H521.73L521.73 98.3914L520.73 98.4ZM589.73 83.4L588.759 83.6394L588.974 84.5118L589.864 84.3909L589.73 83.4ZM605.93 81.2L606.064 82.1909L607.095 82.051L606.915 81.0267L605.93 81.2ZM504.13 98.4L505.13 98.4063V98.4H504.13ZM556.73 154C581.328 154 602.594 138.339 607.307 116.41L605.352 115.99C600.866 136.861 580.531 152 556.73 152V154ZM606.463 115.209L590.063 113.009L589.797 114.991L606.197 117.191L606.463 115.209ZM588.967 113.729C585.098 127.465 572.117 137 556.73 137V139C572.943 139 586.762 128.935 590.892 114.271L588.967 113.729ZM556.73 137C536.758 137 521.73 121.327 521.73 98.4H519.73C519.73 122.273 535.502 139 556.73 139V137ZM521.73 98.3914C521.534 75.691 536.94 60 556.93 60V58C535.72 58 519.525 74.7089 519.73 98.4086L521.73 98.3914ZM556.93 60C571.924 60 585.281 69.5367 588.759 83.6394L590.701 83.1606C586.978 68.0633 572.736 58 556.93 58V60ZM589.864 84.3909L606.064 82.1909L605.795 80.2091L589.595 82.4091L589.864 84.3909ZM606.915 81.0267C603.016 58.8643 581.924 43 556.73 43V45C581.135 45 601.244 60.3356 604.945 81.3733L606.915 81.0267ZM556.73 43C525.545 43 503.13 66.2803 503.13 98.4H505.13C505.13 67.3197 526.714 45 556.73 45V43ZM503.13 98.3937C502.926 130.519 525.546 154 556.73 154V152C526.713 152 504.933 129.481 505.13 98.4063L503.13 98.3937ZM631.791 149H630.791V150H631.791V149ZM648.391 149V150H649.391V149H648.391ZM707.591 149H706.591V150H707.591V149ZM724.191 149V150H725.191V149H724.191ZM650.391 60.8V61.8H650.92L651.218 61.3619L650.391 60.8ZM648.391 60.8H647.391V61.8H648.391V60.8ZM648.391 2H649.391V0.999997H648.391V2ZM631.791 2V0.999997H630.791V2H631.791ZM631.791 150H648.391V148H631.791V150ZM649.391 149V90H647.391V149H649.391ZM649.391 90C649.391 72.5977 663.496 60 679.991 60V58C662.485 58 647.391 71.4023 647.391 90H649.391ZM679.991 60C688.443 60 695.062 62.9554 699.576 67.9225C704.1 72.9014 706.591 79.9936 706.591 88.4H708.591C708.591 79.6064 705.982 71.9986 701.056 66.5775C696.119 61.1446 688.938 58 679.991 58V60ZM706.591 88.4V149H708.591V88.4H706.591ZM707.591 150H724.191V148H707.591V150ZM725.191 149V88.4H723.191V149H725.191ZM725.191 88.4C725.191 75.2888 721.021 63.933 713.524 55.8452C706.019 47.7495 695.246 43 682.191 43V45C694.736 45 704.962 49.5505 712.057 57.2048C719.16 64.867 723.191 75.7112 723.191 88.4H725.191ZM682.191 43C668.453 43 656.946 49.3692 649.563 60.2381L651.218 61.3619C658.235 51.0308 669.128 45 682.191 45V43ZM650.391 59.8H648.391V61.8H650.391V59.8ZM649.391 60.8V2H647.391V60.8H649.391ZM648.391 0.999997H631.791V3H648.391V0.999997ZM630.791 2V149H632.791V2H630.791ZM816.48 134.2V133.2H815.923L815.63 133.673L816.48 134.2ZM818.28 134.2H819.28V133.2H818.28V134.2ZM818.28 149H817.28V150H818.28V149ZM834.88 149V150H835.88V149H834.88ZM750.08 79.2H749.08V80.2H750.08V79.2ZM766.88 79.2V80.2H767.896L767.88 79.1841L766.88 79.2ZM818.28 85.6L818.4 86.5927L819.28 86.4859V85.6H818.28ZM790.28 89L790.392 89.9937L790.4 89.9927L790.28 89ZM790.28 103L790.166 102.006L790.154 102.008L790.28 103ZM818.28 99.8H819.28V98.6792L818.166 98.8065L818.28 99.8ZM781.28 153.2C797.781 153.2 809.924 146.658 817.329 134.727L815.63 133.673C808.635 144.942 797.179 151.2 781.28 151.2V153.2ZM816.48 135.2H818.28V133.2H816.48V135.2ZM817.28 134.2V149H819.28V134.2H817.28ZM818.28 150H834.88V148H818.28V150ZM835.88 149V82H833.88V149H835.88ZM835.88 82C835.88 70.245 831.629 60.5109 823.968 53.7263C816.319 46.9531 805.363 43.2 792.08 43.2V45.2C804.996 45.2 815.441 48.8469 822.642 55.2237C829.83 61.5891 833.88 70.755 833.88 82H835.88ZM792.08 43.2C779.21 43.2 768.464 46.6456 760.916 52.9053C753.349 59.1809 749.08 68.2195 749.08 79.2H751.08C751.08 68.7805 755.11 60.3191 762.193 54.4447C769.295 48.5544 779.55 45.2 792.08 45.2V43.2ZM750.08 80.2H766.88V78.2H750.08V80.2ZM767.88 79.1841C767.784 73.1821 770.104 68.4854 774.221 65.2624C778.369 62.0154 784.428 60.2 791.88 60.2V58.2C784.132 58.2 777.591 60.0846 772.988 63.6876C768.355 67.3146 765.775 72.6179 765.88 79.2159L767.88 79.1841ZM791.88 60.2C800.011 60.2 806.356 62.3548 810.652 66.0575C814.931 69.7458 817.28 75.0559 817.28 81.6H819.28C819.28 74.5441 816.728 68.6542 811.958 64.5425C807.204 60.4452 800.348 58.2 791.88 58.2V60.2ZM817.28 81.6V85.6H819.28V81.6H817.28ZM818.159 84.6073L790.159 88.0073L790.4 89.9927L818.4 86.5927L818.159 84.6073ZM790.167 88.0064C775.058 89.7187 763.557 93.9099 755.811 100.015C748.033 106.144 744.08 114.177 744.08 123.4H746.08C746.08 114.823 749.726 107.356 757.049 101.585C764.402 95.7901 775.501 91.6813 790.392 89.9936L790.167 88.0064ZM744.08 123.4C744.08 132.403 747.817 139.892 754.383 145.108C760.927 150.307 770.215 153.2 781.28 153.2V151.2C770.544 151.2 761.732 148.393 755.627 143.542C749.542 138.708 746.08 131.797 746.08 123.4H744.08ZM783.68 137.4C777.004 137.4 771.728 135.974 768.152 133.48C764.614 131.013 762.68 127.466 762.68 123H760.68C760.68 128.134 762.946 132.287 767.008 135.12C771.031 137.926 776.755 139.4 783.68 139.4V137.4ZM762.68 123C762.68 118.627 764.522 114.565 768.862 111.244C773.242 107.894 780.196 105.281 790.405 103.992L790.154 102.008C779.764 103.319 772.418 106.006 767.647 109.656C762.838 113.335 760.68 117.973 760.68 123H762.68ZM790.393 103.994L818.393 100.794L818.166 98.8065L790.166 102.006L790.393 103.994ZM817.28 99.8V108.8H819.28V99.8H817.28ZM817.28 108.8C817.28 125.12 803.865 137.4 783.68 137.4V139.4C804.695 139.4 819.28 126.48 819.28 108.8H817.28ZM863.627 149H862.627V150H863.627V149ZM880.227 149V150H881.227V149H880.227ZM939.427 149H938.427V150H939.427V149ZM956.027 149V150H957.027V149H956.027ZM882.227 61.8V62.8H882.773L883.068 62.3408L882.227 61.8ZM880.227 61.8H879.227V62.8H880.227V61.8ZM880.227 48H881.227V47H880.227V48ZM863.627 48V47H862.627V48H863.627ZM863.627 150H880.227V148H863.627V150ZM881.227 149V90H879.227V149H881.227ZM881.227 90C881.227 72.9977 895.332 60.2 911.827 60.2V58.2C894.321 58.2 879.227 71.8023 879.227 90H881.227ZM911.827 60.2C920.274 60.2 926.894 63.202 931.41 68.1957C935.937 73.2017 938.427 80.2959 938.427 88.6H940.427C940.427 79.9041 937.816 72.2983 932.893 66.8543C927.959 61.398 920.779 58.2 911.827 58.2V60.2ZM938.427 88.6V149H940.427V88.6H938.427ZM939.427 150H956.027V148H939.427V150ZM957.027 149V88.6H955.027V149H957.027ZM957.027 88.6C957.027 75.5873 952.856 64.2328 945.361 56.1213C937.858 48.0017 927.085 43.2 914.027 43.2V45.2C926.568 45.2 936.795 49.7982 943.892 57.4787C950.997 65.1672 955.027 76.0127 955.027 88.6H957.027ZM914.027 43.2C900.272 43.2 888.762 49.7851 881.385 61.2592L883.068 62.3408C890.091 51.4149 900.981 45.2 914.027 45.2V43.2ZM882.227 60.8H880.227V62.8H882.227V60.8ZM881.227 61.8V48H879.227V61.8H881.227ZM880.227 47H863.627V49H880.227V47ZM862.627 48V149H864.627V48H862.627ZM1087.32 48H1088.32V47H1087.32V48ZM1070.92 48V47H1069.92V48H1070.92ZM1070.92 62.4V63.4H1071.92V62.4H1070.92ZM1068.92 62.4L1068.13 63.009L1068.43 63.4H1068.92V62.4ZM1068.72 133.6V132.6H1068.23L1067.93 132.982L1068.72 133.6ZM1070.72 133.6H1071.72V132.6H1070.72V133.6ZM998.12 159.2L999.065 158.873L998.73 157.905L997.77 158.263L998.12 159.2ZM981.52 165.4L981.17 164.463L980.274 164.798L980.569 165.708L981.52 165.4ZM1033.52 200C1050.03 200 1063.74 194.883 1073.34 185.671C1082.94 176.456 1088.32 163.231 1088.32 147.2H1086.32C1086.32 162.769 1081.1 175.444 1071.95 184.229C1062.8 193.017 1049.61 198 1033.52 198V200ZM1088.32 147.2V48H1086.32V147.2H1088.32ZM1087.32 47H1070.92V49H1087.32V47ZM1069.92 48V62.4H1071.92V48H1069.92ZM1070.92 61.4H1068.92V63.4H1070.92V61.4ZM1069.71 61.791C1060.94 50.3629 1048.45 43.2 1031.92 43.2V45.2C1047.79 45.2 1059.7 52.0371 1068.13 63.009L1069.71 61.791ZM1031.92 43.2C1000.93 43.2 978.52 66.6829 978.52 98.4H980.52C980.52 67.7171 1002.11 45.2 1031.92 45.2V43.2ZM978.52 98.4C978.52 129.94 1000.96 152.6 1031.92 152.6V150.6C1002.09 150.6 980.52 128.86 980.52 98.4H978.52ZM1031.92 152.6C1048.05 152.6 1060.53 145.64 1069.51 134.218L1067.93 132.982C1059.31 143.96 1047.39 150.6 1031.92 150.6V152.6ZM1068.72 134.6H1070.72V132.6H1068.72V134.6ZM1069.72 133.6V147.2H1071.72V133.6H1069.72ZM1069.72 147.2C1069.72 158.284 1066.19 167.214 1060.06 173.369C1053.93 179.525 1045.1 183 1034.32 183V185C1045.54 185 1054.91 181.375 1061.48 174.781C1068.05 168.186 1071.72 158.716 1071.72 147.2H1069.72ZM1034.32 183C1025.49 183 1018 180.746 1012.07 176.628C1006.13 172.512 1001.7 166.494 999.065 158.873L997.175 159.527C999.937 167.506 1004.61 173.888 1010.93 178.272C1017.24 182.654 1025.15 185 1034.32 185V183ZM997.77 158.263L981.17 164.463L981.87 166.337L998.47 160.137L997.77 158.263ZM980.569 165.708C987.529 187.201 1007.18 200 1033.52 200V198C1007.86 198 989.112 185.599 982.472 165.092L980.569 165.708ZM1033.72 136C1012.5 136 997.12 120.076 997.12 98.4H995.12C995.12 121.124 1011.34 138 1033.72 138V136ZM997.12 98.4C997.12 76.1069 1012.52 60 1033.72 60V58C1011.32 58 995.12 75.093 995.12 98.4H997.12ZM1033.72 60C1054.73 60 1070.32 76.1105 1070.32 98.4H1072.32C1072.32 75.0894 1055.91 58 1033.72 58V60ZM1070.32 98.4C1070.32 120.076 1054.94 136 1033.72 136V138C1056.1 138 1072.32 121.124 1072.32 98.4H1070.32ZM1215.92 125.4L1216.83 125.83L1217.25 124.95L1216.38 124.508L1215.92 125.4ZM1202.12 118.4L1202.58 117.508L1201.7 117.065L1201.24 117.929L1202.12 118.4ZM1129.72 104V103H1128.6L1128.73 104.117L1129.72 104ZM1219.12 104V105H1220.04L1220.12 104.091L1219.12 104ZM1129.92 89.4L1128.94 89.2479L1128.76 90.4H1129.92V89.4ZM1201.92 89.4V90.4H1203.1L1202.91 89.2374L1201.92 89.4ZM1167.12 154C1189.83 154 1208.43 143.443 1216.83 125.83L1215.02 124.97C1207.02 141.757 1189.21 152 1167.12 152V154ZM1216.38 124.508L1202.58 117.508L1201.67 119.292L1215.47 126.292L1216.38 124.508ZM1201.24 117.929C1195.03 129.572 1182.19 137 1167.52 137V139C1182.86 139 1196.42 131.228 1203.01 118.871L1201.24 117.929ZM1167.52 137C1147.45 137 1133.06 123.795 1130.72 103.883L1128.73 104.117C1131.19 125.005 1146.4 139 1167.52 139V137ZM1129.72 105H1219.12V103H1129.72V105ZM1220.12 104.091C1220.32 101.838 1220.32 99.3915 1220.32 97.4H1218.32C1218.32 99.4085 1218.32 101.762 1218.13 103.909L1220.12 104.091ZM1220.32 97.4C1220.32 65.8552 1197.68 43 1166.32 43V45C1196.56 45 1218.32 66.9448 1218.32 97.4H1220.32ZM1166.32 43C1134.58 43 1111.72 65.8427 1111.72 97.2H1113.72C1113.72 66.9573 1135.67 45 1166.32 45V43ZM1111.72 97.2C1111.72 130.128 1134.95 154 1167.12 154V152C1136.1 152 1113.72 129.072 1113.72 97.2H1111.72ZM1130.91 89.5521C1133.64 71.8424 1147.41 60 1165.52 60V58C1146.43 58 1131.81 70.5576 1128.94 89.2479L1130.91 89.5521ZM1165.52 60C1184.24 60 1198.02 71.8524 1200.94 89.5626L1202.91 89.2374C1199.83 70.5476 1185.21 58 1165.52 58V60ZM1201.92 88.4H1129.92V90.4H1201.92V88.4ZM55.2 359C87.3572 359 110.4 335.947 110.4 303.4H108.4C108.4 334.853 86.2428 357 55.2 357V359ZM110.4 303.4C110.4 271.05 87.3547 248 55.2 248V250C86.2453 250 108.4 272.15 108.4 303.4H110.4ZM55.2 248C39.0563 248 25.2439 253.741 15.4661 263.57C5.68863 273.398 0 287.259 0 303.4H2C2 287.741 7.51137 274.402 16.8839 264.98C26.2561 255.559 39.5437 250 55.2 250V248ZM0 303.4C0 319.639 5.68752 333.55 15.4651 343.404C25.2433 353.259 39.0562 359 55.2 359V357C39.5438 357 26.2567 351.441 16.8849 341.996C7.51248 332.55 2 319.161 2 303.4H0ZM55.2 342C33.8033 342 18.6 325.9 18.6 303.4H16.6C16.6 326.9 32.5967 344 55.2 344V342ZM18.6 303.4C18.6 281.103 33.8 265 55.2 265V263C32.6 263 16.6 280.097 16.6 303.4H18.6ZM55.2 265C76.4035 265 91.8 281.107 91.8 303.4H93.8C93.8 280.093 77.5966 263 55.2 263V265ZM91.8 303.4C91.8 325.896 76.4002 342 55.2 342V344C77.5998 344 93.8 326.904 93.8 303.4H91.8ZM224.92 253H225.92V252H224.92V253ZM208.32 253V252H207.32V253H208.32ZM149.32 253H150.32V252H149.32V253ZM132.72 253V252H131.72V253H132.72ZM206.32 340.2V339.2H205.771L205.477 339.663L206.32 340.2ZM208.32 340.2H209.32V339.2H208.32V340.2ZM208.32 354H207.32V355H208.32V354ZM224.92 354V355H225.92V354H224.92ZM224.92 252H208.32V254H224.92V252ZM207.32 253V311.8H209.32V253H207.32ZM207.32 311.8C207.32 328.998 193.219 341.6 176.72 341.6V343.6C194.222 343.6 209.32 330.202 209.32 311.8H207.32ZM176.72 341.6C168.268 341.6 161.702 338.645 157.239 333.681C152.764 328.704 150.32 321.611 150.32 313.2H148.32C148.32 321.989 150.876 329.596 155.752 335.019C160.639 340.455 167.772 343.6 176.72 343.6V341.6ZM150.32 313.2V253H148.32V313.2H150.32ZM149.32 252H132.72V254H149.32V252ZM131.72 253V313.2H133.72V253H131.72ZM131.72 313.2C131.72 326.308 135.838 337.664 143.311 345.754C150.792 353.852 161.567 358.6 174.72 358.6V356.6C162.074 356.6 151.849 352.048 144.78 344.396C137.703 336.736 133.72 325.892 133.72 313.2H131.72ZM174.72 358.6C188.268 358.6 199.983 352.021 207.164 340.737L205.477 339.663C198.657 350.379 187.573 356.6 174.72 356.6V358.6ZM206.32 341.2H208.32V339.2H206.32V341.2ZM207.32 340.2V354H209.32V340.2H207.32ZM208.32 355H224.92V353H208.32V355ZM225.92 354V253H223.92V354H225.92ZM255.814 354H254.814V355H255.814V354ZM272.414 354V355H273.414V354H272.414ZM313.214 269L312.824 269.921L314.214 270.509V269H313.214ZM313.214 253.6H314.214V253L313.685 252.718L313.214 253.6ZM273.814 266.6V267.6H274.432L274.708 267.047L273.814 266.6ZM272.014 266.6H271.014V267.6H272.014V266.6ZM272.014 253H273.014V252H272.014V253ZM255.814 253V252H254.814V253H255.814ZM255.814 355H272.414V353H255.814V355ZM273.414 354V299.6H271.414V354H273.414ZM273.414 299.6C273.414 289.768 276.02 281.598 280.406 275.911C284.778 270.242 290.942 267 298.214 267V265C290.286 265 283.55 268.558 278.822 274.689C274.108 280.802 271.414 289.432 271.414 299.6H273.414ZM298.214 267C301.91 267 307.773 267.784 312.824 269.921L313.604 268.079C308.255 265.816 302.118 265 298.214 265V267ZM314.214 269V253.6H312.214V269H314.214ZM313.685 252.718C310.497 251.017 305.521 250 300.814 250V252C305.307 252 309.932 252.983 312.743 254.482L313.685 252.718ZM300.814 250C289.285 250 277.71 256.572 272.92 266.153L274.708 267.047C279.118 258.228 289.943 252 300.814 252V250ZM273.814 265.6H272.014V267.6H273.814V265.6ZM273.014 266.6V253H271.014V266.6H273.014ZM272.014 252H255.814V254H272.014V252ZM254.814 253V354H256.814V253H254.814ZM376.325 295.4L376.45 294.408L376.444 294.407L376.325 295.4ZM398.725 283.2L397.725 283.216L397.741 284.2H398.725V283.2ZM414.925 283.2V284.2H415.925V283.2H414.925ZM372.525 310.8L372.655 309.809L372.648 309.808L372.641 309.807L372.525 310.8ZM346.125 319.8L347.125 319.786L347.111 318.8H346.125V319.8ZM330.125 319.8V318.8H329.125V319.8H330.125ZM375.925 359C388.955 359 399.494 356.124 406.801 350.624C414.146 345.096 418.125 336.99 418.125 326.8H416.125C416.125 336.41 412.404 343.904 405.599 349.026C398.756 354.176 388.695 357 375.925 357V359ZM418.125 326.8C418.125 320.594 416.725 315.573 414.279 311.506C411.834 307.442 408.378 304.388 404.351 302.059C396.333 297.423 385.948 295.608 376.45 294.408L376.2 296.392C385.702 297.592 395.717 299.377 403.349 303.791C407.147 305.987 410.329 308.82 412.565 312.537C414.799 316.252 416.125 320.906 416.125 326.8H418.125ZM376.444 294.407C368.874 293.499 361.888 292.81 356.762 290.818C354.223 289.831 352.228 288.554 350.866 286.845C349.518 285.153 348.725 282.957 348.725 280H346.725C346.725 283.343 347.632 285.997 349.302 288.092C350.959 290.171 353.302 291.619 356.038 292.682C361.462 294.79 368.776 295.501 376.206 296.393L376.444 294.407ZM348.725 280C348.725 275.167 351.03 271.211 355.113 268.426C359.226 265.621 365.161 264 372.325 264V262C364.889 262 358.524 263.679 353.987 266.774C349.42 269.889 346.725 274.433 346.725 280H348.725ZM372.325 264C379.969 264 386.289 265.912 390.697 269.247C395.08 272.565 397.63 277.328 397.725 283.216L399.725 283.184C399.62 276.672 396.77 271.335 391.903 267.653C387.061 263.988 380.281 262 372.325 262V264ZM398.725 284.2H414.925V282.2H398.725V284.2ZM415.925 283.2C415.925 272.497 411.488 263.659 403.799 257.519C396.131 251.394 385.293 248 372.525 248V250C384.957 250 395.319 253.306 402.551 259.081C409.762 264.841 413.925 273.102 413.925 283.2H415.925ZM372.525 248C360.272 248 349.888 251.037 342.542 256.656C335.17 262.295 330.925 270.489 330.925 280.6H332.925C332.925 271.111 336.88 263.505 343.758 258.244C350.662 252.963 360.578 250 372.525 250V248ZM330.925 280.6C330.925 286.515 332.329 291.328 334.777 295.243C337.222 299.152 340.673 302.108 344.684 304.371C352.673 308.878 363.001 310.692 372.409 311.793L372.641 309.807C363.249 308.708 353.277 306.922 345.666 302.629C341.877 300.492 338.703 297.748 336.473 294.182C334.246 290.622 332.925 286.185 332.925 280.6H330.925ZM372.395 311.791C380.071 312.801 387.152 313.538 392.352 315.628C394.926 316.662 396.953 317.998 398.34 319.793C399.716 321.573 400.525 323.886 400.525 327H402.525C402.525 323.514 401.609 320.752 399.922 318.57C398.247 316.402 395.874 314.888 393.098 313.772C387.598 311.562 380.179 310.799 372.655 309.809L372.395 311.791ZM400.525 327C400.525 331.944 398.261 335.892 394.167 338.645C390.036 341.423 384.002 343 376.525 343V345C384.248 345 390.714 343.377 395.283 340.305C399.889 337.208 402.525 332.656 402.525 327H400.525ZM376.525 343C367.188 343 359.883 340.592 354.908 336.526C349.951 332.474 347.221 326.71 347.125 319.786L345.125 319.814C345.229 327.29 348.199 333.626 353.642 338.074C359.067 342.508 366.862 345 376.525 345V343ZM346.125 318.8H330.125V320.8H346.125V318.8ZM329.125 319.8C329.125 332.05 333.423 341.899 341.508 348.667C349.569 355.414 361.275 359 375.925 359V357C361.575 357 350.381 353.486 342.792 347.133C335.227 340.801 331.125 331.55 331.125 319.8H329.125ZM541.509 330.4L542.412 330.83L542.832 329.95L541.962 329.508L541.509 330.4ZM527.709 323.4L528.162 322.508L527.288 322.065L526.827 322.929L527.709 323.4ZM455.309 309V308H454.185L454.316 309.117L455.309 309ZM544.709 309V310H545.623L545.705 309.091L544.709 309ZM455.509 294.4L454.521 294.248L454.344 295.4H455.509V294.4ZM527.509 294.4V295.4H528.688L528.496 294.237L527.509 294.4ZM492.709 359C515.418 359 534.015 348.443 542.412 330.83L540.607 329.97C532.603 346.757 514.801 357 492.709 357V359ZM541.962 329.508L528.162 322.508L527.257 324.292L541.057 331.292L541.962 329.508ZM526.827 322.929C520.617 334.573 507.777 342 493.109 342V344C508.442 344 522.001 336.228 528.592 323.871L526.827 322.929ZM493.109 342C473.032 342 458.645 328.795 456.303 308.883L454.316 309.117C456.774 330.005 471.987 344 493.109 344V342ZM455.309 310H544.709V308H455.309V310ZM545.705 309.091C545.91 306.838 545.909 304.392 545.909 302.4H543.909C543.909 304.408 543.909 306.762 543.714 308.909L545.705 309.091ZM545.909 302.4C545.909 270.855 523.269 248 491.909 248V250C522.15 250 543.909 271.945 543.909 302.4H545.909ZM491.909 248C460.162 248 437.309 270.843 437.309 302.2H439.309C439.309 271.957 461.257 250 491.909 250V248ZM437.309 302.2C437.309 335.128 460.533 359 492.709 359V357C461.686 357 439.309 334.072 439.309 302.2H437.309ZM456.498 294.552C459.222 276.842 473 265 491.109 265V263C472.018 263 457.396 275.558 454.521 294.248L456.498 294.552ZM491.109 265C509.827 265 523.603 276.852 526.523 294.563L528.496 294.237C525.415 275.548 510.792 263 491.109 263V265ZM527.509 293.4H455.509V295.4H527.509V293.4ZM570.463 354H569.463V355H570.463V354ZM587.062 354V355H588.062V354H587.062ZM587.062 207H588.062V206H587.062V207ZM570.463 207V206H569.463V207H570.463ZM570.463 355H587.062V353H570.463V355ZM588.062 354V207H586.062V354H588.062ZM587.062 206H570.463V208H587.062V206ZM569.463 207V354H571.463V207H569.463ZM643.128 354L642.193 354.355L642.438 355H643.128V354ZM666.728 354V355H667.418L667.663 354.355L666.728 354ZM705.128 253L706.063 253.355L706.578 252H705.128V253ZM688.128 253V252H687.431L687.19 252.654L688.128 253ZM655.728 340.8V341.8H656.425L656.666 341.146L655.728 340.8ZM653.928 340.8L652.989 341.144L653.23 341.8H653.928V340.8ZM621.728 253L622.667 252.656L622.427 252H621.728V253ZM604.728 253V252H603.278L603.793 253.355L604.728 253ZM643.128 355H666.728V353H643.128V355ZM667.663 354.355L706.063 253.355L704.193 252.645L665.793 353.645L667.663 354.355ZM705.128 252H688.128V254H705.128V252ZM687.19 252.654L654.79 340.454L656.666 341.146L689.066 253.346L687.19 252.654ZM655.728 339.8H653.928V341.8H655.728V339.8ZM654.867 340.456L622.667 252.656L620.789 253.344L652.989 341.144L654.867 340.456ZM621.728 252H604.728V254H621.728V252ZM603.793 253.355L642.193 354.355L644.063 353.645L605.663 252.645L603.793 253.355ZM819.048 330.4L819.951 330.83L820.371 329.95L819.501 329.508L819.048 330.4ZM805.248 323.4L805.701 322.508L804.827 322.065L804.366 322.929L805.248 323.4ZM732.848 309V308H731.724L731.855 309.117L732.848 309ZM822.248 309V310H823.162L823.244 309.091L822.248 309ZM733.048 294.4L732.06 294.248L731.883 295.4H733.048V294.4ZM805.048 294.4V295.4H806.227L806.035 294.237L805.048 294.4ZM770.248 359C792.957 359 811.555 348.443 819.951 330.83L818.146 329.97C810.142 346.757 792.34 357 770.248 357V359ZM819.501 329.508L805.701 322.508L804.796 324.292L818.596 331.292L819.501 329.508ZM804.366 322.929C798.156 334.573 785.316 342 770.648 342V344C785.981 344 799.54 336.228 806.131 323.871L804.366 322.929ZM770.648 342C750.571 342 736.184 328.795 733.842 308.883L731.855 309.117C734.313 330.005 749.526 344 770.648 344V342ZM732.848 310H822.248V308H732.848V310ZM823.244 309.091C823.449 306.838 823.448 304.392 823.448 302.4H821.448C821.448 304.408 821.448 306.762 821.253 308.909L823.244 309.091ZM823.448 302.4C823.448 270.855 800.808 248 769.448 248V250C799.689 250 821.448 271.945 821.448 302.4H823.448ZM769.448 248C737.701 248 714.848 270.843 714.848 302.2H716.848C716.848 271.957 738.796 250 769.448 250V248ZM714.848 302.2C714.848 335.128 738.072 359 770.248 359V357C739.225 357 716.848 334.072 716.848 302.2H714.848ZM734.037 294.552C736.761 276.842 750.539 265 768.648 265V263C749.557 263 734.935 275.558 732.06 294.248L734.037 294.552ZM768.648 265C787.366 265 801.143 276.852 804.062 294.563L806.035 294.237C802.954 275.548 788.331 263 768.648 263V265ZM805.048 293.4H733.048V295.4H805.048V293.4ZM889.802 295.4L889.927 294.408L889.921 294.407L889.802 295.4ZM912.202 283.2L911.202 283.216L911.218 284.2H912.202V283.2ZM928.402 283.2V284.2H929.402V283.2H928.402ZM886.002 310.8L886.132 309.809L886.125 309.808L886.118 309.807L886.002 310.8ZM859.602 319.8L860.601 319.786L860.588 318.8H859.602V319.8ZM843.602 319.8V318.8H842.602V319.8H843.602ZM889.402 359C902.431 359 912.971 356.124 920.278 350.624C927.622 345.096 931.602 336.99 931.602 326.8H929.602C929.602 336.41 925.881 343.904 919.075 349.026C912.232 354.176 902.172 357 889.402 357V359ZM931.602 326.8C931.602 320.594 930.202 315.573 927.755 311.506C925.31 307.442 921.854 304.388 917.827 302.059C909.809 297.423 899.425 295.608 889.927 294.408L889.676 296.392C899.178 297.592 909.194 299.377 916.826 303.791C920.624 305.987 923.805 308.82 926.042 312.537C928.276 316.252 929.602 320.906 929.602 326.8H931.602ZM889.921 294.407C882.351 293.499 875.365 292.81 870.239 290.818C867.7 289.831 865.705 288.554 864.343 286.845C862.994 285.153 862.202 282.957 862.202 280H860.202C860.202 283.343 861.109 285.997 862.779 288.092C864.436 290.171 866.778 291.619 869.514 292.682C874.938 294.79 882.252 295.501 889.682 296.393L889.921 294.407ZM862.202 280C862.202 275.167 864.507 271.211 868.59 268.426C872.702 265.621 878.637 264 885.802 264V262C878.366 262 872.001 263.679 867.463 266.774C862.896 269.889 860.202 274.433 860.202 280H862.202ZM885.802 264C893.446 264 899.766 265.912 904.173 269.247C908.557 272.565 911.107 277.328 911.202 283.216L913.201 283.184C913.096 276.672 910.247 271.335 905.38 267.653C900.537 263.988 893.757 262 885.802 262V264ZM912.202 284.2H928.402V282.2H912.202V284.2ZM929.402 283.2C929.402 272.497 924.964 263.659 917.276 257.519C909.607 251.394 898.77 248 886.002 248V250C898.434 250 908.796 253.306 916.028 259.081C923.239 264.841 927.402 273.102 927.402 283.2H929.402ZM886.002 248C873.749 248 863.365 251.037 856.019 256.656C848.646 262.295 844.402 270.489 844.402 280.6H846.402C846.402 271.111 850.357 263.505 857.234 258.244C864.138 252.963 874.054 250 886.002 250V248ZM844.402 280.6C844.402 286.515 845.806 291.328 848.254 295.243C850.699 299.152 854.149 302.108 858.16 304.371C866.15 308.878 876.477 310.692 885.885 311.793L886.118 309.807C876.726 308.708 866.754 306.922 859.143 302.629C855.354 300.492 852.18 297.748 849.949 294.182C847.722 290.622 846.402 286.185 846.402 280.6H844.402ZM885.871 311.791C893.547 312.801 900.628 313.538 905.829 315.628C908.403 316.662 910.43 317.998 911.817 319.793C913.192 321.573 914.002 323.886 914.002 327H916.002C916.002 323.514 915.086 320.752 913.399 318.57C911.723 316.402 909.351 314.888 906.574 313.772C901.075 311.562 893.656 310.799 886.132 309.809L885.871 311.791ZM914.002 327C914.002 331.944 911.737 335.892 907.644 338.645C903.512 341.423 897.479 343 890.002 343V345C897.724 345 904.191 343.377 908.76 340.305C913.366 337.208 916.002 332.656 916.002 327H914.002ZM890.002 343C880.665 343 873.36 340.592 868.384 336.526C863.427 332.474 860.698 326.71 860.601 319.786L858.602 319.814C858.706 327.29 861.676 333.626 867.119 338.074C872.543 342.508 880.338 345 890.002 345V343ZM859.602 318.8H843.602V320.8H859.602V318.8ZM842.602 319.8C842.602 332.05 846.9 341.899 854.985 348.667C863.045 355.414 874.751 359 889.402 359V357C875.052 357 863.858 353.486 856.268 347.133C848.703 340.801 844.602 331.55 844.602 319.8H842.602Z" fill="#4AC6D2"/>
</svg>
