<?xml version="1.0" encoding="utf-8"?>
<!-- Generator: Adobe Illustrator 22.1.0, SVG Export Plug-In . SVG Version: 6.00 Build 0)  -->
<svg version="1.1" id="Слой_1" xmlns="http://www.w3.org/2000/svg" xmlns:xlink="http://www.w3.org/1999/xlink" x="0px" y="0px"
	 viewBox="0 0 150 150" style="enable-background:new 0 0 150 150;" xml:space="preserve">
<style type="text/css">
	.st0{fill:#131313;}
</style>
<path class="st0" d="M140.8,11.7H9.2C4.1,11.7,0,15.9,0,21v89.2c0,5.1,4.1,9.2,9.2,9.2h44.5l-1.8,14.4h-7.5c-1.2,0-2.2,1-2.2,2.2
	c0,1.2,1,2.2,2.2,2.2h61.1c1.2,0,2.2-1,2.2-2.2c0-1.2-1-2.2-2.2-2.2h-7.5l-1.8-14.4h44.5c5.1,0,9.2-4.1,9.2-9.2V21
	C150,15.9,145.9,11.7,140.8,11.7z M56.4,133.9l1.8-14.4h8.1l0.8,3.2c0.9,3.7,4.2,6.2,8,6.2c3.8,0,7.1-2.6,8-6.2l0.8-3.2h8.1
	l1.8,14.4H56.4z M70.8,119.5h8.5l-0.5,2.1c-0.4,1.7-1.9,2.9-3.7,2.9c-1.8,0-3.3-1.2-3.7-2.9L70.8,119.5z M145.6,110.2
	c0,2.7-2.2,4.8-4.8,4.8H9.2c-2.7,0-4.8-2.2-4.8-4.8V21c0-2.7,2.2-4.8,4.8-4.8h131.5c2.7,0,4.8,2.2,4.8,4.8V110.2z M124.3,21.1H11.6
	c-1.2,0-2.2,1-2.2,2.2v84.5c0,1.2,1,2.2,2.2,2.2h4.7c1.2,0,2.2-1,2.2-2.2c0-1.2-1-2.2-2.2-2.2h-2.5V25.5h110.5c1.2,0,2.2-1,2.2-2.2
	C126.5,22.1,125.5,21.1,124.3,21.1z M133.7,21.1h4.7c1.2,0,2.2,1,2.2,2.2v84.5c0,1.2-1,2.2-2.2,2.2H25.7c-1.2,0-2.2-1-2.2-2.2
	c0-1.2,1-2.2,2.2-2.2h110.5V25.5h-2.5c-1.2,0-2.2-1-2.2-2.2C131.5,22.1,132.5,21.1,133.7,21.1z"/>
<g>
	<path class="st0" d="M104.1,90h-1V53.3c0-0.5-0.4-0.9-0.9-0.9H91.8v-1.9c0-1-0.8-1.8-1.8-1.8h-5.7c-0.4-4.7-4.4-8.5-9.3-8.5
		s-8.8,3.7-9.3,8.5H60c-1,0-1.8,0.8-1.8,1.8v1.9H47.8c-0.5,0-0.9,0.4-0.9,0.9v1.9c0,0.5,0.4,0.9,0.9,0.9c0.5,0,0.9-0.4,0.9-0.9v-1
		h18.3c1.6,2.8,4.6,4.7,8.1,4.7c3.5,0,6.5-1.9,8.1-4.7h18.3v23.6H89v-2.9c0-0.5-0.4-0.9-0.9-0.9H61.8c-0.5,0-0.9,0.4-0.9,0.9v2.9
		H48.6V59c0-0.5-0.4-0.9-0.9-0.9c-0.5,0-0.9,0.4-0.9,0.9V90h-1c-0.5,0-0.9,0.4-0.9,0.9c0,0.5,0.4,0.9,0.9,0.9h58.2
		c0.5,0,0.9-0.4,0.9-0.9C105,90.4,104.6,90,104.1,90z M59.9,52.4v-1.9c0,0,0-0.1,0.1-0.1h5.7c0.1,0.7,0.2,1.4,0.4,2H59.9z M75,57.1
		c-4.2,0-7.6-3.4-7.6-7.6c0-4.2,3.4-7.6,7.6-7.6s7.6,3.4,7.6,7.6C82.6,53.7,79.2,57.1,75,57.1z M90.1,52.4h-6.2
		c0.2-0.6,0.3-1.3,0.4-2H90c0,0,0.1,0,0.1,0.1V52.4z M92.8,79.6h4.8v5.8h-4.8V79.6z M62.7,75.8h24.5v2H62.7V75.8z M52.4,79.6h4.8
		v5.8h-4.8V79.6z M62.8,90H48.6V79.6h2v6.6c0,0.5,0.4,0.9,0.9,0.9h6.6c0.5,0,0.9-0.4,0.9-0.9v-6.6h3.9V90z M74.1,90h-9.5V79.6h9.5
		V90z M101.4,90H87.2v-5.7c0-0.5-0.4-0.9-0.9-0.9c-0.5,0-0.9,0.4-0.9,0.9V90h-9.5V79.6h9.5v1c0,0.5,0.4,0.9,0.9,0.9
		c0.5,0,0.9-0.4,0.9-0.9v-1H91v6.6c0,0.5,0.4,0.9,0.9,0.9h6.6c0.5,0,0.9-0.4,0.9-0.9v-6.6h2V90z"/>
	<path class="st0" d="M58.1,72c0.5,0,0.9-0.4,0.9-0.9v-8.5c0-0.5-0.4-0.9-0.9-0.9h-6.6c-0.5,0-0.9,0.4-0.9,0.9v8.5
		c0,0.5,0.4,0.9,0.9,0.9H58.1z M52.4,63.6h4.8v6.7h-4.8V63.6z"/>
	<path class="st0" d="M98.5,72c0.5,0,0.9-0.4,0.9-0.9v-8.5c0-0.5-0.4-0.9-0.9-0.9h-6.6c-0.5,0-0.9,0.4-0.9,0.9v8.5
		c0,0.5,0.4,0.9,0.9,0.9H98.5z M92.8,63.6h4.8v6.7h-4.8V63.6z"/>
	<path class="st0" d="M61.8,72h26.3c0.5,0,0.9-0.4,0.9-0.9v-8.5c0-0.5-0.4-0.9-0.9-0.9H61.8c-0.5,0-0.9,0.4-0.9,0.9v8.5
		C61,71.7,61.4,72,61.8,72z M82.5,63.6h4.8v6.7h-4.8V63.6z M75.9,63.6h4.8v6.7h-4.8V63.6z M69.3,63.6h4.8v6.7h-4.8V63.6z M62.7,63.6
		h4.8v6.7h-4.8V63.6z"/>
</g>
</svg>
