<?xml version="1.0" encoding="utf-8"?>
<!-- Generator: Adobe Illustrator 22.1.0, SVG Export Plug-In . SVG Version: 6.00 Build 0)  -->
<svg version="1.1" id="Слой_1" xmlns="http://www.w3.org/2000/svg" xmlns:xlink="http://www.w3.org/1999/xlink" x="0px" y="0px"
	 viewBox="0 0 150 150" style="enable-background:new 0 0 150 150;" xml:space="preserve">
<style type="text/css">
	.st0{fill:#131313;}
</style>
<path class="st0" d="M140.8,11.7H9.2C4.1,11.7,0,15.9,0,21v89.2c0,5.1,4.1,9.2,9.2,9.2h44.5l-1.8,14.4h-7.5c-1.2,0-2.2,1-2.2,2.2
	c0,1.2,1,2.2,2.2,2.2h61.1c1.2,0,2.2-1,2.2-2.2c0-1.2-1-2.2-2.2-2.2h-7.5l-1.8-14.4h44.5c5.1,0,9.2-4.1,9.2-9.2V21
	C150,15.9,145.9,11.7,140.8,11.7z M56.4,133.9l1.8-14.4h8.1l0.8,3.2c0.9,3.7,4.2,6.2,8,6.2c3.8,0,7.1-2.6,8-6.2l0.8-3.2h8.1
	l1.8,14.4H56.4z M70.8,119.5h8.5l-0.5,2.1c-0.4,1.7-1.9,2.9-3.7,2.9c-1.8,0-3.3-1.2-3.7-2.9L70.8,119.5z M145.6,110.2
	c0,2.7-2.2,4.8-4.8,4.8H9.2c-2.7,0-4.8-2.2-4.8-4.8V21c0-2.7,2.2-4.8,4.8-4.8h131.5c2.7,0,4.8,2.2,4.8,4.8V110.2z M124.3,21.1H11.6
	c-1.2,0-2.2,1-2.2,2.2v84.5c0,1.2,1,2.2,2.2,2.2h4.7c1.2,0,2.2-1,2.2-2.2c0-1.2-1-2.2-2.2-2.2h-2.5V25.5h110.5c1.2,0,2.2-1,2.2-2.2
	C126.5,22.1,125.5,21.1,124.3,21.1z M133.7,21.1h4.7c1.2,0,2.2,1,2.2,2.2v84.5c0,1.2-1,2.2-2.2,2.2H25.7c-1.2,0-2.2-1-2.2-2.2
	c0-1.2,1-2.2,2.2-2.2h110.5V25.5h-2.5c-1.2,0-2.2-1-2.2-2.2C131.5,22.1,132.5,21.1,133.7,21.1z"/>
<g>
	<path class="st0" d="M87,44h-3c-1.4,0-2.6,1-2.9,2.3c-2.3,1.2-13.6,6.5-28.5,8.5c-0.8,0.1-1.6,0.6-2,1.2h-2.6
		C46.3,56,45,57.4,45,59v6c0,1.6,1.3,2.9,2.9,2.9h2.6c0.5,0.6,1.2,1.1,2,1.2c0.1,0,0.3,0,0.4,0.1l4.6,16.6c0.4,1.3,1.5,2.2,2.8,2.2
		H66c0,0,0,0,0,0c0,0,0,0,0,0h1c0.5,0,0.9-0.4,0.9-0.9c0-0.5-0.4-0.9-0.9-0.9h-0.3L62.5,71c9.9,2.4,16.9,5.7,18.6,6.6
		C81.4,79,82.6,80,84,80h3c1.6,0,2.9-1.3,2.9-2.9V47C90,45.3,88.6,44,87,44z M50,66.1h-2.1c-0.6,0-1.1-0.5-1.1-1.1v-6
		c0-0.6,0.5-1.1,1.1-1.1H50V66.1z M64.7,86.1h-4.3c-0.5,0-0.9-0.3-1-0.8l-4.4-15.8c1.8,0.3,3.6,0.6,5.3,1L64.7,86.1z M88.1,77
		c0,0.6-0.5,1.1-1.1,1.1h-3c-0.6,0-1.1-0.5-1.1-1.1v0c0,0,0,0,0,0V55c0-0.5-0.4-0.9-0.9-0.9c-0.5,0-0.9,0.4-0.9,0.9v20.5
		c-3.7-1.8-14.5-6.4-28.2-8.2c-0.5-0.1-0.9-0.5-0.9-1.1v-8.5c0-0.5,0.4-1,0.9-1.1c13.8-1.8,24.5-6.5,28.2-8.2V51
		c0,0.5,0.4,0.9,0.9,0.9c0.5,0,0.9-0.4,0.9-0.9v-4c0,0,0,0,0,0v0c0-0.6,0.5-1.1,1.1-1.1h3c0.6,0,1.1,0.5,1.1,1.1V77z"/>
	<path class="st0" d="M104.1,61.1H94c-0.5,0-0.9,0.4-0.9,0.9c0,0.5,0.4,0.9,0.9,0.9h10c0.5,0,0.9-0.4,0.9-0.9
		C105,61.5,104.6,61.1,104.1,61.1z"/>
	<path class="st0" d="M100.1,53.3c0.1,0,0.2,0,0.4-0.1l1-0.4c0.5-0.2,0.7-0.8,0.5-1.2c-0.2-0.5-0.8-0.7-1.2-0.5l-1,0.4
		c-0.5,0.2-0.7,0.8-0.5,1.2C99.3,53.1,99.7,53.3,100.1,53.3z"/>
	<path class="st0" d="M94,55.9c0.1,0,0.2,0,0.4-0.1l3-1.3c0.5-0.2,0.7-0.8,0.5-1.2c-0.2-0.5-0.8-0.7-1.2-0.5l-3,1.3
		c-0.5,0.2-0.7,0.8-0.5,1.2C93.3,55.7,93.7,55.9,94,55.9z"/>
	<path class="st0" d="M101.4,71.1l-1-0.4c-0.5-0.2-1,0-1.2,0.5c-0.2,0.5,0,1,0.5,1.2l1,0.4c0.1,0.1,0.2,0.1,0.4,0.1
		c0.4,0,0.7-0.2,0.9-0.6C102.1,71.9,101.9,71.4,101.4,71.1z"/>
	<path class="st0" d="M97.4,69.4l-3-1.3c-0.5-0.2-1,0-1.2,0.5c-0.2,0.5,0,1,0.5,1.2l3,1.3c0.1,0.1,0.2,0.1,0.4,0.1
		c0.4,0,0.7-0.2,0.9-0.6C98.1,70.2,97.9,69.6,97.4,69.4z"/>
</g>
</svg>
