<svg width="133" height="133" viewBox="0 0 133 133" fill="none" xmlns="http://www.w3.org/2000/svg">
<path d="M46.6698 72.1505C49.2285 69.4052 51.1742 67.1663 52.5602 65.4872C53.9462 63.808 55.3854 61.3026 56.9047 57.9976C58.4239 54.6926 59.1702 51.3876 59.1702 48.0826C59.1702 42.1655 57.0113 37.0481 52.7201 32.7036C48.4289 28.3591 42.4852 26.2002 34.9157 26.2002C28.0391 26.2002 22.362 28.3058 17.8842 32.4904C13.4065 36.7016 11.0343 42.2721 10.7678 49.202H24.6009C24.7341 46.0303 25.7736 43.3383 27.6926 41.0994C29.6117 38.8605 32.2237 37.7411 35.5287 37.7411C38.4073 37.7411 40.8327 38.7006 42.8051 40.6196C44.7774 42.5387 45.7369 45.0707 45.7369 48.1625C45.7369 51.5475 44.4043 55.2257 41.7123 59.197C40.4862 61.0627 36.5415 65.8337 29.9315 73.5365L9.70166 96.5649H59.6766V84.9974H34.8091L46.6698 72.1505Z" stroke="#131313" stroke-width="2" stroke-miterlimit="10"/>
<path d="M107.493 60.6896C110.371 59.2503 112.77 57.2246 114.609 54.6393C116.475 52.0539 117.408 48.9888 117.408 45.3906C117.408 40.0333 115.515 35.4755 111.731 31.7707C107.946 28.0659 102.642 26.2002 95.8453 26.2002C89.0487 26.2002 83.7181 28.0659 79.9599 31.7707C76.1752 35.4755 74.2828 40.0333 74.2828 45.3906C74.2828 48.9621 75.2157 52.0539 77.0814 54.6393C78.9471 57.2246 81.3193 59.2236 84.1978 60.6896C80.413 61.9156 77.4279 64.1012 75.2157 67.193C73.0034 70.2848 71.9106 73.8296 71.9106 77.8276C71.9106 83.6914 74.0962 88.5423 78.4674 92.3804C82.8385 96.2451 88.6489 98.1641 95.872 98.1641C103.095 98.1641 108.905 96.2451 113.277 92.3804C117.648 88.5156 119.833 83.6647 119.833 77.8276C119.833 73.8296 118.74 70.2848 116.528 67.193C114.263 64.1012 111.278 61.9423 107.493 60.6896ZM88.8888 38.594C90.6746 36.8082 92.9934 35.902 95.8187 35.902C98.6439 35.902 100.936 36.8082 102.749 38.594C104.534 40.3798 105.44 42.6986 105.44 45.5238C105.44 48.3491 104.534 50.6413 102.749 52.4537C100.963 54.2395 98.6439 55.1457 95.8187 55.1457C92.9934 55.1457 90.7012 54.2395 88.8888 52.4537C87.103 50.6679 86.1968 48.3491 86.1968 45.5238C86.2235 42.6986 87.103 40.3798 88.8888 38.594ZM103.362 84.5976C101.363 86.6232 98.8571 87.6361 95.8187 87.6361C92.7802 87.6361 90.2748 86.6232 88.2758 84.5976C86.2768 82.5719 85.2906 80.0132 85.2906 76.8948C85.2906 73.803 86.2768 71.2443 88.2758 69.192C90.2748 67.1663 92.7802 66.1535 95.8187 66.1535C98.8571 66.1535 101.363 67.1663 103.362 69.192C105.361 71.2176 106.347 73.7763 106.347 76.8948C106.347 79.9866 105.361 82.5719 103.362 84.5976Z" stroke="#131313" stroke-width="2" stroke-miterlimit="10"/>
<path d="M95.8186 66.1536C92.7801 66.1536 90.2747 67.1664 88.2757 69.192C86.2767 71.2177 85.2905 73.7764 85.2905 76.8948C85.2905 79.9866 86.2767 82.5453 88.2757 84.5976C90.2747 86.6233 92.7801 87.6361 95.8186 87.6361C98.8571 87.6361 101.362 86.6233 103.361 84.5976C105.36 82.572 106.347 80.0133 106.347 76.8948C106.347 73.8031 105.36 71.2443 103.361 69.192C101.362 67.193 98.8571 66.1536 95.8186 66.1536Z" fill="#F9F9F9"/>
<path d="M95.8186 55.1191C98.6439 55.1191 100.936 54.2128 102.748 52.4271C104.534 50.6413 105.44 48.3225 105.44 45.4972C105.44 42.672 104.534 40.3798 102.748 38.5673C100.963 36.7816 98.6439 35.8754 95.8186 35.8754C92.9934 35.8754 90.7012 36.7816 88.8888 38.5673C87.103 40.3531 86.1968 42.672 86.1968 45.4972C86.1968 48.3225 87.103 50.6146 88.8888 52.4271C90.7012 54.2128 92.9934 55.1191 95.8186 55.1191Z" fill="#F9F9F9"/>
<path d="M0 0V133H133V0H0ZM59.6768 96.6182H9.72846L29.9583 73.5898C36.5683 65.887 40.4864 61.0894 41.7391 59.2503C44.4311 55.2523 45.7637 51.5742 45.7637 48.2158C45.7637 45.124 44.7776 42.6186 42.8319 40.673C40.8595 38.7539 38.4341 37.7944 35.5555 37.7944C32.2505 37.7944 29.6385 38.9138 27.7194 41.1527C25.8004 43.3916 24.7609 46.0836 24.6277 49.2553H10.7413C11.0078 42.2988 13.38 36.7283 17.8577 32.5437C22.3355 28.3591 28.0126 26.2535 34.8892 26.2535C42.4587 26.2535 48.4024 28.4124 52.6936 32.7569C56.9848 37.1014 59.1437 42.2188 59.1437 48.1359C59.1437 51.4409 58.3974 54.7459 56.8782 58.0509C55.3589 61.3559 53.9196 63.8613 52.5337 65.5405C51.1477 67.2196 49.202 69.4585 46.6433 72.2038L34.7826 85.104H59.6501V96.6182H59.6768ZM113.223 92.3804C108.852 96.2451 103.042 98.1641 95.8186 98.1641C88.5956 98.1641 82.7852 96.2451 78.414 92.3804C74.0429 88.5156 71.8573 83.6647 71.8573 77.8277C71.8573 73.8297 72.9501 70.2848 75.1623 67.193C77.3745 64.1012 80.3597 61.9156 84.1445 60.6896C81.2659 59.2503 78.8671 57.2247 77.0281 54.6393C75.1623 52.0539 74.2295 48.9888 74.2295 45.3906C74.2295 40.0333 76.1218 35.4756 79.9066 31.7707C83.6914 28.0659 88.9954 26.2002 95.792 26.2002C102.589 26.2002 107.893 28.0659 111.677 31.7707C115.462 35.4756 117.355 40.0333 117.355 45.3906C117.355 48.9621 116.422 52.0539 114.556 54.6393C112.69 57.2247 110.318 59.2236 107.439 60.6896C111.224 61.9156 114.209 64.1012 116.422 67.193C118.634 70.2848 119.727 73.8297 119.727 77.8277C119.78 83.6914 117.594 88.5423 113.223 92.3804Z" fill="#F9F9F9"/>
</svg>
