<?xml version="1.0" encoding="utf-8"?>
<!-- Generator: Adobe Illustrator 22.1.0, SVG Export Plug-In . SVG Version: 6.00 Build 0)  -->
<svg version="1.1" id="Слой_1" xmlns="http://www.w3.org/2000/svg" xmlns:xlink="http://www.w3.org/1999/xlink" x="0px" y="0px"
	 viewBox="0 0 150 150" style="enable-background:new 0 0 150 150;" xml:space="preserve">
<style type="text/css">
	.st0{fill:#131313;}
</style>
<path class="st0" d="M140.8,11.7H9.2C4.1,11.7,0,15.9,0,21v89.2c0,5.1,4.1,9.2,9.2,9.2h44.5l-1.8,14.4h-7.5c-1.2,0-2.2,1-2.2,2.2
	c0,1.2,1,2.2,2.2,2.2h61.1c1.2,0,2.2-1,2.2-2.2c0-1.2-1-2.2-2.2-2.2h-7.5l-1.8-14.4h44.5c5.1,0,9.2-4.1,9.2-9.2V21
	C150,15.9,145.9,11.7,140.8,11.7z M56.4,133.9l1.8-14.4h8.1l0.8,3.2c0.9,3.7,4.2,6.2,8,6.2c3.8,0,7.1-2.6,8-6.2l0.8-3.2h8.1
	l1.8,14.4H56.4z M70.8,119.5h8.5l-0.5,2.1c-0.4,1.7-1.9,2.9-3.7,2.9c-1.8,0-3.3-1.2-3.7-2.9L70.8,119.5z M145.6,110.2
	c0,2.7-2.2,4.8-4.8,4.8H9.2c-2.7,0-4.8-2.2-4.8-4.8V21c0-2.7,2.2-4.8,4.8-4.8h131.5c2.7,0,4.8,2.2,4.8,4.8V110.2z M124.3,21.1H11.6
	c-1.2,0-2.2,1-2.2,2.2v84.5c0,1.2,1,2.2,2.2,2.2h4.7c1.2,0,2.2-1,2.2-2.2c0-1.2-1-2.2-2.2-2.2h-2.5V25.5h110.5c1.2,0,2.2-1,2.2-2.2
	C126.5,22.1,125.5,21.1,124.3,21.1z M133.7,21.1h4.7c1.2,0,2.2,1,2.2,2.2v84.5c0,1.2-1,2.2-2.2,2.2H25.7c-1.2,0-2.2-1-2.2-2.2
	c0-1.2,1-2.2,2.2-2.2h110.5V25.5h-2.5c-1.2,0-2.2-1-2.2-2.2C131.5,22.1,132.5,21.1,133.7,21.1z"/>
<g>
	<path class="st0" d="M101.3,69l-4.8-1.8l-2.4-2.4c-0.2-0.2-0.4-0.2-0.6-0.3v-1.9c1.2-1.2,2-2.8,2.3-4.5c0.2,0,0.4,0,0.6,0
		c1.2-0.2,2-1.3,2-2.6v-0.6c0-0.7-0.3-1.4-0.8-1.9c0.8-4.2,0.1-7.7-1.9-10c-1.9-2.2-5-3.3-9-3.1c-3.6,0.2-6,1.9-6.8,2.5
		c-0.4,0-1.1,0.2-1.8,0.6c-1,0.6-2.1,1.8-2.1,4.4c0,2.2,0.4,4.1,0.6,5.1c-0.9,0.4-1.4,1.3-1.4,2.4v0.6c0,1.3,0.8,2.3,2,2.6
		c0.2,0,0.4,0.1,0.6,0c0.3,1.7,1.1,3.3,2.3,4.5v1.9c-0.2,0-0.4,0.1-0.6,0.3l-2.4,2.4L72.4,69c-0.4,0.2-0.8,0.4-1.2,0.6
		c-0.4,0.3-0.5,0.8-0.2,1.2c0.2,0.3,0.4,0.4,0.7,0.4c0.2,0,0.3,0,0.5-0.2c0.3-0.2,0.5-0.3,0.8-0.4l4.4-1.7l3.4,5.1
		c0.4,0.6,1.1,1,1.9,1.1c0.1,0,0.2,0,0.3,0c0.4,0,0.9-0.1,1.2-0.3l-0.7,16.5c0,0.5,0.4,0.9,0.8,0.9c0,0,0,0,0,0
		c0.5,0,0.9-0.4,0.9-0.8l0.7-15.3h1.8l0.7,15.3c0,0.5,0.4,0.8,0.9,0.8c0,0,0,0,0,0c0.5,0,0.9-0.4,0.8-0.9l-0.7-16.5
		c0.4,0.2,0.8,0.3,1.2,0.3c0.1,0,0.2,0,0.3,0c0.8-0.1,1.4-0.5,1.9-1.1l3.4-5.1l4.4,1.7c0.6,0.2,1.2,0.6,1.6,1.1l-3,3
		c-1.1,1.1-1.7,2.6-1.7,4.1v12.5c0,0.5,0.4,0.9,0.9,0.9c0.5,0,0.9-0.4,0.9-0.9V78.9c0-1.1,0.4-2.1,1.2-2.9l2.7-2.7
		c0.1,0.4,0.2,0.8,0.1,1.2l-0.7,16.8c0,0.5,0.4,0.9,0.8,0.9c0,0,0,0,0,0c0.5,0,0.9-0.4,0.9-0.8l0.7-16.8
		C105.1,72.1,103.6,69.9,101.3,69z M79.6,57.6c-0.2-0.8-0.9-1.5-1.8-1.4c-0.1,0-0.1,0-0.2,0c-0.3-0.1-0.6-0.4-0.6-0.9v-0.6
		c0-0.4,0.3-0.8,0.6-0.8c0.3-0.1,0.6,0.1,0.8,0.3c0.2,0.2,0.4,0.4,0.6,0.4c0.4,0.1,0.8,0,1.1-0.2c0.5-0.4,1-0.9,1.4-1.4
		c0.3-0.4,0.2-0.9-0.2-1.2c-0.4-0.3-0.9-0.2-1.2,0.2c-0.2,0.3-0.4,0.5-0.7,0.7c-0.3-0.2-0.6-0.4-1-0.5c-0.2-0.9-0.6-2.7-0.6-5
		c0-1.3,0.4-2.3,1.2-2.8c0.6-0.4,1.3-0.4,1.3-0.4c0.2,0,0.4-0.1,0.6-0.2c0,0,2.2-2,5.9-2.2c3.4-0.2,6,0.7,7.6,2.5
		c1.6,1.8,2.1,4.6,1.5,8.1c-0.2,0-0.5,0-0.7,0.1l-0.8-2c-0.2-0.4-0.6-0.6-1-0.5c-0.1,0-8.2,2.1-11.6-2.2c-0.3-0.4-0.9-0.4-1.2-0.1
		c-0.4,0.3-0.4,0.9-0.1,1.2c3.5,4.3,10.4,3.4,12.7,2.9l0.6,1.5c0.3,0.7,1,1,1.7,0.9c0.3-0.1,0.6-0.1,0.7,0c0.4,0.1,0.6,0.4,0.6,0.8
		v0.6c0,0.4-0.3,0.8-0.6,0.9c-0.1,0-0.1,0-0.2,0c-0.8-0.1-1.6,0.6-1.8,1.4c-0.6,3.5-3.7,6-7.2,6S80.3,61.1,79.6,57.6z M83.5,73.1
		c-0.2,0.2-0.5,0.2-0.6,0.2c-0.1,0-0.4-0.1-0.6-0.3l-3.4-5.1l1.4-1.4l5.3,4.6L83.5,73.1z M86,74.3l0.1-1.2l0.8-0.8l0.8,0.8l0.1,1.2
		H86z M86.9,69.9L82,65.6v-1.7c1.4,0.9,3.1,1.4,4.9,1.4c1.8,0,3.5-0.5,4.9-1.4v1.7L86.9,69.9z M91.3,73c-0.2,0.3-0.4,0.3-0.6,0.3
		c-0.1,0-0.4,0-0.6-0.2l-2-2l5.3-4.6l1.4,1.4L91.3,73z"/>
	<path class="st0" d="M72.9,73.6l-4.3-1.9l-2.3-2.3c-0.2-0.2-0.4-0.2-0.6-0.3v-1.4c2-1.3,3.5-3.4,3.9-5.9c0.2,0,0.5,0,0.7-0.1
		c1.1-0.3,1.9-1.3,1.9-2.6v-0.6c0-0.9-0.4-1.7-1.1-2.2c0.2-0.8,0.3-1.6,0.3-2.4c0-3.6-2-6.8-4.9-8.7c0-3-2.6-5.5-5.8-5.5
		c-3.2,0-5.8,2.5-5.8,5.5c-3,1.8-4.9,5-4.9,8.7c0,0.8,0.1,1.6,0.3,2.4c-0.7,0.5-1.1,1.3-1.1,2.2v0.6c0,1.2,0.8,2.3,1.9,2.6
		c0.2,0.1,0.5,0.1,0.7,0.1c0.5,2.5,1.9,4.6,3.9,5.9v1.4c-0.2,0-0.4,0.1-0.6,0.3l-2.3,2.3l-4.3,1.9c-2.2,1-3.6,3.2-3.5,5.6l0.5,12.2
		c0,0.5,0.4,0.8,0.9,0.8c0,0,0,0,0,0c0.5,0,0.9-0.4,0.8-0.9l-0.5-12.2c0-0.8,0.2-1.6,0.6-2.2l2.3,2.8c0.7,0.9,1.1,2,1.1,3.1v8.6
		c0,0.5,0.4,0.9,0.9,0.9s0.9-0.4,0.9-0.9v-8.6c0-1.5-0.5-3.1-1.5-4.2l-2.5-2.9c0.2-0.1,0.4-0.3,0.7-0.4l3.7-1.6l2.6,4.3
		c0.3,0.4,0.7,0.7,1.2,0.8c0.1,0,0.2,0,0.3,0c0.4,0,0.8-0.1,1.1-0.4l1.7-1.4v14.5c0,0.5,0.4,0.9,0.9,0.9s0.9-0.4,0.9-0.9V76.8
		l1.7,1.4c0.3,0.3,0.7,0.4,1.1,0.4c0.1,0,0.2,0,0.3,0c0.5-0.1,0.9-0.4,1.2-0.8l2.6-4.3l3.7,1.6c0.2,0.1,0.5,0.2,0.7,0.4l-2.5,2.9
		c-1,1.2-1.5,2.7-1.5,4.2v8.6c0,0.5,0.4,0.9,0.9,0.9s0.9-0.4,0.9-0.9v-8.6c0-1.1,0.4-2.2,1.1-3.1l2.3-2.8c0.4,0.7,0.6,1.4,0.6,2.2
		l-0.5,12.2c0,0.5,0.4,0.9,0.8,0.9c0,0,0,0,0,0c0.5,0,0.9-0.4,0.9-0.8l0.5-12.2C76.5,76.8,75.1,74.5,72.9,73.6z M60.7,41.5
		c1.9,0,3.4,1.2,3.9,2.8c-1.2-0.5-2.5-0.7-3.9-0.7c-1.4,0-2.7,0.3-3.9,0.7C57.2,42.7,58.8,41.5,60.7,41.5z M53.5,61.5
		c-0.2-0.8-0.9-1.5-1.8-1.4c-0.1,0-0.2,0-0.2,0c-0.3-0.1-0.6-0.4-0.6-0.9v-0.6c0-0.4,0.3-0.8,0.6-0.8c0.3-0.1,0.6,0.1,0.8,0.3
		c0.2,0.2,0.4,0.4,0.6,0.4c0.4,0.1,0.8,0,1.1-0.2c0.5-0.4,1-0.8,1.4-1.4c0.3-0.4,0.2-0.9-0.2-1.2c-0.4-0.3-0.9-0.2-1.2,0.2
		c-0.2,0.3-0.4,0.5-0.7,0.7c-0.4-0.3-0.8-0.5-1.3-0.6c-0.2-0.7-0.3-1.3-0.3-2c0-4.7,4-8.6,9-8.6s9,3.8,9,8.6c0,0.7-0.1,1.4-0.3,2
		c-0.2,0-0.5,0.1-0.7,0.1l-0.7-0.5c-0.3-0.3-0.7-0.4-1.2-0.4c-1.3,0.1-7.9,0.3-11.3-3.8c-0.3-0.4-0.9-0.4-1.2-0.1
		c-0.4,0.3-0.4,0.9-0.1,1.2c1.7,2,4.1,3.4,7.3,4C64,57,66.1,57,67,56.9l1,0.8c0.3,0.2,0.7,0.3,1,0.1c0.1-0.1,0.6-0.2,0.9-0.1
		c0.4,0.1,0.6,0.4,0.6,0.8v0.6c0,0.4-0.3,0.8-0.6,0.9c-0.1,0-0.2,0-0.2,0c-0.8-0.1-1.6,0.6-1.8,1.4c-0.6,3.5-3.7,6-7.2,6
		C57.1,67.5,54.1,64.9,53.5,61.5z M57,76.9l-2.6-4.3l1.4-1.4l3.6,3.6L57,76.9z M60.7,73.7l-3.2-3.2v-1.8c1,0.4,2.1,0.6,3.2,0.6
		c1.1,0,2.2-0.2,3.2-0.6v1.8L60.7,73.7z M64.3,76.9l-2.4-2l3.6-3.6l1.4,1.4L64.3,76.9z"/>
</g>
</svg>
