<svg width="1284" height="653" viewBox="0 0 1284 653" fill="none" xmlns="http://www.w3.org/2000/svg">
<path opacity="0.2" d="M38.01 125L37.0498 125.279L37.2594 126H38.01V125ZM61.81 125V126H62.593L62.7808 125.24L61.81 125ZM86.8 23.85V22.85H86.017L85.8292 23.6101L86.8 23.85ZM88.33 23.85L89.3008 23.6101L89.113 22.85H88.33V23.85ZM113.32 125L112.349 125.24L112.537 126H113.32V125ZM137.12 125V126H137.872L138.081 125.278L137.12 125ZM171.8 5.14999L172.761 5.42795L173.13 4.14999H171.8V5.14999ZM157.01 5.14999V4.14999H156.256L156.049 4.87446L157.01 5.14999ZM126.41 111.91V112.91H127.164L127.371 112.186L126.41 111.91ZM124.71 111.91L123.741 112.155L123.932 112.91H124.71V111.91ZM97.68 5.14999L98.6494 4.90455L98.4584 4.14999H97.68V5.14999ZM77.62 5.14999V4.14999H76.8428L76.651 4.9031L77.62 5.14999ZM50.42 111.91V112.91H51.1972L51.389 112.157L50.42 111.91ZM48.72 111.91L47.7587 112.186L47.9664 112.91H48.72V111.91ZM18.12 5.14999L19.0813 4.87446L18.8736 4.14999H18.12V5.14999ZM3.16 5.14999V4.14999H1.8278L2.19977 5.42921L3.16 5.14999ZM38.01 126H61.81V124H38.01V126ZM62.7808 125.24L87.7708 24.0898L85.8292 23.6101L60.8392 124.76L62.7808 125.24ZM86.8 24.85H88.33V22.85H86.8V24.85ZM87.3592 24.0898L112.349 125.24L114.291 124.76L89.3008 23.6101L87.3592 24.0898ZM113.32 126H137.12V124H113.32V126ZM138.081 125.278L172.761 5.42795L170.839 4.87203L136.159 124.722L138.081 125.278ZM171.8 4.14999H157.01V6.14999H171.8V4.14999ZM156.049 4.87446L125.449 111.634L127.371 112.186L157.971 5.42552L156.049 4.87446ZM126.41 110.91H124.71V112.91H126.41V110.91ZM125.679 111.665L98.6494 4.90455L96.7106 5.39543L123.741 112.155L125.679 111.665ZM97.68 4.14999H77.62V6.14999H97.68V4.14999ZM76.651 4.9031L49.451 111.663L51.389 112.157L78.5891 5.39688L76.651 4.9031ZM50.42 110.91H48.72V112.91H50.42V110.91ZM49.6813 111.634L19.0813 4.87446L17.1587 5.42552L47.7587 112.186L49.6813 111.634ZM18.12 4.14999H3.16V6.14999H18.12V4.14999ZM2.19977 5.42921L37.0498 125.279L38.9702 124.721L4.12023 4.87078L2.19977 5.42921ZM196.091 125H195.091V126H196.091V125ZM280.071 125V126H281.071V125H280.071ZM280.071 111.4H281.071V110.4H280.071V111.4ZM211.731 111.4H210.731V112.4H211.731V111.4ZM211.731 69.75V68.75H210.731V69.75H211.731ZM271.571 69.75V70.75H272.571V69.75H271.571ZM271.571 56.15H272.571V55.15H271.571V56.15ZM211.731 56.15H210.731V57.15H211.731V56.15ZM211.731 18.75V17.75H210.731V18.75H211.731ZM278.371 18.75V19.75H279.371V18.75H278.371ZM278.371 5.14999H279.371V4.14999H278.371V5.14999ZM196.091 5.14999V4.14999H195.091V5.14999H196.091ZM196.091 126H280.071V124H196.091V126ZM281.071 125V111.4H279.071V125H281.071ZM280.071 110.4H211.731V112.4H280.071V110.4ZM212.731 111.4V69.75H210.731V111.4H212.731ZM211.731 70.75H271.571V68.75H211.731V70.75ZM272.571 69.75V56.15H270.571V69.75H272.571ZM271.571 55.15H211.731V57.15H271.571V55.15ZM212.731 56.15V18.75H210.731V56.15H212.731ZM211.731 19.75H278.371V17.75H211.731V19.75ZM279.371 18.75V5.14999H277.371V18.75H279.371ZM278.371 4.14999H196.091V6.14999H278.371V4.14999ZM195.091 5.14999V125H197.091V5.14999H195.091ZM458.516 87.77L459.486 88.0109L459.74 86.9902L458.707 86.7886L458.516 87.77ZM443.726 84.88L443.917 83.8986L443.011 83.7214L442.762 84.6114L443.726 84.88ZM443.556 46.46L442.583 46.692L442.793 47.5719L443.689 47.451L443.556 46.46ZM458.686 44.42L458.819 45.411L459.913 45.2636L459.659 44.1899L458.686 44.42ZM339.856 64.99L340.856 64.9946V64.99H339.856ZM401.906 130.25C429.172 130.25 453.413 112.476 459.486 88.0109L457.545 87.5291C451.718 111.004 428.359 128.25 401.906 128.25V130.25ZM458.707 86.7886L443.917 83.8986L443.534 85.8614L458.324 88.7514L458.707 86.7886ZM442.762 84.6114C437.959 101.839 420.858 114.65 401.906 114.65V116.65C421.713 116.65 439.633 103.281 444.689 85.1486L442.762 84.6114ZM401.906 114.65C375.505 114.65 356.326 93.9283 356.326 64.99H354.326C354.326 94.8717 374.246 116.65 401.906 116.65V114.65ZM356.326 64.99C356.326 36.2215 375.335 15.5 401.906 15.5V13.5C374.076 13.5 354.326 35.2784 354.326 64.99H356.326ZM401.906 15.5C421.186 15.5 438.276 28.635 442.583 46.692L444.528 46.228C439.996 27.225 422.065 13.5 401.906 13.5V15.5ZM443.689 47.451L458.819 45.411L458.552 43.429L443.422 45.469L443.689 47.451ZM459.659 44.1899C453.596 18.555 429.375 -0.100003 401.906 -0.100003V1.9C428.497 1.9 451.875 19.9649 457.712 44.6501L459.659 44.1899ZM401.906 -0.100003C365.283 -0.100003 338.856 27.2384 338.856 64.99H340.856C340.856 28.2816 366.448 1.9 401.906 1.9V-0.100003ZM338.856 64.9854C338.683 102.741 365.284 130.25 401.906 130.25V128.25C366.447 128.25 340.688 101.699 340.856 64.9946L338.856 64.9854ZM483.46 125H482.46V126H483.46V125ZM499.1 125V126H500.1V125H499.1ZM499.1 69.24V68.24H498.1V69.24H499.1ZM563.701 69.24H564.701V68.24H563.701V69.24ZM563.701 125H562.701V126H563.701V125ZM579.17 125V126H580.17V125H579.17ZM579.17 5.14999H580.17V4.14999H579.17V5.14999ZM563.701 5.14999V4.14999H562.701V5.14999H563.701ZM563.701 55.64V56.64H564.701V55.64H563.701ZM499.1 55.64H498.1V56.64H499.1V55.64ZM499.1 5.14999H500.1V4.14999H499.1V5.14999ZM483.46 5.14999V4.14999H482.46V5.14999H483.46ZM483.46 126H499.1V124H483.46V126ZM500.1 125V69.24H498.1V125H500.1ZM499.1 70.24H563.701V68.24H499.1V70.24ZM562.701 69.24V125H564.701V69.24H562.701ZM563.701 126H579.17V124H563.701V126ZM580.17 125V5.14999H578.17V125H580.17ZM579.17 4.14999H563.701V6.14999H579.17V4.14999ZM562.701 5.14999V55.64H564.701V5.14999H562.701ZM563.701 54.64H499.1V56.64H563.701V54.64ZM500.1 55.64V5.14999H498.1V55.64H500.1ZM499.1 4.14999H483.46V6.14999H499.1V4.14999ZM482.46 5.14999V125H484.46V5.14999H482.46ZM600.412 125L599.477 124.647L598.966 126H600.412V125ZM615.203 125V126H615.892L616.137 125.355L615.203 125ZM625.403 98.14V97.14H624.713L624.468 97.785L625.403 98.14ZM686.432 98.14L687.367 97.785L687.122 97.14H686.432V98.14ZM696.633 125L695.698 125.355L695.943 126H696.633V125ZM711.422 125V126H712.863L712.359 124.65L711.422 125ZM666.713 5.14999L667.649 4.80047L667.407 4.14999H666.713V5.14999ZM645.633 5.14999V4.14999H644.941L644.697 4.79698L645.633 5.14999ZM629.992 85.39L629.058 85.0347L628.543 86.39H629.992V85.39ZM655.323 18.75V17.75H654.633L654.388 18.3947L655.323 18.75ZM656.852 18.75L657.788 18.3968L657.544 17.75H656.852V18.75ZM682.013 85.39V86.39H683.459L682.948 85.0368L682.013 85.39ZM600.412 126H615.203V124H600.412V126ZM616.137 125.355L626.337 98.495L624.468 97.785L614.268 124.645L616.137 125.355ZM625.403 99.14H686.432V97.14H625.403V99.14ZM685.498 98.495L695.698 125.355L697.567 124.645L687.367 97.785L685.498 98.495ZM696.633 126H711.422V124H696.633V126ZM712.359 124.65L667.649 4.80047L665.776 5.49951L710.486 125.35L712.359 124.65ZM666.713 4.14999H645.633V6.14999H666.713V4.14999ZM644.697 4.79698L599.477 124.647L601.348 125.353L646.568 5.50301L644.697 4.79698ZM630.927 85.7453L656.257 19.1053L654.388 18.3947L629.058 85.0347L630.927 85.7453ZM655.323 19.75H656.852V17.75H655.323V19.75ZM655.917 19.1032L681.077 85.7432L682.948 85.0368L657.788 18.3968L655.917 19.1032ZM682.013 84.39H629.992V86.39H682.013V84.39ZM732.654 125H731.654V126H732.654V125ZM748.124 125V126H749.124V125H748.124ZM748.124 25.55V24.55H747.124V25.55H748.124ZM749.824 25.55L750.692 25.0542L750.404 24.55H749.824V25.55ZM806.604 125L805.735 125.496L806.023 126H806.604V125ZM828.704 125V126H829.704V125H828.704ZM828.704 5.14999H829.704V4.14999H828.704V5.14999ZM813.234 5.14999V4.14999H812.234V5.14999H813.234ZM813.234 104.6V105.6H814.234V104.6H813.234ZM811.704 104.6L810.836 105.096L811.123 105.6H811.704V104.6ZM754.924 5.14999L755.792 4.65417L755.504 4.14999H754.924V5.14999ZM732.654 5.14999V4.14999H731.654V5.14999H732.654ZM732.654 126H748.124V124H732.654V126ZM749.124 125V25.55H747.124V125H749.124ZM748.124 26.55H749.824V24.55H748.124V26.55ZM748.956 26.0458L805.735 125.496L807.472 124.504L750.692 25.0542L748.956 26.0458ZM806.604 126H828.704V124H806.604V126ZM829.704 125V5.14999H827.704V125H829.704ZM828.704 4.14999H813.234V6.14999H828.704V4.14999ZM812.234 5.14999V104.6H814.234V5.14999H812.234ZM813.234 103.6H811.704V105.6H813.234V103.6ZM812.572 104.104L755.792 4.65417L754.055 5.64581L810.836 105.096L812.572 104.104ZM754.924 4.14999H732.654V6.14999H754.924V4.14999ZM731.654 5.14999V125H733.654V5.14999H731.654ZM980.834 59.04L981.832 58.9776L981.773 58.04H980.834V59.04ZM905.694 59.04V58.04H904.694V59.04H905.694ZM905.694 72.81H904.694V73.8071L905.691 73.81L905.694 72.81ZM965.194 72.98L966.194 73.0082L966.222 71.9829L965.197 71.98L965.194 72.98ZM958.734 40.34L957.787 40.6627L958.109 41.6062L959.054 41.2875L958.734 40.34ZM972.844 35.58L973.164 36.5275L974.105 36.2098L973.793 35.2662L972.844 35.58ZM918.274 130.25C938.002 130.25 954.559 122.792 965.856 110.11C977.148 97.4328 983.121 79.6077 981.832 58.9776L979.836 59.1024C981.097 79.2723 975.254 96.5522 964.362 108.78C953.474 121.003 937.476 128.25 918.274 128.25V130.25ZM980.834 58.04H905.694V60.04H980.834V58.04ZM904.694 59.04V72.81H906.694V59.04H904.694ZM905.691 73.81L965.191 73.98L965.197 71.98L905.697 71.81L905.691 73.81ZM964.194 72.9518C963.531 96.4895 943.636 114.65 918.274 114.65V116.65C944.592 116.65 965.497 97.7505 966.194 73.0082L964.194 72.9518ZM918.274 114.65C890.298 114.65 870.144 93.7096 870.144 64.99H868.144C868.144 94.7504 889.13 116.65 918.274 116.65V114.65ZM870.144 64.99C870.144 50.4344 875.16 38.0705 883.652 29.3502C892.142 20.6316 904.16 15.5 918.274 15.5V13.5C903.658 13.5 891.111 18.8234 882.219 27.9548C873.328 37.0845 868.144 49.9656 868.144 64.99H870.144ZM918.274 15.5C936.463 15.5 952.852 26.1842 957.787 40.6627L959.68 40.0173C954.416 24.5758 937.145 13.5 918.274 13.5V15.5ZM959.054 41.2875L973.164 36.5275L972.524 34.6325L958.414 39.3925L959.054 41.2875ZM973.793 35.2662C966.999 14.7092 943.766 -0.100003 918.274 -0.100003V1.9C943.102 1.9 965.429 16.3308 971.895 35.8938L973.793 35.2662ZM918.274 -0.100003C880.159 -0.100003 852.674 27.2007 852.674 64.99H854.674C854.674 28.3193 881.249 1.9 918.274 1.9V-0.100003ZM852.674 64.99C852.674 102.776 880.155 130.25 918.274 130.25V128.25C881.253 128.25 854.674 101.664 854.674 64.99H852.674ZM1005.75 125H1004.75V126H1005.75V125ZM1089.73 125V126H1090.73V125H1089.73ZM1089.73 111.4H1090.73V110.4H1089.73V111.4ZM1021.39 111.4H1020.39V112.4H1021.39V111.4ZM1021.39 69.75V68.75H1020.39V69.75H1021.39ZM1081.23 69.75V70.75H1082.23V69.75H1081.23ZM1081.23 56.15H1082.23V55.15H1081.23V56.15ZM1021.39 56.15H1020.39V57.15H1021.39V56.15ZM1021.39 18.75V17.75H1020.39V18.75H1021.39ZM1088.03 18.75V19.75H1089.03V18.75H1088.03ZM1088.03 5.14999H1089.03V4.14999H1088.03V5.14999ZM1005.75 5.14999V4.14999H1004.75V5.14999H1005.75ZM1005.75 126H1089.73V124H1005.75V126ZM1090.73 125V111.4H1088.73V125H1090.73ZM1089.73 110.4H1021.39V112.4H1089.73V110.4ZM1022.39 111.4V69.75H1020.39V111.4H1022.39ZM1021.39 70.75H1081.23V68.75H1021.39V70.75ZM1082.23 69.75V56.15H1080.23V69.75H1082.23ZM1081.23 55.15H1021.39V57.15H1081.23V55.15ZM1022.39 56.15V18.75H1020.39V56.15H1022.39ZM1021.39 19.75H1088.03V17.75H1021.39V19.75ZM1089.03 18.75V5.14999H1087.03V18.75H1089.03ZM1088.03 4.14999H1005.75V6.14999H1088.03V4.14999ZM1004.75 5.14999V125H1006.75V5.14999H1004.75ZM68.44 304.25C87.6338 304.25 104.087 297.533 115.745 285.983C127.404 274.432 134.21 258.104 134.21 238.99H132.21C132.21 257.616 125.586 273.418 114.337 284.562C103.088 295.707 87.1562 302.25 68.44 302.25V304.25ZM134.21 238.99C134.21 201.029 106.893 173.9 68.44 173.9V175.9C105.807 175.9 132.21 202.151 132.21 238.99H134.21ZM68.44 173.9C29.9865 173.9 2.67 201.029 2.67 238.99H4.67C4.67 202.151 31.0735 175.9 68.44 175.9V173.9ZM2.67 238.99C2.67 258.104 9.47624 274.432 21.1349 285.983C32.7929 297.533 49.2462 304.25 68.44 304.25V302.25C49.7238 302.25 33.7921 295.707 22.5426 284.562C11.2938 273.418 4.67 257.616 4.67 238.99H2.67ZM68.44 288.65C40.2892 288.65 20.14 267.875 20.14 238.99H18.14C18.14 268.925 39.1308 290.65 68.44 290.65V288.65ZM20.14 238.99C20.14 210.109 40.2848 189.5 68.44 189.5V187.5C39.1352 187.5 18.14 209.051 18.14 238.99H20.14ZM68.44 189.5C96.5907 189.5 116.57 210.105 116.57 238.99H118.57C118.57 209.055 97.7494 187.5 68.44 187.5V189.5ZM116.57 238.99C116.57 267.88 96.5863 288.65 68.44 288.65V290.65C97.7537 290.65 118.57 268.92 118.57 238.99H116.57ZM255.314 179.15H256.314V178.15H255.314V179.15ZM239.844 179.15V178.15H238.844V179.15H239.844ZM172.694 179.15H173.694V178.15H172.694V179.15ZM157.054 179.15V178.15H156.054V179.15H157.054ZM206.354 304.25C235.493 304.25 256.314 282.695 256.314 252.93H254.314C254.314 281.645 234.334 302.25 206.354 302.25V304.25ZM256.314 252.93V179.15H254.314V252.93H256.314ZM255.314 178.15H239.844V180.15H255.314V178.15ZM238.844 179.15V252.93H240.844V179.15H238.844ZM238.844 252.93C238.844 273.887 225.267 288.65 206.354 288.65V290.65C226.541 290.65 240.844 274.813 240.844 252.93H238.844ZM206.354 288.65C187.435 288.65 173.694 273.88 173.694 252.93H171.694C171.694 274.82 186.173 290.65 206.354 290.65V288.65ZM173.694 252.93V179.15H171.694V252.93H173.694ZM172.694 178.15H157.054V180.15H172.694V178.15ZM156.054 179.15V252.93H158.054V179.15H156.054ZM156.054 252.93C156.054 282.704 177.223 304.25 206.354 304.25V302.25C178.364 302.25 158.054 281.636 158.054 252.93H156.054ZM286.736 299H285.736V300H286.736V299ZM302.206 299V300H303.206V299H302.206ZM302.206 252.08V251.08H301.206V252.08H302.206ZM324.306 252.08L325.055 251.418L324.757 251.08H324.306V252.08ZM365.786 299L365.037 299.662L365.335 300H365.786V299ZM385.336 299V300H387.6L386.075 298.327L385.336 299ZM341.816 251.23V250.23H339.552L341.077 251.903L341.816 251.23ZM343.856 251.23V252.23H343.879L343.902 252.229L343.856 251.23ZM286.736 179.15V178.15H285.736V179.15H286.736ZM302.206 238.48H301.206V239.48H302.206V238.48ZM302.206 192.75V191.75H301.206V192.75H302.206ZM286.736 300H302.206V298H286.736V300ZM303.206 299V252.08H301.206V299H303.206ZM302.206 253.08H324.306V251.08H302.206V253.08ZM323.557 252.742L365.037 299.662L366.535 298.338L325.055 251.418L323.557 252.742ZM365.786 300H385.336V298H365.786V300ZM386.075 298.327L342.555 250.557L341.077 251.903L384.597 299.673L386.075 298.327ZM341.816 252.23H343.856V250.23H341.816V252.23ZM343.902 252.229C366.585 251.19 383.106 236.578 383.106 215.53H381.106C381.106 235.282 365.667 249.23 343.81 250.231L343.902 252.229ZM383.106 215.53C383.106 204.2 378.694 194.819 370.913 188.287C363.148 181.769 352.107 178.15 338.926 178.15V180.15C351.755 180.15 362.304 183.671 369.627 189.818C376.932 195.951 381.106 204.76 381.106 215.53H383.106ZM338.926 178.15H286.736V180.15H338.926V178.15ZM285.736 179.15V299H287.736V179.15H285.736ZM303.206 238.48V192.75H301.206V238.48H303.206ZM302.206 193.75H338.926V191.75H302.206V193.75ZM338.926 193.75C347.349 193.75 354.029 195.919 358.583 199.683C363.115 203.43 365.636 208.833 365.636 215.53H367.636C367.636 208.287 364.887 202.3 359.857 198.142C354.848 194.001 347.673 191.75 338.926 191.75V193.75ZM365.636 215.53C365.636 222.316 363.112 227.761 358.581 231.527C354.027 235.311 347.349 237.48 338.926 237.48V239.48C347.673 239.48 354.85 237.229 359.859 233.065C364.889 228.884 367.636 222.854 367.636 215.53H365.636ZM338.926 237.48H302.206V239.48H338.926V237.48ZM451.803 231.17L451.965 230.183L451.955 230.182L451.803 231.17ZM480.533 215.53H479.533V216.53H480.533V215.53ZM495.493 215.53V216.53H496.5L496.493 215.523L495.493 215.53ZM448.063 245.62L448.222 244.633L448.219 244.632L448.063 245.62ZM416.103 260.07L417.103 260.061L417.094 259.07H416.103V260.07ZM400.803 260.07V259.07H399.803V260.07H400.803ZM451.633 304.25C466.485 304.25 478.375 300.688 486.574 294.173C494.801 287.635 499.213 278.2 499.213 266.7H497.213C497.213 277.64 493.041 286.48 485.33 292.607C477.592 298.757 466.192 302.25 451.633 302.25V304.25ZM499.213 266.7C499.213 259.743 497.635 254.159 494.874 249.653C492.116 245.151 488.215 241.785 483.661 239.204C474.598 234.065 462.813 231.963 451.965 230.183L451.641 232.157C462.553 233.947 473.974 236.01 482.675 240.944C487.004 243.398 490.626 246.546 493.169 250.698C495.71 254.846 497.213 260.057 497.213 266.7H499.213ZM451.955 230.182C443.077 228.816 434.825 227.429 428.783 224.471C425.783 223.001 423.386 221.17 421.736 218.811C420.093 216.463 419.143 213.524 419.143 209.75H417.143C417.143 213.881 418.191 217.232 420.097 219.957C421.996 222.672 424.699 224.697 427.903 226.267C434.272 229.386 442.849 230.804 451.651 232.158L451.955 230.182ZM419.143 209.75C419.143 203.596 421.636 198.589 426.426 195.087C431.253 191.558 438.499 189.5 448.063 189.5V187.5C438.248 187.5 430.533 189.607 425.246 193.473C419.92 197.366 417.143 202.984 417.143 209.75H419.143ZM448.063 189.5C458.199 189.5 466.061 191.972 471.371 196.407C476.657 200.822 479.533 207.281 479.533 215.53H481.533C481.533 206.779 478.46 199.723 472.653 194.872C466.871 190.043 458.498 187.5 448.063 187.5V189.5ZM480.533 216.53H495.493V214.53H480.533V216.53ZM496.493 215.523C496.407 202.609 491.803 192.162 483.394 184.957C475.003 177.768 462.932 173.9 448.063 173.9V175.9C462.604 175.9 474.163 179.682 482.093 186.476C490.004 193.253 494.41 203.121 494.493 215.537L496.493 215.523ZM448.063 173.9C433.463 173.9 421.869 177.463 413.904 183.875C405.914 190.306 401.673 199.528 401.673 210.6H403.673C403.673 200.082 407.678 191.454 415.158 185.433C422.663 179.392 433.764 175.9 448.063 175.9V173.9ZM401.673 210.6C401.673 217.262 403.199 222.673 405.874 227.085C408.547 231.493 412.332 234.847 416.766 237.451C425.598 242.637 437.122 244.909 447.908 246.608L448.219 244.632C437.414 242.931 426.244 240.698 417.778 235.726C413.564 233.251 410.049 230.114 407.585 226.048C405.122 221.987 403.673 216.943 403.673 210.6H401.673ZM447.905 246.607C456.962 248.06 465.468 249.445 471.726 252.47C474.832 253.972 477.323 255.852 479.041 258.292C480.751 260.722 481.743 263.776 481.743 267.72H483.743C483.743 263.419 482.653 259.95 480.676 257.141C478.707 254.343 475.907 252.27 472.596 250.67C466.018 247.49 457.184 246.07 448.222 244.633L447.905 246.607ZM481.743 267.72C481.743 274.115 479.049 279.294 474.021 282.909C468.956 286.551 461.45 288.65 451.803 288.65V290.65C461.706 290.65 469.671 288.5 475.188 284.533C480.742 280.541 483.743 274.755 483.743 267.72H481.743ZM451.803 288.65C440.735 288.65 432.107 285.924 426.242 281.04C420.4 276.175 417.186 269.075 417.103 260.061L415.103 260.079C415.191 269.595 418.607 277.285 424.962 282.577C431.295 287.851 440.431 290.65 451.803 290.65V288.65ZM416.103 259.07H400.803V261.07H416.103V259.07ZM399.803 260.07C399.803 273.675 404.753 284.761 413.777 292.431C422.782 300.084 435.743 304.25 451.633 304.25V302.25C436.074 302.25 423.62 298.171 415.072 290.907C406.544 283.659 401.803 273.155 401.803 260.07H399.803ZM523.972 299H522.972V300H523.972V299ZM607.952 299V300H608.952V299H607.952ZM607.952 285.4H608.952V284.4H607.952V285.4ZM539.612 285.4H538.612V286.4H539.612V285.4ZM539.612 243.75V242.75H538.612V243.75H539.612ZM599.452 243.75V244.75H600.452V243.75H599.452ZM599.452 230.15H600.452V229.15H599.452V230.15ZM539.612 230.15H538.612V231.15H539.612V230.15ZM539.612 192.75V191.75H538.612V192.75H539.612ZM606.252 192.75V193.75H607.252V192.75H606.252ZM606.252 179.15H607.252V178.15H606.252V179.15ZM523.972 179.15V178.15H522.972V179.15H523.972ZM523.972 300H607.952V298H523.972V300ZM608.952 299V285.4H606.952V299H608.952ZM607.952 284.4H539.612V286.4H607.952V284.4ZM540.612 285.4V243.75H538.612V285.4H540.612ZM539.612 244.75H599.452V242.75H539.612V244.75ZM600.452 243.75V230.15H598.452V243.75H600.452ZM599.452 229.15H539.612V231.15H599.452V229.15ZM540.612 230.15V192.75H538.612V230.15H540.612ZM539.612 193.75H606.252V191.75H539.612V193.75ZM607.252 192.75V179.15H605.252V192.75H607.252ZM606.252 178.15H523.972V180.15H606.252V178.15ZM522.972 179.15V299H524.972V179.15H522.972ZM632.547 299H631.547V300H632.547V299ZM708.367 299V300H709.367V299H708.367ZM708.367 285.4H709.367V284.4H708.367V285.4ZM648.016 285.4H647.016V286.4H648.016V285.4ZM648.016 179.15H649.016V178.15H648.016V179.15ZM632.547 179.15V178.15H631.547V179.15H632.547ZM632.547 300H708.367V298H632.547V300ZM709.367 299V285.4H707.367V299H709.367ZM708.367 284.4H648.016V286.4H708.367V284.4ZM649.016 285.4V179.15H647.016V285.4H649.016ZM648.016 178.15H632.547V180.15H648.016V178.15ZM631.547 179.15V299H633.547V179.15H631.547ZM745.842 299L744.9 299.335L745.137 300H745.842V299ZM769.982 299V300H770.688L770.924 299.335L769.982 299ZM812.652 179.15L813.594 179.485L814.07 178.15H812.652V179.15ZM796.842 179.15V178.15H796.134L795.899 178.818L796.842 179.15ZM758.762 287.44V288.44H759.471L759.706 287.772L758.762 287.44ZM757.232 287.44L756.289 287.773L756.525 288.44H757.232V287.44ZM718.982 179.15L719.925 178.817L719.69 178.15H718.982V179.15ZM703.172 179.15V178.15H701.755L702.23 179.485L703.172 179.15ZM745.842 300H769.982V298H745.842V300ZM770.924 299.335L813.594 179.485L811.71 178.815L769.04 298.665L770.924 299.335ZM812.652 178.15H796.842V180.15H812.652V178.15ZM795.899 178.818L757.819 287.108L759.706 287.772L797.786 179.482L795.899 178.818ZM758.762 286.44H757.232V288.44H758.762V286.44ZM758.175 287.107L719.925 178.817L718.039 179.483L756.289 287.773L758.175 287.107ZM718.982 178.15H703.172V180.15H718.982V178.15ZM702.23 179.485L744.9 299.335L746.784 298.665L704.114 178.815L702.23 179.485ZM833.757 299H832.757V300H833.757V299ZM917.737 299V300H918.737V299H917.737ZM917.737 285.4H918.737V284.4H917.737V285.4ZM849.397 285.4H848.397V286.4H849.397V285.4ZM849.397 243.75V242.75H848.397V243.75H849.397ZM909.237 243.75V244.75H910.237V243.75H909.237ZM909.237 230.15H910.237V229.15H909.237V230.15ZM849.397 230.15H848.397V231.15H849.397V230.15ZM849.397 192.75V191.75H848.397V192.75H849.397ZM916.037 192.75V193.75H917.037V192.75H916.037ZM916.037 179.15H917.037V178.15H916.037V179.15ZM833.757 179.15V178.15H832.757V179.15H833.757ZM833.757 300H917.737V298H833.757V300ZM918.737 299V285.4H916.737V299H918.737ZM917.737 284.4H849.397V286.4H917.737V284.4ZM850.397 285.4V243.75H848.397V285.4H850.397ZM849.397 244.75H909.237V242.75H849.397V244.75ZM910.237 243.75V230.15H908.237V243.75H910.237ZM909.237 229.15H849.397V231.15H909.237V229.15ZM850.397 230.15V192.75H848.397V230.15H850.397ZM849.397 193.75H916.037V191.75H849.397V193.75ZM917.037 192.75V179.15H915.037V192.75H917.037ZM916.037 178.15H833.757V180.15H916.037V178.15ZM832.757 179.15V299H834.757V179.15H832.757ZM986.872 231.17L987.034 230.183L987.024 230.182L986.872 231.17ZM1015.6 215.53H1014.6V216.53H1015.6V215.53ZM1030.56 215.53V216.53H1031.57L1031.56 215.523L1030.56 215.53ZM983.132 245.62L983.29 244.633L983.287 244.632L983.132 245.62ZM951.172 260.07L952.172 260.061L952.163 259.07H951.172V260.07ZM935.872 260.07V259.07H934.872V260.07H935.872ZM986.702 304.25C1001.55 304.25 1013.44 300.688 1021.64 294.173C1029.87 287.635 1034.28 278.2 1034.28 266.7H1032.28C1032.28 277.64 1028.11 286.48 1020.4 292.607C1012.66 298.757 1001.26 302.25 986.702 302.25V304.25ZM1034.28 266.7C1034.28 259.743 1032.7 254.159 1029.94 249.653C1027.18 245.151 1023.28 241.785 1018.73 239.204C1009.67 234.065 997.882 231.963 987.034 230.183L986.71 232.157C997.621 233.947 1009.04 236.01 1017.74 240.944C1022.07 243.398 1025.69 246.546 1028.24 250.698C1030.78 254.846 1032.28 260.057 1032.28 266.7H1034.28ZM987.024 230.182C978.146 228.816 969.893 227.429 963.851 224.471C960.851 223.001 958.454 221.17 956.804 218.811C955.161 216.463 954.212 213.524 954.212 209.75H952.212C952.212 213.881 953.259 217.232 955.165 219.957C957.064 222.672 959.767 224.697 962.972 226.267C969.34 229.386 977.918 230.804 986.72 232.158L987.024 230.182ZM954.212 209.75C954.212 203.596 956.705 198.589 961.494 195.087C966.322 191.558 973.567 189.5 983.132 189.5V187.5C973.316 187.5 965.602 189.607 960.314 193.473C954.989 197.366 952.212 202.984 952.212 209.75H954.212ZM983.132 189.5C993.267 189.5 1001.13 191.972 1006.44 196.407C1011.73 200.822 1014.6 207.281 1014.6 215.53H1016.6C1016.6 206.779 1013.53 199.723 1007.72 194.872C1001.94 190.043 993.566 187.5 983.132 187.5V189.5ZM1015.6 216.53H1030.56V214.53H1015.6V216.53ZM1031.56 215.523C1031.47 202.609 1026.87 192.162 1018.46 184.957C1010.07 177.768 998.001 173.9 983.132 173.9V175.9C997.672 175.9 1009.23 179.682 1017.16 186.476C1025.07 193.253 1029.48 203.121 1029.56 215.537L1031.56 215.523ZM983.132 173.9C968.531 173.9 956.937 177.463 948.972 183.875C940.982 190.306 936.742 199.528 936.742 210.6H938.742C938.742 200.082 942.746 191.454 950.226 185.433C957.731 179.392 968.832 175.9 983.132 175.9V173.9ZM936.742 210.6C936.742 217.262 938.268 222.673 940.943 227.085C943.615 231.493 947.4 234.847 951.834 237.451C960.666 242.637 972.191 244.909 982.976 246.608L983.287 244.632C972.482 242.931 961.312 240.698 952.847 235.726C948.632 233.251 945.117 230.114 942.653 226.048C940.191 221.987 938.742 216.943 938.742 210.6H936.742ZM982.973 246.607C992.031 248.06 1000.54 249.445 1006.79 252.47C1009.9 253.972 1012.39 255.852 1014.11 258.292C1015.82 260.722 1016.81 263.776 1016.81 267.72H1018.81C1018.81 263.419 1017.72 259.95 1015.74 257.141C1013.78 254.343 1010.98 252.27 1007.66 250.67C1001.09 247.49 992.253 246.07 983.29 244.633L982.973 246.607ZM1016.81 267.72C1016.81 274.115 1014.12 279.294 1009.09 282.909C1004.02 286.551 996.519 288.65 986.872 288.65V290.65C996.775 290.65 1004.74 288.5 1010.26 284.533C1015.81 280.541 1018.81 274.755 1018.81 267.72H1016.81ZM986.872 288.65C975.804 288.65 967.175 285.924 961.31 281.04C955.468 276.175 952.254 269.075 952.172 260.061L950.172 260.079C950.259 269.595 953.675 277.285 960.03 282.577C966.363 287.851 975.5 290.65 986.872 290.65V288.65ZM951.172 259.07H935.872V261.07H951.172V259.07ZM934.872 260.07C934.872 273.675 939.821 284.761 948.845 292.431C957.85 300.084 970.811 304.25 986.702 304.25V302.25C971.142 302.25 958.688 298.171 950.141 290.907C941.612 283.659 936.872 273.155 936.872 260.07H934.872ZM1058.36 322.46L1058.13 323.433L1058.94 323.627L1059.28 322.859L1058.36 322.46ZM1068.56 299L1067.67 298.553L1067.65 298.577L1067.64 298.601L1068.56 299ZM1059.04 301.04L1059.97 301.409L1060.4 300.327L1059.27 300.066L1059.04 301.04ZM1051.22 320.76L1050.29 320.391L1049.87 321.465L1050.99 321.733L1051.22 320.76ZM1059.28 322.859L1069.48 299.399L1067.64 298.601L1057.44 322.061L1059.28 322.859ZM1069.46 299.447C1070.87 296.616 1071.43 294.424 1071.43 291.86H1069.43C1069.43 294.056 1068.97 295.944 1067.67 298.553L1069.46 299.447ZM1071.43 291.86C1071.43 288.906 1070.41 286.307 1068.57 284.442C1066.73 282.576 1064.13 281.51 1061.08 281.51V283.51C1063.65 283.51 1065.72 284.399 1067.15 285.848C1068.58 287.298 1069.43 289.374 1069.43 291.86H1071.43ZM1061.08 281.51C1055.09 281.51 1050.73 285.868 1050.73 291.86H1052.73C1052.73 286.972 1056.19 283.51 1061.08 283.51V281.51ZM1050.73 291.86C1050.73 296.92 1053.95 300.891 1058.82 302.014L1059.27 300.066C1055.29 299.149 1052.73 295.98 1052.73 291.86H1050.73ZM1058.11 300.671L1050.29 320.391L1052.15 321.129L1059.97 301.409L1058.11 300.671ZM1050.99 321.733L1058.13 323.433L1058.59 321.487L1051.45 319.787L1050.99 321.733ZM11.15 473H10.15V474H11.15V473ZM83.57 411.8H82.57V412.56L83.3024 412.764L83.57 411.8ZM83.57 410.1L83.2681 409.147L82.57 409.368V410.1H83.57ZM11.15 353.15V352.15H10.15V353.15H11.15ZM26.62 404.66H25.62V405.66H26.62V404.66ZM26.62 366.75V365.75H25.62V366.75H26.62ZM26.62 459.4H25.62V460.4H26.62V459.4ZM26.62 418.26V417.26H25.62V418.26H26.62ZM11.15 474H63.17V472H11.15V474ZM63.17 474C87.4943 474 105.48 459.451 105.48 439.34H103.48C103.48 457.989 86.7857 472 63.17 472V474ZM105.48 439.34C105.48 425.968 96.5073 414.356 83.8376 410.836L83.3024 412.764C95.1127 416.044 103.48 426.872 103.48 439.34H105.48ZM84.57 411.8V410.1H82.57V411.8H84.57ZM83.8719 411.053C94.5117 407.684 102.08 397.08 102.08 385.28H100.08C100.08 396.26 93.0283 406.056 83.2681 409.147L83.8719 411.053ZM102.08 385.28C102.08 365.88 85.6615 352.15 63.17 352.15V354.15C84.8785 354.15 100.08 367.28 100.08 385.28H102.08ZM63.17 352.15H11.15V354.15H63.17V352.15ZM10.15 353.15V473H12.15V353.15H10.15ZM27.62 404.66V366.75H25.62V404.66H27.62ZM26.62 367.75H61.3V365.75H26.62V367.75ZM61.3 367.75C75.274 367.75 84.78 375.51 84.78 385.79H86.78C86.78 373.97 75.886 365.75 61.3 365.75V367.75ZM84.78 385.79C84.78 396.06 75.2869 403.66 61.3 403.66V405.66C75.8731 405.66 86.78 397.62 86.78 385.79H84.78ZM61.3 403.66H26.62V405.66H61.3V403.66ZM27.62 459.4V418.26H25.62V459.4H27.62ZM26.62 419.26H60.96V417.26H26.62V419.26ZM60.96 419.26C69.0433 419.26 75.8814 421.344 80.6699 424.788C85.4436 428.221 88.18 432.994 88.18 438.49H90.18C90.18 432.255 87.0514 426.914 81.8376 423.164C76.6386 419.426 69.3667 417.26 60.96 417.26V419.26ZM88.18 438.49C88.18 449.755 77.1906 458.4 60.96 458.4V460.4C77.7094 460.4 90.18 451.365 90.18 438.49H88.18ZM60.96 458.4H26.62V460.4H60.96V458.4ZM129.685 473H128.685V474H129.685V473ZM145.155 473V474H146.155V473H145.155ZM145.155 426.08V425.08H144.155V426.08H145.155ZM167.255 426.08L168.004 425.418L167.706 425.08H167.255V426.08ZM208.735 473L207.986 473.662L208.284 474H208.735V473ZM228.285 473V474H230.549L229.024 472.327L228.285 473ZM184.765 425.23V424.23H182.501L184.026 425.903L184.765 425.23ZM186.805 425.23V426.23H186.828L186.851 426.229L186.805 425.23ZM129.685 353.15V352.15H128.685V353.15H129.685ZM145.155 412.48H144.155V413.48H145.155V412.48ZM145.155 366.75V365.75H144.155V366.75H145.155ZM129.685 474H145.155V472H129.685V474ZM146.155 473V426.08H144.155V473H146.155ZM145.155 427.08H167.255V425.08H145.155V427.08ZM166.506 426.742L207.986 473.662L209.484 472.338L168.004 425.418L166.506 426.742ZM208.735 474H228.285V472H208.735V474ZM229.024 472.327L185.504 424.557L184.026 425.903L227.546 473.673L229.024 472.327ZM184.765 426.23H186.805V424.23H184.765V426.23ZM186.851 426.229C209.534 425.19 226.055 410.578 226.055 389.53H224.055C224.055 409.282 208.617 423.23 186.759 424.231L186.851 426.229ZM226.055 389.53C226.055 378.2 221.644 368.819 213.862 362.287C206.097 355.769 195.056 352.15 181.875 352.15V354.15C194.704 354.15 205.253 357.671 212.576 363.818C219.882 369.951 224.055 378.76 224.055 389.53H226.055ZM181.875 352.15H129.685V354.15H181.875V352.15ZM128.685 353.15V473H130.685V353.15H128.685ZM146.155 412.48V366.75H144.155V412.48H146.155ZM145.155 367.75H181.875V365.75H145.155V367.75ZM181.875 367.75C190.299 367.75 196.978 369.919 201.532 373.683C206.065 377.43 208.585 382.833 208.585 389.53H210.585C210.585 382.287 207.836 376.3 202.806 372.142C197.798 368.001 190.622 365.75 181.875 365.75V367.75ZM208.585 389.53C208.585 396.316 206.062 401.761 201.53 405.527C196.977 409.311 190.299 411.48 181.875 411.48V413.48C190.622 413.48 197.799 411.229 202.808 407.065C207.839 402.884 210.585 396.854 210.585 389.53H208.585ZM181.875 411.48H145.155V413.48H181.875V411.48ZM239.163 473L238.227 472.647L237.716 474H239.163V473ZM253.953 473V474H254.642L254.887 473.355L253.953 473ZM264.152 446.14V445.14H263.463L263.218 445.785L264.152 446.14ZM325.182 446.14L326.117 445.785L325.872 445.14H325.182V446.14ZM335.383 473L334.448 473.355L334.693 474H335.383V473ZM350.173 473V474H351.613L351.109 472.65L350.173 473ZM305.462 353.15L306.399 352.8L306.157 352.15H305.462V353.15ZM284.383 353.15V352.15H283.691L283.447 352.797L284.383 353.15ZM268.742 433.39L267.808 433.035L267.293 434.39H268.742V433.39ZM294.073 366.75V365.75H293.383L293.138 366.395L294.073 366.75ZM295.603 366.75L296.538 366.397L296.294 365.75H295.603V366.75ZM320.763 433.39V434.39H322.209L321.698 433.037L320.763 433.39ZM239.163 474H253.953V472H239.163V474ZM254.887 473.355L265.087 446.495L263.218 445.785L253.018 472.645L254.887 473.355ZM264.152 447.14H325.182V445.14H264.152V447.14ZM324.248 446.495L334.448 473.355L336.317 472.645L326.117 445.785L324.248 446.495ZM335.383 474H350.173V472H335.383V474ZM351.109 472.65L306.399 352.8L304.526 353.5L349.236 473.35L351.109 472.65ZM305.462 352.15H284.383V354.15H305.462V352.15ZM283.447 352.797L238.227 472.647L240.098 473.353L285.318 353.503L283.447 352.797ZM269.677 433.745L295.007 367.105L293.138 366.395L267.808 433.035L269.677 433.745ZM294.073 367.75H295.603V365.75H294.073V367.75ZM294.667 367.103L319.827 433.743L321.698 433.037L296.538 366.397L294.667 367.103ZM320.763 432.39H268.742V434.39H320.763V432.39ZM371.404 473H370.404V474H371.404V473ZM386.874 473V474H387.874V473H386.874ZM386.874 373.55V372.55H385.874V373.55H386.874ZM388.574 373.55L389.442 373.054L389.154 372.55H388.574V373.55ZM445.354 473L444.485 473.496L444.773 474H445.354V473ZM467.454 473V474H468.454V473H467.454ZM467.454 353.15H468.454V352.15H467.454V353.15ZM451.984 353.15V352.15H450.984V353.15H451.984ZM451.984 452.6V453.6H452.984V452.6H451.984ZM450.454 452.6L449.585 453.096L449.873 453.6H450.454V452.6ZM393.674 353.15L394.542 352.654L394.254 352.15H393.674V353.15ZM371.404 353.15V352.15H370.404V353.15H371.404ZM371.404 474H386.874V472H371.404V474ZM387.874 473V373.55H385.874V473H387.874ZM386.874 374.55H388.574V372.55H386.874V374.55ZM387.705 374.046L444.485 473.496L446.222 472.504L389.442 373.054L387.705 374.046ZM445.354 474H467.454V472H445.354V474ZM468.454 473V353.15H466.454V473H468.454ZM467.454 352.15H451.984V354.15H467.454V352.15ZM450.984 353.15V452.6H452.984V353.15H450.984ZM451.984 451.6H450.454V453.6H451.984V451.6ZM451.322 452.104L394.542 352.654L392.805 353.646L449.585 453.096L451.322 452.104ZM393.674 352.15H371.404V354.15H393.674V352.15ZM370.404 353.15V473H372.404V353.15H370.404ZM499.734 473H498.734V474H499.734V473ZM499.734 353.15V352.15H498.734V353.15H499.734ZM515.204 459.4H514.204V460.4H515.204V459.4ZM515.204 366.75V365.75H514.204V366.75H515.204ZM499.734 474H538.154V472H499.734V474ZM538.154 474C559.08 474 576.585 467.995 588.874 457.329C601.177 446.651 608.174 431.366 608.174 412.99H606.174C606.174 430.824 599.401 445.544 587.563 455.819C575.713 466.105 558.708 472 538.154 472V474ZM608.174 412.99C608.174 394.614 601.177 379.371 588.873 368.735C576.583 358.111 559.079 352.15 538.154 352.15V354.15C558.709 354.15 575.715 360.004 587.565 370.248C599.401 380.479 606.174 395.156 606.174 412.99H608.174ZM538.154 352.15H499.734V354.15H538.154V352.15ZM498.734 353.15V473H500.734V353.15H498.734ZM516.204 459.4V366.75H514.204V459.4H516.204ZM515.204 367.75H538.154V365.75H515.204V367.75ZM538.154 367.75C553.957 367.75 567.139 372.121 576.353 379.923C585.549 387.711 590.874 398.984 590.874 412.99H592.874C592.874 398.436 587.319 386.589 577.645 378.397C567.989 370.219 554.311 365.75 538.154 365.75V367.75ZM590.874 412.99C590.874 427.085 585.588 438.4 576.415 446.207C567.224 454.029 554.043 458.4 538.154 458.4V460.4C554.395 460.4 568.074 455.931 577.711 447.73C587.365 439.515 592.874 427.625 592.874 412.99H590.874ZM538.154 458.4H515.204V460.4H538.154V458.4ZM676.754 405.17L676.916 404.183L676.906 404.182L676.754 405.17ZM705.484 389.53H704.484V390.53H705.484V389.53ZM720.444 389.53V390.53H721.451L721.444 389.523L720.444 389.53ZM673.014 419.62L673.173 418.633L673.17 418.632L673.014 419.62ZM641.054 434.07L642.054 434.061L642.045 433.07H641.054V434.07ZM625.754 434.07V433.07H624.754V434.07H625.754ZM676.584 478.25C691.436 478.25 703.326 474.688 711.525 468.173C719.752 461.635 724.164 452.2 724.164 440.7H722.164C722.164 451.64 717.992 460.48 710.281 466.607C702.543 472.757 691.143 476.25 676.584 476.25V478.25ZM724.164 440.7C724.164 433.743 722.586 428.159 719.826 423.653C717.067 419.151 713.166 415.785 708.613 413.204C699.549 408.065 687.765 405.963 676.916 404.183L676.593 406.157C687.504 407.947 698.925 410.01 707.626 414.944C711.955 417.398 715.577 420.546 718.12 424.698C720.661 428.846 722.164 434.057 722.164 440.7H724.164ZM676.906 404.182C668.028 402.816 659.776 401.429 653.734 398.471C650.734 397.001 648.337 395.17 646.687 392.811C645.044 390.463 644.094 387.524 644.094 383.75H642.094C642.094 387.881 643.142 391.232 645.048 393.957C646.947 396.672 649.65 398.697 652.855 400.267C659.223 403.385 667.801 404.804 676.602 406.158L676.906 404.182ZM644.094 383.75C644.094 377.596 646.587 372.589 651.377 369.087C656.205 365.558 663.45 363.5 673.014 363.5V361.5C663.199 361.5 655.484 363.607 650.197 367.473C644.871 371.366 642.094 376.984 642.094 383.75H644.094ZM673.014 363.5C683.15 363.5 691.012 365.972 696.322 370.408C701.608 374.822 704.484 381.281 704.484 389.53H706.484C706.484 380.779 703.411 373.723 697.604 368.872C691.822 364.043 683.449 361.5 673.014 361.5V363.5ZM705.484 390.53H720.444V388.53H705.484V390.53ZM721.444 389.523C721.358 376.609 716.754 366.162 708.345 358.957C699.954 351.768 687.884 347.9 673.014 347.9V349.9C687.555 349.9 699.115 353.682 707.044 360.476C714.955 367.253 719.361 377.121 719.444 389.537L721.444 389.523ZM673.014 347.9C658.414 347.9 646.82 351.463 638.855 357.875C630.865 364.306 626.624 373.528 626.624 384.6H628.624C628.624 374.082 632.629 365.454 640.109 359.433C647.614 353.392 658.715 349.9 673.014 349.9V347.9ZM626.624 384.6C626.624 391.262 628.15 396.673 630.825 401.085C633.498 405.493 637.283 408.847 641.717 411.451C650.549 416.637 662.074 418.909 672.859 420.608L673.17 418.632C662.365 416.931 651.195 414.698 642.73 409.726C638.515 407.251 635 404.114 632.536 400.048C630.073 395.987 628.624 390.943 628.624 384.6H626.624ZM672.856 420.607C681.914 422.06 690.419 423.445 696.677 426.47C699.783 427.972 702.274 429.852 703.992 432.292C705.702 434.722 706.694 437.776 706.694 441.72H708.694C708.694 437.419 707.604 433.95 705.628 431.141C703.658 428.343 700.858 426.27 697.547 424.67C690.97 421.49 682.135 420.07 673.173 418.633L672.856 420.607ZM706.694 441.72C706.694 448.115 704.001 453.294 698.972 456.909C693.907 460.551 686.402 462.65 676.754 462.65V464.65C686.657 464.65 694.622 462.5 700.139 458.533C705.693 454.541 708.694 448.755 708.694 441.72H706.694ZM676.754 462.65C665.687 462.65 657.058 459.924 651.193 455.04C645.351 450.175 642.137 443.075 642.054 434.061L640.055 434.079C640.142 443.595 643.558 451.285 649.913 456.577C656.246 461.851 665.382 464.65 676.754 464.65V462.65ZM641.054 433.07H625.754V435.07H641.054V433.07ZM624.754 434.07C624.754 447.675 629.704 458.761 638.728 466.431C647.733 474.084 660.694 478.25 676.584 478.25V476.25C661.025 476.25 648.571 472.171 640.023 464.907C631.495 457.659 626.754 447.155 626.754 434.07H624.754ZM0.1 648L-0.835618 647.647L-1.34612 649H0.1V648ZM14.89 648V649H15.5799L15.8249 648.355L14.89 648ZM25.09 621.14V620.14H24.4001L24.1551 620.785L25.09 621.14ZM86.12 621.14L87.0549 620.785L86.8099 620.14H86.12V621.14ZM96.32 648L95.3851 648.355L95.6301 649H96.32V648ZM111.11 648V649H112.55L112.047 647.65L111.11 648ZM66.4 528.15L67.3369 527.8L67.0943 527.15H66.4V528.15ZM45.32 528.15V527.15H44.6285L44.3844 527.797L45.32 528.15ZM29.68 608.39L28.7453 608.035L28.2301 609.39H29.68V608.39ZM55.01 541.75V540.75H54.3203L54.0753 541.395L55.01 541.75ZM56.54 541.75L57.4755 541.397L57.2313 540.75H56.54V541.75ZM81.7 608.39V609.39H83.1465L82.6356 608.037L81.7 608.39ZM0.1 649H14.89V647H0.1V649ZM15.8249 648.355L26.0249 621.495L24.1551 620.785L13.9551 647.645L15.8249 648.355ZM25.09 622.14H86.12V620.14H25.09V622.14ZM85.1851 621.495L95.3851 648.355L97.2549 647.645L87.0549 620.785L85.1851 621.495ZM96.32 649H111.11V647H96.32V649ZM112.047 647.65L67.3369 527.8L65.4631 528.5L110.173 648.35L112.047 647.65ZM66.4 527.15H45.32V529.15H66.4V527.15ZM44.3844 527.797L-0.835618 647.647L1.03562 648.353L46.2556 528.503L44.3844 527.797ZM30.6148 608.745L55.9448 542.105L54.0753 541.395L28.7453 608.035L30.6148 608.745ZM55.01 542.75H56.54V540.75H55.01V542.75ZM55.6045 542.103L80.7645 608.743L82.6356 608.037L57.4755 541.397L55.6045 542.103ZM81.7 607.39H29.68V609.39H81.7V607.39ZM132.341 648H131.341V649H132.341V648ZM147.811 648V649H148.811V648H147.811ZM147.811 548.55V547.55H146.811V548.55H147.811ZM149.511 548.55L150.38 548.054L150.092 547.55H149.511V548.55ZM206.291 648L205.423 648.496L205.711 649H206.291V648ZM228.391 648V649H229.391V648H228.391ZM228.391 528.15H229.391V527.15H228.391V528.15ZM212.921 528.15V527.15H211.921V528.15H212.921ZM212.921 627.6V628.6H213.921V627.6H212.921ZM211.391 627.6L210.523 628.096L210.811 628.6H211.391V627.6ZM154.611 528.15L155.48 527.654L155.192 527.15H154.611V528.15ZM132.341 528.15V527.15H131.341V528.15H132.341ZM132.341 649H147.811V647H132.341V649ZM148.811 648V548.55H146.811V648H148.811ZM147.811 549.55H149.511V547.55H147.811V549.55ZM148.643 549.046L205.423 648.496L207.16 647.504L150.38 548.054L148.643 549.046ZM206.291 649H228.391V647H206.291V649ZM229.391 648V528.15H227.391V648H229.391ZM228.391 527.15H212.921V529.15H228.391V527.15ZM211.921 528.15V627.6H213.921V528.15H211.921ZM212.921 626.6H211.391V628.6H212.921V626.6ZM212.26 627.104L155.48 527.654L153.743 528.646L210.523 628.096L212.26 627.104ZM154.611 527.15H132.341V529.15H154.611V527.15ZM131.341 528.15V648H133.341V528.15H131.341ZM260.671 648H259.671V649H260.671V648ZM260.671 528.15V527.15H259.671V528.15H260.671ZM276.141 634.4H275.141V635.4H276.141V634.4ZM276.141 541.75V540.75H275.141V541.75H276.141ZM260.671 649H299.091V647H260.671V649ZM299.091 649C320.018 649 337.523 642.995 349.812 632.329C362.115 621.651 369.111 606.366 369.111 587.99H367.111C367.111 605.824 360.338 620.544 348.501 630.819C336.65 641.105 319.645 647 299.091 647V649ZM369.111 587.99C369.111 569.614 362.114 554.371 349.81 543.735C337.521 533.111 320.016 527.15 299.091 527.15V529.15C319.647 529.15 336.652 535.004 348.503 545.248C360.339 555.479 367.111 570.156 367.111 587.99H369.111ZM299.091 527.15H260.671V529.15H299.091V527.15ZM259.671 528.15V648H261.671V528.15H259.671ZM277.141 634.4V541.75H275.141V634.4H277.141ZM276.141 542.75H299.091V540.75H276.141V542.75ZM299.091 542.75C314.895 542.75 328.077 547.121 337.29 554.923C346.486 562.711 351.811 573.984 351.811 587.99H353.811C353.811 573.436 348.257 561.589 338.583 553.397C328.926 545.219 315.248 540.75 299.091 540.75V542.75ZM351.811 587.99C351.811 602.085 346.526 613.401 337.352 621.207C328.161 629.029 314.981 633.4 299.091 633.4V635.4C315.332 635.4 329.012 630.931 338.648 622.73C348.302 614.515 353.811 602.625 353.811 587.99H351.811ZM299.091 633.4H276.141V635.4H299.091V633.4ZM547.002 610.77L547.973 611.011L548.226 609.99L547.194 609.789L547.002 610.77ZM532.212 607.88L532.404 606.899L531.497 606.721L531.249 607.611L532.212 607.88ZM532.042 569.46L531.069 569.692L531.279 570.572L532.176 570.451L532.042 569.46ZM547.172 567.42L547.306 568.411L548.399 568.264L548.145 567.19L547.172 567.42ZM428.342 587.99L429.342 587.995V587.99H428.342ZM490.392 653.25C517.658 653.25 541.899 635.477 547.973 611.011L546.031 610.529C540.204 634.004 516.846 651.25 490.392 651.25V653.25ZM547.194 609.789L532.404 606.899L532.02 608.861L546.81 611.751L547.194 609.789ZM531.249 607.611C526.445 624.839 509.345 637.65 490.392 637.65V639.65C510.199 639.65 528.119 626.281 533.175 608.149L531.249 607.611ZM490.392 637.65C463.991 637.65 444.812 616.928 444.812 587.99H442.812C442.812 617.872 462.732 639.65 490.392 639.65V637.65ZM444.812 587.99C444.812 559.222 463.822 538.5 490.392 538.5V536.5C462.562 536.5 442.812 558.278 442.812 587.99H444.812ZM490.392 538.5C509.673 538.5 526.762 551.635 531.069 569.692L533.015 569.228C528.482 550.225 510.551 536.5 490.392 536.5V538.5ZM532.176 570.451L547.306 568.411L547.038 566.429L531.908 568.469L532.176 570.451ZM548.145 567.19C542.083 541.555 517.861 522.9 490.392 522.9V524.9C516.983 524.9 540.361 542.965 546.199 567.65L548.145 567.19ZM490.392 522.9C453.769 522.9 427.342 550.238 427.342 587.99H429.342C429.342 551.282 454.934 524.9 490.392 524.9V522.9ZM427.342 587.985C427.17 625.741 453.77 653.25 490.392 653.25V651.25C454.934 651.25 429.174 624.699 429.342 587.995L427.342 587.985ZM629.407 653.25C648.601 653.25 665.054 646.533 676.712 634.983C688.371 623.432 695.177 607.104 695.177 587.99H693.177C693.177 606.616 686.553 622.418 675.304 633.562C664.055 644.707 648.123 651.25 629.407 651.25V653.25ZM695.177 587.99C695.177 550.029 667.86 522.9 629.407 522.9V524.9C666.773 524.9 693.177 551.151 693.177 587.99H695.177ZM629.407 522.9C590.953 522.9 563.637 550.029 563.637 587.99H565.637C565.637 551.151 592.04 524.9 629.407 524.9V522.9ZM563.637 587.99C563.637 607.104 570.443 623.432 582.102 634.983C593.76 646.533 610.213 653.25 629.407 653.25V651.25C610.691 651.25 594.759 644.707 583.509 633.562C572.261 622.418 565.637 606.616 565.637 587.99H563.637ZM629.407 637.65C601.256 637.65 581.107 616.875 581.107 587.99H579.107C579.107 617.925 600.098 639.65 629.407 639.65V637.65ZM581.107 587.99C581.107 559.109 601.252 538.5 629.407 538.5V536.5C600.102 536.5 579.107 558.051 579.107 587.99H581.107ZM629.407 538.5C657.557 538.5 677.537 559.105 677.537 587.99H679.537C679.537 558.055 658.716 536.5 629.407 536.5V538.5ZM677.537 587.99C677.537 616.88 657.553 637.65 629.407 637.65V639.65C658.721 639.65 679.537 617.92 679.537 587.99H677.537ZM816.281 528.15H817.281V527.15H816.281V528.15ZM800.811 528.15V527.15H799.811V528.15H800.811ZM733.661 528.15H734.661V527.15H733.661V528.15ZM718.021 528.15V527.15H717.021V528.15H718.021ZM767.321 653.25C796.46 653.25 817.281 631.695 817.281 601.93H815.281C815.281 630.645 795.301 651.25 767.321 651.25V653.25ZM817.281 601.93V528.15H815.281V601.93H817.281ZM816.281 527.15H800.811V529.15H816.281V527.15ZM799.811 528.15V601.93H801.811V528.15H799.811ZM799.811 601.93C799.811 622.887 786.233 637.65 767.321 637.65V639.65C787.508 639.65 801.811 623.813 801.811 601.93H799.811ZM767.321 637.65C748.401 637.65 734.661 622.88 734.661 601.93H732.661C732.661 623.82 747.14 639.65 767.321 639.65V637.65ZM734.661 601.93V528.15H732.661V601.93H734.661ZM733.661 527.15H718.021V529.15H733.661V527.15ZM717.021 528.15V601.93H719.021V528.15H717.021ZM717.021 601.93C717.021 631.704 738.19 653.25 767.321 653.25V651.25C739.331 651.25 719.021 630.636 719.021 601.93H717.021ZM847.703 648H846.703V649H847.703V648ZM863.173 648V649H864.173V648H863.173ZM863.173 548.55V547.55H862.173V548.55H863.173ZM864.873 548.55L865.741 548.054L865.453 547.55H864.873V548.55ZM921.653 648L920.784 648.496L921.072 649H921.653V648ZM943.753 648V649H944.753V648H943.753ZM943.753 528.15H944.753V527.15H943.753V528.15ZM928.283 528.15V527.15H927.283V528.15H928.283ZM928.283 627.6V628.6H929.283V627.6H928.283ZM926.753 627.6L925.884 628.096L926.172 628.6H926.753V627.6ZM869.973 528.15L870.841 527.654L870.553 527.15H869.973V528.15ZM847.703 528.15V527.15H846.703V528.15H847.703ZM847.703 649H863.173V647H847.703V649ZM864.173 648V548.55H862.173V648H864.173ZM863.173 549.55H864.873V547.55H863.173V549.55ZM864.004 549.046L920.784 648.496L922.521 647.504L865.741 548.054L864.004 549.046ZM921.653 649H943.753V647H921.653V649ZM944.753 648V528.15H942.753V648H944.753ZM943.753 527.15H928.283V529.15H943.753V527.15ZM927.283 528.15V627.6H929.283V528.15H927.283ZM928.283 626.6H926.753V628.6H928.283V626.6ZM927.621 627.104L870.841 527.654L869.104 528.646L925.884 628.096L927.621 627.104ZM869.973 527.15H847.703V529.15H869.973V527.15ZM846.703 528.15V648H848.703V528.15H846.703ZM1001.53 648H1000.53V649H1001.53V648ZM1017 648V649H1018V648H1017ZM1017 541.75V540.75H1016V541.75H1017ZM1056.78 541.75V542.75H1057.78V541.75H1056.78ZM1056.78 528.15H1057.78V527.15H1056.78V528.15ZM961.923 528.15V527.15H960.923V528.15H961.923ZM961.923 541.75H960.923V542.75H961.923V541.75ZM1001.53 541.75H1002.53V540.75H1001.53V541.75ZM1001.53 649H1017V647H1001.53V649ZM1018 648V541.75H1016V648H1018ZM1017 542.75H1056.78V540.75H1017V542.75ZM1057.78 541.75V528.15H1055.78V541.75H1057.78ZM1056.78 527.15H961.923V529.15H1056.78V527.15ZM960.923 528.15V541.75H962.923V528.15H960.923ZM961.923 542.75H1001.53V540.75H961.923V542.75ZM1000.53 541.75V648H1002.53V541.75H1000.53ZM1074.98 648H1073.98V649H1074.98V648ZM1090.45 648V649H1091.45V648H1090.45ZM1090.45 601.08V600.08H1089.45V601.08H1090.45ZM1112.55 601.08L1113.3 600.418L1113 600.08H1112.55V601.08ZM1154.03 648L1153.28 648.662L1153.58 649H1154.03V648ZM1173.58 648V649H1175.84L1174.32 647.327L1173.58 648ZM1130.06 600.23V599.23H1127.79L1129.32 600.903L1130.06 600.23ZM1132.1 600.23V601.23H1132.12L1132.14 601.229L1132.1 600.23ZM1074.98 528.15V527.15H1073.98V528.15H1074.98ZM1090.45 587.48H1089.45V588.48H1090.45V587.48ZM1090.45 541.75V540.75H1089.45V541.75H1090.45ZM1074.98 649H1090.45V647H1074.98V649ZM1091.45 648V601.08H1089.45V648H1091.45ZM1090.45 602.08H1112.55V600.08H1090.45V602.08ZM1111.8 601.742L1153.28 648.662L1154.78 647.338L1113.3 600.418L1111.8 601.742ZM1154.03 649H1173.58V647H1154.03V649ZM1174.32 647.327L1130.8 599.557L1129.32 600.903L1172.84 648.673L1174.32 647.327ZM1130.06 601.23H1132.1V599.23H1130.06V601.23ZM1132.14 601.229C1154.83 600.19 1171.35 585.578 1171.35 564.53H1169.35C1169.35 584.282 1153.91 598.23 1132.05 599.231L1132.14 601.229ZM1171.35 564.53C1171.35 553.2 1166.94 543.819 1159.15 537.287C1151.39 530.769 1140.35 527.15 1127.17 527.15V529.15C1140 529.15 1150.55 532.671 1157.87 538.818C1165.17 544.951 1169.35 553.76 1169.35 564.53H1171.35ZM1127.17 527.15H1074.98V529.15H1127.17V527.15ZM1073.98 528.15V648H1075.98V528.15H1073.98ZM1091.45 587.48V541.75H1089.45V587.48H1091.45ZM1090.45 542.75H1127.17V540.75H1090.45V542.75ZM1127.17 542.75C1135.59 542.75 1142.27 544.919 1146.82 548.683C1151.36 552.43 1153.88 557.833 1153.88 564.53H1155.88C1155.88 557.287 1153.13 551.3 1148.1 547.142C1143.09 543.001 1135.91 540.75 1127.17 540.75V542.75ZM1153.88 564.53C1153.88 571.316 1151.35 576.761 1146.82 580.527C1142.27 584.311 1135.59 586.48 1127.17 586.48V588.48C1135.91 588.48 1143.09 586.229 1148.1 582.065C1153.13 577.884 1155.88 571.854 1155.88 564.53H1153.88ZM1127.17 586.48H1090.45V588.48H1127.17V586.48ZM1224.49 648H1223.49V649H1224.49V648ZM1240.13 648V649H1241.13V648H1240.13ZM1240.13 604.14L1239.25 603.647L1239.13 603.877V604.14H1240.13ZM1283.14 528.15L1284.01 528.643L1284.85 527.15H1283.14V528.15ZM1266.48 528.15V527.15H1265.88L1265.6 527.672L1266.48 528.15ZM1233.16 589.35V590.35H1233.75L1234.03 589.828L1233.16 589.35ZM1231.46 589.35L1230.58 589.836L1230.87 590.35H1231.46V589.35ZM1197.46 528.15L1198.33 527.664L1198.04 527.15H1197.46V528.15ZM1181.14 528.15V527.15H1179.41L1180.27 528.646L1181.14 528.15ZM1224.49 604.14H1225.49V603.875L1225.35 603.644L1224.49 604.14ZM1224.49 649H1240.13V647H1224.49V649ZM1241.13 648V604.14H1239.13V648H1241.13ZM1241 604.633L1284.01 528.643L1282.26 527.657L1239.25 603.647L1241 604.633ZM1283.14 527.15H1266.48V529.15H1283.14V527.15ZM1265.6 527.672L1232.28 588.872L1234.03 589.828L1267.35 528.628L1265.6 527.672ZM1233.16 588.35H1231.46V590.35H1233.16V588.35ZM1232.33 588.864L1198.33 527.664L1196.58 528.636L1230.58 589.836L1232.33 588.864ZM1197.46 527.15H1181.14V529.15H1197.46V527.15ZM1180.27 528.646L1223.62 604.635L1225.35 603.644L1182 527.654L1180.27 528.646ZM1223.49 604.14V648H1225.49V604.14H1223.49Z" fill="#4AC6D2"/>
</svg>
