<svg xmlns="http://www.w3.org/2000/svg" viewBox="0 0 75.397 72"><defs><style>.a{opacity:0.15;}.b{fill:#fff;}</style></defs><g class="a" transform="translate(0 -11.534)"><g transform="translate(0 23.531)"><path class="b" d="M73.581,149.372H70.635v-7.618a1.816,1.816,0,0,0-1.816-1.816H56.812v-4.117h9.527A1.816,1.816,0,0,0,68.155,134v-4.973a30.494,30.494,0,0,0-28.64-30.4v-2H45A1.816,1.816,0,0,0,45,93H30.4a1.816,1.816,0,0,0,0,3.633h5.482v2A30.5,30.5,0,0,0,7.369,126.262c0,.008,0,.017,0,.025-.081.9-.125,1.819-.125,2.744V134a1.816,1.816,0,0,0,1.816,1.816h9.527v4.117H6.579a1.816,1.816,0,0,0-1.816,1.816v7.618H1.816a1.816,1.816,0,1,0,0,3.633H73.581a1.816,1.816,0,1,0,0-3.632ZM10.875,132.188v-3.156c0-.253,0-.506.011-.757H52.139a1.816,1.816,0,1,0,0-3.633h-40.9A26.865,26.865,0,0,1,37.522,102.21c.058.006.117.009.177.009s.119,0,.177-.009a26.853,26.853,0,0,1,26.647,26.822v3.156H10.875Zm42.3,3.633v4.117H22.218V135.82ZM67,149.372H8.4v-5.8H67v5.8Z" transform="translate(0 -93.001)"/></g><g transform="translate(35.882 11.534)"><path class="b" d="M245.481,11.534a1.816,1.816,0,0,0-1.816,1.816v4.187a1.816,1.816,0,0,0,3.633,0V13.35A1.816,1.816,0,0,0,245.481,11.534Z" transform="translate(-243.665 -11.534)"/></g><g transform="translate(18.344 18.799)"><path class="b" d="M130.1,63.826,127.669,61.4a1.817,1.817,0,1,0-2.569,2.569l2.429,2.429a1.816,1.816,0,0,0,2.569-2.569Z" transform="translate(-124.568 -60.866)"/></g><g transform="translate(50.991 18.798)"><path class="b" d="M351.795,61.4a1.817,1.817,0,0,0-2.569,0L346.8,63.825a1.817,1.817,0,0,0,2.569,2.569l2.429-2.429A1.817,1.817,0,0,0,351.795,61.4Z" transform="translate(-346.265 -60.865)"/></g><g transform="translate(61.638 34.52)"><path class="b" d="M424.567,167.625h-4.187a1.816,1.816,0,0,0,0,3.633h4.187a1.816,1.816,0,1,0,0-3.633Z" transform="translate(-418.563 -167.625)"/></g><g transform="translate(5.94 34.52)"><path class="b" d="M46.337,167.625H42.15a1.816,1.816,0,0,0,0,3.633h4.187a1.816,1.816,0,1,0,0-3.633Z" transform="translate(-40.334 -167.625)"/></g><g transform="translate(56.557 55.171)"><path class="b" d="M387.664,309.32a1.831,1.831,0,0,0-.1-.34,1.764,1.764,0,0,0-.394-.589,1.746,1.746,0,0,0-.276-.227,1.859,1.859,0,0,0-.312-.167,1.931,1.931,0,0,0-.34-.1,1.791,1.791,0,0,0-.71,0,1.828,1.828,0,0,0-.34.1,1.8,1.8,0,0,0-.314.167,1.751,1.751,0,0,0-.276.227,1.81,1.81,0,0,0-.225.275,1.941,1.941,0,0,0-.167.314,1.808,1.808,0,0,0,.392,1.978,1.728,1.728,0,0,0,.276.227,1.794,1.794,0,0,0,.314.167,1.833,1.833,0,0,0,.34.1,1.791,1.791,0,0,0,.354.034,1.833,1.833,0,0,0,.356-.034,1.926,1.926,0,0,0,.34-.1,1.844,1.844,0,0,0,.312-.167,1.733,1.733,0,0,0,.276-.227,1.82,1.82,0,0,0,.5-1.638Z" transform="translate(-384.065 -307.858)"/></g></g></svg>