<svg xmlns="http://www.w3.org/2000/svg" viewBox="0 0 75.614 75.615"><defs><style>.a{opacity:0.2;}.b{fill:#fff;}</style></defs><g class="a" transform="translate(0 0)"><g transform="translate(0 25.894)"><path class="b" d="M74.138,179.936H62.027V176.81a1.477,1.477,0,0,0-1.477-1.477h-31.9a1.477,1.477,0,1,0,0,2.954H59.074v11.322a28.138,28.138,0,0,1-13.885,24.22H16.839a28.138,28.138,0,0,1-13.885-24.22V178.287h9.895a1.477,1.477,0,1,0,0-2.954H1.477A1.477,1.477,0,0,0,0,176.81v12.8a30.962,30.962,0,0,0,11.647,24.22H1.477A1.477,1.477,0,0,0,0,215.306a9.758,9.758,0,0,0,9.747,9.747H55.825a9.758,9.758,0,0,0,9.747-9.747,1.477,1.477,0,0,0-1.477-1.477H50.381a31.192,31.192,0,0,0,6.838-7.63h4.169a14.243,14.243,0,0,0,14.227-14.227V181.413A1.477,1.477,0,0,0,74.138,179.936ZM62.456,216.783a6.805,6.805,0,0,1-6.632,5.317H9.747a6.806,6.806,0,0,1-6.632-5.317H62.456Zm-.429-27.174V188.8h4.726v3.175a5.372,5.372,0,0,1-5.366,5.366h-.335A31.089,31.089,0,0,0,62.027,189.609Zm10.633,2.363a11.286,11.286,0,0,1-11.273,11.273H58.874a30.837,30.837,0,0,0,1.261-2.954h1.253a8.329,8.329,0,0,0,8.32-8.32V187.32a1.477,1.477,0,0,0-1.477-1.477h-6.2V182.89H72.661Z" transform="translate(0 -175.333)"/></g><g transform="translate(27.851 0)"><path class="b" d="M193.158,8.173l-.768-.965a3.85,3.85,0,0,1,0-4.813A1.477,1.477,0,0,0,190.072.559a6.79,6.79,0,0,0,.007,8.49l.768.965a5.031,5.031,0,0,1,.005,6.29l-.787.992a1.477,1.477,0,1,0,2.314,1.836l.787-.992A7.971,7.971,0,0,0,193.158,8.173Z" transform="translate(-188.585 0)"/></g><g transform="translate(36.037 3.32)"><path class="b" d="M248.587,30.657l-.768-.965a3.85,3.85,0,0,1,0-4.814,1.477,1.477,0,0,0-2.314-1.836,6.79,6.79,0,0,0,.007,8.49l.768.965a5.031,5.031,0,0,1,.005,6.291l-.787.992a1.477,1.477,0,1,0,2.314,1.836l.787-.992A7.972,7.972,0,0,0,248.587,30.657Z" transform="translate(-244.014 -22.484)"/></g><g transform="translate(19.665 3.32)"><path class="b" d="M137.729,30.658l-.768-.965a3.85,3.85,0,0,1,0-4.814,1.477,1.477,0,0,0-2.314-1.836,6.791,6.791,0,0,0,.007,8.49l.768.965a5.031,5.031,0,0,1,.005,6.29l-.787.992a1.477,1.477,0,1,0,2.313,1.836l.788-.992A7.972,7.972,0,0,0,137.729,30.658Z" transform="translate(-133.156 -22.485)"/></g><g transform="translate(19.673 25.893)"><path class="b" d="M135.731,175.763a1.478,1.478,0,1,0,.433,1.044A1.488,1.488,0,0,0,135.731,175.763Z" transform="translate(-133.21 -175.33)"/></g><g transform="translate(45.456 38.693)"><path class="b" d="M315.8,262a1.477,1.477,0,0,0-1.477,1.477,21.16,21.16,0,0,1-6.1,14.781,1.477,1.477,0,1,0,2.1,2.079,24.135,24.135,0,0,0,6.956-16.86A1.477,1.477,0,0,0,315.8,262Z" transform="translate(-307.795 -262)"/></g><g transform="translate(40.605 58.207)"><path class="b" d="M277.742,394.888a1.477,1.477,0,0,0-2.012-.561l-.034.019a1.477,1.477,0,1,0,1.451,2.573l.034-.019A1.477,1.477,0,0,0,277.742,394.888Z" transform="translate(-274.945 -394.136)"/></g></g></svg>