<svg xmlns="http://www.w3.org/2000/svg" viewBox="0 0 116.761 71.953"><defs><style>.a{opacity:0.2;}.b{fill:#fff;}</style></defs><g class="a" transform="translate(0 -98.242)"><g transform="translate(85.292 125.361)"><path class="b" d="M384.124,217.207a2.279,2.279,0,0,0-2.685,1.784c-.63,3.124-3.188,8.04-7.018,13.488a2.28,2.28,0,1,0,3.73,2.623c4.242-6.034,7-11.435,7.758-15.21A2.279,2.279,0,0,0,384.124,217.207Z" transform="translate(-374.006 -217.162)"/></g><g transform="translate(19.521 125.361)"><path class="b" d="M97.135,232.479c-3.831-5.449-6.389-10.365-7.018-13.488a2.28,2.28,0,1,0-4.47.9c.761,3.775,3.516,9.176,7.758,15.21a2.28,2.28,0,1,0,3.73-2.623Z" transform="translate(-85.601 -217.161)"/></g><g transform="translate(0 98.242)"><path class="b" d="M107.98,131.188a23.05,23.05,0,0,0,.481-2.3c.854-5.552-3.124-10.862-11.824-15.783a89.742,89.742,0,0,0-15.689-6.693q-.256-.245-.532-.473a35.4,35.4,0,0,0-44.07,0q-.277.227-.532.473a89.726,89.726,0,0,0-15.69,6.693c-8.7,4.921-12.678,10.231-11.824,15.783a23.176,23.176,0,0,0,.481,2.3C.331,143.452-3.536,161.866,4.11,168.1a8.361,8.361,0,0,0,5.318,2.1,8.088,8.088,0,0,0,3.447-.816c2.375-1.111,4.577-3.257,6.909-5.528a47.689,47.689,0,0,1,6.772-5.814,10.173,10.173,0,0,0,6.81.482,34.161,34.161,0,0,0,9.713-4.692c.192.053,30.413.053,30.606,0A34.159,34.159,0,0,0,83.4,158.52a10.172,10.172,0,0,0,6.809-.482,47.7,47.7,0,0,1,6.772,5.814c2.332,2.272,4.534,4.417,6.909,5.528a8.091,8.091,0,0,0,3.447.815,8.363,8.363,0,0,0,5.318-2.1C120.3,161.866,116.431,143.453,107.98,131.188ZM16.6,160.585c-5.273,5.137-6.954,6.14-9.612,3.975-2.214-1.8-2.971-6.6-1.975-12.529a46.515,46.515,0,0,1,5.714-15.42c3.167,7.1,8.485,14.221,11.968,18.494l.037.045A60.248,60.248,0,0,0,16.6,160.585Zm15.539-6.458A5.639,5.639,0,0,1,27.7,153.5l-.082-.051a5.742,5.742,0,0,1-1.383-1.226C23.016,148.28,15.886,138.945,13.465,131c-.009-.032-.018-.063-.029-.094a20.138,20.138,0,0,1-.629-2.718c-.873-5.674,8.959-11.818,20.286-16.021a9.162,9.162,0,0,0,.047,1.866c1.058,8.292,6.01,28.752,7.739,35.773A30.1,30.1,0,0,1,32.141,154.127ZM71.3,149.349H45.463c-1.539-6.242-6.753-27.682-7.8-35.889a4.425,4.425,0,0,1,1.046-3.486c.028-.029.054-.059.08-.089a4.463,4.463,0,0,1,.449-.423,30.842,30.842,0,0,1,38.286,0,4.436,4.436,0,0,1,.447.422q.04.047.083.092a4.426,4.426,0,0,1,1.045,3.484C78.051,121.666,72.838,143.107,71.3,149.349Zm17.852,4.1-.09.056a5.637,5.637,0,0,1-4.44.621,30.089,30.089,0,0,1-8.738-4.318c1.73-7.021,6.682-27.482,7.739-35.773a9.162,9.162,0,0,0,.047-1.866c11.327,4.2,21.159,10.347,20.286,16.021a20.121,20.121,0,0,1-.629,2.717c-.01.032-.02.064-.029.1-2.422,7.941-9.552,17.275-12.767,21.221A5.735,5.735,0,0,1,89.15,153.45Zm20.621,11.11c-2.657,2.166-4.339,1.162-9.612-3.975a60.116,60.116,0,0,0-6.133-5.434l.037-.045c3.483-4.274,8.8-11.392,11.968-18.495a46.513,46.513,0,0,1,5.714,15.42C112.741,157.956,111.985,162.757,109.771,164.56Z" transform="translate(0 -98.242)"/></g><g transform="translate(69.844 111.652)"><path class="b" d="M310.78,158.88a2.2,2.2,0,0,0-.13-.428,2.445,2.445,0,0,0-.207-.392,2.343,2.343,0,0,0-.285-.347,2.169,2.169,0,0,0-.347-.283,2.245,2.245,0,0,0-.394-.21,2.137,2.137,0,0,0-.426-.13,2.243,2.243,0,0,0-.889,0,2.132,2.132,0,0,0-.426.13,2.242,2.242,0,0,0-.394.21,2.158,2.158,0,0,0-.346.283,2.22,2.22,0,0,0-.493.739,2.215,2.215,0,0,0-.13.428,2.2,2.2,0,0,0,0,.889,2.143,2.143,0,0,0,.13.426,2.247,2.247,0,0,0,.21.394,2.214,2.214,0,0,0,.629.629,2.259,2.259,0,0,0,.394.21,2.14,2.14,0,0,0,.426.13,2.188,2.188,0,0,0,.889,0,2.131,2.131,0,0,0,.426-.13,2.243,2.243,0,0,0,.394-.21,2.211,2.211,0,0,0,.629-.629,2.277,2.277,0,0,0,.21-.394,2.143,2.143,0,0,0,.13-.426,2.195,2.195,0,0,0,0-.889Z" transform="translate(-306.266 -157.046)"/></g><g transform="translate(42.358 107.361)"><path class="b" d="M209.408,139.307a26.915,26.915,0,0,0-7.644-1.079,25.464,25.464,0,0,0-15.077,4.722,2.28,2.28,0,1,0,2.669,3.7,20.93,20.93,0,0,1,12.408-3.859,22.346,22.346,0,0,1,6.349.892,2.28,2.28,0,0,0,1.295-4.372Z" transform="translate(-185.742 -138.228)"/></g></g></svg>