<svg xmlns="http://www.w3.org/2000/svg" viewBox="0 0 222.248 28.954">
  <path id="Union_19" data-name="Union 19" d="M3.607-3678.748a9.923,9.923,0,0,0,.2-2.414,89.537,89.537,0,0,0,.057-9.143l.255-1.478c0-1.759.256-3.525.256-5.252a20.222,20.222,0,0,0-.855-5.937c0-.567-.567-.567-1.191-1.136v-1.191h.623c1.734,0,3.6-.455,5.451-.223.567.056.456.112.456.8-.568,1.191-1.136,1.191-1.136,1.758,0,2.27-.056,4.516-.112,6.73-.032,1.022.088,2.045.056,3.069-.032,1.223-.223,2.414-.223,3.636-.056,3.07-.033,6.218.2,9.575,0,.568-.033.543.623.568.6.031.567,0,1.135,0,0,0,2.445.031,3.18,0,.344-3.15-.112-6.219-.112-8.864v-15.425c-.6-.544-1.135-.544-1.135-1.136,0-.543-.032-.823.543-.935,1.623-.312,4.516-.423,4.772.4.367,1.222-1.167,1.055-1.167,2.189,0,.823.033,1.791.033,2.357v2.046l.223,3.66c0,1.846-.455,3.693-.367,5.539.056.911.367,1.845.423,2.781.144,2.557.288,5.114.288,7.64h4.571c.536-1.136,0-2.27,0-3.98v-5.707c0-1.279.28-2.614.28-3.948-.032-1.646-.343-3.293-.4-4.884a30.593,30.593,0,0,0-.48-6.761h-.536c-.6,0-.6-1.135-.6-1.135a21.438,21.438,0,0,0,2.514-.16,11.431,11.431,0,0,1,4.646.16c0,1.135-1.166.6-1.166,1.135-.576,1.126-.576,3.6-.576,4.731v8.32l-.223,2.7.223,2.67v6.841c1.135,0,1.735,1.734.567,1.734H13.773a9.89,9.89,0,0,1-2.214.056,52.028,52.028,0,0,0-7.186.312C3.751-3677.614,3.319-3677.614,3.607-3678.748Zm113.729,1.319c0-.623.967-2.19,1.591-2.19a59.6,59.6,0,0,0-.623-10.83c-1.135,0-2.958-.6-4.716-.6-.623.6-.623,1.791-.623,3.069a33.244,33.244,0,0,0-.655,8.376c.655.543,1.278,0,1.814.543a8.74,8.74,0,0,1-.088,1.19,4.045,4.045,0,0,1-3,.5,4.71,4.71,0,0,0-2.246.125l-1.246-1.191a3.039,3.039,0,0,1,1.791-1.166c.623,0,.623-.6.623-1.223.567-3.636,1.166-8.975,1.758-13.2a10.654,10.654,0,0,1,1.246-4.772,18.63,18.63,0,0,1,2.958-5.994s1.246-1.278,2.381-.623a5.936,5.936,0,0,1,2.5,4.2,9.521,9.521,0,0,1,.912,3.213c.567,4.715.855,10.022,1.391,15.368V-3679c0,.543,1.246,1.19,0,1.791l-.736-.168c-1.191,0-2.214.168-3.436.168-.32.028-.73.109-1.054.109C117.566-3677.1,117.336-3677.169,117.336-3677.429Zm-1.415-24.408c-.576,1.766-1.2,3.636-1.8,6.026,0,.543-.536,2.358-.536,3.037a16.152,16.152,0,0,0,4.716.536v-3.581a20.519,20.519,0,0,0-1.135-6.017.6.6,0,0,0-.624-.6Zm-79.227,24.408c0-.623.966-2.19,1.591-2.19a59.509,59.509,0,0,0-.624-10.83c-1.135,0-2.957-.6-4.715-.6-.623.6-.623,1.791-.623,3.069a33.2,33.2,0,0,0-.656,8.376c.656.543,1.279,0,1.815.543a8.74,8.74,0,0,1-.088,1.19,4.049,4.049,0,0,1-3.006.5,4.735,4.735,0,0,0-2.252.125l-1.247-1.191a3.042,3.042,0,0,1,1.791-1.166c.623,0,.623-.6.623-1.223.567-3.636,1.167-8.975,1.758-13.2a10.642,10.642,0,0,1,1.247-4.772,18.61,18.61,0,0,1,2.957-5.994s1.246-1.278,2.39-.623a5.939,5.939,0,0,1,2.5,4.2,9.7,9.7,0,0,1,.912,3.213c.567,4.715.855,10.022,1.391,15.368V-3679c0,.543,1.246,1.19,0,1.791l-.736-.168c-1.191,0-2.214.168-3.436.168-.32.028-.731.109-1.054.109C36.924-3677.1,36.695-3677.169,36.695-3677.429Zm-1.423-24.408c-.567,1.766-1.191,3.636-1.79,6.026,0,.543-.544,2.358-.544,3.037a16.155,16.155,0,0,0,4.716.536v-3.581a20.519,20.519,0,0,0-1.135-6.017.6.6,0,0,0-.623-.6Zm121.946,24.575c-.6,0-.879-.031-2.045-.031-.6,0-.823.031-1.367.031-.567-.567-.343-.623.224-1.19,0-.6,1.135-.6,1.135-1.167.567-4.628,0-9.8,0-14.459a.587.587,0,0,0-.6-.6c-1.7-.567-4,0-5.763,0-1.167,1.167-1.167,2.325-1.167,4.092v8.088c.6,1.167,0,1.7.6,2.87.567,0,1.734,1.166.567,1.734-2.325,0-3.437.6-5.762,0,0,0-.6-1.166,0-1.734h1.167v-19.661c-.6-1.167,0-2.9-.6-4.059a1.813,1.813,0,0,1-1.166-.6.818.818,0,0,1,0-1.167h2.325c1.166,0,2.869-.567,4.036,0a1.254,1.254,0,0,1,1.166,1.167c0,.6-1.166.6-1.734.6-.6.567,0,1.166,0,2.325s-.6,2.9,0,4.036a14.316,14.316,0,0,0,6.929,0,23.042,23.042,0,0,0-.6-6.362c-.536-.6-1.7,0-2.271-.6v-1.167a5.363,5.363,0,0,1,3.437-.567,9.164,9.164,0,0,0,1.758,0c1.167.567,1.167,2.325,0,2.325a11.284,11.284,0,0,0-.591,4.675v9.8c0,2.894.6,6.394.6,9.255.567.567,1.166.567,1.166,1.166v1.167s-.167-.512-.567-.112a2.341,2.341,0,0,1-.761.15A.735.735,0,0,1,157.217-3677.262Zm-65.7-.176c-.6-.6-.6-.6-.6-1.135.6-.6,1.136-.6,1.136-1.167v-7.472s.056-.031.056-.623l-.056-.536a21.946,21.946,0,0,0,.6-2.869,56.906,56.906,0,0,0-.6-10.342v-1.7c-.536,0-1.136,0-1.136-.6-.567,0-.455-1.246-.056-1.646s1.079-.056,2.246-.056,4.148-.567,4.148,1.135c0,.567-.6.567-1.167,1.167,0,2.27.567,4.036.567,6.307,0,.6-.567,1.734,0,2.3,2.3-.567,3.469-2.869,4.037-5.171,0-1.167.6-2.27.6-3.437h-1.167c0-.6-.6-.6-.6-1.167.6-1.135,2.325-.567,3.46-1.135,1.735.567,1.136,2.3,0,2.3a17.8,17.8,0,0,1-1.126,5.739c-.567,1.166-1.167,2.3-1.735,3.436,0,.6,0,.6.567.6.6.567,1.7,1.136,2.3,1.7,1.735,2.3,1.735,5.761,2.3,8.631,0,1.167-.566,2.27,0,2.869,0,.568,1.3,1.079,1.3,1.679a2.338,2.338,0,0,1-.4,1.111c-1.734,0-4.148.088-5.283.088a.925.925,0,0,1-.223-1.135l1.166-1.167c.536-1.167,0-2.27,0-3.436v-4.036c0-1.7-.567-4.036-1.735-4.6a3.747,3.747,0,0,0-3.469,0c-1.166,1.167-.567,4.6-.567,6.873,0,1.167-.6,1.758-.6,2.925v2.27c1.166.568,1.758,1.7.6,2.3a4.023,4.023,0,0,0-2.305-.008,6.313,6.313,0,0,1-1.271.168A3.094,3.094,0,0,1,91.514-3677.438Zm76.23-.007c-.6,0-.512-.456-.512-1.079,0-.567,1.223-.567,1.223-1.167a8.4,8.4,0,0,0,.567-3.692c0-2.214.087-5.539-.056-8.432-1.223-.623-1.991-.312-3.125.567-1.022.8-1.166,2.325-1.166,4.036v4.036c0,1.167-.543,2.27,0,3.437l1.166,1.167a.926.926,0,0,1-.223,1.135c-1.135,0-3.8-.087-5.539-.087a2.3,2.3,0,0,1-.4-1.112c0-.6,1.3-1.111,1.3-1.678.567-.6.288-2.27.288-3.436.287-2.87.287-5.763,1.734-8.065a12.168,12.168,0,0,1,1.079-.911,8.361,8.361,0,0,1-2.358-3.525,9.6,9.6,0,0,1,0-5.172c.856-3.524,5.827-4.8,9.52-4.172.567,0,.766.344,1.366.344,1.846,0,2.637.032,2.637,1.814,0,.632-1.023.887-2.214.887,0,3.069.033,5.315-.2,7.865-.112,1.366.2,9.319.2,5.227v10.366a2.319,2.319,0,0,1,1.815.567c-.624,1.247-1.192,1.247-2.446,1.247C171.236-3677.9,168.934-3677.445,167.743-3677.445Zm-1.126-26.071a3.681,3.681,0,0,0-1.5,2.725,11.194,11.194,0,0,0,0,2.757c.113.936,1.047,3.293,2.158,4,.679-.024,1.335-.024,1.846-.056l.224-1.279c.167-3.237.256-5.762.256-8.351-.216,0-.609-.013-1.048-.013A5.887,5.887,0,0,0,166.617-3703.516ZM59.408-3677.525c-.567-.113-.535-.4-.535-.936,0-.6.535-.6,1.135-1.135v-15.424c0-2.87.543-6.274,0-9.711-.6,0-1.735,0-1.735-.543.6-1.135,2.27-.6,3.405-.6H73.667c1.166,0,.567,1.734-.567,1.734v20.541h-.017c0,1.135,0,3.6.567,4.739,0,.543,1.167,0,1.167,1.135a12.388,12.388,0,0,1-4.846.159,23.214,23.214,0,0,0-2.594-.159s0-1.135.6-1.135h.543a130.664,130.664,0,0,0,.6-15.593v-5.707c0-1.7.535-2.837,0-3.98H63.98c-.032,5.315-.567,10.622-.567,15.961v5.706c0,.567-.032,1.535-.032,2.358,0,1.135,1.534.967,1.166,2.19-.145.466-1.256.633-2.486.633A15.139,15.139,0,0,1,59.408-3677.525Zm-105.273,0c-.567-.113-.536-.4-.536-.936,0-.6.536-.6,1.135-1.135v-15.424c0-2.87.543-6.274,0-9.711-.6,0-1.735,0-1.735-.543.6-1.135,2.271-.6,3.405-.6h11.988c1.166,0,.567,1.734-.567,1.734v20.541h-.016c0,1.135,0,3.6.567,4.739,0,.543,1.166,0,1.166,1.135a12.388,12.388,0,0,1-4.846.159,23.214,23.214,0,0,0-2.594-.159s0-1.135.6-1.135h.544a130.865,130.865,0,0,0,.6-15.593v-5.707c0-1.7.536-2.837,0-3.98h-5.139c-.032,5.315-.567,10.622-.567,15.961v5.706c0,.567-.032,1.535-.032,2.358,0,1.135,1.534.967,1.166,2.19-.145.466-1.256.633-2.486.633A15.127,15.127,0,0,1-45.865-3677.525Zm131.184.223a51.327,51.327,0,0,1-9.263-.6v-1.167h2.325c.6-3.468,0-6.306,0-9.83v-14.49H76.057v-1.167c2.325-.6,4.628-.6,6.962-1.167h5.794a1.962,1.962,0,0,1,.6,1.167c0,1.167,1.167,3.469-1.166,3.469-.592-.575,0-1.742-.592-2.285-.567-.312-.567-.312-1.167-.6a9.475,9.475,0,0,0-4.036.6c-.6.543-.511,1.422-.511,2.725,0,1.622-.088,2.47-.088,3.6,0,1.758.6,2.925,0,4.092.6.543,2.325.543,3.469.543,0-.543,0-1.7.6-1.7.567,0,.567,0,1.167.567-.6,1.135.567,4.659-.6,4.659,0,0-1.166-.6-1.166-1.167v-.6H82.45c-.6,1.759-.167,4.173-.167,5.884,0,1.758.167,4,.167,5.138a12.907,12.907,0,0,0,4.628.567c1.167-.567,0-2.3,1.167-2.87,1.166,0,1.166,1.7,1.166,2.87,0,.6-.6,1.166-1.166,1.758Zm-105.282,0a51.2,51.2,0,0,1-9.254-.6v-1.167h2.325c.6-3.468,0-6.306,0-9.83v-14.49h-2.325v-1.167c2.325-.6,4.628-.6,6.962-1.167h5.794a1.962,1.962,0,0,1,.6,1.167c0,1.167,1.167,3.469-1.166,3.469-.592-.575.007-1.742-.592-2.285-.567-.312-.567-.312-1.166-.6a9.471,9.471,0,0,0-4.036.6c-.6.543-.512,1.422-.512,2.725,0,1.622-.088,2.47-.088,3.6,0,1.758.6,2.925,0,4.092.6.543,2.325.543,3.46.543,0-.543,0-1.7.6-1.7.567,0,.567,0,1.166.567-.6,1.135.567,4.659-.6,4.659,0,0-1.167-.6-1.167-1.167v-.6h-2.869c-.6,1.759-.167,4.173-.167,5.884,0,1.758.167,4,.167,5.138a12.9,12.9,0,0,0,4.628.567c1.166-.567,0-2.3,1.166-2.87,1.167,0,1.167,1.7,1.167,2.87,0,.6-.6,1.166-1.167,1.758Zm146.522-.392a1.951,1.951,0,0,1-.623-1.191c.623-.6.623-.6,1.791-.6.623-.568.223-1.99.223-2.87-.032-3.892.144-6.729.144-9.743,0-1.167.143-2.669,0-4.571-.113-1.3.032-2.071,0-4.516,0-.855.167-1.646-.4-1.878-.735-.312-1.079.056-1.7-.512-1.166-.623-.223-1.19.4-1.758a47.038,47.038,0,0,1,8.5-.367c.6,0,.344-.144,1.223,0,2.325.367,4.148,3.58,4.739,6.562a11.63,11.63,0,0,1-.6,4.771c-.567,1.791-2.357,2.981-3.58,4.148a8.369,8.369,0,0,1-4.148.624.6.6,0,0,0-.6.6c-.032.512,0,1.791,0,2.358,0,2.39-.623,4.8,0,7.161,1.8-.008,2.965.592,1.8,1.782-1.987,0-3.446.267-4.905.267A9.049,9.049,0,0,1,126.559-3677.693Zm5.379-17.279v2.966a2.152,2.152,0,0,0,2.3.367,5.978,5.978,0,0,0,2.445-3.324,9.432,9.432,0,0,0,.424-3.469,12.105,12.105,0,0,0-.992-4.859c-.623,0-1.222-.623-2.39-.623h-1.79C131.314-3700.934,131.939-3697.921,131.939-3694.973ZM-13.3-3677.693a1.95,1.95,0,0,1-.624-1.191c.624-.6.624-.6,1.791-.6.623-.568.224-1.99.224-2.87-.033-3.892.143-6.729.143-9.743,0-1.167.144-2.669,0-4.571-.112-1.3.033-2.071,0-4.516,0-.855.168-1.646-.4-1.878-.736-.312-1.079.056-1.7-.512-1.167-.623-.224-1.19.4-1.758a47.052,47.052,0,0,1,8.5-.367c.6,0,.343-.144,1.222,0,2.326.367,4.149,3.58,4.748,6.562a11.646,11.646,0,0,1-.6,4.771c-.568,1.791-2.358,2.981-3.581,4.148a8.367,8.367,0,0,1-4.148.624.6.6,0,0,0-.6.6c-.033.512,0,1.791,0,2.358,0,2.39-.624,4.8,0,7.161,1.79-.008,2.957.592,1.79,1.782-1.987,0-3.445.267-4.9.267A9.048,9.048,0,0,1-13.3-3677.693Zm5.371-17.279v2.966a2.152,2.152,0,0,0,2.3.367,5.978,5.978,0,0,0,2.445-3.324,9.432,9.432,0,0,0,.424-3.469,12.105,12.105,0,0,0-.992-4.859c-.623,0-1.222-.623-2.381-.623h-1.8C-8.558-3700.934-7.934-3697.921-7.934-3694.973Z" transform="translate(47 3706)"/>
</svg>
