<svg width="12" height="12" viewBox="0 0 12 12" fill="none" xmlns="http://www.w3.org/2000/svg">
<path d="M11.1725 0.141979C11.3618 -0.0473262 11.6687 -0.0473262 11.858 0.141979C12.0473 0.331283 12.0473 0.638198 11.858 0.827479L6.68552 6L11.858 11.1725C12.0473 11.3618 12.0473 11.6687 11.858 11.858C11.7634 11.9527 11.6393 12 11.5153 12C11.3912 12 11.2672 11.9527 11.1725 11.858L6.00001 6.68551L0.827526 11.858C0.732862 11.9527 0.608807 12 0.484752 12C0.360697 12 0.236619 11.9527 0.141979 11.858C-0.0473262 11.6687 -0.0473262 11.3618 0.141979 11.1725L5.31449 5.99999L0.141979 0.827479C-0.0473262 0.638174 -0.0473262 0.33126 0.141979 0.141979C0.33126 -0.0473262 0.638197 -0.0473262 0.827479 0.141979L6 5.31449L11.1725 0.141979Z" fill="black"/>
</svg>
