<svg width="40" height="40" viewBox="0 0 40 40" fill="none" xmlns="http://www.w3.org/2000/svg">
<rect x="5.5" y="0.5" width="29" height="39" stroke="black"/>
<rect x="17" y="16" width="13" height="1" fill="black"/>
<rect x="11" y="20" width="19" height="1" fill="black"/>
<rect x="11" y="24" width="19" height="1" fill="black"/>
<rect x="11" y="28" width="19" height="1" fill="black"/>
<rect x="11" y="32" width="8" height="1" fill="black"/>
<path d="M14.0313 10.8181L13.0061 6.75923L11.9676 10.8181C11.887 11.1257 11.8229 11.3467 11.7752 11.4805C11.7279 11.6147 11.6447 11.7344 11.5266 11.8404C11.4082 11.9464 11.251 12 11.0551 12C10.8964 12 10.7659 11.9681 10.6636 11.9055C10.5614 11.8422 10.4783 11.753 10.4147 11.6375C10.3516 11.5222 10.2995 11.3853 10.2591 11.2265C10.2188 11.068 10.1829 10.9213 10.1509 10.7857L9.09525 6.22825C9.03209 5.9636 9 5.76169 9 5.6234C9 5.4479 9.05776 5.30019 9.17338 5.17987C9.28862 5.05996 9.43121 5 9.6017 5C9.83535 5 9.99255 5.08001 10.0732 5.24023C10.1538 5.40015 10.225 5.63264 10.2853 5.93759L11.1158 9.89015L12.046 6.19142C12.1156 5.90811 12.1774 5.69269 12.232 5.54528C12.287 5.39717 12.3762 5.26981 12.5007 5.16171C12.6245 5.0543 12.7934 5.0001 13.0067 5.0001C13.2233 5.0001 13.3913 5.05638 13.5109 5.16846C13.6306 5.28093 13.7135 5.40323 13.7595 5.53575C13.8055 5.66827 13.8678 5.88647 13.9455 6.19142L14.8843 9.89015L15.7152 5.93759C15.7555 5.73161 15.7936 5.5696 15.8295 5.45276C15.8657 5.33553 15.9279 5.2312 16.0155 5.13868C16.1034 5.04656 16.2314 5.0001 16.3984 5.0001C16.5657 5.0001 16.7079 5.05936 16.8248 5.17769C16.9416 5.29602 17 5.44472 17 5.62331C17 5.74938 16.9683 5.95129 16.9048 6.22815L15.8491 10.7855C15.7771 11.0931 15.7173 11.3188 15.6697 11.4618C15.6224 11.6051 15.5415 11.7305 15.4275 11.8379C15.3136 11.9456 15.1528 11.9999 14.945 11.9999C14.7488 11.9999 14.5916 11.9477 14.4735 11.8427C14.3551 11.7379 14.2728 11.6204 14.2268 11.4896C14.1808 11.3587 14.1151 11.135 14.0313 10.8181Z" fill="black"/>
</svg>
