<svg width="23" height="14" viewBox="0 0 23 14" fill="none" xmlns="http://www.w3.org/2000/svg">
<path opacity="0.7" d="M22.7434 6.16161C21.5453 4.30626 19.9344 2.81549 17.9109 1.68934C15.8873 0.563157 13.7504 0 11.5 0C9.24961 0 7.11265 0.562944 5.08901 1.68934C3.06533 2.81549 1.45451 4.30626 0.256602 6.16161C0.0855488 6.44514 0 6.72468 0 7.00021C0 7.27575 0.0855488 7.55528 0.256602 7.83873C1.45451 9.69417 3.06533 11.1851 5.08901 12.311C7.11265 13.4373 9.24961 14 11.5 14C13.7504 14 15.8873 13.4391 17.9109 12.3171C19.9344 11.195 21.5456 9.70213 22.7434 7.83873C22.9145 7.55528 23 7.27587 23 7.00021C23 6.72468 22.9145 6.44514 22.7434 6.16161ZM8.74675 2.83771C9.51251 2.11263 10.4302 1.74996 11.4999 1.74996C11.6709 1.74996 11.8165 1.80683 11.9363 1.92018C12.056 2.03358 12.1161 2.17137 12.1161 2.33338C12.1161 2.49551 12.056 2.63322 11.9366 2.74644C11.8169 2.85997 11.6713 2.91667 11.5002 2.91667C10.7644 2.91667 10.1353 3.16389 9.61339 3.65801C9.09133 4.15242 8.83045 4.74784 8.83045 5.44457C8.83045 5.60679 8.7704 5.74441 8.65068 5.85789C8.53079 5.97146 8.3854 6.02812 8.2143 6.02812C8.04307 6.02812 7.89764 5.97133 7.7778 5.85789C7.6579 5.74441 7.59802 5.60662 7.59802 5.44457C7.59802 4.43191 7.98103 3.56283 8.74675 2.83771ZM17.0768 10.9684C15.3612 11.9525 13.5023 12.4449 11.5 12.4449C9.49776 12.4449 7.63888 11.9528 5.92332 10.9684C4.20776 9.98392 2.78094 8.66125 1.64296 7.00021C2.94354 5.08808 4.57356 3.65796 6.533 2.71022C6.01108 3.5527 5.75002 4.46426 5.75002 5.44453C5.75002 6.94356 6.31272 8.22537 7.4378 9.29094C8.56288 10.3565 9.9171 10.8891 11.5 10.8891C13.083 10.8891 14.4368 10.3562 15.5622 9.29094C16.6875 8.22566 17.25 6.94356 17.25 5.44453C17.25 4.46426 16.9889 3.55257 16.467 2.71022C18.4263 3.65796 20.0564 5.0882 21.357 7.00021C20.2191 8.66125 18.7925 9.98392 17.0768 10.9684Z" fill="black"/>
</svg>
