<svg width="16" height="16" viewBox="0 0 16 16" fill="none" xmlns="http://www.w3.org/2000/svg">
<path d="M11.5 8H9.5C9.22384 8 9 8.22384 9 8.5V12.5C9 12.7762 9.22384 13 9.5 13H11.5C12.0523 13 12.5 12.5523 12.5 12V9C12.5 8.44772 12.0523 8 11.5 8ZM11.5 12H10V9H11.5V12Z" fill="black"/>
<path d="M16 9V8H13.5C13.2238 8 13 8.22384 13 8.5V13H14V11H16V10H14V9H16Z" fill="black"/>
<path d="M1 14.5V1.50001C1 1.22385 1.22384 1.00001 1.5 1.00001H9V3.00001C9 3.55229 9.44772 4.00001 10 4.00001H12V5.50001H13V3.50001C13.0008 3.3671 12.9486 3.23935 12.855 3.14501L9.855 0.145008C9.76066 0.0514142 9.63291 -0.000742022 9.5 7.9781e-06H1.5C0.671563 7.9781e-06 0 0.671602 0 1.50001V14.5C0 15.3284 0.671563 16 1.5 16H5V15H1.5C1.22388 15 1 14.7762 1 14.5Z" fill="black"/>
<path d="M7.5 8H5.5C5.22384 8 5 8.22384 5 8.5V13H6V11.5H7.5C8.05228 11.5 8.5 11.0523 8.5 10.5V9C8.5 8.44772 8.05228 8 7.5 8ZM7.5 10.5H6V9H7.5V10.5Z" fill="black"/>
</svg>
