<svg width="16" height="16" viewBox="0 0 16 16"  xmlns="http://www.w3.org/2000/svg">
<path d="M8 0C3.58892 0 0 3.58868 0 8C0 12.4113 3.58892 16 8 16C12.4111 16 16 12.4113 16 8C16 3.58868 12.4111 0 8 0ZM8 15.0154C4.13169 15.0154 0.984615 11.8683 0.984615 8C0.984615 4.13169 4.13169 0.984615 8 0.984615C11.8683 0.984615 15.0154 4.13169 15.0154 8C15.0154 11.8683 11.8683 15.0154 8 15.0154Z" fill="black"/>
<path d="M8.12612 5.63505C8.58086 5.63505 8.9495 5.26641 8.9495 4.81167C8.9495 4.35692 8.58086 3.98828 8.12612 3.98828C7.67138 3.98828 7.30273 4.35692 7.30273 4.81167C7.30273 5.26641 7.67138 5.63505 8.12612 5.63505Z" fill="black"/>
<path d="M7.91028 6.97656C7.63852 6.97656 7.41797 7.19712 7.41797 7.46887V11.6535C7.41797 11.9252 7.63852 12.1458 7.91028 12.1458C8.18203 12.1458 8.40258 11.9252 8.40258 11.6535V7.46887C8.40258 7.19687 8.18203 6.97656 7.91028 6.97656Z" fill="black"/>
</svg>
