<svg width="16" height="21" viewBox="0 0 16 21" xmlns="http://www.w3.org/2000/svg">
<path d="M8.0876 18.6316L12.9688 10.6971L8.0876 18.6316ZM8.0876 18.6316L3.07868 10.7732C2.51458 9.8863 2.20889 8.86334 2.20889 7.8149C2.20889 4.71232 4.80984 2.17825 8 2.17825C11.1901 2.17825 13.7872 4.71228 13.7872 7.8149C13.7872 8.83233 13.5017 9.82912 12.9689 10.6971L8.0876 18.6316ZM2.00272 11.4253L2.00274 11.4254L7.55938 20.143C7.67522 20.3248 7.87883 20.4346 8.09718 20.4346H8.0972H8.09722H8.09724H8.09726H8.09727H8.09729H8.09731H8.09733H8.09735H8.09737H8.09738H8.0974H8.09742H8.09744H8.09746H8.09747H8.09749H8.09751H8.09753H8.09755H8.09757H8.09758H8.0976H8.09762H8.09764H8.09766H8.09767H8.09769H8.09771H8.09773H8.09775H8.09776H8.09778H8.0978H8.09782H8.09784H8.09786H8.09787H8.09789H8.09791H8.09793H8.09795H8.09796H8.09798H8.098H8.09802H8.09804H8.09805H8.09807H8.09809H8.09811H8.09813H8.09815H8.09816H8.09818H8.0982H8.09822H8.09824H8.09825H8.09827H8.09829H8.09831H8.09833H8.09834H8.09836H8.09838H8.0984H8.09842H8.09843H8.09845H8.09847H8.09849H8.09851H8.09852H8.09854H8.09856H8.09858H8.0986H8.09861H8.09863H8.09865H8.09867H8.09869H8.0987H8.09872H8.09874H8.09876H8.09878H8.09879H8.09881H8.09883H8.09885H8.09887H8.09889H8.0989H8.09892H8.09894H8.09896H8.09898H8.09899H8.09901H8.09903H8.09905H8.09907H8.09908H8.0991H8.09912H8.09914H8.09916H8.09917H8.09919H8.09921H8.09923H8.09925H8.09926H8.09928H8.0993H8.09932H8.09934H8.09935H8.09937H8.09939H8.09941H8.09943H8.09944H8.09946H8.09948H8.0995H8.09952H8.09953H8.09955H8.09957H8.09959H8.09961H8.09962H8.09964H8.09966H8.09968H8.0997H8.09971H8.09973H8.09975H8.09977H8.09979H8.0998H8.09982H8.09984H8.09986H8.09988H8.09989H8.09991H8.09993H8.09995H8.09997H8.09998H8.1H8.10002H8.10004H8.10006H8.10007H8.10009H8.10011H8.10013H8.10015H8.10016H8.10018H8.1002H8.10022H8.10024H8.10025H8.10027H8.10029H8.10031H8.10033H8.10034H8.10036H8.10038H8.1004H8.10042H8.10043H8.10045H8.10047H8.10049H8.10051H8.10052H8.10054H8.10056H8.10058H8.1006H8.10062H8.10063H8.10065H8.10067H8.10069H8.10071H8.10072H8.10074H8.10076H8.10078H8.1008H8.10081H8.10083H8.10085H8.10087H8.10089H8.1009H8.10092H8.10094H8.10096H8.10098H8.10099H8.10101H8.10103H8.10105H8.10107H8.10109H8.1011H8.10112H8.10114H8.10116H8.10118H8.10119H8.10121H8.10123H8.10125H8.10127H8.10128H8.1013H8.10132H8.10134H8.10136H8.10138H8.10139H8.10141H8.10143H8.10145H8.10147H8.10148H8.1015H8.10152H8.10154H8.10156H8.10158H8.10159H8.10161H8.10163H8.10165H8.10167H8.10168H8.1017H8.10172H8.10174H8.10176H8.10178H8.10179L8.10181 20.4346L8.10219 20.4346C8.32243 20.4329 8.5265 20.3197 8.64024 20.1347L14.0552 11.3326L14.0553 11.3326C14.706 10.2725 15.05 9.05611 15.05 7.8149C15.05 4.0283 11.8861 0.95 8 0.95C4.11386 0.95 0.95 4.0283 0.95 7.8149C0.95 9.09406 1.31397 10.3424 2.00272 11.4253Z" fill="black" stroke="black" stroke-width="0.1"/>
<path d="M7.99219 4.36016C6.03594 4.36016 4.44219 5.90987 4.44219 7.81761C4.44219 9.713 6.01004 11.2751 7.99219 11.2751C9.99887 11.2751 11.5422 9.69206 11.5422 7.81761C11.5422 5.90987 9.94843 4.36016 7.99219 4.36016ZM7.99219 10.0468C6.72525 10.0468 5.70108 9.04451 5.70108 7.81761C5.70108 6.5939 6.73193 5.5884 7.99219 5.5884C9.25234 5.5884 10.2794 6.59379 10.2794 7.81761C10.2794 9.02683 9.27896 10.0468 7.99219 10.0468Z" fill="black" stroke="black" stroke-width="0.1"/>
</svg>
