<svg width="16" height="16" viewBox="0 0 16 16" fill="none" xmlns="http://www.w3.org/2000/svg">
<g clip-path="url(#clip0)">
<path d="M15.862 15.184L11.9738 11.2958C13.0168 10.0967 13.6483 8.53215 13.6483 6.82217C13.6483 3.05809 10.5866 0 6.82608 0C3.062 0 0.00390625 3.06164 0.00390625 6.82217C0.00390625 10.5827 3.06555 13.6443 6.82608 13.6443C8.53606 13.6443 10.1006 13.0129 11.2997 11.9698L15.1879 15.8581C15.2802 15.9503 15.4043 16 15.525 16C15.6456 16 15.7698 15.9539 15.862 15.8581C16.0465 15.6736 16.0465 15.3685 15.862 15.184ZM0.95823 6.82217C0.95823 3.5867 3.5906 0.957871 6.82253 0.957871C10.058 0.957871 12.6868 3.59024 12.6868 6.82217C12.6868 10.0541 10.058 12.69 6.82253 12.69C3.5906 12.69 0.95823 10.0576 0.95823 6.82217Z" fill="black"/>
</g>
<defs>
<clipPath id="clip0">
<rect width="16" height="16" fill="white"/>
</clipPath>
</defs>
</svg>
