<svg width="48" height="48" viewBox="0 0 48 48" fill="none" xmlns="http://www.w3.org/2000/svg">
<path d="M0 0H48V48L0 0Z" fill="black"/>
<g clip-path="url(#clip0)">
<path d="M33.4273 13.9598L28.1158 19.2713C27.9683 19.4188 27.9683 19.6579 28.1158 19.8055C28.1895 19.8793 28.2863 19.9161 28.3828 19.9161C28.4796 19.9161 28.5761 19.8793 28.6498 19.8055L34.0013 14.454L39.3527 19.8055C39.4266 19.8793 39.5231 19.9161 39.6197 19.9161C39.7163 19.9161 39.813 19.8793 39.8867 19.8055C40.0343 19.6579 40.0343 19.4188 39.8867 19.2713L34.5754 13.9598L39.8903 8.64454C40.0378 8.49697 40.0378 8.25791 39.8903 8.11035C39.7427 7.96297 39.5036 7.96297 39.3563 8.11035L34.0015 13.4655L28.6461 8.11054C28.4985 7.96316 28.2596 7.96316 28.1121 8.11054C27.9645 8.2581 27.9645 8.49716 28.1121 8.64472L33.4273 13.9598Z" fill="white"/>
</g>
<defs>
<clipPath id="clip0">
<rect x="28" y="8" width="12" height="12" fill="white"/>
</clipPath>
</defs>
</svg>
