<svg width="20" height="16" viewBox="0 0 20 16" fill="none" xmlns="http://www.w3.org/2000/svg">
<mask id="path-1-inside-1" fill="white">
<path fill-rule="evenodd" clip-rule="evenodd" d="M16.7324 1H19C19.5523 1 20 1.44772 20 2C20 2.55228 19.5523 3 19 3H16.7324C16.3866 3.5978 15.7403 4 15 4C14.2597 4 13.6134 3.5978 13.2676 3H1C0.447715 3 0 2.55228 0 2C0 1.44772 0.447715 1 1 1H13.2676C13.6134 0.402199 14.2597 0 15 0C15.7403 0 16.3866 0.402199 16.7324 1Z"/>
</mask>
<path fill-rule="evenodd" clip-rule="evenodd" d="M16.7324 1H19C19.5523 1 20 1.44772 20 2C20 2.55228 19.5523 3 19 3H16.7324C16.3866 3.5978 15.7403 4 15 4C14.2597 4 13.6134 3.5978 13.2676 3H1C0.447715 3 0 2.55228 0 2C0 1.44772 0.447715 1 1 1H13.2676C13.6134 0.402199 14.2597 0 15 0C15.7403 0 16.3866 0.402199 16.7324 1Z" fill="black"/>
<path d="M16.7324 1L16.4728 1.15022L16.5594 1.3H16.7324V1ZM16.7324 3V2.7H16.5594L16.4728 2.84978L16.7324 3ZM13.2676 3L13.5272 2.84978L13.4406 2.7H13.2676V3ZM13.2676 1V1.3H13.4406L13.5272 1.15022L13.2676 1ZM16.7324 1.3H19V0.7H16.7324V1.3ZM19 1.3C19.3866 1.3 19.7 1.6134 19.7 2H20.3C20.3 1.28203 19.718 0.7 19 0.7V1.3ZM19.7 2C19.7 2.3866 19.3866 2.7 19 2.7V3.3C19.718 3.3 20.3 2.71797 20.3 2H19.7ZM19 2.7H16.7324V3.3H19V2.7ZM16.4728 2.84978C16.1784 3.3587 15.6289 3.7 15 3.7V4.3C15.8517 4.3 16.5949 3.83691 16.9921 3.15022L16.4728 2.84978ZM15 3.7C14.3711 3.7 13.8216 3.3587 13.5272 2.84978L13.0079 3.15022C13.4051 3.83691 14.1483 4.3 15 4.3V3.7ZM13.2676 2.7H1V3.3H13.2676V2.7ZM1 2.7C0.613401 2.7 0.3 2.3866 0.3 2H-0.3C-0.3 2.71797 0.28203 3.3 1 3.3V2.7ZM0.3 2C0.3 1.6134 0.613401 1.3 1 1.3V0.7C0.28203 0.7 -0.3 1.28203 -0.3 2H0.3ZM1 1.3H13.2676V0.7H1V1.3ZM13.5272 1.15022C13.8216 0.641304 14.3711 0.3 15 0.3V-0.3C14.1483 -0.3 13.4051 0.163093 13.0079 0.849782L13.5272 1.15022ZM15 0.3C15.6289 0.3 16.1784 0.641304 16.4728 1.15022L16.9921 0.849782C16.5949 0.163094 15.8517 -0.3 15 -0.3V0.3Z" fill="white" mask="url(#path-1-inside-1)"/>
<mask id="path-3-inside-2" fill="white">
<path fill-rule="evenodd" clip-rule="evenodd" d="M11.7324 7H19C19.5523 7 20 7.44772 20 8C20 8.55228 19.5523 9 19 9H11.7324C11.3866 9.5978 10.7403 10 10 10C9.25972 10 8.61337 9.5978 8.26756 9H1C0.447715 9 0 8.55228 0 8C0 7.44772 0.447715 7 1 7H8.26756C8.61337 6.4022 9.25972 6 10 6C10.7403 6 11.3866 6.4022 11.7324 7Z"/>
</mask>
<path fill-rule="evenodd" clip-rule="evenodd" d="M11.7324 7H19C19.5523 7 20 7.44772 20 8C20 8.55228 19.5523 9 19 9H11.7324C11.3866 9.5978 10.7403 10 10 10C9.25972 10 8.61337 9.5978 8.26756 9H1C0.447715 9 0 8.55228 0 8C0 7.44772 0.447715 7 1 7H8.26756C8.61337 6.4022 9.25972 6 10 6C10.7403 6 11.3866 6.4022 11.7324 7Z" fill="black"/>
<path d="M11.7324 7L11.4728 7.15022L11.5594 7.3H11.7324V7ZM11.7324 9V8.7H11.5594L11.4728 8.84978L11.7324 9ZM8.26756 9L8.52725 8.84978L8.4406 8.7H8.26756V9ZM8.26756 7V7.3H8.4406L8.52725 7.15022L8.26756 7ZM11.7324 7.3H19V6.7H11.7324V7.3ZM19 7.3C19.3866 7.3 19.7 7.6134 19.7 8H20.3C20.3 7.28203 19.718 6.7 19 6.7V7.3ZM19.7 8C19.7 8.3866 19.3866 8.7 19 8.7V9.3C19.718 9.3 20.3 8.71797 20.3 8H19.7ZM19 8.7H11.7324V9.3H19V8.7ZM11.4728 8.84978C11.1784 9.3587 10.6289 9.7 10 9.7V10.3C10.8517 10.3 11.5949 9.83691 11.9921 9.15022L11.4728 8.84978ZM10 9.7C9.37114 9.7 8.82164 9.3587 8.52725 8.84978L8.00788 9.15022C8.40511 9.83691 9.1483 10.3 10 10.3V9.7ZM8.26756 8.7H1V9.3H8.26756V8.7ZM1 8.7C0.613401 8.7 0.3 8.3866 0.3 8H-0.3C-0.3 8.71797 0.28203 9.3 1 9.3V8.7ZM0.3 8C0.3 7.6134 0.613401 7.3 1 7.3V6.7C0.28203 6.7 -0.3 7.28203 -0.3 8H0.3ZM1 7.3H8.26756V6.7H1V7.3ZM8.52725 7.15022C8.82164 6.6413 9.37114 6.3 10 6.3V5.7C9.1483 5.7 8.40511 6.16309 8.00788 6.84978L8.52725 7.15022ZM10 6.3C10.6289 6.3 11.1784 6.6413 11.4728 7.15022L11.9921 6.84978C11.5949 6.16309 10.8517 5.7 10 5.7V6.3Z" fill="white" mask="url(#path-3-inside-2)"/>
<mask id="path-5-inside-3" fill="white">
<path fill-rule="evenodd" clip-rule="evenodd" d="M16.7324 13H19C19.5523 13 20 13.4477 20 14C20 14.5523 19.5523 15 19 15H16.7324C16.3866 15.5978 15.7403 16 15 16C14.2597 16 13.6134 15.5978 13.2676 15H1C0.447715 15 0 14.5523 0 14C0 13.4477 0.447715 13 1 13H13.2676C13.6134 12.4022 14.2597 12 15 12C15.7403 12 16.3866 12.4022 16.7324 13Z"/>
</mask>
<path fill-rule="evenodd" clip-rule="evenodd" d="M16.7324 13H19C19.5523 13 20 13.4477 20 14C20 14.5523 19.5523 15 19 15H16.7324C16.3866 15.5978 15.7403 16 15 16C14.2597 16 13.6134 15.5978 13.2676 15H1C0.447715 15 0 14.5523 0 14C0 13.4477 0.447715 13 1 13H13.2676C13.6134 12.4022 14.2597 12 15 12C15.7403 12 16.3866 12.4022 16.7324 13Z" fill="black"/>
<path d="M16.7324 13L16.4728 13.1502L16.5594 13.3H16.7324V13ZM16.7324 15V14.7H16.5594L16.4728 14.8498L16.7324 15ZM13.2676 15L13.5272 14.8498L13.4406 14.7H13.2676V15ZM13.2676 13V13.3H13.4406L13.5272 13.1502L13.2676 13ZM16.7324 13.3H19V12.7H16.7324V13.3ZM19 13.3C19.3866 13.3 19.7 13.6134 19.7 14H20.3C20.3 13.282 19.718 12.7 19 12.7V13.3ZM19.7 14C19.7 14.3866 19.3866 14.7 19 14.7V15.3C19.718 15.3 20.3 14.718 20.3 14H19.7ZM19 14.7H16.7324V15.3H19V14.7ZM16.4728 14.8498C16.1784 15.3587 15.6289 15.7 15 15.7V16.3C15.8517 16.3 16.5949 15.8369 16.9921 15.1502L16.4728 14.8498ZM15 15.7C14.3711 15.7 13.8216 15.3587 13.5272 14.8498L13.0079 15.1502C13.4051 15.8369 14.1483 16.3 15 16.3V15.7ZM13.2676 14.7H1V15.3H13.2676V14.7ZM1 14.7C0.613401 14.7 0.3 14.3866 0.3 14H-0.3C-0.3 14.718 0.28203 15.3 1 15.3V14.7ZM0.3 14C0.3 13.6134 0.613401 13.3 1 13.3V12.7C0.28203 12.7 -0.3 13.282 -0.3 14H0.3ZM1 13.3H13.2676V12.7H1V13.3ZM13.5272 13.1502C13.8216 12.6413 14.3711 12.3 15 12.3V11.7C14.1483 11.7 13.4051 12.1631 13.0079 12.8498L13.5272 13.1502ZM15 12.3C15.6289 12.3 16.1784 12.6413 16.4728 13.1502L16.9921 12.8498C16.5949 12.1631 15.8517 11.7 15 11.7V12.3Z" fill="white" mask="url(#path-5-inside-3)"/>
</svg>
