<svg width="18" height="18" viewBox="0 0 18 18" xmlns="http://www.w3.org/2000/svg">
<path d="M10.1812 12.3518C10.1572 12.3396 10.133 12.3273 10.1086 12.315C9.98768 12.2538 9.86217 12.1904 9.74355 12.1131M10.1812 12.3518L6.54753 9.20224C7.54214 10.4289 8.5898 11.3804 9.74355 12.1131M10.1812 12.3518C10.3138 12.4182 10.4365 12.4811 10.5459 12.5508L10.1812 12.3518ZM9.74355 12.1131L9.6617 12.2388C9.66194 12.239 9.66218 12.2391 9.66242 12.2393M9.74355 12.1131L9.66314 12.2398C9.6629 12.2396 9.66266 12.2395 9.66242 12.2393M9.66242 12.2393C9.78836 12.3212 9.92225 12.3889 10.043 12.4499C10.0668 12.462 10.0902 12.4738 10.1129 12.4854L10.1141 12.486C10.2469 12.5524 10.3632 12.6123 10.4653 12.6773L10.4719 12.6815L10.4788 12.6849C10.4812 12.6861 10.4836 12.6875 10.4897 12.6909L10.4904 12.6914C10.4958 12.6945 10.5044 12.6993 10.5144 12.7044M9.66242 12.2393L10.5144 12.7044M10.5144 12.7044C10.6424 12.7702 10.7717 12.8035 10.9039 12.8035C11.2343 12.8035 11.4448 12.5933 11.504 12.5342L12.7439 11.2942C12.9181 11.12 13.0911 11.0431 13.2446 11.0431C13.4345 11.0431 13.6029 11.1625 13.7215 11.2902L13.7214 11.2903L13.7254 11.2943L15.7245 13.2901L10.5144 12.7044ZM4.11479 11.7317L4.11503 11.732C5.70657 13.6345 7.62311 15.133 9.81074 16.1934L9.81193 16.194C10.641 16.5869 11.7664 17.0616 13.026 17.1431L13.026 17.1431L13.0292 17.1432L13.0393 17.1437C13.1115 17.1468 13.1846 17.15 13.2612 17.15C14.126 17.15 14.829 16.8492 15.3985 16.2318C15.4013 16.229 15.4059 16.2242 15.4107 16.2186C15.4142 16.2146 15.4195 16.2081 15.4253 16.1995C15.5974 15.9929 15.7916 15.8046 16.0021 15.6004C16.0171 15.5858 16.0323 15.5711 16.0475 15.5563C16.2039 15.4066 16.3645 15.2493 16.519 15.0881C16.8944 14.6969 17.0905 14.2432 17.0896 13.7834C17.0887 13.3232 16.8904 12.8746 16.5102 12.4944L14.5187 10.5029C14.1569 10.1274 13.7153 9.92087 13.2446 9.92087C12.7736 9.92087 12.3293 10.1275 11.9582 10.4986L10.8513 11.6055C10.7713 11.5625 10.6919 11.5228 10.618 11.4858L10.6163 11.485C10.4835 11.4186 10.3672 11.3587 10.265 11.2937L10.2649 11.2936C9.20002 10.6174 8.2306 9.73405 7.30106 8.59445C6.86297 8.03985 6.56357 7.57343 6.3506 7.10832C6.63584 6.84564 6.90425 6.57386 7.16208 6.30997L7.16257 6.30945C7.26103 6.20771 7.36293 6.10581 7.46586 6.00287C7.84564 5.6231 8.06015 5.17234 8.06015 4.70327C8.06015 4.23486 7.84951 3.78392 7.46566 3.40347C7.46557 3.40338 7.46547 3.40328 7.46537 3.40319L6.47788 2.41569C6.36575 2.30356 6.25978 2.19447 6.15006 2.08152L6.14128 2.07249C6.14127 2.07247 6.14125 2.07246 6.14124 2.07244C5.92269 1.84727 5.69215 1.61333 5.46411 1.40196C5.09882 1.04442 4.66178 0.85 4.19361 0.85C3.72786 0.85 3.28768 1.04513 2.90984 1.40531L2.90981 1.40528L2.90727 1.40782L1.66732 2.64777C1.19157 3.12352 0.920724 3.70361 0.864692 4.37248L0.864641 4.37311C0.799417 5.19357 0.951411 6.0581 1.33431 7.08931C1.9215 8.68303 2.80646 10.1597 4.11479 11.7317ZM5.25051 2.76489C5.2799 2.79477 5.30957 2.82494 5.33962 2.85543L15.7246 13.2902C15.9046 13.4701 15.9777 13.6409 15.9765 13.7991C15.9752 13.9585 15.8981 14.1367 15.7125 14.33L15.711 14.3316C15.5747 14.4776 15.4313 14.6178 15.276 14.7665L15.2752 14.7673C15.2621 14.7799 15.249 14.7927 15.2358 14.8055C15.0174 15.0174 14.7856 15.2425 14.5742 15.4951C14.2234 15.872 13.8105 16.0477 13.2645 16.0477C13.2133 16.0477 13.1579 16.0447 13.1013 16.0413C12.0443 15.9736 11.055 15.5602 10.2991 15.2005C8.25672 14.212 6.46362 12.8099 4.97532 11.0292C3.74726 9.55093 2.92483 8.17963 2.38151 6.71332L2.38133 6.71282C2.0447 5.81406 1.92202 5.10443 1.97259 4.46732C2.00938 4.0613 2.16337 3.72642 2.45633 3.43346L3.68869 2.2011C3.86044 2.03562 4.03675 1.96227 4.19361 1.96227C4.34544 1.96227 4.51458 2.03407 4.6834 2.20584L4.68328 2.20596L4.6885 2.2108C4.8783 2.38643 5.05821 2.56937 5.25051 2.76489Z" fill="black" stroke="black" stroke-width="0.3"/>
</svg>
