<svg width="156" height="160" viewBox="0 0 156 160" fill="none" xmlns="http://www.w3.org/2000/svg">
<g opacity="0.05" clip-path="url(#clip0)">
<path d="M78.0002 0C35.034 0 0.078125 35.888 0.078125 80C0.078125 124.112 35.034 160 78.0002 160C120.966 160 155.922 124.112 155.922 80C155.922 35.888 120.966 0 78.0002 0ZM78.0002 154.667C37.8989 154.667 5.27293 121.171 5.27293 80C5.27293 38.8293 37.8989 5.33333 78.0002 5.33333C118.102 5.33333 150.727 38.8293 150.727 80C150.727 121.171 118.102 154.667 78.0002 154.667Z" fill="#1F1C1C"/>
<path d="M80.5978 69.3892V42.3439C80.5978 40.8692 79.4341 39.6772 78.0004 39.6772C76.5666 39.6772 75.403 40.8692 75.403 42.3439V69.3892C71.7692 70.3599 68.9251 73.2799 67.9796 77.0106H49.4289C47.9952 77.0106 46.8315 78.2026 46.8315 79.6772C46.8315 81.1519 47.9952 82.3439 49.4289 82.3439H67.9796C69.1406 86.9306 73.1744 90.3439 78.0004 90.3439C83.7303 90.3439 88.39 85.5599 88.39 79.6772C88.39 74.7199 85.0653 70.5813 80.5978 69.3892ZM78.0004 85.0106C75.1354 85.0106 72.8056 82.6186 72.8056 79.6772C72.8056 76.7359 75.1354 74.3439 78.0004 74.3439C80.8653 74.3439 83.1952 76.7359 83.1952 79.6772C83.1952 82.6186 80.8653 85.0106 78.0004 85.0106Z" fill="#1F1C1C"/>
<path d="M78.0002 26.3437C79.434 26.3437 80.5976 25.1517 80.5976 23.6771V21.0104C80.5976 19.5358 79.434 18.3438 78.0002 18.3438C76.5665 18.3438 75.4028 19.5358 75.4028 21.0104V23.6771C75.4028 25.1517 76.5665 26.3437 78.0002 26.3437Z" fill="#1F1C1C"/>
<path d="M78.0002 133.011C76.5665 133.011 75.4028 134.203 75.4028 135.677V138.344C75.4028 139.819 76.5665 141.011 78.0002 141.011C79.434 141.011 80.5976 139.819 80.5976 138.344V135.677C80.5976 134.203 79.434 133.011 78.0002 133.011Z" fill="#1F1C1C"/>
<path d="M135.143 77.0103H132.546C131.112 77.0103 129.948 78.2023 129.948 79.6769C129.948 81.1516 131.112 82.3436 132.546 82.3436H135.143C136.577 82.3436 137.74 81.1516 137.74 79.6769C137.74 78.2023 136.577 77.0103 135.143 77.0103Z" fill="#1F1C1C"/>
<path d="M23.4546 77.0103H20.8572C19.4234 77.0103 18.2598 78.2023 18.2598 79.6769C18.2598 81.1516 19.4234 82.3436 20.8572 82.3436H23.4546C24.8883 82.3436 26.052 81.1516 26.052 79.6769C26.052 78.2023 24.8883 77.0103 23.4546 77.0103Z" fill="#1F1C1C"/>
<path d="M116.569 36.3069L114.733 38.1922C113.717 39.2349 113.717 40.9202 114.733 41.9629C115.239 42.4829 115.904 42.7442 116.569 42.7442C117.234 42.7442 117.899 42.4829 118.406 41.9629L120.242 40.0775C121.258 39.0349 121.258 37.3495 120.242 36.3069C119.226 35.2642 117.585 35.2669 116.569 36.3069Z" fill="#1F1C1C"/>
<path d="M37.5951 117.389L35.7588 119.275C34.7432 120.317 34.7432 122.003 35.7588 123.045C36.2653 123.565 36.9302 123.827 37.5951 123.827C38.2601 123.827 38.925 123.565 39.4315 123.045L41.2678 121.16C42.2834 120.117 42.2834 118.432 41.2678 117.389C40.2523 116.347 38.6081 116.349 37.5951 117.389Z" fill="#1F1C1C"/>
<path d="M118.406 117.389C117.39 116.346 115.748 116.346 114.733 117.389C113.717 118.432 113.717 120.117 114.733 121.16L116.569 123.045C117.076 123.565 117.741 123.826 118.406 123.826C119.071 123.826 119.736 123.565 120.242 123.045C121.258 122.002 121.258 120.317 120.242 119.274L118.406 117.389Z" fill="#1F1C1C"/>
<path d="M39.4315 36.3069C38.4159 35.2642 36.7743 35.2642 35.7588 36.3069C34.7432 37.3496 34.7432 39.0349 35.7588 40.0776L37.5951 41.9629C38.1016 42.4829 38.7666 42.7442 39.4315 42.7442C40.0964 42.7442 40.7614 42.4829 41.2678 41.9629C42.2834 40.9202 42.2834 39.2349 41.2678 38.1922L39.4315 36.3069Z" fill="#1F1C1C"/>
</g>
<defs>
<clipPath id="clip0">
<rect width="155.844" height="160" fill="white" transform="translate(0.078125)"/>
</clipPath>
</defs>
</svg>
