<svg width="40" height="40" viewBox="0 0 40 40" fill="none" xmlns="http://www.w3.org/2000/svg">
<g opacity="1">
<path d="M20 0C8.972 0 0 8.972 0 20C0 31.028 8.972 40 20 40C31.028 40 40 31.028 40 20C40 8.972 31.028 0 20 0ZM20 38.6667C9.70733 38.6667 1.33333 30.2927 1.33333 20C1.33333 9.70733 9.70733 1.33333 20 1.33333C30.2927 1.33333 38.6667 9.70733 38.6667 20C38.6667 30.2927 30.2927 38.6667 20 38.6667Z" fill="white"/>
<path d="M20.6667 17.3473V10.586C20.6667 10.2173 20.368 9.91933 20 9.91933C19.632 9.91933 19.3333 10.2173 19.3333 10.586V17.3473C18.4007 17.59 17.6707 18.32 17.428 19.2527H12.6667C12.2987 19.2527 12 19.5507 12 19.9193C12 20.288 12.2987 20.586 12.6667 20.586H17.428C17.726 21.7327 18.7613 22.586 20 22.586C21.4707 22.586 22.6667 21.39 22.6667 19.9193C22.6667 18.68 21.8133 17.6453 20.6667 17.3473ZM20 21.2527C19.2647 21.2527 18.6667 20.6547 18.6667 19.9193C18.6667 19.184 19.2647 18.586 20 18.586C20.7353 18.586 21.3333 19.184 21.3333 19.9193C21.3333 20.6547 20.7353 21.2527 20 21.2527Z" fill="white"/>
<path d="M20.0002 6.586C20.3682 6.586 20.6668 6.288 20.6668 5.91933V5.25267C20.6668 4.884 20.3682 4.586 20.0002 4.586C19.6322 4.586 19.3335 4.884 19.3335 5.25267V5.91933C19.3335 6.288 19.6322 6.586 20.0002 6.586Z" fill="white"/>
<path d="M20.0002 33.2527C19.6322 33.2527 19.3335 33.5507 19.3335 33.9193V34.586C19.3335 34.9547 19.6322 35.2527 20.0002 35.2527C20.3682 35.2527 20.6668 34.9547 20.6668 34.586V33.9193C20.6668 33.5507 20.3682 33.2527 20.0002 33.2527Z" fill="white"/>
<path d="M34.6668 19.2527H34.0002C33.6322 19.2527 33.3335 19.5507 33.3335 19.9193C33.3335 20.288 33.6322 20.586 34.0002 20.586H34.6668C35.0348 20.586 35.3335 20.288 35.3335 19.9193C35.3335 19.5507 35.0348 19.2527 34.6668 19.2527Z" fill="white"/>
<path d="M5.99984 19.2527H5.33317C4.96517 19.2527 4.6665 19.5507 4.6665 19.9193C4.6665 20.288 4.96517 20.586 5.33317 20.586H5.99984C6.36784 20.586 6.6665 20.288 6.6665 19.9193C6.6665 19.5507 6.36784 19.2527 5.99984 19.2527Z" fill="white"/>
<path d="M29.8993 9.07667L29.4279 9.548C29.1673 9.80867 29.1673 10.23 29.4279 10.4907C29.5579 10.6207 29.7286 10.686 29.8993 10.686C30.0699 10.686 30.2406 10.6207 30.3706 10.4907L30.8419 10.0193C31.1026 9.75867 31.1026 9.33733 30.8419 9.07667C30.5813 8.816 30.1599 8.81667 29.8993 9.07667Z" fill="white"/>
<path d="M9.62924 29.3473L9.1579 29.8187C8.89724 30.0793 8.89724 30.5007 9.1579 30.7613C9.2879 30.8913 9.45857 30.9567 9.62924 30.9567C9.7999 30.9567 9.97057 30.8913 10.1006 30.7613L10.5719 30.29C10.8326 30.0293 10.8326 29.608 10.5719 29.3473C10.3112 29.0867 9.88923 29.0873 9.62924 29.3473Z" fill="white"/>
<path d="M30.3706 29.3473C30.1099 29.0867 29.6886 29.0867 29.4279 29.3473C29.1673 29.608 29.1673 30.0293 29.4279 30.29L29.8993 30.7613C30.0293 30.8913 30.1999 30.9567 30.3706 30.9567C30.5413 30.9567 30.7119 30.8913 30.8419 30.7613C31.1026 30.5007 31.1026 30.0793 30.8419 29.8187L30.3706 29.3473Z" fill="white"/>
<path d="M10.1006 9.07667C9.8399 8.816 9.41857 8.816 9.1579 9.07667C8.89724 9.33733 8.89724 9.75867 9.1579 10.0193L9.62924 10.4907C9.75924 10.6207 9.9299 10.686 10.1006 10.686C10.2712 10.686 10.4419 10.6207 10.5719 10.4907C10.8326 10.23 10.8326 9.80867 10.5719 9.548L10.1006 9.07667Z" fill="white"/>
</g>
</svg>
