<svg width="40" height="40" viewBox="0 0 40 40" fill="none" xmlns="http://www.w3.org/2000/svg">
<path d="M24.6668 11.3333V8.66664C24.6668 8.26664 24.4001 8 24.0001 8H16.0001C15.6001 8 15.3335 8.26664 15.3335 8.66664V11.3333C15.3335 11.7333 15.6001 11.9999 16.0001 11.9999H24.0001C24.4001 11.9999 24.6668 11.7333 24.6668 11.3333ZM23.3335 10.6666H16.6669V9.33328H23.3335V10.6666Z" fill="#E34132"/>
<path d="M12.6666 24.667C11.2 24.667 10 25.867 10 27.3336C10 28.8003 11.2 30.0003 12.6666 30.0003C14.1333 30.0003 15.3333 28.8003 15.3333 27.3336C15.3334 25.867 14.1334 24.667 12.6666 24.667ZM12.6666 28.667C11.9333 28.667 11.3333 28.067 11.3333 27.3336C11.3333 26.6003 11.9333 26.0003 12.6666 26.0003C13.4 26.0003 14 26.6003 14 27.3336C14 28.067 13.4 28.667 12.6666 28.667Z" fill="#E34132"/>
<path d="M27.3336 24.667C25.867 24.667 24.667 25.867 24.667 27.3336C24.667 28.8003 25.867 30.0003 27.3336 30.0003C28.8003 30.0003 30.0003 28.8003 30.0003 27.3336C30.0003 25.867 28.8003 24.667 27.3336 24.667ZM27.3336 28.667C26.6003 28.667 26.0003 28.067 26.0003 27.3336C26.0003 26.6003 26.6003 26.0003 27.3336 26.0003C28.067 26.0003 28.667 26.6003 28.667 27.3336C28.667 28.067 28.0669 28.667 27.3336 28.667Z" fill="#E34132"/>
<path d="M27.2664 13.6664C27.3998 13.3998 27.333 13.133 27.133 12.8664C26.933 12.5998 26.5997 12.5998 26.333 12.733L23.133 14.6664C21.9997 15.333 20.7997 15.933 19.6664 16.4664C19.333 16.5998 18.933 16.7998 18.533 16.9998C17.1331 17.7331 16.3997 19.2664 16.7331 20.7998C16.9997 21.9998 17.9997 22.9998 19.1997 23.2664C19.4663 23.333 19.733 23.333 19.9997 23.333C21.2663 23.333 22.3997 22.5997 22.9997 21.4664C23.133 21.133 23.333 20.733 23.533 20.333C24.133 19.1997 24.6664 17.9997 25.333 16.8664L27.2664 13.6664ZM24.1998 16.133C23.4664 17.333 22.8664 18.533 22.3331 19.733C22.1998 20.133 21.9998 20.4664 21.7998 20.8664C21.3998 21.733 20.4664 22.133 19.5331 21.933C18.7998 21.7997 18.1998 21.1997 18.0665 20.4664C17.8665 19.533 18.2665 18.5998 19.1331 18.1998C19.4665 17.9998 19.8665 17.8664 20.2665 17.6664C21.4665 17.0664 22.7331 16.4664 23.8665 15.7998L24.7331 15.2664L24.1998 16.133Z" fill="#E34132"/>
<path d="M38.5718 12.5996C38.5634 12.5547 38.5507 12.5101 38.5334 12.4666C38.5159 12.423 38.4938 12.3831 38.468 12.3466C37.469 9.95469 36.0176 7.79461 34.222 5.9743C34.1967 5.93664 34.1673 5.90055 34.1334 5.86664C34.0995 5.83273 34.0634 5.80328 34.0257 5.77797C30.4088 2.21039 25.4503 0 20 0C17.3892 0 14.8915 0.507812 12.5996 1.4282C12.5547 1.43664 12.5101 1.4493 12.4667 1.46664C12.4232 1.48406 12.3832 1.50625 12.3466 1.53203C9.95477 2.53102 7.79469 3.98242 5.97437 5.77797C5.93672 5.80328 5.90063 5.83273 5.86672 5.86664C5.83281 5.90055 5.80328 5.93664 5.77805 5.9743C2.21039 9.59117 0 14.5497 0 20C0 24.5334 1.46664 28.8666 4.33336 32.4C4.46672 32.6 4.66672 32.6666 4.86672 32.6666H35.1334C35.3334 32.6666 35.5334 32.6 35.6667 32.4C38.5334 28.8667 40 24.5334 40 20C40 17.3892 39.4922 14.8915 38.5718 12.5996ZM34.8666 31.3334H5.2C4.29852 30.1709 3.54984 28.9237 2.9582 27.6134L4.8 26.8667C5.13336 26.7334 5.26664 26.3334 5.13336 26.0001C5 25.6667 4.6 25.5334 4.26672 25.6667L2.46125 26.3987C1.79141 24.5751 1.41484 22.647 1.34578 20.6667H6C6.4 20.6667 6.66664 20.4001 6.66664 20.0001C6.66664 19.6001 6.4 19.3334 6 19.3334H1.34664C1.42141 17.2312 1.84789 15.215 2.56914 13.3416L4.4 14.1334C4.46664 14.2 4.6 14.2 4.66664 14.2C4.93328 14.2 5.13328 14.0666 5.26664 13.8C5.4 13.4666 5.26664 13.0666 4.93328 12.9334L3.08391 12.1336C3.91977 10.3499 5.02969 8.71789 6.35906 7.29242L7.73328 8.66664C7.86664 8.8 7.99992 8.86664 8.19992 8.86664C8.39992 8.86664 8.53328 8.8 8.66656 8.66664C8.9332 8.4 8.9332 8 8.66656 7.73328L7.29234 6.35906C8.78586 4.96625 10.5057 3.81367 12.3895 2.96547L13.1333 4.8C13.1999 5.06664 13.4666 5.2 13.7333 5.2C13.7999 5.2 13.8666 5.2 13.9999 5.13336C14.3333 5 14.4666 4.6 14.3333 4.26672L13.6045 2.46891C15.403 1.80773 17.3294 1.41797 19.3333 1.34672V6.00008C19.3333 6.40008 19.5999 6.66672 19.9999 6.66672C20.3999 6.66672 20.6666 6.40008 20.6666 6.00008V1.34664C22.7687 1.42141 24.7849 1.84789 26.6583 2.56914L25.8666 4.40008C25.7332 4.73344 25.8666 5.13344 26.1999 5.26672C26.2666 5.33336 26.3999 5.33336 26.4666 5.33336C26.7332 5.33336 26.9999 5.13336 27.0666 4.93336L27.8663 3.08398C29.65 3.91984 31.282 5.02977 32.7075 6.35914L31.3333 7.73336C31.0666 8 31.0666 8.4 31.3333 8.66672C31.4666 8.80008 31.5999 8.86672 31.7999 8.86672C31.9333 8.86672 32.1333 8.80008 32.2666 8.66672L33.6408 7.2925C35.0336 8.78602 36.1862 10.5059 37.0344 12.3897L35.1998 13.1334C34.8665 13.2668 34.7332 13.6668 34.8665 14.0001C34.9331 14.2667 35.1998 14.4001 35.4665 14.4001C35.5331 14.4001 35.5998 14.3334 35.7331 14.3334L37.531 13.6046C38.1922 15.4031 38.582 17.3295 38.6532 19.3334H34C33.6 19.3334 33.3334 19.6001 33.3334 20.0001C33.3334 20.4001 33.6 20.6667 34 20.6667H38.6543C38.5819 22.7443 38.1721 24.7644 37.4498 26.6666L35.6 25.8667C35.2666 25.7334 34.8666 25.8667 34.7334 26.2001C34.6 26.5334 34.7334 26.9334 35.0667 27.0667L36.9402 27.8769C36.3784 29.091 35.6854 30.2491 34.8666 31.3334Z" fill="#E34132"/>
</svg>
