<svg width="40" height="40" viewBox="0 0 40 40" fill="none" xmlns="http://www.w3.org/2000/svg">
<g opacity="1">
<path d="M0 5V35H40V5H0ZM38.6667 33.6667H36.6667L37.7333 32.8667C38.028 32.646 38.0873 32.228 37.8667 31.934C37.646 31.6393 37.2293 31.5807 36.9333 31.8007L34.4447 33.6673H32L33.0667 32.8673C33.3613 32.6467 33.4207 32.2287 33.2 31.9347C32.9793 31.64 32.5627 31.5813 32.2667 31.8013L29.778 33.668H27.3333L28.4 32.868C28.6947 32.6473 28.754 32.2293 28.5333 31.9353C28.3133 31.6407 27.896 31.582 27.6 31.802L25.1113 33.6687H22.6667L23.7333 32.8687C24.028 32.648 24.0873 32.23 23.8667 31.936C23.6467 31.6413 23.2293 31.5827 22.9333 31.8027L20.4447 33.6693H18L19.0667 32.8693C19.3613 32.6487 19.4207 32.2307 19.2 31.9367C18.98 31.642 18.5627 31.5833 18.2667 31.8033L15.778 33.67H13.3333L14.4 32.87C14.6947 32.6493 14.754 32.2313 14.5333 31.9373C14.3133 31.6427 13.896 31.584 13.6 31.804L11.1113 33.6707H8.66667L9.73333 32.8707C10.028 32.65 10.0873 32.232 9.86667 31.938C9.646 31.6433 9.22933 31.5847 8.93333 31.8047L6.44467 33.6713H4L5.06667 32.8713C5.36133 32.6507 5.42067 32.2327 5.2 31.9387C4.97933 31.644 4.56267 31.5853 4.26667 31.8053L1.778 33.672H1.33333V6.33867H3.33333L2.26667 7.13867C1.972 7.35933 1.91267 7.77733 2.13333 8.07133C2.264 8.24667 2.46467 8.338 2.66733 8.338C2.806 8.338 2.94667 8.29467 3.06667 8.20467L5.55533 6.338H8L6.93333 7.138C6.63867 7.35867 6.57933 7.77667 6.8 8.07067C6.93067 8.246 7.13133 8.33733 7.334 8.33733C7.47267 8.33733 7.61333 8.294 7.73333 8.204L10.222 6.33733H12.6667L11.6 7.13733C11.3053 7.358 11.246 7.776 11.4667 8.07C11.5973 8.24533 11.798 8.33667 12.0007 8.33667C12.1393 8.33667 12.28 8.29333 12.4 8.20333L14.8887 6.33667H17.3333L16.2667 7.13667C15.972 7.35733 15.9127 7.77533 16.1333 8.06933C16.264 8.24467 16.4647 8.336 16.6673 8.336C16.806 8.336 16.9467 8.29267 17.0667 8.20267L19.5553 6.336H22L20.9333 7.136C20.6387 7.35667 20.5793 7.77467 20.8 8.06867C20.9307 8.244 21.1313 8.33533 21.334 8.33533C21.4727 8.33533 21.6133 8.292 21.7333 8.202L24.222 6.33533H26.6667L25.6 7.13533C25.3053 7.356 25.246 7.774 25.4667 8.068C25.5973 8.24333 25.798 8.33467 26.0007 8.33467C26.1393 8.33467 26.28 8.29133 26.4 8.20133L28.8887 6.33467H31.3333L30.2667 7.13467C29.972 7.35533 29.9127 7.77333 30.1333 8.06733C30.264 8.24267 30.4647 8.334 30.6673 8.334C30.806 8.334 30.9467 8.29067 31.0667 8.20067L33.5553 6.334H36L34.9333 7.134C34.6387 7.35467 34.5793 7.77267 34.8 8.06667C34.9307 8.242 35.1313 8.33333 35.334 8.33333C35.4727 8.33333 35.6133 8.29 35.7333 8.2L38.222 6.33333H38.6667V33.6667Z" fill="white"/>
<path d="M28.6665 19.6667H35.3332V13H28.6665V19.6667ZM29.9998 14.3333H33.9998V18.3333H29.9998V14.3333Z" fill="white"/>
<path d="M18.6665 16.3333H5.33317C4.96517 16.3333 4.6665 16.6313 4.6665 17C4.6665 17.3687 4.96517 17.6667 5.33317 17.6667H18.6665C19.0345 17.6667 19.3332 17.3687 19.3332 17C19.3332 16.6313 19.0345 16.3333 18.6665 16.3333Z" fill="white"/>
<path d="M18.6665 19.6667H5.33317C4.96517 19.6667 4.6665 19.9647 4.6665 20.3333C4.6665 20.702 4.96517 21 5.33317 21H18.6665C19.0345 21 19.3332 20.702 19.3332 20.3333C19.3332 19.9647 19.0345 19.6667 18.6665 19.6667Z" fill="white"/>
<path d="M5.33317 14.3333H10.6665C11.0345 14.3333 11.3332 14.0353 11.3332 13.6667C11.3332 13.298 11.0345 13 10.6665 13H5.33317C4.96517 13 4.6665 13.298 4.6665 13.6667C4.6665 14.0353 4.96517 14.3333 5.33317 14.3333Z" fill="white"/>
</g>
</svg>
