<svg width="125" height="125" viewBox="0 0 125 125" fill="none" xmlns="http://www.w3.org/2000/svg">
<g opacity="0.05">
<path d="M0 15.625V109.375H125V15.625H0ZM120.833 105.208H114.583L117.917 102.708C118.837 102.019 119.023 100.713 118.333 99.7937C117.644 98.8729 116.342 98.6896 115.417 99.3771L107.64 105.21H100L103.333 102.71C104.254 102.021 104.44 100.715 103.75 99.7958C103.06 98.875 101.758 98.6917 100.833 99.3792L93.0562 105.212H85.4167L88.75 102.712C89.6708 102.023 89.8562 100.717 89.1667 99.7979C88.4792 98.8771 87.175 98.6937 86.25 99.3812L78.4729 105.215H70.8333L74.1667 102.715C75.0875 102.025 75.2729 100.719 74.5833 99.8C73.8958 98.8792 72.5917 98.6958 71.6667 99.3833L63.8896 105.217H56.25L59.5833 102.717C60.5042 102.027 60.6896 100.721 60 99.8021C59.3125 98.8812 58.0083 98.6979 57.0833 99.3854L49.3062 105.219H41.6667L45 102.719C45.9208 102.029 46.1062 100.723 45.4167 99.8042C44.7292 98.8833 43.425 98.7 42.5 99.3875L34.7229 105.221H27.0833L30.4167 102.721C31.3375 102.031 31.5229 100.725 30.8333 99.8063C30.1437 98.8854 28.8417 98.7021 27.9167 99.3896L20.1396 105.223H12.5L15.8333 102.723C16.7542 102.033 16.9396 100.727 16.25 99.8083C15.5604 98.8875 14.2583 98.7042 13.3333 99.3917L5.55625 105.225H4.16667V19.8083H10.4167L7.08333 22.3083C6.1625 22.9979 5.97708 24.3042 6.66667 25.2229C7.075 25.7708 7.70208 26.0562 8.33542 26.0562C8.76875 26.0562 9.20833 25.9208 9.58333 25.6396L17.3604 19.8062H25L21.6667 22.3062C20.7458 22.9958 20.5604 24.3021 21.25 25.2208C21.6583 25.7687 22.2854 26.0542 22.9188 26.0542C23.3521 26.0542 23.7917 25.9187 24.1667 25.6375L31.9437 19.8042H39.5833L36.25 22.3042C35.3292 22.9938 35.1437 24.3 35.8333 25.2187C36.2417 25.7667 36.8687 26.0521 37.5021 26.0521C37.9354 26.0521 38.375 25.9167 38.75 25.6354L46.5271 19.8021H54.1667L50.8333 22.3021C49.9125 22.9917 49.7271 24.2979 50.4167 25.2167C50.825 25.7646 51.4521 26.05 52.0854 26.05C52.5187 26.05 52.9583 25.9146 53.3333 25.6333L61.1104 19.8H68.75L65.4167 22.3C64.4958 22.9896 64.3104 24.2958 65 25.2146C65.4083 25.7625 66.0354 26.0479 66.6687 26.0479C67.1021 26.0479 67.5417 25.9125 67.9167 25.6313L75.6937 19.7979H83.3333L80 22.2979C79.0792 22.9875 78.8937 24.2937 79.5833 25.2125C79.9917 25.7604 80.6187 26.0458 81.2521 26.0458C81.6854 26.0458 82.125 25.9104 82.5 25.6292L90.2771 19.7958H97.9167L94.5833 22.2958C93.6625 22.9854 93.4771 24.2917 94.1667 25.2104C94.575 25.7583 95.2021 26.0438 95.8354 26.0438C96.2687 26.0438 96.7083 25.9083 97.0833 25.6271L104.86 19.7938H112.5L109.167 22.2938C108.246 22.9833 108.06 24.2896 108.75 25.2083C109.158 25.7563 109.785 26.0417 110.419 26.0417C110.852 26.0417 111.292 25.9062 111.667 25.625L119.444 19.7917H120.833V105.208Z" fill="#1F1C1C"/>
<path d="M89.5835 61.4583H110.417V40.625H89.5835V61.4583ZM93.7502 44.7917H106.25V57.2917H93.7502V44.7917Z" fill="#1F1C1C"/>
<path d="M58.3335 51.0415H16.6668C15.5168 51.0415 14.5835 51.9728 14.5835 53.1248C14.5835 54.2769 15.5168 55.2082 16.6668 55.2082H58.3335C59.4835 55.2082 60.4168 54.2769 60.4168 53.1248C60.4168 51.9728 59.4835 51.0415 58.3335 51.0415Z" fill="#1F1C1C"/>
<path d="M58.3335 61.4585H16.6668C15.5168 61.4585 14.5835 62.3897 14.5835 63.5418C14.5835 64.6939 15.5168 65.6252 16.6668 65.6252H58.3335C59.4835 65.6252 60.4168 64.6939 60.4168 63.5418C60.4168 62.3897 59.4835 61.4585 58.3335 61.4585Z" fill="#1F1C1C"/>
<path d="M16.6668 44.7917H33.3335C34.4835 44.7917 35.4168 43.8604 35.4168 42.7083C35.4168 41.5562 34.4835 40.625 33.3335 40.625H16.6668C15.5168 40.625 14.5835 41.5562 14.5835 42.7083C14.5835 43.8604 15.5168 44.7917 16.6668 44.7917Z" fill="#1F1C1C"/>
</g>
</svg>
