<svg width="125" height="125" viewBox="0 0 125 125" fill="none" xmlns="http://www.w3.org/2000/svg">
<g clip-path="url(#clip0)">
<path opacity="0.05" d="M123.793 94.9097C119.135 86.103 102.959 76.554 102.247 76.1364C99.2844 74.4474 96.2177 73.9185 93.6126 74.6377C91.6547 75.1805 90.0587 76.4194 88.9847 78.2244C86.6185 81.0547 83.684 84.363 82.9718 84.8758C77.481 88.5947 73.1128 88.1585 68.3713 83.4165L41.7265 56.7668C36.9826 52.0225 36.5464 47.654 40.2604 42.1718C40.78 41.455 44.088 38.5179 46.9181 36.1492C48.7229 35.075 49.9616 33.4789 50.5044 31.5208C51.2259 28.9155 50.6947 25.8508 48.992 22.8649C48.5906 22.1782 39.0379 5.99868 30.2367 1.34247C25.7712 -1.02159 20.3661 -0.211914 16.7914 3.3655L10.9038 9.25129C1.59227 18.5614 -1.77834 29.115 0.880106 40.6175C3.0978 50.2036 9.56065 60.4046 20.0924 70.935L54.2045 105.05C67.5709 118.418 80.3204 125.134 92.012 125.134C100.597 125.134 108.614 121.511 115.885 114.242L121.77 108.356C125.345 104.781 126.157 99.378 123.793 94.9097ZM118.49 105.076L112.604 110.962C97.366 126.197 78.8241 123.109 57.4869 101.77L23.3725 67.6545C13.4648 57.7459 7.41951 48.2966 5.40132 39.5711C3.09316 29.5952 5.96734 20.7514 14.1839 12.5341L20.0692 6.64827C21.3845 5.33516 23.115 4.64845 24.8711 4.64845C25.9544 4.64845 27.0493 4.90829 28.0631 5.44652C35.702 9.49025 44.8953 25.0597 44.9741 25.1919C46.0157 27.0177 46.4124 28.9224 46.0343 30.2866C45.8023 31.1194 45.285 31.7551 44.4499 32.2238L44.0996 32.465C42.1208 34.1145 37.414 38.1096 36.4258 39.5665C35.0061 41.6638 34.0643 43.7239 33.5725 45.7493C31.9232 42.4595 30.5893 38.6478 30.1509 34.4254C30.0186 33.1517 28.8866 32.2586 27.6038 32.356C26.3302 32.4906 25.4023 33.6297 25.5345 34.9057C27.2094 51.0365 39.7523 61.5367 40.2859 61.9752C40.3439 62.0239 40.4158 62.0425 40.4761 62.0842L65.0911 86.7016C65.1955 86.806 65.2999 86.8941 65.4043 86.9962C65.4878 87.1169 65.5411 87.2514 65.6479 87.3581C66.0863 87.792 76.56 97.9535 92.5548 99.6146C92.636 99.6216 92.7172 99.6262 92.796 99.6262C93.9698 99.6262 94.9766 98.7376 95.1019 97.5475C95.2341 96.2715 94.3085 95.1324 93.0326 94.9978C88.1287 94.4898 83.7838 93.0514 80.1603 91.3833C81.9349 90.8497 83.7397 89.9635 85.57 88.7223C87.0268 87.7363 91.0237 83.0267 92.6731 81.0478L92.9143 80.6975C93.3829 79.8646 94.0162 79.3449 94.8513 79.1129C96.2177 78.7324 98.1222 79.1292 99.9247 80.1569C100.082 80.2497 115.648 89.4415 119.691 97.0835C121.097 99.7375 120.615 102.951 118.49 105.076Z" fill="#1F1C1C"/>
</g>
<defs>
<clipPath id="clip0">
<rect width="125" height="125" fill="white"/>
</clipPath>
</defs>
</svg>
