<svg width="40" height="40" viewBox="0 0 40 40" fill="none" xmlns="http://www.w3.org/2000/svg">
<g opacity="1" clip-path="url(#clip0)">
<path d="M39.5712 30.3384C38.0822 27.5235 32.9115 24.4713 32.6838 24.3379C31.7369 23.798 30.7565 23.6289 29.9238 23.8588C29.2979 24.0323 28.7878 24.4283 28.4444 25.0052C27.6881 25.9099 26.75 26.9673 26.5224 27.1312C24.7671 28.3199 23.3708 28.1805 21.8551 26.6648L13.3378 18.1468C11.8214 16.6303 11.682 15.234 12.8692 13.4818C13.0353 13.2526 14.0927 12.3138 14.9974 11.5567C15.5743 11.2134 15.9703 10.7032 16.1438 10.0774C16.3744 9.24461 16.2046 8.26504 15.6603 7.31068C15.532 7.09118 12.4784 1.9197 9.665 0.431438C8.23754 -0.324188 6.50976 -0.065392 5.36705 1.07806L3.48503 2.95934C0.508499 5.93513 -0.568954 9.30838 0.280847 12.9849C0.989757 16.049 3.05568 19.3095 6.42226 22.6753L17.3266 33.5796C21.5993 37.8524 25.6748 39.9991 29.4121 39.9991C32.1566 39.9991 34.7193 38.8408 37.0433 36.5176L38.9246 34.6363C40.0673 33.4936 40.3268 31.7666 39.5712 30.3384ZM37.876 33.5878L35.9948 35.4691C31.1236 40.3387 25.1965 39.3518 18.3758 32.5311L7.47079 21.6268C4.30369 18.4597 2.37124 15.4394 1.7261 12.6505C0.988274 9.46188 1.90704 6.63514 4.53356 4.00861L6.41484 2.12733C6.83529 1.70762 7.38848 1.48813 7.94982 1.48813C8.29612 1.48813 8.64613 1.57118 8.97018 1.74322C11.4121 3.03572 14.3508 8.01217 14.376 8.05444C14.7089 8.63803 14.8357 9.24683 14.7149 9.68286C14.6407 9.94907 14.4754 10.1522 14.2084 10.302L14.0964 10.3792C13.4639 10.9064 11.9593 12.1833 11.6434 12.649C11.1896 13.3194 10.8885 13.9778 10.7313 14.6252C10.2041 13.5737 9.77771 12.3554 9.63756 11.0058C9.5953 10.5987 9.23343 10.3132 8.82336 10.3443C8.41625 10.3873 8.11964 10.7514 8.1619 11.1593C8.69729 16.3152 12.7068 19.6714 12.8773 19.8115C12.8959 19.8271 12.9189 19.833 12.9381 19.8464L20.8066 27.7148C20.84 27.7482 20.8733 27.7764 20.9067 27.809C20.9334 27.8475 20.9505 27.8906 20.9846 27.9247C21.1247 28.0633 24.4728 31.3113 29.5857 31.8422C29.6116 31.8444 29.6376 31.8459 29.6628 31.8459C30.038 31.8459 30.3598 31.5619 30.3999 31.1815C30.4421 30.7737 30.1463 30.4096 29.7384 30.3666C28.1708 30.2042 26.7819 29.7444 25.6236 29.2112C26.1909 29.0407 26.7678 28.7574 27.3529 28.3607C27.8186 28.0455 29.0962 26.5402 29.6235 25.9077L29.7006 25.7957C29.8504 25.5295 30.0528 25.3634 30.3198 25.2892C30.7565 25.1676 31.3653 25.2944 31.9415 25.6229C31.9919 25.6526 36.9677 28.5906 38.2602 31.0332C38.7095 31.8815 38.5553 32.9085 37.876 33.5878Z" fill="white"/>
</g>
<defs>
<clipPath id="clip0">
<rect width="40" height="40" fill="white"/>
</clipPath>
</defs>
</svg>
