<svg width="28" height="40" viewBox="0 0 28 40" fill="none" xmlns="http://www.w3.org/2000/svg">
<g clip-path="url(#clip0)">
<path d="M14.1306 8.766C11.3116 8.766 9.01709 11.0605 9.01709 13.8795C9.01709 16.6985 11.3116 18.993 14.1306 18.993C16.9496 18.993 19.2441 16.6985 19.2441 13.8795C19.2441 11.0605 16.9496 8.766 14.1306 8.766ZM14.1306 17.532C12.1166 17.532 10.4781 15.8935 10.4781 13.8795C10.4781 11.8655 12.1166 10.227 14.1306 10.227C16.1446 10.227 17.7831 11.8655 17.7831 13.8795C17.7831 15.8935 16.1446 17.532 14.1306 17.532Z" fill="#E34132"/>
<path d="M23.9069 4.10322C21.261 1.45735 17.7429 0 14.0013 0C10.259 0 6.74161 1.45735 4.09573 4.10322C-0.800809 8.99903 -1.40932 18.2106 2.77791 23.7917L14.0013 40L25.2079 23.8143C29.412 18.2106 28.8034 8.99903 23.9069 4.10322ZM24.023 22.9604L14.0013 37.433L3.96351 22.9377C0.165643 17.8739 0.709866 9.55494 5.12939 5.13615C7.49914 2.7664 10.6498 1.461 14.0013 1.461C17.3529 1.461 20.5035 2.7664 22.874 5.13615C27.2935 9.55494 27.8377 17.8739 24.023 22.9604Z" fill="#E34132"/>
</g>
<defs>
<clipPath id="clip0">
<rect width="28" height="40" fill="white"/>
</clipPath>
</defs>
</svg>
