<svg width="40" height="40" viewBox="0 0 40 40" fill="none" xmlns="http://www.w3.org/2000/svg">
<path d="M20 0C8.9543 0 0 8.9543 0 20C0 31.0457 8.9543 40 20 40C31.0457 40 40 31.0457 40 20C39.9875 8.95953 31.0405 0.0125 20 0ZM20 38.6666C9.6907 38.6666 1.33336 30.3093 1.33336 20C1.33336 9.6907 9.6907 1.33336 20 1.33336C30.3093 1.33336 38.6666 9.6907 38.6666 20C38.6551 30.3045 30.3045 38.6551 20 38.6666Z" fill="#E34132"/>
<path d="M19.9999 2.6665C10.4269 2.6665 2.6665 10.4269 2.6665 19.9999C2.6665 29.5728 10.4269 37.3332 19.9999 37.3332C29.5728 37.3332 37.3332 29.5728 37.3332 19.9999C37.3225 10.4313 29.5684 2.67721 19.9999 2.6665ZM19.9999 35.9999C11.1633 35.9999 3.99986 28.8364 3.99986 19.9999C3.99986 11.1633 11.1633 3.99986 19.9999 3.99986C28.8364 3.99986 35.9999 11.1633 35.9999 19.9999C35.9898 28.8322 28.8322 35.9898 19.9999 35.9999Z" fill="#E34132"/>
<path d="M27.3286 7.30431C22.7919 4.68704 17.2039 4.68767 12.6678 7.30595C8.1317 9.92423 5.33623 14.7627 5.3335 20.0002C5.33342 20.177 5.40365 20.3467 5.52873 20.4717C5.65373 20.5967 5.82334 20.667 6.00022 20.667H13.3336C13.5104 20.667 13.68 20.5968 13.8051 20.4717C13.9301 20.3467 14.0003 20.1771 14.0003 20.0002C14.0031 17.857 15.1464 15.8774 17.0012 14.8036C17.2216 14.679 17.4498 14.5688 17.6845 14.4738C17.1408 18.0944 16.6669 21.7485 16.6669 22.37C16.7769 24.1051 18.2643 25.4275 20.0003 25.3335C21.7363 25.4274 23.2237 24.105 23.3337 22.37C23.3337 21.7485 22.8598 18.0946 22.3161 14.4742C22.5509 14.5688 22.7793 14.6789 22.9997 14.8036C24.8563 15.8755 26.0001 17.8564 26.0003 20.0002C26.0002 20.177 26.0705 20.3467 26.1955 20.4717C26.3205 20.5967 26.4901 20.667 26.667 20.667H34.0001C34.177 20.667 34.3466 20.5969 34.4716 20.4718C34.5966 20.3467 34.6669 20.1771 34.6668 20.0003C34.6542 14.764 31.8596 9.92892 27.3286 7.30431ZM12.7114 19.3336H6.6892C6.91475 15.0539 9.17701 11.1413 12.7736 8.81079L15.7784 14.0211C14.0292 15.259 12.9087 17.1998 12.7114 19.3336ZM20.0001 24.0002C19.0013 24.0905 18.1132 23.3666 18.0001 22.37C18.0001 21.6538 19.1834 12.8362 19.9855 8.78017H20.0147C20.8168 12.8368 22.0001 21.6538 22.0001 22.37C21.8871 23.3666 20.999 24.0905 20.0001 24.0002ZM22.0863 12.9756C21.8153 11.2425 21.5411 9.6179 21.3104 8.45985C21.1555 7.86298 20.6167 7.44618 20 7.44618C19.3833 7.44618 18.8445 7.86298 18.6896 8.45985C18.459 9.61743 18.1851 11.2411 17.9142 12.9733C17.5766 13.0724 17.2469 13.1964 16.9277 13.3445L13.9272 8.14196C17.7369 6.17509 22.2633 6.17524 26.0729 8.14235L23.0722 13.3452C22.753 13.1981 22.4235 13.0745 22.0863 12.9756ZM27.2895 19.3336C27.1121 17.1934 25.9868 15.2446 24.2219 14.0211L27.2265 8.8111C30.8233 11.1413 33.0857 15.0538 33.3111 19.3336H27.2895Z" fill="#E34132"/>
<path d="M20 26.6665C17.7909 26.6665 16 28.4574 16 30.6665C16 32.8756 17.7909 34.6665 20 34.6665C20.3682 34.6665 20.6666 34.3681 20.6666 33.9999C20.6666 33.6317 20.3682 33.3332 20 33.3332C18.5273 33.3332 17.3334 32.1393 17.3334 30.6666C17.3334 29.1938 18.5273 27.9999 20 27.9999C21.4727 27.9999 22.6666 29.1938 22.6666 30.6666C22.6666 31.0348 22.9651 31.3332 23.3333 31.3332C23.7015 31.3332 23.9999 31.0347 23.9999 30.6666C23.9976 28.4584 22.2081 26.6689 20 26.6665Z" fill="#E34132"/>
<path d="M21.3331 30H19.9997C19.8229 29.9999 19.6533 30.0702 19.5282 30.1952C19.4032 30.3202 19.333 30.4898 19.333 30.6667V31.3334C19.333 31.7016 19.6314 32 19.9996 32C20.3679 32 20.6663 31.7016 20.6663 31.3334H21.3329C21.7011 31.3334 21.9996 31.0348 21.9996 30.6667C21.9997 30.2985 21.7012 30 21.3331 30Z" fill="#E34132"/>
</svg>
