<svg xmlns="http://www.w3.org/2000/svg" viewBox="0 0 24.5 24.5">
  <defs>
    <style>
      .cls-1 {
        fill: #fff;
      }
    </style>
  </defs>
  <path id="fb" class="cls-1" d="M24.5-21.383a1.286,1.286,0,0,0-.41-.984,1.358,1.358,0,0,0-.957-.383H1.367a1.332,1.332,0,0,0-.984.383A1.332,1.332,0,0,0,0-21.383V.383a1.358,1.358,0,0,0,.383.957,1.286,1.286,0,0,0,.984.41h11.7V-7.766H9.9V-11.43H13.07v-2.734a4.766,4.766,0,0,1,1.313-3.609,4.772,4.772,0,0,1,3.445-1.258q1.7,0,2.844.109v3.336H18.7a1.9,1.9,0,0,0-1.477.492,2.032,2.032,0,0,0-.328,1.313v2.352h3.664L20.07-7.766H16.9V1.75h6.234a1.286,1.286,0,0,0,.984-.41A1.358,1.358,0,0,0,24.5.383Z" transform="translate(0 22.75)"/>
</svg>
