<svg xmlns="http://www.w3.org/2000/svg" viewBox="0 0 24.5 24.5">
  <defs>
    <style>
      .cls-1 {
        fill: #fff;
      }
    </style>
  </defs>
  <path id="insta" class="cls-1" d="M12.25-16.789a6.12,6.12,0,0,1,3.145.848,6.308,6.308,0,0,1,2.3,2.3,6.12,6.12,0,0,1,.848,3.145,6.12,6.12,0,0,1-.848,3.145,6.308,6.308,0,0,1-2.3,2.3,6.12,6.12,0,0,1-3.145.848,6.12,6.12,0,0,1-3.145-.848,6.308,6.308,0,0,1-2.3-2.3A6.12,6.12,0,0,1,5.961-10.5a6.12,6.12,0,0,1,.848-3.145,6.308,6.308,0,0,1,2.3-2.3A6.12,6.12,0,0,1,12.25-16.789Zm0,10.391a3.951,3.951,0,0,0,2.9-1.2,3.951,3.951,0,0,0,1.2-2.9,3.951,3.951,0,0,0-1.2-2.9,3.951,3.951,0,0,0-2.9-1.2,3.951,3.951,0,0,0-2.9,1.2,3.951,3.951,0,0,0-1.2,2.9,3.951,3.951,0,0,0,1.2,2.9A3.951,3.951,0,0,0,12.25-6.4Zm8.039-10.664a1.42,1.42,0,0,0-.437-1.039,1.42,1.42,0,0,0-1.039-.437,1.42,1.42,0,0,0-1.039.438,1.42,1.42,0,0,0-.437,1.039,1.42,1.42,0,0,0,.438,1.039,1.42,1.42,0,0,0,1.039.438,1.332,1.332,0,0,0,1.012-.437A1.7,1.7,0,0,0,20.289-17.062Zm4.156,1.477q.055,1.531.055,5.086t-.082,5.113a10.314,10.314,0,0,1-.465,2.707A6.374,6.374,0,0,1,22.449-.3,6.374,6.374,0,0,1,20.07,1.2a10.314,10.314,0,0,1-2.707.465Q15.8,1.75,12.25,1.75T7.137,1.668a8.93,8.93,0,0,1-2.707-.52A5.829,5.829,0,0,1,2.051-.3,6.374,6.374,0,0,1,.547-2.68,10.314,10.314,0,0,1,.082-5.387Q0-6.945,0-10.5t.082-5.113A10.314,10.314,0,0,1,.547-18.32a6.374,6.374,0,0,1,1.5-2.379A6.374,6.374,0,0,1,4.43-22.2a10.314,10.314,0,0,1,2.707-.465Q8.7-22.75,12.25-22.75t5.113.082a10.314,10.314,0,0,1,2.707.465,6.374,6.374,0,0,1,2.379,1.5,6.374,6.374,0,0,1,1.5,2.379A11.126,11.126,0,0,1,24.445-15.586ZM21.82-3.281a11.515,11.515,0,0,0,.438-2.953q.055-1.2.055-3.391v-1.75q0-2.242-.055-3.391a10.973,10.973,0,0,0-.437-2.953,3.947,3.947,0,0,0-2.352-2.352,10.973,10.973,0,0,0-2.953-.437q-1.2-.055-3.391-.055h-1.75q-2.187,0-3.391.055a11.514,11.514,0,0,0-2.953.438A3.947,3.947,0,0,0,2.68-17.719a10.973,10.973,0,0,0-.437,2.953q-.055,1.2-.055,3.391v1.75q0,2.187.055,3.391A11.515,11.515,0,0,0,2.68-3.281,4.146,4.146,0,0,0,5.031-.93a11.515,11.515,0,0,0,2.953.438q1.2.055,3.391.055h1.75q2.242,0,3.391-.055A10.973,10.973,0,0,0,19.469-.93,4.146,4.146,0,0,0,21.82-3.281Z" transform="translate(0 22.75)"/>
</svg>
