<svg xmlns="http://www.w3.org/2000/svg" viewBox="0 0 29.859 21">
  <defs>
    <style>
      .cls-1 {
        fill: #fff;
      }
    </style>
  </defs>
  <path id="youtube" class="cls-1" d="M30.078-17.719a24.712,24.712,0,0,1,.547,4.484L30.68-10.5l-.055,2.734a25,25,0,0,1-.547,4.539,3.814,3.814,0,0,1-.984,1.641A3.791,3.791,0,0,1,27.4-.6a38.9,38.9,0,0,1-6.672.547L15.75,0,10.773-.055A38.9,38.9,0,0,1,4.1-.6a3.791,3.791,0,0,1-1.7-.984,3.814,3.814,0,0,1-.984-1.641A25,25,0,0,1,.875-7.766L.82-10.5q0-1.2.055-2.734a24.712,24.712,0,0,1,.547-4.484,3.791,3.791,0,0,1,.984-1.7A3.791,3.791,0,0,1,4.1-20.4a38.9,38.9,0,0,1,6.672-.547L15.75-21l4.977.055A38.9,38.9,0,0,1,27.4-20.4a3.791,3.791,0,0,1,1.7.984A3.791,3.791,0,0,1,30.078-17.719ZM12.688-6.016l7.82-4.484-7.82-4.43Z" transform="translate(-0.82 21)"/>
</svg>
