<svg xmlns="http://www.w3.org/2000/svg" viewBox="0 0 69.5 69.5"><defs><style>.a{fill:#fff;}</style></defs><path class="a" d="M34.75-38.34a17.36,17.36,0,0,1,8.92,2.4,17.893,17.893,0,0,1,6.516,6.516,17.36,17.36,0,0,1,2.4,8.92,17.36,17.36,0,0,1-2.4,8.92A17.893,17.893,0,0,1,43.67-5.064a17.36,17.36,0,0,1-8.92,2.4,17.36,17.36,0,0,1-8.92-2.4,17.893,17.893,0,0,1-6.516-6.516,17.36,17.36,0,0,1-2.4-8.92,17.36,17.36,0,0,1,2.4-8.92,17.893,17.893,0,0,1,6.516-6.516A17.36,17.36,0,0,1,34.75-38.34Zm0,29.475a11.207,11.207,0,0,0,8.222-3.413A11.207,11.207,0,0,0,46.385-20.5a11.207,11.207,0,0,0-3.413-8.222,11.207,11.207,0,0,0-8.222-3.413,11.207,11.207,0,0,0-8.222,3.413A11.207,11.207,0,0,0,23.115-20.5a11.207,11.207,0,0,0,3.413,8.222A11.207,11.207,0,0,0,34.75-8.865Zm22.8-30.251a4.027,4.027,0,0,0-1.241-2.948A4.027,4.027,0,0,0,53.366-43.3a4.027,4.027,0,0,0-2.948,1.241,4.027,4.027,0,0,0-1.241,2.948,4.027,4.027,0,0,0,1.241,2.948,4.027,4.027,0,0,0,2.948,1.241,3.778,3.778,0,0,0,2.87-1.241A4.833,4.833,0,0,0,57.555-39.116Zm11.79,4.189Q69.5-30.584,69.5-20.5T69.267-5.995a29.257,29.257,0,0,1-1.319,7.679,18.082,18.082,0,0,1-4.266,6.748A18.082,18.082,0,0,1,56.934,12.7a29.257,29.257,0,0,1-7.679,1.319q-4.421.233-14.505.233t-14.505-.233a25.332,25.332,0,0,1-7.679-1.474A16.536,16.536,0,0,1,5.818,8.432,18.082,18.082,0,0,1,1.551,1.684,29.257,29.257,0,0,1,.233-5.995Q0-10.416,0-20.5T.233-35.005a29.257,29.257,0,0,1,1.319-7.679,18.082,18.082,0,0,1,4.266-6.748A18.082,18.082,0,0,1,12.566-53.7a29.257,29.257,0,0,1,7.679-1.319q4.421-.233,14.505-.233t14.505.233A29.257,29.257,0,0,1,56.934-53.7a18.082,18.082,0,0,1,6.748,4.266,18.082,18.082,0,0,1,4.266,6.748A31.561,31.561,0,0,1,69.345-34.927ZM61.9-.022A32.664,32.664,0,0,0,63.14-8.4q.155-3.413.155-9.618v-4.964q0-6.36-.155-9.618A31.128,31.128,0,0,0,61.9-40.978a11.2,11.2,0,0,0-6.671-6.671A31.129,31.129,0,0,0,46.85-48.89q-3.413-.155-9.618-.155H32.268q-6.205,0-9.618.155a32.663,32.663,0,0,0-8.377,1.241A11.2,11.2,0,0,0,7.6-40.978,31.129,31.129,0,0,0,6.36-32.6q-.155,3.413-.155,9.618v4.964q0,6.205.155,9.618A32.664,32.664,0,0,0,7.6-.022a11.76,11.76,0,0,0,6.671,6.671A32.664,32.664,0,0,0,22.65,7.89q3.413.155,9.618.155h4.964q6.36,0,9.618-.155a31.129,31.129,0,0,0,8.377-1.241A11.76,11.76,0,0,0,61.9-.022Z" transform="translate(0 55.25)"/></svg>