<svg xmlns="http://www.w3.org/2000/svg" viewBox="0 0 29.425 17.5">
  <defs>
    <style>
      .cls-1 {
        fill: #fff;
      }
    </style>
  </defs>
  <path id="vk" class="cls-1" d="M29.8-18.047a10.563,10.563,0,0,1-1.312,2.734q-.82,1.367-1.969,3.172-.984,1.422-1.039,1.477a1.576,1.576,0,0,0-.328.766,1.1,1.1,0,0,0,.328.656l.492.547q3.938,4.047,4.43,5.578a1.091,1.091,0,0,1-.137,1.012,1.187,1.187,0,0,1-.957.355H26.086a1.739,1.739,0,0,1-1.094-.383,8.321,8.321,0,0,1-1.176-1.176q-.848-.957-1.5-1.613Q20.125-7,19.086-7a.963.963,0,0,0-.629.164.947.947,0,0,0-.191.711,15.738,15.738,0,0,0-.055,1.7v1.422a.958.958,0,0,1-.328.93,3.954,3.954,0,0,1-1.969.328,10.255,10.255,0,0,1-5.2-1.531A14.5,14.5,0,0,1,6.125-7.656a32.909,32.909,0,0,1-3.117-5.086,32.787,32.787,0,0,1-1.586-3.664,8.46,8.46,0,0,1-.383-1.914q0-.93,1.094-.93H5.359a1.3,1.3,0,0,1,.9.273,2.22,2.22,0,0,1,.52.984,31.469,31.469,0,0,0,1.859,4.266,17.832,17.832,0,0,0,1.969,3.117q.984,1.2,1.531,1.2a.488.488,0,0,0,.465-.246,2.231,2.231,0,0,0,.137-.957v-4.758a3.945,3.945,0,0,0-.383-1.531,3.638,3.638,0,0,0-.547-.848,1.351,1.351,0,0,1-.383-.766.673.673,0,0,1,.246-.52.837.837,0,0,1,.574-.219h5.086a.778.778,0,0,1,.684.273,1.684,1.684,0,0,1,.191.93V-11.7a1.2,1.2,0,0,0,.164.711.5.5,0,0,0,.41.219,1.182,1.182,0,0,0,.574-.191,4.309,4.309,0,0,0,.875-.793A19.189,19.189,0,0,0,22.313-14.6a29.282,29.282,0,0,0,1.367-2.625l.547-1.094a1.373,1.373,0,0,1,1.367-.93H28.82Q30.133-19.25,29.8-18.047Z" transform="translate(-1.039 19.25)"/>
</svg>
