<svg xmlns="http://www.w3.org/2000/svg" viewBox="0 0 71.992 72"><defs><style>.a{opacity:0.15;}.b{fill:#fff;}</style></defs><g class="a" transform="translate(-0.027)"><g transform="translate(15.319)"><path class="b" d="M129.454,0a20.687,20.687,0,0,0-16.063,33.724q.033.052.072.1l14.882,19.066a1.406,1.406,0,0,0,2.217,0l14.954-19.167.015-.02A20.687,20.687,0,0,0,129.454,0Zm13.863,31.97c-.018.022-.035.044-.051.067l-13.812,17.7L115.781,32.224a1.413,1.413,0,0,0-.114-.16,17.875,17.875,0,1,1,27.65-.093Z" transform="translate(-108.767)"/></g><g transform="translate(23.351 8.338)"><path class="b" d="M190.675,68.359a1.406,1.406,0,0,0-2.7.8,9.842,9.842,0,1,1-6.636-6.642,1.406,1.406,0,0,0,.8-2.7,12.655,12.655,0,1,0,8.535,8.543Z" transform="translate(-165.884 -59.293)"/></g><g transform="translate(42.553 11.634)"><path class="b" d="M304.862,83.167l-.025-.025a1.406,1.406,0,1,0-1.989,1.989l.025.025a1.406,1.406,0,1,0,1.989-1.989Z" transform="translate(-302.436 -82.73)"/></g><g transform="translate(0.027 40.245)"><path class="b" d="M57.624,288.877a1.406,1.406,0,1,0-.879,2.671c7.8,2.568,12.462,6.415,12.462,10.292,0,3.278-3.38,6.594-9.275,9.1-6.363,2.7-14.854,4.193-23.909,4.193s-17.546-1.489-23.909-4.193c-5.894-2.5-9.275-5.821-9.275-9.1,0-2.745,2.368-5.533,6.667-7.852,4.542-2.45,10.975-4.224,18.113-5a1.406,1.406,0,1,0-.3-2.8c-7.492.81-14.291,2.7-19.146,5.316C2.843,294.386.027,297.957.027,301.84c0,4.526,3.9,8.676,10.987,11.687,6.7,2.848,15.585,4.417,25.009,4.417s18.305-1.569,25.009-4.417c7.085-3.011,10.987-7.161,10.987-11.687C72.019,296.612,66.773,291.887,57.624,288.877Z" transform="translate(-0.027 -286.188)"/></g><g transform="translate(49.457 41.21)"><path class="b" d="M353.264,293.086l-.049-.01a1.406,1.406,0,0,0-.556,2.757l.049.01a1.4,1.4,0,0,0,1.656-1.1A1.406,1.406,0,0,0,353.264,293.086Z" transform="translate(-351.531 -293.048)"/></g><g transform="translate(22.604 46.263)"><path class="b" d="M163.365,330.112a1.406,1.406,0,0,0-1.655-1.1c-.032.006-.065.014-.1.023a1.406,1.406,0,1,0,1.751,1.08Z" transform="translate(-160.577 -328.982)"/></g><g transform="translate(14.668 45.101)"><path class="b" d="M130.19,320.72a1.406,1.406,0,0,0-.22,2.8c9.181.719,14.07,3.4,14.07,5.066,0,.8-1.278,2.164-4.881,3.364a45.024,45.024,0,0,1-13.662,1.874,45.02,45.02,0,0,1-13.662-1.874c-3.6-1.2-4.881-2.562-4.881-3.364,0-.733.994-1.657,2.658-2.471a1.406,1.406,0,1,0-1.236-2.526c-3.5,1.713-4.235,3.663-4.235,5,0,5.285,10.743,8.05,21.355,8.05s21.355-2.765,21.355-8.05C146.853,323.744,137.876,321.322,130.19,320.72Z" transform="translate(-104.143 -320.716)"/></g></g></svg>