<svg xmlns="http://www.w3.org/2000/svg" viewBox="0 0 66.013 92"><defs><style>.a{fill:#00be6c;}</style></defs><path class="a" d="M133.905,0s-7.569,7.344-15.756,10.3C57.527,32.232,83.094,74.962,83.928,75.1c0,0,3.4-5.92,7.991-9.3,29.139-21.422,35.062-46.079,35.062-46.079S120.443,49.4,94.519,67.86c-5.726,4.075-9.6,14.11-11.244,24.14,0,0,4.059-1.64,5.8-2.084a32.291,32.291,0,0,1,4.509-12.493c36.232,4.314,48.1-24.881,49.649-35.061C146.9,18.319,133.905,0,133.905,0Z" transform="translate(-77.873)"/></svg>