<svg xmlns="http://www.w3.org/2000/svg" viewBox="0 0 48 48">
  <defs>
    <style>
      .cls-1 {
        fill: #efb802;
      }

      .cls-2 {
        fill: #fff;
      }
    </style>
  </defs>
  <g id="Group_271" data-name="Group 271" transform="translate(-384 -28)">
    <circle id="Ellipse_1" data-name="Ellipse 1" class="cls-1" cx="24" cy="24" r="24" transform="translate(384 28)"/>
    <path id="Path_366" data-name="Path 366" class="cls-2" d="M0-17.187a9.391,9.391,0,0,1,4.844,1.309,9.789,9.789,0,0,1,3.535,3.535A9.391,9.391,0,0,1,9.688-7.5,9.391,9.391,0,0,1,8.379-2.656,9.789,9.789,0,0,1,4.844.879,9.391,9.391,0,0,1,0,2.188,9.391,9.391,0,0,1-4.844.879,9.789,9.789,0,0,1-8.379-2.656,9.391,9.391,0,0,1-9.687-7.5a9.391,9.391,0,0,1,1.309-4.844,9.789,9.789,0,0,1,3.535-3.535A9.391,9.391,0,0,1,0-17.187ZM2.227-3.516a.423.423,0,0,0,.352.078.5.5,0,0,0,.313-.2L3.984-5.117a.486.486,0,0,0,.1-.352.428.428,0,0,0-.176-.312l-2.5-1.8v-5.391A.452.452,0,0,0,1.27-13.3a.452.452,0,0,0-.332-.137H-.937a.452.452,0,0,0-.332.137.452.452,0,0,0-.137.332v6.563a.481.481,0,0,0,.2.391Z" transform="translate(407.688 59.188)"/>
  </g>
</svg>
