<svg width="18" height="18" viewBox="0 0 18 18" fill="none" xmlns="http://www.w3.org/2000/svg">
<path fill-rule="evenodd" clip-rule="evenodd" d="M9 18C4.03733 18 0 13.9623 0 9C0 4.03733 4.03733 0 9 0C13.9627 0 18 4.03733 18 9C18 13.9623 13.9627 18 9 18ZM9 1.00167C4.589 1.00167 1 4.58967 1 9C1 13.4103 4.589 16.9983 9 16.9983C13.411 16.9983 17 13.4103 17 9C17 4.58967 13.411 1.00167 9 1.00167Z" fill="#008ED5"/>
<path fill-rule="evenodd" clip-rule="evenodd" d="M10.1434 13.674V8.04201V6.99701H6.80469V7.99834H7.80635V13.674H6.80469V14.6753H11.145V13.674H10.1434Z" fill="#008ED5"/>
<path fill-rule="evenodd" clip-rule="evenodd" d="M10.3623 4.75834C10.3623 5.51534 9.74964 6.12634 8.99364 6.12634C8.23798 6.12634 7.62598 5.51534 7.62598 4.75834C7.62598 4.00134 8.23831 3.39034 8.99364 3.39034C9.74964 3.39034 10.3623 4.00134 10.3623 4.75834Z" fill="#008ED5"/>
</svg>
