<svg width="150" height="30" viewBox="0 0 150 30" fill="none" xmlns="http://www.w3.org/2000/svg">
<path fill-rule="evenodd" clip-rule="evenodd" d="M58.202 18.0321C57.5109 19.6724 56.3447 21.0806 54.8816 22.068C53.4162 23.0585 51.6689 23.6283 49.7649 23.6283C48.4935 23.6283 47.2956 23.3739 46.2055 22.9127C44.5619 22.2154 43.1614 21.0521 42.1702 19.5884C41.1821 18.124 40.6098 16.3735 40.6098 14.4685C40.6098 13.1919 40.8647 11.9937 41.3286 10.8962C42.0182 9.25982 43.1883 7.84849 44.6458 6.86746C46.1128 5.87453 47.8633 5.29923 49.7649 5.29923C51.0372 5.29923 52.2326 5.55518 53.326 6.01797C54.9687 6.71372 56.3708 7.87623 57.3589 9.34065C58.3477 10.8067 58.9185 12.5587 58.9185 14.4685C58.9185 15.7412 58.6644 16.9354 58.202 18.0321ZM57.7983 2.54789C55.5087 0.995506 52.7322 0.0889587 49.7649 0.0889587C47.792 0.0889587 45.8951 0.489931 44.1724 1.2158C41.5922 2.31253 39.404 4.13435 37.8554 6.42765C36.3108 8.71542 35.402 11.4953 35.402 14.4685C35.402 16.444 35.8042 18.3419 36.5325 20.0631C37.6251 22.6457 39.4412 24.8359 41.7332 26.3875C44.022 27.936 46.8 28.8449 49.7649 28.8449C51.7418 28.8449 53.6355 28.4368 55.3575 27.7109C57.9352 26.6158 60.1266 24.7963 61.672 22.507C63.219 20.2137 64.1286 17.437 64.1286 14.4685C64.1286 12.4866 63.7249 10.5887 62.9981 8.86836C61.9032 6.28422 60.0902 4.09472 57.7983 2.54789Z" fill="#00A1F1"/>
<path fill-rule="evenodd" clip-rule="evenodd" d="M49.7647 10.0319C47.3215 10.0319 45.3359 12.0162 45.3359 14.4664C45.3359 16.9142 47.3215 18.8977 49.7647 18.8977C52.2134 18.8977 54.1911 16.9142 54.1911 14.4664C54.1911 12.0162 52.2134 10.0319 49.7647 10.0319Z" fill="#E42469"/>
<path fill-rule="evenodd" clip-rule="evenodd" d="M8.04612 28.6015L0.00012207 0.40506H5.25381L10.3025 20.1415L15.2347 0.40506H19.3127L24.2434 20.1415L29.2913 0.40506H34.5458L26.499 28.6015H22.1169L17.2749 9.70113L12.463 28.6015H8.04612Z" fill="#00A1F1"/>
<path fill-rule="evenodd" clip-rule="evenodd" d="M72.3968 5.44748V13.8307H75.4884C77.0908 13.8307 78.3599 13.4923 79.3052 12.8195C80.2426 12.1491 80.7152 11.0857 80.7152 9.63947C80.6891 8.21625 80.2125 7.16073 79.283 6.47607C78.3536 5.78902 77.0908 5.44748 75.4884 5.44748H72.3968ZM67.1843 28.6017V0.405212H75.3372C78.7383 0.405212 81.3533 1.20003 83.1837 2.80312C85.0117 4.3983 85.9285 6.58304 85.9285 9.34072C85.9285 11.6499 85.2199 13.6476 83.8115 15.3379C82.4039 17.0194 80.5664 17.9648 78.3084 18.17L86.2333 28.6017H79.9235L72.5655 18.17H72.3968V28.6017H67.1843Z" fill="#00A1F1"/>
<path fill-rule="evenodd" clip-rule="evenodd" d="M89.7322 28.6015V0.40506H94.9455V12.6387L103.698 0.40506H109.831L99.2555 14.2767L109.808 28.6015H103.698L94.9455 16.2554V28.6015H89.7322Z" fill="#00A1F1"/>
<mask id="mask0" mask-type="alpha" maskUnits="userSpaceOnUse" x="0" y="0" width="150" height="30">
<path fill-rule="evenodd" clip-rule="evenodd" d="M0 29.1034H149.942V0.0891113H0V29.1034Z" fill="white"/>
</mask>
<g mask="url(#mask0)">
<path fill-rule="evenodd" clip-rule="evenodd" d="M113.277 28.6018H116.893V24.9843H113.277V28.6018Z" fill="#00A1F1"/>
<path fill-rule="evenodd" clip-rule="evenodd" d="M132.365 13.5688V28.6014H129.048V27.217H128.989C128.504 27.8161 127.93 28.282 127.271 28.6093C126.612 28.9358 125.886 29.1038 125.092 29.1038C123.047 29.1038 121.524 28.4738 120.512 27.2146C119.503 25.9578 119.004 24.1225 119.021 21.7167V13.5688H122.635V21.2325C122.617 22.7912 122.863 23.9268 123.367 24.6416C123.871 25.354 124.65 25.705 125.698 25.6899C126.725 25.705 127.485 25.354 127.994 24.6416C128.497 23.9268 128.751 22.7912 128.751 21.2325V13.5688H132.365Z" fill="#00A1F1"/>
<path fill-rule="evenodd" clip-rule="evenodd" d="M142.238 16.4797C140.939 16.4797 139.882 16.9298 139.061 17.8284C138.243 18.7294 137.834 19.8579 137.834 21.2224C137.815 22.5268 138.215 23.6021 139.036 24.435C139.855 25.2702 140.924 25.6902 142.238 25.6902C143.516 25.6902 144.556 25.2631 145.344 24.4088C146.135 23.553 146.532 22.4388 146.532 21.0552C146.532 19.7493 146.135 18.6589 145.344 17.7888C144.556 16.9147 143.516 16.4797 142.238 16.4797ZM149.942 13.5691V28.6016H146.621V26.5745H146.567C145.934 27.4248 145.183 28.058 144.307 28.4629C143.431 28.8679 142.514 29.0834 141.554 29.1032C139.551 29.1032 137.826 28.3781 136.385 26.9272C134.94 25.481 134.22 23.576 134.22 21.2224C134.22 18.8847 134.936 16.9393 136.37 15.3925C137.803 13.8433 139.569 13.0659 141.663 13.0659C142.714 13.0659 143.656 13.287 144.496 13.7331C145.334 14.1801 146.027 14.8235 146.567 15.6746H146.621V13.5691H149.942Z" fill="#00A1F1"/>
</g>
</svg>
