<svg width="18" height="18" viewBox="0 0 18 18" fill="none" xmlns="http://www.w3.org/2000/svg">
<path d="M15.3639 2.63605C13.6641 0.936176 11.404 0 9 0C6.59602 0 4.33593 0.936211 2.63605 2.63605C0.936176 4.33589 0 6.59602 0 9C0 11.404 0.936176 13.6641 2.63605 15.3639C4.33589 17.0638 6.59602 18 9 18C11.404 18 13.6641 17.0638 15.3639 15.3639C17.0638 13.6641 18 11.404 18 9C18 6.59602 17.0638 4.33589 15.3639 2.63605ZM9 16.5458C4.83926 16.5458 1.4542 13.1607 1.4542 9C1.4542 4.83926 4.83926 1.4542 9 1.4542C13.1607 1.4542 16.5458 4.83926 16.5458 9C16.5458 13.1607 13.1607 16.5458 9 16.5458Z" fill="black"/>
<path d="M11.9966 10.9671L9.72764 8.69826V4.0357C9.72764 3.63414 9.40213 3.30859 9.00054 3.30859C8.59898 3.30859 8.27344 3.63414 8.27344 4.0357V8.99944C8.27344 9.19231 8.35004 9.37723 8.48641 9.5136L10.9682 11.9955C11.1102 12.1375 11.2963 12.2084 11.4824 12.2084C11.6685 12.2084 11.8546 12.1375 11.9966 11.9955C12.2805 11.7115 12.2805 11.2511 11.9966 10.9671Z" fill="black"/>
</svg>
