<svg width="12" height="12" viewBox="0 0 12 12" fill="none" xmlns="http://www.w3.org/2000/svg">
<path d="M5.42592 5.95997L0.114422 11.2715C-0.0331406 11.419 -0.0331406 11.6581 0.114422 11.8057C0.188109 11.8795 0.284859 11.9163 0.381422 11.9163C0.478172 11.9163 0.574734 11.8795 0.648422 11.8057L5.99986 6.45422L11.3513 11.8057C11.4252 11.8795 11.5217 11.9163 11.6183 11.9163C11.7149 11.9163 11.8116 11.8795 11.8853 11.8057C12.0329 11.6581 12.0329 11.419 11.8853 11.2715L6.57398 5.95997L11.8889 0.644719C12.0364 0.497156 12.0364 0.258094 11.8889 0.110531C11.7413 -0.0368438 11.5022 -0.0368438 11.3549 0.110531L6.00005 5.46572L0.644672 0.110719C0.497109 -0.0366563 0.258234 -0.0366563 0.110672 0.110719C-0.0368906 0.258281 -0.0368906 0.497344 0.110672 0.644906L5.42592 5.95997Z" fill="white"/>
</svg>
