<svg width="160" height="32" viewBox="0 0 160 32" fill="none" xmlns="http://www.w3.org/2000/svg">
<g clip-path="url(#clip0)">
<path fill-rule="evenodd" clip-rule="evenodd" d="M62.7494 17.8587V20.834H52.1094V0H55.7757V17.8587H62.7494ZM50.2728 0V2.97528H43.2991V8.5758H48.8228V11.5581H43.2991V20.834H39.6328V0H50.2728ZM160 0V2.97528H151.901C151.715 2.98602 151.539 3.06892 151.41 3.20694C151.282 3.34495 151.211 3.52761 151.211 3.71735V17.1166C151.212 17.3133 151.288 17.5019 151.425 17.6417C151.563 17.7795 151.749 17.8573 151.943 17.8587H156.348V12.2582H153.414V9.30387H160.021V20.834H151.211C150.239 20.834 149.306 20.4423 148.618 19.7452C147.931 19.048 147.545 18.1025 147.545 17.1166V3.71735C147.545 2.73145 147.931 1.78592 148.618 1.08879C149.306 0.391648 150.239 0 151.211 0L160 0ZM110.474 11.5371V17.8377H114.879C115.073 17.8371 115.259 17.7591 115.397 17.6207C115.468 17.5538 115.524 17.4725 115.563 17.382C115.601 17.2915 115.619 17.1939 115.618 17.0956V12.2792C115.619 12.1808 115.601 12.0832 115.563 11.9928C115.524 11.9023 115.468 11.821 115.397 11.7541C115.259 11.6156 115.073 11.5377 114.879 11.5371H110.474ZM114.147 8.5548C114.341 8.5548 114.527 8.47662 114.665 8.33746C114.802 8.19829 114.879 8.00954 114.879 7.81273V3.71735C114.875 3.52166 114.797 3.33499 114.661 3.1966C114.524 3.05821 114.34 2.97887 114.147 2.97528H110.474V8.5758L114.147 8.5548ZM118.552 7.81273C118.559 8.19084 118.451 8.56195 118.242 8.87525C118.033 9.18855 117.734 9.42873 117.385 9.5629C118.801 9.70991 119.284 10.893 119.284 12.2792V17.1166C119.28 18.1014 118.893 19.0448 118.206 19.7411C117.519 20.4374 116.589 20.8303 115.618 20.834H106.787V0H114.858C115.831 0.00184294 116.763 0.393861 117.451 1.0904C118.139 1.78694 118.528 2.73137 118.532 3.71735L118.552 7.81273ZM142.663 20.834L140.026 12.6502H136.898V20.834H133.231V0H142.035C143.004 0.00736551 143.931 0.401821 144.614 1.09777C145.298 1.79371 145.684 2.73499 145.687 3.71735V8.93284C145.685 9.6028 145.504 10.2597 145.165 10.8348C144.827 11.41 144.341 11.8822 143.761 12.2021L146.965 20.834H142.663ZM136.877 2.97528V9.67491H141.282C141.476 9.67432 141.662 9.59637 141.8 9.45789C141.936 9.31774 142.013 9.12941 142.014 8.93284V3.71735C142.013 3.52077 141.936 3.33245 141.8 3.1923C141.662 3.05382 141.476 2.97587 141.282 2.97528H136.877ZM101.539 20.834L98.9018 12.6502H95.774V20.834H92.1077V0H100.918C101.889 0.0036883 102.82 0.396521 103.506 1.09286C104.193 1.7892 104.581 2.73258 104.584 3.71735V8.93284C104.582 9.6028 104.401 10.2597 104.062 10.8348C103.724 11.41 103.238 11.8822 102.658 12.2021L105.862 20.834H101.539ZM95.774 2.97528V9.67491H100.179C100.373 9.67432 100.559 9.59637 100.697 9.45789C100.766 9.38973 100.822 9.30817 100.86 9.218C100.898 9.12783 100.917 9.03087 100.918 8.93284V3.71735C100.917 3.61931 100.898 3.52236 100.86 3.43219C100.822 3.34202 100.766 3.26046 100.697 3.1923C100.559 3.05382 100.373 2.97587 100.179 2.97528H95.774ZM120.734 0H131.374V2.97528H124.4V8.5758H129.924V11.5581H124.4V17.8587H131.374V20.834H120.734V0ZM85.8659 2.97528H82.1996C82.0056 2.97587 81.8196 3.05382 81.6818 3.1923C81.5458 3.33245 81.469 3.52077 81.4677 3.71735V17.1166C81.4677 17.3134 81.5448 17.5022 81.6821 17.6413C81.8193 17.7805 82.0055 17.8587 82.1996 17.8587H85.8659C85.9624 17.8612 86.0583 17.8432 86.1475 17.8058C86.2367 17.7684 86.3172 17.7125 86.3838 17.6417C86.4549 17.5748 86.5114 17.4935 86.5494 17.403C86.5875 17.3125 86.6063 17.215 86.6047 17.1166V3.71735C86.6011 3.52047 86.5219 3.33278 86.384 3.19419C86.246 3.05561 86.0601 2.97707 85.8659 2.97528ZM81.4746 0H86.6116C87.5829 0.0036883 88.5133 0.396521 89.2001 1.09286C89.8869 1.7892 90.2743 2.73258 90.278 3.71735V17.1166C90.2743 18.1014 89.8869 19.0448 89.2001 19.7411C88.5133 20.4374 87.5829 20.8303 86.6116 20.834H81.4746C80.5022 20.8321 79.57 20.4401 78.8817 19.7436C78.1934 19.047 77.805 18.1026 77.8014 17.1166V3.71735C77.805 2.73137 78.1934 1.78694 78.8817 1.0904C79.57 0.393861 80.5022 0.00184294 81.4746 0V0ZM71.5596 2.97528H67.8864C67.6924 2.97587 67.5064 3.05382 67.3685 3.1923C67.2326 3.33245 67.1558 3.52077 67.1545 3.71735V17.1166C67.1545 17.3134 67.2316 17.5022 67.3689 17.6413C67.5061 17.7805 67.6923 17.8587 67.8864 17.8587H71.5596C71.7535 17.8573 71.9392 17.7795 72.0775 17.6417C72.214 17.5019 72.2909 17.3133 72.2915 17.1166V3.71735C72.2915 3.52054 72.2144 3.33179 72.0771 3.19263C71.9399 3.05346 71.7537 2.97528 71.5596 2.97528ZM67.1545 0H72.2915C73.2627 0.00185441 74.1935 0.394321 74.8795 1.09126C75.5656 1.7882 75.9509 2.73266 75.9509 3.71735V17.1166C75.9509 18.1025 75.5647 19.048 74.8771 19.7452C74.1895 20.4423 73.257 20.834 72.2846 20.834H67.1545C66.182 20.8321 65.2498 20.4401 64.5616 19.7436C63.8733 19.047 63.4849 18.1026 63.4813 17.1166V3.71735C63.4849 2.73137 63.8733 1.78694 64.5616 1.0904C65.2498 0.393861 66.182 0.00184294 67.1545 0V0Z" fill="white"/>
<path d="M158.724 28.9748H157.343C157.196 28.9863 157.048 28.968 156.908 28.9212C156.768 28.8743 156.639 28.7997 156.528 28.7017C156.433 28.6128 156.358 28.5043 156.308 28.3836C156.258 28.2628 156.234 28.1326 156.238 28.0017C156.233 27.8706 156.257 27.7401 156.307 27.6192C156.357 27.4983 156.432 27.3899 156.528 27.3016C156.744 27.1082 157.027 27.0078 157.315 27.0216H158.696L158.724 28.9748ZM157.343 30.1509H158.724V31.747H160.001V25.9015H157.315C156.981 25.8969 156.649 25.9538 156.335 26.0695C156.059 26.1678 155.806 26.32 155.589 26.5175C155.385 26.7147 155.225 26.9533 155.119 27.2176C155.008 27.4857 154.952 27.7739 154.954 28.0647C154.943 28.3676 155 28.669 155.119 28.9468C155.219 29.1549 155.349 29.3461 155.506 29.5138C155.669 29.6807 155.861 29.816 156.072 29.9128L154.912 31.803H156.293L157.343 30.1509ZM150.01 31.747L152.33 27.9667H152.413V31.747H153.697V25.9015H152.316L149.996 29.6818H149.83V25.9015H148.546V31.782L150.01 31.747ZM142.525 27.0426H144.307V31.747H145.591V27.0426H147.414V25.9015H142.484L142.525 27.0426ZM137.347 30.5429H136.159V28.8067H137.319C137.597 28.7885 137.871 28.8787 138.086 29.0588C138.171 29.1393 138.239 29.2369 138.286 29.3453C138.332 29.4537 138.356 29.5706 138.356 29.6888C138.356 29.807 138.332 29.924 138.286 30.0324C138.239 30.1408 138.171 30.2383 138.086 30.3189C137.871 30.499 137.597 30.5891 137.319 30.5709L137.347 30.5429ZM139.708 29.6608C139.71 29.3858 139.654 29.1137 139.543 28.8627C139.436 28.6129 139.276 28.3904 139.073 28.2117C138.873 28.0206 138.639 27.8708 138.383 27.7706C138.078 27.6548 137.755 27.5978 137.43 27.6026H136.159V25.9015H134.875V31.782H137.319C137.653 31.7889 137.985 31.7343 138.3 31.621C138.572 31.5196 138.824 31.3703 139.045 31.18C139.244 30.9979 139.404 30.7763 139.515 30.5289C139.631 30.2648 139.687 29.9778 139.681 29.6888L139.708 29.6608ZM141.476 31.719V25.9015H140.164V31.782L141.476 31.719ZM133.881 28.0227C133.884 27.7334 133.827 27.4466 133.716 27.1804C133.604 26.9141 133.439 26.6742 133.232 26.4755C133.011 26.2713 132.753 26.112 132.472 26.0065C132.153 25.8906 131.817 25.8337 131.478 25.8385H128.716V31.719H130V30.2349H131.492C131.831 30.2396 132.167 30.1827 132.486 30.0669C132.766 29.9637 133.024 29.8069 133.246 29.6048C133.45 29.4054 133.614 29.1676 133.729 28.9048C133.817 28.6295 133.85 28.3391 133.826 28.0507L133.881 28.0227ZM132.597 28.0227C132.597 28.1579 132.569 28.2916 132.514 28.4147C132.459 28.5357 132.381 28.645 132.286 28.7367C132.183 28.8306 132.063 28.9042 131.934 28.9538C131.788 29.0092 131.633 29.0354 131.478 29.0308H129.987V27.0426H131.478C131.634 27.0402 131.789 27.0687 131.934 27.1266C132.065 27.1734 132.185 27.2473 132.286 27.3436C132.381 27.4353 132.459 27.5446 132.514 27.6656C132.559 27.7886 132.577 27.9198 132.569 28.0507L132.597 28.0227ZM121.121 28.7787C121.124 28.3527 121.039 27.9307 120.873 27.5396C120.71 27.1587 120.476 26.8138 120.182 26.5245C119.892 26.2291 119.55 25.9916 119.174 25.8245C118.394 25.4895 117.516 25.4803 116.73 25.7989C115.943 26.1175 115.313 26.7381 114.976 27.5256C114.812 27.9188 114.728 28.3414 114.728 28.7682C114.728 29.1951 114.812 29.6176 114.976 30.0109C115.141 30.3906 115.375 30.7351 115.667 31.0259C116.121 31.4779 116.696 31.785 117.32 31.9094C117.945 32.0338 118.592 31.97 119.181 31.726C119.558 31.5592 119.9 31.3217 120.189 31.0259C120.481 30.7354 120.715 30.3908 120.88 30.0109C121.02 29.6261 121.084 29.2167 121.066 28.8067L121.121 28.7787ZM116.026 28.7787C116.025 28.5068 116.079 28.2376 116.184 27.9877C116.278 27.7487 116.419 27.5318 116.599 27.3506C116.768 27.1685 116.973 27.0232 117.199 26.9236C117.429 26.8175 117.679 26.7626 117.931 26.7625C118.186 26.7625 118.438 26.8174 118.67 26.9236C118.897 27.0232 119.101 27.1685 119.271 27.3506C119.446 27.5355 119.586 27.7514 119.685 27.9877C119.89 28.4969 119.89 29.0675 119.685 29.5768C119.586 29.813 119.446 30.029 119.271 30.2139C119.099 30.3939 118.895 30.5389 118.67 30.6409C118.437 30.7447 118.185 30.7972 117.931 30.7949C117.679 30.7973 117.43 30.7448 117.199 30.6409C116.974 30.5389 116.77 30.3939 116.599 30.2139C116.419 30.0327 116.278 29.8158 116.184 29.5768C116.072 29.3352 116.009 29.0734 115.998 28.8067L116.026 28.7787ZM108.727 25.9015V31.782H110.012V27.0426H112.456V31.747H113.74V25.9015H108.727ZM103.404 30.6059H100.117V29.4018H102.727V28.2187H100.117V27.0426H103.432V25.9015H98.8055V31.782H103.404V30.6059ZM93.0471 30.6059H91.901V28.8067H93.0609C93.3387 28.7885 93.6129 28.8787 93.8273 29.0588C93.9126 29.1393 93.9807 29.2369 94.0272 29.3453C94.0737 29.4537 94.0977 29.5706 94.0977 29.6888C94.0977 29.807 94.0737 29.924 94.0272 30.0324C93.9807 30.1408 93.9126 30.2383 93.8273 30.3189C93.6129 30.499 93.3387 30.5891 93.0609 30.5709L93.0471 30.6059ZM95.4085 29.7238C95.4102 29.4504 95.3544 29.1797 95.2449 28.9299C95.1353 28.68 94.9746 28.4566 94.7733 28.2747C94.5608 28.0796 94.3119 27.9297 94.0414 27.8336C93.7392 27.7183 93.4183 27.6613 93.0954 27.6656H91.901V25.9015H90.6167V31.782H93.0609C93.3946 31.7889 93.7268 31.7343 94.0414 31.621C94.3122 31.5212 94.5627 31.3717 94.7802 31.18C94.9832 31.0001 95.1457 30.7781 95.2566 30.5289C95.3725 30.2648 95.429 29.9778 95.4223 29.6888L95.4085 29.7238ZM97.1691 31.782V25.9015H95.8849V31.782H97.1691ZM84.0504 25.9015V31.782H85.3347V29.4718H87.7789V31.782H89.0701V25.9015H87.7858V28.2957H85.3416V25.9015H84.0504ZM79.0791 27.0776H80.46C80.5321 27.0737 80.6041 27.0848 80.6717 27.1101C80.7394 27.1353 80.8013 27.1743 80.8536 27.2246C80.901 27.2705 80.9384 27.326 80.9634 27.3875C80.9884 27.449 81.0004 27.5151 80.9986 27.5816C81.0005 27.6492 80.9886 27.7164 80.9636 27.779C80.9387 27.8417 80.9012 27.8984 80.8536 27.9457C80.8009 27.995 80.7388 28.0329 80.6711 28.057C80.6034 28.0811 80.5316 28.0909 80.46 28.0857H79.0791V27.0776ZM80.9019 30.5779H79.0791V29.2268H80.9019C81.1128 29.2155 81.32 29.2855 81.4819 29.4228C81.5486 29.482 81.6017 29.5553 81.6375 29.6376C81.6733 29.7198 81.6909 29.809 81.6891 29.8988C81.691 29.9897 81.6734 30.08 81.6377 30.1634C81.6019 30.2467 81.5488 30.3213 81.4819 30.3819C81.3262 30.5101 81.1301 30.5772 80.9296 30.5709L80.9019 30.5779ZM80.4877 25.8735H77.7949V31.754H80.9019C81.204 31.7594 81.5049 31.7144 81.7926 31.621C82.0434 31.5383 82.2774 31.4103 82.4831 31.243C82.6595 31.0861 82.8008 30.8928 82.8974 30.6759C82.9962 30.4563 83.0457 30.2172 83.0424 29.9759C83.0465 29.8291 83.0279 29.6827 82.9871 29.5418C82.9512 29.4202 82.8976 29.3046 82.8283 29.1988C82.7679 29.0996 82.6935 29.01 82.6074 28.9328C82.5297 28.861 82.4466 28.7954 82.3588 28.7367C82.1475 28.6028 81.9133 28.5102 81.6684 28.4637V28.3797C81.7973 28.3385 81.917 28.2718 82.0205 28.1837C82.1166 28.092 82.1981 27.9857 82.2621 27.8687C82.3428 27.7162 82.381 27.5444 82.3726 27.3716C82.3728 27.1793 82.3278 26.9897 82.2414 26.8186C82.1463 26.6365 82.02 26.4729 81.8686 26.3355C81.6927 26.1858 81.4915 26.0696 81.2748 25.9925C81.0287 25.918 80.7717 25.8872 80.5153 25.9015L80.4877 25.8735ZM72.4991 31.747L74.819 27.9667H74.9019V31.747H76.1861V25.9015H74.8052L72.4991 29.6468H72.4162V25.9015H71.1181V31.782L72.4991 31.747ZM65.1457 27.0426H66.9754V31.747H68.2596V27.0426H70.0825V25.9015H65.1457V27.0426ZM64.6002 28.0507C64.603 27.7614 64.5467 27.4746 64.435 27.2084C64.3234 26.9421 64.1586 26.7022 63.9512 26.5035C63.7289 26.3008 63.4713 26.1417 63.1917 26.0345C62.8707 25.9305 62.534 25.8855 62.1974 25.9015H59.4356V31.782H60.7198V30.2349H62.2112C62.5432 30.2492 62.8751 30.2042 63.1917 30.1019C63.471 29.997 63.7285 29.8404 63.9512 29.6398C64.1555 29.4404 64.3196 29.2027 64.4345 28.9398C64.5509 28.6585 64.6074 28.3556 64.6002 28.0507ZM63.316 28.0507C63.3165 28.1859 63.2883 28.3196 63.2331 28.4427C63.178 28.5637 63.1007 28.673 63.0053 28.7647C62.9021 28.8586 62.7827 28.9322 62.6531 28.9818C62.5075 29.0367 62.3528 29.0629 62.1974 29.0588H60.706V27.0426H62.1974C62.3532 27.0407 62.5079 27.0692 62.6531 27.1266C62.7841 27.1734 62.904 27.2473 63.0053 27.3436C63.1007 27.4353 63.178 27.5446 63.2331 27.6656C63.2875 27.7865 63.3157 27.9178 63.316 28.0507ZM58.393 28.8067C58.3959 28.3807 58.3113 27.9587 58.1444 27.5676C57.9815 27.187 57.747 26.8422 57.454 26.5525C57.1655 26.2556 56.8232 26.0179 56.4459 25.8525C55.6432 25.5168 54.7422 25.5168 53.9395 25.8525C53.5631 26.0196 53.2212 26.2571 52.9315 26.5525C52.638 26.8418 52.4034 27.1867 52.241 27.5676C52.0771 27.9608 51.9927 28.3834 51.9927 28.8102C51.9927 29.2371 52.0771 29.6597 52.241 30.0529C52.4051 30.4328 52.6395 30.7774 52.9315 31.068C53.2209 31.3637 53.563 31.6012 53.9395 31.768C54.5281 32.0157 55.1758 32.0814 55.8012 31.9568C56.4265 31.8323 57.0015 31.523 57.454 31.068C57.7455 30.7771 57.9799 30.4326 58.1444 30.0529C58.312 29.6596 58.3967 29.2351 58.393 28.8067ZM53.2974 28.8067C53.2925 28.5306 53.3443 28.2565 53.4493 28.0017C53.5479 27.7654 53.6883 27.5495 53.8636 27.3646C54.0332 27.1825 54.2376 27.0372 54.4643 26.9376C54.7082 26.8312 54.9723 26.781 55.2376 26.7906C55.4761 26.7964 55.711 26.8512 55.928 26.9516C56.1548 27.0512 56.3591 27.1965 56.5287 27.3786C56.7086 27.5598 56.8496 27.7767 56.943 28.0157C57.0477 28.2671 57.1016 28.5373 57.1016 28.8102C57.1016 29.0832 57.0477 29.3533 56.943 29.6048C56.8496 29.8438 56.7086 30.0607 56.5287 30.2419C56.3573 30.4219 56.1534 30.5669 55.928 30.6689C55.7091 30.7599 55.4742 30.8051 55.2376 30.8019C54.9833 30.8042 54.7315 30.7517 54.4988 30.6479C54.2604 30.5569 54.0421 30.4189 53.8567 30.2419C53.6814 30.057 53.541 29.841 53.4424 29.6048C53.3408 29.3516 53.2915 29.08 53.2974 28.8067ZM45.9647 25.9015V31.782H47.249V27.0426H49.7139V31.747H50.9982V25.9015H45.9647ZM125.906 25.9015H127.356L125.699 28.7017L127.605 31.726H126.113L124.649 29.3318H123.303V31.726H122.019V25.9015H123.303V28.2117H124.615L125.906 25.9015ZM44.8324 26.6015C44.5439 26.3046 44.2016 26.0669 43.8243 25.9015C43.0217 25.5658 42.1206 25.5658 41.3179 25.9015C40.9416 26.0686 40.5996 26.3061 40.3099 26.6015C40.0164 26.8908 39.7818 27.2357 39.6194 27.6166C39.4555 28.0098 39.3711 28.4324 39.3711 28.8592C39.3711 29.2861 39.4555 29.7087 39.6194 30.1019C39.7835 30.4818 40.0179 30.8264 40.3099 31.117C40.5994 31.4127 40.9414 31.6502 41.3179 31.817C41.9065 32.0647 42.5542 32.1304 43.1796 32.0058C43.8049 31.8813 44.3799 31.572 44.8324 31.117L43.9072 30.2419C43.7358 30.4219 43.5318 30.5669 43.3065 30.6689C43.0762 30.7728 42.8266 30.8253 42.5746 30.8229C42.3203 30.8252 42.0685 30.7727 41.8358 30.6689C41.6104 30.5669 41.4065 30.4219 41.2351 30.2419C41.0598 30.057 40.9194 29.841 40.8208 29.6048C40.6155 29.0955 40.6155 28.5249 40.8208 28.0157C40.9194 27.7794 41.0598 27.5635 41.2351 27.3786C41.4047 27.1965 41.6091 27.0512 41.8358 26.9516C42.068 26.8454 42.3198 26.7905 42.5746 26.7906C42.8271 26.7906 43.0766 26.8455 43.3065 26.9516C43.5332 27.0512 43.7375 27.1965 43.9072 27.3786L44.8324 26.6015Z" fill="white"/>
<path d="M13.6573 4.78845C21.2523 5.43951 27.3422 6.98666 31.3123 8.79983V16.9836C28.4745 9.00284 21.2523 6.11857 13.6573 4.78845ZM2.43732 19.3358C12.884 13.3503 20.8242 6.03457 3.12778 4.2564C21.4387 5.06147 20.7138 12.6992 15.3006 21.17L2.43732 19.3358ZM7.06339 31.748H0V20.6869L14.0646 22.9972C11.9795 25.9514 9.44548 28.9477 7.06339 31.748ZM0 18.2437V10.326C8.45812 8.67381 13.2016 5.92956 0 4.54343C19.4917 5.3205 13.243 11.4811 0 18.2437ZM30.9947 25.7764C31.1742 27.6526 31.2778 29.6478 31.3123 31.748H11.5169C13.2223 29.1577 15.2177 26.3155 16.8955 23.4592L30.9947 25.7764ZM8.34765 4.48042C23.6275 5.3625 29.0614 12.0551 30.7047 23.3822L17.9519 21.548C22.0394 13.8823 22.8266 6.56662 8.34765 4.48042ZM31.3123 0H0V2.54824C10.4552 2.47051 20.9071 2.95189 31.3123 3.99037V0Z" fill="white"/>
</g>
<defs>
<clipPath id="clip0">
<rect width="160" height="32" fill="white"/>
</clipPath>
</defs>
</svg>
