<svg width="160" height="32" viewBox="0 0 160 32" fill="none" xmlns="http://www.w3.org/2000/svg">
<path fill-rule="evenodd" clip-rule="evenodd" d="M62.4739 17.5364V20.458H51.8805V0H55.5308V17.5364H62.4739ZM50.052 0V2.92159H43.1089V8.42105H48.6083V11.3495H43.1089V20.458H39.4586V0H50.052ZM159.299 0V2.92159H151.235C151.05 2.9353 150.877 3.01767 150.75 3.15252C150.623 3.28736 150.551 3.46491 150.548 3.65027V16.8077C150.548 17.0009 150.625 17.1861 150.761 17.3233C150.899 17.4587 151.083 17.5351 151.276 17.5364H155.662V12.037H152.741V9.13598H159.319V20.458H150.548C150.068 20.4598 149.592 20.3666 149.149 20.1838C148.705 20.001 148.302 19.7322 147.963 19.3929C147.623 19.0536 147.354 18.6505 147.172 18.2068C146.989 17.7631 146.896 17.2876 146.898 16.8077V3.65027C146.898 2.68216 147.282 1.7537 147.967 1.06914C148.651 0.384581 149.58 0 150.548 0L159.299 0ZM109.989 11.3289V17.5158H114.375C114.568 17.5152 114.753 17.4387 114.891 17.3027C114.96 17.2364 115.015 17.1563 115.052 17.0675C115.089 16.9787 115.106 16.8832 115.104 16.7871V12.0576C115.104 11.8643 115.027 11.679 114.89 11.5423C114.754 11.4057 114.568 11.3289 114.375 11.3289H109.989ZM113.646 8.40043C113.84 8.40043 114.025 8.32366 114.162 8.18701C114.298 8.05035 114.375 7.86501 114.375 7.67175V3.65027C114.372 3.45811 114.294 3.27481 114.158 3.13892C114.022 3.00302 113.839 2.92512 113.646 2.92159H109.989V8.42105L113.646 8.40043ZM118.032 7.67175C118.039 8.04303 117.932 8.40744 117.724 8.71509C117.516 9.02274 117.218 9.25859 116.87 9.39033C118.245 9.53469 118.761 10.6965 118.761 12.0576V16.8077C118.761 17.2877 118.666 17.7629 118.482 18.2062C118.299 18.6495 118.029 19.0522 117.689 19.3913C117.35 19.7303 116.946 19.9991 116.503 20.1821C116.059 20.3652 115.584 20.4589 115.104 20.458H106.318V0H114.354C115.323 0.00180968 116.251 0.386753 116.936 1.07072C117.621 1.75469 118.008 2.68208 118.012 3.65027L118.032 7.67175ZM142.037 20.458L139.411 12.4219H136.297V20.458H132.647V0H141.412C142.376 0.0072326 143.299 0.39457 143.98 1.07796C144.661 1.76134 145.045 2.68564 145.048 3.65027V8.77164C145.046 9.42951 144.866 10.0746 144.529 10.6393C144.191 11.2041 143.708 11.6678 143.13 11.982L146.32 20.458H142.037ZM136.277 2.92159V9.50032H140.663C140.856 9.49975 141.041 9.4232 141.178 9.28722C141.313 9.1496 141.39 8.96467 141.391 8.77164V3.65027C141.388 3.45811 141.31 3.27481 141.174 3.13892C141.038 3.00302 140.855 2.92512 140.663 2.92159H136.277ZM101.094 20.458L98.4679 12.4219H95.3538V20.458H91.7035V0H100.475C101.442 0.00362175 102.369 0.389365 103.052 1.07314C103.736 1.75691 104.122 2.68327 104.125 3.65027V8.77164C104.123 9.42951 103.943 10.0746 103.606 10.6393C103.269 11.2041 102.786 11.6678 102.207 11.982L105.397 20.458H101.094ZM95.3538 2.92159V9.50032H99.7396C99.9328 9.49975 100.118 9.4232 100.255 9.28722C100.324 9.22029 100.379 9.1402 100.417 9.05166C100.455 8.96311 100.475 8.86791 100.475 8.77164V3.65027C100.476 3.55485 100.457 3.46035 100.419 3.37277C100.381 3.28519 100.325 3.20645 100.255 3.14157C100.19 3.07074 100.11 3.01454 100.021 2.97664C99.932 2.93874 99.8362 2.91998 99.7396 2.92159H95.3538ZM120.204 0H130.798V2.92159H123.855V8.42105H129.354V11.3495H123.855V17.5364H130.798V20.458H120.204V0ZM85.4891 2.92159H81.8389C81.6479 2.92686 81.4663 3.00554 81.3319 3.14125C81.1975 3.27697 81.1205 3.45928 81.1171 3.65027V16.8077C81.1171 17.001 81.1938 17.1863 81.3305 17.323C81.4671 17.4596 81.6525 17.5364 81.8457 17.5364H85.496C85.5921 17.5389 85.6876 17.5212 85.7764 17.4845C85.8652 17.4478 85.9453 17.3929 86.0116 17.3233C86.0824 17.2576 86.1386 17.1778 86.1765 17.089C86.2144 17.0001 86.2332 16.9043 86.2316 16.8077V3.65027C86.2322 3.55485 86.213 3.46035 86.1751 3.37277C86.1372 3.28519 86.0815 3.20645 86.0116 3.14157C85.9451 3.06986 85.8642 3.01315 85.7741 2.97522C85.684 2.93729 85.5868 2.919 85.4891 2.92159ZM81.1171 0H86.2316C87.1986 0.00362175 88.1249 0.389365 88.8087 1.07314C89.4925 1.75691 89.8782 2.68327 89.8818 3.65027V16.8077C89.8818 17.7758 89.4972 18.7043 88.8127 19.3889C88.1281 20.0734 87.1997 20.458 86.2316 20.458H81.1171C80.6371 20.4589 80.1617 20.3652 79.718 20.1821C79.2744 19.9991 78.8712 19.7303 78.5315 19.3913C78.1918 19.0522 77.9223 18.6495 77.7384 18.2062C77.5546 17.7629 77.4599 17.2877 77.4599 16.8077V3.65027C77.4635 2.68208 77.8502 1.75469 78.5355 1.07072C79.2207 0.386753 80.1489 0.00180968 81.1171 0V0ZM71.2455 2.92159H67.5884C67.3962 2.92512 67.2129 3.00302 67.077 3.13892C66.9411 3.27481 66.8632 3.45811 66.8597 3.65027V16.8077C66.8597 17.001 66.9365 17.1863 67.0731 17.323C67.2098 17.4596 67.3951 17.5364 67.5884 17.5364H71.2455C71.4385 17.5351 71.6235 17.4587 71.7611 17.3233C71.8971 17.1861 71.9736 17.0009 71.9742 16.8077V3.65027C71.9707 3.45811 71.8928 3.27481 71.7569 3.13892C71.621 3.00302 71.4377 2.92512 71.2455 2.92159ZM66.8597 0H71.9742C72.94 0.00542938 73.8646 0.391971 74.5469 1.07555C75.2292 1.75913 75.614 2.68446 75.6176 3.65027V16.8077C75.6194 17.2876 75.5262 17.7631 75.3434 18.2068C75.1606 18.6505 74.8918 19.0536 74.5525 19.3929C74.2132 19.7322 73.8101 20.001 73.3664 20.1838C72.9227 20.3666 72.4472 20.4598 71.9673 20.458H66.8597C66.3798 20.4589 65.9044 20.3652 65.4607 20.1821C65.017 19.9991 64.6138 19.7303 64.2741 19.3913C63.9344 19.0522 63.6649 18.6495 63.4811 18.2062C63.2972 17.7629 63.2026 17.2877 63.2026 16.8077V3.65027C63.2062 2.68208 63.5929 1.75469 64.2781 1.07072C64.9634 0.386753 65.8915 0.00180968 66.8597 0V0Z" fill="#0A0203"/>
<path fill-rule="evenodd" clip-rule="evenodd" d="M89.3662 25.4343H90.8098L89.16 28.1841L91.0573 31.1538H89.5725L88.1151 28.8028H86.7402V31.1538H85.4616V25.4343H86.7402V27.7029H88.0464L89.3662 25.4343ZM154.391 26.5892H156.205V31.2088H157.484V26.5548H159.299V25.4343H154.391V26.5892ZM153.462 30.0264H150.163V28.8715H152.761V27.7097H150.163V26.5548H153.462V25.4343H148.884V31.2088H153.462V30.0264ZM143.838 28.8302L144.375 26.5617H145.241L145.777 28.8302H143.838ZM143.343 25.3931L141.969 31.1675H143.288L143.577 29.9714H146.093L146.382 31.1675H147.702L146.327 25.3931H143.343ZM135.885 27.1667L137.658 29.3527L139.432 27.1667H139.514V31.1675H140.793V25.4343H139.418L137.686 27.5791L135.899 25.4343H134.524V31.2088H135.802V27.1735L135.885 27.1667ZM129.196 31.1675L131.506 27.4554H131.588V31.1675H132.867V25.4343H131.492L129.182 29.1465H129.107V25.4343H127.821V31.2088L129.196 31.1675ZM121.126 25.4343V31.2088H122.404V28.9402H124.838V31.2088H126.116V25.4343H124.838V27.7853H122.404V25.4343H121.126ZM120.012 28.3215C120.015 27.9032 119.931 27.4888 119.765 27.1048C119.602 26.731 119.369 26.3924 119.077 26.108C118.79 25.8165 118.449 25.5831 118.073 25.4206C117.277 25.0906 116.382 25.0906 115.585 25.4206C115.208 25.5847 114.865 25.8178 114.574 26.108C114.284 26.394 114.051 26.7322 113.887 27.1048C113.724 27.4909 113.64 27.9058 113.64 28.325C113.64 28.7442 113.724 29.1591 113.887 29.5452C114.053 29.9168 114.286 30.2547 114.574 30.542C114.865 30.8325 115.208 31.0657 115.585 31.2294C116.382 31.5594 117.277 31.5594 118.073 31.2294C118.449 31.0674 118.79 30.8339 119.077 30.542C119.367 30.2563 119.601 29.918 119.765 29.5452C119.936 29.1484 120.021 28.7194 120.012 28.2872V28.3215ZM114.939 28.3215C114.936 28.055 114.987 27.7907 115.09 27.5447C115.188 27.3128 115.328 27.1008 115.502 26.9192C115.673 26.7386 115.879 26.5958 116.107 26.4999C116.336 26.3949 116.585 26.3409 116.836 26.3417C117.087 26.3418 117.336 26.3957 117.565 26.4999C117.792 26.5993 117.997 26.7417 118.17 26.9192C118.344 27.1008 118.484 27.3128 118.582 27.5447C118.787 28.0448 118.787 28.6051 118.582 29.1052C118.484 29.3372 118.344 29.5492 118.17 29.7308C117.995 29.9057 117.79 30.0477 117.565 30.1501C117.34 30.2295 117.101 30.2623 116.864 30.2464C116.613 30.2493 116.364 30.1977 116.135 30.0951C115.907 29.9968 115.702 29.8543 115.53 29.6758C115.355 29.4942 115.216 29.2822 115.117 29.0502C115.007 28.8104 114.946 28.5509 114.939 28.2872V28.3215ZM107.556 25.4343V31.2088H108.834V26.5548H111.268V31.1744H112.546V25.4343H107.556ZM103.115 28.2872C103.118 27.8688 103.034 27.4544 102.867 27.0704C102.706 26.6964 102.472 26.3577 102.18 26.0736C101.892 25.7835 101.551 25.5503 101.176 25.3862C100.4 25.0573 99.5255 25.0482 98.7427 25.3611C97.9599 25.674 97.3324 26.2834 96.9967 27.0567C96.8336 27.4428 96.7495 27.8577 96.7495 28.2769C96.7495 28.696 96.8336 29.1109 96.9967 29.4971C97.1606 29.8699 97.3939 30.2082 97.6842 30.4938C98.1366 30.9376 98.709 31.2392 99.3308 31.3613C99.9526 31.4835 100.597 31.4209 101.183 31.1813C101.558 31.0175 101.899 30.7842 102.187 30.4938C102.478 30.2085 102.711 29.8702 102.874 29.4971C103.037 29.1146 103.119 28.7027 103.115 28.2872ZM98.0416 28.2872C98.0409 28.0202 98.0947 27.7558 98.1998 27.5104C98.2928 27.2757 98.4332 27.0628 98.6122 26.8848C98.7811 26.7059 98.9846 26.5633 99.2103 26.4655C99.4391 26.3613 99.6876 26.3074 99.939 26.3074C100.193 26.3073 100.443 26.3612 100.675 26.4655C100.9 26.5633 101.104 26.7059 101.273 26.8848C101.447 27.0664 101.587 27.2784 101.685 27.5104C101.889 28.0105 101.889 28.5708 101.685 29.0709C101.587 29.3028 101.447 29.5148 101.273 29.6964C101.102 29.8732 100.899 30.0156 100.675 30.1157C100.443 30.2177 100.192 30.2692 99.939 30.267C99.688 30.2693 99.4395 30.2177 99.2103 30.1157C98.9859 30.0156 98.7829 29.8732 98.6122 29.6964C98.4332 29.5185 98.2928 29.3055 98.1998 29.0709C98.0965 28.8227 98.045 28.556 98.0485 28.2872H98.0416ZM91.4973 26.5548H93.3121V31.1744H94.5907V26.5548H96.4056V25.4343H91.4973V26.5548ZM80.2303 30.6794C80.2257 30.7713 80.2422 30.863 80.2784 30.9475C80.3041 31.0148 80.3439 31.0758 80.3952 31.1263C80.4402 31.1811 80.4965 31.2257 80.5602 31.2569L80.2715 31.9993H80.7664L81.4539 31.0919L81.5089 30.9819C81.5089 30.9407 81.5089 30.8994 81.557 30.8444C81.5645 30.7897 81.5645 30.7342 81.557 30.6794C81.557 30.4971 81.4846 30.3223 81.3557 30.1934C81.2267 30.0644 81.0519 29.992 80.8696 29.992C80.6958 30.0175 80.5384 30.1085 80.4296 30.2464C80.3123 30.3607 80.2434 30.5158 80.2371 30.6794H80.2303ZM75.5282 31.1744L76.8068 29.1121H76.8893L78.168 31.1744H79.6528L77.7624 28.1841L79.4122 25.3793H77.9686L76.8962 27.2767H76.8137L75.7413 25.4343H74.2977L75.9476 28.2391L74.0502 31.2088L75.5282 31.1744ZM73.1566 30.0195H69.8569V28.8715H72.4554V27.7097H69.8569V26.5548H73.1566V25.4343H68.5851V31.2088H73.1634L73.1566 30.0195ZM62.5564 26.5548H64.3437V31.1744H65.6223V26.5548H67.4371V25.4343H62.5564V26.5548ZM56.7338 28.4522H55.3589C55.2082 28.4672 55.0561 28.4512 54.9118 28.4051C54.7675 28.359 54.6343 28.2838 54.5203 28.1841C54.4258 28.0967 54.3512 27.9902 54.3014 27.8716C54.2516 27.7531 54.2278 27.6252 54.2315 27.4966C54.2269 27.368 54.2503 27.2398 54.3001 27.1211C54.35 27.0024 54.4251 26.8959 54.5203 26.8092C54.7359 26.6193 55.0169 26.5207 55.3039 26.5342H56.6788L56.7338 28.4522ZM55.3589 29.607H56.7338V31.1744H58.0056V25.4343H55.3039C54.9713 25.4298 54.6405 25.4857 54.3278 25.5993C54.0538 25.6958 53.8016 25.8453 53.5854 26.0393C53.3828 26.2329 53.2235 26.4672 53.1179 26.7267C53.008 26.9693 52.945 27.2306 52.9323 27.4966C52.9217 27.7941 52.9781 28.0901 53.0973 28.3628C53.1961 28.5672 53.326 28.755 53.4822 28.9196C53.6447 29.0835 53.8357 29.2163 54.0459 29.3115L52.9323 31.1744H54.3072L55.3589 29.607ZM47.8934 25.4343L46.5186 31.2088H47.8384L48.9521 26.5892H49.9007L51.0144 31.2088H52.3342L50.9594 25.4343H47.8934ZM42.2221 26.5892H43.0883L43.9132 30.0264H41.3972L42.2221 26.5892ZM40.7372 31.2088H45.8517V30.0195H45.2331L44.1194 25.4343H41.1909L40.0773 30.0195H39.4586V31.1744L40.7372 31.2088Z" fill="#0060AF"/>
<path fill-rule="evenodd" clip-rule="evenodd" d="M31.1751 0H0V11.3151L5.72632 4.28271H29.3465C29.1678 5.2222 28.9822 6.2121 28.7897 7.25242C28.5835 8.33856 28.3635 9.49345 28.1023 10.6896L24.8438 12.6556C25.6412 13.3431 26.473 14.0305 27.3323 14.7936C27.0367 16.3403 26.7274 17.997 26.3974 19.7499C26.0675 21.5029 25.7512 23.3727 25.3731 25.435H3.26531L3.43716 25.1532V25.0501L3.54715 24.8507L3.63652 24.7476L3.69151 24.6445L3.74651 24.5482L3.8015 24.4451L3.8565 24.3489L3.91149 24.2526L3.96649 24.1495L4.02148 24.0602L4.07648 23.9639L4.1246 23.8608L4.17959 23.7646L4.23459 23.6683L4.28958 23.5721L4.34458 23.4758L4.40644 23.3727C5.08013 22.1858 5.72402 21.04 6.33813 19.9356L6.39313 19.8531L6.44125 19.7637H19.7637V19.6675L21.0011 15.7285V15.6391V15.6047L21.2279 14.9173V14.8417H9.2391L11.5489 10.7171H22.6028L23.6546 7.35553V7.30741V7.25242H8.4073L8.33169 7.35553L8.26294 7.46552L8.18733 7.56864L8.11858 7.67863L6.11128 10.5865L6.02879 10.7033L5.94629 10.8202L5.8638 10.9439L5.78131 11.0608L5.69882 11.1777L5.61633 11.3014L5.53383 11.4183L0 19.4475V31.1751H31.1751V0Z" fill="#0060AF"/>
</svg>
