<svg width="8" height="10" viewBox="0 0 8 10" fill="none" xmlns="http://www.w3.org/2000/svg">
<path d="M7.752 0.599999V9H5.832V6.768H4.056L2.568 9H0.516L2.268 6.468C1.7 6.236 1.264 5.888 0.96 5.424C0.656 4.952 0.504 4.388 0.504 3.732C0.504 3.084 0.652 2.528 0.948 2.064C1.244 1.592 1.664 1.232 2.208 0.983999C2.752 0.727999 3.392 0.599999 4.128 0.599999H7.752ZM4.176 2.184C3.624 2.184 3.2 2.312 2.904 2.568C2.616 2.824 2.472 3.204 2.472 3.708C2.472 4.196 2.612 4.572 2.892 4.836C3.172 5.1 3.584 5.232 4.128 5.232H5.832V2.184H4.176Z" fill="black"/>
</svg>
