<svg width="298" height="100" viewBox="0 0 298 100" fill="none" xmlns="http://www.w3.org/2000/svg">
<g clip-path="url(#clip0)">
<path d="M70.7206 75.0565V4.65635C70.0915 4.3888 69.4553 4.13474 68.8124 3.89453L2.83142 98H17.9824L58.0536 41.6318V79.9932C62.6676 79.2299 66.9592 77.5148 70.7206 75.0565Z" stroke="white" stroke-width="3"/>
<path d="M70.7206 91.0521C66.7423 92.6997 62.4908 93.8211 58.0536 94.3298V98H70.7206V91.0521Z" stroke="white" stroke-width="3"/>
<path d="M29.7007 87.0318L36.1656 77.8078C41.0558 80.4438 46.652 81.9397 52.5962 81.9397C60.0422 81.9397 66.9412 79.5927 72.5901 75.599V88.5692C66.548 91.4979 59.7651 93.1406 52.5962 93.1406C44.2564 93.1406 36.4379 90.9171 29.7007 87.0318ZM22.4578 64.4164L15.5262 74.3061C9.9957 66.7366 6.73206 57.41 6.73206 47.3203C6.73206 22.015 27.2657 1.5 52.5962 1.5C57.0068 1.5 61.271 2.12179 65.3063 3.28207L58.3694 13.1792C56.4915 12.8646 54.5627 12.7009 52.5962 12.7009C33.4591 12.7009 17.9445 28.2001 17.9445 47.3203C17.9445 53.5368 19.5851 59.3724 22.4578 64.4164Z" stroke="white" stroke-width="3"/>
<path d="M100 44.0426H109.6L111.104 39.2147H122.474L123.978 44.0426H133.578L123.668 12.3288H109.954L100 44.0426ZM112.962 32.5707L116.59 20.2572H117.032L120.66 32.5707H112.962Z" fill="white"/>
<path d="M151.287 44.6184C157.347 44.6184 161.417 39.9676 161.417 32.615C161.417 25.3509 157.303 20.6116 151.331 20.6116C148.411 20.6116 146.199 21.7632 144.695 23.845H144.253V11H135.98V44.0426H144.253V41.385H144.695C146.199 43.4668 148.323 44.6184 151.287 44.6184ZM148.5 37.6644C145.845 37.6644 143.899 35.494 143.899 32.615C143.899 29.7359 145.845 27.5656 148.5 27.5656C151.198 27.5656 153.1 29.7359 153.1 32.615C153.1 35.494 151.198 37.6644 148.5 37.6644Z" fill="white"/>
<path d="M174.627 44.7956C181.883 44.7956 186.351 41.6951 186.351 36.6014C186.351 31.1976 181.131 30.1789 176.972 29.7359C173.92 29.3816 171.221 29.293 171.221 27.5656C171.221 26.3254 172.548 25.4838 174.406 25.4838C176.53 25.4838 178.034 26.5468 178.078 28.1414H185.422C185.422 23.4463 180.732 20.4787 174.406 20.4787C167.903 20.4787 163.612 23.4906 163.612 28.3186C163.612 34.6525 169.673 35.0068 173.787 35.4055C176.176 35.6269 178.122 35.8927 178.122 37.5315C178.122 38.9046 176.751 39.7462 174.804 39.7462C172.194 39.7462 170.513 38.4617 170.513 36.5128H163.479C163.479 41.6508 167.77 44.7956 174.627 44.7956Z" fill="white"/>
<path d="M201.323 44.6184C209.153 44.6184 214.196 40.1005 214.196 32.615C214.196 25.1738 209.153 20.6116 201.323 20.6116C193.404 20.6116 188.405 25.1295 188.405 32.615C188.405 40.0562 193.448 44.6184 201.323 44.6184ZM201.323 37.6644C198.58 37.6644 196.722 35.5826 196.722 32.615C196.722 29.6474 198.58 27.5656 201.323 27.5656C204.021 27.5656 205.924 29.6474 205.924 32.615C205.924 35.5826 204.021 37.6644 201.323 37.6644Z" fill="white"/>
<path d="M217.114 44.0426H225.387V11H217.114V44.0426Z" fill="white"/>
<path d="M252.213 21.1874H243.94V33.7666C243.94 36.0699 242.436 37.6644 240.49 37.6644C238.543 37.6644 237.305 36.1141 237.305 33.8995V21.1874H229.032V35.4497C229.032 40.7649 232.35 44.5741 237.083 44.5741C239.782 44.5741 241.684 43.3782 243.498 40.6763H243.94V44.0426H252.213V21.1874Z" fill="white"/>
<path d="M265.903 44.6184C267.319 44.6184 269.442 44.3526 270.902 43.8211V38.063C270.194 38.2402 269.309 38.3731 268.69 38.3731C267.053 38.3731 265.991 37.1772 265.991 35.4055V27.0784H270.769V21.1874H265.991V14.0562H259.488L257.984 21.1874H254.755V27.0784H257.674V35.8041C257.674 41.075 260.904 44.6184 265.903 44.6184Z" fill="white"/>
<path d="M285.436 44.6184C291.276 44.6184 295.965 42.0051 297.115 37.7087L289.993 36.4242C289.285 37.8859 287.869 38.9046 285.878 38.9046C283.401 38.9046 281.72 37.3543 281.189 34.8739H297.867C297.956 34.431 298 33.2794 298 32.615C298 25.3066 293.045 20.6116 285.524 20.6116C277.96 20.6116 272.651 25.2624 272.651 32.5264C272.651 39.879 277.871 44.6184 285.436 44.6184ZM281.101 30.4446C281.543 27.9199 283.047 26.3254 285.348 26.3254C287.692 26.3254 289.418 28.1857 289.639 30.4446H281.101Z" fill="white"/>
<path d="M115.395 89C124.243 89 130.039 84.925 130.039 78.6354C130.039 70.9727 122.739 69.8211 117.342 69.0238C113.67 68.4923 110.529 68.0937 110.529 65.7019C110.529 63.9302 112.299 62.6899 115.263 62.6899C118.448 62.6899 120.527 64.2845 120.527 67.075H128.977C128.977 60.5196 123.358 56.0017 114.953 56.0017C106.592 56.0017 101.194 60.0767 101.194 66.3663C101.194 74.5162 109.423 75.1806 114.864 75.9336C118.094 76.3765 120.704 76.908 120.704 79.2112C120.704 81.1601 118.758 82.2675 115.749 82.2675C111.945 82.2675 109.777 80.54 109.733 77.8825H100.973C100.973 84.4378 106.724 89 115.395 89Z" fill="white"/>
<path d="M145.244 88.9114C151.083 88.9114 155.773 86.2981 156.923 82.0017L149.8 80.7172C149.093 82.1789 147.677 83.1976 145.686 83.1976C143.209 83.1976 141.528 81.6474 140.997 79.167H157.675C157.764 78.724 157.808 77.5724 157.808 76.908C157.808 69.5997 152.853 64.9046 145.332 64.9046C137.767 64.9046 132.459 69.5554 132.459 76.8194C132.459 84.1721 137.679 88.9114 145.244 88.9114ZM140.908 74.7376C141.351 72.2129 142.855 70.6184 145.155 70.6184C147.5 70.6184 149.225 72.4787 149.447 74.7376H140.908Z" fill="white"/>
<path d="M160.735 88.3356H169.008V76.9966C169.008 74.029 170.777 72.0358 173.299 72.0358C174.361 72.0358 175.953 72.3901 177.28 72.9659V65.6133C176.573 65.2589 175.643 65.0375 174.759 65.0375C172.458 65.0375 170.423 66.4549 169.45 68.7138H168.963V65.4804H160.735V88.3356Z" fill="white"/>
<path d="M185.711 88.3356H197.788L205.309 65.4804H196.505L191.949 81.4702H191.506L186.95 65.4804H178.19L185.711 88.3356Z" fill="white"/>
<path d="M211.641 63C214.428 63 216.374 61.0954 216.374 58.4378C216.374 55.7802 214.428 53.9199 211.641 53.9199C208.942 53.9199 206.951 55.7802 206.951 58.4378C206.951 61.0954 208.942 63 211.641 63ZM207.526 88.3356H215.799V65.4804H207.526V88.3356Z" fill="white"/>
<path d="M231.604 88.9114C238.107 88.9114 242.885 85.5008 243.637 79.787L235.983 78.8569C235.541 80.8501 233.771 82.2675 231.692 82.2675C229.082 82.2675 227.18 80.0528 227.18 76.908C227.18 73.7632 229.126 71.5486 231.736 71.5486C233.727 71.5486 235.541 72.9659 235.983 75.0034L243.637 74.029C242.929 68.3152 238.151 64.9046 231.604 64.9046C223.994 64.9046 218.907 69.5554 218.907 76.908C218.907 84.1721 224.127 88.9114 231.604 88.9114Z" fill="white"/>
<path d="M258.78 88.9114C264.62 88.9114 269.309 86.2981 270.459 82.0017L263.337 80.7172C262.629 82.1789 261.213 83.1976 259.222 83.1976C256.745 83.1976 255.064 81.6474 254.533 79.167H271.211C271.3 78.724 271.344 77.5724 271.344 76.908C271.344 69.5997 266.389 64.9046 258.869 64.9046C251.304 64.9046 245.995 69.5554 245.995 76.8194C245.995 84.1721 251.215 88.9114 258.78 88.9114ZM254.445 74.7376C254.887 72.2129 256.391 70.6184 258.692 70.6184C261.036 70.6184 262.762 72.4787 262.983 74.7376H254.445Z" fill="white"/>
</g>
<defs>
<clipPath id="clip0">
<rect width="298" height="100" fill="white"/>
</clipPath>
</defs>
</svg>
