<svg width="60" height="60" viewBox="0 0 60 60" fill="none" xmlns="http://www.w3.org/2000/svg">
<g id="bank">
<g id="Group">
<path id="Vector" d="M59.1211 54.0149H58.1213V17.3182C58.1213 16.8328 57.7277 16.4393 57.2423 16.4393H46.8486V14.5001C46.8486 13.4974 46.033 12.6818 45.0304 12.6818H39.2909C38.8463 7.94612 34.8499 4.22729 30 4.22729C25.1501 4.22729 21.1537 7.94612 20.7093 12.6818H14.9698C13.9671 12.6818 13.1515 13.4974 13.1515 14.5001V16.4393H2.75766C2.27227 16.4393 1.87875 16.8328 1.87875 17.3182V19.1968C1.87875 19.6822 2.27227 20.0757 2.75766 20.0757C3.24305 20.0757 3.63656 19.6822 3.63656 19.1968V18.1971H21.9048C23.5168 21.0007 26.5405 22.8941 30 22.8941C33.4595 22.8941 36.4832 21.0007 38.0952 18.1971H56.3634V41.8029H44.0304V38.9243C44.0304 38.4389 43.6369 38.0454 43.1515 38.0454H16.8485C16.3631 38.0454 15.9696 38.4389 15.9696 38.9243V41.8029H3.63656V22.9549C3.63656 22.4695 3.24305 22.076 2.75766 22.076C2.27227 22.076 1.87875 22.4695 1.87875 22.9549V54.015H0.878906C0.393516 54.015 0 54.4085 0 54.8939C0 55.3793 0.393516 55.7728 0.878906 55.7728H59.1211C59.6065 55.7728 60 55.3793 60 54.8939C60 54.4085 59.6065 54.0149 59.1211 54.0149ZM14.9093 16.4393V14.5001C14.9093 14.4667 14.9364 14.4396 14.9698 14.4396H20.7093C20.7742 15.1308 20.915 15.7999 21.1229 16.4393H14.9093ZM30 21.1363C25.8227 21.1363 22.4244 17.7378 22.4244 13.5607C22.4244 9.38355 25.8229 5.98511 30 5.98511C34.1771 5.98511 37.5756 9.38355 37.5756 13.5607C37.5756 17.7378 34.1773 21.1363 30 21.1363ZM39.2907 14.4396H45.0302C45.0636 14.4396 45.0907 14.4667 45.0907 14.5001V16.4393H38.8771C39.085 15.7999 39.2259 15.1308 39.2907 14.4396ZM56.3634 54.0149H42.1515V48.3185C42.1515 47.8331 41.758 47.4396 41.2726 47.4396C40.7872 47.4396 40.3937 47.8331 40.3937 48.3185V54.0149H30.8789V43.5607H40.3937V44.5607C40.3937 45.046 40.7872 45.4396 41.2726 45.4396C41.758 45.4396 42.1515 45.046 42.1515 44.5607V43.5607H46.0301V50.1969C46.0301 50.6823 46.4236 51.0758 46.909 51.0758H53.4847C53.9701 51.0758 54.3636 50.6823 54.3636 50.1969V43.5607H56.3633V54.0149H56.3634ZM29.1211 43.5607V54.0149H19.6062V43.5607H29.1211ZM47.788 43.5607H52.6059V49.318H47.788V43.5607ZM17.7274 39.8031H42.2725V41.8028H17.7274V39.8031ZM7.39418 43.5607H12.2121V49.318H7.39418V43.5607ZM3.63656 43.5607H5.63625V50.1969C5.63625 50.6823 6.02977 51.0758 6.51516 51.0758H13.0909C13.5763 51.0758 13.9698 50.6823 13.9698 50.1969V43.5607H17.8484V54.0149H3.63656V43.5607Z" fill="#fff"/>
<path id="Vector_2" d="M13.0908 36.0456C13.5762 36.0456 13.9697 35.652 13.9697 35.1666V26.7122C13.9697 26.2268 13.5762 25.8333 13.0908 25.8333H6.51514C6.02975 25.8333 5.63623 26.2268 5.63623 26.7122V35.1666C5.63623 35.652 6.02975 36.0456 6.51514 36.0456H13.0908ZM7.39404 27.5911H12.212V34.2877H7.39404V27.5911Z" fill="#fff"/>
<path id="Vector_3" d="M53.4849 36.0456C53.9703 36.0456 54.3638 35.652 54.3638 35.1666V26.7122C54.3638 26.2268 53.9703 25.8333 53.4849 25.8333H46.9092C46.4238 25.8333 46.0303 26.2268 46.0303 26.7122V35.1666C46.0303 35.652 46.4238 36.0456 46.9092 36.0456H53.4849ZM47.7882 27.5911H52.6061V34.2877H47.7882V27.5911Z" fill="#fff"/>
<path id="Vector_4" d="M16.8486 36.0456H43.1515C43.6369 36.0456 44.0304 35.652 44.0304 35.1666V26.7122C44.0304 26.2268 43.6369 25.8333 43.1515 25.8333H16.8486C16.3632 25.8333 15.9697 26.2268 15.9697 26.7122V35.1666C15.9697 35.652 16.3632 36.0456 16.8486 36.0456ZM29.1212 34.2877H24.3033V27.5911H29.1212V34.2877ZM30.879 27.5911H35.697V34.2877H30.879V27.5911ZM42.2727 34.2877H37.4548V27.5911H42.2727V34.2877ZM17.7275 27.5911H22.5455V34.2877H17.7275V27.5911Z" fill="#fff"/>
</g>
</g>
</svg>
