<svg width="1383" height="561" viewBox="0 0 1383 561" fill="none" xmlns="http://www.w3.org/2000/svg">
<path opacity="0.2" d="M44.6 146L43.6398 146.279L43.8494 147H44.6V146ZM72.6 146V147H73.383L73.5708 146.24L72.6 146ZM102 27V26H101.217L101.029 26.7601L102 27ZM103.8 27L104.771 26.7601L104.583 26H103.8V27ZM133.2 146L132.229 146.24L132.417 147H133.2V146ZM161.2 146V147H161.952L162.161 146.278L161.2 146ZM202 4.99999L202.961 5.27795L203.33 3.99999H202V4.99999ZM184.6 4.99999V3.99999H183.846L183.639 4.72446L184.6 4.99999ZM148.6 130.6V131.6H149.354L149.561 130.876L148.6 130.6ZM146.6 130.6L145.631 130.845L145.822 131.6H146.6V130.6ZM114.8 4.99999L115.769 4.75455L115.578 3.99999H114.8V4.99999ZM91.2 4.99999V3.99999H90.4228L90.231 4.7531L91.2 4.99999ZM59.2 130.6V131.6H59.9772L60.169 130.847L59.2 130.6ZM57.2 130.6L56.2387 130.876L56.4464 131.6H57.2V130.6ZM21.2 4.99999L22.1613 4.72446L21.9536 3.99999H21.2V4.99999ZM3.6 4.99999V3.99999H2.2678L2.63977 5.27921L3.6 4.99999ZM44.6 147H72.6V145H44.6V147ZM73.5708 146.24L102.971 27.2398L101.029 26.7601L71.6292 145.76L73.5708 146.24ZM102 28H103.8V26H102V28ZM102.829 27.2398L132.229 146.24L134.171 145.76L104.771 26.7601L102.829 27.2398ZM133.2 147H161.2V145H133.2V147ZM162.161 146.278L202.961 5.27795L201.039 4.72203L160.239 145.722L162.161 146.278ZM202 3.99999H184.6V5.99999H202V3.99999ZM183.639 4.72446L147.639 130.324L149.561 130.876L185.561 5.27552L183.639 4.72446ZM148.6 129.6H146.6V131.6H148.6V129.6ZM147.569 130.355L115.769 4.75455L113.831 5.24543L145.631 130.845L147.569 130.355ZM114.8 3.99999H91.2V5.99999H114.8V3.99999ZM90.231 4.7531L58.231 130.353L60.169 130.847L92.1691 5.24688L90.231 4.7531ZM59.2 129.6H57.2V131.6H59.2V129.6ZM58.1613 130.324L22.1613 4.72446L20.2387 5.27552L56.2387 130.876L58.1613 130.324ZM21.2 3.99999H3.6V5.99999H21.2V3.99999ZM2.63977 5.27921L43.6398 146.279L45.5602 145.721L4.56023 4.72078L2.63977 5.27921ZM230.378 146H229.378V147H230.378V146ZM248.778 146V147H249.778V146H248.778ZM248.778 80.4V79.4H247.778V80.4H248.778ZM324.778 80.4H325.778V79.4H324.778V80.4ZM324.778 146H323.778V147H324.778V146ZM342.978 146V147H343.978V146H342.978ZM342.978 4.99999H343.978V3.99999H342.978V4.99999ZM324.778 4.99999V3.99999H323.778V4.99999H324.778ZM324.778 64.4V65.4H325.778V64.4H324.778ZM248.778 64.4H247.778V65.4H248.778V64.4ZM248.778 4.99999H249.778V3.99999H248.778V4.99999ZM230.378 4.99999V3.99999H229.378V4.99999H230.378ZM230.378 147H248.778V145H230.378V147ZM249.778 146V80.4H247.778V146H249.778ZM248.778 81.4H324.778V79.4H248.778V81.4ZM323.778 80.4V146H325.778V80.4H323.778ZM324.778 147H342.978V145H324.778V147ZM343.978 146V4.99999H341.978V146H343.978ZM342.978 3.99999H324.778V5.99999H342.978V3.99999ZM323.778 4.99999V64.4H325.778V4.99999H323.778ZM324.778 63.4H248.778V65.4H324.778V63.4ZM249.778 64.4V4.99999H247.778V64.4H249.778ZM248.778 3.99999H230.378V5.99999H248.778V3.99999ZM229.378 4.99999V146H231.378V4.99999H229.378ZM448.369 152C470.908 152 490.218 144.113 503.898 130.56C517.578 117.007 525.569 97.8443 525.569 75.4H523.569C523.569 97.3557 515.76 115.993 502.49 129.14C489.219 142.287 470.43 150 448.369 150V152ZM525.569 75.4C525.569 30.8389 493.512 -1 448.369 -1V0.999996C492.425 0.999996 523.569 31.961 523.569 75.4H525.569ZM448.369 -1C403.225 -1 371.169 30.8389 371.169 75.4H373.169C373.169 31.961 404.312 0.999996 448.369 0.999996V-1ZM371.169 75.4C371.169 97.8443 379.16 117.007 392.84 130.56C406.519 144.113 425.83 152 448.369 152V150C426.308 150 407.518 142.287 394.248 129.14C380.978 115.993 373.169 97.3557 373.169 75.4H371.169ZM448.369 134C415.148 134 391.369 109.475 391.369 75.4H389.369C389.369 110.525 413.99 136 448.369 136V134ZM391.369 75.4C391.369 41.3295 415.144 17 448.369 17V15C413.994 15 389.369 40.2705 389.369 75.4H391.369ZM448.369 17C481.589 17 505.169 41.3248 505.169 75.4H507.169C507.169 40.2752 482.748 15 448.369 15V17ZM505.169 75.4C505.169 109.48 481.585 134 448.369 134V136C482.753 136 507.169 110.52 507.169 75.4H505.169ZM635.42 146L634.46 146.279L634.67 147H635.42V146ZM663.42 146V147H664.203L664.391 146.24L663.42 146ZM692.82 27V26H692.037L691.849 26.7601L692.82 27ZM694.62 27L695.591 26.7601L695.403 26H694.62V27ZM724.02 146L723.049 146.24L723.237 147H724.02V146ZM752.02 146V147H752.772L752.981 146.278L752.02 146ZM792.82 4.99999L793.781 5.27795L794.151 3.99999H792.82V4.99999ZM775.42 4.99999V3.99999H774.667L774.459 4.72446L775.42 4.99999ZM739.42 130.6V131.6H740.174L740.382 130.876L739.42 130.6ZM737.42 130.6L736.451 130.845L736.642 131.6H737.42V130.6ZM705.62 4.99999L706.59 4.75455L706.399 3.99999H705.62V4.99999ZM682.02 4.99999V3.99999H681.243L681.051 4.7531L682.02 4.99999ZM650.02 130.6V131.6H650.797L650.989 130.847L650.02 130.6ZM648.02 130.6L647.059 130.876L647.267 131.6H648.02V130.6ZM612.02 4.99999L612.982 4.72446L612.774 3.99999H612.02V4.99999ZM594.42 4.99999V3.99999H593.088L593.46 5.27921L594.42 4.99999ZM635.42 147H663.42V145H635.42V147ZM664.391 146.24L693.791 27.2398L691.849 26.7601L662.45 145.76L664.391 146.24ZM692.82 28H694.62V26H692.82V28ZM693.65 27.2398L723.049 146.24L724.991 145.76L695.591 26.7601L693.65 27.2398ZM724.02 147H752.02V145H724.02V147ZM752.981 146.278L793.781 5.27795L791.86 4.72203L751.06 145.722L752.981 146.278ZM792.82 3.99999H775.42V5.99999H792.82V3.99999ZM774.459 4.72446L738.459 130.324L740.382 130.876L776.382 5.27552L774.459 4.72446ZM739.42 129.6H737.42V131.6H739.42V129.6ZM738.39 130.355L706.59 4.75455L704.651 5.24543L736.451 130.845L738.39 130.355ZM705.62 3.99999H682.02V5.99999H705.62V3.99999ZM681.051 4.7531L649.051 130.353L650.989 130.847L682.989 5.24688L681.051 4.7531ZM650.02 129.6H648.02V131.6H650.02V129.6ZM648.982 130.324L612.982 4.72446L611.059 5.27552L647.059 130.876L648.982 130.324ZM612.02 3.99999H594.42V5.99999H612.02V3.99999ZM593.46 5.27921L634.46 146.279L636.381 145.721L595.381 4.72078L593.46 5.27921ZM821.398 146H820.398V147H821.398V146ZM920.198 146V147H921.198V146H920.198ZM920.198 130H921.198V129H920.198V130ZM839.798 130H838.798V131H839.798V130ZM839.798 81V80H838.798V81H839.798ZM910.198 81V82H911.198V81H910.198ZM910.198 65H911.198V64H910.198V65ZM839.798 65H838.798V66H839.798V65ZM839.798 21V20H838.798V21H839.798ZM918.198 21V22H919.198V21H918.198ZM918.198 4.99999H919.198V3.99999H918.198V4.99999ZM821.398 4.99999V3.99999H820.398V4.99999H821.398ZM821.398 147H920.198V145H821.398V147ZM921.198 146V130H919.198V146H921.198ZM920.198 129H839.798V131H920.198V129ZM840.798 130V81H838.798V130H840.798ZM839.798 82H910.198V80H839.798V82ZM911.198 81V65H909.198V81H911.198ZM910.198 64H839.798V66H910.198V64ZM840.798 65V21H838.798V65H840.798ZM839.798 22H918.198V20H839.798V22ZM919.198 21V4.99999H917.198V21H919.198ZM918.198 3.99999H821.398V5.99999H918.198V3.99999ZM820.398 4.99999V146H822.398V4.99999H820.398ZM986.133 146L985.197 145.647L984.687 147H986.133V146ZM1003.53 146V147H1004.22L1004.47 146.355L1003.53 146ZM1015.53 114.4V113.4H1014.84L1014.6 114.045L1015.53 114.4ZM1087.33 114.4L1088.27 114.045L1088.02 113.4H1087.33V114.4ZM1099.33 146L1098.4 146.355L1098.64 147H1099.33V146ZM1116.73 146V147H1118.17L1117.67 145.65L1116.73 146ZM1064.13 4.99999L1065.07 4.65047L1064.83 3.99999H1064.13V4.99999ZM1039.33 4.99999V3.99999H1038.64L1038.4 4.64698L1039.33 4.99999ZM1020.93 99.4L1020 99.0447L1019.48 100.4H1020.93V99.4ZM1050.73 21V20H1050.04L1049.8 20.6447L1050.73 21ZM1052.53 21L1053.47 20.6468L1053.22 20H1052.53V21ZM1082.13 99.4V100.4H1083.58L1083.07 99.0468L1082.13 99.4ZM986.133 147H1003.53V145H986.133V147ZM1004.47 146.355L1016.47 114.755L1014.6 114.045L1002.6 145.645L1004.47 146.355ZM1015.53 115.4H1087.33V113.4H1015.53V115.4ZM1086.4 114.755L1098.4 146.355L1100.27 145.645L1088.27 114.045L1086.4 114.755ZM1099.33 147H1116.73V145H1099.33V147ZM1117.67 145.65L1065.07 4.65047L1063.2 5.34951L1115.8 146.35L1117.67 145.65ZM1064.13 3.99999H1039.33V5.99999H1064.13V3.99999ZM1038.4 4.64698L985.197 145.647L987.068 146.353L1040.27 5.353L1038.4 4.64698ZM1021.87 99.7553L1051.67 21.3553L1049.8 20.6447L1020 99.0447L1021.87 99.7553ZM1050.73 22H1052.53V20H1050.73V22ZM1051.6 21.3532L1081.2 99.7532L1083.07 99.0468L1053.47 20.6468L1051.6 21.3532ZM1082.13 98.4H1020.93V100.4H1082.13V98.4ZM1141.71 146H1140.71V147H1141.71V146ZM1159.91 146V147H1160.91V146H1159.91ZM1159.91 90.8V89.8H1158.91V90.8H1159.91ZM1185.91 90.8L1186.66 90.1377L1186.36 89.8H1185.91V90.8ZM1234.71 146L1233.96 146.662L1234.26 147H1234.71V146ZM1257.71 146V147H1259.97L1258.45 145.327L1257.71 146ZM1206.51 89.8V88.8H1204.25L1205.77 90.4735L1206.51 89.8ZM1208.91 89.8V90.8H1208.93L1208.96 90.799L1208.91 89.8ZM1141.71 4.99999V3.99999H1140.71V4.99999H1141.71ZM1159.91 74.8H1158.91V75.8H1159.91V74.8ZM1159.91 21V20H1158.91V21H1159.91ZM1141.71 147H1159.91V145H1141.71V147ZM1160.91 146V90.8H1158.91V146H1160.91ZM1159.91 91.8H1185.91V89.8H1159.91V91.8ZM1185.16 91.4623L1233.96 146.662L1235.46 145.338L1186.66 90.1377L1185.16 91.4623ZM1234.71 147H1257.71V145H1234.71V147ZM1258.45 145.327L1207.25 89.1265L1205.77 90.4735L1256.97 146.673L1258.45 145.327ZM1206.51 90.8H1208.91V88.8H1206.51V90.8ZM1208.96 90.799C1235.57 89.58 1254.91 72.4479 1254.91 47.8H1252.91C1252.91 71.1521 1234.65 87.62 1208.87 88.801L1208.96 90.799ZM1254.91 47.8C1254.91 34.5202 1249.74 23.5339 1240.63 15.8841C1231.53 8.24862 1218.59 3.99999 1203.11 3.99999V5.99999C1218.24 5.99999 1230.69 10.1514 1239.34 17.4159C1247.98 24.666 1252.91 35.0798 1252.91 47.8H1254.91ZM1203.11 3.99999H1141.71V5.99999H1203.11V3.99999ZM1140.71 4.99999V146H1142.71V4.99999H1140.71ZM1160.91 74.8V21H1158.91V74.8H1160.91ZM1159.91 22H1203.11V20H1159.91V22ZM1203.11 22C1213.05 22 1220.95 24.5586 1226.35 29.0207C1231.73 33.4653 1234.71 39.873 1234.71 47.8H1236.71C1236.71 39.327 1233.5 32.3347 1227.62 27.4793C1221.77 22.6414 1213.37 20 1203.11 20V22ZM1234.71 47.8C1234.71 55.8307 1231.72 62.2881 1226.35 66.7559C1220.95 71.2414 1213.05 73.8 1203.11 73.8V75.8C1213.37 75.8 1221.77 73.1586 1227.63 68.2941C1233.5 63.4119 1236.71 56.3693 1236.71 47.8H1234.71ZM1203.11 73.8H1159.91V75.8H1203.11V73.8ZM1283.51 146H1282.51V147H1283.51V146ZM1382.31 146V147H1383.31V146H1382.31ZM1382.31 130H1383.31V129H1382.31V130ZM1301.91 130H1300.91V131H1301.91V130ZM1301.91 81V80H1300.91V81H1301.91ZM1372.31 81V82H1373.31V81H1372.31ZM1372.31 65H1373.31V64H1372.31V65ZM1301.91 65H1300.91V66H1301.91V65ZM1301.91 21V20H1300.91V21H1301.91ZM1380.31 21V22H1381.31V21H1380.31ZM1380.31 4.99999H1381.31V3.99999H1380.31V4.99999ZM1283.51 4.99999V3.99999H1282.51V4.99999H1283.51ZM1283.51 147H1382.31V145H1283.51V147ZM1383.31 146V130H1381.31V146H1383.31ZM1382.31 129H1301.91V131H1382.31V129ZM1302.91 130V81H1300.91V130H1302.91ZM1301.91 82H1372.31V80H1301.91V82ZM1373.31 81V65H1371.31V81H1373.31ZM1372.31 64H1301.91V66H1372.31V64ZM1302.91 65V21H1300.91V65H1302.91ZM1301.91 22H1380.31V20H1301.91V22ZM1381.31 21V4.99999H1379.31V21H1381.31ZM1380.31 3.99999H1283.51V5.99999H1380.31V3.99999ZM1282.51 4.99999V146H1284.51V4.99999H1282.51ZM0 351L-0.935618 350.647L-1.44612 352H0V351ZM17.4 351V352H18.0899L18.3349 351.355L17.4 351ZM29.4 319.4V318.4H28.7101L28.4651 319.045L29.4 319.4ZM101.2 319.4L102.135 319.045L101.89 318.4H101.2V319.4ZM113.2 351L112.265 351.355L112.51 352H113.2V351ZM130.6 351V352H132.04L131.537 350.65L130.6 351ZM78 210L78.9369 209.65L78.6943 209H78V210ZM53.2 210V209H52.5085L52.2644 209.647L53.2 210ZM34.8 304.4L33.8652 304.045L33.3501 305.4H34.8V304.4ZM64.6 226V225H63.9103L63.6653 225.645L64.6 226ZM66.4 226L67.3355 225.647L67.0914 225H66.4V226ZM96 304.4V305.4H97.4465L96.9356 304.047L96 304.4ZM0 352H17.4V350H0V352ZM18.3349 351.355L30.3349 319.755L28.4651 319.045L16.4651 350.645L18.3349 351.355ZM29.4 320.4H101.2V318.4H29.4V320.4ZM100.265 319.755L112.265 351.355L114.135 350.645L102.135 319.045L100.265 319.755ZM113.2 352H130.6V350H113.2V352ZM131.537 350.65L78.9369 209.65L77.0631 210.35L129.663 351.35L131.537 350.65ZM78 209H53.2V211H78V209ZM52.2644 209.647L-0.935618 350.647L0.935618 351.353L54.1356 210.353L52.2644 209.647ZM35.7348 304.755L65.5348 226.355L63.6653 225.645L33.8652 304.045L35.7348 304.755ZM64.6 227H66.4V225H64.6V227ZM65.4645 226.353L95.0645 304.753L96.9356 304.047L67.3355 225.647L65.4645 226.353ZM96 303.4H34.8V305.4H96V303.4ZM155.578 351H154.578V352H155.578V351ZM173.778 351V352H174.778V351H173.778ZM173.778 234V233H172.778V234H173.778ZM175.778 234L176.647 233.504L176.359 233H175.778V234ZM242.578 351L241.71 351.496L241.998 352H242.578V351ZM268.578 351V352H269.578V351H268.578ZM268.578 210H269.578V209H268.578V210ZM250.378 210V209H249.378V210H250.378ZM250.378 327V328H251.378V327H250.378ZM248.578 327L247.71 327.496L247.998 328H248.578V327ZM181.778 210L182.647 209.504L182.359 209H181.778V210ZM155.578 210V209H154.578V210H155.578ZM155.578 352H173.778V350H155.578V352ZM174.778 351V234H172.778V351H174.778ZM173.778 235H175.778V233H173.778V235ZM174.91 234.496L241.71 351.496L243.447 350.504L176.647 233.504L174.91 234.496ZM242.578 352H268.578V350H242.578V352ZM269.578 351V210H267.578V351H269.578ZM268.578 209H250.378V211H268.578V209ZM249.378 210V327H251.378V210H249.378ZM250.378 326H248.578V328H250.378V326ZM249.447 326.504L182.647 209.504L180.91 210.496L247.71 327.496L249.447 326.504ZM181.778 209H155.578V211H181.778V209ZM154.578 210V351H156.578V210H154.578ZM306.555 351H305.555V352H306.555V351ZM306.555 210V209H305.555V210H306.555ZM324.755 335H323.755V336H324.755V335ZM324.755 226V225H323.755V226H324.755ZM306.555 352H351.755V350H306.555V352ZM351.755 352C376.341 352 396.891 344.945 411.31 332.43C425.743 319.903 433.955 301.971 433.955 280.4H431.955C431.955 301.429 423.967 318.797 409.999 330.92C396.018 343.055 375.968 350 351.755 350V352ZM433.955 280.4C433.955 258.829 425.742 240.946 411.309 228.468C396.889 216.004 376.339 209 351.755 209V211C375.97 211 396.02 217.896 410.001 229.982C423.967 242.054 431.955 259.371 431.955 280.4H433.955ZM351.755 209H306.555V211H351.755V209ZM305.555 210V351H307.555V210H305.555ZM325.755 335V226H323.755V335H325.755ZM324.755 227H351.755V225H324.755V227ZM351.755 227C370.378 227 385.93 232.151 396.808 241.363C407.669 250.561 413.955 263.874 413.955 280.4H415.955C415.955 263.326 409.44 249.439 398.101 239.837C386.78 230.249 370.732 225 351.755 225V227ZM413.955 280.4C413.955 297.03 407.716 310.393 396.882 319.613C386.029 328.849 370.479 334 351.755 334V336C370.831 336 386.88 330.751 398.178 321.137C409.493 311.507 415.955 297.57 415.955 280.4H413.955ZM351.755 334H324.755V336H351.755V334ZM544.014 351L543.054 351.279L543.263 352H544.014V351ZM572.014 351V352H572.797L572.985 351.24L572.014 351ZM601.414 232V231H600.631L600.443 231.76L601.414 232ZM603.214 232L604.185 231.76L603.997 231H603.214V232ZM632.614 351L631.643 351.24L631.831 352H632.614V351ZM660.614 351V352H661.366L661.575 351.278L660.614 351ZM701.414 210L702.375 210.278L702.744 209H701.414V210ZM684.014 210V209H683.26L683.053 209.724L684.014 210ZM648.014 335.6V336.6H648.768L648.975 335.876L648.014 335.6ZM646.014 335.6L645.045 335.845L645.236 336.6H646.014V335.6ZM614.214 210L615.183 209.755L614.992 209H614.214V210ZM590.614 210V209H589.837L589.645 209.753L590.614 210ZM558.614 335.6V336.6H559.391L559.583 335.847L558.614 335.6ZM556.614 335.6L555.653 335.876L555.86 336.6H556.614V335.6ZM520.614 210L521.575 209.724L521.368 209H520.614V210ZM503.014 210V209H501.682L502.054 210.279L503.014 210ZM544.014 352H572.014V350H544.014V352ZM572.985 351.24L602.385 232.24L600.443 231.76L571.043 350.76L572.985 351.24ZM601.414 233H603.214V231H601.414V233ZM602.243 232.24L631.643 351.24L633.585 350.76L604.185 231.76L602.243 232.24ZM632.614 352H660.614V350H632.614V352ZM661.575 351.278L702.375 210.278L700.453 209.722L659.654 350.722L661.575 351.278ZM701.414 209H684.014V211H701.414V209ZM683.053 209.724L647.053 335.324L648.975 335.876L684.975 210.276L683.053 209.724ZM648.014 334.6H646.014V336.6H648.014V334.6ZM646.983 335.355L615.183 209.755L613.245 210.245L645.045 335.845L646.983 335.355ZM614.214 209H590.614V211H614.214V209ZM589.645 209.753L557.645 335.353L559.583 335.847L591.583 210.247L589.645 209.753ZM558.614 334.6H556.614V336.6H558.614V334.6ZM557.575 335.324L521.575 209.724L519.653 210.276L555.653 335.876L557.575 335.324ZM520.614 209H503.014V211H520.614V209ZM502.054 210.279L543.054 351.279L544.974 350.721L503.974 209.721L502.054 210.279ZM729.792 351H728.792V352H729.792V351ZM748.192 351V352H749.192V351H748.192ZM748.192 285.4V284.4H747.192V285.4H748.192ZM824.192 285.4H825.192V284.4H824.192V285.4ZM824.192 351H823.192V352H824.192V351ZM842.392 351V352H843.392V351H842.392ZM842.392 210H843.392V209H842.392V210ZM824.192 210V209H823.192V210H824.192ZM824.192 269.4V270.4H825.192V269.4H824.192ZM748.192 269.4H747.192V270.4H748.192V269.4ZM748.192 210H749.192V209H748.192V210ZM729.792 210V209H728.792V210H729.792ZM729.792 352H748.192V350H729.792V352ZM749.192 351V285.4H747.192V351H749.192ZM748.192 286.4H824.192V284.4H748.192V286.4ZM823.192 285.4V351H825.192V285.4H823.192ZM824.192 352H842.392V350H824.192V352ZM843.392 351V210H841.392V351H843.392ZM842.392 209H824.192V211H842.392V209ZM823.192 210V269.4H825.192V210H823.192ZM824.192 268.4H748.192V270.4H824.192V268.4ZM749.192 269.4V210H747.192V269.4H749.192ZM748.192 209H729.792V211H748.192V209ZM728.792 210V351H730.792V210H728.792ZM867.383 351L866.447 350.647L865.937 352H867.383V351ZM884.783 351V352H885.473L885.718 351.355L884.783 351ZM896.783 319.4V318.4H896.093L895.848 319.045L896.783 319.4ZM968.583 319.4L969.518 319.045L969.273 318.4H968.583V319.4ZM980.583 351L979.648 351.355L979.893 352H980.583V351ZM997.983 351V352H999.423L998.92 350.65L997.983 351ZM945.383 210L946.32 209.65L946.077 209H945.383V210ZM920.583 210V209H919.891L919.647 209.647L920.583 210ZM902.183 304.4L901.248 304.045L900.733 305.4H902.183V304.4ZM931.983 226V225H931.293L931.048 225.645L931.983 226ZM933.783 226L934.718 225.647L934.474 225H933.783V226ZM963.383 304.4V305.4H964.829L964.318 304.047L963.383 304.4ZM867.383 352H884.783V350H867.383V352ZM885.718 351.355L897.718 319.755L895.848 319.045L883.848 350.645L885.718 351.355ZM896.783 320.4H968.583V318.4H896.783V320.4ZM967.648 319.755L979.648 351.355L981.518 350.645L969.518 319.045L967.648 319.755ZM980.583 352H997.983V350H980.583V352ZM998.92 350.65L946.32 209.65L944.446 210.35L997.046 351.35L998.92 350.65ZM945.383 209H920.583V211H945.383V209ZM919.647 209.647L866.447 350.647L868.318 351.353L921.518 210.353L919.647 209.647ZM903.118 304.755L932.918 226.355L931.048 225.645L901.248 304.045L903.118 304.755ZM931.983 227H933.783V225H931.983V227ZM932.847 226.353L962.447 304.753L964.318 304.047L934.718 225.647L932.847 226.353ZM963.383 303.4H902.183V305.4H963.383V303.4ZM1042.61 351H1041.61V352H1042.61V351ZM1060.81 351V352H1061.81V351H1060.81ZM1060.81 226V225H1059.81V226H1060.81ZM1107.61 226V227H1108.61V226H1107.61ZM1107.61 210H1108.61V209H1107.61V210ZM996.009 210V209H995.009V210H996.009ZM996.009 226H995.009V227H996.009V226ZM1042.61 226H1043.61V225H1042.61V226ZM1042.61 352H1060.81V350H1042.61V352ZM1061.81 351V226H1059.81V351H1061.81ZM1060.81 227H1107.61V225H1060.81V227ZM1108.61 226V210H1106.61V226H1108.61ZM1107.61 209H996.009V211H1107.61V209ZM995.009 210V226H997.009V210H995.009ZM996.009 227H1042.61V225H996.009V227ZM1041.61 226V351H1043.61V226H1041.61ZM44.6 556L43.6398 556.279L43.8494 557H44.6V556ZM72.6 556V557H73.383L73.5708 556.24L72.6 556ZM102 437V436H101.217L101.029 436.76L102 437ZM103.8 437L104.771 436.76L104.583 436H103.8V437ZM133.2 556L132.229 556.24L132.417 557H133.2V556ZM161.2 556V557H161.952L162.161 556.278L161.2 556ZM202 415L202.961 415.278L203.33 414H202V415ZM184.6 415V414H183.846L183.639 414.724L184.6 415ZM148.6 540.6V541.6H149.354L149.561 540.876L148.6 540.6ZM146.6 540.6L145.631 540.845L145.822 541.6H146.6V540.6ZM114.8 415L115.769 414.755L115.578 414H114.8V415ZM91.2 415V414H90.4228L90.231 414.753L91.2 415ZM59.2 540.6V541.6H59.9772L60.169 540.847L59.2 540.6ZM57.2 540.6L56.2387 540.876L56.4464 541.6H57.2V540.6ZM21.2 415L22.1613 414.724L21.9536 414H21.2V415ZM3.6 415V414H2.2678L2.63977 415.279L3.6 415ZM44.6 557H72.6V555H44.6V557ZM73.5708 556.24L102.971 437.24L101.029 436.76L71.6292 555.76L73.5708 556.24ZM102 438H103.8V436H102V438ZM102.829 437.24L132.229 556.24L134.171 555.76L104.771 436.76L102.829 437.24ZM133.2 557H161.2V555H133.2V557ZM162.161 556.278L202.961 415.278L201.039 414.722L160.239 555.722L162.161 556.278ZM202 414H184.6V416H202V414ZM183.639 414.724L147.639 540.324L149.561 540.876L185.561 415.276L183.639 414.724ZM148.6 539.6H146.6V541.6H148.6V539.6ZM147.569 540.355L115.769 414.755L113.831 415.245L145.631 540.845L147.569 540.355ZM114.8 414H91.2V416H114.8V414ZM90.231 414.753L58.231 540.353L60.169 540.847L92.1691 415.247L90.231 414.753ZM59.2 539.6H57.2V541.6H59.2V539.6ZM58.1613 540.324L22.1613 414.724L20.2387 415.276L56.2387 540.876L58.1613 540.324ZM21.2 414H3.6V416H21.2V414ZM2.63977 415.279L43.6398 556.279L45.5602 555.721L4.56023 414.721L2.63977 415.279ZM230.578 556H229.578V557H230.578V556ZM329.378 556V557H330.378V556H329.378ZM329.378 540H330.378V539H329.378V540ZM248.978 540H247.978V541H248.978V540ZM248.978 491V490H247.978V491H248.978ZM319.378 491V492H320.378V491H319.378ZM319.378 475H320.378V474H319.378V475ZM248.978 475H247.978V476H248.978V475ZM248.978 431V430H247.978V431H248.978ZM327.378 431V432H328.378V431H327.378ZM327.378 415H328.378V414H327.378V415ZM230.578 415V414H229.578V415H230.578ZM230.578 557H329.378V555H230.578V557ZM330.378 556V540H328.378V556H330.378ZM329.378 539H248.978V541H329.378V539ZM249.978 540V491H247.978V540H249.978ZM248.978 492H319.378V490H248.978V492ZM320.378 491V475H318.378V491H320.378ZM319.378 474H248.978V476H319.378V474ZM249.978 475V431H247.978V475H249.978ZM248.978 432H327.378V430H248.978V432ZM328.378 431V415H326.378V431H328.378ZM327.378 414H230.578V416H327.378V414ZM229.578 415V556H231.578V415H229.578ZM408.312 556H407.312V557H408.312V556ZM408.312 415V414H407.312V415H408.312ZM426.513 540H425.513V541H426.513V540ZM426.513 431V430H425.513V431H426.513ZM408.312 557H453.513V555H408.312V557ZM453.513 557C478.099 557 498.649 549.945 513.068 537.43C527.501 524.903 535.713 506.971 535.713 485.4H533.713C533.713 506.429 525.724 523.797 511.757 535.92C497.776 548.055 477.726 555 453.513 555V557ZM535.713 485.4C535.713 463.829 527.5 445.946 513.066 433.468C498.647 421.004 478.097 414 453.513 414V416C477.728 416 497.778 422.896 511.759 434.982C525.725 447.054 533.713 464.371 533.713 485.4H535.713ZM453.513 414H408.312V416H453.513V414ZM407.312 415V556H409.312V415H407.312ZM427.513 540V431H425.513V540H427.513ZM426.513 432H453.513V430H426.513V432ZM453.513 432C472.135 432 487.688 437.151 498.566 446.363C509.427 455.561 515.713 468.874 515.713 485.4H517.713C517.713 468.326 511.198 454.439 499.859 444.837C488.537 435.249 472.49 430 453.513 430V432ZM515.713 485.4C515.713 502.03 509.474 515.393 498.639 524.613C487.787 533.849 472.237 539 453.513 539V541C472.588 541 488.638 535.751 499.936 526.137C511.251 516.507 517.713 502.57 517.713 485.4H515.713ZM453.513 539H426.513V541H453.513V539ZM631.572 562C654.111 562 673.422 554.113 687.101 540.56C700.781 527.007 708.772 507.844 708.772 485.4H706.772C706.772 507.356 698.963 525.993 685.693 539.14C672.422 552.287 653.633 560 631.572 560V562ZM708.772 485.4C708.772 440.839 676.715 409 631.572 409V411C675.628 411 706.772 441.961 706.772 485.4H708.772ZM631.572 409C586.428 409 554.372 440.839 554.372 485.4H556.372C556.372 441.961 587.515 411 631.572 411V409ZM554.372 485.4C554.372 507.844 562.363 527.007 576.043 540.56C589.722 554.113 609.033 562 631.572 562V560C609.511 560 590.721 552.287 577.451 539.14C564.181 525.993 556.372 507.356 556.372 485.4H554.372ZM631.572 544C598.351 544 574.572 519.475 574.572 485.4H572.572C572.572 520.525 597.193 546 631.572 546V544ZM574.572 485.4C574.572 451.329 598.347 427 631.572 427V425C597.197 425 572.572 450.271 572.572 485.4H574.572ZM631.572 427C664.793 427 688.372 451.325 688.372 485.4H690.372C690.372 450.275 665.951 425 631.572 425V427ZM688.372 485.4C688.372 519.48 664.788 544 631.572 544V546C665.956 546 690.372 520.52 690.372 485.4H688.372ZM764.023 519.6H763.023V520.6H764.023V519.6ZM780.823 519.6V520.6H781.823V519.6H780.823ZM796.823 489L797.368 489.839L797.377 489.833L797.386 489.826L796.823 489ZM728.223 458.6L727.223 458.593L727.216 459.6H728.223V458.6ZM746.823 458.6V459.6H747.856L747.823 458.568L746.823 458.6ZM803.423 451.6L804.423 451.616V451.614L803.423 451.6ZM784.623 478.4L785.193 479.222L785.199 479.218L785.205 479.214L784.623 478.4ZM764.023 520.6H780.823V518.6H764.023V520.6ZM781.823 519.6C781.823 511.689 782.962 506.076 785.427 501.554C787.889 497.034 791.736 493.494 797.368 489.839L796.279 488.161C790.511 491.906 786.357 495.666 783.67 500.596C780.985 505.524 779.823 511.511 779.823 519.6H781.823ZM797.386 489.826C811.256 480.379 822.623 468.918 822.623 451.2H820.623C820.623 467.882 809.991 478.821 796.26 488.174L797.386 489.826ZM822.623 451.2C822.623 427.365 802.889 409 776.023 409V411C801.958 411 820.623 428.635 820.623 451.2H822.623ZM776.023 409C747.445 409 727.427 429.872 727.223 458.593L729.223 458.607C729.42 430.928 748.601 411 776.023 411V409ZM728.223 459.6H746.823V457.6H728.223V459.6ZM747.823 458.568C747.53 449.277 750.22 441.388 755.1 435.835C759.971 430.292 767.09 427 775.823 427V425C766.557 425 758.876 428.508 753.597 434.515C748.327 440.512 745.517 448.923 745.824 458.632L747.823 458.568ZM775.823 427C791.155 427 802.615 437.63 802.424 451.586L804.423 451.614C804.632 436.37 792.091 425 775.823 425V427ZM802.424 451.584C802.232 463.433 793.866 470.569 784.042 477.586L785.205 479.214C794.981 472.231 804.214 464.567 804.423 451.616L802.424 451.584ZM784.054 477.578C777.495 482.119 772.205 486.874 768.574 493.415C764.942 499.957 763.023 508.189 763.023 519.6H765.023C765.023 508.411 766.905 500.543 770.323 494.385C773.742 488.226 778.751 483.681 785.193 479.222L784.054 477.578ZM773.023 559.8C776.47 559.8 779.483 558.557 781.635 556.378C783.787 554.198 785.023 551.138 785.023 547.6H783.023C783.023 550.662 781.96 553.202 780.212 554.972C778.464 556.743 775.977 557.8 773.023 557.8V559.8ZM785.023 547.6C785.023 540.836 779.964 535.8 773.023 535.8V537.8C778.883 537.8 783.023 541.964 783.023 547.6H785.023ZM773.023 535.8C766.083 535.8 761.023 540.836 761.023 547.6H763.023C763.023 541.964 767.164 537.8 773.023 537.8V535.8ZM761.023 547.6C761.023 551.138 762.26 554.198 764.412 556.378C766.564 558.557 769.577 559.8 773.023 559.8V557.8C770.07 557.8 767.583 556.743 765.835 554.972C764.087 553.202 763.023 550.662 763.023 547.6H761.023Z" fill="#4AC6D2"/>
</svg>
