<svg width="60" height="60" viewBox="0 0 60 60" fill="none" xmlns="http://www.w3.org/2000/svg">
<g id="employees" clip-path="url(#clip0)">
<g id="Group">
<g id="Group_2">
<path id="Vector" d="M36.9195 42.3853H33.6304C33.145 42.3853 32.7515 42.7788 32.7515 43.2642C32.7515 43.7497 33.145 44.1431 33.6304 44.1431H36.9195C37.4049 44.1431 37.7984 43.7497 37.7984 43.2642C37.7984 42.7788 37.4049 42.3853 36.9195 42.3853Z" fill="#fff"/>
</g>
</g>
<g id="Group_3">
<g id="Group_4">
<path id="Vector_2" d="M56.2792 32.9761L51.4931 31.13L49.0529 28.6898C48.8962 28.5331 48.6943 28.4483 48.488 28.435V26.4933C49.6381 25.2671 50.4568 23.7142 50.7871 21.9649C50.9922 21.9741 51.1993 21.9576 51.4036 21.9159C52.573 21.6765 53.4218 20.5914 53.4218 19.3361V18.6952C53.4218 17.969 53.1273 17.3024 52.6477 16.8258C53.4239 12.6047 52.7846 9.16476 50.7908 6.86237C48.8622 4.63545 45.7551 3.57103 41.8057 3.78466C38.157 3.98189 35.8015 5.66072 35.0552 6.27491C34.6467 6.32342 33.9509 6.46686 33.2466 6.88944C32.2704 7.47515 31.1068 8.7055 31.1068 11.2406C31.1068 13.4522 31.4603 15.2986 31.7162 16.3462C30.8584 16.764 30.2845 17.6697 30.2845 18.705V19.336C30.2845 20.5913 31.1333 21.6763 32.3027 21.9158C32.507 21.9576 32.7142 21.974 32.9191 21.9647C33.2495 23.7141 34.0683 25.267 35.2183 26.4932V28.4349C35.012 28.4482 34.81 28.533 34.6534 28.6897L32.2132 31.1299L27.4271 32.976C27.0131 33.1356 26.6176 33.3426 26.2517 33.5912C25.8503 33.864 25.746 34.4106 26.0186 34.812C26.1887 35.0624 26.4651 35.1971 26.7464 35.1971C26.9164 35.1971 27.0882 35.1478 27.2395 35.0451C27.4946 34.8718 27.7706 34.7274 28.0597 34.6159L32.5015 32.9026L35.8976 37.9969C36.3185 38.6284 36.9933 39.0335 37.7486 39.1083C37.8326 39.1166 37.9166 39.1207 38.0001 39.1207C38.4373 39.1207 38.8615 39.0057 39.237 38.7933L38.5082 55.3247C38.4867 55.8097 38.8626 56.2202 39.3476 56.2415C39.3607 56.2421 39.3739 56.2423 39.387 56.2423C39.8546 56.2423 40.2436 55.8738 40.2644 55.4021L40.9408 40.0574H42.7654L43.4418 55.4021C43.4625 55.8739 43.8516 56.2423 44.3192 56.2423C44.3323 56.2423 44.3454 56.2421 44.3586 56.2415C44.8435 56.2202 45.2193 55.8097 45.198 55.3247L44.4692 38.7933C44.8447 39.0057 45.2688 39.1207 45.7061 39.1207C45.7896 39.1207 45.8736 39.1166 45.9576 39.1083C46.7129 39.0335 47.3875 38.6284 47.8086 37.9969L51.2047 32.9026L55.6465 34.6159C56.2694 34.8561 56.8057 35.2394 57.2273 35.7177L54.1885 38.7565C53.0906 39.8544 52.486 41.3141 52.486 42.8666V55.3635C52.486 55.8489 52.8795 56.2424 53.3649 56.2424C53.8503 56.2424 54.2438 55.8489 54.2438 55.3635V42.8666C54.2438 41.7837 54.6656 40.7653 55.4314 39.9995L58.0984 37.3325C58.2055 37.7255 58.2555 38.1385 58.2387 38.5609L57.5579 55.3279C57.5382 55.813 57.9155 56.2221 58.4004 56.2419C58.4126 56.2423 58.4246 56.2426 58.4367 56.2426C58.9056 56.2426 59.2951 55.8721 59.3142 55.3994L59.9952 38.6319C60.0949 36.1447 58.6016 33.8719 56.2792 32.9761ZM34.6397 21.6024C34.4847 20.7585 33.7033 20.1452 32.8598 20.2076C32.7932 20.2124 32.7245 20.2077 32.6554 20.1937C32.3059 20.1222 32.0423 19.7534 32.0423 19.3361V18.7049C32.0423 18.2972 32.3148 17.93 32.6625 17.8689C32.9559 17.8173 33.237 17.925 33.4147 18.1569C33.5761 18.3673 33.7914 18.5178 34.0371 18.5918C34.3971 18.7006 34.794 18.6367 35.0992 18.4213C35.6488 18.0333 36.1337 17.5593 36.5405 17.0123C36.8302 16.6227 36.7491 16.0722 36.3597 15.7826C35.97 15.4929 35.4196 15.5739 35.1299 15.9634C34.927 16.2362 34.6978 16.4839 34.4455 16.703C34.1668 16.4646 33.8413 16.2924 33.4924 16.194C33.2666 15.329 32.8647 13.4756 32.8647 11.2404C32.8647 9.89426 33.2796 8.94843 34.0979 8.42929C34.7365 8.02417 35.4123 8.008 35.4119 8.00788C35.6365 8.00788 35.8552 7.91941 36.0183 7.76507C36.0397 7.74491 38.2003 5.73983 41.9004 5.53979C45.2874 5.35697 47.9021 6.21198 49.4618 8.01292C51.0337 9.82816 51.5572 12.615 50.9893 16.1031C50.7539 16.0948 50.4962 16.1126 50.2396 16.1554L49.4139 14.1723C49.2454 13.7678 48.8041 13.5494 48.3801 13.6599C48.2984 13.6812 40.1819 15.7388 36.7786 11.5017C36.4747 11.1233 35.9216 11.0629 35.543 11.3668C35.1646 11.6708 35.1041 12.224 35.4082 12.6025C38.8835 16.9293 45.7794 15.988 48.0748 15.529L48.7134 17.0624C48.988 17.7216 49.6904 18.0816 50.3827 17.9184C50.6669 17.8514 50.9384 17.8499 51.0404 17.8701C51.3958 17.9409 51.6638 18.2953 51.6638 18.695V19.336C51.6638 19.7534 51.4003 20.1221 51.0508 20.1936C50.9818 20.2077 50.9128 20.2124 50.8463 20.2075C50.003 20.1461 49.2216 20.7583 49.0665 21.6024C48.4271 25.0833 45.3935 27.6099 41.8531 27.6099C38.3127 27.6099 35.2791 25.0833 34.6397 21.6024ZM38.5387 37.1387C38.3158 37.3616 38.0567 37.3725 37.9219 37.3591C37.7873 37.3459 37.5352 37.2842 37.3603 37.022L33.939 31.8901L35.3149 30.5142L40.5673 35.1101L38.5387 37.1387ZM41.0182 38.2997L41.0714 37.0917L41.853 36.3102L42.6345 37.0917L42.6877 38.2997H41.0182ZM41.8531 33.8993L36.9761 29.6319V27.9498C38.3941 28.8515 40.0717 29.3677 41.8531 29.3677C43.6345 29.3677 45.3122 28.8515 46.7302 27.9498V29.6319L41.8531 33.8993ZM46.3461 37.022C46.1711 37.2844 45.919 37.3459 45.7845 37.3591C45.6496 37.3725 45.3905 37.3616 45.1676 37.1386L43.139 35.1099L48.3914 30.5141L49.7673 31.89L46.3461 37.022Z" fill="#fff"/>
</g>
</g>
<g id="Group_5">
<g id="Group_6">
<path id="Vector_3" d="M27.8725 37.5822L23.5809 35.709L21.2349 33.363C21.0777 33.2057 20.8757 33.1214 20.67 33.1082V31.7255C22.675 30.408 24.1422 28.3125 24.6136 25.8156C24.8445 25.8259 25.0776 25.8038 25.3073 25.7495C26.4319 25.4834 27.2481 24.4056 27.2481 23.1869V22.5461C27.2481 21.6557 26.8064 20.8547 26.1219 20.3848C26.3232 19.5872 26.4258 18.7712 26.4258 17.9499C26.4258 14.3086 24.4576 11.1014 21.4907 9.25989C21.4591 6.22086 18.8651 3.75757 15.6796 3.75757C12.4941 3.75757 9.90012 6.22086 9.86848 9.25989C6.90175 11.1014 4.93346 14.3087 4.93346 17.9499C4.93346 18.7688 5.03541 19.5824 5.23557 20.3778C4.55142 20.8453 4.11115 21.6501 4.11115 22.5557V23.1869C4.11115 24.4056 4.92736 25.4834 6.05202 25.7495C6.2817 25.8039 6.51467 25.8259 6.74565 25.8156C7.2171 28.3125 8.68441 30.408 10.6894 31.7255V33.1082C10.4837 33.1214 10.2817 33.2057 10.1245 33.363L7.77855 35.709L3.48701 37.5822C1.30344 38.5354 -0.0957814 40.7751 0.00511743 43.1556L0.524143 55.4009C0.544182 55.8732 0.933363 56.2427 1.40165 56.2427C1.41419 56.2427 1.42684 56.2424 1.4395 56.2418C1.92454 56.2213 2.30095 55.8115 2.28044 55.3265L1.7613 43.081C1.7279 42.292 1.93298 41.5264 2.31852 40.8675L4.62537 43.6357C5.3544 44.5105 5.75576 45.6193 5.75576 46.7579V55.3638C5.75576 55.8491 6.14928 56.2427 6.63467 56.2427C7.12007 56.2427 7.51358 55.8491 7.51358 55.3638V46.7579C7.51358 45.2089 6.96737 43.7005 5.97573 42.5105L3.52333 39.5675C3.73181 39.4238 3.95341 39.2966 4.19025 39.1932L7.93042 37.5606L10.5735 41.8507C10.8345 42.2743 11.2659 42.5616 11.7574 42.6389C11.8458 42.6528 11.9344 42.6596 12.0226 42.6596C12.4245 42.6596 12.8159 42.5173 13.1262 42.2524L14.801 40.8233V55.3636C14.801 55.849 15.1946 56.2425 15.6799 56.2425C16.1653 56.2425 16.5589 55.849 16.5589 55.3636V40.8235L18.2336 42.2526C18.5439 42.5175 18.9353 42.6599 19.3371 42.6599C19.4253 42.6599 19.514 42.653 19.6023 42.6391C20.0938 42.5618 20.5253 42.2746 20.7863 41.8509L23.4293 37.5607L27.1695 39.1933C27.4062 39.2967 27.628 39.424 27.8364 39.5676L25.384 42.5106C24.3924 43.7005 23.8462 45.2091 23.8462 46.758V55.3639C23.8462 55.8493 24.2397 56.2428 24.7251 56.2428C25.2105 56.2428 25.604 55.8493 25.604 55.3639V46.758C25.604 45.6195 26.0055 44.5106 26.7344 43.6358L29.0412 40.8676C29.4268 41.5265 29.6319 42.2921 29.5985 43.0812L29.0794 55.3266C29.0589 55.8115 29.4353 56.2213 29.9204 56.242C29.933 56.2425 29.9456 56.2428 29.9582 56.2428C30.4265 56.2428 30.8157 55.8734 30.8357 55.401L31.3548 43.1557C31.4555 40.7753 30.0562 38.5354 27.8725 37.5822ZM15.6798 5.51539C17.5497 5.51539 19.1273 6.70824 19.5938 8.3245C18.3804 7.86653 17.0602 7.61469 15.6798 7.61469C14.2995 7.61469 12.9792 7.86653 11.7659 8.3245C12.2324 6.70824 13.8099 5.51539 15.6798 5.51539ZM8.46632 25.4534C8.3114 24.6093 7.5287 23.9962 6.68659 24.0585C6.61194 24.0638 6.53483 24.0575 6.45702 24.0389C6.12186 23.9596 5.86909 23.5933 5.86909 23.1869V22.5557C5.86909 22.148 6.14155 21.7807 6.48924 21.7197C6.78268 21.6681 7.06358 21.7759 7.24124 22.0076C7.40261 22.2181 7.61788 22.3685 7.86386 22.4428C8.22374 22.5516 8.62089 22.4877 8.92582 22.2722C9.46711 21.8902 9.9457 21.4245 10.3484 20.8882C10.6398 20.5001 10.5614 19.9491 10.1733 19.6577C9.78504 19.3663 9.23414 19.4447 8.94269 19.8328C8.74335 20.0983 8.51894 20.3395 8.27214 20.5539C7.89609 20.2323 7.43495 20.031 6.94581 19.9699C6.77741 19.3079 6.69128 18.6309 6.69128 17.95C6.69128 13.2205 10.7235 9.37263 15.6798 9.37263C20.6361 9.37263 24.6683 13.2204 24.6683 17.95C24.6683 18.6297 24.5826 19.3052 24.4148 19.9661C24.1835 19.9845 23.9484 20.0223 23.7308 20.0788L23.07 19.5355C22.7381 19.2625 22.3202 19.1258 21.8972 19.151C20.6054 19.2273 13.9892 19.402 10.5947 15.3396C10.2834 14.9672 9.72926 14.9175 9.35672 15.2287C8.98418 15.54 8.93461 16.0943 9.24586 16.4667C10.92 18.4703 13.3754 19.8251 16.5439 20.4935C18.9698 21.0053 21.1263 20.9556 21.9712 20.9074L23.002 21.7551C23.2857 21.9884 23.6835 22.0213 24.0012 21.8364C24.1503 21.7552 24.6495 21.6776 24.8674 21.7211C25.2228 21.7917 25.4907 22.1464 25.4907 22.5461V23.1869C25.4907 23.5934 25.2379 23.9597 24.9028 24.0389C24.8251 24.0573 24.7478 24.064 24.6732 24.0584C23.8315 23.9972 23.0484 24.6093 22.8933 25.4533C22.254 28.9343 19.2203 31.4609 15.6799 31.4609C12.1395 31.4609 9.1057 28.9343 8.46632 25.4534ZM12.0354 40.8725L9.39187 36.5816L10.7461 35.2273L14.3857 38.867L12.0354 40.8725ZM15.6798 37.675L12.4473 34.4425V32.6242C13.4564 33.0084 14.5469 33.2187 15.6798 33.2187C16.8128 33.2187 17.9032 33.0084 18.9123 32.6244V34.4425L15.6798 37.675ZM19.3243 40.8725L16.9739 38.867L20.6136 35.2273L21.9678 36.5816L19.3243 40.8725Z" fill="#fff"/>
</g>
</g>
<g id="Group_7">
<g id="Group_8">
<path id="Vector_4" d="M12.3906 46.2617H9.92383C9.43844 46.2617 9.04492 46.6552 9.04492 47.1406C9.04492 47.626 9.43844 48.0195 9.92383 48.0195H12.3906C12.876 48.0195 13.2695 47.626 13.2695 47.1406C13.2695 46.6552 12.876 46.2617 12.3906 46.2617Z" fill="#fff"/>
</g>
</g>
</g>
<defs>
<clipPath id="clip0">
<rect width="60" height="60" fill="white"/>
</clipPath>
</defs>
</svg>
