<svg width="30" height="30" viewBox="0 0 30 30" fill="none" xmlns="http://www.w3.org/2000/svg">
<path d="M4.58984 16.6901C4.26629 16.6901 4.00391 16.9525 4.00391 17.2761V17.3273C4.00391 17.651 4.26629 17.9133 4.58984 17.9133C4.9134 17.9133 5.17578 17.651 5.17578 17.3273V17.2761C5.17572 16.9525 4.9134 16.6901 4.58984 16.6901Z" fill="white"/>
<path d="M4.58984 18.4633C4.26629 18.4633 4.00391 18.7256 4.00391 19.0493V23.1537C4.00391 23.4773 4.26629 23.7396 4.58984 23.7396C4.9134 23.7396 5.17578 23.4773 5.17578 23.1537V19.0493C5.17572 18.7256 4.9134 18.4633 4.58984 18.4633Z" fill="white"/>
<path d="M25.4102 16.69C25.0866 16.69 24.8242 16.9524 24.8242 17.276V17.3273C24.8242 17.6509 25.0866 17.9132 25.4102 17.9132C25.7337 17.9132 25.9961 17.6509 25.9961 17.3273V17.276C25.9961 16.9524 25.7337 16.69 25.4102 16.69Z" fill="white"/>
<path d="M25.4102 18.4634C25.0866 18.4634 24.8242 18.7257 24.8242 19.0493V23.1538C24.8242 23.4774 25.0866 23.7397 25.4102 23.7397C25.7337 23.7397 25.9961 23.4774 25.9961 23.1538V19.0493C25.9961 18.7257 25.7337 18.4634 25.4102 18.4634Z" fill="white"/>
<path d="M26.66 14.534V12.8905H26.7176C27.0411 12.8905 27.3035 12.6282 27.3035 12.3046C27.3035 5.52006 21.7839 0.000427246 14.9994 0.000427246C8.21489 0.000427246 2.69519 5.52006 2.69519 12.3046C2.69519 12.6282 2.95757 12.8905 3.28113 12.8905H3.34001V14.534C1.34918 15.6472 0 17.7762 0 20.2146C0 22.9235 1.66488 25.2505 4.02497 26.2273C4.1854 27.4934 5.26845 28.4758 6.57737 28.4758H12.9293C13.2044 29.3574 14.0283 29.9991 14.9994 29.9991C16.1948 29.9991 17.1673 29.0267 17.1673 27.8313C17.1673 26.6359 16.1949 25.6634 14.9994 25.6634C13.9859 25.6634 13.1329 26.3626 12.8968 27.304H6.57743C6.06673 27.304 5.61913 27.0294 5.37403 26.6202C5.74118 26.6847 6.1187 26.7187 6.50407 26.7187H6.67938C7.00294 26.7187 7.26532 26.4563 7.26532 26.1327L7.26538 14.2967C7.26538 14.1413 7.20362 13.9922 7.09376 13.8824C6.98383 13.7725 6.83483 13.7108 6.67944 13.7108H6.50389C6.46475 13.7108 6.42579 13.7116 6.38677 13.7122V12.8905H7.03563C7.35918 12.8905 7.62157 12.6282 7.62157 12.3046C7.62157 8.23641 10.9313 4.92669 14.9994 4.92669C19.0676 4.92669 22.3773 8.23641 22.3773 12.3046C22.3773 12.6282 22.6397 12.8905 22.9633 12.8905H23.6132V13.7122C23.5742 13.7115 23.5352 13.7108 23.4961 13.7108H23.3206C23.1652 13.7108 23.0162 13.7725 22.9062 13.8824C22.7964 13.9922 22.7346 14.1413 22.7346 14.2967L22.7347 26.1327C22.7347 26.4563 22.9971 26.7187 23.3206 26.7187H23.4959C27.0822 26.7187 29.9999 23.801 29.9999 20.2147C29.9999 17.7762 28.6508 15.6472 26.66 14.534ZM14.9994 26.8352C15.5486 26.8352 15.9954 27.282 15.9954 27.8312C15.9954 28.3804 15.5486 28.8273 14.9994 28.8273C14.4502 28.8273 14.0034 28.3804 14.0034 27.8312C14.0034 27.282 14.4501 26.8352 14.9994 26.8352ZM6.09345 25.5311C3.34441 25.3207 1.17181 23.0166 1.17181 20.2146C1.17181 17.4125 3.34423 15.1084 6.0935 14.8983L6.09345 25.5311ZM4.51183 13.9796V12.8905H5.21495V13.8254L4.51183 13.9796ZM23.5292 11.7187C23.2273 7.27641 19.5169 3.75493 14.9994 3.75493C10.4819 3.75493 6.77149 7.27653 6.46956 11.7187H3.88224C4.18827 5.85182 9.0577 1.17224 14.9994 1.17224C20.9411 1.17224 25.8105 5.85182 26.1165 11.7187H23.5292ZM25.4882 12.8905V14.0232C25.259 13.9493 25.0245 13.8876 24.785 13.8392V12.8905H25.4882ZM23.9065 25.5311L23.9064 14.8982C26.6557 15.1083 28.8281 17.4125 28.8281 20.2145C28.8281 23.0166 26.6555 25.3207 23.9065 25.5311Z" fill="white"/>
</svg>
