<?xml version="1.0" encoding="utf-8"?>
<!-- Generator: Adobe Illustrator 22.1.0, SVG Export Plug-In . SVG Version: 6.00 Build 0)  -->
<svg version="1.1" id="Слой_1" xmlns="http://www.w3.org/2000/svg" xmlns:xlink="http://www.w3.org/1999/xlink" x="0px" y="0px"
	 viewBox="0 0 1469.7 500" style="enable-background:new 0 0 1469.7 500;" xml:space="preserve">
<style type="text/css">
	.st0{fill:#FFFFFF;}
</style>
<g>
	<g>
		<path class="st0" d="M488.5,220.4h47.6l7.5-23.9h56.3l7.5,23.9h47.6L605.8,63.3h-68L488.5,220.4z M552.8,163.6l18-61h2.2l18,61
			H552.8z"/>
		<path class="st0" d="M742.7,223.3c30,0,50.2-23,50.2-59.5c0-36-20.4-59.5-50-59.5c-14.5,0-25.4,5.7-32.9,16h-2.2V56.7h-41v163.7
			h41v-13.2h2.2C717.5,217.5,728,223.3,742.7,223.3z M728.9,188.8c-13.2,0-22.8-10.8-22.8-25c0-14.3,9.6-25,22.8-25
			c13.4,0,22.8,10.8,22.8,25C751.7,178,742.2,188.8,728.9,188.8z"/>
		<path class="st0" d="M858.3,224.1c36,0,58.1-15.4,58.1-40.6c0-26.8-25.9-31.8-46.5-34c-15.1-1.8-28.5-2.2-28.5-10.8
			c0-6.1,6.6-10.3,15.8-10.3c10.5,0,18,5.3,18.2,13.2h36.4c0-23.3-23.2-38-54.6-38c-32.2,0-53.5,14.9-53.5,38.8
			c0,31.4,30,33.1,50.4,35.1c11.8,1.1,21.5,2.4,21.5,10.5c0,6.8-6.8,11-16.4,11c-12.9,0-21.3-6.4-21.3-16h-34.9
			C803.1,208.5,824.4,224.1,858.3,224.1z"/>
		<path class="st0" d="M990.6,223.3c38.8,0,63.8-22.4,63.8-59.5c0-36.9-25-59.5-63.8-59.5c-39.2,0-64,22.4-64,59.5
			C926.6,200.6,951.6,223.3,990.6,223.3z M990.6,188.8c-13.6,0-22.8-10.3-22.8-25c0-14.7,9.2-25,22.8-25c13.4,0,22.8,10.3,22.8,25
			C1013.4,178.5,1004,188.8,990.6,188.8z"/>
		<path class="st0" d="M1068.9,220.4h41V56.7h-41V220.4z"/>
		<path class="st0" d="M1242.8,107.1h-41v62.3c0,11.4-7.5,19.3-17.1,19.3c-9.6,0-15.8-7.7-15.8-18.7v-63h-41v70.7
			c0,26.3,16.4,45.2,39.9,45.2c13.4,0,22.8-5.9,31.8-19.3h2.2v16.7h41V107.1z"/>
		<path class="st0" d="M1310.6,223.3c7,0,17.5-1.3,24.8-4v-28.5c-3.5,0.9-7.9,1.5-11,1.5c-8.1,0-13.4-5.9-13.4-14.7v-41.3h23.7
			v-29.2h-23.7V71.8h-32.2l-7.5,35.3h-16v29.2h14.5v43.2C1269.9,205.7,1285.9,223.3,1310.6,223.3z"/>
		<path class="st0" d="M1407.4,223.3c28.9,0,52.2-12.9,57.9-34.2l-35.3-6.4c-3.5,7.2-10.5,12.3-20.4,12.3c-12.3,0-20.6-7.7-23.2-20
			h82.6c0.4-2.2,0.7-7.9,0.7-11.2c0-36.2-24.6-59.5-61.8-59.5c-37.5,0-63.8,23-63.8,59C1344.1,199.8,1369.9,223.3,1407.4,223.3z
			 M1385.9,153c2.2-12.5,9.6-20.4,21-20.4c11.6,0,20.2,9.2,21.3,20.4H1385.9z"/>
		<path class="st0" d="M564.8,443.2c43.8,0,72.6-20.2,72.6-51.4c0-38-36.2-43.7-62.9-47.6c-18.2-2.6-33.8-4.6-33.8-16.5
			c0-8.8,8.8-14.9,23.5-14.9c15.8,0,26.1,7.9,26.1,21.7h41.9c0-32.5-27.8-54.9-69.5-54.9c-41.4,0-68.2,20.2-68.2,51.4
			c0,40.4,40.8,43.7,67.7,47.4c16,2.2,28.9,4.8,28.9,16.2c0,9.7-9.6,15.1-24.6,15.1c-18.8,0-29.6-8.6-29.8-21.7h-43.4
			C493.4,420.6,521.9,443.2,564.8,443.2z"/>
		<path class="st0" d="M712.7,442.7c28.9,0,52.2-12.9,57.9-34.2l-35.3-6.4c-3.5,7.2-10.5,12.3-20.4,12.3c-12.3,0-20.6-7.7-23.2-20
			h82.6c0.4-2.2,0.7-7.9,0.7-11.2c0-36.2-24.6-59.5-61.8-59.5c-37.5,0-63.8,23-63.8,59C649.4,419.3,675.2,442.7,712.7,442.7z
			 M691.2,372.5c2.2-12.5,9.6-20.4,21-20.4c11.6,0,20.2,9.2,21.3,20.4H691.2z"/>
		<path class="st0" d="M789.5,439.9h41v-56.2c0-14.7,8.8-24.6,21.3-24.6c5.3,0,13.2,1.8,19.7,4.6v-36.4c-3.5-1.8-8.1-2.9-12.5-2.9
			c-11.4,0-21.5,7-26.3,18.2h-2.4v-16h-40.8V439.9z"/>
		<path class="st0" d="M913.3,439.9h59.8l37.3-113.3h-43.6l-22.6,79.2H942l-22.6-79.2H876L913.3,439.9z"/>
		<path class="st0" d="M1041.7,314.3c13.8,0,23.5-9.4,23.5-22.6s-9.6-22.4-23.5-22.4c-13.4,0-23.2,9.2-23.2,22.4
			S1028.4,314.3,1041.7,314.3z M1021.4,439.9h41V326.6h-41V439.9z"/>
		<path class="st0" d="M1140.7,442.7c32.2,0,55.9-16.9,59.6-45.2l-37.9-4.6c-2.2,9.9-11,16.9-21.3,16.9c-12.9,0-22.4-11-22.4-26.6
			c0-15.6,9.6-26.6,22.6-26.6c9.9,0,18.9,7,21,17.1l37.9-4.8c-3.5-28.3-27.2-45.2-59.6-45.2c-37.7,0-62.9,23-62.9,59.5
			C1077.8,419.3,1103.6,442.7,1140.7,442.7z"/>
		<path class="st0" d="M1275.3,442.7c28.9,0,52.2-12.9,57.9-34.2l-35.3-6.4c-3.5,7.2-10.5,12.3-20.4,12.3c-12.3,0-20.6-7.7-23.2-20
			h82.6c0.4-2.2,0.7-7.9,0.7-11.2c0-36.2-24.6-59.5-61.8-59.5c-37.5,0-63.8,23-63.8,59C1212,419.3,1237.8,442.7,1275.3,442.7z
			 M1253.9,372.5c2.2-12.5,9.6-20.4,21-20.4c11.6,0,20.2,9.2,21.3,20.4H1253.9z"/>
	</g>
	<g>
		<g>
			<path class="st0" d="M109.1,324.5l-40.9,57.7l-0.5-0.7c-30.8-41.4-47-90.7-47-142.4C20.7,107.3,128,0,259.8,0
				c24.1,0,47.8,3.6,70.6,10.6l0.8,0.2l-40.9,57.8l0,0l-0.4-0.1c-9.9-1.7-20-2.6-30.1-2.6c-46.2,0-89.7,18-122.4,50.7
				c-32.7,32.7-50.7,76.2-50.7,122.4c0,29.9,7.7,59.3,22.2,85 M259.8,1.2C128.6,1.2,21.9,107.9,21.9,239.1c0,51.2,16,100,46.3,141.1
				l39.5-55.8c-14.5-25.8-22.2-55.3-22.2-85.3c0-46.6,18.1-90.3,51-123.2s76.7-51,123.2-51c10,0,20.1,0.9,29.9,2.5l39.6-55.9
				C306.9,4.6,283.5,1.2,259.8,1.2z"/>
		</g>
		<g>
			<g>
				<path class="st0" d="M82.6,499.8H0l0.7-0.9L343.3,15l0.4,0.2c3.2,1.2,6.1,2.3,8.8,3.5l0.4,0.2v367.7l-0.3,0.2
					c-19.9,12.6-41.8,20.8-65,24.5l-0.7,0.1V211.3L82.6,499.8z M2.3,498.7H82l206.1-291.1v202.4c22.8-3.7,44.2-11.8,63.6-24.1V19.6
					c-2.5-1.1-5.2-2.1-8-3.2L2.3,498.7z"/>
			</g>
			<g>
				<path class="st0" d="M352.9,499.8h-66v-24.3l0.5-0.1c22.3-2.6,44-8.3,64.7-17l0.8-0.3V499.8z M288.1,498.7h63.6v-38.8
					c-20.4,8.5-41.8,14.1-63.6,16.7V498.7z"/>
			</g>
		</g>
		<g>
			<path class="st0" d="M176,390.7c25.4,14.1,54.4,21.6,83.8,21.6c39,0,75.8-12.6,106.3-36.5l1-0.7v77.8l-0.3,0.2
				c-33.4,16.7-69.4,25.2-106.9,25.2c-43,0-85.2-11.6-122-33.4l-0.5-0.3l38.3-54.1 M139,444.1c36.5,21.6,78.3,32.9,120.8,32.9
				c37.3,0,72.9-8.4,106.1-24.9v-74.7c-30.5,23.5-67.2,36-106.1,36c-29.4,0-58.4-7.4-83.9-21.5L139,444.1z"/>
		</g>
	</g>
</g>
</svg>
