<svg width="150" height="39" viewBox="0 0 150 39" fill="none" xmlns="http://www.w3.org/2000/svg">
<path d="M41.3791 30.2641C44.6806 22.5605 49.4679 9.35437 50.9535 5.11739C51.4488 3.90682 51.999 1.98093 52.1641 0.990463C53.0445 1.04549 54.2001 1.10051 55.2455 1.10051C56.5111 1.10051 57.3916 1.04549 58.2169 0.990463L59.2074 4.40206C61.2984 10.1798 65.9756 23.606 67.9565 28.8885C69.9374 33.7858 70.2125 34.281 74.6696 34.9963C74.7797 35.2164 74.6696 36.7572 74.4495 37.0323C72.9638 37.0323 70.3776 36.8672 65.8105 36.8672C60.8031 36.8672 58.9873 37.0323 56.7312 37.0323C56.6212 36.7021 56.5662 35.2715 56.7312 34.9963C57.9418 34.7762 59.0973 34.5011 59.6476 34.171C60.3079 33.8408 60.3079 33.2355 60.2529 33.0704C59.7577 31.0895 58.382 27.0176 57.5016 24.9266C57.3915 24.8166 57.1714 24.4864 56.8963 24.4864C55.9609 24.4314 53.9249 24.4864 52.3842 24.4864C50.0181 24.4864 48.4774 24.4864 47.652 24.5415C47.4869 24.5415 47.1017 24.8166 46.9917 25.0917C46.0012 28.0081 44.7356 31.4197 44.7356 32.4652C44.7907 33.2905 44.9007 34.1159 46.3864 34.4461C47.3219 34.6662 48.2023 34.8863 49.3028 35.0514C49.4679 35.2715 49.3028 36.8122 49.1377 37.0873C47.4319 37.0873 45.1208 36.9222 41.6542 36.9222C39.4532 36.9222 37.032 37.0873 34.9411 37.0873C34.776 36.8122 34.721 35.3815 34.9411 35.0514C39.068 34.336 39.8934 33.7858 41.3791 30.2641ZM52.2191 9.6295C51.0086 12.931 49.4678 17.8834 48.5324 20.5796C48.4774 20.7997 48.5324 21.0198 48.6425 21.0198C49.3028 21.0748 50.4033 21.0748 51.999 21.0748C53.98 21.0748 55.3556 21.0748 55.9609 21.0198C56.0159 21.0198 56.126 20.8547 56.126 20.7447C55.5207 18.9288 53.5948 12.931 52.3842 9.68452C52.3842 9.6295 52.2191 9.57447 52.2191 9.6295Z" fill="black"/>
<path d="M68.4517 0.880413C71.0379 0.880413 72.6337 1.10052 77.586 1.10052C82.5933 1.10052 84.024 0.935439 86.5002 0.935439C86.7203 1.10052 86.7203 2.64123 86.5002 2.97139C85.1795 3.19149 84.1891 3.52165 83.5838 3.74175C82.9235 4.0719 82.8685 4.78724 82.9785 5.28247C84.7393 11.6654 87.6007 20.4696 89.0313 24.5965C89.1414 24.7616 89.3065 24.6515 89.3615 24.5415C91.5625 19.0939 95.2492 8.19883 96.5699 2.97139C97.5053 3.13647 99.8714 3.08144 100.807 2.97139C102.293 7.64857 108.125 22.3955 109.556 25.807C109.666 25.8621 109.831 25.8621 109.886 25.752C111.757 20.1394 114.618 10.5099 115.279 7.26339C115.554 5.55759 115.444 4.34703 113.793 3.8518C112.747 3.41159 111.702 3.30154 109.941 3.02641C109.666 2.80631 109.831 1.15554 109.996 0.990464C111.372 0.990464 113.958 1.15554 117.48 1.15554C121.441 1.15554 123.257 0.990464 124.523 0.990464C124.633 1.15554 124.688 2.69626 124.523 3.02641C123.312 3.30154 122.817 3.35657 122.047 3.68672C120.671 4.23698 119.901 5.11739 119.075 7.31842C116.269 14.8569 111.427 29.7689 108.951 37.4175C108.015 37.3624 105.539 37.3074 104.604 37.5275C103.063 32.9054 97.7804 18.8188 96.1296 15.1321C96.0746 15.022 95.9095 15.077 95.8545 15.1871C93.5434 21.2399 89.5266 31.9149 87.8208 37.4175C86.9404 37.3074 84.4642 37.2524 83.4737 37.4175C81.6579 29.6038 76.3204 13.1511 74.1194 7.31842C73.5141 5.83272 72.7437 4.23698 71.4781 3.68672C70.4327 3.24652 69.8824 3.13647 68.2867 2.91636C68.1216 2.69626 68.1216 0.990464 68.4517 0.880413Z" fill="black"/>
<path d="M131.786 33.8408C133.327 34.9413 135.473 35.4365 137.179 35.4365C139.985 35.4365 142.186 33.7858 142.186 30.8144C142.186 28.0081 141.085 26.2472 135.528 22.8907C130.466 19.7542 126.229 17.0029 126.229 10.73C126.229 3.74175 132.061 0 138.884 0C143.452 0 145.873 0.770359 148.789 0.990462C148.349 3.24652 148.019 6.05282 147.799 9.73955C147.523 10.0147 146.038 10.0147 145.708 9.8496C145.157 6.2179 144.387 4.51211 142.956 3.52164C141.636 2.53118 140.315 2.20103 138.444 2.20103C135.308 2.20103 133.327 4.40205 133.327 7.20836C133.327 9.68452 134.592 11.2803 137.014 12.9861C139.545 14.5818 141.03 15.4622 143.617 17.0029C148.019 19.7542 149.945 22.3404 149.945 26.6324C149.945 32.9054 144.882 37.9677 135.693 37.9677C131.621 37.9677 127.989 36.8672 126.504 36.0968C125.843 35.1614 124.688 28.6134 124.633 26.5774C124.798 26.2472 126.339 25.752 126.724 25.9171C128.044 29.8789 129.585 32.19 131.786 33.8408Z" fill="black"/>
<path d="M18.1585 0.880413C8.1438 0.880413 0 9.02421 0 19.0389C0 29.0536 8.1438 37.1974 18.1585 37.1974C28.1731 37.1974 36.3169 29.0536 36.3169 19.0389C36.3169 9.02421 28.1731 0.880413 18.1585 0.880413ZM35.7117 18.9839H35.1614L35.6016 16.9479C35.6566 17.6082 35.7117 18.3236 35.7117 18.9839ZM35.5466 16.5627L34.9963 18.9288H34.9413L34.1159 14.5268L35.4365 16.1775C35.4916 16.3426 35.4916 16.4527 35.5466 16.5627ZM35.3815 21.9002L34.1159 23.4409L34.9413 19.6992L35.3815 21.9002ZM34.8313 18.9839H30.8694L34.0609 14.5818L34.8313 18.9839ZM35.4365 15.9574L34.1709 14.4167L34.7762 13.5363C35.0514 14.3067 35.2715 15.1321 35.4365 15.9574ZM34.7762 13.3712L34.1159 14.3067L33.4006 10.5649H33.5106C34.0059 11.4453 34.391 12.3808 34.7762 13.3712ZM33.4006 10.3999L33.3456 10.2898C33.3456 10.3448 33.4006 10.3999 33.4006 10.3999ZM33.8958 14.0866L30.8694 10.2898L33.2355 10.5099L33.8958 14.0866ZM30.7594 6.87821C31.0895 7.20837 31.3646 7.53852 31.6398 7.86867L30.7594 7.37344V6.87821ZM30.7594 7.48349L31.8599 8.08878C32.3551 8.69406 32.7953 9.29934 33.1805 9.95965L33.2355 10.3999L30.7594 10.1798V10.1247V7.48349ZM30.7594 10.3448L33.9508 14.3617V14.4718L30.7043 18.9288V10.3448H30.7594ZM30.7594 19.0939H34.8863L34.9413 19.369L33.9508 23.661L30.7594 19.204V19.0939ZM30.7594 19.4241L33.8958 23.7711L30.7594 27.6779V19.4241ZM28.9435 5.22744L26.6324 4.89729L27.1277 4.01688C27.7329 4.34703 28.3382 4.78724 28.9435 5.22744ZM26.3573 33.1805L26.2472 33.2355L19.8092 34.1709L23.7711 28.7234L26.3573 33.1805ZM23.9362 28.7234L30.4842 28.0631L26.4674 33.0704L23.9362 28.7234ZM25.9721 33.4006L22.2304 35.6016L19.9743 34.281L25.9721 33.4006ZM9.90462 4.78724L11.9406 8.25385L6.54806 7.7036L9.90462 4.78724ZM6.60308 7.53852L7.37344 5.61262L9.68452 4.84226L6.60308 7.53852ZM14.3067 3.24652L11.9956 8.19883L9.95965 4.67718L14.3067 3.24652ZM10.2348 4.51211L12.1056 2.86134L14.1416 3.13647L10.2348 4.51211ZM18.2135 19.0939L12.1056 29.6588L7.26339 19.0939H18.2135ZM7.26339 18.9839L12.0506 8.52898L18.1034 18.9839H7.26339ZM18.2685 19.259L23.7161 28.6134L12.2157 29.7139L18.2685 19.259ZM18.2685 18.9839L12.1607 8.41893L23.7161 9.57447L18.2685 18.9839ZM12.3258 8.30888L19.7542 4.01688L23.606 9.46442L12.3258 8.30888ZM19.5891 3.96185L12.1607 8.25385L14.4718 3.19149L19.5891 3.96185ZM14.6919 3.13647L18.2135 1.9259L19.6442 3.8518L14.6919 3.13647ZM11.8855 8.41893L4.56713 12.6559L6.49303 7.86867L11.8855 8.41893ZM4.34703 12.766L3.30154 10.62L6.27293 8.03375L4.34703 12.766ZM4.45708 12.876L11.8855 8.58401L7.15334 18.8738L4.40205 12.9861L4.45708 12.876ZM11.9956 29.7139L4.40205 25.3668V25.3118L7.15334 19.204L11.9956 29.7139ZM6.16288 30.2091L3.24652 27.6779L4.292 25.4219L6.16288 30.2091ZM4.45708 25.5319L11.7755 29.7139L6.32795 30.2641L4.45708 25.5319ZM11.9406 29.8239L9.90462 33.4556L6.38298 30.3742L11.9406 29.8239ZM12.0506 29.934L14.3617 34.9413L9.95965 33.5106L12.0506 29.934ZM12.2707 30.044L19.5891 34.226L14.5268 34.9413L12.2707 30.044ZM19.5891 34.336L18.2135 36.2069L14.6919 35.0514L19.5891 34.336ZM12.1607 29.8239L23.606 28.7234L19.6992 34.1709L12.1607 29.8239ZM18.3786 19.0939H30.5393L30.5943 19.1489L23.8261 28.5033L18.3786 19.0939ZM18.4336 18.9839L23.8261 9.68452L30.4842 18.9839H18.4336ZM23.8261 9.46442L19.9193 4.01688L26.4123 5.00734L23.8261 9.46442ZM19.9743 3.90683L22.2304 2.58621L26.0822 4.78724L19.9743 3.90683ZM26.5224 5.06236L30.5943 10.1798L23.9362 9.51944L26.5224 5.06236ZM27.0176 3.90683L26.5224 4.78724L24.9817 2.86134C25.642 3.19149 26.3573 3.52165 27.0176 3.90683ZM24.7065 2.80631L26.3023 4.78724L22.3955 2.53118L22.9457 2.20103C23.551 2.36611 24.1563 2.53118 24.7065 2.80631ZM22.7806 2.146L22.2304 2.47616L21.0748 1.81585C21.6801 1.87088 22.2304 1.98093 22.7806 2.146ZM20.7447 1.7058L22.1203 2.53118L19.8092 3.8518L18.3786 1.87088L19.259 1.54072C19.7542 1.59575 20.2495 1.65077 20.7447 1.7058ZM18.1585 1.54072C18.4336 1.54072 18.6537 1.54072 18.9288 1.54072L18.2685 1.76082L18.1034 1.54072C18.1585 1.54072 18.1585 1.54072 18.1585 1.54072ZM17.9384 1.54072L18.1585 1.81585L14.5818 3.02641L15.1321 1.76082C16.0675 1.65077 17.0029 1.54072 17.9384 1.54072ZM14.967 1.81585L14.3617 3.08144L12.2707 2.75129L12.6559 2.42113C13.4263 2.146 14.1966 1.98093 14.967 1.81585ZM12.3258 2.53118L12.1056 2.75129L11.8855 2.69626C11.9956 2.64123 12.1607 2.58621 12.3258 2.53118ZM11.6104 2.80631L11.9406 2.86134L9.90462 4.62216L9.51944 3.8518C10.1798 3.41159 10.8951 3.08144 11.6104 2.80631ZM7.64857 5.06236C8.19883 4.62216 8.80411 4.23698 9.40939 3.90683L9.8496 4.67718L7.48349 5.50257L7.64857 5.06236ZM7.42847 5.22744L7.31842 5.5576L6.87821 5.72267C7.04329 5.50257 7.20836 5.33749 7.42847 5.22744ZM6.60308 5.88775L7.26339 5.66765L6.438 7.7036L4.95231 7.53852C5.44754 6.98826 5.9978 6.43801 6.60308 5.88775ZM4.84226 7.7036L6.27293 7.86867L3.30154 10.4549L3.13646 10.0697C3.63169 9.24432 4.18195 8.47396 4.84226 7.7036ZM3.02641 10.2348L3.19149 10.5649L2.53118 11.1152C2.69626 10.8401 2.86134 10.5099 3.02641 10.2348ZM2.03595 12.2157C2.146 11.9406 2.25605 11.6654 2.42113 11.3903L3.24652 10.675L4.23698 12.821L2.03595 14.0866V12.2157ZM2.03595 14.2517L4.292 12.931L2.03595 18.5437V14.2517ZM2.03595 18.8738L4.34703 13.1511L7.04329 19.0389H2.03595V18.8738ZM2.03595 19.0939H7.04329L4.292 25.0917L2.03595 19.369V19.0939ZM2.03595 19.6992L4.18195 25.2568L2.03595 23.9912V19.6992ZM0.825385 16.6178L1.76082 18.9839H0.660308C0.660308 18.1585 0.715334 17.3881 0.825385 16.6178ZM0.660308 19.0939H1.81585L0.825385 21.46C0.715334 20.6897 0.660308 19.9193 0.660308 19.0939ZM1.9259 25.5319C1.7058 24.9266 1.48569 24.3214 1.32062 23.7161L1.9259 24.0462V25.5319ZM1.9259 23.9362L1.26559 23.551C1.10051 22.9457 0.990462 22.3404 0.880411 21.7351L1.87087 19.259L1.9259 19.369V23.9362ZM1.9259 18.8188L1.87087 18.9288L0.880411 16.3426C0.990462 15.7924 1.10051 15.2421 1.21056 14.7469L1.9259 14.3067V18.8188ZM1.9259 14.1966L1.26559 14.5818C1.43067 13.8665 1.65077 13.2062 1.9259 12.5459V14.1966ZM2.03595 25.8621V24.1563L4.18195 25.3668L3.13646 27.5679L2.64123 27.1277C2.42113 26.7425 2.20103 26.3023 2.03595 25.8621ZM3.02641 27.843C2.97139 27.7329 2.86134 27.5679 2.80631 27.4578L3.08144 27.7329L3.02641 27.843ZM3.13646 28.0081L3.24652 27.843L6.05282 30.2641L4.84226 30.3742C4.18195 29.6588 3.63169 28.8335 3.13646 28.0081ZM6.98826 32.5202C6.27293 31.9149 5.55759 31.2546 4.95231 30.5393L6.2179 30.4292L6.27293 30.4842L7.09831 32.5752L6.98826 32.5202ZM6.438 30.6493L9.57447 33.4006L7.20836 32.6302L6.438 30.6493ZM7.26339 32.7403L9.79457 33.5657L9.40939 34.226C8.69406 33.7858 7.97872 33.2905 7.26339 32.7403ZM11.7205 35.3265C10.9501 35.0514 10.2348 34.6662 9.51944 34.281L9.90462 33.6207L11.8305 35.2715L11.7205 35.3265ZM10.1798 33.6757L14.1416 34.9963L11.9956 35.3265L10.1798 33.6757ZM12.2707 35.5466L12.1056 35.4365L14.3617 35.1064H14.4167L14.967 36.2619C14.0315 36.0968 13.1511 35.8767 12.2707 35.5466ZM15.1321 36.3169L14.6368 35.1614L18.1585 36.3169L17.9934 36.5371C17.0029 36.5371 16.0675 36.482 15.1321 36.3169ZM18.1585 36.5921H18.1034L18.2685 36.372L18.8738 36.5371C18.5987 36.5371 18.3786 36.5921 18.1585 36.5921ZM19.204 36.5371L18.3236 36.2619L19.7542 34.336L22.1203 35.6566L20.9098 36.372C20.3045 36.427 19.7542 36.482 19.204 36.5371ZM21.2399 36.3169L22.2304 35.7667L22.6706 36.0418C22.1753 36.0968 21.7351 36.2069 21.2399 36.3169ZM22.8357 35.9318L22.3404 35.6566L26.1922 33.4006L24.7065 35.2715C24.1012 35.5466 23.4409 35.7667 22.8357 35.9318ZM24.9266 35.2164L26.4123 33.3456H26.4674L26.9626 34.226C26.3023 34.5561 25.642 34.8863 24.9266 35.2164ZM27.0726 34.1159L26.5774 33.2905L28.7234 32.9604C28.2282 33.4006 27.6229 33.7858 27.0726 34.1159ZM30.6493 31.3646C30.099 31.9149 29.5488 32.4101 28.9435 32.8503L26.5774 33.1805L30.5943 30.8694V31.3646H30.6493ZM30.6493 30.7043L26.7425 32.9604L30.6493 28.0631V30.7043ZM30.6493 27.843L30.5943 27.898L23.9362 28.5583L30.6493 19.259V27.843ZM30.6493 18.9839L23.9362 9.62949L30.6493 10.2898V18.9839ZM30.6493 9.95965L26.8525 5.17242L30.6493 7.37344V9.95965ZM30.6493 7.26339L26.7975 5.06236L29.1636 5.39252C29.7139 5.83272 30.2091 6.27293 30.6493 6.76816V7.26339ZM30.7594 31.2546V30.8144L31.5847 30.3191C31.3096 30.5943 31.0345 30.9244 30.7594 31.2546ZM32.9054 28.5583C32.5752 29.0536 32.245 29.5488 31.8599 30.044L30.8144 30.6493V28.0631L33.1255 27.843L32.9054 28.5583ZM30.7594 27.898L33.8958 23.9362L33.0704 27.6779L30.7594 27.898ZM33.0704 28.2282L33.1805 27.788H33.3456C33.2905 27.953 33.1805 28.1181 33.0704 28.2282ZM33.4006 27.6779H33.1805L34.0059 23.9912L34.6662 24.9266C34.336 25.8621 33.8958 26.7975 33.4006 27.6779ZM34.7212 24.7616L34.0609 23.8261V23.7711L35.3815 22.1203V22.2304C35.2715 23.0558 35.0514 23.9362 34.7212 24.7616ZM35.4916 21.7351L35.0514 19.369L35.1064 19.0939H35.7117C35.7117 20.0293 35.6016 20.9098 35.4916 21.7351Z" fill="black"/>
</svg>
