<?xml version="1.0" encoding="utf-8"?>
<!-- Generator: Adobe Illustrator 22.1.0, SVG Export Plug-In . SVG Version: 6.00 Build 0)  -->
<svg version="1.1" id="Слой_1" xmlns="http://www.w3.org/2000/svg" xmlns:xlink="http://www.w3.org/1999/xlink" x="0px" y="0px"
	 viewBox="0 0 133 133" style="enable-background:new 0 0 133 133;" xml:space="preserve">
<style type="text/css">
	.st0{fill:none;stroke:#131313;stroke-width:2;stroke-miterlimit:10;}
	.st1{fill:#F9F9F9;}
</style>
<g>
	<path class="st0" d="M46.7,72.2c2.6-2.7,4.5-5,5.9-6.7c1.4-1.7,2.8-4.2,4.3-7.5c1.5-3.3,2.3-6.6,2.3-9.9c0-5.9-2.2-11-6.5-15.4
		c-4.3-4.3-10.2-6.5-17.8-6.5c-6.9,0-12.6,2.1-17,6.3c-4.5,4.2-6.8,9.8-7.1,16.7h13.8c0.1-3.2,1.2-5.9,3.1-8.1
		c1.9-2.2,4.5-3.4,7.8-3.4c2.9,0,5.3,1,7.3,2.9c2,1.9,2.9,4.5,2.9,7.5c0,3.4-1.3,7.1-4,11c-1.2,1.9-5.2,6.6-11.8,14.3l-20.2,23h50
		V85H34.8L46.7,72.2z"/>
	<path class="st0" d="M116.5,67.2c-2.3-3.1-5.3-5.3-9-6.5c2.9-1.4,5.3-3.5,7.1-6.1c1.9-2.6,2.8-5.7,2.8-9.2c0-5.4-1.9-9.9-5.7-13.6
		c-3.8-3.7-9.1-5.6-15.9-5.6c-6.8,0-12.1,1.9-15.9,5.6c-3.8,3.7-5.7,8.3-5.7,13.6c0,3.6,0.9,6.7,2.8,9.2c1.9,2.6,4.2,4.6,7.1,6.1
		c-3.8,1.2-6.8,3.4-9,6.5c-2.2,3.1-3.3,6.6-3.3,10.6c0,5.9,2.2,10.7,6.6,14.6c4.4,3.9,10.2,5.8,17.4,5.8c7.2,0,13-1.9,17.4-5.8
		c4.4-3.9,6.6-8.7,6.6-14.6C119.8,73.8,118.7,70.3,116.5,67.2z M88.9,38.6c1.8-1.8,4.1-2.7,6.9-2.7c2.8,0,5.1,0.9,6.9,2.7
		c1.8,1.8,2.7,4.1,2.7,6.9c0,2.8-0.9,5.1-2.7,6.9c-1.8,1.8-4.1,2.7-6.9,2.7c-2.8,0-5.1-0.9-6.9-2.7c-1.8-1.8-2.7-4.1-2.7-6.9
		C86.2,42.7,87.1,40.4,88.9,38.6z M103.4,84.6c-2,2-4.5,3-7.5,3c-3,0-5.5-1-7.5-3c-2-2-3-4.6-3-7.7c0-3.1,1-5.7,3-7.7
		c2-2,4.5-3,7.5-3c3,0,5.5,1,7.5,3c2,2,3,4.6,3,7.7C106.3,80,105.4,82.6,103.4,84.6z"/>
</g>
<g>
	<path class="st1" d="M95.8,66.2c-3,0-5.5,1-7.5,3c-2,2-3,4.6-3,7.7c0,3.1,1,5.7,3,7.7c2,2,4.5,3,7.5,3s5.5-1,7.5-3c2-2,3-4.6,3-7.7
		c0-3.1-1-5.7-3-7.7C101.4,67.2,98.9,66.2,95.8,66.2z"/>
	<path class="st1" d="M95.8,55.1c2.8,0,5.1-0.9,6.9-2.7c1.8-1.8,2.7-4.1,2.7-6.9c0-2.8-0.9-5.1-2.7-6.9c-1.8-1.8-4.1-2.7-6.9-2.7
		c-2.8,0-5.1,0.9-6.9,2.7c-1.8,1.8-2.7,4.1-2.7,6.9c0,2.8,0.9,5.1,2.7,6.9C90.7,54.2,93,55.1,95.8,55.1z"/>
	<path class="st1" d="M0,0v133h133V0H0z M9.7,96.6l20.2-23c6.6-7.7,10.5-12.5,11.8-14.3c2.7-4,4-7.7,4-11c0-3.1-1-5.6-2.9-7.5
		c-2-1.9-4.4-2.9-7.3-2.9c-3.3,0-5.9,1.1-7.8,3.4c-1.9,2.2-3,4.9-3.1,8.1H10.7c0.3-7,2.6-12.5,7.1-16.7c4.5-4.2,10.2-6.3,17-6.3
		c7.6,0,13.5,2.2,17.8,6.5s6.5,9.5,6.5,15.4c0,3.3-0.7,6.6-2.3,9.9c-1.5,3.3-3,5.8-4.3,7.5c-1.4,1.7-3.3,3.9-5.9,6.7L34.8,85.1h24.9
		v11.5H9.7z M113.2,92.4c-4.4,3.9-10.2,5.8-17.4,5.8c-7.2,0-13-1.9-17.4-5.8c-4.4-3.9-6.6-8.7-6.6-14.6c0-4,1.1-7.5,3.3-10.6
		c2.2-3.1,5.2-5.3,9-6.5c-2.9-1.4-5.3-3.5-7.1-6.1c-1.9-2.6-2.8-5.7-2.8-9.2c0-5.4,1.9-9.9,5.7-13.6c3.8-3.7,9.1-5.6,15.9-5.6
		c6.8,0,12.1,1.9,15.9,5.6c3.8,3.7,5.7,8.3,5.7,13.6c0,3.6-0.9,6.7-2.8,9.2c-1.9,2.6-4.2,4.6-7.1,6.1c3.8,1.2,6.8,3.4,9,6.5
		c2.2,3.1,3.3,6.6,3.3,10.6C119.8,83.7,117.6,88.5,113.2,92.4z"/>
</g>
</svg>
