<?xml version="1.0" encoding="utf-8"?>
<!-- Generator: Adobe Illustrator 22.1.0, SVG Export Plug-In . SVG Version: 6.00 Build 0)  -->
<svg version="1.1" id="Слой_1" xmlns="http://www.w3.org/2000/svg" xmlns:xlink="http://www.w3.org/1999/xlink" x="0px" y="0px"
	 viewBox="0 0 150 150" style="enable-background:new 0 0 150 150;" xml:space="preserve">
<style type="text/css">
	.st0{fill:#131313;}
</style>
<path class="st0" d="M140.8,11.7H9.2C4.1,11.7,0,15.9,0,21v89.2c0,5.1,4.1,9.2,9.2,9.2h44.5l-1.8,14.4h-7.5c-1.2,0-2.2,1-2.2,2.2
	c0,1.2,1,2.2,2.2,2.2h61.1c1.2,0,2.2-1,2.2-2.2c0-1.2-1-2.2-2.2-2.2h-7.5l-1.8-14.4h44.5c5.1,0,9.2-4.1,9.2-9.2V21
	C150,15.9,145.9,11.7,140.8,11.7z M56.4,133.9l1.8-14.4h8.1l0.8,3.2c0.9,3.7,4.2,6.2,8,6.2c3.8,0,7.1-2.6,8-6.2l0.8-3.2h8.1
	l1.8,14.4H56.4z M70.8,119.5h8.5l-0.5,2.1c-0.4,1.7-1.9,2.9-3.7,2.9c-1.8,0-3.3-1.2-3.7-2.9L70.8,119.5z M145.6,110.2
	c0,2.7-2.2,4.8-4.8,4.8H9.2c-2.7,0-4.8-2.2-4.8-4.8V21c0-2.7,2.2-4.8,4.8-4.8h131.5c2.7,0,4.8,2.2,4.8,4.8V110.2z M124.3,21.1H11.6
	c-1.2,0-2.2,1-2.2,2.2v84.5c0,1.2,1,2.2,2.2,2.2h4.7c1.2,0,2.2-1,2.2-2.2c0-1.2-1-2.2-2.2-2.2h-2.5V25.5h110.5c1.2,0,2.2-1,2.2-2.2
	C126.5,22.1,125.5,21.1,124.3,21.1z M133.7,21.1h4.7c1.2,0,2.2,1,2.2,2.2v84.5c0,1.2-1,2.2-2.2,2.2H25.7c-1.2,0-2.2-1-2.2-2.2
	c0-1.2,1-2.2,2.2-2.2h110.5V25.5h-2.5c-1.2,0-2.2-1-2.2-2.2C131.5,22.1,132.5,21.1,133.7,21.1z"/>
<g>
	<path class="st0" d="M66.3,85.5c-2.9,0-5.3,2.4-5.3,5.3c0,2.9,2.4,5.3,5.3,5.3c2.9,0,5.3-2.4,5.3-5.3
		C71.6,87.8,69.2,85.5,66.3,85.5z M66.3,94.2c-1.9,0-3.5-1.6-3.5-3.5c0-1.9,1.6-3.5,3.5-3.5c1.9,0,3.5,1.6,3.5,3.5
		C69.8,92.7,68.3,94.2,66.3,94.2z"/>
	<path class="st0" d="M67.2,90.7c0,0.5-0.4,0.9-0.9,0.9c-0.5,0-0.9-0.4-0.9-0.9c0-0.5,0.4-0.9,0.9-0.9
		C66.8,89.8,67.2,90.2,67.2,90.7z"/>
	<path class="st0" d="M96.2,85.5c-2.9,0-5.3,2.4-5.3,5.3c0,2.9,2.4,5.3,5.3,5.3c2.9,0,5.3-2.4,5.3-5.3
		C101.5,87.8,99.1,85.5,96.2,85.5z M96.2,94.2c-1.9,0-3.5-1.6-3.5-3.5c0-1.9,1.6-3.5,3.5-3.5c1.9,0,3.5,1.6,3.5,3.5
		C99.7,92.7,98.1,94.2,96.2,94.2z"/>
	<path class="st0" d="M97.1,90.7c0,0.5-0.4,0.9-0.9,0.9c-0.5,0-0.9-0.4-0.9-0.9c0-0.5,0.4-0.9,0.9-0.9
		C96.7,89.8,97.1,90.2,97.1,90.7z"/>
	<path class="st0" d="M62.4,73.1h38.2c0.4,0,0.8-0.3,0.9-0.8l3.5-24.6c0-0.3,0-0.5-0.2-0.7c-0.2-0.2-0.4-0.3-0.7-0.3H59.2l-0.9-6.5
		c0,0,0,0,0,0l0,0c-0.3-2.3-2.5-4.2-4.9-4.2h-5.7c-1.5,0-2.6,1.2-2.6,2.6c0,1.5,1.2,2.6,2.6,2.6h9L61,72.1l-2.9,5
		c-0.4,0.7-0.6,1.4-0.6,2.2c0,2.4,2,4.4,4.4,4.4h38.7c0.5,0,0.9-0.4,0.9-0.9c0-0.5-0.4-0.9-0.9-0.9H61.9c-1.5,0-2.6-1.2-2.6-2.6
		c0-0.5,0.1-0.9,0.4-1.3L62.4,73.1z M47.6,39.5c-0.5,0-0.9-0.4-0.9-0.9s0.4-0.9,0.9-0.9h5.7c1.2,0,2.3,0.7,2.8,1.8H47.6z M101,63.2
		h-6.5l0.6-6.4h6.9L101,63.2z M92.8,63.2h-6.5l0.2-6.4h4.3c0.5,0,0.9-0.4,0.9-0.9S91.2,55,90.8,55h-4.3l0.2-6.4H94L92.8,63.2z
		 M86,71.4l0.2-6.4h6.4l-0.6,6.4H86z M84.5,64.9l-0.2,6.4h-6l-0.2-6.4H84.5z M78,63.2l-0.2-6.4h6.9l-0.2,6.4H78z M84.8,55h-7
		l-0.2-6.4h7.3L84.8,55z M76,55h-7l-0.6-6.4h7.3L76,55z M76.1,56.7l0.2,6.4h-3.8c-0.5,0-0.9,0.4-0.9,0.9c0,0.5,0.4,0.9,0.9,0.9h3.8
		l0.2,6.4h-6l-1.3-14.6H76.1z M68,63.2h-6.5l-0.9-6.4h6.9L68,63.2z M68.2,64.9l0.6,6.4h-6l-0.9-6.4H68.2z M99.8,71.4h-6l0.6-6.4h6.4
		L99.8,71.4z M102.2,55h-7l0.6-6.4h7.3L102.2,55z M66.8,48.5l0.6,6.4h-7l-0.9-6.4H66.8z"/>
</g>
</svg>
