<svg width="30" height="30" viewBox="0 0 30 30" fill="none" xmlns="http://www.w3.org/2000/svg">
<g clip-path="url(#clip0)">
<path d="M18.457 19.1601C18.1336 19.1601 17.8711 19.4226 17.8711 19.7461C17.8711 20.0695 18.1336 20.332 18.457 20.332C18.7805 20.332 19.043 20.0695 19.043 19.7461C19.043 19.4226 18.7805 19.1601 18.457 19.1601Z" fill="white"/>
<path d="M11.4258 19.1601C11.1023 19.1601 10.8398 19.4226 10.8398 19.7461C10.8398 20.0695 11.1023 20.332 11.4258 20.332C11.7492 20.332 12.0117 20.0695 12.0117 19.7461C12.0117 19.4226 11.7492 19.1601 11.4258 19.1601Z" fill="white"/>
<path d="M29.5396 12.6708L27.0156 12.1167C26.7165 10.8461 26.2191 9.64208 25.533 8.52834L26.689 6.60185C26.8273 6.37128 26.791 6.07615 26.6009 5.88607L24.1148 3.39995C23.9246 3.20982 23.6295 3.17355 23.3989 3.31189L21.4724 4.46788C20.3587 3.78175 19.1547 3.28429 17.8841 2.98529L17.33 0.461317C17.2711 0.192549 17.0329 0.00100708 16.7577 0.00100708H13.2421C12.967 0.00100708 12.7288 0.192549 12.6698 0.461258L12.1157 2.98523C10.8451 3.28423 9.64108 3.78163 8.52733 4.46782L6.60084 3.31183C6.3701 3.17343 6.07508 3.20976 5.885 3.39989L3.39889 5.88601C3.20881 6.07615 3.17248 6.37122 3.31076 6.60179L4.46675 8.52828C3.78062 9.64202 3.28322 10.8461 2.98416 12.1166L0.460193 12.6707C0.191542 12.7298 0 12.9679 0 13.2431V16.7587C0 17.0338 0.191425 17.2719 0.460134 17.331L3.00953 17.8916C3.31563 19.1521 3.81273 20.3403 4.49124 21.4327L3.31082 23.4C3.17254 23.6306 3.20887 23.9257 3.39894 24.1158L5.88506 26.6019C6.0752 26.792 6.37028 26.8284 6.60084 26.6901L8.59946 25.491C9.68936 26.1525 10.8615 26.6341 12.0936 26.9268L12.6699 29.541C12.7292 29.8096 12.9671 30.0009 13.2422 30.0009H16.7578C17.0328 30.0009 17.2708 29.8096 17.33 29.541L17.9063 26.9268C19.1384 26.6341 20.3106 26.1524 21.4005 25.491L23.3991 26.6901C23.6296 26.8284 23.9247 26.7921 24.1149 26.6019L26.601 24.1158C26.7911 23.9257 26.8274 23.6306 26.6891 23.4L25.5087 21.4327C26.1874 20.3394 26.6846 19.1512 26.9905 17.8916L29.5399 17.331C29.8086 17.2719 30 17.0339 30 16.7587V13.2431C29.9998 12.9679 29.8083 12.7298 29.5396 12.6708ZM28.828 16.2876L26.3754 16.8269C26.1505 16.8764 25.9754 17.053 25.9279 17.2783C25.6381 18.6534 25.1008 19.9385 24.3309 21.0981C24.2058 21.2864 24.2002 21.5298 24.3166 21.7236L25.4488 23.6106L23.6096 25.4498L21.695 24.3011C21.5033 24.1861 21.2627 24.1901 21.0749 24.3118C19.913 25.0648 18.642 25.5862 17.297 25.8613C17.0703 25.9077 16.8921 26.0832 16.8423 26.3092L16.2869 28.829H13.7129L13.1575 26.3093C13.1076 26.0833 12.9295 25.9077 12.7028 25.8614C11.3579 25.5862 10.0868 25.0649 8.92483 24.3119C8.73716 24.1902 8.49651 24.1861 8.30474 24.3012L6.3902 25.4498L4.55107 23.6106L5.68327 21.7236C5.79958 21.5297 5.79401 21.2862 5.66885 21.0979C4.89929 19.9397 4.36199 18.6546 4.07195 17.2783C4.02443 17.053 3.84935 16.8764 3.62441 16.8269L1.17187 16.2876V13.7144L3.60203 13.1809C3.82861 13.1311 4.00457 12.9523 4.05062 12.7249C4.33081 11.3419 4.8673 10.0415 5.64512 8.85963C5.76887 8.67154 5.77391 8.42914 5.65813 8.23602L4.55107 6.3912L6.3902 4.55213L8.23501 5.65914C8.42808 5.77498 8.67042 5.77 8.85868 5.64613C10.0405 4.8683 11.3409 4.33182 12.7239 4.05169C12.9513 4.00563 13.1301 3.82968 13.1799 3.6031L13.7134 1.17288H16.2864L16.8199 3.60304C16.8697 3.82968 17.0485 4.00557 17.2759 4.05163C18.6589 4.33176 19.9593 4.86824 21.1411 5.64607C21.3293 5.76988 21.5717 5.77492 21.7648 5.65908L23.6096 4.55207L25.4488 6.39115L24.3417 8.23596C24.2259 8.42908 24.2309 8.67148 24.3547 8.85957C25.1325 10.0414 25.669 11.3419 25.9492 12.7249C25.9953 12.9523 26.1712 13.1311 26.3978 13.1808L28.828 13.7143V16.2876Z" fill="white"/>
<path d="M22.5542 10.6643C22.5541 10.664 22.554 10.6637 22.5538 10.6635C22.5537 10.6633 22.5536 10.6632 22.5535 10.663C21.7824 9.32974 20.6701 8.21746 19.337 7.44648C18.0065 6.67651 16.4865 6.26958 14.9414 6.26958C13.3962 6.26958 11.8762 6.67651 10.5459 7.44631C9.21256 8.2174 8.10028 9.32973 7.32919 10.663C7.32919 10.663 7.32913 10.663 7.32913 10.6631C7.32908 10.6632 7.32896 10.6633 7.3289 10.6634C7.32878 10.6637 7.32866 10.6639 7.32855 10.6641C6.5591 11.9944 6.15234 13.5139 6.15234 15.0586C6.15234 15.1034 6.15293 15.1477 6.15357 15.1942C6.15428 15.2525 6.15551 15.3101 6.15797 15.3678C6.1592 15.4106 6.1609 15.4534 6.16307 15.4957C6.16324 15.5007 6.16342 15.5058 6.16371 15.5109C6.16617 15.5589 6.16928 15.6063 6.1725 15.6547C6.17619 15.7078 6.17982 15.7609 6.18445 15.8188C6.1882 15.862 6.1926 15.9051 6.19687 15.9472C6.2018 15.9964 6.2073 16.0457 6.21287 16.0955C6.2168 16.1299 6.22125 16.1647 6.226 16.2015C6.22652 16.2055 6.22693 16.2095 6.22746 16.2135C6.22752 16.2139 6.22758 16.2142 6.22764 16.2146C6.22775 16.2155 6.22787 16.2163 6.22793 16.2172C6.24094 16.3131 6.25512 16.4084 6.27035 16.502C6.27621 16.5389 6.28266 16.5764 6.28969 16.6134C6.29303 16.633 6.29666 16.6526 6.30047 16.6721C6.30721 16.7099 6.31447 16.7478 6.3218 16.7855C6.32226 16.7879 6.32273 16.7902 6.3232 16.7925C6.33357 16.8427 6.34412 16.8932 6.35601 16.9482C6.35607 16.9485 6.35607 16.9488 6.35613 16.9491C6.35637 16.9502 6.35666 16.9513 6.35689 16.9524C6.35724 16.954 6.35754 16.9555 6.35789 16.9571L6.36574 16.9918C6.37207 17.0204 6.37851 17.0488 6.38543 17.0775C6.38566 17.0785 6.38596 17.0797 6.38625 17.0808C6.38637 17.0813 6.38648 17.0819 6.38666 17.0825C6.38672 17.0827 6.38678 17.0829 6.38683 17.0831C6.4101 17.1827 6.43588 17.2838 6.46488 17.3886C6.47654 17.4317 6.48826 17.4748 6.50027 17.5141C6.51328 17.5589 6.52623 17.6037 6.54029 17.6479C6.55207 17.6865 6.56402 17.7249 6.57691 17.7651L6.57744 17.7668C6.57744 17.7669 6.5775 17.767 6.5775 17.767C6.57855 17.7703 6.57955 17.7735 6.5806 17.7769C6.59191 17.8114 6.60328 17.8453 6.61517 17.8793C6.62097 17.8968 6.62718 17.9141 6.63322 17.9317C6.63773 17.9447 6.64207 17.9576 6.64664 17.9706L6.64939 17.9785C6.64945 17.9787 6.64957 17.9789 6.64968 17.9791C6.65783 18.0031 6.66633 18.0267 6.67552 18.0515C6.69035 18.0925 6.70529 18.1336 6.72193 18.178C6.72211 18.1785 6.72228 18.179 6.72252 18.1795C6.72252 18.1796 6.72252 18.1796 6.72257 18.1796C6.72304 18.1809 6.72345 18.182 6.72392 18.1832C6.75709 18.2696 6.79248 18.3577 6.83162 18.4518C6.85623 18.5111 6.88295 18.5727 6.91382 18.6414C6.92408 18.6643 6.93416 18.6866 6.94406 18.708C6.94412 18.7081 6.94417 18.7083 6.94429 18.7084C6.95976 18.7432 6.97587 18.7776 6.99228 18.8123L7.00078 18.8302C7.00166 18.8321 7.00253 18.8338 7.00341 18.8357C7.00359 18.836 7.00365 18.8363 7.00382 18.8366L7.02023 18.8706C7.03388 18.899 7.04748 18.9271 7.0613 18.9552C7.06236 18.9573 7.06335 18.9594 7.06447 18.9615C7.06529 18.9632 7.06611 18.9648 7.06693 18.9665C7.06699 18.9666 7.06699 18.9667 7.06705 18.9668C7.06722 18.9671 7.06734 18.9674 7.06751 18.9677C7.06769 18.9681 7.06787 18.9684 7.06804 18.9687C7.08802 19.0085 7.108 19.0484 7.12716 19.0851C7.12728 19.0853 7.1274 19.0855 7.12751 19.0857C7.12792 19.0865 7.12828 19.0872 7.12869 19.088L7.13941 19.1084C7.15646 19.1411 7.17345 19.1733 7.19091 19.2053C7.19161 19.2066 7.19226 19.2079 7.19302 19.2092C7.19314 19.2095 7.19326 19.2097 7.19343 19.2099C7.19384 19.2106 7.19419 19.2114 7.1946 19.2121C7.20667 19.2347 7.21933 19.258 7.2324 19.2817C7.2498 19.3136 7.26831 19.3468 7.28753 19.3807C7.30054 19.4037 7.31408 19.4275 7.32843 19.4526C7.32849 19.4527 7.32861 19.4528 7.32866 19.4529C7.3289 19.4534 7.32913 19.4537 7.32937 19.4542C8.89662 22.1641 11.8134 23.8476 14.9414 23.8476C18.0693 23.8476 20.9861 22.1641 22.5529 19.4553C22.5534 19.4544 22.5538 19.4537 22.5543 19.4528C22.5543 19.4527 22.5545 19.4525 22.5546 19.4524C22.5692 19.4268 22.5829 19.4027 22.5962 19.3793C22.6149 19.3462 22.6329 19.3139 22.6498 19.2829C22.6631 19.2587 22.676 19.235 22.6884 19.2119C22.6888 19.2112 22.6892 19.2105 22.6896 19.2098C22.6897 19.2095 22.6898 19.2093 22.6899 19.2091C22.7096 19.173 22.7285 19.1372 22.7465 19.1027L22.7543 19.0878C22.7554 19.0856 22.7565 19.0833 22.7577 19.0811L22.7779 19.0416C22.7906 19.0167 22.8034 18.9916 22.8158 18.9666C22.817 18.9644 22.8181 18.9621 22.8191 18.96C22.82 18.9583 22.8208 18.9567 22.8216 18.9551C22.8354 18.927 22.849 18.8989 22.8627 18.8705L22.8791 18.8365C22.8792 18.8362 22.8794 18.8358 22.8795 18.8354C22.8802 18.8339 22.8811 18.8324 22.8818 18.8308L22.8905 18.8122C22.9069 18.7775 22.9231 18.743 22.9385 18.7083C22.9386 18.7081 22.9387 18.708 22.9388 18.7079C22.9486 18.6865 22.9588 18.6642 22.969 18.6413C22.9991 18.5744 23.0251 18.5145 23.0489 18.4573C23.0492 18.4566 23.0494 18.456 23.0497 18.4554C23.0497 18.4553 23.0497 18.4552 23.0497 18.4552C23.0501 18.4544 23.0504 18.4535 23.0508 18.4526C23.0904 18.3577 23.1257 18.2695 23.1603 18.1794C23.1763 18.1367 23.1918 18.094 23.2079 18.0498C23.2164 18.0263 23.225 18.0028 23.2331 17.9789C23.2332 17.9788 23.2333 17.9785 23.2334 17.9784L23.2361 17.9705C23.2407 17.9575 23.245 17.9445 23.2495 17.9315C23.2556 17.914 23.2618 17.8967 23.2676 17.8792C23.2795 17.8453 23.2909 17.8112 23.303 17.774C23.3038 17.7717 23.3045 17.7693 23.3053 17.767C23.3053 17.7669 23.3053 17.7668 23.3053 17.7667L23.3206 17.7181C23.3244 17.706 23.3281 17.6937 23.332 17.6815C23.3354 17.6703 23.3391 17.6592 23.3425 17.6479C23.3561 17.6048 23.3688 17.5612 23.3828 17.5127C23.3952 17.472 23.4064 17.4308 23.4165 17.3931C23.4169 17.3916 23.4174 17.3901 23.4178 17.3885C23.4179 17.3881 23.4179 17.3877 23.4181 17.3872C23.4477 17.28 23.4734 17.1796 23.4964 17.0808C23.4964 17.0807 23.4965 17.0806 23.4965 17.0805C23.4965 17.0803 23.4966 17.0801 23.4966 17.0799C23.4968 17.0791 23.497 17.0782 23.4972 17.0775C23.5041 17.0488 23.5106 17.0204 23.5169 16.9918L23.5254 16.9544C23.5256 16.9532 23.5259 16.952 23.5262 16.9509C23.5263 16.9503 23.5265 16.9497 23.5266 16.9491C23.5266 16.9489 23.5266 16.9486 23.5267 16.9485C23.5384 16.896 23.5495 16.843 23.5597 16.7912C23.5677 16.7515 23.5751 16.7118 23.5824 16.6721C23.5868 16.6497 23.5908 16.6272 23.5946 16.6049C23.5989 16.5823 23.6027 16.5599 23.6064 16.5375L23.6118 16.5061C23.6265 16.418 23.6402 16.325 23.654 16.2217C23.6596 16.1791 23.6652 16.136 23.6704 16.0919C23.676 16.0438 23.6809 15.9963 23.686 15.9469C23.6861 15.9463 23.6861 15.9456 23.6862 15.9449C23.6862 15.9446 23.6862 15.9443 23.6863 15.944C23.6906 15.901 23.6949 15.8575 23.6985 15.8139C23.6985 15.8137 23.6985 15.8136 23.6985 15.8134C23.6986 15.8128 23.6987 15.8123 23.6987 15.8117L23.6993 15.8052C23.7035 15.753 23.7077 15.7008 23.7104 15.6532C23.7126 15.622 23.7144 15.5908 23.7162 15.5596C23.7171 15.5435 23.7183 15.5275 23.7192 15.5114C23.7192 15.5113 23.7192 15.5111 23.7192 15.511C23.7194 15.5069 23.7196 15.5022 23.7197 15.4973C23.7219 15.454 23.7236 15.4101 23.7249 15.3663C23.7274 15.3089 23.7286 15.2515 23.7293 15.1944C23.7298 15.1495 23.7304 15.104 23.7304 15.0586C23.7304 13.5139 23.3237 11.9944 22.5542 10.6643ZM22.5351 14.4727H20.1814C20.1224 13.9459 19.9843 13.431 19.7721 12.9463L21.8118 11.7685C22.2172 12.615 22.4628 13.5329 22.5351 14.4727ZM21.2252 10.754L19.185 11.932C18.8705 11.5063 18.4936 11.1294 18.0678 10.8149L19.2459 8.77468C20.0212 9.30677 20.6931 9.97866 21.2252 10.754ZM15.5273 7.46488C16.4671 7.53719 17.385 7.78269 18.2314 8.1881L17.0536 10.2279C16.569 10.0156 16.054 9.87758 15.5273 9.81858V7.46488ZM14.3554 7.46488V9.81858C13.8287 9.87758 13.3137 10.0157 12.8291 10.2279L11.6513 8.1881C12.4977 7.78269 13.4156 7.53719 14.3554 7.46488ZM10.6368 8.77474L11.8148 10.815C11.389 11.1294 11.0121 11.5063 10.6977 11.9321L8.65745 10.7541C9.18959 9.97872 9.86142 9.30682 10.6368 8.77474ZM8.07087 11.7685L10.1107 12.9463C9.89845 13.431 9.76035 13.946 9.70135 14.4727H7.34765C7.41995 13.5329 7.66552 12.615 8.07087 11.7685ZM8.05909 18.3272L8.05188 18.312C8.03835 18.2832 8.02481 18.2548 8.0121 18.226C8.01093 18.2234 8.00981 18.2208 8.00858 18.2182C8.00841 18.2179 8.00829 18.2175 8.00811 18.2172C8.00806 18.217 8.008 18.2168 8.00788 18.2167C8.00524 18.211 8.00249 18.2048 7.99985 18.199C7.99452 18.1873 7.98919 18.1756 7.98421 18.1644C7.96276 18.1166 7.93962 18.0633 7.91308 18.0006C7.88026 17.9218 7.84851 17.8429 7.81921 17.7667C7.80485 17.7285 7.79103 17.6903 7.77714 17.6521C7.77685 17.6512 7.77497 17.6461 7.77468 17.6453C7.76905 17.6301 7.76343 17.6148 7.75821 17.5993C7.75733 17.5966 7.7564 17.594 7.75546 17.5913C7.75534 17.591 7.75528 17.5907 7.75517 17.5903L7.75235 17.5824C7.74321 17.5564 7.73401 17.5304 7.7254 17.5044C7.72429 17.5011 7.72317 17.4978 7.722 17.4946C7.71233 17.4671 7.70319 17.4396 7.69487 17.4143L7.67982 17.3661C7.67325 17.3452 7.66663 17.3243 7.66007 17.3028C7.64864 17.2653 7.63722 17.2272 7.62608 17.1888C7.62556 17.1869 7.62503 17.1853 7.6245 17.1834C7.62427 17.1825 7.62398 17.1817 7.62374 17.1808C7.61443 17.1486 7.60511 17.1159 7.59632 17.0833C7.59626 17.083 7.59614 17.0827 7.59603 17.0824C7.59573 17.0813 7.5955 17.0805 7.59521 17.0794C7.56884 16.9841 7.54628 16.896 7.5263 16.8099C7.52583 16.808 7.52536 16.806 7.52495 16.804C7.52419 16.8009 7.52355 16.7978 7.52279 16.7947C7.5164 16.7685 7.51036 16.742 7.50468 16.7155L7.50169 16.7023C7.49138 16.6549 7.48148 16.6076 7.47175 16.5602C7.46548 16.5279 7.45915 16.4955 7.45347 16.4632C7.45288 16.4597 7.45224 16.4562 7.45154 16.4526C7.44925 16.4409 7.44691 16.4292 7.44503 16.4175C7.44404 16.4113 7.44298 16.4052 7.44175 16.399C7.43654 16.372 7.43185 16.3445 7.42728 16.3158C7.41345 16.2306 7.40073 16.1454 7.3896 16.0633C7.38527 16.03 7.38099 15.9967 7.37718 15.9634V15.9633C7.37226 15.919 7.36722 15.8747 7.36265 15.8294C7.3589 15.7925 7.35521 15.7557 7.35199 15.7189C7.34999 15.6939 7.34835 15.6693 7.34659 15.6445H9.70094C9.76006 16.1713 9.89781 16.6865 10.1101 17.1712L8.06975 18.3493L8.05909 18.3272ZM14.9414 22.6757C12.4272 22.6757 10.0709 21.42 8.65768 19.363L11.1756 17.9092C11.3104 17.8313 11.4086 17.7032 11.4487 17.5529C11.4889 17.4026 11.4676 17.2425 11.3896 17.108C11.0299 16.4873 10.8398 15.7786 10.8398 15.0586C10.8398 14.3385 11.0299 13.6299 11.3896 13.0092C11.7502 12.387 12.2697 11.8674 12.892 11.5068C13.5127 11.1472 14.2214 10.9571 14.9414 10.9571C15.6614 10.9571 16.37 11.1472 16.9907 11.5068C17.613 11.8674 18.1325 12.387 18.4932 13.0092C18.7546 13.4603 18.9259 13.958 19.0003 14.4727H16.5984C16.3565 13.7907 15.7052 13.3008 14.9414 13.3008C13.9721 13.3008 13.1836 14.0894 13.1836 15.0586C13.1836 16.0279 13.9721 16.8164 14.9414 16.8164C15.7052 16.8164 16.3565 16.3265 16.5984 15.6446H19.0002C18.9259 16.1593 18.7546 16.6569 18.4931 17.1081C18.4151 17.2427 18.3939 17.4027 18.434 17.553C18.4741 17.7033 18.5723 17.8315 18.7071 17.9093L21.2251 19.3632C19.8125 21.4197 17.4559 22.6757 14.9414 22.6757ZM15.5273 15.0586C15.5273 15.3817 15.2644 15.6445 14.9414 15.6445C14.6183 15.6445 14.3554 15.3817 14.3554 15.0586C14.3554 14.7355 14.6183 14.4727 14.9414 14.4727C15.2644 14.4727 15.5273 14.7355 15.5273 15.0586ZM22.5311 15.7099L22.5307 15.7143C22.5274 15.753 22.5236 15.7916 22.5198 15.8298C22.5197 15.8307 22.5196 15.8317 22.5195 15.8326C22.5151 15.8744 22.5109 15.9159 22.5062 15.9563C22.5018 15.9934 22.4969 16.0311 22.492 16.0682C22.492 16.0683 22.492 16.0684 22.492 16.0686C22.48 16.1583 22.4682 16.2385 22.4565 16.309L22.4522 16.3345C22.4511 16.3411 22.4499 16.3476 22.4488 16.3541C22.4468 16.3659 22.4449 16.3776 22.4425 16.3894C22.4417 16.3938 22.441 16.398 22.4402 16.4024C22.4376 16.4177 22.435 16.4331 22.4319 16.4484C22.4315 16.4509 22.4309 16.4533 22.4306 16.4557C22.4241 16.4911 22.4175 16.5264 22.4102 16.563C22.4012 16.6087 22.3916 16.6544 22.3821 16.6969L22.3781 16.7145C22.3716 16.7445 22.3649 16.7742 22.3576 16.8043C22.3572 16.8062 22.3567 16.8082 22.3563 16.8101C22.3363 16.8962 22.3138 16.9843 22.2863 17.0835C22.2774 17.1169 22.2678 17.1503 22.2581 17.1835C22.2467 17.2235 22.2346 17.2635 22.2225 17.3034C22.216 17.3245 22.2094 17.3454 22.2028 17.3662L22.1881 17.4135C22.179 17.4409 22.1701 17.4678 22.1606 17.4947C22.1595 17.4979 22.1584 17.5012 22.1573 17.5045C22.1486 17.5305 22.1394 17.5565 22.1303 17.5825L22.1275 17.5905C22.1274 17.5908 22.1273 17.5911 22.1272 17.5915C22.1263 17.5941 22.1253 17.5967 22.1244 17.5994C22.1192 17.615 22.1135 17.6302 22.108 17.6454C22.1077 17.6462 22.1058 17.6513 22.1055 17.6522C22.092 17.6894 22.0786 17.7265 22.0646 17.7637C22.0339 17.8437 22.0021 17.9227 21.9688 18.0025C21.9426 18.0644 21.9197 18.1172 21.8985 18.1645C21.8935 18.1757 21.8881 18.1875 21.8827 18.1993C21.8801 18.2051 21.8773 18.2111 21.8748 18.2168C21.8747 18.2169 21.8747 18.2171 21.8745 18.2173C21.8744 18.2177 21.8742 18.218 21.8741 18.2184C21.8728 18.2209 21.8717 18.2235 21.8706 18.2261C21.8578 18.2549 21.8444 18.2834 21.8308 18.3121L21.8229 18.3288L21.8129 18.3494L19.7726 17.1713C19.9849 16.6865 20.1227 16.1713 20.1817 15.6445H22.5359C22.5343 15.6663 22.5329 15.6882 22.5311 15.7099Z" fill="white"/>
<path d="M16.6992 19.1601H13.1836C12.86 19.1601 12.5977 19.4224 12.5977 19.7461C12.5977 20.0697 12.86 20.332 13.1836 20.332H16.6992C17.0227 20.332 17.2851 20.0697 17.2851 19.7461C17.2851 19.4224 17.0227 19.1601 16.6992 19.1601Z" fill="white"/>
</g>
<defs>
<clipPath id="clip0">
<rect width="30" height="30" fill="white"/>
</clipPath>
</defs>
</svg>
