<svg width="30" height="30" viewBox="0 0 30 30" fill="none" xmlns="http://www.w3.org/2000/svg">
<path d="M27.4075 5.16212C27.298 5.05255 27.1474 4.99038 26.9932 4.99038C26.8385 4.99038 26.688 5.05255 26.5783 5.16212C26.4694 5.27104 26.4072 5.42169 26.4072 5.57638C26.4072 5.73048 26.4694 5.88171 26.5783 5.99069C26.6879 6.09968 26.8385 6.16237 26.9932 6.16237C27.1473 6.16237 27.298 6.09974 27.4075 5.99069C27.5165 5.88171 27.5786 5.73054 27.5786 5.57638C27.5786 5.42169 27.5165 5.27104 27.4075 5.16212Z" fill="white"/>
<path d="M13.9495 18.9626C13.84 18.8531 13.6894 18.7909 13.5352 18.7909C13.3805 18.7909 13.2299 18.8531 13.1203 18.9626C13.0114 19.0716 12.9492 19.2222 12.9492 19.3769C12.9492 19.531 13.0114 19.6822 13.1203 19.7912C13.2299 19.9002 13.3805 19.9629 13.5352 19.9629C13.6893 19.9629 13.84 19.9002 13.9495 19.7912C14.0585 19.6822 14.1206 19.5311 14.1206 19.3769C14.1207 19.2222 14.0586 19.0716 13.9495 18.9626Z" fill="white"/>
<path d="M28.8271 7.10802C28.6672 6.82665 28.3093 6.72833 28.0281 6.88829C27.7468 7.04825 27.6484 7.40603 27.8084 7.68734C29.549 10.7482 29.0235 14.6271 26.5305 17.1201L26.0862 17.5644C25.9788 17.2827 25.8125 17.0185 25.586 16.792L19.5651 10.7712C19.9588 10.5775 20.3227 10.319 20.642 9.99962L21.7968 8.8448C22.0256 8.61599 22.0256 8.24491 21.7968 8.01611C21.5679 7.7873 21.197 7.7873 20.9681 8.01611L19.8133 9.17093C19.2708 9.71339 18.5496 10.0122 17.7824 10.0122H15.474C15.3186 10.0122 15.1696 10.0739 15.0596 10.1838L13.2924 11.951C12.7676 12.4758 11.9137 12.4758 11.389 11.951C10.8642 11.4262 10.8642 10.5723 11.389 10.0476L15.4235 6.01308C17.8891 3.54745 21.7383 3.00523 24.7837 4.69448C25.0667 4.85134 25.4234 4.74933 25.5804 4.46626C25.7374 4.18325 25.6352 3.82654 25.3522 3.66956C23.6724 2.73798 21.6933 2.36515 19.7792 2.62009C17.9879 2.85863 16.3482 3.60868 15.0042 4.79884C13.3531 3.33511 11.2512 2.53466 9.02578 2.53466C6.61488 2.53466 4.34836 3.47351 2.64357 5.17823C0.938789 6.88296 0 9.14966 0 11.5605C0 13.9714 0.938848 16.2379 2.64357 17.9427L2.86441 18.1635C2.90285 18.2019 2.94551 18.2333 2.99057 18.2588C3.02977 18.7658 3.24217 19.2617 3.62906 19.6485C4.05967 20.0791 4.62498 20.2943 5.19047 20.2943C5.21982 20.2943 5.24924 20.2933 5.27859 20.2921C5.27742 20.3218 5.27643 20.3514 5.27643 20.3813C5.27643 20.9711 5.50611 21.5256 5.92318 21.9427C6.35379 22.3732 6.9191 22.5884 7.48459 22.5884C7.51395 22.5884 7.54336 22.5874 7.57271 22.5863C7.57154 22.6159 7.57055 22.6456 7.57055 22.6754C7.57055 23.2652 7.80023 23.8197 8.21736 24.2368C8.64791 24.6673 9.21334 24.8825 9.77877 24.8825C9.80848 24.8825 9.83818 24.8816 9.86789 24.8804C9.8441 25.4752 10.0584 26.0779 10.5115 26.531C10.9286 26.9481 11.4831 27.1778 12.0729 27.1778C12.6628 27.1778 13.2173 26.9481 13.6343 26.531L14.4533 25.712L15.5595 26.8181C15.9765 27.2352 16.5311 27.4649 17.1209 27.4649C17.7107 27.4649 18.2652 27.2352 18.6823 26.8181C19.1408 26.3596 19.355 25.7478 19.3252 25.146C19.362 25.1479 19.3989 25.1489 19.4357 25.1489C20.0012 25.1489 20.5668 24.9337 20.9972 24.5032C21.4501 24.0503 21.6644 23.4481 21.6408 22.8536C21.6705 22.8547 21.7001 22.8557 21.73 22.8557C22.3198 22.8557 22.8743 22.626 23.2914 22.209C23.7442 21.7561 23.9585 21.1539 23.935 20.5594C23.9646 20.5606 23.9943 20.5616 24.0241 20.5616C24.6139 20.5616 25.1684 20.3319 25.5855 19.9148C25.7973 19.703 25.9568 19.4583 26.0644 19.1971C26.1214 19.1694 26.175 19.1324 26.2224 19.0851L27.3588 17.9487C30.2241 15.084 30.8277 10.626 28.8271 7.10802ZM5.19053 19.1233C4.91373 19.1233 4.65352 19.0156 4.45775 18.8198C4.26205 18.6241 4.15424 18.3639 4.15424 18.0871C4.15424 17.8103 4.26199 17.5501 4.45775 17.3544L5.46756 16.3446C5.66326 16.1488 5.92354 16.041 6.20033 16.041C6.47707 16.041 6.73734 16.1488 6.93305 16.3446C7.33711 16.7486 7.33711 17.406 6.93305 17.81L5.92324 18.8199C5.72754 19.0155 5.46738 19.1233 5.19053 19.1233ZM6.75205 21.114C6.55629 20.9183 6.44854 20.6581 6.44854 20.3813C6.44854 20.1045 6.55629 19.8443 6.75205 19.6486L7.76191 18.6387C7.76191 18.6387 7.76191 18.6387 7.76191 18.6387C7.95762 18.443 8.21783 18.3352 8.49463 18.3352C8.77137 18.3352 9.03164 18.4429 9.22734 18.6387C9.63141 19.0427 9.63141 19.7001 9.22734 20.1041L8.21754 21.114C7.81342 21.518 7.15588 21.518 6.75205 21.114ZM9.04617 23.4082C8.85041 23.2125 8.74266 22.9522 8.74266 22.6754C8.74266 22.3986 8.85041 22.1384 9.04617 21.9427L10.056 20.9329C10.056 20.9329 10.056 20.9329 10.056 20.9328C10.2517 20.7371 10.512 20.6293 10.7888 20.6293C11.0655 20.6293 11.3258 20.737 11.5215 20.9328C11.9255 21.3369 11.9255 21.9943 11.5215 22.3983L10.5116 23.4082C10.1076 23.8122 9.45023 23.8122 9.04617 23.4082ZM13.8156 24.6925L12.8058 25.7025C12.6101 25.8982 12.3499 26.006 12.0731 26.006C11.7963 26.006 11.5361 25.8982 11.3404 25.7025C10.9363 25.2983 10.9363 24.641 11.3404 24.237L12.3502 23.2271C12.3502 23.2271 12.3502 23.2271 12.3502 23.227C12.5459 23.0313 12.8061 22.9235 13.0829 22.9235C13.3597 22.9235 13.6199 23.0313 13.8156 23.227C14.0114 23.4227 14.1192 23.683 14.1192 23.9598C14.1192 24.2367 14.0114 24.4968 13.8156 24.6925ZM24.7572 19.0861C24.5615 19.2819 24.3012 19.3896 24.0245 19.3896C23.7477 19.3896 23.4875 19.2819 23.2918 19.0861L20.8527 16.647C20.8526 16.6469 20.8525 16.6468 20.8524 16.6467L18.5585 14.3528C18.3296 14.124 17.9586 14.124 17.7297 14.3528C17.5009 14.5816 17.5009 14.9527 17.7297 15.1815L22.463 19.9147C22.8671 20.3188 22.8671 20.9762 22.463 21.3802C22.2673 21.5759 22.0071 21.6837 21.7303 21.6837C21.4535 21.6837 21.1933 21.5759 20.9976 21.3802L16.2643 16.6469C16.0354 16.4182 15.6645 16.4182 15.4355 16.6469C15.2067 16.8757 15.2067 17.2468 15.4355 17.4757L17.7292 19.7693C17.7294 19.7695 17.7296 19.7697 17.7298 19.7699L20.1689 22.2089C20.573 22.613 20.573 23.2705 20.169 23.6745C19.7648 24.0785 19.1074 24.0785 18.7035 23.6745L16.2643 21.2353C16.2192 21.1903 16.1685 21.1544 16.1146 21.1271L15.4189 20.4314C15.19 20.2027 14.8191 20.2027 14.5901 20.4314C14.3613 20.6602 14.3613 21.0313 14.5901 21.2602L17.8539 24.5238C18.258 24.928 18.258 25.5853 17.8539 25.9893C17.6582 26.1851 17.3979 26.2928 17.1212 26.2928C16.8444 26.2928 16.5842 26.1851 16.3885 25.9893L15.1465 24.7474C15.2412 24.4992 15.2912 24.2333 15.2912 23.9597C15.2912 23.3699 15.0615 22.8154 14.6445 22.3983C14.2273 21.9812 13.6728 21.7515 13.083 21.7515C13.0532 21.7515 13.0236 21.7525 12.9939 21.7537C13.0174 21.1592 12.8032 20.557 12.3503 20.1041C11.9332 19.687 11.3787 19.4574 10.7889 19.4574C10.7591 19.4574 10.7295 19.4584 10.6998 19.4595C10.7234 18.865 10.5091 18.2628 10.0562 17.8099C9.63908 17.3929 9.08455 17.1632 8.4948 17.1632C8.46498 17.1632 8.43533 17.1642 8.40568 17.1653C8.42924 16.5709 8.21496 15.9686 7.76209 15.5158C6.90111 14.6548 5.50008 14.6548 4.6391 15.5158L3.6293 16.5256C3.50191 16.6529 3.39393 16.7923 3.30416 16.9399C1.92773 15.4779 1.17223 13.5773 1.17223 11.5604C1.17223 9.46255 1.98914 7.49023 3.47262 6.00687C4.95598 4.52351 6.92836 3.70654 9.02613 3.70654C10.9325 3.70654 12.7352 4.3813 14.1615 5.61775L10.5605 9.21874C10.085 9.69435 9.82307 10.3266 9.82307 10.9992C9.82307 11.6718 10.085 12.3041 10.5605 12.7797C11.0514 13.2705 11.6962 13.516 12.341 13.516C12.9858 13.516 13.6306 13.2706 14.1215 12.7797L15.7171 11.184H17.7827C17.9533 11.184 18.122 11.1724 18.2886 11.1517L24.7576 17.6205C25.1612 18.0247 25.1612 18.6822 24.7572 19.0861Z" fill="white"/>
</svg>
