<svg width="50" height="50" viewBox="0 0 50 50" fill="none" xmlns="http://www.w3.org/2000/svg">
<g clip-path="url(#clip0)">
<path d="M43.613 43.5509C43.3788 43.2095 42.9504 43.0421 42.5479 43.1504C42.1584 43.2553 41.8704 43.5967 41.8288 43.9976C41.7873 44.4028 42.0158 44.8029 42.3835 44.9757C42.7421 45.1443 43.1781 45.078 43.468 44.8064C43.8136 44.4829 43.8708 43.945 43.613 43.5509V43.5509Z" fill="white"/>
<path d="M1.36186 31.4233C2.88927 30.7683 3.56027 30.7683 4.40942 30.7683C6.4663 30.7683 8.45566 31.5064 10.0117 32.8473C11.5517 34.1741 12.5744 36.004 12.8914 37.9994C12.9543 38.3981 13.2564 38.7166 13.6509 38.8013C14.5313 38.9901 15.3332 39.4269 15.9714 40.0655C16.415 40.5087 16.7587 41.0252 16.9929 41.6013C17.1074 41.8824 17.3462 42.0945 17.6391 42.175C17.9321 42.2555 18.2457 42.1948 18.4875 42.0113C18.9636 41.6509 19.532 41.4597 20.1309 41.4597C21.3352 41.4597 22.3812 42.233 22.7344 43.3835C22.8203 43.6642 23.0282 43.8912 23.3001 44.0018C23.5718 44.1125 23.8792 44.0949 24.1363 43.9542C24.4587 43.7779 24.81 43.6883 25.18 43.6883C25.6622 43.6883 26.1196 43.8432 26.5018 44.1354C26.6742 44.2673 26.8833 44.3364 27.0954 44.3364C27.1873 44.3364 27.2804 44.3234 27.3708 44.2967C27.6699 44.2086 27.9087 43.9832 28.014 43.6902C28.4015 42.6118 29.4323 41.887 30.5786 41.887C30.9208 41.887 31.2511 41.9499 31.5635 42.0716C31.7058 42.1895 31.8824 42.2688 32.0797 42.2902C32.1155 42.2944 32.1514 42.2963 32.1868 42.2963C32.6786 42.2963 33.102 41.9255 33.1565 41.4254C33.1573 41.4182 33.1584 41.4109 33.1596 41.4037C33.16 41.4002 33.1607 41.3968 33.1611 41.3934C33.3995 39.3525 34.9437 37.7507 36.9007 37.3818C37.7315 37.227 38.599 37.301 39.3901 37.5981C40.6574 38.0746 41.6835 39.0939 42.1428 40.4252C42.3187 40.9352 42.8745 41.2057 43.3841 41.0298C43.8941 40.8543 44.165 40.2982 43.9891 39.7885C43.5039 38.3817 42.5739 37.2201 41.3886 36.4381C42.5659 35.4424 44.0574 34.8863 45.6287 34.8863C46.6464 34.8863 47.6203 35.1117 48.5233 35.5557C49.0073 35.7938 49.5925 35.5943 49.8305 35.1102C50.0686 34.6261 49.8691 34.0409 49.385 33.8029C48.2116 33.2261 46.9478 32.9335 45.6287 32.9335C43.2803 32.9335 41.0678 33.8872 39.4607 35.5714C38.3666 35.2788 37.1982 35.2765 36.1022 35.5615C33.8947 36.1325 32.1239 37.8163 31.459 40.0163C31.1714 39.9617 30.8776 39.9342 30.5786 39.9342C28.9955 39.9342 27.5409 40.7391 26.6864 42.0178C26.2115 41.8313 25.7038 41.7352 25.1804 41.7352C24.8459 41.7352 24.5128 41.776 24.1897 41.8557C23.3719 40.4187 21.8445 39.507 20.1309 39.507C19.4919 39.507 18.8736 39.6333 18.3002 39.8778C18.0332 39.4471 17.7162 39.0481 17.3523 38.6846C16.6054 37.9365 15.6982 37.3834 14.6999 37.0625C14.2094 34.8584 13.0131 32.8549 11.2865 31.3676C9.37615 29.7219 6.93398 28.8152 4.40942 28.8152C3.4649 28.8152 2.48796 28.8152 0.59206 29.6289C0.0961503 29.8413 -0.133113 30.4154 0.0797471 30.9114C0.292225 31.4069 0.866336 31.6361 1.36186 31.4233V31.4233Z" fill="white"/>
<path d="M48.524 47.3774C47.6184 47.8218 46.6445 48.0469 45.6286 48.0469C43.9151 48.0469 42.2912 47.3896 41.0563 46.1964C40.7527 45.903 40.2949 45.8378 39.9215 46.035C38.874 46.5885 37.6285 46.7163 36.4894 46.3917C35.8058 46.1964 35.1714 45.8443 34.6355 45.3549C34.6267 45.3465 34.6168 45.34 34.6076 45.332C34.5897 45.3171 34.5717 45.3018 34.5531 45.2881C34.5401 45.2786 34.5267 45.2705 34.5138 45.2618C34.4966 45.2503 34.4794 45.2393 34.4619 45.229C34.4482 45.2213 34.434 45.2137 34.4199 45.2068C34.402 45.1977 34.3837 45.1889 34.3654 45.1809C34.3509 45.1748 34.3364 45.1687 34.3215 45.163C34.3028 45.1561 34.2841 45.15 34.2654 45.1443C34.2502 45.1393 34.2349 45.1344 34.2193 45.1305C34.1998 45.1256 34.18 45.1218 34.1601 45.118C34.1296 45.1122 34.0991 45.108 34.0678 45.105C34.0526 45.1035 34.0373 45.1016 34.0217 45.1012C34.0018 45.1 33.9816 45.1004 33.9618 45.1008C33.9469 45.1012 33.9324 45.1012 33.9179 45.1023C33.8977 45.1035 33.8779 45.1054 33.858 45.1077C33.8428 45.1096 33.8275 45.1122 33.8122 45.1145C33.7989 45.1168 33.7852 45.118 33.7718 45.1206C33.7661 45.1222 33.7604 45.1241 33.7546 45.1256C33.7379 45.1294 33.7218 45.1347 33.7054 45.1393C33.6745 45.1481 33.6448 45.1584 33.6154 45.1702C33.5982 45.1771 33.5811 45.1832 33.5643 45.1912C33.5475 45.1988 33.5319 45.208 33.5155 45.2164C33.501 45.2244 33.4861 45.2324 33.4716 45.2412C33.4552 45.2511 33.4392 45.2618 33.4235 45.2725C33.4106 45.2812 33.398 45.2904 33.3854 45.2999C33.3694 45.3125 33.3533 45.3251 33.3381 45.3384C33.3278 45.3472 33.3179 45.3568 33.3079 45.3663C33.2915 45.3816 33.2755 45.3968 33.2603 45.4132C33.2591 45.4147 33.2576 45.4159 33.2564 45.417C33.25 45.4243 33.2446 45.4319 33.2381 45.4395C33.2118 45.4701 33.1874 45.5021 33.1649 45.5361C33.1557 45.5494 33.1462 45.5628 33.1378 45.5765C33.1298 45.5902 33.1229 45.6043 33.1157 45.6184C33.1061 45.6368 33.0962 45.6551 33.0878 45.6734C33.0855 45.6787 33.0825 45.6837 33.0802 45.6886C32.6488 46.6888 31.6669 47.3351 30.5785 47.3351C29.869 47.3351 29.1969 47.0627 28.6857 46.5687C28.4618 46.3524 28.1486 46.2555 27.8415 46.3081C27.5348 46.3612 27.2716 46.5569 27.1327 46.8357C26.7608 47.5826 26.0131 48.0469 25.1804 48.0469C24.3289 48.0469 23.5503 47.5456 23.1967 46.7701C23.075 46.5031 22.8397 46.3051 22.5559 46.2307C22.272 46.1563 21.9699 46.2135 21.7326 46.3863C21.265 46.7278 20.7111 46.9078 20.1309 46.9078C19.5464 46.9078 18.9891 46.7251 18.5199 46.3799C18.3498 46.254 18.1941 46.1094 18.058 45.9496C17.8611 45.7184 17.567 45.5921 17.2656 45.6074C16.9624 45.6226 16.6839 45.7779 16.5111 46.0274C15.8813 46.9379 14.9364 47.6112 13.866 47.8977C10.9443 48.6801 7.98756 46.3829 7.98756 43.3712C7.98756 42.8318 7.55001 42.3947 7.01099 42.3947C6.4716 42.3947 6.03443 42.8318 6.03443 43.3712C6.03443 44.8498 6.51699 46.2536 7.40467 47.406C6.45062 47.7604 5.43438 47.9454 4.40938 47.9454C3.62851 47.9454 2.85489 47.8405 2.10874 47.6334C1.83904 47.559 1.57697 47.4724 1.33016 47.3766C0.827764 47.1817 0.261664 47.4308 0.0663517 47.9336C-0.128579 48.4364 0.12052 49.0021 0.623296 49.1974C0.931142 49.3168 1.25577 49.424 1.58765 49.5155C2.50279 49.7696 3.45227 49.8985 4.40938 49.8985C5.98484 49.8985 7.54467 49.5434 8.95839 48.8674C10.0498 49.6052 11.3369 50 12.664 50C12.7594 50 12.8551 49.9981 12.9505 49.9939C14.6118 49.9229 16.1746 49.2359 17.3568 48.0541C17.377 48.0335 17.3973 48.0129 17.4171 47.9923C18.2128 48.5611 19.1497 48.8613 20.1309 48.8613C20.7755 48.8613 21.4012 48.7316 21.9806 48.481C22.755 49.4267 23.9261 50 25.1804 50C26.3664 50 27.4615 49.5041 28.2314 48.6576C28.9378 49.0688 29.7431 49.2882 30.5785 49.2882C32.0331 49.2882 33.377 48.616 34.2506 47.5082C34.4115 47.6105 34.5782 47.7039 34.7472 47.7913C34.7804 47.8085 34.8136 47.8264 34.8472 47.8428C34.9223 47.8798 34.9986 47.9157 35.0753 47.95C36.0217 48.3734 37.0685 48.5676 38.1038 48.513C38.8305 48.4764 39.5343 48.3223 40.2049 48.053C41.7315 49.313 43.6328 50 45.6286 50C46.9455 50 48.2089 49.7074 49.3842 49.1306C49.8683 48.893 50.0682 48.3082 49.8309 47.8241C49.5932 47.3396 49.0081 47.1397 48.524 47.3774V47.3774Z" fill="white"/>
<path d="M44.9766 27.1028C45.516 27.1028 45.9531 26.6657 45.9531 26.1263V17.9766C45.9531 17.4372 45.516 17 44.9766 17C44.4375 17 44 17.4372 44 17.9766V26.1263C44 26.6657 44.4375 27.1028 44.9766 27.1028Z" fill="white"/>
<path d="M32.2957 7.91632C32.8351 7.91632 33.2722 7.47916 33.2722 6.93976V2.25073C33.2722 1.71133 32.8351 1.27417 32.2957 1.27417C31.7563 1.27417 31.3191 1.71133 31.3191 2.25073V6.93976C31.3191 7.47916 31.7563 7.91632 32.2957 7.91632Z" fill="white"/>
<path d="M13.9766 12.2533C14.5156 12.2533 14.9531 11.8157 14.9531 11.2767V9.23889C14.9531 8.69987 14.5156 8.26233 13.9766 8.26233C13.4372 8.26233 13 8.69987 13 9.23889V11.2767C13 11.8157 13.4372 12.2533 13.9766 12.2533Z" fill="white"/>
<path d="M5.97656 19.708C6.51558 19.708 6.95312 19.2708 6.95312 18.7314V12.9766C6.95312 12.4372 6.51558 12 5.97656 12C5.43716 12 5 12.4372 5 12.9766V18.7314C5 19.2708 5.43716 19.708 5.97656 19.708Z" fill="white"/>
<path d="M5.0746 22.6232C5.2352 23.0084 5.63841 23.2583 6.05612 23.2221C6.45705 23.1874 6.80418 22.9047 6.91519 22.5171C7.02696 22.1257 6.87704 21.692 6.54478 21.4559C6.2068 21.2155 5.74599 21.2159 5.408 21.4559C5.04065 21.716 4.90485 22.2089 5.0746 22.6232Z" fill="white"/>
<path d="M25.3466 20.5771C25.5756 20.3482 25.5756 19.977 25.3466 19.7481C25.1177 19.5191 24.7465 19.5191 24.5176 19.7481C24.2886 19.977 24.2886 20.3482 24.5176 20.5771C24.7465 20.8061 25.1177 20.8061 25.3466 20.5771Z" fill="white"/>
<path d="M25.1054 9.47936C24.4389 9.47932 23.8124 9.7389 23.3411 10.2102C22.8699 10.6814 22.6103 11.3081 22.6103 11.9745C22.6104 13.3503 23.7297 14.4696 25.1055 14.4696C25.7934 14.4696 26.4171 14.1898 26.8689 13.738C27.3206 13.2862 27.6005 12.6623 27.6006 11.9745C27.6005 10.5987 26.4812 9.47936 25.1054 9.47936ZM26.4282 11.9744C26.4281 12.7038 25.8347 13.2972 25.1054 13.2972C24.3761 13.2972 23.7827 12.7038 23.7827 11.9744C23.7827 11.6211 23.9203 11.289 24.1701 11.0391C24.4199 10.7893 24.752 10.6517 25.1054 10.6517C25.8348 10.6517 26.4282 11.2451 26.4282 11.9744Z" fill="white"/>
<path d="M24.9707 0.542867C24.5845 0.545758 24.2164 0.71351 23.9619 1.00339L23.6006 1.41396C20.3608 5.0956 18.7925 10.0048 19.2979 14.8828L19.5079 16.9098L17.0606 19.2174C17.0564 19.2214 17.0523 19.2254 17.0483 19.2294C15.1627 21.1149 14.1243 23.6219 14.1243 26.2885L14.1243 31.1587C14.1243 31.3903 14.2607 31.6003 14.4724 31.6943C14.6841 31.7884 14.9313 31.7491 15.1032 31.5939L20.5226 26.7042L20.5712 27.1731C20.5957 27.4094 20.7603 27.6076 20.9882 27.6748C21.2174 27.7426 21.4482 27.804 21.6802 27.8595L21.909 30.533C21.9286 30.7616 22.0797 30.9578 22.2957 31.0351C23.1269 31.3323 23.9882 31.4848 24.8559 31.4884C25.7446 31.4921 26.627 31.3396 27.4785 31.0351C27.5617 31.0054 27.6353 30.9579 27.6955 30.8977C27.7889 30.8044 27.8499 30.6803 27.8642 30.5439C27.9139 30.0669 27.9641 29.51 28.0127 28.9713C28.0474 28.5874 28.0828 28.1946 28.1182 27.8298C28.3095 27.7822 28.5002 27.731 28.6897 27.675C28.7855 27.6466 28.8703 27.5952 28.9381 27.5274C29.0284 27.4371 29.0886 27.318 29.1052 27.1862L29.1685 26.6844L34.6108 31.5947C34.7828 31.7498 35.03 31.7892 35.2416 31.6951C35.3086 31.6653 35.3679 31.6241 35.4179 31.5742C35.5259 31.4662 35.5897 31.3179 35.5896 31.1595L35.5896 26.2893C35.5896 23.6226 34.5512 21.1158 32.6656 19.2302L30.395 16.9596L30.6102 15.2535C31.2551 10.1404 29.6396 5.01822 26.1779 1.20017L25.9861 0.98857C25.7269 0.702446 25.3568 0.540101 24.9707 0.542867ZM15.2967 29.8403L15.2967 26.2885C15.2967 23.938 16.2111 21.7279 17.8713 20.0644L19.6599 18.3779L20.373 25.2601L15.2967 29.8403ZM26.8451 28.8659C26.8092 29.2628 26.7725 29.6698 26.7359 30.045C26.1221 30.2275 25.4928 30.3186 24.8606 30.316C24.2484 30.3135 23.6389 30.223 23.0441 30.0467L22.8766 28.0892C23.5102 28.1817 24.1503 28.2294 24.7925 28.2316C24.793 28.2316 24.7934 28.2315 24.7939 28.2315C24.7941 28.2315 24.7943 28.2316 24.7945 28.2316C24.7947 28.2316 24.7949 28.2315 24.7952 28.2315C25.507 28.2338 26.2163 28.1798 26.9174 28.0713C26.8932 28.3329 26.8689 28.6016 26.8451 28.8659ZM31.8367 20.0591C33.5008 21.7232 34.4173 23.9357 34.4173 26.2892L34.4173 29.8409L29.3474 25.2666L30.2094 18.4319L31.8367 20.0591L31.8367 20.0591ZM25.3095 1.98757C28.541 5.55178 30.0491 10.3335 29.4471 15.1067L27.9908 26.6528C27.1367 26.8769 26.2622 27.0074 25.3809 27.0459L25.3809 22.6623C25.3809 22.3386 25.1184 22.0761 24.7946 22.076C24.4708 22.076 24.2084 22.3385 24.2084 22.6623L24.2084 27.0418C23.3601 26.9987 22.5185 26.8703 21.6963 26.6552L20.4641 14.762C19.9923 10.2083 21.4563 5.62544 24.4808 2.1886L24.8421 1.77804C24.8895 1.72432 24.9485 1.71557 24.9795 1.71532C25.0104 1.71507 25.0694 1.72267 25.1177 1.77597L25.3095 1.98757Z" fill="white"/>
</g>
<defs>
<clipPath id="clip0">
<rect width="50" height="50" fill="white"/>
</clipPath>
</defs>
</svg>
