<svg width="800" height="736" viewBox="0 0 800 736" fill="none" xmlns="http://www.w3.org/2000/svg">
<g clip-path="url(#clip0)">
<path fill-rule="evenodd" clip-rule="evenodd" d="M746.19 211.172C745.613 210.753 744.245 210.604 743.608 210.478C740.963 209.957 738.237 209.73 735.54 209.73C727.223 209.742 718.771 210.559 710.592 211.972C705.399 212.869 699.122 215.887 693.956 214.248C684.957 211.391 675.861 211.532 667.323 215.61C659.517 219.339 653.591 226.421 650.133 234.073C649.611 235.228 647.494 239.48 646.895 242.345C646.639 242.932 646.393 243.522 646.171 244.12C645.541 245.821 644.977 247.551 644.452 249.284C644.228 250.024 643.664 251.657 644.333 251.972C643.263 253.947 642.315 255.982 641.525 258.083C639.228 264.193 636.716 270.895 635.909 277.371C635.61 279.768 635.598 282.18 635.876 284.583C636.013 285.77 635.957 288.158 636.762 289.061C638.47 290.977 639.347 288.295 639.155 287.017C637.684 277.281 640.524 268.137 643.89 258.985C646.067 253.067 649.643 247.652 653.649 242.749C656.892 238.78 660.37 235.654 664.814 233.022C670.249 229.804 676.06 227.203 681.818 224.593C685.604 222.876 689.396 221.205 693.288 219.726C694.153 219.397 695.515 218.553 696.475 218.55C698.504 218.542 701.38 220.04 703.341 220.597C709.788 222.43 716.318 224.777 722.982 225.713C727.256 226.314 731.261 225.638 735.258 224.214C735.666 224.069 736.351 223.695 737.19 223.161C740.158 222.019 742.965 220.582 745.41 218.51C746.818 217.315 748.096 215.772 749.261 214.359C749.61 213.937 749.764 213.453 749.769 212.993C750.034 212.855 750.209 212.694 750.248 212.505C750.539 211.115 747.887 211.089 746.19 211.172Z" fill="#89C5CC"/>
<path fill-rule="evenodd" clip-rule="evenodd" d="M70.5658 327.071C68.9341 328.392 67.3338 329.742 65.7725 331.146C64.5826 332.217 62.4768 333.498 62.0497 335.119C61.6056 336.804 63.0075 338.381 64.1149 339.4C69.9712 344.788 76.5655 348.431 84.6803 349.036C97.1752 349.969 108.049 346.779 118.89 340.5C126.506 336.09 131.55 329.566 132.652 320.758C141.721 324.527 150.492 329.722 157.946 336.098C161.624 339.244 164.791 342.73 167.721 346.594C169.598 349.069 171.413 351.584 173.097 354.195C173.83 355.33 174.574 357.342 175.783 357.996C177.202 358.764 178.917 357.56 178.847 355.982C178.789 354.669 177.37 353.146 176.707 352.072C175.606 350.29 174.488 348.518 173.311 346.785C171.406 343.978 169.438 341.21 167.291 338.583C162.465 332.682 156.326 327.806 149.961 323.649C137.752 315.672 124.352 310.648 109.495 310.222C100.36 309.96 92.6755 313.081 84.8635 317.742C79.9999 320.644 74.9792 323.497 70.5658 327.071Z" fill="#DDE3E9"/>
<path fill-rule="evenodd" clip-rule="evenodd" d="M189.063 288.493C179.543 278.689 169.991 269.007 159.355 260.375C153.087 255.288 146.481 250.662 140.011 245.839C140.758 246.493 141.49 247.166 142.205 247.855C140.185 246.484 137.542 245.709 135.4 244.44C133.012 243.025 130.73 241.406 128.491 239.774C124.12 236.589 119.815 233.344 115.322 230.325C110.317 226.962 105.129 223.855 100.039 220.619C95.718 217.872 91.3447 214.866 86.7226 212.621C84.2035 211.397 81.6785 209.947 79.149 208.67C78.3025 208.243 69.7125 202.819 69.7341 202.803C70.209 202.445 74.5316 204.476 75.2 204.749C77.1528 205.547 79.0202 206.501 80.8977 207.452C79.8672 205.419 79.0515 203.284 78.6075 201.036C78.4703 200.342 77.3713 195.291 77.9337 194.867C78.2145 194.656 80.9551 203.693 81.0954 204.562C81.2095 205.267 81.1927 206.284 81.4238 206.952C81.7967 208.031 81.7779 207.705 82.5996 208.313C84.1056 209.428 86.1046 210.124 87.7346 211.056C88.6135 211.546 91.3347 213.492 92.9738 214.047C97.9333 216.456 102.96 220.161 107.672 223.238C106.436 220.914 105.495 218.483 104.808 215.937C104.645 215.332 102.884 209.908 103.311 209.586C103.792 209.223 107.148 217.508 107.347 218.292C107.716 219.749 107.792 221.37 108.255 222.788C108.762 224.344 110.346 224.895 111.773 225.802C117.024 229.138 122.095 232.683 127.081 236.391C132.522 226.715 126.249 215.03 120.962 206.911C117.151 201.06 112.02 196.043 106.603 191.664C99.3732 185.819 91.1015 181.149 82.84 176.878C73.2137 171.901 62.8094 168.818 51.9927 167.393C46.3355 166.648 40.5477 166.669 34.8333 166.908C32.0418 167.024 29.3623 167.394 26.6872 168.304C25.4815 168.715 24.3162 169.233 23.1806 169.813C22.3178 170.253 20.2306 170.718 19.7346 171.375C15.651 176.69 13.5619 181.986 13.8809 188.665C14.1826 194.987 16.1793 201.313 18.8891 206.952C21.907 213.232 25.7883 218.931 30.8645 223.715C34.7373 227.365 39.0672 230.541 43.3685 233.676C58.667 244.825 78.0629 254.522 97.8771 252.031C104.291 251.225 110.391 248.982 116.092 245.933C117.436 245.215 118.771 244.489 120.039 243.641C120.894 243.069 123.179 240.493 124.039 240.399C125.218 240.271 127.757 242.669 128.863 243.398C137.267 248.946 145.451 254.794 153.463 260.879C161.988 267.353 170.094 274.267 177.962 281.506C181.308 284.586 184.633 287.672 187.883 290.854C188.639 291.594 190.489 294.321 191.86 294.445C192.728 294.523 193.312 293.782 193.189 292.98C192.973 291.584 190.037 289.496 189.063 288.493Z" fill="#C1DEE2"/>
<path fill-rule="evenodd" clip-rule="evenodd" d="M736.195 250.443C732.507 249.637 728.436 249.699 724.68 249.766C704.535 250.039 684.754 259.577 671.88 274.816C660.92 287.789 657.906 303.919 655.741 320.224C655.526 321.843 655.434 323.451 655.313 325.073C655.287 325.422 655.248 325.732 655.207 326.024C654.355 326.786 653.908 327.673 654.413 328.648C652.537 332.753 650.95 336.962 649.588 341.304C645.581 354.082 641.504 367.104 644.016 380.541C644.602 373.146 645.836 365.585 647.312 358.312C647.397 357.894 647.489 357.48 647.584 357.067C647.594 357.023 647.603 356.98 647.613 356.937C648.135 354.709 648.814 352.549 649.64 350.422C649.649 350.399 649.657 350.376 649.666 350.353C649.775 350.073 649.891 349.795 650.006 349.517C650.242 348.94 650.485 348.365 650.743 347.793C650.83 347.598 650.914 347.401 650.994 347.203C652.196 344.256 652.704 340.936 653.781 337.887C654.039 337.193 654.308 336.502 654.591 335.815C654.607 335.775 654.624 335.735 654.641 335.695C655.404 333.846 656.247 332.019 657.138 330.212C657.622 329.848 657.881 328.945 658.299 328.124C658.385 327.963 659.061 326.884 659.262 326.263C659.786 325.248 660.309 324.232 660.838 323.219C660.822 323.224 660.806 323.23 660.79 323.236C661.319 322.263 661.85 321.294 662.376 320.329C662.492 320.117 662.609 319.905 662.725 319.692C662.914 319.354 663.103 319.015 663.292 318.678C665.057 315.52 666.928 312.426 668.871 309.37C669.564 308.279 671.221 306.715 671.538 305.49C671.55 305.445 671.553 305.403 671.56 305.359C675.776 299.437 680.63 293.975 686.45 289.648C685.747 290.408 684.251 292.989 683.856 293.5C682.646 295.065 681.332 296.521 680.013 297.995C677.652 300.636 675.347 303.361 673.298 306.242C669.552 311.511 666.319 317.056 663.264 322.713C663.235 322.746 663.203 322.778 663.176 322.812C661.64 324.705 660.674 327.565 659.568 329.731C663.943 327.705 668.78 326.385 673.27 324.586C677.747 322.792 682.102 320.795 686.307 318.449C691.895 315.332 697.693 311.813 702.973 307.83C709.024 304.076 714.109 298.91 718.598 293.488C723.908 287.074 728.775 280.603 731.785 272.814C733.264 268.987 734.427 264.996 735.116 260.958C735.146 260.782 735.185 260.591 735.227 260.393C735.932 258.999 736.563 257.573 737.093 256.114C737.933 253.801 739.918 251.256 736.195 250.443Z" fill="#69A1AC"/>
<path fill-rule="evenodd" clip-rule="evenodd" d="M111.36 277.545C110.205 276.294 108.908 275.165 107.384 274.36C106.999 274.157 104.131 272.794 103.944 273.093C103.508 273.79 111.013 277.145 111.36 277.545ZM124.962 269.189C124.952 269.242 125.947 270.93 126.218 271.449C126.794 272.552 127.326 273.677 127.827 274.804C127.086 272.814 126.324 270.967 124.962 269.189ZM55.4 282.929C54.4419 283.237 53.2901 282.021 54.5327 281.722C55.5382 281.481 55.4889 281.424 55.9404 280.615C56.307 279.957 56.5329 279.155 56.8546 278.465C57.537 277.001 58.311 275.605 59.2611 274.296C61.2974 271.492 63.7785 269.076 66.5612 267.039C71.4174 263.486 76.8625 260.238 82.6385 258.607C91.8225 256.012 102.275 255.852 111.473 257.651C117.17 258.765 122.376 260.701 126.159 265.288C128.05 267.58 129.534 270.266 130.183 273.223C130.352 273.996 130.32 274.855 130.532 275.612C130.858 276.776 130.714 276.466 132.075 276.692C133.561 276.939 135.046 277.192 136.53 277.448C140.416 278.121 144.325 278.834 148.112 279.925C149.358 280.284 150.577 280.723 151.768 281.233C152.669 281.618 156.255 282.827 156.69 283.997C157.416 285.944 154.985 285.061 154.23 284.637C153.569 284.266 152.89 283.919 152.201 283.6C150.466 282.797 148.658 282.176 146.809 281.682C144.812 281.148 142.774 280.749 140.743 280.349C138.849 279.977 136.949 279.639 135.046 279.315C133.988 279.135 132.93 278.96 131.872 278.786C131.511 278.726 130.873 278.413 130.921 278.883C128.697 278.454 126.291 278.516 124.025 278.398C121.249 278.253 118.463 278.134 115.679 278.221C113.67 278.284 111.66 278.415 109.662 278.685C108.494 278.843 107.345 279.074 106.199 279.366C105.57 279.527 103.089 279.867 102.746 280.416C102.893 280.18 105.632 280.408 105.98 280.395C107.375 280.343 108.758 280.205 110.147 280.049C112.725 279.761 115.304 279.611 117.89 279.633C117.88 280.087 116.113 280.895 115.682 281.196C114.716 281.871 113.79 282.607 112.926 283.414C111.404 284.836 109.582 286.597 108.529 288.282C108.839 287.785 110.37 287.139 110.913 286.76C111.783 286.152 112.635 285.504 113.442 284.811C114.186 284.17 114.881 283.479 115.564 282.773C116.247 282.067 117.174 280.598 118.072 280.127C118.126 280.099 118.517 280.408 118.74 280.303C118.964 280.197 119.243 279.667 119.3 279.646C120.135 279.323 121.722 279.724 122.601 279.765C124.879 279.87 127.155 280.007 129.432 280.133C130.137 280.171 130.736 280.011 131.003 280.531C131.286 281.086 130.766 282.544 130.618 283.149C130.069 285.393 129.095 287.406 127.56 289.145C124.686 292.402 121.142 294.573 117.138 296.026C101.804 301.589 85.4899 303.817 70.16 298.03C63.8135 295.634 54.2555 291.352 55.4 282.929Z" fill="#89C5CC"/>
<g opacity="0.6">
<path opacity="0.2" fill-rule="evenodd" clip-rule="evenodd" d="M757.526 545.03C767.958 615.65 514.959 661.713 297.198 629.567C79.4358 597.42 -20.4629 471.885 83.4493 404.995C187.362 338.104 747.093 474.409 757.526 545.03Z" fill="#6C63FF"/>
</g>
<path d="M312.432 82.1622H157.838C153.061 82.1622 149.189 86.0343 149.189 90.8108V400C149.189 404.776 153.061 408.649 157.838 408.649H312.432C317.209 408.649 321.081 404.776 321.081 400V90.8108C321.081 86.0343 317.209 82.1622 312.432 82.1622Z" fill="#131313"/>
<path d="M234.594 388.108C243.55 388.108 250.81 380.848 250.81 371.892C250.81 362.936 243.55 355.676 234.594 355.676C225.638 355.676 218.378 362.936 218.378 371.892C218.378 380.848 225.638 388.108 234.594 388.108Z" fill="white"/>
<path d="M220.54 103.784C221.734 103.784 222.702 102.816 222.702 101.622C222.702 100.428 221.734 99.4595 220.54 99.4595C219.346 99.4595 218.378 100.428 218.378 101.622C218.378 102.816 219.346 103.784 220.54 103.784Z" fill="white"/>
<path d="M248.648 99.4595H230.27C229.075 99.4595 228.107 100.428 228.107 101.622C228.107 102.816 229.075 103.784 230.27 103.784H248.648C249.842 103.784 250.81 102.816 250.81 101.622C250.81 100.428 249.842 99.4595 248.648 99.4595Z" fill="white"/>
<path d="M301.622 112.432H168.649C166.26 112.432 164.324 114.368 164.324 116.757V166.486C164.324 168.875 166.26 170.811 168.649 170.811H301.622C304.01 170.811 305.946 168.875 305.946 166.486V116.757C305.946 114.368 304.01 112.432 301.622 112.432Z" fill="white"/>
<path d="M282.162 129.946H209.73C207.938 129.946 206.486 131.398 206.486 133.189V135.459C206.486 137.251 207.938 138.703 209.73 138.703H282.162C283.953 138.703 285.405 137.251 285.405 135.459V133.189C285.405 131.398 283.953 129.946 282.162 129.946Z" fill="#DDE3E9"/>
<path d="M256.216 144.541H209.73C207.938 144.541 206.486 145.993 206.486 147.784V150.054C206.486 151.845 207.938 153.297 209.73 153.297H256.216C258.007 153.297 259.459 151.845 259.459 150.054V147.784C259.459 145.993 258.007 144.541 256.216 144.541Z" fill="#DDE3E9"/>
<path d="M187.027 154.595C194.192 154.595 200 148.786 200 141.622C200 134.457 194.192 128.649 187.027 128.649C179.862 128.649 174.054 134.457 174.054 141.622C174.054 148.786 179.862 154.595 187.027 154.595Z" fill="#C5CFD6"/>
<path d="M301.622 179.459H168.649C166.26 179.459 164.324 181.396 164.324 183.784V220.541C164.324 222.929 166.26 224.865 168.649 224.865H301.622C304.01 224.865 305.946 222.929 305.946 220.541V183.784C305.946 181.396 304.01 179.459 301.622 179.459Z" fill="white"/>
<path d="M282.162 193.081H209.73C207.938 193.081 206.486 194.533 206.486 196.324V196.649C206.486 198.44 207.938 199.892 209.73 199.892H282.162C283.953 199.892 285.405 198.44 285.405 196.649V196.324C285.405 194.533 283.953 193.081 282.162 193.081Z" fill="#DDE3E9"/>
<path d="M256.216 204.432H209.73C207.938 204.432 206.486 205.884 206.486 207.676V208C206.486 209.791 207.938 211.243 209.73 211.243H256.216C258.007 211.243 259.459 209.791 259.459 208V207.676C259.459 205.884 258.007 204.432 256.216 204.432Z" fill="#DDE3E9"/>
<path d="M187.027 215.135C194.192 215.135 200 209.327 200 202.162C200 194.997 194.192 189.189 187.027 189.189C179.862 189.189 174.054 194.997 174.054 202.162C174.054 209.327 179.862 215.135 187.027 215.135Z" fill="#C5CFD6"/>
<path d="M301.622 233.514H168.649C166.26 233.514 164.324 235.45 164.324 237.838V274.595C164.324 276.983 166.26 278.919 168.649 278.919H301.622C304.01 278.919 305.946 276.983 305.946 274.595V237.838C305.946 235.45 304.01 233.514 301.622 233.514Z" fill="white"/>
<path d="M282.162 247.135H209.73C207.938 247.135 206.486 248.587 206.486 250.378V250.703C206.486 252.494 207.938 253.946 209.73 253.946H282.162C283.953 253.946 285.405 252.494 285.405 250.703V250.378C285.405 248.587 283.953 247.135 282.162 247.135Z" fill="#DDE3E9"/>
<path d="M256.216 258.486H209.73C207.938 258.486 206.486 259.939 206.486 261.73V262.054C206.486 263.845 207.938 265.297 209.73 265.297H256.216C258.007 265.297 259.459 263.845 259.459 262.054V261.73C259.459 259.939 258.007 258.486 256.216 258.486Z" fill="#DDE3E9"/>
<path d="M187.027 269.189C194.192 269.189 200 263.381 200 256.216C200 249.051 194.192 243.243 187.027 243.243C179.862 243.243 174.054 249.051 174.054 256.216C174.054 263.381 179.862 269.189 187.027 269.189Z" fill="#AFB9C5"/>
<path d="M301.622 287.568H168.649C166.26 287.568 164.324 289.504 164.324 291.892V328.649C164.324 331.037 166.26 332.973 168.649 332.973H301.622C304.01 332.973 305.946 331.037 305.946 328.649V291.892C305.946 289.504 304.01 287.568 301.622 287.568Z" fill="white"/>
<path d="M282.162 301.189H209.73C207.938 301.189 206.486 302.641 206.486 304.432V304.757C206.486 306.548 207.938 308 209.73 308H282.162C283.953 308 285.405 306.548 285.405 304.757V304.432C285.405 302.641 283.953 301.189 282.162 301.189Z" fill="#DDE3E9"/>
<path d="M256.216 312.541H209.73C207.938 312.541 206.486 313.993 206.486 315.784V316.108C206.486 317.899 207.938 319.351 209.73 319.351H256.216C258.007 319.351 259.459 317.899 259.459 316.108V315.784C259.459 313.993 258.007 312.541 256.216 312.541Z" fill="#DDE3E9"/>
<path d="M187.027 323.243C194.192 323.243 200 317.435 200 310.27C200 303.106 194.192 297.297 187.027 297.297C179.862 297.297 174.054 303.106 174.054 310.27C174.054 317.435 179.862 323.243 187.027 323.243Z" fill="#C5CFD6"/>
<path fill-rule="evenodd" clip-rule="evenodd" d="M181.773 345.946C180.34 345.946 178.912 345.975 177.482 346.049C176.392 346.106 174.725 345.88 173.803 346.56C172.844 347.266 172.91 348.711 173.06 349.731C173.851 355.127 175.784 359.913 179.826 363.736C186.049 369.623 193.183 372.614 201.626 373.946C207.556 374.882 213.031 373.582 217.396 369.365C220.586 375.285 223.006 381.837 224.22 388.449C224.819 391.711 225.002 394.935 224.897 398.257C224.829 400.385 224.712 402.508 224.483 404.626C224.385 405.546 223.915 406.939 224.276 407.808C224.698 408.83 226.124 408.929 226.764 408.058C227.297 407.333 227.199 405.91 227.309 405.052C227.49 403.627 227.658 402.201 227.778 400.77C227.973 398.453 228.118 396.129 228.107 393.804C228.083 388.578 226.921 383.333 225.332 378.372C222.283 368.856 217.337 360.399 209.643 353.764C204.913 349.683 199.499 348.031 193.357 347.144C189.533 346.592 185.646 345.946 181.773 345.946Z" fill="#89C5CC"/>
<path fill-rule="evenodd" clip-rule="evenodd" d="M203.861 383.784C188.402 383.784 177.991 396.242 173.069 409.191C171.213 414.072 170.778 419.431 170.063 424.556C169.833 426.201 169.918 428.707 169.251 430.172C169.009 430.703 168.453 430.894 168.719 431.618C168.879 432.057 169.195 432.325 169.669 432.412C170.641 432.591 172.016 431.532 172.849 431.114C179.764 427.646 184.307 422.285 188.013 415.724C190.311 411.658 192.642 407.437 194.006 402.973C194.84 400.246 195.325 397.374 195.61 394.545C195.723 393.431 195.831 392.29 195.825 391.169C195.818 390.057 195.301 389.469 194.929 388.501C200.087 386.549 205.909 386.017 211.133 388.04C215.966 389.911 219.98 393.528 222.228 398.071C222.812 399.252 223.262 400.498 223.59 401.768C223.805 402.601 223.815 403.68 224.213 404.433C225.178 406.257 227.209 405.037 227.014 403.339C226.47 398.603 223.76 393.847 220.297 390.554C215.929 386.401 210.008 383.784 203.861 383.784Z" fill="#89C5CC"/>
<path d="M383.784 110.27H229.189C224.413 110.27 220.541 114.142 220.541 118.919V428.108C220.541 432.885 224.413 436.757 229.189 436.757H383.784C388.56 436.757 392.432 432.885 392.432 428.108V118.919C392.432 114.142 388.56 110.27 383.784 110.27Z" fill="#131313"/>
<path d="M305.946 416.216C314.902 416.216 322.162 408.956 322.162 400C322.162 391.044 314.902 383.784 305.946 383.784C296.99 383.784 289.729 391.044 289.729 400C289.729 408.956 296.99 416.216 305.946 416.216Z" fill="white"/>
<path d="M291.892 131.892C293.086 131.892 294.054 130.924 294.054 129.73C294.054 128.536 293.086 127.568 291.892 127.568C290.698 127.568 289.729 128.536 289.729 129.73C289.729 130.924 290.698 131.892 291.892 131.892Z" fill="white"/>
<path d="M320 127.568H301.622C300.428 127.568 299.459 128.536 299.459 129.73C299.459 130.924 300.428 131.892 301.622 131.892H320C321.194 131.892 322.162 130.924 322.162 129.73C322.162 128.536 321.194 127.568 320 127.568Z" fill="white"/>
<path d="M372.973 140.541H240C237.611 140.541 235.675 142.477 235.675 144.865V194.595C235.675 196.983 237.611 198.919 240 198.919H372.973C375.361 198.919 377.297 196.983 377.297 194.595V144.865C377.297 142.477 375.361 140.541 372.973 140.541Z" fill="white"/>
<path d="M321.081 158.054H248.649C246.857 158.054 245.405 159.506 245.405 161.297V163.568C245.405 165.359 246.857 166.811 248.649 166.811H321.081C322.872 166.811 324.324 165.359 324.324 163.568V161.297C324.324 159.506 322.872 158.054 321.081 158.054Z" fill="#DDE3E9"/>
<path d="M295.135 172.649H248.649C246.857 172.649 245.405 174.101 245.405 175.892V178.162C245.405 179.953 246.857 181.405 248.649 181.405H295.135C296.926 181.405 298.378 179.953 298.378 178.162V175.892C298.378 174.101 296.926 172.649 295.135 172.649Z" fill="#DDE3E9"/>
<path d="M362.162 177.297C366.341 177.297 369.729 173.909 369.729 169.73C369.729 165.55 366.341 162.162 362.162 162.162C357.982 162.162 354.594 165.55 354.594 169.73C354.594 173.909 357.982 177.297 362.162 177.297Z" fill="#DDE3E9"/>
<path d="M362.162 172.973C363.953 172.973 365.405 171.521 365.405 169.73C365.405 167.938 363.953 166.486 362.162 166.486C360.371 166.486 358.918 167.938 358.918 169.73C358.918 171.521 360.371 172.973 362.162 172.973Z" fill="#F2F2F2"/>
<path d="M372.973 207.568H240C237.611 207.568 235.675 209.504 235.675 211.892V248.649C235.675 251.037 237.611 252.973 240 252.973H372.973C375.361 252.973 377.297 251.037 377.297 248.649V211.892C377.297 209.504 375.361 207.568 372.973 207.568Z" fill="white"/>
<path d="M353.513 221.189H281.081C279.289 221.189 277.837 222.641 277.837 224.432V224.757C277.837 226.548 279.289 228 281.081 228H353.513C355.304 228 356.756 226.548 356.756 224.757V224.432C356.756 222.641 355.304 221.189 353.513 221.189Z" fill="#DDE3E9"/>
<path d="M327.567 232.541H281.081C279.289 232.541 277.837 233.993 277.837 235.784V236.108C277.837 237.899 279.289 239.351 281.081 239.351H327.567C329.358 239.351 330.81 237.899 330.81 236.108V235.784C330.81 233.993 329.358 232.541 327.567 232.541Z" fill="#DDE3E9"/>
<path d="M258.378 243.243C265.543 243.243 271.351 237.435 271.351 230.27C271.351 223.106 265.543 217.297 258.378 217.297C251.213 217.297 245.405 223.106 245.405 230.27C245.405 237.435 251.213 243.243 258.378 243.243Z" fill="#C5CFD6"/>
<path d="M372.973 261.622H240C237.611 261.622 235.675 263.558 235.675 265.946V302.703C235.675 305.091 237.611 307.027 240 307.027H372.973C375.361 307.027 377.297 305.091 377.297 302.703V265.946C377.297 263.558 375.361 261.622 372.973 261.622Z" fill="white"/>
<path d="M321.081 275.243H248.649C246.857 275.243 245.405 276.695 245.405 278.486V278.811C245.405 280.602 246.857 282.054 248.649 282.054H321.081C322.872 282.054 324.324 280.602 324.324 278.811V278.486C324.324 276.695 322.872 275.243 321.081 275.243Z" fill="#DDE3E9"/>
<path d="M295.135 286.595H248.649C246.857 286.595 245.405 288.047 245.405 289.838V290.162C245.405 291.953 246.857 293.405 248.649 293.405H295.135C296.926 293.405 298.378 291.953 298.378 290.162V289.838C298.378 288.047 296.926 286.595 295.135 286.595Z" fill="#AFB9C5"/>
<path d="M362.162 291.892C366.341 291.892 369.729 288.504 369.729 284.324C369.729 280.145 366.341 276.757 362.162 276.757C357.982 276.757 354.594 280.145 354.594 284.324C354.594 288.504 357.982 291.892 362.162 291.892Z" fill="#DDE3E9"/>
<path d="M362.162 287.568C363.953 287.568 365.405 286.116 365.405 284.324C365.405 282.533 363.953 281.081 362.162 281.081C360.371 281.081 358.918 282.533 358.918 284.324C358.918 286.116 360.371 287.568 362.162 287.568Z" fill="#F2F2F2"/>
<path d="M372.973 315.676H240C237.611 315.676 235.675 317.612 235.675 320V356.757C235.675 359.145 237.611 361.081 240 361.081H372.973C375.361 361.081 377.297 359.145 377.297 356.757V320C377.297 317.612 375.361 315.676 372.973 315.676Z" fill="white"/>
<path d="M353.513 329.297H281.081C279.289 329.297 277.837 330.749 277.837 332.541V332.865C277.837 334.656 279.289 336.108 281.081 336.108H353.513C355.304 336.108 356.756 334.656 356.756 332.865V332.541C356.756 330.749 355.304 329.297 353.513 329.297Z" fill="#DDE3E9"/>
<path d="M327.567 340.649H281.081C279.289 340.649 277.837 342.101 277.837 343.892V344.216C277.837 346.007 279.289 347.459 281.081 347.459H327.567C329.358 347.459 330.81 346.007 330.81 344.216V343.892C330.81 342.101 329.358 340.649 327.567 340.649Z" fill="#DDE3E9"/>
<path d="M258.378 351.351C265.543 351.351 271.351 345.543 271.351 338.378C271.351 331.214 265.543 325.405 258.378 325.405C251.213 325.405 245.405 331.214 245.405 338.378C245.405 345.543 251.213 351.351 258.378 351.351Z" fill="#C5CFD6"/>
<path d="M645.405 137.297H300.54C295.764 137.297 291.892 141.169 291.892 145.946V502.703C291.892 507.479 295.764 511.351 300.54 511.351H645.405C650.182 511.351 654.054 507.479 654.054 502.703V145.946C654.054 141.169 650.182 137.297 645.405 137.297Z" fill="#F2F2F2"/>
<path d="M628.108 183.784H569.729C564.953 183.784 561.081 187.656 561.081 192.432V262.703C561.081 267.479 564.953 271.351 569.729 271.351H628.108C632.884 271.351 636.756 267.479 636.756 262.703V192.432C636.756 187.656 632.884 183.784 628.108 183.784Z" fill="white"/>
<path d="M598.918 234.595C608.471 234.595 616.216 226.85 616.216 217.297C616.216 207.744 608.471 200 598.918 200C589.365 200 581.621 207.744 581.621 217.297C581.621 226.85 589.365 234.595 598.918 234.595Z" fill="#DDE3E9"/>
<path d="M622.702 238.919H575.135C573.344 238.919 571.892 240.371 571.892 242.162C571.892 243.953 573.344 245.405 575.135 245.405H622.702C624.494 245.405 625.946 243.953 625.946 242.162C625.946 240.371 624.494 238.919 622.702 238.919Z" fill="#DDE3E9"/>
<path d="M614.054 249.73H583.784C581.993 249.73 580.541 251.182 580.541 252.973C580.541 254.764 581.993 256.216 583.784 256.216H614.054C615.845 256.216 617.297 254.764 617.297 252.973C617.297 251.182 615.845 249.73 614.054 249.73Z" fill="#DDE3E9"/>
<path fill-rule="evenodd" clip-rule="evenodd" d="M300.54 137.297H645.405C650.182 137.297 654.054 141.169 654.054 145.946V166.486H291.892V145.946C291.892 141.169 295.764 137.297 300.54 137.297Z" fill="#131313"/>
<path d="M305.946 156.757C308.334 156.757 310.27 154.821 310.27 152.432C310.27 150.044 308.334 148.108 305.946 148.108C303.558 148.108 301.622 150.044 301.622 152.432C301.622 154.821 303.558 156.757 305.946 156.757Z" fill="#F2F2F2"/>
<path d="M318.919 156.757C321.307 156.757 323.243 154.821 323.243 152.432C323.243 150.044 321.307 148.108 318.919 148.108C316.531 148.108 314.595 150.044 314.595 152.432C314.595 154.821 316.531 156.757 318.919 156.757Z" fill="#F2F2F2"/>
<path d="M331.892 156.757C334.28 156.757 336.216 154.821 336.216 152.432C336.216 150.044 334.28 148.108 331.892 148.108C329.503 148.108 327.567 150.044 327.567 152.432C327.567 154.821 329.503 156.757 331.892 156.757Z" fill="#F2F2F2"/>
<path d="M628.108 280H569.729C564.953 280 561.081 283.872 561.081 288.649V481.081C561.081 485.858 564.953 489.73 569.729 489.73H628.108C632.884 489.73 636.756 485.858 636.756 481.081V288.649C636.756 283.872 632.884 280 628.108 280Z" fill="white"/>
<path d="M612.972 299.459H584.864C582.476 299.459 580.54 301.396 580.54 303.784V323.243C580.54 325.632 582.476 327.568 584.864 327.568H612.972C615.361 327.568 617.297 325.632 617.297 323.243V303.784C617.297 301.396 615.361 299.459 612.972 299.459Z" fill="#DDE3E9"/>
<path d="M612.972 336.216H584.864C582.476 336.216 580.54 338.152 580.54 340.541V358.919C580.54 361.307 582.476 363.243 584.864 363.243H612.972C615.361 363.243 617.297 361.307 617.297 358.919V340.541C617.297 338.152 615.361 336.216 612.972 336.216Z" fill="#AFB9C5"/>
<path d="M612.972 371.892H584.864C582.476 371.892 580.54 373.828 580.54 376.216V394.595C580.54 396.983 582.476 398.919 584.864 398.919H612.972C615.361 398.919 617.297 396.983 617.297 394.595V376.216C617.297 373.828 615.361 371.892 612.972 371.892Z" fill="#DDE3E9"/>
<path d="M612.972 443.243H584.864C582.476 443.243 580.54 445.179 580.54 447.568V465.946C580.54 468.334 582.476 470.27 584.864 470.27H612.972C615.361 470.27 617.297 468.334 617.297 465.946V447.568C617.297 445.179 615.361 443.243 612.972 443.243Z" fill="#DDE3E9"/>
<path d="M612.972 407.568H584.864C582.476 407.568 580.54 409.504 580.54 411.892V430.27C580.54 432.659 582.476 434.595 584.864 434.595H612.972C615.361 434.595 617.297 432.659 617.297 430.27V411.892C617.297 409.504 615.361 407.568 612.972 407.568Z" fill="#C5CFD6"/>
<path d="M548.108 184.865H313.513C311.125 184.865 309.189 186.801 309.189 189.189V231.351C309.189 233.74 311.125 235.676 313.513 235.676H548.108C550.496 235.676 552.432 233.74 552.432 231.351V189.189C552.432 186.801 550.496 184.865 548.108 184.865Z" fill="white"/>
<path d="M496.216 200.108H322.162C320.371 200.108 318.918 201.56 318.918 203.351V204.486C318.918 206.278 320.371 207.73 322.162 207.73H496.216C498.007 207.73 499.459 206.278 499.459 204.486V203.351C499.459 201.56 498.007 200.108 496.216 200.108Z" fill="#DDE3E9"/>
<path d="M436.86 212.811H322.162C320.371 212.811 318.918 214.263 318.918 216.054V217.189C318.918 218.98 320.371 220.432 322.162 220.432H436.86C438.651 220.432 440.103 218.98 440.103 217.189V216.054C440.103 214.263 438.651 212.811 436.86 212.811Z" fill="#DDE3E9"/>
<path d="M526.437 217.838C530.616 217.838 534.004 214.45 534.004 210.27C534.004 206.091 530.616 202.703 526.437 202.703C522.257 202.703 518.869 206.091 518.869 210.27C518.869 214.45 522.257 217.838 526.437 217.838Z" fill="#DDE3E9"/>
<path d="M526.437 213.514C528.228 213.514 529.68 212.061 529.68 210.27C529.68 208.479 528.228 207.027 526.437 207.027C524.645 207.027 523.193 208.479 523.193 210.27C523.193 212.061 524.645 213.514 526.437 213.514Z" fill="#F2F2F2"/>
<path d="M548.108 244.324H313.513C311.125 244.324 309.189 246.26 309.189 248.649V282.162C309.189 284.55 311.125 286.486 313.513 286.486H548.108C550.496 286.486 552.432 284.55 552.432 282.162V248.649C552.432 246.26 550.496 244.324 548.108 244.324Z" fill="white"/>
<path d="M496.297 256.973H322.081C320.334 256.973 318.918 258.389 318.918 260.135C318.918 261.882 320.334 263.297 322.081 263.297H496.297C498.043 263.297 499.459 261.882 499.459 260.135C499.459 258.389 498.043 256.973 496.297 256.973Z" fill="#DDE3E9"/>
<path d="M436.941 267.514H322.081C320.334 267.514 318.918 268.929 318.918 270.676C318.918 272.422 320.334 273.838 322.081 273.838H436.941C438.687 273.838 440.103 272.422 440.103 270.676C440.103 268.929 438.687 267.514 436.941 267.514Z" fill="#DDE3E9"/>
<path d="M526.437 272.973C530.616 272.973 534.004 269.585 534.004 265.405C534.004 261.226 530.616 257.838 526.437 257.838C522.257 257.838 518.869 261.226 518.869 265.405C518.869 269.585 522.257 272.973 526.437 272.973Z" fill="#DDE3E9"/>
<path d="M526.437 268.649C528.228 268.649 529.68 267.197 529.68 265.405C529.68 263.614 528.228 262.162 526.437 262.162C524.645 262.162 523.193 263.614 523.193 265.405C523.193 267.197 524.645 268.649 526.437 268.649Z" fill="#F2F2F2"/>
<path d="M548.108 295.135H313.513C311.125 295.135 309.189 297.071 309.189 299.459V332.973C309.189 335.361 311.125 337.297 313.513 337.297H548.108C550.496 337.297 552.432 335.361 552.432 332.973V299.459C552.432 297.071 550.496 295.135 548.108 295.135Z" fill="white"/>
<path d="M496.297 307.784H322.081C320.334 307.784 318.918 309.2 318.918 310.946C318.918 312.692 320.334 314.108 322.081 314.108H496.297C498.043 314.108 499.459 312.692 499.459 310.946C499.459 309.2 498.043 307.784 496.297 307.784Z" fill="#DDE3E9"/>
<path d="M436.941 318.324H322.081C320.334 318.324 318.918 319.74 318.918 321.486C318.918 323.233 320.334 324.649 322.081 324.649H436.941C438.687 324.649 440.103 323.233 440.103 321.486C440.103 319.74 438.687 318.324 436.941 318.324Z" fill="#DDE3E9"/>
<path d="M526.437 323.784C530.616 323.784 534.004 320.396 534.004 316.216C534.004 312.037 530.616 308.649 526.437 308.649C522.257 308.649 518.869 312.037 518.869 316.216C518.869 320.396 522.257 323.784 526.437 323.784Z" fill="#DDE3E9"/>
<path d="M526.437 319.459C528.228 319.459 529.68 318.007 529.68 316.216C529.68 314.425 528.228 312.973 526.437 312.973C524.645 312.973 523.193 314.425 523.193 316.216C523.193 318.007 524.645 319.459 526.437 319.459Z" fill="#AFB9C5"/>
<path d="M548.108 447.568H313.513C311.125 447.568 309.189 449.504 309.189 451.892V485.405C309.189 487.794 311.125 489.73 313.513 489.73H548.108C550.496 489.73 552.432 487.794 552.432 485.405V451.892C552.432 449.504 550.496 447.568 548.108 447.568Z" fill="white"/>
<path d="M496.297 460.216H322.081C320.334 460.216 318.918 461.632 318.918 463.378C318.918 465.125 320.334 466.541 322.081 466.541H496.297C498.043 466.541 499.459 465.125 499.459 463.378C499.459 461.632 498.043 460.216 496.297 460.216Z" fill="#DDE3E9"/>
<path d="M436.941 470.757H322.081C320.334 470.757 318.918 472.172 318.918 473.919C318.918 475.665 320.334 477.081 322.081 477.081H436.941C438.687 477.081 440.103 475.665 440.103 473.919C440.103 472.172 438.687 470.757 436.941 470.757Z" fill="#DDE3E9"/>
<path d="M526.437 476.216C530.616 476.216 534.004 472.828 534.004 468.649C534.004 464.469 530.616 461.081 526.437 461.081C522.257 461.081 518.869 464.469 518.869 468.649C518.869 472.828 522.257 476.216 526.437 476.216Z" fill="#DDE3E9"/>
<path d="M526.437 471.892C528.228 471.892 529.68 470.44 529.68 468.649C529.68 466.857 528.228 465.405 526.437 465.405C524.645 465.405 523.193 466.857 523.193 468.649C523.193 470.44 524.645 471.892 526.437 471.892Z" fill="#F2F2F2"/>
<path d="M548.108 396.757H313.513C311.125 396.757 309.189 398.693 309.189 401.081V434.595C309.189 436.983 311.125 438.919 313.513 438.919H548.108C550.496 438.919 552.432 436.983 552.432 434.595V401.081C552.432 398.693 550.496 396.757 548.108 396.757Z" fill="white"/>
<path d="M496.297 409.405H322.081C320.334 409.405 318.918 410.821 318.918 412.568C318.918 414.314 320.334 415.73 322.081 415.73H496.297C498.043 415.73 499.459 414.314 499.459 412.568C499.459 410.821 498.043 409.405 496.297 409.405Z" fill="#DDE3E9"/>
<path d="M436.941 419.946H322.081C320.334 419.946 318.918 421.362 318.918 423.108C318.918 424.855 320.334 426.27 322.081 426.27H436.941C438.687 426.27 440.103 424.855 440.103 423.108C440.103 421.362 438.687 419.946 436.941 419.946Z" fill="#DDE3E9"/>
<path d="M526.437 425.405C530.616 425.405 534.004 422.017 534.004 417.838C534.004 413.658 530.616 410.27 526.437 410.27C522.257 410.27 518.869 413.658 518.869 417.838C518.869 422.017 522.257 425.405 526.437 425.405Z" fill="#DDE3E9"/>
<path d="M526.437 421.081C528.228 421.081 529.68 419.629 529.68 417.838C529.68 416.047 528.228 414.595 526.437 414.595C524.645 414.595 523.193 416.047 523.193 417.838C523.193 419.629 524.645 421.081 526.437 421.081Z" fill="#F2F2F2"/>
<path d="M548.108 345.946H313.513C311.125 345.946 309.189 347.882 309.189 350.27V383.784C309.189 386.172 311.125 388.108 313.513 388.108H548.108C550.496 388.108 552.432 386.172 552.432 383.784V350.27C552.432 347.882 550.496 345.946 548.108 345.946Z" fill="white"/>
<path d="M496.297 358.595H322.081C320.334 358.595 318.918 360.01 318.918 361.757C318.918 363.503 320.334 364.919 322.081 364.919H496.297C498.043 364.919 499.459 363.503 499.459 361.757C499.459 360.01 498.043 358.595 496.297 358.595Z" fill="#DDE3E9"/>
<path d="M436.941 369.135H322.081C320.334 369.135 318.918 370.551 318.918 372.297C318.918 374.044 320.334 375.459 322.081 375.459H436.941C438.687 375.459 440.103 374.044 440.103 372.297C440.103 370.551 438.687 369.135 436.941 369.135Z" fill="#DDE3E9"/>
<path d="M526.437 374.595C530.616 374.595 534.004 371.206 534.004 367.027C534.004 362.848 530.616 359.459 526.437 359.459C522.257 359.459 518.869 362.848 518.869 367.027C518.869 371.206 522.257 374.595 526.437 374.595Z" fill="#DDE3E9"/>
<path d="M526.437 370.27C528.228 370.27 529.68 368.818 529.68 367.027C529.68 365.236 528.228 363.784 526.437 363.784C524.645 363.784 523.193 365.236 523.193 367.027C523.193 368.818 524.645 370.27 526.437 370.27Z" fill="#F2F2F2"/>
<path fill-rule="evenodd" clip-rule="evenodd" d="M743.768 321.487C739.504 318.596 733.833 317.838 728.731 317.838C708.8 317.838 690.066 325.232 673.882 336.251C665.014 342.288 657.081 349.976 650.077 357.981C646.035 362.602 642.43 367.601 639.878 373.16C638.156 376.912 636.974 380.822 636.173 384.855C635.196 389.77 634.421 394.784 634.07 399.781C633.932 401.748 632.789 412.188 636.06 412.365C636.041 412.623 636.037 412.868 636.057 413.088C628.954 424.194 624.565 437.211 620.495 449.552C616.954 460.291 613.799 471.121 611.751 482.23C609.054 496.857 607.283 511.703 606.441 526.54C606.26 529.729 606.136 532.919 606.029 536.112C605.938 538.835 605.847 541.558 605.757 544.282C605.657 547.334 605.12 550.847 605.605 553.881C606.028 556.524 608.315 556.124 608.416 553.494C608.538 550.319 608.518 547.137 608.657 543.96C608.842 539.742 609.032 535.525 609.238 531.309C610.675 502.02 616.065 473.162 626.012 445.496C630.037 434.301 634.65 423.702 640.578 413.346C645.791 404.24 652.06 395.424 658.469 387.214C664.698 379.235 671.174 371.441 678.806 364.681C684.999 359.195 691.812 354.417 698.815 349.97C707.709 344.322 716.587 338.812 726.222 334.477C731.23 332.223 736.333 330.206 741.38 328.044C742.288 327.655 743.262 327.277 744.135 326.827C747.049 325.324 746.09 323.061 743.768 321.487Z" fill="#C1DEE2"/>
<path fill-rule="evenodd" clip-rule="evenodd" d="M663.587 423.784C671.67 423.784 678.863 424.834 686.311 428.047C692.741 430.819 698.6 434.49 704.288 438.486C712.29 444.106 718.593 450.647 723.004 459.313C725.64 464.491 727.573 471.817 725.803 477.465C723.718 484.116 717.993 489.663 710.453 488.491C705.791 487.767 701.516 484.681 697.973 481.776C693.733 478.301 690.34 474.122 687.538 469.481C682.967 461.911 680.281 453.352 676.398 445.442C674.555 441.687 672.775 437.906 670.568 434.337C669.475 432.57 668.312 430.82 666.655 429.507C665.768 428.805 662.03 427.589 663.459 426.012C642.497 426.287 623.926 442.386 619.902 462.314C619.527 464.172 619.234 466.044 618.925 467.913C618.729 469.093 618.808 473.445 617.753 474.199C615.427 475.862 616.405 470.81 616.505 470.082C616.763 468.203 617.038 466.324 617.327 464.449C618.898 454.25 623.439 444.769 631.011 437.495C639.67 429.178 651.352 423.784 663.587 423.784Z" fill="#89C5CC"/>
<path fill-rule="evenodd" clip-rule="evenodd" d="M81.0136 398.634C101.194 432.488 124.697 465.269 138.811 502.284C138.243 497.921 137.64 493.563 136.965 489.21C133.383 466.139 128.932 443.237 124.255 420.362C121.873 408.715 119.354 397.111 116.77 385.507C115.38 379.275 114.007 373.039 112.589 366.813C112.246 365.304 111.95 362.67 111.52 360C125.237 405.013 138.465 450.059 148.141 496.154C149.41 502.203 150.491 508.242 151.377 514.27C151.68 512.895 151.978 511.52 152.304 510.148C156.219 493.708 162.091 477.398 169.084 462.026C172.426 454.675 176.266 447.485 180.787 440.785C183.606 436.609 190.254 431.644 192.826 427.367C178.761 453.163 173.683 485.44 165.562 513.485C163.58 520.328 161.585 527.161 159.631 534.006C171.878 509.446 190.879 489.266 217.297 480.522C185.319 501.651 166.138 538.653 153.213 576.497C153.17 576.946 153.12 577.395 153.076 577.844C156.879 570.626 161.67 564.097 168.164 559.524C182.061 549.735 197.478 552.586 210.959 560.984C200.378 554.258 181.257 560.382 172.354 567.218C165.981 572.111 160.535 578.676 155.805 585.081C154.672 586.616 153.125 588.407 151.492 590.318C149.202 605.184 145.47 619.948 140.186 634.595C141.058 630.391 140.428 623.667 140.67 620.533C140.696 620.194 140.717 619.855 140.743 619.516C139.94 622.723 139.164 625.893 138.417 629.013C139.902 623.06 140.709 616.847 141.339 610.569C141.502 607.871 141.66 605.173 141.827 602.475C141.774 597.355 141.563 592.215 141.207 587.066C139.942 582.062 138.526 577.343 137.358 573.418C133.144 559.255 126.966 545.686 119.363 533.028C112.425 521.477 104.121 511.014 94.5346 501.551C89.3666 496.451 83.958 491.594 78.6256 486.67C76.6973 484.89 73.2508 480.512 70.27 478.231C91.9787 490.199 114.323 503.146 130.159 522.43C128.303 515.3 126.286 508.271 124.153 501.383C113.331 466.437 99.6661 430.219 81.0136 398.634Z" fill="#DDE3E9"/>
<path fill-rule="evenodd" clip-rule="evenodd" d="M102.703 590.27C102.703 629.079 105.776 660.541 147.027 660.541C188.278 660.541 191.351 629.079 191.351 590.27" fill="#C5CFD6"/>
<path d="M568.649 94.054C568.649 92.2628 567.197 90.8108 565.405 90.8108C563.614 90.8108 562.162 92.2628 562.162 94.054V114.595C562.162 116.386 563.614 117.838 565.405 117.838C567.197 117.838 568.649 116.386 568.649 114.595V94.054Z" fill="#DDE3E9"/>
<path d="M583.784 76.7568C583.784 74.9656 582.332 73.5135 580.541 73.5135C578.749 73.5135 577.297 74.9656 577.297 76.7568V114.595C577.297 116.386 578.749 117.838 580.541 117.838C582.332 117.838 583.784 116.386 583.784 114.595V76.7568Z" fill="#DDE3E9"/>
<path d="M598.919 68.1081C598.919 66.3169 597.467 64.8649 595.675 64.8649C593.884 64.8649 592.432 66.3169 592.432 68.1081V114.595C592.432 116.386 593.884 117.838 595.675 117.838C597.467 117.838 598.919 116.386 598.919 114.595V68.1081Z" fill="#DDE3E9"/>
<path d="M614.054 76.7568C614.054 74.9656 612.602 73.5135 610.811 73.5135C609.019 73.5135 607.567 74.9656 607.567 76.7568V114.595C607.567 116.386 609.019 117.838 610.811 117.838C612.602 117.838 614.054 116.386 614.054 114.595V76.7568Z" fill="#DDE3E9"/>
<path d="M629.189 59.4595C629.189 57.6683 627.737 56.2162 625.946 56.2162C624.155 56.2162 622.703 57.6683 622.703 59.4595V114.595C622.703 116.386 624.155 117.838 625.946 117.838C627.737 117.838 629.189 116.386 629.189 114.595V59.4595Z" fill="#C5CFD6"/>
<path fill-rule="evenodd" clip-rule="evenodd" d="M30.2705 387.304C30.2705 375.262 40.0024 365.405 51.8921 365.405V387.304L37.1159 403.243C32.9126 399.346 30.2705 393.63 30.2705 387.304Z" fill="#F2F2F2"/>
<path fill-rule="evenodd" clip-rule="evenodd" d="M51.3199 387.027H73.1548C73.1548 392.671 70.8523 397.96 67.2124 401.803C63.209 406.006 57.5079 408.649 51.3199 408.649C45.62 408.649 40.4025 406.369 36.398 402.764L51.3199 387.027Z" fill="#AFB9C5"/>
<path fill-rule="evenodd" clip-rule="evenodd" d="M73.5137 387.027C73.5137 375.137 63.7818 365.405 51.892 365.405V387.027H73.5137ZM41.0812 365.405L49.7299 384.865L30.2704 376.216C32.1948 371.172 36.5158 367.33 41.0812 365.405Z" fill="#C5CFD6"/>
<path fill-rule="evenodd" clip-rule="evenodd" d="M733.802 396.95C731.724 399.156 728.782 400.541 725.508 400.541C719.219 400.541 714.121 395.458 714.121 389.189C714.121 382.92 719.219 377.838 725.508 377.838V356.757C707.617 356.757 692.973 371.355 692.973 389.189C692.973 407.024 707.617 421.622 725.508 421.622C734.906 421.622 743.4 417.658 749.189 411.353L733.802 396.95Z" fill="#F2F2F2"/>
<path fill-rule="evenodd" clip-rule="evenodd" d="M725.405 356.757V377.838C731.674 377.838 736.757 382.92 736.757 389.189H757.838C757.838 371.355 743.24 356.757 725.405 356.757Z" fill="#AFB9C5"/>
<path fill-rule="evenodd" clip-rule="evenodd" d="M736.321 389.189C736.321 392.872 734.587 396.146 731.892 398.26L745.148 415.135C752.864 409.094 757.838 399.729 757.838 389.189H736.321Z" fill="#C5CFD6"/>
<path fill-rule="evenodd" clip-rule="evenodd" d="M527.623 98.9231C526.025 100.614 523.761 101.676 521.244 101.676C516.406 101.676 512.484 97.7794 512.484 92.973C512.484 88.1666 516.406 84.2703 521.244 84.2703V68.1081C507.481 68.1081 496.216 79.2998 496.216 92.973C496.216 106.646 507.481 117.838 521.244 117.838C528.473 117.838 535.006 114.799 539.46 109.966L527.623 98.9231Z" fill="#F2F2F2"/>
<path fill-rule="evenodd" clip-rule="evenodd" d="M521.081 68.1081V84.2703C525.887 84.2703 529.784 88.1666 529.784 92.973H545.946C545.946 79.2998 534.754 68.1081 521.081 68.1081Z" fill="#AFB9C5"/>
<path fill-rule="evenodd" clip-rule="evenodd" d="M529.809 92.973C529.809 95.7354 528.508 98.1909 526.487 99.7763L536.429 112.432C542.216 107.901 545.946 100.878 545.946 92.973H529.809Z" fill="#C5CFD6"/>
<path fill-rule="evenodd" clip-rule="evenodd" d="M134.061 117.823C134.057 117.834 134.053 117.844 134.046 117.857C134.053 117.846 134.061 117.804 134.061 117.823Z" fill="#C5CFD6"/>
<path fill-rule="evenodd" clip-rule="evenodd" d="M134.051 117.839C134.051 117.841 134.049 117.845 134.049 117.85C134.049 117.839 134.068 117.808 134.051 117.839Z" fill="#C5CFD6"/>
<path fill-rule="evenodd" clip-rule="evenodd" d="M134.127 117.657C134.111 117.7 134.092 117.741 134.075 117.784C134.083 117.762 134.092 117.745 134.101 117.724C133.876 118.286 134.019 117.92 134.127 117.657Z" fill="#C5CFD6"/>
<path fill-rule="evenodd" clip-rule="evenodd" d="M134.078 117.787C134.07 117.806 134.061 117.828 134.052 117.847C133.989 117.968 134.078 117.787 134.078 117.787Z" fill="#C5CFD6"/>
<path fill-rule="evenodd" clip-rule="evenodd" d="M134.053 117.84C134.053 117.838 134.053 117.838 134.055 117.836C134.053 117.838 134.053 117.838 134.053 117.84Z" fill="#C5CFD6"/>
<path fill-rule="evenodd" clip-rule="evenodd" d="M134.043 117.855C134.03 117.88 134.102 117.757 134.043 117.855V117.855Z" fill="#C5CFD6"/>
<path fill-rule="evenodd" clip-rule="evenodd" d="M134.052 117.84L134.056 117.836C134.054 117.838 134.054 117.84 134.052 117.84Z" fill="#C5CFD6"/>
<path d="M180.54 61.6216H86.4864C84.0982 61.6216 82.1621 63.5577 82.1621 65.946V125.405C82.1621 127.794 84.0982 129.73 86.4864 129.73H180.54C182.929 129.73 184.865 127.794 184.865 125.405V65.946C184.865 63.5577 182.929 61.6216 180.54 61.6216Z" fill="#DDE3E9"/>
<path fill-rule="evenodd" clip-rule="evenodd" d="M121.081 81.0811L90.8105 129.73H151.351L121.081 81.0811Z" fill="#AFB9C5"/>
<path fill-rule="evenodd" clip-rule="evenodd" d="M150.811 94.054L124.324 129.73H177.297L150.811 94.054Z" fill="#C5CFD6"/>
<path d="M162.162 94.0541C167.536 94.0541 171.892 89.6979 171.892 84.3243C171.892 78.9508 167.536 74.5946 162.162 74.5946C156.789 74.5946 152.433 78.9508 152.433 84.3243C152.433 89.6979 156.789 94.0541 162.162 94.0541Z" fill="white"/>
<path fill-rule="evenodd" clip-rule="evenodd" d="M649.722 579.444C649.727 579.455 649.731 579.466 649.737 579.478C649.731 579.468 649.722 579.425 649.722 579.444Z" fill="#C5CFD6"/>
<path fill-rule="evenodd" clip-rule="evenodd" d="M649.732 579.461C649.732 579.463 649.734 579.467 649.734 579.471C649.734 579.461 649.715 579.429 649.732 579.461Z" fill="#C5CFD6"/>
<path fill-rule="evenodd" clip-rule="evenodd" d="M649.657 579.278C649.672 579.321 649.692 579.362 649.709 579.406C649.7 579.384 649.692 579.367 649.683 579.345C649.908 579.907 649.765 579.542 649.657 579.278Z" fill="#C5CFD6"/>
<path fill-rule="evenodd" clip-rule="evenodd" d="M649.706 579.408C649.714 579.428 649.723 579.449 649.731 579.469C649.794 579.59 649.706 579.408 649.706 579.408Z" fill="#C5CFD6"/>
<path fill-rule="evenodd" clip-rule="evenodd" d="M649.73 579.461C649.73 579.459 649.73 579.459 649.728 579.457C649.73 579.459 649.73 579.459 649.73 579.461Z" fill="#C5CFD6"/>
<path fill-rule="evenodd" clip-rule="evenodd" d="M649.741 579.476C649.754 579.502 649.682 579.379 649.741 579.476V579.476Z" fill="#C5CFD6"/>
<path fill-rule="evenodd" clip-rule="evenodd" d="M649.732 579.461L649.728 579.457C649.73 579.459 649.73 579.461 649.732 579.461Z" fill="#C5CFD6"/>
<path d="M577.297 496.216H722.162C724.55 496.216 726.486 498.152 726.486 500.541V593.513C726.486 595.902 724.55 597.838 722.162 597.838H577.297C574.909 597.838 572.973 595.902 572.973 593.513V500.541C572.973 498.152 574.909 496.216 577.297 496.216Z" fill="#DDE3E9"/>
<path fill-rule="evenodd" clip-rule="evenodd" d="M669.485 525.405L713.869 597.838H625.102L669.485 525.405Z" fill="#AFB9C5"/>
<path fill-rule="evenodd" clip-rule="evenodd" d="M623.723 544.807L662.961 597.838H584.485L623.723 544.807Z" fill="#C5CFD6"/>
<path d="M607.027 544.865C598.967 544.865 592.432 538.331 592.432 530.27C592.432 522.21 598.967 515.676 607.027 515.676C615.087 515.676 621.622 522.21 621.622 530.27C621.622 538.331 615.087 544.865 607.027 544.865Z" fill="white"/>
<path fill-rule="evenodd" clip-rule="evenodd" d="M700.257 417.827C705.238 411.98 708.61 404.814 708.047 396.784C706.423 373.649 674.218 378.738 667.953 390.415C661.688 402.092 662.433 431.711 670.529 433.798C673.758 434.631 680.637 432.592 687.637 428.372L683.243 459.459H709.189L700.257 417.827Z" fill="#B28B67"/>
<path fill-rule="evenodd" clip-rule="evenodd" d="M656.458 374.228C656.996 372.339 658.441 370.722 660.388 370.242C660.861 370.126 661.348 370.079 661.834 370.098C662.009 370.105 662.058 370.156 662.139 370.034C662.2 369.943 662.201 369.723 662.226 369.616C662.303 369.286 662.4 368.96 662.519 368.642C662.927 367.559 663.612 366.6 664.437 365.792C665.981 364.28 668.068 363.237 670.236 363.049C671.422 362.945 672.6 363.138 673.721 363.524C674.302 363.724 674.865 363.973 675.413 364.248C675.579 364.33 676.114 364.736 676.28 364.71C676.463 364.681 676.831 364.226 676.98 364.112C678.819 362.7 681.09 362.146 683.381 362.163C685.967 362.182 688.457 362.311 690.614 363.887C691.071 364.221 691.505 364.586 691.919 364.971C692.137 365.174 692.349 365.384 692.55 365.603C692.672 365.735 692.79 365.87 692.904 366.009C693.097 366.244 693.066 366.321 693.337 366.157C694.375 365.526 695.577 365.231 696.789 365.38C697.508 365.469 698.208 365.685 698.873 365.969C699.099 366.066 699.623 366.452 699.864 366.456C700.103 366.459 700.619 366.101 700.866 366.01C702.197 365.519 703.632 365.398 705.031 365.625C706.474 365.859 707.892 366.435 709.114 367.231C709.702 367.614 710.216 368.038 710.628 368.607C710.806 368.852 710.966 369.112 711.168 369.34C711.286 369.474 711.52 369.61 711.583 369.779C711.546 369.678 713.162 369.055 713.314 369.015C714.127 368.803 714.954 368.846 715.75 369.108C717.246 369.6 718.533 370.704 719.59 371.836C720.133 372.418 720.608 373.061 721.012 373.745C721.205 374.073 721.382 374.411 721.544 374.755C721.622 374.922 721.674 375.131 721.777 375.281C721.911 375.475 722 375.479 722.241 375.563C723.466 375.992 724.582 376.718 725.432 377.7C726.292 378.692 726.849 379.914 727.083 381.202C727.097 381.278 727.105 381.592 727.15 381.633C727.21 381.689 727.457 381.664 727.55 381.675C727.872 381.713 728.193 381.769 728.509 381.844C729.091 381.982 729.658 382.185 730.195 382.45C732.285 383.485 733.781 385.424 734.512 387.607C735.28 389.897 735.267 392.521 734.349 394.768C734.201 395.131 734.024 395.483 733.817 395.817C733.69 396.021 733.649 396.022 733.731 396.237C733.824 396.475 733.992 396.708 734.101 396.941C734.458 397.702 734.707 398.51 734.865 399.335C735.123 400.688 735.251 402.111 734.996 403.474C734.878 404.107 734.672 404.726 734.357 405.29C734.197 405.578 734.009 405.85 733.797 406.103C733.687 406.234 733.57 406.359 733.448 406.479C733.378 406.547 733.286 406.607 733.227 406.683C733.082 406.87 733.051 406.717 733.126 406.99C733.231 407.373 733.468 407.751 733.613 408.123C733.763 408.507 733.898 408.896 734.022 409.289C734.272 410.085 734.484 410.895 734.617 411.718C734.871 413.3 734.826 414.986 734.078 416.438C733.758 417.059 733.299 417.603 732.743 418.027C732.47 418.235 732.175 418.413 731.865 418.56C731.706 418.635 731.503 418.668 731.431 418.822C731.352 418.987 731.468 419.316 731.495 419.501C731.725 421.11 731.84 422.799 731.362 424.375C730.922 425.828 729.952 427.11 728.692 427.959C726.25 429.606 722.957 429.513 720.39 428.194C719.721 427.851 719.095 427.424 718.537 426.921C717.115 428.835 714.189 428.774 712.111 428.229C709.522 427.549 707.444 425.749 706.247 423.384C704.611 425.376 701.176 424.73 700.041 422.568C699.763 422.039 699.598 421.456 699.517 420.866C699.475 420.556 699.502 420.243 699.47 419.935C699.429 419.543 699.167 419.162 699.016 418.783C698.723 418.044 698.541 417.282 698.533 416.485C698.529 416.069 698.582 415.664 698.621 415.252C698.657 414.88 698.554 414.534 698.495 414.168C699.159 414.277 699.968 414.098 700.594 413.906C701.208 413.717 701.783 413.219 702.216 412.765C703.222 411.709 703.837 410.326 704.257 408.949C705.18 405.927 704.802 402.302 701.762 400.643C700.346 399.871 696.104 399.873 694.418 400.255C692.644 400.656 690.634 404.569 690.535 404.937C690.474 405.164 690.505 405.446 690.296 405.598C689.836 405.931 689.078 405.353 688.739 405.067C688.154 404.574 687.737 403.918 687.376 403.253C686.589 401.805 685.954 400.252 685.506 398.666C685.16 397.444 684.939 396.183 684.487 394.992C684.038 393.807 683.329 392.747 682.227 392.076C681.028 391.345 679.654 390.96 678.339 390.501C677.034 390.046 675.752 389.49 674.741 388.525C674.519 388.313 674.303 388.087 674.124 387.837C673.983 387.64 673.843 387.262 673.628 387.137C673.293 386.943 672.805 387.449 672.516 387.632C671.088 388.539 669.897 389.804 668.937 391.185C667.982 392.559 667.198 393.881 666.561 395.415C666.088 396.552 665.794 398.009 664.963 398.942C664.592 399.358 661.834 399.61 660.941 399.246C660.048 398.883 659.047 397.939 658.747 397.348C658.441 396.742 658.367 396.077 658.498 395.415C658.576 395.025 658.733 394.66 658.819 394.277C658.892 393.956 658.958 393.652 659.114 393.357C659.411 392.799 659.918 392.397 660.529 392.229C659.893 391.643 659.366 390.941 659.001 390.156C658.622 389.341 658.301 388.35 658.209 387.456C658.135 386.729 658.25 385.976 658.647 385.352C659.065 384.697 659.804 384.269 660.443 383.861C659.467 383.096 658.63 382.167 657.943 381.138C656.606 379.136 655.779 376.614 656.458 374.228Z" fill="#191847"/>
<path fill-rule="evenodd" clip-rule="evenodd" d="M781.621 594.595H657.297C647.744 594.595 640 602.339 640 611.892V711.351C640 720.904 647.744 728.649 657.297 728.649H781.621C791.174 728.649 798.918 720.904 798.918 711.351V611.892C798.918 602.339 791.174 594.595 781.621 594.595ZM764.324 624.865C766.712 624.865 768.648 626.801 768.648 629.189V694.054C768.648 696.442 766.712 698.378 764.324 698.378H674.594C672.206 698.378 670.27 696.442 670.27 694.054V629.189C670.27 626.801 672.206 624.865 674.594 624.865H764.324Z" fill="#C5CFD6"/>
<path fill-rule="evenodd" clip-rule="evenodd" d="M562.692 725.038C576.544 694.38 586.561 667.685 590.582 653.6C597.467 629.484 602.705 608.263 604.028 600.338C607.185 581.44 579.745 580.34 576.118 589.732C570.629 603.947 561.045 650.651 549.53 721.197L562.692 725.038ZM723.363 628.825C710.655 623.802 666.149 608.081 644.684 603.634C638.515 602.356 632.537 601.168 626.916 600.095C610.209 596.906 601.553 627.046 617.644 629.362C657.717 635.129 714.526 641.085 719.388 641.753C726.202 642.69 731.351 631.983 723.363 628.825Z" fill="#B28B67"/>
<path fill-rule="evenodd" clip-rule="evenodd" d="M616.662 591.801L685.405 556.807V549.189H677.229C610.724 566.136 576.74 576.996 575.277 581.771C575.261 581.822 575.246 581.873 575.233 581.925C575.2 581.969 575.167 582.013 575.135 582.058C561.955 600.184 554.061 688.678 551.47 695.304L576.726 699.072C586.387 663.247 617.297 638.29 616.476 595.383C616.697 594.124 616.753 592.93 616.662 591.801Z" fill="#544AF7"/>
<path fill-rule="evenodd" clip-rule="evenodd" d="M679.694 612.584C685.983 611.325 691.776 610.202 696.732 609.332C728.746 603.717 738.082 586.58 732.562 549.189L673.576 549.189C663.941 551.957 613.866 572.957 587.884 584.126C570.689 591.518 576.109 618.167 585.847 625.102C585.9 625.528 586.075 625.817 586.387 625.946C638.771 647.657 680.21 636.265 694.054 639.905L700.457 619.706L679.694 612.584Z" fill="#6C63FF"/>
<path fill-rule="evenodd" clip-rule="evenodd" d="M719.018 625.615C722.45 625.943 724.887 626.459 726.327 627.161C728.08 628.016 730.494 629.555 733.571 631.778C732.579 633.811 723.67 652.079 706.841 686.582C701.438 685.71 699.298 683.648 700.419 680.397C701.54 677.145 702.444 674.431 703.131 672.254L704.199 641.243C704.22 640.646 704.72 640.179 705.317 640.2C705.327 640.2 705.337 640.201 705.348 640.201L710.118 640.501C712.829 638.307 714.617 636.322 715.483 634.546C716.187 633.103 716.576 630.826 716.651 627.715L716.651 627.715C716.679 626.522 717.67 625.577 718.864 625.606C718.916 625.607 718.967 625.61 719.018 625.615Z" fill="#E4E4E4"/>
<path fill-rule="evenodd" clip-rule="evenodd" d="M568.996 719.353C570.206 722.582 570.811 724.998 570.811 726.601C570.811 728.55 570.486 731.395 569.836 735.135C567.575 735.135 547.25 735.135 508.861 735.135C507.277 729.897 508.191 727.069 511.605 726.651C515.019 726.233 517.855 725.856 520.113 725.52L548.454 712.885C548.999 712.642 549.638 712.887 549.881 713.432C549.886 713.442 549.89 713.451 549.893 713.461L551.715 717.88C554.876 719.354 557.444 720.091 559.42 720.091C561.025 720.091 563.242 719.443 566.071 718.146L566.071 718.146C567.156 717.649 568.439 718.125 568.937 719.211C568.959 719.258 568.978 719.305 568.996 719.353Z" fill="#E4E4E4"/>
<path fill-rule="evenodd" clip-rule="evenodd" d="M622.654 532.024L592.03 561.9C583.119 565.701 575.818 569.898 570.127 574.491C568.847 576.035 567.453 578.993 573.475 577.669C579.497 576.345 585.891 575.224 587.023 577.182C588.154 579.141 584.819 582.141 586.911 584.704C588.306 586.413 592.995 580.978 600.98 568.4L632.826 549.624L622.654 532.024ZM758.586 536.238L735.994 536.327C749.943 581.358 757.474 605.251 758.586 608.006C761.087 614.206 755.794 623.647 753.53 628.721C760.903 632.02 760.117 619.802 769.418 624.129C777.908 628.079 784.366 635.235 794.174 629.183C795.38 628.439 796.701 625.637 793.508 623.448C785.554 617.994 774.091 608.448 772.543 605.306C770.431 601.021 765.778 577.999 758.586 536.238Z" fill="#B28B67"/>
<path fill-rule="evenodd" clip-rule="evenodd" d="M694.384 441.44L685.035 439.837C668.941 480.042 640.841 516.574 600.737 549.432L631.042 586.25C671.141 539.464 695.859 491.194 694.384 441.44Z" fill="#191847"/>
<path fill-rule="evenodd" clip-rule="evenodd" d="M735.135 558.919H651.892C671.177 512.027 680.82 472.193 680.82 439.417L705.93 435.676C725.665 467.414 731.238 506.491 735.135 558.919Z" fill="#DDE3E9"/>
<path fill-rule="evenodd" clip-rule="evenodd" d="M706.462 435.693C706.459 435.687 706.455 435.682 706.452 435.676H704.813C702.852 435.743 699.864 435.865 695.851 436.041L689.783 453.38C689.141 474.522 685.393 517.127 678.539 581.196H733.107C732.964 585.621 732.728 590.087 732.399 594.595H772.973C766.904 526.123 744.74 473.15 706.482 435.676L706.462 435.693V435.693Z" fill="#2F3676"/>
<path fill-rule="evenodd" clip-rule="evenodd" d="M729.502 524.576C727.949 552.16 724.061 571.175 717.838 581.622H733.093C733.76 561.776 732.564 542.761 729.502 524.576V524.576Z" fill="black" fill-opacity="0.1"/>
<path fill-rule="evenodd" clip-rule="evenodd" d="M720.961 548.108L694.054 535.599V548.108H720.961Z" fill="white" fill-opacity="0.2"/>
<path fill-rule="evenodd" clip-rule="evenodd" d="M143.047 476.757L223.379 611.056L283.604 724.595H296.576L195.668 476.757L143.047 476.757Z" fill="#997659"/>
<path fill-rule="evenodd" clip-rule="evenodd" d="M275.672 719.353C274.463 722.582 273.858 724.998 273.858 726.601C273.858 728.55 274.183 731.395 274.832 735.135C277.094 735.135 297.419 735.135 335.807 735.135C337.392 729.897 336.477 727.069 333.063 726.651C329.649 726.233 326.813 725.856 324.555 725.52L296.215 712.885C295.669 712.642 295.03 712.887 294.787 713.433C294.783 713.442 294.779 713.451 294.775 713.461L292.953 717.88C289.793 719.354 287.225 720.092 285.249 720.092C283.644 720.092 281.427 719.443 278.598 718.146L278.598 718.146C277.512 717.649 276.229 718.125 275.731 719.211C275.71 719.258 275.69 719.305 275.672 719.353Z" fill="#E4E4E4"/>
<path fill-rule="evenodd" clip-rule="evenodd" d="M266.878 706.414L291.894 698.846C280.934 666.081 267.5 630.024 251.594 590.675C235.687 551.326 218.604 513.353 200.345 476.757H129.689C149.99 523.05 171.512 565.113 194.254 602.946C216.996 640.779 241.204 675.269 266.878 706.414Z" fill="#4E507B"/>
<path fill-rule="evenodd" clip-rule="evenodd" d="M137.768 476.757C130.186 523.95 115.563 584.246 114.183 586.107C113.263 587.347 80.1422 598.446 14.8203 619.402L17.6224 630.841C95.5186 619.602 136.563 610.882 140.756 604.682C147.046 595.381 178.451 521.906 190.615 476.757H137.768Z" fill="#B28B67"/>
<path fill-rule="evenodd" clip-rule="evenodd" d="M37.7817 609.514L42.7173 627.937C100.979 633.047 136.677 629.355 149.812 616.861C162.947 604.366 177.917 557.665 194.722 476.757H127.348C116.701 543.01 110.748 577.527 109.491 580.308C108.233 583.089 84.3299 592.824 37.7817 609.514Z" fill="#575988"/>
<path fill-rule="evenodd" clip-rule="evenodd" d="M18.0191 614.637C14.6295 614.006 12.1455 613.83 10.5669 614.108C8.64703 614.447 5.90184 615.261 2.33135 616.55C2.72406 618.777 6.25346 638.793 12.9195 676.598C18.3535 677.249 20.9797 675.857 20.7982 672.423C20.6168 668.988 20.4957 666.13 20.4351 663.848L27.9562 633.744C28.1009 633.165 27.7487 632.578 27.1694 632.433C27.1595 632.43 27.1495 632.428 27.1396 632.426L22.4713 631.399C20.4704 628.543 19.2984 626.142 18.9553 624.196C18.6765 622.615 18.93 620.319 19.7158 617.308L19.7159 617.308C20.0174 616.153 19.3252 614.972 18.1698 614.67C18.12 614.657 18.0697 614.646 18.0191 614.637Z" fill="#E4E4E4"/>
<path fill-rule="evenodd" clip-rule="evenodd" d="M160.748 336.725C155.767 330.877 152.395 323.711 152.958 315.682C154.582 292.546 186.787 297.636 193.052 309.312C199.317 320.989 198.572 350.609 190.476 352.696C187.247 353.528 180.368 351.489 173.368 347.27L177.762 378.357H151.816L160.748 336.725Z" fill="#B28B67"/>
<path fill-rule="evenodd" clip-rule="evenodd" d="M174.665 318.237C175.658 332.072 178.285 338.989 182.547 338.989C188.939 338.989 194.362 334.931 197.167 334.931C199.211 334.931 198.755 337.49 197.4 339.387C196.282 340.952 190.836 342.46 190.836 344.887C190.836 347.313 195.139 345.436 195.139 346.875C195.139 349.255 195.895 353.731 191.763 353.731C187.582 353.731 175.594 352.207 173.54 346.002C172.214 341.997 171.357 333.698 170.968 321.105C170.714 321.075 170.456 321.06 170.194 321.06C166.612 321.06 163.708 323.964 163.708 327.546C163.708 329.365 164.456 331.008 165.662 332.186C164.161 334.305 162.479 336.518 160.551 338.801C153.31 334.457 147.937 321.74 155.016 309.523C156.973 303.538 161.403 300.341 166.635 298.857C170.873 297.084 175.272 296.884 178.986 297.947C186.266 298.571 192.766 300.791 194.609 302.109C194.609 309.001 193.273 311.046 181.867 310.866C179.064 312.346 176.909 314.895 174.665 318.237Z" fill="#191847"/>
<path fill-rule="evenodd" clip-rule="evenodd" d="M232.601 427.363L275.285 421.541C283.824 416.791 291.679 413.576 298.85 411.895C300.869 411.836 304.079 412.57 299.296 416.557C294.514 420.544 289.661 424.955 290.513 427.083C291.365 429.211 295.813 428.419 296.55 431.692C297.041 433.874 289.822 434.228 274.894 432.755L240.259 446.487L232.601 427.363ZM98.5144 437.243L122.187 437.332C96.2293 495.747 82.6944 526.332 81.5826 529.087C79.0811 535.287 84.3747 544.728 86.6385 549.802C79.2655 553.102 80.0511 540.883 70.7502 545.21C62.2608 549.16 55.8029 556.316 45.9947 550.264C44.7888 549.52 43.4673 546.719 46.6601 544.529C54.6144 539.075 66.0771 529.529 67.6259 526.387C69.7379 522.103 80.0341 492.388 98.5144 437.243Z" fill="#997659"/>
<path fill-rule="evenodd" clip-rule="evenodd" d="M163.357 362.162L181.892 363.397C186.457 404.695 211.321 430.781 266.991 421.95L274.387 475.134C222.355 481.858 176.723 461.027 167.371 404.625C164.95 390.025 163.039 374.83 163.357 362.162Z" fill="#AFB9C5"/>
<path fill-rule="evenodd" clip-rule="evenodd" d="M154.213 356.774L182.296 363.206C182.296 411.508 197.682 442.325 205.574 477.838H129.729C128.661 490.109 128.005 502.722 127.663 515.676H70.873C83.7419 447.204 110.904 394.231 152.359 356.757H154.198L154.213 356.774Z" fill="#C5CFD6"/>
<path fill-rule="evenodd" clip-rule="evenodd" d="M141.696 408.929C139.741 439.028 140.891 461.997 145.144 477.838H129.729C131.846 453.529 135.581 430.559 141.696 408.929V408.929Z" fill="black" fill-opacity="0.1"/>
<path fill-rule="evenodd" clip-rule="evenodd" d="M341.973 427.012C341.969 427.023 341.965 427.033 341.958 427.046C341.965 427.035 341.973 426.993 341.973 427.012Z" fill="#C5CFD6"/>
<path fill-rule="evenodd" clip-rule="evenodd" d="M341.964 427.028C341.964 427.03 341.961 427.035 341.961 427.039C341.961 427.028 341.98 426.997 341.964 427.028Z" fill="#C5CFD6"/>
<path fill-rule="evenodd" clip-rule="evenodd" d="M342.039 426.846C342.024 426.889 342.004 426.93 341.987 426.973C341.996 426.952 342.004 426.934 342.013 426.913C341.788 427.475 341.931 427.11 342.039 426.846Z" fill="#C5CFD6"/>
<path fill-rule="evenodd" clip-rule="evenodd" d="M341.99 426.976C341.982 426.995 341.973 427.017 341.964 427.037C341.902 427.158 341.99 426.976 341.99 426.976Z" fill="#C5CFD6"/>
<path fill-rule="evenodd" clip-rule="evenodd" d="M341.965 427.029C341.965 427.027 341.965 427.027 341.967 427.025C341.965 427.027 341.965 427.027 341.965 427.029Z" fill="#C5CFD6"/>
<path fill-rule="evenodd" clip-rule="evenodd" d="M341.955 427.044C341.942 427.07 342.014 426.946 341.955 427.044V427.044Z" fill="#C5CFD6"/>
<path fill-rule="evenodd" clip-rule="evenodd" d="M341.964 427.029L341.968 427.025C341.966 427.027 341.966 427.029 341.964 427.029Z" fill="#C5CFD6"/>
<path d="M388.453 370.811H294.399C292.01 370.811 290.074 372.747 290.074 375.135V434.595C290.074 436.983 292.01 438.919 294.399 438.919H388.453C390.841 438.919 392.777 436.983 392.777 434.595V375.135C392.777 372.747 390.841 370.811 388.453 370.811Z" fill="#4AC6D2"/>
<path fill-rule="evenodd" clip-rule="evenodd" d="M328.993 390.27L298.723 438.919H359.263L328.993 390.27Z" fill="#269EAA"/>
<path fill-rule="evenodd" clip-rule="evenodd" d="M358.723 403.243L332.236 438.919H385.209L358.723 403.243Z" fill="#89E7F0"/>
<path d="M370.074 403.243C375.448 403.243 379.804 398.887 379.804 393.514C379.804 388.14 375.448 383.784 370.074 383.784C364.701 383.784 360.345 388.14 360.345 393.514C360.345 398.887 364.701 403.243 370.074 403.243Z" fill="white"/>
</g>
<defs>
<clipPath id="clip0">
<rect width="800" height="735.135" fill="white"/>
</clipPath>
</defs>
</svg>
