<svg width="80" height="81" viewBox="0 0 80 81" fill="none" xmlns="http://www.w3.org/2000/svg">
<g clip-path="url(#clip0)">
<path d="M78.8154 39.3281C78.1678 39.3281 77.6436 39.8524 77.6436 40.5C77.6436 50.5586 73.7275 60.0148 66.6163 67.1272C59.5051 74.2396 50.0502 78.1562 39.994 78.1562C30.5513 78.1562 21.5205 74.6449 14.5643 68.2692C14.087 67.8322 13.3461 67.8645 12.9085 68.3418C12.4714 68.8185 12.5038 69.5601 12.9805 69.9971C20.37 76.7701 29.9635 80.5 39.994 80.5C50.6764 80.5 60.7197 76.3392 68.2734 68.7843C75.8271 61.2294 79.9873 51.1842 79.9873 40.5C79.9873 39.8524 79.463 39.3281 78.8154 39.3281Z" fill="black"/>
<path d="M2.34375 40.5C2.34375 30.4414 6.25977 20.9852 13.371 13.8728C20.4822 6.76038 29.9371 2.84375 39.9939 2.84375C49.1357 2.84375 57.951 6.16101 64.8145 12.1852C71.6156 18.1538 76.0437 26.3502 77.2827 35.2656C77.3718 35.9065 77.9657 36.3539 78.6047 36.2648C79.2462 36.1757 79.6936 35.5836 79.6045 34.9427C78.2874 25.4707 73.584 16.7628 66.3605 10.4231C59.0692 4.02417 49.7052 0.5 39.9939 0.5C29.3109 0.5 19.2676 4.66077 11.7139 12.2157C4.16016 19.7706 0 29.8158 0 40.5C0 49.7719 3.24463 58.8093 9.13574 65.9474C9.36707 66.2281 9.70215 66.3734 10.0403 66.3734C10.3027 66.3734 10.567 66.2855 10.7855 66.1049C11.2848 65.6929 11.355 64.955 10.943 64.4551C5.39795 57.7363 2.34375 49.2286 2.34375 40.5Z" fill="black"/>
<path d="M38.7776 57.3002C37.1243 57.3002 35.6043 56.9802 34.2176 56.3402C32.8576 55.7002 31.7776 54.8335 30.9776 53.7402C30.1776 52.6469 29.7776 51.4202 29.7776 50.0602C29.7776 48.9669 30.0843 48.1135 30.6976 47.5002C31.311 46.8602 32.0443 46.5402 32.8976 46.5402C33.6976 46.5402 34.391 46.7935 34.9776 47.3002C35.5643 47.8069 35.8576 48.5402 35.8576 49.5002C34.4443 50.1935 33.7376 51.2602 33.7376 52.7002C33.7376 53.7935 34.191 54.6869 35.0976 55.3802C36.031 56.0469 37.2576 56.3802 38.7776 56.3802C40.6976 56.3802 42.2576 55.6602 43.4576 54.2202C44.6576 52.7802 45.2576 50.7669 45.2576 48.1802C45.2576 45.3802 44.4577 43.2202 42.8576 41.7002C41.2576 40.1535 38.8976 39.2869 35.7776 39.1002V38.2202C38.5776 38.0602 40.751 37.3135 42.2976 35.9802C43.871 34.6202 44.6576 32.7935 44.6576 30.5002C44.6576 28.7135 44.1643 27.2869 43.1776 26.2202C42.2176 25.1535 40.9243 24.6202 39.2976 24.6202C37.831 24.6202 36.671 24.8735 35.8176 25.3802C34.991 25.8602 34.5776 26.5402 34.5776 27.4202C34.5776 28.8335 35.2443 29.8469 36.5776 30.4602C36.5776 31.3669 36.2976 32.0735 35.7376 32.5802C35.2043 33.0602 34.551 33.3002 33.7776 33.3002C32.9776 33.3002 32.2843 32.9935 31.6976 32.3802C31.111 31.7669 30.8176 30.9535 30.8176 29.9402C30.8176 28.7402 31.231 27.6735 32.0576 26.7402C32.8843 25.7802 33.9776 25.0335 35.3376 24.5002C36.7243 23.9669 38.191 23.7002 39.7376 23.7002C42.7776 23.7002 45.151 24.3135 46.8576 25.5402C48.5643 26.7669 49.4177 28.4869 49.4177 30.7002C49.4177 33.0202 48.5777 34.8202 46.8976 36.1002C45.2443 37.3535 42.831 38.1935 39.6576 38.6202V38.7402C42.991 38.9002 45.671 39.7935 47.6976 41.4202C49.751 43.0202 50.7777 45.2735 50.7777 48.1802C50.7777 49.8069 50.3243 51.3135 49.4177 52.7002C48.5376 54.0869 47.191 55.2069 45.3776 56.0602C43.591 56.8869 41.391 57.3002 38.7776 57.3002Z" fill="#C9B872"/>
</g>
<defs>
<clipPath id="clip0">
<rect width="80" height="80" fill="white" transform="translate(0 0.5)"/>
</clipPath>
</defs>
</svg>
