<svg width="80" height="81" viewBox="0 0 80 81" fill="none" xmlns="http://www.w3.org/2000/svg">
<g clip-path="url(#clip0)">
<path d="M78.8154 39.3281C78.1678 39.3281 77.6436 39.8524 77.6436 40.5C77.6436 50.5586 73.7275 60.0148 66.6163 67.1272C59.5051 74.2396 50.0502 78.1562 39.994 78.1562C30.5513 78.1562 21.5205 74.6449 14.5643 68.2692C14.087 67.8322 13.3461 67.8645 12.9085 68.3418C12.4714 68.8185 12.5038 69.5601 12.9805 69.9971C20.37 76.7701 29.9635 80.5 39.994 80.5C50.6764 80.5 60.7197 76.3392 68.2734 68.7843C75.8271 61.2294 79.9873 51.1842 79.9873 40.5C79.9873 39.8524 79.463 39.3281 78.8154 39.3281Z" fill="black"/>
<path d="M2.34375 40.5C2.34375 30.4414 6.25977 20.9852 13.371 13.8728C20.4822 6.76038 29.9371 2.84375 39.9939 2.84375C49.1357 2.84375 57.951 6.16101 64.8145 12.1852C71.6156 18.1538 76.0437 26.3502 77.2827 35.2656C77.3718 35.9065 77.9657 36.3539 78.6047 36.2648C79.2462 36.1757 79.6936 35.5836 79.6045 34.9427C78.2874 25.4707 73.584 16.7628 66.3605 10.4231C59.0692 4.02417 49.7052 0.5 39.9939 0.5C29.3109 0.5 19.2676 4.66077 11.7139 12.2157C4.16016 19.7706 0 29.8158 0 40.5C0 49.7719 3.24463 58.8093 9.13574 65.9474C9.36707 66.2281 9.70215 66.3734 10.0403 66.3734C10.3027 66.3734 10.567 66.2855 10.7855 66.1049C11.2848 65.6929 11.355 64.955 10.943 64.4551C5.39795 57.7363 2.34375 49.2286 2.34375 40.5Z" fill="black"/>
<path d="M37.1008 56.5V55.66L40.7808 55.06V48.82H27.3008V47.98L44.2608 24.5H45.1808V46.94H48.8608V48.82H45.1808V55.06L48.8608 55.66V56.5H37.1008ZM29.2608 46.94H40.7808V30.98L29.2608 46.94Z" fill="#C9B872"/>
</g>
<defs>
<clipPath id="clip0">
<rect width="80" height="80" fill="white" transform="translate(0 0.5)"/>
</clipPath>
</defs>
</svg>
