<svg width="80" height="81" viewBox="0 0 80 81" fill="none" xmlns="http://www.w3.org/2000/svg">
<g clip-path="url(#clip0)">
<path d="M78.8154 39.3281C78.1678 39.3281 77.6436 39.8524 77.6436 40.5C77.6436 50.5586 73.7275 60.0148 66.6163 67.1272C59.5051 74.2396 50.0502 78.1562 39.994 78.1562C30.5513 78.1562 21.5205 74.6449 14.5643 68.2692C14.087 67.8322 13.3461 67.8645 12.9085 68.3418C12.4714 68.8185 12.5038 69.5601 12.9805 69.9971C20.37 76.7701 29.9635 80.5 39.994 80.5C50.6764 80.5 60.7197 76.3392 68.2734 68.7843C75.8271 61.2294 79.9873 51.1842 79.9873 40.5C79.9873 39.8524 79.463 39.3281 78.8154 39.3281Z" fill="black"/>
<path d="M2.34375 40.5C2.34375 30.4414 6.25977 20.9852 13.371 13.8728C20.4822 6.76038 29.9371 2.84375 39.9939 2.84375C49.1357 2.84375 57.951 6.16101 64.8145 12.1852C71.6156 18.1538 76.0437 26.3502 77.2827 35.2656C77.3718 35.9065 77.9657 36.3539 78.6047 36.2648C79.2462 36.1757 79.6936 35.5836 79.6045 34.9427C78.2874 25.4707 73.584 16.7628 66.3605 10.4231C59.0692 4.02417 49.7052 0.5 39.9939 0.5C29.3109 0.5 19.2676 4.66077 11.7139 12.2157C4.16016 19.7706 0 29.8158 0 40.5C0 49.7719 3.24463 58.8093 9.13574 65.9474C9.36707 66.2281 9.70215 66.3734 10.0403 66.3734C10.3027 66.3734 10.567 66.2855 10.7855 66.1049C11.2848 65.6929 11.355 64.955 10.943 64.4551C5.39795 57.7363 2.34375 49.2286 2.34375 40.5Z" fill="black"/>
<path d="M29.7544 53.4202L38.1944 44.8202C40.4077 42.5269 42.0877 40.3002 43.2344 38.1402C44.4077 35.9535 44.9944 33.7002 44.9944 31.3802C44.9944 29.0335 44.4877 27.3269 43.4744 26.2602C42.4877 25.1669 41.1411 24.6202 39.4344 24.6202C38.1011 24.6202 36.9411 24.9802 35.9544 25.7002C34.9677 26.4202 34.4744 27.3669 34.4744 28.5402C34.4744 29.9535 35.1811 31.0069 36.5944 31.7002C36.5944 32.6602 36.3011 33.3935 35.7144 33.9002C35.1277 34.4069 34.4344 34.6602 33.6344 34.6602C32.7811 34.6602 32.0477 34.3535 31.4344 33.7402C30.8211 33.1002 30.5144 32.2335 30.5144 31.1402C30.5144 29.7002 30.9544 28.4202 31.8344 27.3002C32.7144 26.1535 33.8877 25.2735 35.3544 24.6602C36.8211 24.0202 38.3944 23.7002 40.0744 23.7002C43.3277 23.7002 45.7411 24.4735 47.3144 26.0202C48.8877 27.5402 49.6744 29.5535 49.6744 32.0602C49.6744 33.5802 49.3544 34.9802 48.7144 36.2602C48.1011 37.5135 47.3544 38.6069 46.4744 39.5402C45.6211 40.4735 44.4477 41.5935 42.9544 42.9002L41.8344 43.8602L32.2744 52.3002H47.1944L48.8344 46.3802H49.8744V56.5002H29.7544V53.4202Z" fill="#C9B872"/>
</g>
<defs>
<clipPath id="clip0">
<rect width="80" height="80" fill="white" transform="translate(0 0.5)"/>
</clipPath>
</defs>
</svg>
