<svg width="80" height="80" viewBox="0 0 80 80" fill="none" xmlns="http://www.w3.org/2000/svg">
<path d="M78.8154 38.8281C78.1678 38.8281 77.6436 39.3524 77.6436 40C77.6436 50.0586 73.7275 59.5148 66.6163 66.6272C59.5051 73.7396 50.0502 77.6562 39.994 77.6562C30.5513 77.6562 21.5205 74.1449 14.5643 67.7692C14.087 67.3322 13.3461 67.3645 12.9085 67.8418C12.4714 68.3185 12.5038 69.0601 12.9805 69.4971C20.37 76.2701 29.9635 80 39.994 80C50.6764 80 60.7197 75.8392 68.2734 68.2843C75.8271 60.7294 79.9873 50.6842 79.9873 40C79.9873 39.3524 79.463 38.8281 78.8154 38.8281Z" fill="black"/>
<path d="M2.34375 40C2.34375 29.9414 6.25977 20.4852 13.371 13.3728C20.4822 6.26038 29.9371 2.34375 39.9939 2.34375C49.1357 2.34375 57.951 5.66101 64.8145 11.6852C71.6156 17.6538 76.0437 25.8502 77.2827 34.7656C77.3718 35.4065 77.9657 35.8539 78.6047 35.7648C79.2462 35.6757 79.6936 35.0836 79.6045 34.4427C78.2874 24.9707 73.584 16.2628 66.3605 9.9231C59.0692 3.52417 49.7052 0 39.9939 0C29.3109 0 19.2676 4.16077 11.7139 11.7157C4.16016 19.2706 0 29.3158 0 40C0 49.2719 3.24463 58.3093 9.13574 65.4474C9.36707 65.7281 9.70215 65.8734 10.0403 65.8734C10.3027 65.8734 10.567 65.7855 10.7855 65.6049C11.2848 65.1929 11.355 64.455 10.943 63.9551C5.39795 57.2363 2.34375 48.7286 2.34375 40Z" fill="black"/>
<path d="M29.7544 52.92L38.1944 44.32C40.4077 42.0266 42.0877 39.8 43.2344 37.64C44.4077 35.4533 44.9944 33.2 44.9944 30.88C44.9944 28.5333 44.4877 26.8266 43.4744 25.76C42.4877 24.6666 41.1411 24.12 39.4344 24.12C38.1011 24.12 36.9411 24.48 35.9544 25.2C34.9677 25.92 34.4744 26.8666 34.4744 28.04C34.4744 29.4533 35.1811 30.5066 36.5944 31.2C36.5944 32.16 36.3011 32.8933 35.7144 33.4C35.1277 33.9066 34.4344 34.16 33.6344 34.16C32.7811 34.16 32.0477 33.8533 31.4344 33.24C30.8211 32.6 30.5144 31.7333 30.5144 30.64C30.5144 29.2 30.9544 27.92 31.8344 26.8C32.7144 25.6533 33.8877 24.7733 35.3544 24.16C36.8211 23.52 38.3944 23.2 40.0744 23.2C43.3277 23.2 45.7411 23.9733 47.3144 25.52C48.8877 27.04 49.6744 29.0533 49.6744 31.56C49.6744 33.08 49.3544 34.48 48.7144 35.76C48.1011 37.0133 47.3544 38.1066 46.4744 39.04C45.6211 39.9733 44.4477 41.0933 42.9544 42.4L41.8344 43.36L32.2744 51.8H47.1944L48.8344 45.88H49.8744V56H29.7544V52.92Z" fill="#C44C28"/>
</svg>
