<svg width="80" height="80" viewBox="0 0 80 80" fill="none" xmlns="http://www.w3.org/2000/svg">
<path d="M78.8154 38.8281C78.1678 38.8281 77.6436 39.3524 77.6436 40C77.6436 50.0586 73.7275 59.5148 66.6163 66.6272C59.5051 73.7396 50.0502 77.6562 39.994 77.6562C30.5513 77.6562 21.5205 74.1449 14.5643 67.7692C14.087 67.3322 13.3461 67.3645 12.9085 67.8418C12.4714 68.3185 12.5038 69.0601 12.9805 69.4971C20.37 76.2701 29.9635 80 39.994 80C50.6764 80 60.7197 75.8392 68.2734 68.2843C75.8271 60.7294 79.9873 50.6842 79.9873 40C79.9873 39.3524 79.463 38.8281 78.8154 38.8281Z" fill="black"/>
<path d="M2.34375 40C2.34375 29.9414 6.25977 20.4852 13.371 13.3728C20.4822 6.26038 29.9371 2.34375 39.9939 2.34375C49.1357 2.34375 57.951 5.66101 64.8145 11.6852C71.6156 17.6538 76.0437 25.8502 77.2827 34.7656C77.3718 35.4065 77.9657 35.8539 78.6047 35.7648C79.2462 35.6757 79.6936 35.0836 79.6045 34.4427C78.2874 24.9707 73.584 16.2628 66.3605 9.9231C59.0692 3.52417 49.7052 0 39.9939 0C29.3109 0 19.2676 4.16077 11.7139 11.7157C4.16016 19.2706 0 29.3158 0 40C0 49.2719 3.24463 58.3093 9.13574 65.4474C9.36707 65.7281 9.70215 65.8734 10.0403 65.8734C10.3027 65.8734 10.567 65.7855 10.7855 65.6049C11.2848 65.1929 11.355 64.455 10.943 63.9551C5.39795 57.2363 2.34375 48.7286 2.34375 40Z" fill="black"/>
<path d="M38.7777 56.8C37.1244 56.8 35.6044 56.48 34.2177 55.84C32.8577 55.2 31.7777 54.3333 30.9777 53.24C30.1777 52.1466 29.7777 50.92 29.7777 49.56C29.7777 48.4666 30.0844 47.6133 30.6977 47C31.311 46.36 32.0444 46.04 32.8977 46.04C33.6977 46.04 34.391 46.2933 34.9777 46.8C35.5644 47.3066 35.8577 48.04 35.8577 49C34.4444 49.6933 33.7377 50.76 33.7377 52.2C33.7377 53.2933 34.191 54.1866 35.0977 54.88C36.031 55.5466 37.2577 55.88 38.7777 55.88C40.6977 55.88 42.2577 55.16 43.4577 53.72C44.6577 52.28 45.2577 50.2666 45.2577 47.68C45.2577 44.88 44.4577 42.72 42.8577 41.2C41.2577 39.6533 38.8977 38.7866 35.7777 38.6V37.72C38.5777 37.56 40.751 36.8133 42.2977 35.48C43.871 34.12 44.6577 32.2933 44.6577 30C44.6577 28.2133 44.1644 26.7866 43.1777 25.72C42.2177 24.6533 40.9244 24.12 39.2977 24.12C37.831 24.12 36.671 24.3733 35.8177 24.88C34.991 25.36 34.5777 26.04 34.5777 26.92C34.5777 28.3333 35.2444 29.3466 36.5777 29.96C36.5777 30.8666 36.2977 31.5733 35.7377 32.08C35.2044 32.56 34.551 32.8 33.7777 32.8C32.9777 32.8 32.2844 32.4933 31.6977 31.88C31.111 31.2666 30.8177 30.4533 30.8177 29.44C30.8177 28.24 31.231 27.1733 32.0577 26.24C32.8844 25.28 33.9777 24.5333 35.3377 24C36.7244 23.4666 38.191 23.2 39.7377 23.2C42.7777 23.2 45.151 23.8133 46.8577 25.04C48.5644 26.2666 49.4177 27.9866 49.4177 30.2C49.4177 32.52 48.5777 34.32 46.8977 35.6C45.2444 36.8533 42.831 37.6933 39.6577 38.12V38.24C42.991 38.4 45.671 39.2933 47.6977 40.92C49.751 42.52 50.7777 44.7733 50.7777 47.68C50.7777 49.3066 50.3244 50.8133 49.4177 52.2C48.5377 53.5866 47.191 54.7066 45.3777 55.56C43.591 56.3866 41.391 56.8 38.7777 56.8Z" fill="#C44C28"/>
</svg>
