<svg width="73" height="100" viewBox="0 0 73 100" fill="none" xmlns="http://www.w3.org/2000/svg">
<path opacity="0.2" d="M72.8571 100H1.08237V82.468L25.2328 58.1254C32.1329 50.9328 36.6428 46.0328 38.7624 43.4255C40.8821 40.7732 42.3478 38.503 43.1596 36.615C44.0164 34.7269 44.4449 32.7489 44.4449 30.6811C44.4449 28.1187 43.6106 26.0958 41.9419 24.6123C40.2732 23.1288 37.9281 22.3871 34.9065 22.3871C31.7947 22.3871 28.6377 23.2861 25.4357 25.0843C22.2788 26.8375 18.6935 29.4448 14.6797 32.9063L0 15.7788C5.09617 11.2385 9.38055 8.0018 12.8532 6.06878C16.3258 4.09081 20.0915 2.58485 24.1504 1.55091C28.2544 0.51697 32.8545 0 37.9507 0C44.3547 0 50.0597 1.12385 55.0657 3.37154C60.1167 5.61924 64.0178 8.83345 66.7688 13.0142C69.5649 17.1499 70.963 21.8027 70.963 26.9724C70.963 30.8384 70.4669 34.4122 69.4747 37.6939C68.5276 40.9755 67.0394 44.2122 65.0099 47.4039C62.9805 50.5507 60.2746 53.8773 56.8922 57.3837C53.5548 60.8901 46.4067 67.5433 35.4477 77.3432V78.0175H72.8571V100Z" fill="#E6C292"/>
</svg>
