<svg width="70" height="100" viewBox="0 0 70 100" fill="none" xmlns="http://www.w3.org/2000/svg">
<path opacity="0.2" d="M66.4374 22.4884C66.4374 28.5207 64.6048 33.7104 60.9396 38.0572C57.2744 42.3597 51.9753 45.4868 45.0423 47.4385V47.8377C61.2046 49.878 69.2857 57.5516 69.2857 70.8583C69.2857 79.9069 65.7088 87.026 58.555 92.2156C51.4454 97.4052 41.5538 100 28.8801 100C23.6693 100 18.8339 99.623 14.3738 98.8689C9.95789 98.1149 5.16662 96.7399 0 94.7439V72.9208C4.23928 75.0943 8.5448 76.7132 12.9166 77.7778C17.3325 78.798 21.3951 79.3081 25.1045 79.3081C30.8452 79.3081 35.0182 78.5097 37.6236 76.9128C40.2731 75.2717 41.5979 72.7212 41.5979 69.2615C41.5979 66.6001 40.9135 64.5598 39.5445 63.1404C38.1756 61.6767 35.9676 60.5899 32.9207 59.8802C29.8737 59.1262 25.8993 58.7492 20.9977 58.7492H15.0362V38.9887H21.1302C34.4221 38.9887 41.068 35.5733 41.068 28.7425C41.068 26.1699 40.0744 24.2626 38.0873 23.0206C36.1443 21.7787 33.5168 21.1577 30.2049 21.1577C24.0226 21.1577 17.6195 23.2424 10.9956 27.4118L0.132477 9.84697C5.25494 6.29851 10.4878 3.77024 15.8311 2.26214C21.2185 0.754048 27.3787 0 34.3117 0C44.3358 0 52.1961 1.99601 57.8927 5.98802C63.5892 9.98004 66.4374 15.4802 66.4374 22.4884Z" fill="#E6C292"/>
</svg>
