<svg width="15" height="15" viewBox="0 0 15 15" fill="none" xmlns="http://www.w3.org/2000/svg">
<g clip-path="url(#clip0)">
<path d="M10.3643 7.86457C10.3351 7.9083 10.3351 7.95203 10.3205 8.01034C10.306 8.19985 10.4517 8.37478 10.6412 8.38936C10.8308 8.40393 11.0057 8.25816 11.0203 8.06865C11.0203 8.02492 11.0203 7.98119 11.0348 7.9083C11.0348 7.83541 11.0348 7.79168 11.0348 7.74795C11.0348 7.3252 10.9619 6.91703 10.8308 6.52344C10.6558 6.01323 10.3497 5.56133 9.98526 5.18232C9.53336 4.73042 8.97942 4.40971 8.35259 4.23478C8.06104 4.1619 7.74034 4.11816 7.43422 4.11816C7.33217 4.11816 7.23013 4.11816 7.11351 4.13274C7.01147 4.14732 6.90943 4.1619 6.80739 4.17647C6.61788 4.20563 6.48668 4.39514 6.53042 4.57006C6.55957 4.75957 6.74908 4.89077 6.92401 4.84704C7.01147 4.83246 7.08436 4.81788 7.17182 4.81788C7.1864 4.81788 7.20098 4.81788 7.21555 4.81788C7.28844 4.81788 7.36133 4.8033 7.43422 4.8033C8.23597 4.8033 8.97942 5.12401 9.50421 5.66337C10.029 6.18816 10.3497 6.90246 10.3643 7.70422V7.73337C10.3643 7.79168 10.3643 7.83541 10.3643 7.86457Z" fill="url(#paint0_linear)"/>
<path d="M12.2885 8.18534C12.2739 8.37485 12.4197 8.54978 12.6092 8.56436C12.7987 8.57893 12.9737 8.43316 12.9882 8.24365C13.0028 8.0833 13.0028 7.92295 13.0028 7.7626C13.0028 7.44189 12.9737 7.13577 12.9299 6.82964C12.7404 5.66345 12.1719 4.61387 11.3701 3.81211C10.4518 2.89374 9.22725 2.29606 7.87155 2.19402C7.72577 2.17944 7.56542 2.17944 7.41965 2.17944C7.25929 2.17944 7.09894 2.17944 6.93859 2.19402C6.77824 2.2086 6.61789 2.22318 6.45753 2.25233C6.26803 2.28149 6.13683 2.47099 6.18056 2.64592C6.20972 2.83543 6.39922 2.96662 6.57415 2.92289C6.6762 2.90831 6.76366 2.89374 6.8657 2.87916C6.90944 2.87916 6.95317 2.86458 6.9969 2.86458C7.14267 2.85 7.28845 2.85001 7.41965 2.85001C7.91528 2.85001 8.38176 2.92289 8.83366 3.05409C9.62084 3.28733 10.3206 3.71007 10.8891 4.27859C11.3556 4.74507 11.7346 5.31359 11.9824 5.92584C12.2011 6.47978 12.3322 7.09204 12.3322 7.73344C12.3322 7.77717 12.3322 7.83548 12.3322 7.87922C12.3031 7.99584 12.2885 8.0833 12.2885 8.18534Z" fill="url(#paint1_linear)"/>
<path d="M12.7843 2.41272C11.3995 1.02786 9.5044 0.182373 7.40525 0.182373C7.18658 0.182373 6.96792 0.19695 6.74926 0.211528C6.5306 0.226105 6.31194 0.25526 6.09328 0.298993C5.90377 0.328147 5.77257 0.517654 5.8163 0.692583C5.84546 0.88209 6.03497 1.01329 6.2099 0.969555C6.31194 0.954977 6.3994 0.9404 6.50144 0.925822C6.60349 0.911245 6.70553 0.896667 6.80757 0.896667C7.01165 0.88209 7.20116 0.867513 7.40525 0.867513C9.30031 0.867513 11.0205 1.64012 12.2741 2.8792C13.5132 4.11828 14.2858 5.83842 14.2858 7.74806C14.2858 7.8501 14.2858 7.96672 14.2858 8.06877C14.2858 8.15623 14.2712 8.2437 14.2712 8.34574C14.2566 8.53524 14.4024 8.71017 14.5919 8.72475C14.7814 8.73933 14.9564 8.59355 14.9709 8.40405C14.9855 8.18539 15.0001 7.96672 15.0001 7.76264C15.0001 5.67807 14.1546 3.783 12.7843 2.41272Z" fill="url(#paint2_linear)"/>
<path d="M14.4606 11.2466L11.8804 9.86177C11.0204 9.3953 10.9912 9.70142 10.0874 10.6635C9.86875 10.8968 9.46058 11.509 8.97953 11.3924C7.97368 11.1446 6.0932 9.67227 5.48094 9.00171C5.18939 8.681 3.93573 7.15037 3.92116 6.65474C3.892 5.89671 5.55383 5.5177 5.01446 4.07453L3.86285 1.49433C2.78412 -0.983839 -0.233413 2.98122 0.0144037 4.83256C0.655811 9.3953 8.65882 16.7715 13.1195 14.337C14.1108 13.7831 15.4519 11.8443 14.4606 11.2466Z" fill="url(#paint3_linear)"/>
</g>
<defs>
<linearGradient id="paint0_linear" x1="8.7784" y1="4.11816" x2="8.7784" y2="8.39036" gradientUnits="userSpaceOnUse">
<stop stop-color="#E6C292"/>
<stop offset="1" stop-color="#FEF0CA"/>
</linearGradient>
<linearGradient id="paint1_linear" x1="9.58747" y1="2.17944" x2="9.58747" y2="8.56536" gradientUnits="userSpaceOnUse">
<stop stop-color="#E6C292"/>
<stop offset="1" stop-color="#FEF0CA"/>
</linearGradient>
<linearGradient id="paint2_linear" x1="10.404" y1="0.182373" x2="10.404" y2="8.72576" gradientUnits="userSpaceOnUse">
<stop stop-color="#E6C292"/>
<stop offset="1" stop-color="#FEF0CA"/>
</linearGradient>
<linearGradient id="paint3_linear" x1="7.40435" y1="0.702637" x2="7.40435" y2="14.8177" gradientUnits="userSpaceOnUse">
<stop stop-color="#E6C292"/>
<stop offset="1" stop-color="#FEF0CA"/>
</linearGradient>
<clipPath id="clip0">
<rect width="15" height="15" fill="white"/>
</clipPath>
</defs>
</svg>
