<svg width="15" height="15" viewBox="0 0 15 15" fill="none" xmlns="http://www.w3.org/2000/svg">
<g clip-path="url(#clip0)">
<path d="M10.3648 7.86463C10.3356 7.90836 10.3356 7.95209 10.321 8.0104C10.3065 8.19991 10.4522 8.37484 10.6417 8.38942C10.8312 8.40399 11.0062 8.25822 11.0207 8.06871C11.0207 8.02498 11.0207 7.98125 11.0353 7.90836C11.0353 7.83547 11.0353 7.79174 11.0353 7.74801C11.0353 7.32526 10.9624 6.91709 10.8312 6.5235C10.6563 6.01329 10.3502 5.56139 9.98575 5.18238C9.53385 4.73048 8.97991 4.40977 8.35308 4.23484C8.06153 4.16196 7.74083 4.11823 7.4347 4.11823C7.33266 4.11823 7.23062 4.11823 7.114 4.1328C7.01196 4.14738 6.90992 4.16196 6.80787 4.17653C6.61837 4.20569 6.48717 4.3952 6.5309 4.57013C6.56006 4.75963 6.74956 4.89083 6.92449 4.8471C7.01196 4.83252 7.08485 4.81794 7.17231 4.81794C7.18689 4.81794 7.20146 4.81794 7.21604 4.81794C7.28893 4.81794 7.36182 4.80336 7.4347 4.80336C8.23646 4.80336 8.97991 5.12407 9.5047 5.66343C10.0295 6.18822 10.3502 6.90252 10.3648 7.70428V7.73343C10.3648 7.79174 10.3648 7.83547 10.3648 7.86463Z" fill="url(#paint0_linear)"/>
<path d="M12.2883 8.18534C12.2737 8.37485 12.4195 8.54978 12.609 8.56436C12.7985 8.57893 12.9734 8.43316 12.988 8.24365C13.0026 8.0833 13.0026 7.92295 13.0026 7.7626C13.0026 7.44189 12.9734 7.13577 12.9297 6.82964C12.7402 5.66345 12.1717 4.61387 11.3699 3.81211C10.4515 2.89374 9.22701 2.29606 7.8713 2.19402C7.72553 2.17944 7.56518 2.17944 7.4194 2.17944C7.25905 2.17944 7.0987 2.17944 6.93835 2.19402C6.77799 2.2086 6.61764 2.22318 6.45729 2.25233C6.26778 2.28149 6.13659 2.47099 6.18032 2.64592C6.20947 2.83543 6.39898 2.96662 6.57391 2.92289C6.67595 2.90831 6.76342 2.89374 6.86546 2.87916C6.90919 2.87916 6.95292 2.86458 6.99666 2.86458C7.14243 2.85 7.2882 2.85001 7.4194 2.85001C7.91504 2.85001 8.38151 2.92289 8.83341 3.05409C9.6206 3.28733 10.3203 3.71007 10.8888 4.27859C11.3553 4.74507 11.7343 5.31359 11.9821 5.92584C12.2008 6.47978 12.332 7.09204 12.332 7.73344C12.332 7.77717 12.332 7.83548 12.332 7.87922C12.3028 7.99584 12.2883 8.0833 12.2883 8.18534Z" fill="url(#paint1_linear)"/>
<path d="M12.7841 2.41278C11.3992 1.02793 9.50415 0.182434 7.405 0.182434C7.18634 0.182434 6.96768 0.197012 6.74902 0.211589C6.53036 0.226166 6.31169 0.255321 6.09303 0.299054C5.90353 0.328208 5.77233 0.517715 5.81606 0.692644C5.84522 0.882151 6.03472 1.01335 6.20965 0.969616C6.31169 0.955038 6.39916 0.940461 6.5012 0.925883C6.60324 0.911306 6.70528 0.896728 6.80733 0.896728C7.01141 0.882151 7.20092 0.867574 7.405 0.867574C9.30007 0.867574 11.0202 1.64018 12.2739 2.87926C13.513 4.11834 14.2856 5.83848 14.2856 7.74812C14.2856 7.85017 14.2856 7.96678 14.2856 8.06883C14.2856 8.15629 14.271 8.24376 14.271 8.3458C14.2564 8.53531 14.4022 8.71023 14.5917 8.72481C14.7812 8.73939 14.9561 8.59361 14.9707 8.40411C14.9853 8.18545 14.9999 7.96678 14.9999 7.7627C14.9999 5.67813 14.1544 3.78306 12.7841 2.41278Z" fill="url(#paint2_linear)"/>
<path d="M14.4606 11.2467L11.8804 9.86183C11.0204 9.39536 10.9912 9.70148 10.0874 10.6636C9.86875 10.8968 9.46058 11.5091 8.97953 11.3925C7.97368 11.1446 6.0932 9.67233 5.48094 9.00177C5.18939 8.68106 3.93573 7.15043 3.92116 6.6548C3.892 5.89677 5.55383 5.51776 5.01446 4.07459L3.86285 1.49439C2.78412 -0.983778 -0.233413 2.98128 0.0144037 4.83262C0.655811 9.39536 8.65882 16.7715 13.1195 14.3371C14.1108 13.7832 15.4519 11.8444 14.4606 11.2467Z" fill="url(#paint3_linear)"/>
</g>
<defs>
<linearGradient id="paint0_linear" x1="8.77889" y1="4.11823" x2="8.77889" y2="8.39042" gradientUnits="userSpaceOnUse">
<stop stop-color="#E6C292"/>
<stop offset="1" stop-color="#FEF0CA"/>
</linearGradient>
<linearGradient id="paint1_linear" x1="9.58722" y1="2.17944" x2="9.58722" y2="8.56536" gradientUnits="userSpaceOnUse">
<stop stop-color="#E6C292"/>
<stop offset="1" stop-color="#FEF0CA"/>
</linearGradient>
<linearGradient id="paint2_linear" x1="10.4037" y1="0.182434" x2="10.4037" y2="8.72582" gradientUnits="userSpaceOnUse">
<stop stop-color="#E6C292"/>
<stop offset="1" stop-color="#FEF0CA"/>
</linearGradient>
<linearGradient id="paint3_linear" x1="7.40435" y1="0.702698" x2="7.40435" y2="14.8177" gradientUnits="userSpaceOnUse">
<stop stop-color="#E6C292"/>
<stop offset="1" stop-color="#FEF0CA"/>
</linearGradient>
<clipPath id="clip0">
<rect width="15" height="15" fill="white"/>
</clipPath>
</defs>
</svg>
