<svg width="160" height="160" viewBox="0 0 160 160" fill="none" xmlns="http://www.w3.org/2000/svg">
<path d="M80 98.75C67.0772 98.75 56.5625 109.265 56.5625 122.188V155H65.9375V122.188C65.9375 114.433 72.2456 108.125 80 108.125C87.7544 108.125 94.0625 114.433 94.0625 122.188V155H103.438V122.188C103.438 109.265 92.9228 98.75 80 98.75Z" fill="url(#paint0_linear)"/>
<path d="M80 89.375C98.0909 89.375 112.812 104.097 112.812 122.188V126.875H140.938V72.415L84.6875 44.29V23.75H94.0625V14.375H84.6875V5H75.3125V14.375H65.9375V23.75H75.3125V44.29L19.0625 72.415V126.875H47.1875V122.188C47.1875 104.097 61.9091 89.375 80 89.375ZM112.812 80H122.188V89.375H112.812V80ZM94.0625 70.625H103.438V80H94.0625V70.625ZM75.3125 61.25H84.6875V70.625H75.3125V61.25ZM47.1875 89.375H37.8125V80H47.1875V89.375ZM56.5625 70.625H65.9375V80H56.5625V70.625Z" fill="url(#paint1_linear)"/>
<path d="M80 117.5C77.4137 117.5 75.3125 119.601 75.3125 122.188V155H84.6875V122.188C84.6875 119.601 82.5862 117.5 80 117.5Z" fill="url(#paint2_linear)"/>
<path d="M150.312 145.625V136.25H112.812V155H160V145.625H150.312Z" fill="url(#paint3_linear)"/>
<path d="M9.6875 145.625H0V155H47.1875V136.25H9.6875V145.625Z" fill="url(#paint4_linear)"/>
<defs>
<linearGradient id="paint0_linear" x1="80" y1="98.75" x2="80" y2="155" gradientUnits="userSpaceOnUse">
<stop stop-color="#161B1F"/>
<stop offset="1" stop-color="#35414B"/>
</linearGradient>
<linearGradient id="paint1_linear" x1="80" y1="5" x2="80" y2="126.875" gradientUnits="userSpaceOnUse">
<stop stop-color="#161B1F"/>
<stop offset="1" stop-color="#35414B"/>
</linearGradient>
<linearGradient id="paint2_linear" x1="80" y1="117.5" x2="80" y2="155" gradientUnits="userSpaceOnUse">
<stop stop-color="#161B1F"/>
<stop offset="1" stop-color="#35414B"/>
</linearGradient>
<linearGradient id="paint3_linear" x1="136.406" y1="136.25" x2="136.406" y2="155" gradientUnits="userSpaceOnUse">
<stop stop-color="#161B1F"/>
<stop offset="1" stop-color="#35414B"/>
</linearGradient>
<linearGradient id="paint4_linear" x1="23.5938" y1="136.25" x2="23.5938" y2="155" gradientUnits="userSpaceOnUse">
<stop stop-color="#161B1F"/>
<stop offset="1" stop-color="#35414B"/>
</linearGradient>
</defs>
</svg>
