<svg width="40" height="40" viewBox="0 0 40 40" fill="none" xmlns="http://www.w3.org/2000/svg">
<path d="M19.9999 0C8.955 0 0 8.95425 0 19.9999C0 31.0456 8.95425 39.9999 19.9999 39.9999C31.0456 39.9999 39.9999 31.0456 39.9999 19.9999C39.9999 8.95425 31.045 0 19.9999 0ZM19.9999 38.3952C9.85634 38.3952 1.60389 30.1428 1.60389 19.9992C1.60389 9.85559 9.85646 1.60314 19.9999 1.60314C30.1427 1.60314 38.396 9.85559 38.396 19.9992C38.3952 30.1428 30.1428 38.3952 19.9999 38.3952ZM30.4274 28.7745C30.8974 29.2444 30.8974 30.0064 30.4274 30.4763C29.9575 30.9455 29.1964 30.9463 28.7264 30.4763L20.2117 21.9625C20.1499 21.9688 20.0907 21.9809 20.0273 21.9809C18.947 21.9809 18.072 21.1052 18.072 20.0256C18.072 19.4025 18.3687 18.8539 18.8234 18.4955V9.10574C18.8234 8.44175 19.3624 7.90279 20.0264 7.90279C20.6913 7.90279 21.2302 8.44175 21.2302 9.10574V18.4962C21.6842 18.8539 21.9824 19.4033 21.9824 20.0264C21.9824 20.1202 21.9672 20.2101 21.9551 20.3007L30.4274 28.7745Z" fill="url(#paint0_linear)"/>
<defs>
<linearGradient id="paint0_linear" x1="19.9999" y1="0" x2="19.9999" y2="39.9999" gradientUnits="userSpaceOnUse">
<stop stop-color="#161B1F"/>
<stop offset="1" stop-color="#35414B"/>
</linearGradient>
</defs>
</svg>
