<svg width="160" height="160" viewBox="0 0 160 160" fill="none" xmlns="http://www.w3.org/2000/svg">
<path d="M85 18.7495H109.856L85 2.17847V18.7495Z" fill="url(#paint0_linear)"/>
<path d="M113.125 129.951L109.285 133.792L69.5044 147.058L80.9253 112.812H18.75V103.438H86.6113L113.125 76.9189V28.125H75.625V0H0V160H113.125V129.951ZM28.125 47.1875H85V56.5625H28.125V47.1875ZM18.75 65.9375H94.375V75.3125H18.75V65.9375ZM18.75 84.6875H94.375V94.0625H18.75V84.6875ZM47.5 140.938H18.75V131.562H47.5V140.938Z" fill="url(#paint1_linear)"/>
<path d="M91.0002 112.343L84.3437 132.219L104.219 125.562L130.75 99.1244L117.438 85.8126L91.0002 112.343Z" fill="url(#paint2_linear)"/>
<path d="M143.969 59.2811L124.094 79.1566L137.407 92.4683L157.282 72.5941C160.905 68.971 160.901 62.9005 157.282 59.2811C153.626 55.6251 147.625 55.6251 143.969 59.2811Z" fill="url(#paint3_linear)"/>
<defs>
<linearGradient id="paint0_linear" x1="79.999" y1="0" x2="79.999" y2="160" gradientUnits="userSpaceOnUse">
<stop stop-color="#161B1F"/>
<stop offset="1" stop-color="#35414B"/>
</linearGradient>
<linearGradient id="paint1_linear" x1="79.999" y1="0" x2="79.999" y2="160" gradientUnits="userSpaceOnUse">
<stop stop-color="#161B1F"/>
<stop offset="1" stop-color="#35414B"/>
</linearGradient>
<linearGradient id="paint2_linear" x1="79.999" y1="0" x2="79.999" y2="160" gradientUnits="userSpaceOnUse">
<stop stop-color="#161B1F"/>
<stop offset="1" stop-color="#35414B"/>
</linearGradient>
<linearGradient id="paint3_linear" x1="79.999" y1="0" x2="79.999" y2="160" gradientUnits="userSpaceOnUse">
<stop stop-color="#161B1F"/>
<stop offset="1" stop-color="#35414B"/>
</linearGradient>
</defs>
</svg>
