<svg width="200" height="200" viewBox="0 0 200 200" fill="none" xmlns="http://www.w3.org/2000/svg">
<path d="M115.905 54.6402C116.953 52.3895 117.58 49.9084 117.58 47.2656C117.58 37.5732 109.696 29.6875 100.002 29.6875C90.3098 29.6875 82.424 37.5732 82.424 47.2656C82.424 49.9084 83.0511 52.3895 84.101 54.6402C45.0903 61.8073 15.09 94.7723 12.4091 135.156H187.597C184.914 94.7723 154.915 61.8073 115.905 54.6402ZM100.002 53.125C96.7703 53.125 94.1428 50.499 94.1428 47.2656C94.1428 44.0323 96.7703 41.4062 100.002 41.4062C103.235 41.4062 105.862 44.0323 105.862 47.2656C105.862 50.499 103.235 53.125 100.002 53.125Z" fill="url(#paint0_linear)"/>
<path d="M0 146.875C2.72217 160.231 15.5441 170.312 29.6906 170.312H170.316C184.464 170.312 197.278 160.231 200 146.875H0Z" fill="url(#paint1_linear)"/>
<defs>
<linearGradient id="paint0_linear" x1="100" y1="29.6875" x2="100" y2="170.312" gradientUnits="userSpaceOnUse">
<stop stop-color="#161B1F"/>
<stop offset="1" stop-color="#35414B"/>
</linearGradient>
<linearGradient id="paint1_linear" x1="100" y1="29.6875" x2="100" y2="170.312" gradientUnits="userSpaceOnUse">
<stop stop-color="#161B1F"/>
<stop offset="1" stop-color="#35414B"/>
</linearGradient>
</defs>
</svg>
