<svg width="40" height="40" viewBox="0 0 40 40" fill="none" xmlns="http://www.w3.org/2000/svg">
<path d="M38.75 5H1.25C0.559375 5 0 5.55937 0 6.25V33.75C0 34.4406 0.559375 35 1.25 35H38.75C39.4406 35 40 34.4406 40 33.75V6.25C40 5.55937 39.4406 5 38.75 5ZM38.75 32.8625L25.8875 20L38.75 7.1375V32.8625ZM37.8625 6.25L20 24.1125L2.1375 6.25H37.8625ZM1.25 7.1375L14.1125 20L1.25 32.8625V7.1375ZM15 20.8875L19.5519 25.4394C19.6756 25.5631 19.8381 25.6237 20 25.6225C20.1619 25.6237 20.3244 25.5631 20.4481 25.4394L25 20.8875L37.8625 33.75H2.1375L15 20.8875Z" fill="url(#paint0_linear)"/>
<defs>
<linearGradient id="paint0_linear" x1="20" y1="5" x2="20" y2="35" gradientUnits="userSpaceOnUse">
<stop stop-color="#161B1F"/>
<stop offset="1" stop-color="#35414B"/>
</linearGradient>
</defs>
</svg>
