<svg width="40" height="40" viewBox="0 0 40 40" fill="none" xmlns="http://www.w3.org/2000/svg">
<rect width="40" height="40" fill="white"/>
<path d="M29.9997 0H9.99967C8.52701 0 7.33301 1.194 7.33301 2.66667V37.3333C7.33301 38.806 8.52701 40 9.99967 40H29.9997C31.4723 40 32.6663 38.806 32.6663 37.3333V2.66667C32.6663 1.194 31.4723 0 29.9997 0ZM29.9997 38.6667H9.99967C9.26301 38.6667 8.66634 38.07 8.66634 37.3333V33.3333H27.9997C28.3677 33.3333 28.6663 33.0347 28.6663 32.6667C28.6663 32.2987 28.3677 32 27.9997 32H8.66634V2.66667C8.66634 1.93 9.26301 1.33333 9.99967 1.33333H29.9997C30.7363 1.33333 31.333 1.93 31.333 2.66667V6.66667H11.9997C11.6317 6.66667 11.333 6.96533 11.333 7.33333C11.333 7.70133 11.6317 8 11.9997 8H31.333V37.3333C31.333 38.07 30.7363 38.6667 29.9997 38.6667Z" fill="url(#paint0_linear)"/>
<path d="M19.9998 34.6666C19.2631 34.6666 18.6665 35.2633 18.6665 36C18.6665 36.7366 19.2631 37.3333 19.9998 37.3333C20.7365 37.3333 21.3331 36.7366 21.3331 36C21.3331 35.2633 20.7365 34.6666 19.9998 34.6666ZM21.9998 3.33331H17.9998C17.6318 3.33331 17.3331 3.63198 17.3331 3.99998C17.3331 4.36798 17.6318 4.66665 17.9998 4.66665H21.9998C22.3678 4.66665 22.6665 4.36798 22.6665 3.99998C22.6665 3.63198 22.3678 3.33331 21.9998 3.33331ZM12.4278 14.4766L15.1431 11.7613C15.3931 11.5113 15.3931 11.106 15.1431 10.856C14.8931 10.606 14.4878 10.606 14.2378 10.856L11.5225 13.5713C11.2725 13.8213 11.2725 14.2266 11.5225 14.4766C11.7731 14.7266 12.1778 14.7266 12.4278 14.4766ZM19.1431 10.8566C18.8931 10.6066 18.4878 10.6066 18.2378 10.8566L11.5231 17.572C11.2731 17.822 11.2731 18.2273 11.5231 18.4773C11.7731 18.7273 12.1785 18.7273 12.4285 18.4773L19.1438 11.762C19.3931 11.5113 19.3931 11.1066 19.1431 10.8566Z" fill="url(#paint1_linear)"/>
<defs>
<linearGradient id="paint0_linear" x1="19.9997" y1="0" x2="19.9997" y2="40" gradientUnits="userSpaceOnUse">
<stop stop-color="#161B1F"/>
<stop offset="1" stop-color="#35414B"/>
</linearGradient>
<linearGradient id="paint1_linear" x1="17.0007" y1="3.33331" x2="17.0007" y2="37.3333" gradientUnits="userSpaceOnUse">
<stop stop-color="#161B1F"/>
<stop offset="1" stop-color="#35414B"/>
</linearGradient>
</defs>
</svg>
