<svg width="160" height="160" viewBox="0 0 160 160" fill="none" xmlns="http://www.w3.org/2000/svg">
<path d="M129.219 65.9323L129.214 65.937C123.524 74.1857 119.844 81.5466 119.844 84.6869C119.844 89.855 124.051 94.0619 129.219 94.0619C134.387 94.0619 138.594 89.855 138.594 84.6869C138.594 81.5466 134.913 74.1857 129.219 65.937V65.9323Z" fill="url(#paint0_linear)"/>
<path d="M140.938 103.438H117.5V131.562H140.938V103.438Z" fill="url(#paint1_linear)"/>
<path d="M108.125 94.0625H113.076C111.462 91.2938 110.469 88.1178 110.469 84.6875C110.469 78.0041 116.47 67.9059 121.501 60.6091L129.219 49.4441L131.562 52.8366V19.0625H121.414C117.72 8.09906 101.144 0 80 0C58.8559 0 42.2803 8.09906 38.5863 19.0625H28.4375V103.438H108.125V94.0625ZM103.438 94.0625H56.5625V84.6875H103.438V94.0625ZM103.438 75.3125H56.5625V70.625C56.5625 57.7022 67.0772 47.1875 80 47.1875C72.2456 47.1875 65.9375 40.8794 65.9375 33.125C65.9375 25.3706 72.2456 19.0625 80 19.0625C87.7544 19.0625 94.0625 25.3706 94.0625 33.125C94.0625 40.8794 87.7544 47.1875 80 47.1875C92.9228 47.1875 103.438 57.7022 103.438 70.625V75.3125Z" fill="url(#paint2_linear)"/>
<path d="M80.001 56.5625C73.8897 56.5625 68.676 60.4809 66.7394 65.9375H93.2623C91.326 60.4809 86.1123 56.5625 80.001 56.5625Z" fill="url(#paint3_linear)"/>
<path d="M80 28.4375C77.4137 28.4375 75.3125 30.5387 75.3125 33.125C75.3125 35.7113 77.4137 37.8125 80 37.8125C82.5863 37.8125 84.6875 35.7113 84.6875 33.125C84.6875 30.5387 82.5863 28.4375 80 28.4375Z" fill="url(#paint4_linear)"/>
<path d="M160 140.938H0V160H160V140.938Z" fill="url(#paint5_linear)"/>
<path d="M108.125 112.812H19.0625V131.562H108.125V112.812Z" fill="url(#paint6_linear)"/>
<defs>
<linearGradient id="paint0_linear" x1="80" y1="0" x2="80" y2="160" gradientUnits="userSpaceOnUse">
<stop stop-color="#161B1F"/>
<stop offset="1" stop-color="#35414B"/>
</linearGradient>
<linearGradient id="paint1_linear" x1="80" y1="0" x2="80" y2="160" gradientUnits="userSpaceOnUse">
<stop stop-color="#161B1F"/>
<stop offset="1" stop-color="#35414B"/>
</linearGradient>
<linearGradient id="paint2_linear" x1="80" y1="0" x2="80" y2="160" gradientUnits="userSpaceOnUse">
<stop stop-color="#161B1F"/>
<stop offset="1" stop-color="#35414B"/>
</linearGradient>
<linearGradient id="paint3_linear" x1="80" y1="0" x2="80" y2="160" gradientUnits="userSpaceOnUse">
<stop stop-color="#161B1F"/>
<stop offset="1" stop-color="#35414B"/>
</linearGradient>
<linearGradient id="paint4_linear" x1="80" y1="0" x2="80" y2="160" gradientUnits="userSpaceOnUse">
<stop stop-color="#161B1F"/>
<stop offset="1" stop-color="#35414B"/>
</linearGradient>
<linearGradient id="paint5_linear" x1="80" y1="0" x2="80" y2="160" gradientUnits="userSpaceOnUse">
<stop stop-color="#161B1F"/>
<stop offset="1" stop-color="#35414B"/>
</linearGradient>
<linearGradient id="paint6_linear" x1="80" y1="0" x2="80" y2="160" gradientUnits="userSpaceOnUse">
<stop stop-color="#161B1F"/>
<stop offset="1" stop-color="#35414B"/>
</linearGradient>
</defs>
</svg>
