<svg width="160" height="160" viewBox="0 0 160 160" fill="none" xmlns="http://www.w3.org/2000/svg">
<g clip-path="url(#clip0)">
<path d="M62.5411 50.32C73.3069 43.9953 86.6992 43.9953 97.465 50.32L122.349 25.4361C97.5168 6.14241 62.4979 6.14241 37.6572 25.4361L62.5411 50.32Z" fill="url(#paint0_linear)"/>
<path d="M134.566 37.6619L109.682 62.5458C116.006 73.3115 116.006 86.7039 109.682 97.4696L134.566 122.354C153.859 97.5128 153.859 62.4939 134.566 37.6619Z" fill="url(#paint1_linear)"/>
<path d="M50.3229 97.4611C43.9982 86.6953 43.9982 73.303 50.3229 62.5372L25.439 37.6533C6.14534 62.4854 6.14534 97.5043 25.439 122.345L50.3229 97.4611Z" fill="url(#paint2_linear)"/>
<path d="M97.465 109.679C86.6992 116.004 73.3069 116.004 62.5411 109.679L37.6572 134.563C62.4893 153.857 97.5082 153.857 122.349 134.563L97.465 109.679Z" fill="url(#paint3_linear)"/>
<path d="M38.889 160C28.6158 160 18.6968 155.913 11.3872 148.603C3.57637 140.792 -0.553665 129.984 0.0597925 118.959L0.906536 103.726C1.7792 87.9833 1.7792 72.0248 0.906536 56.2823L0.0684328 41.0495C-0.545025 30.0246 3.57637 19.2156 11.3872 11.4048C19.2066 3.58542 30.0501 -0.605096 41.0405 0.0688434L56.2732 0.915587C72.0157 1.79689 87.9915 1.79689 103.717 0.915587L118.958 0.0688434C129.949 -0.613736 140.792 3.58542 148.611 11.4048C156.422 19.2156 160.552 30.0246 159.939 41.0495L159.092 56.2823C158.219 72.0248 158.219 87.9833 159.092 103.726L159.939 118.959C160.552 129.984 156.431 140.792 148.611 148.603C140.801 156.423 129.957 160.57 118.958 159.939L103.725 159.092C87.9829 158.211 72.0071 158.211 56.2819 159.092L41.0405 159.931C40.3233 159.974 39.6062 160 38.889 160ZM79.9993 149.787C88.0866 149.787 96.1738 150.012 104.209 150.461L119.433 151.308C128.082 151.722 136.429 148.569 142.503 142.486C148.577 136.412 151.782 128.005 151.316 119.434L150.469 104.201C149.571 88.1388 149.571 71.852 150.469 55.7898L151.316 40.557C151.791 31.9773 148.586 23.5789 142.503 17.5049C136.429 11.4221 128.1 8.24251 119.433 8.68316L104.201 9.53855C88.1557 10.4371 71.8602 10.4371 55.7894 9.53855L40.5653 8.6918C31.9769 8.23387 23.5699 11.4308 17.4958 17.5135C11.4217 23.5876 8.21618 31.9945 8.6914 40.5657L9.53814 55.7984C10.4367 71.8606 10.4367 88.1475 9.53814 104.21L8.6914 119.442C8.21618 128.022 11.4217 136.421 17.5044 142.495C23.5785 148.577 31.8732 151.748 40.5739 151.316L55.8066 150.47C63.8248 150.012 71.912 149.787 79.9993 149.787Z" fill="url(#paint4_linear)"/>
</g>
<defs>
<linearGradient id="paint0_linear" x1="80.0031" y1="10.9658" x2="80.0031" y2="50.32" gradientUnits="userSpaceOnUse">
<stop stop-color="#161B1F"/>
<stop offset="1" stop-color="#35414B"/>
</linearGradient>
<linearGradient id="paint1_linear" x1="129.359" y1="37.6619" x2="129.359" y2="122.354" gradientUnits="userSpaceOnUse">
<stop stop-color="#161B1F"/>
<stop offset="1" stop-color="#35414B"/>
</linearGradient>
<linearGradient id="paint2_linear" x1="30.6458" y1="37.6533" x2="30.6458" y2="122.345" gradientUnits="userSpaceOnUse">
<stop stop-color="#161B1F"/>
<stop offset="1" stop-color="#35414B"/>
</linearGradient>
<linearGradient id="paint3_linear" x1="80.0031" y1="109.679" x2="80.0031" y2="149.033" gradientUnits="userSpaceOnUse">
<stop stop-color="#161B1F"/>
<stop offset="1" stop-color="#35414B"/>
</linearGradient>
<linearGradient id="paint4_linear" x1="79.9994" y1="-0.00317383" x2="79.9994" y2="160.002" gradientUnits="userSpaceOnUse">
<stop stop-color="#161B1F"/>
<stop offset="1" stop-color="#35414B"/>
</linearGradient>
<clipPath id="clip0">
<rect width="160" height="160" fill="white"/>
</clipPath>
</defs>
</svg>
