<svg width="15" height="15" viewBox="0 0 15 15" fill="none" xmlns="http://www.w3.org/2000/svg">
<path d="M7.50007 0C4.50079 0 2.07886 2.42194 2.07886 5.42122C2.07886 6.46697 2.41292 7.46552 2.8777 8.28611L6.41075 14.4008C6.63224 14.8003 7.07887 15 7.50007 15C7.92132 15 8.34612 14.8003 8.5894 14.4008L12.1225 8.28974C12.5909 7.46908 12.9213 6.48869 12.9213 5.42478C12.9213 2.42557 10.4994 0 7.50007 0ZM7.50007 7.02253C6.41075 7.02253 5.52113 6.13291 5.52113 5.04359C5.52113 3.95426 6.41075 3.06464 7.50007 3.06464C8.5894 3.06464 9.47902 3.95426 9.47902 5.04359C9.47902 6.13654 8.5894 7.02253 7.50007 7.02253Z" fill="url(#paint0_linear)"/>
<defs>
<linearGradient id="paint0_linear" x1="7.50008" y1="0" x2="7.50008" y2="15" gradientUnits="userSpaceOnUse">
<stop stop-color="#E6C292"/>
<stop offset="1" stop-color="#FEF0CA"/>
</linearGradient>
</defs>
</svg>
