<svg width="15" height="15" viewBox="0 0 15 15" fill="none" xmlns="http://www.w3.org/2000/svg">
<path d="M7.50032 0C4.50104 0 2.0791 2.42194 2.0791 5.42122C2.0791 6.46697 2.41316 7.46552 2.87794 8.28611L6.41099 14.4008C6.63249 14.8003 7.07911 15 7.50032 15C7.92156 15 8.34636 14.8003 8.58965 14.4008L12.1227 8.28974C12.5911 7.46908 12.9215 6.48869 12.9215 5.42478C12.9215 2.42557 10.4996 0 7.50032 0ZM7.50032 7.02253C6.41099 7.02253 5.52138 6.13291 5.52138 5.04359C5.52138 3.95426 6.41099 3.06464 7.50032 3.06464C8.58965 3.06464 9.47926 3.95426 9.47926 5.04359C9.47926 6.13654 8.58965 7.02253 7.50032 7.02253Z" fill="url(#paint0_linear)"/>
<defs>
<linearGradient id="paint0_linear" x1="7.50032" y1="0" x2="7.50032" y2="15" gradientUnits="userSpaceOnUse">
<stop stop-color="#E6C292"/>
<stop offset="1" stop-color="#FEF0CA"/>
</linearGradient>
</defs>
</svg>
