<svg width="600" height="655" viewBox="0 0 600 655" fill="none" xmlns="http://www.w3.org/2000/svg">
<rect x="0.5" y="0.5" width="599" height="654" fill="white" stroke="#161B1F"/>
<path d="M300 206C272.431 206 250 228.429 250 256C250 283.571 272.431 306 300 306C327.569 306 350 283.571 350 256C350 228.429 327.569 206 300 206ZM327.875 239.325L297.106 273.94C296.348 274.792 295.292 275.231 294.229 275.231C293.385 275.231 292.537 274.954 291.827 274.388L272.596 259.004C270.938 257.679 270.669 255.258 271.996 253.598C273.321 251.938 275.744 251.669 277.402 252.996L293.781 266.098L322.125 234.212C323.533 232.623 325.967 232.481 327.554 233.892C329.142 235.306 329.287 237.737 327.875 239.325Z" fill="url(#paint0_linear)"/>
<path d="M184.192 434.901C183.409 434.901 182.647 435.075 181.909 435.421L181.417 434.437C182.201 434.054 183.131 433.862 184.206 433.862C185.195 433.862 186.045 434.063 186.756 434.464C187.471 434.865 188.014 435.437 188.383 436.18C188.752 436.923 188.937 437.798 188.937 438.805C188.937 440.518 188.522 441.835 187.692 442.756C186.863 443.676 185.669 444.137 184.11 444.137C183.076 444.137 182.203 444.007 181.492 443.747V442.729C181.87 442.824 182.256 442.911 182.647 442.988C183.039 443.066 183.461 443.104 183.912 443.104C185.147 443.104 186.079 442.776 186.708 442.12C187.337 441.459 187.67 440.509 187.706 439.27H182.791V438.23H187.692C187.592 437.187 187.232 436.371 186.612 435.783C185.997 435.195 185.19 434.901 184.192 434.901ZM196.073 437.479H193.64V444H192.505V437.479H190.099V436.508H196.073V437.479ZM204.023 440.247C204.023 441.468 203.716 442.423 203.101 443.111C202.485 443.795 201.635 444.137 200.551 444.137C199.881 444.137 199.286 443.979 198.767 443.665C198.247 443.351 197.846 442.899 197.563 442.312C197.281 441.724 197.14 441.035 197.14 440.247C197.14 439.026 197.445 438.076 198.056 437.396C198.666 436.713 199.514 436.371 200.599 436.371C201.647 436.371 202.479 436.72 203.094 437.417C203.714 438.114 204.023 439.058 204.023 440.247ZM198.315 440.247C198.315 441.204 198.507 441.933 198.89 442.435C199.272 442.936 199.835 443.187 200.578 443.187C201.321 443.187 201.884 442.938 202.267 442.441C202.654 441.94 202.848 441.209 202.848 440.247C202.848 439.295 202.654 438.572 202.267 438.08C201.884 437.583 201.316 437.335 200.564 437.335C199.822 437.335 199.261 437.579 198.883 438.066C198.505 438.554 198.315 439.281 198.315 440.247ZM216.123 440.247C216.123 441.468 215.815 442.423 215.2 443.111C214.585 443.795 213.735 444.137 212.65 444.137C211.98 444.137 211.386 443.979 210.866 443.665C210.347 443.351 209.946 442.899 209.663 442.312C209.381 441.724 209.239 441.035 209.239 440.247C209.239 439.026 209.545 438.076 210.155 437.396C210.766 436.713 211.614 436.371 212.698 436.371C213.746 436.371 214.578 436.72 215.193 437.417C215.813 438.114 216.123 439.058 216.123 440.247ZM210.415 440.247C210.415 441.204 210.606 441.933 210.989 442.435C211.372 442.936 211.935 443.187 212.678 443.187C213.421 443.187 213.983 442.938 214.366 442.441C214.754 441.94 214.947 441.209 214.947 440.247C214.947 439.295 214.754 438.572 214.366 438.08C213.983 437.583 213.416 437.335 212.664 437.335C211.921 437.335 211.361 437.579 210.982 438.066C210.604 438.554 210.415 439.281 210.415 440.247ZM222.487 436.508H223.731L220.498 440.124L223.998 444H222.672L219.254 440.206V444H218.119V436.508H219.254V440.151L222.487 436.508ZM226.527 436.508V439.646H230.725V436.508H231.859V444H230.725V440.623H226.527V444H225.393V436.508H226.527ZM240.732 440.247C240.732 441.468 240.425 442.423 239.81 443.111C239.194 443.795 238.344 444.137 237.26 444.137C236.59 444.137 235.995 443.979 235.476 443.665C234.956 443.351 234.555 442.899 234.272 442.312C233.99 441.724 233.849 441.035 233.849 440.247C233.849 439.026 234.154 438.076 234.765 437.396C235.375 436.713 236.223 436.371 237.308 436.371C238.356 436.371 239.188 436.72 239.803 437.417C240.423 438.114 240.732 439.058 240.732 440.247ZM235.024 440.247C235.024 441.204 235.216 441.933 235.599 442.435C235.981 442.936 236.544 443.187 237.287 443.187C238.03 443.187 238.593 442.938 238.976 442.441C239.363 441.94 239.557 441.209 239.557 440.247C239.557 439.295 239.363 438.572 238.976 438.08C238.593 437.583 238.025 437.335 237.273 437.335C236.531 437.335 235.97 437.579 235.592 438.066C235.214 438.554 235.024 439.281 235.024 440.247ZM247.794 439.618C249.211 439.618 249.92 439.226 249.92 438.442C249.92 437.704 249.346 437.335 248.197 437.335C247.846 437.335 247.527 437.367 247.24 437.431C246.953 437.494 246.577 437.622 246.112 437.813L245.709 436.891C246.484 436.544 247.329 436.371 248.245 436.371C249.106 436.371 249.785 436.549 250.282 436.904C250.779 437.255 251.027 437.736 251.027 438.347C251.027 439.185 250.56 439.734 249.626 439.994V440.049C250.2 440.217 250.619 440.459 250.884 440.773C251.148 441.083 251.28 441.473 251.28 441.942C251.28 442.635 251 443.175 250.439 443.562C249.883 443.945 249.113 444.137 248.129 444.137C247.049 444.137 246.215 443.975 245.627 443.651V442.612C246.461 443.004 247.304 443.2 248.156 443.2C248.812 443.2 249.307 443.089 249.64 442.865C249.977 442.637 250.146 442.312 250.146 441.888C250.146 441.017 249.437 440.582 248.02 440.582H246.98V439.618H247.794ZM257.74 444L257.515 442.934H257.46C257.086 443.403 256.713 443.722 256.339 443.891C255.97 444.055 255.507 444.137 254.951 444.137C254.208 444.137 253.625 443.945 253.201 443.562C252.782 443.18 252.572 442.635 252.572 441.929C252.572 440.416 253.782 439.623 256.202 439.55L257.474 439.509V439.044C257.474 438.456 257.346 438.023 257.091 437.745C256.84 437.463 256.437 437.321 255.881 437.321C255.257 437.321 254.55 437.513 253.762 437.896L253.413 437.027C253.782 436.827 254.186 436.67 254.623 436.556C255.065 436.442 255.507 436.385 255.949 436.385C256.842 436.385 257.503 436.583 257.932 436.979C258.365 437.376 258.581 438.012 258.581 438.887V444H257.74ZM255.177 443.2C255.883 443.2 256.437 443.007 256.838 442.619C257.243 442.232 257.446 441.689 257.446 440.992V440.315L256.312 440.363C255.409 440.395 254.757 440.536 254.356 440.787C253.96 441.033 253.762 441.418 253.762 441.942C253.762 442.353 253.885 442.665 254.131 442.879C254.382 443.093 254.73 443.2 255.177 443.2ZM265.294 436.508H266.538L263.305 440.124L266.805 444H265.479L262.061 440.206V444H260.926V436.508H262.061V440.151L265.294 436.508ZM271.686 444.137C271.198 444.137 270.751 444.048 270.346 443.87C269.945 443.688 269.607 443.41 269.334 443.036H269.252C269.307 443.474 269.334 443.888 269.334 444.28V447.363H268.199V436.508H269.122L269.279 437.533H269.334C269.626 437.123 269.965 436.827 270.353 436.645C270.74 436.462 271.184 436.371 271.686 436.371C272.679 436.371 273.445 436.711 273.982 437.39C274.525 438.069 274.796 439.021 274.796 440.247C274.796 441.478 274.52 442.435 273.969 443.118C273.422 443.797 272.661 444.137 271.686 444.137ZM271.521 437.335C270.756 437.335 270.202 437.547 269.86 437.971C269.519 438.395 269.343 439.069 269.334 439.994V440.247C269.334 441.3 269.509 442.054 269.86 442.51C270.211 442.961 270.774 443.187 271.549 443.187C272.196 443.187 272.702 442.924 273.066 442.4C273.436 441.876 273.62 441.154 273.62 440.233C273.62 439.299 273.436 438.584 273.066 438.087C272.702 437.586 272.187 437.335 271.521 437.335ZM283.252 440.247C283.252 441.468 282.944 442.423 282.329 443.111C281.714 443.795 280.864 444.137 279.779 444.137C279.109 444.137 278.515 443.979 277.995 443.665C277.476 443.351 277.075 442.899 276.792 442.312C276.509 441.724 276.368 441.035 276.368 440.247C276.368 439.026 276.674 438.076 277.284 437.396C277.895 436.713 278.743 436.371 279.827 436.371C280.875 436.371 281.707 436.72 282.322 437.417C282.942 438.114 283.252 439.058 283.252 440.247ZM277.544 440.247C277.544 441.204 277.735 441.933 278.118 442.435C278.501 442.936 279.064 443.187 279.807 443.187C280.549 443.187 281.112 442.938 281.495 442.441C281.882 441.94 282.076 441.209 282.076 440.247C282.076 439.295 281.882 438.572 281.495 438.08C281.112 437.583 280.545 437.335 279.793 437.335C279.05 437.335 278.49 437.579 278.111 438.066C277.733 438.554 277.544 439.281 277.544 440.247ZM288.413 444.137C287.306 444.137 286.431 443.799 285.788 443.125C285.15 442.451 284.831 441.514 284.831 440.315C284.831 439.108 285.127 438.148 285.72 437.438C286.317 436.727 287.117 436.371 288.119 436.371C289.058 436.371 289.801 436.681 290.348 437.301C290.895 437.916 291.168 438.729 291.168 439.741V440.459H286.007C286.03 441.339 286.251 442.006 286.67 442.462C287.094 442.918 287.688 443.146 288.454 443.146C289.261 443.146 290.058 442.977 290.847 442.64V443.651C290.446 443.825 290.065 443.948 289.705 444.021C289.35 444.098 288.919 444.137 288.413 444.137ZM288.105 437.321C287.504 437.321 287.023 437.517 286.663 437.909C286.308 438.301 286.098 438.843 286.034 439.536H289.951C289.951 438.821 289.792 438.274 289.473 437.896C289.154 437.513 288.698 437.321 288.105 437.321ZM298.161 437.479H295.728V444H294.593V437.479H292.187V436.508H298.161V437.479ZM302.639 444.137C301.554 444.137 300.713 443.804 300.116 443.139C299.524 442.469 299.228 441.523 299.228 440.302C299.228 439.049 299.528 438.08 300.13 437.396C300.736 436.713 301.597 436.371 302.714 436.371C303.074 436.371 303.434 436.41 303.794 436.487C304.154 436.565 304.437 436.656 304.642 436.761L304.293 437.725C304.042 437.624 303.769 437.542 303.473 437.479C303.176 437.41 302.914 437.376 302.687 437.376C301.164 437.376 300.403 438.347 300.403 440.288C300.403 441.209 300.588 441.915 300.957 442.407C301.331 442.899 301.882 443.146 302.611 443.146C303.236 443.146 303.876 443.011 304.532 442.742V443.747C304.031 444.007 303.4 444.137 302.639 444.137ZM306.692 444H305.366L307.52 440.835C306.941 440.707 306.496 440.461 306.187 440.097C305.881 439.728 305.729 439.265 305.729 438.709C305.729 438.025 305.959 437.488 306.419 437.096C306.879 436.704 307.522 436.508 308.347 436.508H311.683V444H310.548V441.006H308.654L306.692 444ZM306.836 438.723C306.836 439.589 307.465 440.021 308.723 440.021H310.548V437.492H308.49C307.387 437.492 306.836 437.902 306.836 438.723ZM322.34 444L322.114 442.934H322.06C321.686 443.403 321.312 443.722 320.938 443.891C320.569 444.055 320.107 444.137 319.551 444.137C318.808 444.137 318.225 443.945 317.801 443.562C317.382 443.18 317.172 442.635 317.172 441.929C317.172 440.416 318.382 439.623 320.802 439.55L322.073 439.509V439.044C322.073 438.456 321.946 438.023 321.69 437.745C321.44 437.463 321.036 437.321 320.48 437.321C319.856 437.321 319.15 437.513 318.361 437.896L318.013 437.027C318.382 436.827 318.785 436.67 319.223 436.556C319.665 436.442 320.107 436.385 320.549 436.385C321.442 436.385 322.103 436.583 322.531 436.979C322.964 437.376 323.181 438.012 323.181 438.887V444H322.34ZM319.776 443.2C320.483 443.2 321.036 443.007 321.438 442.619C321.843 442.232 322.046 441.689 322.046 440.992V440.315L320.911 440.363C320.009 440.395 319.357 440.536 318.956 440.787C318.56 441.033 318.361 441.418 318.361 441.942C318.361 442.353 318.484 442.665 318.73 442.879C318.981 443.093 319.33 443.2 319.776 443.2ZM331.603 438.388C331.603 438.875 331.461 439.247 331.179 439.502C330.901 439.753 330.509 439.921 330.003 440.008V440.069C330.641 440.156 331.106 440.343 331.397 440.63C331.694 440.917 331.842 441.313 331.842 441.819C331.842 442.517 331.584 443.054 331.069 443.433C330.559 443.811 329.812 444 328.827 444H325.525V436.508H328.813C330.673 436.508 331.603 437.134 331.603 438.388ZM330.707 441.744C330.707 441.339 330.552 441.045 330.242 440.862C329.937 440.675 329.429 440.582 328.718 440.582H326.66V443.05H328.745C330.053 443.05 330.707 442.615 330.707 441.744ZM330.495 438.497C330.495 438.132 330.354 437.875 330.071 437.725C329.793 437.57 329.369 437.492 328.8 437.492H326.66V439.604H328.581C329.283 439.604 329.777 439.518 330.064 439.345C330.352 439.172 330.495 438.889 330.495 438.497ZM338.548 437.479H336.114V444H334.979V437.479H332.573V436.508H338.548V437.479ZM346.498 440.247C346.498 441.468 346.19 442.423 345.575 443.111C344.96 443.795 344.11 444.137 343.025 444.137C342.355 444.137 341.761 443.979 341.241 443.665C340.722 443.351 340.321 442.899 340.038 442.312C339.756 441.724 339.614 441.035 339.614 440.247C339.614 439.026 339.92 438.076 340.53 437.396C341.141 436.713 341.989 436.371 343.073 436.371C344.121 436.371 344.953 436.72 345.568 437.417C346.188 438.114 346.498 439.058 346.498 440.247ZM340.79 440.247C340.79 441.204 340.981 441.933 341.364 442.435C341.747 442.936 342.31 443.187 343.053 443.187C343.796 443.187 344.358 442.938 344.741 442.441C345.129 441.94 345.322 441.209 345.322 440.247C345.322 439.295 345.129 438.572 344.741 438.08C344.358 437.583 343.791 437.335 343.039 437.335C342.296 437.335 341.736 437.579 341.357 438.066C340.979 438.554 340.79 439.281 340.79 440.247ZM352.384 442.906L352.596 442.271L352.89 441.464L354.92 436.521H356.362V444H355.357V437.813L355.221 438.21L354.824 439.256L352.89 444H351.939L350.005 439.242C349.763 438.632 349.597 438.155 349.506 437.813V444H348.494V436.521H349.882L351.844 441.272C352.04 441.774 352.22 442.318 352.384 442.906ZM363.396 444L363.171 442.934H363.116C362.743 443.403 362.369 443.722 361.995 443.891C361.626 444.055 361.163 444.137 360.607 444.137C359.865 444.137 359.281 443.945 358.857 443.562C358.438 443.18 358.229 442.635 358.229 441.929C358.229 440.416 359.438 439.623 361.858 439.55L363.13 439.509V439.044C363.13 438.456 363.002 438.023 362.747 437.745C362.496 437.463 362.093 437.321 361.537 437.321C360.913 437.321 360.206 437.513 359.418 437.896L359.069 437.027C359.438 436.827 359.842 436.67 360.279 436.556C360.721 436.442 361.163 436.385 361.605 436.385C362.499 436.385 363.16 436.583 363.588 436.979C364.021 437.376 364.237 438.012 364.237 438.887V444H363.396ZM360.833 443.2C361.539 443.2 362.093 443.007 362.494 442.619C362.9 442.232 363.103 441.689 363.103 440.992V440.315L361.968 440.363C361.065 440.395 360.414 440.536 360.013 440.787C359.616 441.033 359.418 441.418 359.418 441.942C359.418 442.353 359.541 442.665 359.787 442.879C360.038 443.093 360.386 443.2 360.833 443.2ZM371.634 437.479H369.2V444H368.065V437.479H365.659V436.508H371.634V437.479ZM374.184 436.508V441.259L374.136 442.503L374.115 442.893L378.169 436.508H379.584V444H378.524V439.42L378.545 438.518L378.579 437.629L374.532 444H373.117V436.508H374.184ZM382.988 436.508V439.242C382.988 440.117 383.487 440.555 384.485 440.555C384.9 440.555 385.297 440.491 385.675 440.363C386.053 440.236 386.481 440.019 386.96 439.714V436.508H388.095V444H386.96V440.609C386.481 440.938 386.037 441.17 385.627 441.307C385.221 441.439 384.761 441.505 384.246 441.505C383.499 441.505 382.913 441.309 382.489 440.917C382.065 440.525 381.854 439.994 381.854 439.324V436.508H382.988ZM393.673 444.137C392.565 444.137 391.69 443.799 391.048 443.125C390.41 442.451 390.091 441.514 390.091 440.315C390.091 439.108 390.387 438.148 390.979 437.438C391.576 436.727 392.376 436.371 393.379 436.371C394.318 436.371 395.061 436.681 395.607 437.301C396.154 437.916 396.428 438.729 396.428 439.741V440.459H391.267C391.289 441.339 391.51 442.006 391.93 442.462C392.354 442.918 392.948 443.146 393.714 443.146C394.521 443.146 395.318 442.977 396.106 442.64V443.651C395.705 443.825 395.325 443.948 394.965 444.021C394.609 444.098 394.179 444.137 393.673 444.137ZM393.365 437.321C392.764 437.321 392.283 437.517 391.923 437.909C391.567 438.301 391.358 438.843 391.294 439.536H395.211C395.211 438.821 395.051 438.274 394.732 437.896C394.413 437.513 393.958 437.321 393.365 437.321ZM401.363 444.137C400.279 444.137 399.438 443.804 398.841 443.139C398.248 442.469 397.952 441.523 397.952 440.302C397.952 439.049 398.253 438.08 398.854 437.396C399.461 436.713 400.322 436.371 401.438 436.371C401.799 436.371 402.159 436.41 402.519 436.487C402.879 436.565 403.161 436.656 403.366 436.761L403.018 437.725C402.767 437.624 402.493 437.542 402.197 437.479C401.901 437.41 401.639 437.376 401.411 437.376C399.889 437.376 399.128 438.347 399.128 440.288C399.128 441.209 399.312 441.915 399.682 442.407C400.055 442.899 400.607 443.146 401.336 443.146C401.96 443.146 402.601 443.011 403.257 442.742V443.747C402.756 444.007 402.124 444.137 401.363 444.137ZM409.409 436.508H410.653L407.42 440.124L410.92 444H409.594L406.176 440.206V444H405.041V436.508H406.176V440.151L409.409 436.508ZM413.381 436.508V441.259L413.333 442.503L413.312 442.893L417.366 436.508H418.781V444H417.722V439.42L417.742 438.518L417.776 437.629L413.729 444H412.314V436.508H413.381Z" fill="#828282"/>
<path d="M234.713 390.64H237.273V396.92C236.446 397.373 235.353 397.747 233.993 398.04C232.633 398.333 231.286 398.48 229.953 398.48C227.5 398.48 225.3 398.2 223.353 397.64C221.406 397.08 219.753 396.213 218.393 395.04C217.06 393.84 216.033 392.333 215.313 390.52C214.593 388.707 214.233 386.533 214.233 384C214.233 381.387 214.633 379.173 215.433 377.36C216.233 375.52 217.313 374.027 218.673 372.88C220.033 371.707 221.606 370.853 223.393 370.32C225.18 369.787 227.06 369.52 229.033 369.52C229.993 369.52 230.86 369.56 231.633 369.64C232.406 369.693 233.1 369.787 233.713 369.92C234.353 370.053 234.94 370.213 235.473 370.4C236.006 370.587 236.526 370.787 237.033 371V377.84H234.473V373.64L233.913 372.84C233.62 372.707 233.153 372.547 232.513 372.36C231.9 372.173 230.9 372.08 229.513 372.08C228.073 372.08 226.726 372.307 225.473 372.76C224.22 373.213 223.126 373.92 222.193 374.88C221.286 375.84 220.566 377.08 220.033 378.6C219.5 380.093 219.233 381.893 219.233 384C219.233 387.813 220.193 390.76 222.113 392.84C224.06 394.893 226.78 395.92 230.273 395.92C231.233 395.92 232.033 395.853 232.673 395.72C233.34 395.56 233.833 395.36 234.153 395.12L234.713 394.36V390.64ZM251.442 398H241.642V396H244.602V379H241.642V377H265.722V379H262.762V396H265.722V398H255.922V396H258.562V379H248.802V396H251.442V398ZM286.021 392.44C286.021 393.053 286.034 393.68 286.061 394.32C286.088 394.933 286.128 395.493 286.181 396H288.821V398H282.541L282.141 394.2H281.941C281.808 394.733 281.554 395.253 281.181 395.76C280.834 396.267 280.381 396.72 279.821 397.12C279.288 397.52 278.648 397.84 277.901 398.08C277.154 398.32 276.328 398.44 275.421 398.44C274.514 398.44 273.674 398.307 272.901 398.04C272.154 397.773 271.501 397.4 270.941 396.92C270.381 396.44 269.941 395.867 269.621 395.2C269.328 394.507 269.181 393.733 269.181 392.88C269.181 391.573 269.448 390.493 269.981 389.64C270.541 388.787 271.354 388.12 272.421 387.64C273.488 387.133 274.821 386.773 276.421 386.56C278.021 386.347 279.888 386.227 282.021 386.2C282.074 385.773 282.101 385.373 282.101 385C282.101 384.6 282.101 384.213 282.101 383.84C282.101 382.187 281.821 380.933 281.261 380.08C280.701 379.2 279.701 378.76 278.261 378.76C277.728 378.76 277.154 378.787 276.541 378.84C275.928 378.893 275.368 379.053 274.861 379.32V383H271.261V378.56C272.221 378.053 273.354 377.6 274.661 377.2C275.968 376.8 277.501 376.6 279.261 376.6C280.781 376.6 281.994 376.8 282.901 377.2C283.834 377.573 284.541 378.08 285.021 378.72C285.528 379.333 285.848 380.04 285.981 380.84C286.141 381.613 286.221 382.387 286.221 383.16C286.221 384.84 286.181 386.453 286.101 388C286.048 389.52 286.021 391 286.021 392.44ZM277.261 395.76C277.901 395.76 278.474 395.667 278.981 395.48C279.488 395.267 279.928 395.013 280.301 394.72C280.701 394.4 281.034 394.053 281.301 393.68C281.594 393.307 281.834 392.947 282.021 392.6V387.84C280.288 387.84 278.874 387.96 277.781 388.2C276.714 388.413 275.874 388.707 275.261 389.08C274.648 389.453 274.221 389.907 273.981 390.44C273.768 390.947 273.661 391.493 273.661 392.08C273.661 393.28 273.981 394.2 274.621 394.84C275.261 395.453 276.141 395.76 277.261 395.76ZM309.514 395.32C308.954 396.093 308.061 396.813 306.834 397.48C305.634 398.12 304.208 398.44 302.554 398.44C300.794 398.44 299.248 398.187 297.914 397.68C296.608 397.147 295.514 396.413 294.634 395.48C293.754 394.52 293.101 393.373 292.674 392.04C292.248 390.68 292.034 389.173 292.034 387.52C292.034 383.973 292.968 381.267 294.834 379.4C296.728 377.533 299.288 376.6 302.514 376.6C303.981 376.6 305.194 376.693 306.154 376.88C307.114 377.067 307.994 377.36 308.794 377.76V382.96H305.194V379.12C304.794 378.88 303.994 378.76 302.794 378.76C301.781 378.76 300.888 378.907 300.114 379.2C299.341 379.493 298.688 379.973 298.154 380.64C297.621 381.307 297.221 382.2 296.954 383.32C296.688 384.44 296.554 385.813 296.554 387.44C296.554 388.507 296.701 389.533 296.994 390.52C297.288 391.48 297.728 392.333 298.314 393.08C298.901 393.8 299.634 394.373 300.514 394.8C301.421 395.227 302.474 395.44 303.674 395.44C304.314 395.44 304.874 395.373 305.354 395.24C305.861 395.107 306.301 394.973 306.674 394.84C307.048 394.68 307.381 394.507 307.674 394.32C307.968 394.133 308.248 393.933 308.514 393.72L309.514 395.32ZM312.892 377H322.492V379H319.852V391.32L319.612 395.64H319.852L321.372 392.08L329.292 377H337.092V379H334.132V396H337.092V398H327.492V396H330.132V383.2L330.572 379.08H330.332L328.652 383.04L320.612 398H312.892V396H315.852V379H312.892V377ZM340.628 386.96C340.628 383.387 340.975 380.44 341.668 378.12C342.388 375.8 343.428 373.973 344.788 372.64C346.175 371.28 347.881 370.347 349.908 369.84C351.935 369.307 354.268 369.04 356.908 369.04V367.6H359.468V372.88H353.988C352.495 372.88 351.108 373.027 349.828 373.32C348.548 373.587 347.428 374.093 346.468 374.84C345.508 375.56 344.721 376.56 344.108 377.84C343.495 379.093 343.135 380.707 343.028 382.68H343.268C343.988 381.213 345.135 379.987 346.708 379C348.281 378.013 350.135 377.52 352.268 377.52C355.068 377.52 357.281 378.36 358.908 380.04C360.535 381.693 361.348 384.147 361.348 387.4C361.348 389.027 361.108 390.52 360.628 391.88C360.148 393.213 359.441 394.373 358.508 395.36C357.601 396.32 356.481 397.067 355.148 397.6C353.841 398.133 352.348 398.4 350.668 398.4C349.175 398.4 347.801 398.147 346.548 397.64C345.321 397.133 344.268 396.4 343.388 395.44C342.508 394.453 341.828 393.253 341.348 391.84C340.868 390.4 340.628 388.773 340.628 386.96ZM345.148 387C345.148 388.76 345.308 390.24 345.628 391.44C345.948 392.64 346.388 393.627 346.948 394.4C347.535 395.147 348.201 395.693 348.948 396.04C349.721 396.36 350.548 396.52 351.428 396.52C353.188 396.52 354.521 395.787 355.428 394.32C356.361 392.853 356.828 390.72 356.828 387.92C356.828 386.533 356.668 385.347 356.348 384.36C356.055 383.373 355.641 382.56 355.108 381.92C354.601 381.28 354.001 380.813 353.308 380.52C352.615 380.227 351.868 380.08 351.068 380.08C349.708 380.08 348.575 380.293 347.668 380.72C346.761 381.12 346.068 381.587 345.588 382.12C345.428 382.84 345.308 383.587 345.228 384.36C345.175 385.133 345.148 386.013 345.148 387ZM364.964 387.52C364.964 385.76 365.217 384.2 365.724 382.84C366.231 381.48 366.937 380.347 367.844 379.44C368.777 378.507 369.897 377.8 371.204 377.32C372.537 376.84 374.004 376.6 375.604 376.6C377.471 376.6 379.071 376.867 380.404 377.4C381.764 377.907 382.871 378.64 383.724 379.6C384.577 380.533 385.204 381.68 385.604 383.04C386.031 384.373 386.244 385.867 386.244 387.52C386.244 389.28 385.991 390.84 385.484 392.2C385.004 393.533 384.297 394.667 383.364 395.6C382.457 396.507 381.337 397.2 380.004 397.68C378.697 398.16 377.231 398.4 375.604 398.4C373.791 398.4 372.217 398.147 370.884 397.64C369.551 397.107 368.444 396.373 367.564 395.44C366.684 394.48 366.031 393.333 365.604 392C365.177 390.667 364.964 389.173 364.964 387.52ZM369.484 387.52C369.484 388.8 369.604 389.987 369.844 391.08C370.084 392.173 370.471 393.12 371.004 393.92C371.564 394.72 372.271 395.36 373.124 395.84C374.004 396.293 375.071 396.52 376.324 396.52C377.897 396.52 379.191 395.8 380.204 394.36C381.217 392.92 381.724 390.64 381.724 387.52C381.724 386.24 381.604 385.053 381.364 383.96C381.124 382.84 380.737 381.88 380.204 381.08C379.697 380.253 379.031 379.613 378.204 379.16C377.404 378.707 376.417 378.48 375.244 378.48C373.484 378.48 372.084 379.2 371.044 380.64C370.004 382.08 369.484 384.373 369.484 387.52Z" fill="black"/>
<defs>
<linearGradient id="paint0_linear" x1="300" y1="206" x2="300" y2="306" gradientUnits="userSpaceOnUse">
<stop stop-color="#E6C292"/>
<stop offset="1" stop-color="#FEF0CA"/>
</linearGradient>
</defs>
</svg>
