<svg width="103" height="69" viewBox="0 0 103 69" fill="none" xmlns="http://www.w3.org/2000/svg">
<path fill-rule="evenodd" clip-rule="evenodd" d="M52.0612 56.8229C52.057 56.8336 52.0528 56.8442 52.0464 56.8569C52.0528 56.8463 52.0612 56.8038 52.0612 56.8229Z" fill="#C5CFD6"/>
<path fill-rule="evenodd" clip-rule="evenodd" d="M52.0514 56.8391C52.0514 56.8412 52.0493 56.8454 52.0493 56.8496C52.0493 56.8391 52.0682 56.8076 52.0514 56.8391Z" fill="#C5CFD6"/>
<path fill-rule="evenodd" clip-rule="evenodd" d="M52.1266 56.6566C52.1115 56.6998 52.092 56.7409 52.0747 56.7841C52.0834 56.7625 52.092 56.7452 52.1007 56.7236C51.8758 57.2857 52.0185 56.9203 52.1266 56.6566Z" fill="#C5CFD6"/>
<path fill-rule="evenodd" clip-rule="evenodd" d="M52.0782 56.7868C52.0695 56.8063 52.0609 56.8279 52.0522 56.8473C51.9895 56.9684 52.0782 56.7868 52.0782 56.7868Z" fill="#C5CFD6"/>
<path fill-rule="evenodd" clip-rule="evenodd" d="M52.0527 56.8397C52.0527 56.8377 52.0527 56.8377 52.0547 56.8357C52.0527 56.8377 52.0527 56.8377 52.0527 56.8397Z" fill="#C5CFD6"/>
<path fill-rule="evenodd" clip-rule="evenodd" d="M52.0426 56.8548C52.0298 56.8803 52.102 56.7571 52.0426 56.8548Z" fill="#C5CFD6"/>
<path fill-rule="evenodd" clip-rule="evenodd" d="M52.0518 56.8397L52.0558 56.8357C52.0538 56.8377 52.0538 56.8397 52.0518 56.8397Z" fill="#C5CFD6"/>
<path d="M98.5405 0.621643H4.48643C2.09818 0.621643 0.162109 2.55771 0.162109 4.94597V64.4054C0.162109 66.7937 2.09818 68.7298 4.48643 68.7298H98.5405C100.929 68.7298 102.865 66.7937 102.865 64.4054V4.94597C102.865 2.55771 100.929 0.621643 98.5405 0.621643Z" fill="#DDE3E9"/>
<path fill-rule="evenodd" clip-rule="evenodd" d="M39.0808 20.0811L8.81055 68.7298H69.3511L39.0808 20.0811Z" fill="#AFB9C5"/>
<path fill-rule="evenodd" clip-rule="evenodd" d="M68.8107 33.0541L42.3242 68.7298H95.2972L68.8107 33.0541Z" fill="#C5CFD6"/>
<path d="M80.1624 33.0541C85.5359 33.0541 89.8921 28.6979 89.8921 23.3243C89.8921 17.9508 85.5359 13.5946 80.1624 13.5946C74.7888 13.5946 70.4326 17.9508 70.4326 23.3243C70.4326 28.6979 74.7888 33.0541 80.1624 33.0541Z" fill="white"/>
</svg>
