<svg width="96" height="132" viewBox="0 0 96 132" fill="none" xmlns="http://www.w3.org/2000/svg">
<path fill-rule="evenodd" clip-rule="evenodd" d="M93.1949 1.443C89.5074 0.637428 85.4359 0.69909 81.6797 0.765544C61.5353 1.03948 41.7539 10.5768 28.8797 25.8158C17.9198 38.7892 14.9061 54.9188 12.7409 71.2237C12.5262 72.8426 12.4342 74.4512 12.3131 76.0734C12.287 76.4215 12.2482 76.732 12.2067 77.0244C11.3552 77.7857 10.9085 78.6732 11.4125 79.6483C9.5367 83.7533 7.94984 87.9624 6.58824 92.3037C2.5808 105.082 -1.49565 118.104 1.01551 131.541C1.60217 124.146 2.83622 116.585 4.31213 109.312C4.39702 108.894 4.48873 108.48 4.58418 108.067C4.59399 108.023 4.60301 107.98 4.61282 107.937C5.13535 105.709 5.81444 103.549 6.64031 101.422C6.64898 101.399 6.65731 101.376 6.66637 101.353C6.7754 101.073 6.89121 100.795 7.00553 100.517C7.24208 99.9404 7.48508 99.3652 7.74276 98.793C7.82992 98.5981 7.91367 98.4013 7.99403 98.203C9.19641 95.2561 9.7042 91.9357 10.7813 88.8865C11.039 88.1932 11.3084 87.5024 11.5906 86.8153C11.6072 86.7751 11.6242 86.7349 11.6412 86.6946C12.404 84.8457 13.2469 83.0193 14.138 81.2122C14.6224 80.8481 14.8812 79.9451 15.2988 79.1244C15.3852 78.9627 16.0606 77.8843 16.2617 77.2629C16.7865 76.2476 17.3093 75.232 17.8379 74.2186C17.8221 74.2245 17.8062 74.2304 17.7904 74.2363C18.3193 73.2631 18.8498 72.294 19.3761 71.3289C19.4919 71.117 19.6089 70.9047 19.7254 70.6921C19.9145 70.3535 20.1035 70.0153 20.2921 69.6779C22.0566 66.5202 23.9275 63.4257 25.8705 60.3695C26.564 59.2789 28.2206 57.715 28.5382 56.4904C28.5499 56.4446 28.5526 56.4025 28.5598 56.3586C32.7758 50.4372 37.6295 44.9754 43.4501 40.6477C42.7465 41.4083 41.251 43.9893 40.8557 44.5002C39.6457 46.0649 38.332 47.5213 37.0134 48.9955C34.652 51.6363 32.3465 54.3609 30.2979 57.2421C26.5515 62.5112 23.3194 68.0564 20.2642 73.7131C20.2351 73.7464 20.2035 73.7778 20.1759 73.8117C18.6404 75.7046 17.6738 78.5654 16.5684 80.7307C20.9429 78.7046 25.78 77.3847 30.2696 75.5857C34.7468 73.7921 39.1021 71.7948 43.3068 69.4494C48.8954 66.3323 54.6927 62.8128 59.973 58.83C66.0242 55.0764 71.1092 49.91 75.5976 44.4884C80.9082 38.0737 85.7751 31.6029 88.785 23.8141C90.2635 19.9867 91.4266 15.9958 92.1163 11.9583C92.1465 11.7822 92.185 11.5913 92.2269 11.3931C92.9324 9.99862 93.5632 8.57281 94.0925 7.11414C94.9331 4.80079 96.9183 2.25596 93.1949 1.443Z" fill="#69A1AC"/>
</svg>
