<svg width="108" height="99" viewBox="0 0 108 99" fill="none" xmlns="http://www.w3.org/2000/svg">
<path fill-rule="evenodd" clip-rule="evenodd" d="M61.3603 41.5446C60.2051 40.2937 58.9077 39.1653 57.3844 38.3603C56.9992 38.157 54.1305 36.794 53.9436 37.0931C53.5084 37.7896 61.0133 41.1453 61.3603 41.5446ZM74.9617 33.1891C74.9523 33.2419 75.9471 34.9299 76.2178 35.4488C76.7943 36.5521 77.3265 37.6771 77.8271 38.804C77.0859 36.8135 76.3243 34.9673 74.9617 33.1891ZM5.39996 46.9285C4.44194 47.2371 3.2901 46.021 4.53275 45.7215C5.53823 45.481 5.48891 45.4244 5.94039 44.6145C6.307 43.9568 6.53286 43.1546 6.85457 42.4645C7.53695 41.0006 8.311 39.6046 9.26114 38.2964C11.2974 35.4921 13.7785 33.0757 16.5612 31.0394C21.4174 27.486 26.8625 24.2383 32.6385 22.6067C41.8225 20.0123 52.2751 19.8518 61.4734 21.6508C67.1702 22.7647 72.3764 24.7012 76.1592 29.2882C78.0499 31.5803 79.5339 34.2659 80.1827 37.2229C80.352 37.996 80.3203 38.8554 80.5323 39.6122C80.8581 40.7757 80.7143 40.466 82.0752 40.6923C83.5611 40.9394 85.0458 41.1917 86.5301 41.4483C90.4163 42.1205 94.3253 42.8342 98.1121 43.9253C99.3584 44.284 100.577 44.7227 101.768 45.2325C102.669 45.6175 106.255 46.8269 106.69 47.9968C107.416 49.9435 104.985 49.061 104.23 48.6371C103.569 48.2657 102.89 47.9192 102.201 47.6003C100.466 46.7974 98.6579 46.1764 96.8095 45.6821C94.812 45.1477 92.7735 44.7488 90.743 44.3494C88.8493 43.9773 86.9487 43.6386 85.0455 43.315C83.9883 43.1351 82.9301 42.9603 81.872 42.7855C81.5105 42.7258 80.873 42.4128 80.9212 42.8828C78.6966 42.454 76.2908 42.5159 74.0247 42.3975C71.2492 42.2529 68.4634 42.1341 65.6786 42.221C63.6701 42.2837 61.6599 42.4154 59.6616 42.6852C58.4939 42.843 57.3449 43.0738 56.1993 43.3658C55.57 43.5265 53.0885 43.8668 52.7457 44.4154C52.893 44.1797 55.6317 44.4082 55.9802 44.3949C57.3745 44.3426 58.7579 44.2045 60.1471 44.0493C62.7249 43.7613 65.3039 43.6109 67.8896 43.6329C67.8798 44.0866 66.1135 44.8953 65.6823 45.1961C64.7155 45.8709 63.7896 46.6069 62.9257 47.4141C61.4039 48.8358 59.5817 50.5971 58.5291 52.2817C58.8393 51.7852 60.3697 51.1392 60.9128 50.7599C61.7829 50.152 62.6351 49.5037 63.4416 48.8105C64.1861 48.1704 64.8809 47.4791 65.564 46.7731C66.2472 46.0665 67.1743 44.5976 68.072 44.1271C68.1262 44.0986 68.5175 44.4078 68.7398 44.3026C68.9638 44.1968 69.243 43.6674 69.2999 43.6457C70.1355 43.3233 71.7225 43.7244 72.6009 43.7651C74.8791 43.8699 77.155 44.0073 79.4316 44.1326C80.1369 44.1713 80.7362 44.011 81.0026 44.5312C81.2864 45.086 80.7663 46.5444 80.6184 47.1488C80.0695 49.3932 79.0945 51.4058 77.5599 53.1446C74.6859 56.4017 71.142 58.5731 67.1385 60.0255C51.8039 65.5888 35.4899 67.8168 20.16 62.0298C13.8135 59.6336 4.25553 55.3523 5.39996 46.9285Z" fill="#89C5CC"/>
</svg>
