<svg width="173" height="327" viewBox="0 0 173 327" fill="none" xmlns="http://www.w3.org/2000/svg">
<path d="M163.432 0.162109H8.83761C4.0611 0.162109 0.188965 4.03424 0.188965 8.81076V318C0.188965 322.776 4.0611 326.649 8.83761 326.649H163.432C168.209 326.649 172.081 322.776 172.081 318V8.81076C172.081 4.03424 168.209 0.162109 163.432 0.162109Z" fill="#131313"/>
<path d="M85.5941 306.108C94.5501 306.108 101.81 298.848 101.81 289.892C101.81 280.936 94.5501 273.676 85.5941 273.676C76.6382 273.676 69.3779 280.936 69.3779 289.892C69.3779 298.848 76.6382 306.108 85.5941 306.108Z" fill="white"/>
<path d="M71.5401 21.7837C72.7342 21.7837 73.7023 20.8157 73.7023 19.6216C73.7023 18.4274 72.7342 17.4594 71.5401 17.4594C70.346 17.4594 69.3779 18.4274 69.3779 19.6216C69.3779 20.8157 70.346 21.7837 71.5401 21.7837Z" fill="white"/>
<path d="M99.648 17.4594H81.2696C80.0755 17.4594 79.1074 18.4274 79.1074 19.6216C79.1074 20.8157 80.0755 21.7837 81.2696 21.7837H99.648C100.842 21.7837 101.81 20.8157 101.81 19.6216C101.81 18.4274 100.842 17.4594 99.648 17.4594Z" fill="white"/>
<path d="M152.622 30.4324H19.6485C17.2603 30.4324 15.3242 32.3684 15.3242 34.7567V84.4864C15.3242 86.8747 17.2603 88.8107 19.6485 88.8107H152.622C155.01 88.8107 156.946 86.8747 156.946 84.4864V34.7567C156.946 32.3684 155.01 30.4324 152.622 30.4324Z" fill="white"/>
<path d="M133.162 47.9459H60.7296C58.9384 47.9459 57.4863 49.398 57.4863 51.1892V53.4594C57.4863 55.2506 58.9384 56.7027 60.7296 56.7027H133.162C134.953 56.7027 136.405 55.2506 136.405 53.4594V51.1892C136.405 49.398 134.953 47.9459 133.162 47.9459Z" fill="#DDE3E9"/>
<path d="M107.216 62.5405H60.7296C58.9384 62.5405 57.4863 63.9926 57.4863 65.7838V68.054C57.4863 69.8452 58.9384 71.2973 60.7296 71.2973H107.216C109.007 71.2973 110.459 69.8452 110.459 68.054V65.7838C110.459 63.9926 109.007 62.5405 107.216 62.5405Z" fill="#DDE3E9"/>
<path d="M38.0272 72.5945C45.1919 72.5945 51.0001 66.7863 51.0001 59.6215C51.0001 52.4568 45.1919 46.6486 38.0272 46.6486C30.8624 46.6486 25.0542 52.4568 25.0542 59.6215C25.0542 66.7863 30.8624 72.5945 38.0272 72.5945Z" fill="#C5CFD6"/>
<path d="M152.622 97.4594H19.6485C17.2603 97.4594 15.3242 99.3955 15.3242 101.784V138.54C15.3242 140.929 17.2603 142.865 19.6485 142.865H152.622C155.01 142.865 156.946 140.929 156.946 138.54V101.784C156.946 99.3955 155.01 97.4594 152.622 97.4594Z" fill="white"/>
<path d="M133.162 111.081H60.7296C58.9384 111.081 57.4863 112.533 57.4863 114.324V114.649C57.4863 116.44 58.9384 117.892 60.7296 117.892H133.162C134.953 117.892 136.405 116.44 136.405 114.649V114.324C136.405 112.533 134.953 111.081 133.162 111.081Z" fill="#DDE3E9"/>
<path d="M107.216 122.432H60.7296C58.9384 122.432 57.4863 123.884 57.4863 125.676V126C57.4863 127.791 58.9384 129.243 60.7296 129.243H107.216C109.007 129.243 110.459 127.791 110.459 126V125.676C110.459 123.884 109.007 122.432 107.216 122.432Z" fill="#DDE3E9"/>
<path d="M38.0272 133.135C45.1919 133.135 51.0001 127.327 51.0001 120.162C51.0001 112.997 45.1919 107.189 38.0272 107.189C30.8624 107.189 25.0542 112.997 25.0542 120.162C25.0542 127.327 30.8624 133.135 38.0272 133.135Z" fill="#C5CFD6"/>
<path d="M152.622 151.513H19.6485C17.2603 151.513 15.3242 153.449 15.3242 155.838V192.594C15.3242 194.983 17.2603 196.919 19.6485 196.919H152.622C155.01 196.919 156.946 194.983 156.946 192.594V155.838C156.946 153.449 155.01 151.513 152.622 151.513Z" fill="white"/>
<path d="M133.162 165.135H60.7296C58.9384 165.135 57.4863 166.587 57.4863 168.378V168.703C57.4863 170.494 58.9384 171.946 60.7296 171.946H133.162C134.953 171.946 136.405 170.494 136.405 168.703V168.378C136.405 166.587 134.953 165.135 133.162 165.135Z" fill="#DDE3E9"/>
<path d="M107.216 176.486H60.7296C58.9384 176.486 57.4863 177.938 57.4863 179.73V180.054C57.4863 181.845 58.9384 183.297 60.7296 183.297H107.216C109.007 183.297 110.459 181.845 110.459 180.054V179.73C110.459 177.938 109.007 176.486 107.216 176.486Z" fill="#DDE3E9"/>
<path d="M38.0272 187.189C45.1919 187.189 51.0001 181.381 51.0001 174.216C51.0001 167.051 45.1919 161.243 38.0272 161.243C30.8624 161.243 25.0542 167.051 25.0542 174.216C25.0542 181.381 30.8624 187.189 38.0272 187.189Z" fill="#AFB9C5"/>
<path d="M152.622 205.568H19.6485C17.2603 205.568 15.3242 207.504 15.3242 209.892V246.649C15.3242 249.037 17.2603 250.973 19.6485 250.973H152.622C155.01 250.973 156.946 249.037 156.946 246.649V209.892C156.946 207.504 155.01 205.568 152.622 205.568Z" fill="white"/>
<path d="M133.162 219.189H60.7296C58.9384 219.189 57.4863 220.641 57.4863 222.432V222.757C57.4863 224.548 58.9384 226 60.7296 226H133.162C134.953 226 136.405 224.548 136.405 222.757V222.432C136.405 220.641 134.953 219.189 133.162 219.189Z" fill="#DDE3E9"/>
<path d="M107.216 230.54H60.7296C58.9384 230.54 57.4863 231.993 57.4863 233.784V234.108C57.4863 235.899 58.9384 237.351 60.7296 237.351H107.216C109.007 237.351 110.459 235.899 110.459 234.108V233.784C110.459 231.993 109.007 230.54 107.216 230.54Z" fill="#DDE3E9"/>
<path d="M38.0272 241.243C45.1919 241.243 51.0001 235.435 51.0001 228.27C51.0001 221.105 45.1919 215.297 38.0272 215.297C30.8624 215.297 25.0542 221.105 25.0542 228.27C25.0542 235.435 30.8624 241.243 38.0272 241.243Z" fill="#C5CFD6"/>
</svg>
