<svg width="225" height="327" viewBox="0 0 225 327" fill="none" xmlns="http://www.w3.org/2000/svg">
<path fill-rule="evenodd" clip-rule="evenodd" d="M13.7725 235.946C12.3403 235.946 10.9124 235.975 9.48194 236.049C8.39157 236.106 6.72533 235.88 5.8027 236.56C4.8441 237.266 4.91011 238.711 5.05986 239.731C5.8515 245.127 7.78359 249.913 11.8255 253.736C18.0489 259.623 25.1835 262.614 33.6259 263.946C39.5562 264.882 45.0309 263.583 49.3965 259.365C52.5862 265.285 55.006 271.837 56.2202 278.449C56.8192 281.711 57.0021 284.935 56.8968 288.257C56.829 290.385 56.7116 292.508 56.4835 294.626C56.3846 295.546 55.9153 296.939 56.2757 297.808C56.6985 298.83 58.1243 298.929 58.7644 298.058C59.2971 297.333 59.1993 295.91 59.3087 295.052C59.49 293.627 59.658 292.201 59.7782 290.77C59.9734 288.453 60.1178 286.129 60.1072 283.804C60.0828 278.578 58.9211 273.333 57.3319 268.372C54.2832 258.856 49.3367 250.399 41.6435 243.764C36.9132 239.683 31.4994 238.031 25.3571 237.144C21.533 236.592 17.6465 235.946 13.7725 235.946Z" fill="#89C5CC"/>
<path fill-rule="evenodd" clip-rule="evenodd" d="M35.8606 273.784C20.4023 273.784 9.99119 286.242 5.06863 299.191C3.21302 304.072 2.77811 309.431 2.06295 314.556C1.83334 316.201 1.9184 318.707 1.25084 320.172C1.00857 320.703 0.453152 320.894 0.71871 321.618C0.879462 322.057 1.19489 322.325 1.66854 322.412C2.6409 322.591 4.01577 321.532 4.8494 321.114C11.764 317.646 16.3071 312.285 20.0133 305.724C22.3106 301.658 24.6416 297.437 26.0064 292.973C26.84 290.246 27.3253 287.374 27.6104 284.545C27.7225 283.431 27.8311 282.29 27.8245 281.169C27.818 280.057 27.3005 279.469 26.9286 278.501C32.0866 276.549 37.9086 276.017 43.1334 278.04C47.9659 279.911 51.9801 283.528 54.2279 288.071C54.8119 289.252 55.2622 290.498 55.5903 291.768C55.805 292.601 55.8154 293.68 56.2133 294.433C57.1784 296.257 59.2086 295.037 59.0137 293.339C58.4702 288.603 55.7604 283.847 52.2971 280.554C47.9289 276.401 42.0079 273.784 35.8606 273.784Z" fill="#89C5CC"/>
<path d="M215.784 0.270264H61.1892C56.4127 0.270264 52.5405 4.1424 52.5405 8.91891V318.108C52.5405 322.885 56.4127 326.757 61.1892 326.757H215.784C220.56 326.757 224.432 322.885 224.432 318.108V8.91891C224.432 4.1424 220.56 0.270264 215.784 0.270264Z" fill="#131313"/>
<path d="M137.946 306.216C146.902 306.216 154.162 298.956 154.162 290C154.162 281.044 146.902 273.784 137.946 273.784C128.99 273.784 121.729 281.044 121.729 290C121.729 298.956 128.99 306.216 137.946 306.216Z" fill="white"/>
<path d="M123.892 21.8919C125.086 21.8919 126.054 20.9239 126.054 19.7297C126.054 18.5356 125.086 17.5676 123.892 17.5676C122.698 17.5676 121.729 18.5356 121.729 19.7297C121.729 20.9239 122.698 21.8919 123.892 21.8919Z" fill="white"/>
<path d="M152 17.5676H133.622C132.428 17.5676 131.459 18.5356 131.459 19.7297C131.459 20.9239 132.428 21.8919 133.622 21.8919H152C153.194 21.8919 154.162 20.9239 154.162 19.7297C154.162 18.5356 153.194 17.5676 152 17.5676Z" fill="white"/>
<path d="M204.973 30.5405H71.9996C69.6114 30.5405 67.6753 32.4766 67.6753 34.8649V84.5946C67.6753 86.9828 69.6114 88.9189 71.9996 88.9189H204.973C207.361 88.9189 209.297 86.9828 209.297 84.5946V34.8649C209.297 32.4766 207.361 30.5405 204.973 30.5405Z" fill="white"/>
<path d="M153.081 48.054H80.6485C78.8573 48.054 77.4053 49.5061 77.4053 51.2973V53.5675C77.4053 55.3587 78.8573 56.8108 80.6485 56.8108H153.081C154.872 56.8108 156.324 55.3587 156.324 53.5675V51.2973C156.324 49.5061 154.872 48.054 153.081 48.054Z" fill="#DDE3E9"/>
<path d="M127.135 62.6486H80.6485C78.8573 62.6486 77.4053 64.1007 77.4053 65.8919V68.1621C77.4053 69.9533 78.8573 71.4054 80.6485 71.4054H127.135C128.926 71.4054 130.378 69.9533 130.378 68.1621V65.8919C130.378 64.1007 128.926 62.6486 127.135 62.6486Z" fill="#DDE3E9"/>
<path d="M194.162 67.2973C198.341 67.2973 201.729 63.9091 201.729 59.7297C201.729 55.5502 198.341 52.1621 194.162 52.1621C189.982 52.1621 186.594 55.5502 186.594 59.7297C186.594 63.9091 189.982 67.2973 194.162 67.2973Z" fill="#DDE3E9"/>
<path d="M194.162 62.9729C195.953 62.9729 197.405 61.5209 197.405 59.7297C197.405 57.9385 195.953 56.4865 194.162 56.4865C192.371 56.4865 190.918 57.9385 190.918 59.7297C190.918 61.5209 192.371 62.9729 194.162 62.9729Z" fill="#F2F2F2"/>
<path d="M204.973 97.5676H71.9996C69.6114 97.5676 67.6753 99.5036 67.6753 101.892V138.649C67.6753 141.037 69.6114 142.973 71.9996 142.973H204.973C207.361 142.973 209.297 141.037 209.297 138.649V101.892C209.297 99.5036 207.361 97.5676 204.973 97.5676Z" fill="white"/>
<path d="M185.513 111.189H113.081C111.289 111.189 109.837 112.641 109.837 114.432V114.757C109.837 116.548 111.289 118 113.081 118H185.513C187.304 118 188.756 116.548 188.756 114.757V114.432C188.756 112.641 187.304 111.189 185.513 111.189Z" fill="#DDE3E9"/>
<path d="M159.567 122.541H113.081C111.289 122.541 109.837 123.993 109.837 125.784V126.108C109.837 127.899 111.289 129.351 113.081 129.351H159.567C161.358 129.351 162.81 127.899 162.81 126.108V125.784C162.81 123.993 161.358 122.541 159.567 122.541Z" fill="#DDE3E9"/>
<path d="M90.3782 133.243C97.543 133.243 103.351 127.435 103.351 120.27C103.351 113.106 97.543 107.297 90.3782 107.297C83.2135 107.297 77.4053 113.106 77.4053 120.27C77.4053 127.435 83.2135 133.243 90.3782 133.243Z" fill="#C5CFD6"/>
<path d="M204.973 151.622H71.9996C69.6114 151.622 67.6753 153.558 67.6753 155.946V192.703C67.6753 195.091 69.6114 197.027 71.9996 197.027H204.973C207.361 197.027 209.297 195.091 209.297 192.703V155.946C209.297 153.558 207.361 151.622 204.973 151.622Z" fill="white"/>
<path d="M153.081 165.243H80.6485C78.8573 165.243 77.4053 166.695 77.4053 168.486V168.811C77.4053 170.602 78.8573 172.054 80.6485 172.054H153.081C154.872 172.054 156.324 170.602 156.324 168.811V168.486C156.324 166.695 154.872 165.243 153.081 165.243Z" fill="#DDE3E9"/>
<path d="M127.135 176.595H80.6485C78.8573 176.595 77.4053 178.047 77.4053 179.838V180.162C77.4053 181.953 78.8573 183.405 80.6485 183.405H127.135C128.926 183.405 130.378 181.953 130.378 180.162V179.838C130.378 178.047 128.926 176.595 127.135 176.595Z" fill="#AFB9C5"/>
<path d="M194.162 181.892C198.341 181.892 201.729 178.504 201.729 174.324C201.729 170.145 198.341 166.757 194.162 166.757C189.982 166.757 186.594 170.145 186.594 174.324C186.594 178.504 189.982 181.892 194.162 181.892Z" fill="#DDE3E9"/>
<path d="M194.162 177.568C195.953 177.568 197.405 176.115 197.405 174.324C197.405 172.533 195.953 171.081 194.162 171.081C192.371 171.081 190.918 172.533 190.918 174.324C190.918 176.115 192.371 177.568 194.162 177.568Z" fill="#F2F2F2"/>
<path d="M204.973 205.676H71.9996C69.6114 205.676 67.6753 207.612 67.6753 210V246.757C67.6753 249.145 69.6114 251.081 71.9996 251.081H204.973C207.361 251.081 209.297 249.145 209.297 246.757V210C209.297 207.612 207.361 205.676 204.973 205.676Z" fill="white"/>
<path d="M185.513 219.297H113.081C111.289 219.297 109.837 220.749 109.837 222.541V222.865C109.837 224.656 111.289 226.108 113.081 226.108H185.513C187.304 226.108 188.756 224.656 188.756 222.865V222.541C188.756 220.749 187.304 219.297 185.513 219.297Z" fill="#DDE3E9"/>
<path d="M159.567 230.649H113.081C111.289 230.649 109.837 232.101 109.837 233.892V234.216C109.837 236.007 111.289 237.459 113.081 237.459H159.567C161.358 237.459 162.81 236.007 162.81 234.216V233.892C162.81 232.101 161.358 230.649 159.567 230.649Z" fill="#DDE3E9"/>
<path d="M90.3782 241.351C97.543 241.351 103.351 235.543 103.351 228.378C103.351 221.214 97.543 215.405 90.3782 215.405C83.2135 215.405 77.4053 221.214 77.4053 228.378C77.4053 235.543 83.2135 241.351 90.3782 241.351Z" fill="#C5CFD6"/>
</svg>
