<svg width="364" height="375" viewBox="0 0 364 375" fill="none" xmlns="http://www.w3.org/2000/svg">
<path d="M354.405 0.297241H9.54025C4.76373 0.297241 0.891602 4.16937 0.891602 8.94589V365.703C0.891602 370.479 4.76373 374.351 9.54025 374.351H354.405C359.182 374.351 363.054 370.479 363.054 365.703V8.94589C363.054 4.16937 359.182 0.297241 354.405 0.297241Z" fill="#F2F2F2"/>
<path d="M337.108 46.7838H278.729C273.953 46.7838 270.081 50.6559 270.081 55.4324V125.703C270.081 130.479 273.953 134.351 278.729 134.351H337.108C341.884 134.351 345.756 130.479 345.756 125.703V55.4324C345.756 50.6559 341.884 46.7838 337.108 46.7838Z" fill="white"/>
<path d="M307.918 97.5945C317.471 97.5945 325.216 89.8503 325.216 80.2972C325.216 70.7442 317.471 62.9999 307.918 62.9999C298.365 62.9999 290.621 70.7442 290.621 80.2972C290.621 89.8503 298.365 97.5945 307.918 97.5945Z" fill="#DDE3E9"/>
<path d="M331.702 101.919H284.135C282.344 101.919 280.892 103.371 280.892 105.162C280.892 106.953 282.344 108.405 284.135 108.405H331.702C333.494 108.405 334.946 106.953 334.946 105.162C334.946 103.371 333.494 101.919 331.702 101.919Z" fill="#DDE3E9"/>
<path d="M323.054 112.73H292.784C290.993 112.73 289.541 114.182 289.541 115.973C289.541 117.764 290.993 119.216 292.784 119.216H323.054C324.845 119.216 326.297 117.764 326.297 115.973C326.297 114.182 324.845 112.73 323.054 112.73Z" fill="#DDE3E9"/>
<path fill-rule="evenodd" clip-rule="evenodd" d="M9.54025 0.297241H354.405C359.182 0.297241 363.054 4.16937 363.054 8.94589V29.4864H0.891602V8.94589C0.891602 4.16937 4.76373 0.297241 9.54025 0.297241Z" fill="#131313"/>
<path d="M14.9459 19.7567C17.3342 19.7567 19.2702 17.8206 19.2702 15.4324C19.2702 13.0441 17.3342 11.108 14.9459 11.108C12.5576 11.108 10.6216 13.0441 10.6216 15.4324C10.6216 17.8206 12.5576 19.7567 14.9459 19.7567Z" fill="#F2F2F2"/>
<path d="M27.919 19.7567C30.3073 19.7567 32.2433 17.8206 32.2433 15.4324C32.2433 13.0441 30.3073 11.108 27.919 11.108C25.5308 11.108 23.5947 13.0441 23.5947 15.4324C23.5947 17.8206 25.5308 19.7567 27.919 19.7567Z" fill="#F2F2F2"/>
<path d="M40.8917 19.7567C43.2799 19.7567 45.216 17.8206 45.216 15.4324C45.216 13.0441 43.2799 11.108 40.8917 11.108C38.5034 11.108 36.5674 13.0441 36.5674 15.4324C36.5674 17.8206 38.5034 19.7567 40.8917 19.7567Z" fill="#F2F2F2"/>
<path d="M337.108 143H278.729C273.953 143 270.081 146.872 270.081 151.649V344.081C270.081 348.858 273.953 352.73 278.729 352.73H337.108C341.884 352.73 345.756 348.858 345.756 344.081V151.649C345.756 146.872 341.884 143 337.108 143Z" fill="white"/>
<path d="M321.972 162.459H293.864C291.476 162.459 289.54 164.395 289.54 166.784V186.243C289.54 188.631 291.476 190.568 293.864 190.568H321.972C324.361 190.568 326.297 188.631 326.297 186.243V166.784C326.297 164.395 324.361 162.459 321.972 162.459Z" fill="#DDE3E9"/>
<path d="M321.972 199.216H293.864C291.476 199.216 289.54 201.152 289.54 203.541V221.919C289.54 224.307 291.476 226.243 293.864 226.243H321.972C324.361 226.243 326.297 224.307 326.297 221.919V203.541C326.297 201.152 324.361 199.216 321.972 199.216Z" fill="#AFB9C5"/>
<path d="M321.972 234.892H293.864C291.476 234.892 289.54 236.828 289.54 239.216V257.595C289.54 259.983 291.476 261.919 293.864 261.919H321.972C324.361 261.919 326.297 259.983 326.297 257.595V239.216C326.297 236.828 324.361 234.892 321.972 234.892Z" fill="#DDE3E9"/>
<path d="M321.972 306.243H293.864C291.476 306.243 289.54 308.179 289.54 310.568V328.946C289.54 331.334 291.476 333.27 293.864 333.27H321.972C324.361 333.27 326.297 331.334 326.297 328.946V310.568C326.297 308.179 324.361 306.243 321.972 306.243Z" fill="#DDE3E9"/>
<path d="M321.972 270.568H293.864C291.476 270.568 289.54 272.504 289.54 274.892V293.27C289.54 295.658 291.476 297.595 293.864 297.595H321.972C324.361 297.595 326.297 295.658 326.297 293.27V274.892C326.297 272.504 324.361 270.568 321.972 270.568Z" fill="#C5CFD6"/>
<path d="M257.108 47.8648H22.5133C20.125 47.8648 18.189 49.8009 18.189 52.1891V94.3513C18.189 96.7395 20.125 98.6756 22.5133 98.6756H257.108C259.496 98.6756 261.432 96.7395 261.432 94.3513V52.1891C261.432 49.8009 259.496 47.8648 257.108 47.8648Z" fill="white"/>
<path d="M205.216 63.108H31.1617C29.3705 63.108 27.9185 64.5601 27.9185 66.3513V67.4864C27.9185 69.2776 29.3705 70.7296 31.1617 70.7296H205.216C207.007 70.7296 208.459 69.2776 208.459 67.4864V66.3513C208.459 64.5601 207.007 63.108 205.216 63.108Z" fill="#DDE3E9"/>
<path d="M145.86 75.8107H31.1617C29.3705 75.8107 27.9185 77.2628 27.9185 79.054V80.1891C27.9185 81.9803 29.3705 83.4324 31.1617 83.4324H145.86C147.651 83.4324 149.103 81.9803 149.103 80.1891V79.054C149.103 77.2628 147.651 75.8107 145.86 75.8107Z" fill="#DDE3E9"/>
<path d="M235.437 80.8378C239.616 80.8378 243.004 77.4497 243.004 73.2702C243.004 69.0908 239.616 65.7026 235.437 65.7026C231.257 65.7026 227.869 69.0908 227.869 73.2702C227.869 77.4497 231.257 80.8378 235.437 80.8378Z" fill="#DDE3E9"/>
<path d="M235.437 76.5135C237.228 76.5135 238.68 75.0614 238.68 73.2702C238.68 71.479 237.228 70.027 235.437 70.027C233.645 70.027 232.193 71.479 232.193 73.2702C232.193 75.0614 233.645 76.5135 235.437 76.5135Z" fill="#F2F2F2"/>
<path d="M257.108 107.324H22.5133C20.125 107.324 18.189 109.26 18.189 111.649V145.162C18.189 147.55 20.125 149.486 22.5133 149.486H257.108C259.496 149.486 261.432 147.55 261.432 145.162V111.649C261.432 109.26 259.496 107.324 257.108 107.324Z" fill="white"/>
<path d="M205.297 119.973H31.0806C29.3342 119.973 27.9185 121.389 27.9185 123.135C27.9185 124.881 29.3342 126.297 31.0806 126.297H205.297C207.043 126.297 208.459 124.881 208.459 123.135C208.459 121.389 207.043 119.973 205.297 119.973Z" fill="#DDE3E9"/>
<path d="M145.941 130.513H31.0806C29.3342 130.513 27.9185 131.929 27.9185 133.676C27.9185 135.422 29.3342 136.838 31.0806 136.838H145.941C147.687 136.838 149.103 135.422 149.103 133.676C149.103 131.929 147.687 130.513 145.941 130.513Z" fill="#DDE3E9"/>
<path d="M235.437 135.973C239.616 135.973 243.004 132.585 243.004 128.405C243.004 124.226 239.616 120.838 235.437 120.838C231.257 120.838 227.869 124.226 227.869 128.405C227.869 132.585 231.257 135.973 235.437 135.973Z" fill="#DDE3E9"/>
<path d="M235.437 131.649C237.228 131.649 238.68 130.197 238.68 128.405C238.68 126.614 237.228 125.162 235.437 125.162C233.645 125.162 232.193 126.614 232.193 128.405C232.193 130.197 233.645 131.649 235.437 131.649Z" fill="#F2F2F2"/>
<path d="M257.108 158.135H22.5133C20.125 158.135 18.189 160.071 18.189 162.459V195.973C18.189 198.361 20.125 200.297 22.5133 200.297H257.108C259.496 200.297 261.432 198.361 261.432 195.973V162.459C261.432 160.071 259.496 158.135 257.108 158.135Z" fill="white"/>
<path d="M205.297 170.784H31.0806C29.3342 170.784 27.9185 172.199 27.9185 173.946C27.9185 175.692 29.3342 177.108 31.0806 177.108H205.297C207.043 177.108 208.459 175.692 208.459 173.946C208.459 172.199 207.043 170.784 205.297 170.784Z" fill="#DDE3E9"/>
<path d="M145.941 181.324H31.0806C29.3342 181.324 27.9185 182.74 27.9185 184.486C27.9185 186.233 29.3342 187.649 31.0806 187.649H145.941C147.687 187.649 149.103 186.233 149.103 184.486C149.103 182.74 147.687 181.324 145.941 181.324Z" fill="#DDE3E9"/>
<path d="M235.437 186.784C239.616 186.784 243.004 183.396 243.004 179.216C243.004 175.037 239.616 171.649 235.437 171.649C231.257 171.649 227.869 175.037 227.869 179.216C227.869 183.396 231.257 186.784 235.437 186.784Z" fill="#DDE3E9"/>
<path d="M235.437 182.459C237.228 182.459 238.68 181.007 238.68 179.216C238.68 177.425 237.228 175.973 235.437 175.973C233.645 175.973 232.193 177.425 232.193 179.216C232.193 181.007 233.645 182.459 235.437 182.459Z" fill="#AFB9C5"/>
<path d="M257.108 310.568H22.5133C20.125 310.568 18.189 312.504 18.189 314.892V348.405C18.189 350.794 20.125 352.73 22.5133 352.73H257.108C259.496 352.73 261.432 350.794 261.432 348.405V314.892C261.432 312.504 259.496 310.568 257.108 310.568Z" fill="white"/>
<path d="M205.297 323.216H31.0806C29.3342 323.216 27.9185 324.632 27.9185 326.378C27.9185 328.125 29.3342 329.54 31.0806 329.54H205.297C207.043 329.54 208.459 328.125 208.459 326.378C208.459 324.632 207.043 323.216 205.297 323.216Z" fill="#DDE3E9"/>
<path d="M145.941 333.757H31.0806C29.3342 333.757 27.9185 335.172 27.9185 336.919C27.9185 338.665 29.3342 340.081 31.0806 340.081H145.941C147.687 340.081 149.103 338.665 149.103 336.919C149.103 335.172 147.687 333.757 145.941 333.757Z" fill="#DDE3E9"/>
<path d="M235.437 339.216C239.616 339.216 243.004 335.828 243.004 331.649C243.004 327.469 239.616 324.081 235.437 324.081C231.257 324.081 227.869 327.469 227.869 331.649C227.869 335.828 231.257 339.216 235.437 339.216Z" fill="#DDE3E9"/>
<path d="M235.437 334.892C237.228 334.892 238.68 333.44 238.68 331.649C238.68 329.857 237.228 328.405 235.437 328.405C233.645 328.405 232.193 329.857 232.193 331.649C232.193 333.44 233.645 334.892 235.437 334.892Z" fill="#F2F2F2"/>
<path d="M257.108 259.757H22.5133C20.125 259.757 18.189 261.693 18.189 264.081V297.595C18.189 299.983 20.125 301.919 22.5133 301.919H257.108C259.496 301.919 261.432 299.983 261.432 297.595V264.081C261.432 261.693 259.496 259.757 257.108 259.757Z" fill="white"/>
<path d="M205.297 272.405H31.0806C29.3342 272.405 27.9185 273.821 27.9185 275.567C27.9185 277.314 29.3342 278.73 31.0806 278.73H205.297C207.043 278.73 208.459 277.314 208.459 275.567C208.459 273.821 207.043 272.405 205.297 272.405Z" fill="#DDE3E9"/>
<path d="M145.941 282.946H31.0806C29.3342 282.946 27.9185 284.362 27.9185 286.108C27.9185 287.854 29.3342 289.27 31.0806 289.27H145.941C147.687 289.27 149.103 287.854 149.103 286.108C149.103 284.362 147.687 282.946 145.941 282.946Z" fill="#DDE3E9"/>
<path d="M235.437 288.405C239.616 288.405 243.004 285.017 243.004 280.838C243.004 276.658 239.616 273.27 235.437 273.27C231.257 273.27 227.869 276.658 227.869 280.838C227.869 285.017 231.257 288.405 235.437 288.405Z" fill="#DDE3E9"/>
<path d="M235.437 284.081C237.228 284.081 238.68 282.629 238.68 280.838C238.68 279.047 237.228 277.595 235.437 277.595C233.645 277.595 232.193 279.047 232.193 280.838C232.193 282.629 233.645 284.081 235.437 284.081Z" fill="#F2F2F2"/>
<path d="M257.108 208.946H22.5133C20.125 208.946 18.189 210.882 18.189 213.27V246.784C18.189 249.172 20.125 251.108 22.5133 251.108H257.108C259.496 251.108 261.432 249.172 261.432 246.784V213.27C261.432 210.882 259.496 208.946 257.108 208.946Z" fill="white"/>
<path d="M205.297 221.595H31.0806C29.3342 221.595 27.9185 223.01 27.9185 224.757C27.9185 226.503 29.3342 227.919 31.0806 227.919H205.297C207.043 227.919 208.459 226.503 208.459 224.757C208.459 223.01 207.043 221.595 205.297 221.595Z" fill="#DDE3E9"/>
<path d="M145.941 232.135H31.0806C29.3342 232.135 27.9185 233.551 27.9185 235.297C27.9185 237.044 29.3342 238.459 31.0806 238.459H145.941C147.687 238.459 149.103 237.044 149.103 235.297C149.103 233.551 147.687 232.135 145.941 232.135Z" fill="#DDE3E9"/>
<path d="M235.437 237.595C239.616 237.595 243.004 234.206 243.004 230.027C243.004 225.848 239.616 222.459 235.437 222.459C231.257 222.459 227.869 225.848 227.869 230.027C227.869 234.206 231.257 237.595 235.437 237.595Z" fill="#DDE3E9"/>
<path d="M235.437 233.27C237.228 233.27 238.68 231.818 238.68 230.027C238.68 228.236 237.228 226.784 235.437 226.784C233.645 226.784 232.193 228.236 232.193 230.027C232.193 231.818 233.645 233.27 235.437 233.27Z" fill="#F2F2F2"/>
</svg>
