<svg width="391" height="439" viewBox="0 0 391 439" fill="none" xmlns="http://www.w3.org/2000/svg">
<path fill-rule="evenodd" clip-rule="evenodd" d="M141.047 179.757L221.379 314.056L281.604 427.595H294.576L193.668 179.757L141.047 179.757Z" fill="#997659"/>
<path fill-rule="evenodd" clip-rule="evenodd" d="M273.672 422.353C272.463 425.582 271.858 427.998 271.858 429.601C271.858 431.55 272.183 434.395 272.832 438.135C275.094 438.135 295.419 438.135 333.807 438.135C335.392 432.897 334.477 430.069 331.063 429.651C327.649 429.233 324.813 428.856 322.555 428.52L294.215 415.885C293.669 415.642 293.03 415.887 292.787 416.433C292.783 416.442 292.779 416.451 292.775 416.461L290.953 420.88C287.793 422.354 285.225 423.092 283.249 423.092C281.644 423.092 279.427 422.443 276.598 421.146L276.598 421.146C275.512 420.649 274.229 421.125 273.731 422.211C273.71 422.258 273.69 422.305 273.672 422.353Z" fill="#E4E4E4"/>
<path fill-rule="evenodd" clip-rule="evenodd" d="M264.878 409.414L289.894 401.846C278.934 369.081 265.5 333.024 249.594 293.675C233.687 254.326 216.604 216.353 198.345 179.757H127.689C147.99 226.05 169.512 268.113 192.254 305.946C214.996 343.779 239.204 378.269 264.878 409.414Z" fill="#4E507B"/>
<path fill-rule="evenodd" clip-rule="evenodd" d="M135.768 179.757C128.186 226.95 113.563 287.246 112.183 289.107C111.263 290.347 78.1422 301.446 12.8203 322.402L15.6224 333.841C93.5186 322.602 134.563 313.882 138.756 307.682C145.046 298.381 176.451 224.906 188.615 179.757H135.768Z" fill="#B28B67"/>
<path fill-rule="evenodd" clip-rule="evenodd" d="M35.7817 312.514L40.7173 330.937C98.9792 336.047 134.677 332.355 147.812 319.861C160.947 307.366 175.917 260.665 192.722 179.757H125.348C114.701 246.01 108.748 280.527 107.491 283.308C106.233 286.089 82.3299 295.824 35.7817 312.514Z" fill="#575988"/>
<path fill-rule="evenodd" clip-rule="evenodd" d="M16.0191 317.637C12.6295 317.006 10.1455 316.83 8.56691 317.108C6.64703 317.447 3.90184 318.261 0.331347 319.55C0.724062 321.777 4.25346 341.793 10.9195 379.598C16.3535 380.249 18.9797 378.857 18.7982 375.423C18.6168 371.988 18.4957 369.13 18.4351 366.848L25.9562 336.744C26.1009 336.165 25.7487 335.578 25.1694 335.433C25.1595 335.431 25.1495 335.428 25.1396 335.426L20.4713 334.399C18.4704 331.543 17.2984 329.142 16.9553 327.196C16.6765 325.615 16.93 323.319 17.7158 320.308L17.7159 320.308C18.0174 319.153 17.3252 317.972 16.1698 317.67C16.12 317.657 16.0697 317.646 16.0191 317.637Z" fill="#E4E4E4"/>
<path fill-rule="evenodd" clip-rule="evenodd" d="M158.748 39.7246C153.767 33.8773 150.395 26.7113 150.958 18.6817C152.582 -4.45396 184.787 0.635592 191.052 12.3125C197.317 23.9894 196.572 53.6088 188.476 55.6957C185.247 56.528 178.368 54.4893 171.368 50.2696L175.762 81.3569H149.816L158.748 39.7246Z" fill="#B28B67"/>
<path fill-rule="evenodd" clip-rule="evenodd" d="M172.665 21.2368C173.658 35.0716 176.285 41.989 180.547 41.989C186.939 41.989 192.362 37.931 195.167 37.931C197.211 37.931 196.755 40.4896 195.4 42.3866C194.282 43.9517 188.836 45.4602 188.836 47.8867C188.836 50.3131 193.139 48.4359 193.139 49.875C193.139 52.2554 193.895 56.7309 189.763 56.7309C185.582 56.7309 173.594 55.2072 171.54 49.0017C170.214 44.9968 169.357 36.698 168.968 24.1052C168.714 24.0751 168.456 24.0596 168.194 24.0596C164.612 24.0596 161.708 26.9637 161.708 30.5461C161.708 32.3647 162.456 34.0085 163.662 35.1863C162.161 37.3048 160.479 39.5178 158.551 41.8014C151.31 37.4571 145.937 24.7395 153.016 12.5226C154.973 6.53768 159.403 3.34092 164.635 1.85657C168.873 0.0838206 173.272 -0.116059 176.986 0.946686C184.266 1.57111 190.766 3.79095 192.609 5.10925C192.609 12.0014 191.273 14.0463 179.867 13.866C177.064 15.3462 174.909 17.8951 172.665 21.2368Z" fill="#191847"/>
<path fill-rule="evenodd" clip-rule="evenodd" d="M230.601 130.363L273.285 124.541C281.824 119.791 289.679 116.576 296.851 114.895C298.869 114.836 302.079 115.57 297.296 119.557C292.514 123.544 287.661 127.955 288.513 130.083C289.365 132.211 293.813 131.419 294.55 134.692C295.041 136.874 287.822 137.228 272.894 135.755L238.259 149.487L230.601 130.363ZM96.5144 140.243L120.187 140.332C94.2293 198.747 80.6944 229.332 79.5826 232.087C77.0811 238.287 82.3747 247.728 84.6385 252.802C77.2655 256.102 78.0511 243.883 68.7502 248.21C60.2608 252.16 53.8029 259.316 43.9946 253.264C42.7888 252.52 41.4673 249.719 44.6601 247.529C52.6144 242.075 64.0771 232.529 65.6259 229.387C67.7379 225.103 78.0341 195.388 96.5144 140.243Z" fill="#997659"/>
<path fill-rule="evenodd" clip-rule="evenodd" d="M161.357 65.162L179.892 66.3968C184.457 107.695 209.321 133.781 264.991 124.95L272.387 178.134C220.355 184.858 174.723 164.027 165.371 107.625C162.95 93.0247 161.039 77.83 161.357 65.162Z" fill="#AFB9C5"/>
<path fill-rule="evenodd" clip-rule="evenodd" d="M152.213 59.774L180.296 66.2057C180.296 114.508 195.682 145.325 203.574 180.838H127.729C126.661 193.109 126.005 205.722 125.663 218.676H68.873C81.7419 150.204 108.904 97.2313 150.359 59.7568H152.198L152.213 59.774Z" fill="#C5CFD6"/>
<path fill-rule="evenodd" clip-rule="evenodd" d="M139.696 111.929C137.741 142.028 138.891 164.997 143.144 180.838H127.729C129.846 156.529 133.581 133.559 139.696 111.929V111.929Z" fill="black" fill-opacity="0.1"/>
<path fill-rule="evenodd" clip-rule="evenodd" d="M339.973 130.012C339.969 130.023 339.965 130.033 339.958 130.046C339.965 130.035 339.973 129.993 339.973 130.012Z" fill="#C5CFD6"/>
<path fill-rule="evenodd" clip-rule="evenodd" d="M339.964 130.028C339.964 130.03 339.961 130.035 339.961 130.039C339.961 130.028 339.98 129.997 339.964 130.028Z" fill="#C5CFD6"/>
<path fill-rule="evenodd" clip-rule="evenodd" d="M340.039 129.846C340.024 129.889 340.004 129.93 339.987 129.973C339.996 129.952 340.004 129.934 340.013 129.913C339.788 130.475 339.931 130.11 340.039 129.846Z" fill="#C5CFD6"/>
<path fill-rule="evenodd" clip-rule="evenodd" d="M339.99 129.976C339.982 129.995 339.973 130.017 339.964 130.036C339.902 130.158 339.99 129.976 339.99 129.976Z" fill="#C5CFD6"/>
<path fill-rule="evenodd" clip-rule="evenodd" d="M339.965 130.029C339.965 130.027 339.965 130.027 339.967 130.025C339.965 130.027 339.965 130.027 339.965 130.029Z" fill="#C5CFD6"/>
<path fill-rule="evenodd" clip-rule="evenodd" d="M339.955 130.044C339.942 130.069 340.014 129.946 339.955 130.044Z" fill="#C5CFD6"/>
<path fill-rule="evenodd" clip-rule="evenodd" d="M339.964 130.029L339.968 130.025C339.966 130.027 339.966 130.029 339.964 130.029Z" fill="#C5CFD6"/>
<path d="M386.453 73.8108H292.399C290.01 73.8108 288.074 75.7469 288.074 78.1351V137.595C288.074 139.983 290.01 141.919 292.399 141.919H386.453C388.841 141.919 390.777 139.983 390.777 137.595V78.1351C390.777 75.7469 388.841 73.8108 386.453 73.8108Z" fill="#4AC6D2"/>
<path fill-rule="evenodd" clip-rule="evenodd" d="M326.993 93.2703L296.723 141.919H357.263L326.993 93.2703Z" fill="#269EAA"/>
<path fill-rule="evenodd" clip-rule="evenodd" d="M356.723 106.243L330.236 141.919H383.209L356.723 106.243Z" fill="#89E7F0"/>
<path d="M368.074 106.243C373.448 106.243 377.804 101.887 377.804 96.5135C377.804 91.14 373.448 86.7838 368.074 86.7838C362.701 86.7838 358.345 91.14 358.345 96.5135C358.345 101.887 362.701 106.243 368.074 106.243Z" fill="white"/>
</svg>
