<svg xmlns="http://www.w3.org/2000/svg" viewBox="0 0 147.999 147.999"><defs><style>.a,.d{fill:#fff;}.b{fill:none;}.c,.d{stroke:none;}</style></defs><g transform="translate(-4.001 -3.997)"><g transform="translate(67.922 54.148)"><path class="a" d="M152.887,125c-.156-.074-.93-.285-1.081-.082-.1.138.255.294.4.381.476.285,1.016.424,1.514.679a8.816,8.816,0,0,0,1,.532C154.751,126.137,154.107,125.566,152.887,125Z" transform="translate(-151.787 -122.72)"/><path class="a" d="M160.326,122.382c-.125-.052-1.324-.454-1.419-.242-.061.138,1.163.753,1.311.817.6.294,1.172.606,1.747.939a13.108,13.108,0,0,0,1.315.761A10.005,10.005,0,0,0,160.326,122.382Z" transform="translate(-155.826 -121.157)"/><path class="a" d="M169.973,120.718a4.1,4.1,0,0,0-1.151-.32c-.1-.013-.558-.1-.476.043.1.169.571.359.74.454.32.177.653.32.973.489.58.307,1.133.653,1.7.973a14.119,14.119,0,0,0,1.479.848C173.446,122.985,171.072,121.2,169.973,120.718Z" transform="translate(-161.179 -120.181)"/><path class="a" d="M181.142,120.412a4.088,4.088,0,0,0-.818-.329c-.1-.03-.6-.2-.7-.108s.982.783,1.112.869c.58.35,1.146.7,1.713,1.077a13.959,13.959,0,0,0,1.362.934C184.018,122.674,182.3,121.056,181.142,120.412Z" transform="translate(-167.581 -119.949)"/><path class="a" d="M192.376,122.862c-.234-.169-.558-.424-.869-.329-.264.074.052.307.212.424.484.329.965.679,1.427,1.055.074.065.774.709.865.74h.009C194.2,124.626,193,123.3,192.376,122.862Z" transform="translate(-174.27 -121.403)"/></g><path class="a" d="M158.316,102.334H129.627l1.086-24.55a8.556,8.556,0,0,0-8.8-8.274h-28.6a8.55,8.55,0,0,0-8.8,8.274l1.086,24.55H56.911a.731.731,0,0,0,0,1.462h101.4a.733.733,0,0,0,.731-.731A.724.724,0,0,0,158.316,102.334ZM111.3,85.28a9.73,9.73,0,0,1,1.22-2.734,13.893,13.893,0,0,0,1.3-2.539,3.968,3.968,0,0,0,.147-2.215,5.508,5.508,0,0,0-.614-1.449c-.156-.242-.255-.4-.3-.467.043.043.182.19.394.411a5.083,5.083,0,0,1,.848,1.419,4.041,4.041,0,0,1,.087,2.452,10.587,10.587,0,0,1-1.259,2.708,12.221,12.221,0,0,0-1.267,2.548,3.7,3.7,0,0,0-.009,2.21,5.67,5.67,0,0,0,.709,1.406c.2.272.329.437.35.476-.035-.035-.182-.182-.433-.415a5.2,5.2,0,0,1-.96-1.354A3.9,3.9,0,0,1,111.3,85.28Zm-5.247-.761a6.691,6.691,0,0,1,.58-1.622c.255-.541.558-1.068.865-1.6a16.178,16.178,0,0,0,1.535-3,4.765,4.765,0,0,0,.177-2.612,6.712,6.712,0,0,0-.722-1.713c-.19-.285-.316-.484-.359-.558.065.065.221.234.463.489a5.786,5.786,0,0,1,1.008,1.67,4.77,4.77,0,0,1,.1,2.9,12.939,12.939,0,0,1-1.484,3.2,14.352,14.352,0,0,0-1.492,3.006,4.4,4.4,0,0,0-.2,1.384v.16c0,.061.009.108.013.16.013.108.022.212.035.316.043.2.086.394.138.58a6.422,6.422,0,0,0,.848,1.661c.234.32.381.519.411.562-.043-.043-.221-.212-.51-.489a5.777,5.777,0,0,1-1.125-1.6A4.358,4.358,0,0,1,106.054,84.518Zm-4.965.761a9.73,9.73,0,0,1,1.22-2.734,13.9,13.9,0,0,0,1.3-2.539,3.968,3.968,0,0,0,.147-2.215,5.508,5.508,0,0,0-.614-1.449c-.156-.242-.255-.4-.3-.467.043.043.177.19.389.411a4.875,4.875,0,0,1,.856,1.419,4.009,4.009,0,0,1,.087,2.452,10.588,10.588,0,0,1-1.259,2.708,12.22,12.22,0,0,0-1.267,2.548,3.662,3.662,0,0,0-.009,2.21,5.67,5.67,0,0,0,.709,1.406c.2.272.329.437.35.476-.035-.035-.182-.182-.433-.415a5,5,0,0,1-.96-1.354A3.867,3.867,0,0,1,101.089,85.28Zm18.417,13.058a6.315,6.315,0,0,1-2.15.221c-.982-.022-1.968-.125-2.95-.221a63.746,63.746,0,0,0-7.7-.411c-2.392.065-4.762.368-7.141.549a14.962,14.962,0,0,1-2.6.043,2.79,2.79,0,0,1-1.6-.549c-.96-.856-.359-2.413.316-3.24A9.777,9.777,0,0,1,100.3,92.01a24.528,24.528,0,0,1,7.47-1.077c.679,0,1.354.022,2.033.074a21,21,0,0,1,6.92,1.557c1.427.623,3.045,1.557,3.694,3.058C120.881,96.69,120.708,97.935,119.506,98.338Z" transform="translate(-29.61 -37.177)"/><g transform="translate(26.57 86.38)"><g transform="translate(0)"><path class="a" d="M158.316,194.47H56.911a.731.731,0,0,0,0,1.462H87.387c1.319,3.11,3.914,4.844,8.443,5.67,14.909,3.884.835,20.233,7.543,28.14a5.343,5.343,0,0,0,3.209,1.864v.03a8.2,8.2,0,0,0,2.059,0v-.03a5.331,5.331,0,0,0,3.209-1.864c6.708-7.906-7.366-24.256,7.543-28.14,4.529-.826,7.132-2.561,8.443-5.67h30.476a.731.731,0,0,0,0-1.462Zm-50.7,33.81c-.943,0-1.713-1.215-1.713-2.708s.77-2.712,1.713-2.712,1.713,1.215,1.713,2.712S108.559,228.28,107.616,228.28Z" transform="translate(-56.18 -194.47)"/></g></g><g class="b" transform="matrix(1, 0, 0, 1, 4.001, 3.997)"><path class="c" d="M74,0A74,74,0,1,1,0,74,74,74,0,0,1,74,0Z"/><path class="d" d="M 74.00037384033203 3 C 64.4140625 3 55.11610412597656 4.876800537109375 46.36474609375 8.57830810546875 C 42.15833282470703 10.35746765136719 38.10099792480469 12.55972290039063 34.30548095703125 15.12393188476563 C 30.54524993896484 17.66429138183594 27.00918579101563 20.58180236816406 23.79551696777344 23.79544830322266 C 20.58187103271484 27.00909423828125 17.66433715820313 30.54513549804688 15.12397766113281 34.30534362792969 C 12.55976867675781 38.10086822509766 10.35749816894531 42.15815734863281 8.578338623046875 46.36457824707031 C 4.876815795898438 55.11589050292969 3 64.41380310058594 3 74.00007629394531 C 3 83.58634948730469 4.876815795898438 92.88428497314453 8.578338623046875 101.6355972290039 C 10.35749816894531 105.8419952392578 12.55976867675781 109.8993072509766 15.12397766113281 113.6948089599609 C 17.66433715820313 117.4550323486328 20.58187103271484 120.9910736083984 23.79551696777344 124.204719543457 C 27.00918579101563 127.4183654785156 30.54524993896484 130.3358917236328 34.30548095703125 132.8762359619141 C 38.10099792480469 135.4404296875 42.15833282470703 137.6427001953125 46.36474609375 139.4218444824219 C 55.11610412597656 143.1233520507813 64.4140625 145.0001525878906 74.00037384033203 145.0001525878906 C 83.58668518066406 145.0001525878906 92.8846435546875 143.1233520507813 101.6360015869141 139.4218444824219 C 105.842414855957 137.6427001953125 109.8997497558594 135.4404296875 113.6952667236328 132.8762359619141 C 117.4554977416992 130.3358917236328 120.9915618896484 127.4183654785156 124.2052307128906 124.204719543457 C 127.4188766479492 120.9910736083984 130.3364105224609 117.4550323486328 132.8767700195313 113.6948089599609 C 135.4409790039063 109.8993072509766 137.6432495117188 105.8419952392578 139.4224090576172 101.6355972290039 C 143.1239318847656 92.88428497314453 145.0007476806641 83.58634948730469 145.0007476806641 74.00007629394531 C 145.0007476806641 64.41380310058594 143.1239318847656 55.11589050292969 139.4224090576172 46.36457824707031 C 137.6432495117188 42.15815734863281 135.4409790039063 38.10086822509766 132.8767700195313 34.30534362792969 C 130.3364105224609 30.54513549804688 127.4188766479492 27.00909423828125 124.2052307128906 23.79544830322266 C 120.9915618896484 20.58180236816406 117.4554977416992 17.66429138183594 113.6952667236328 15.12393188476563 C 109.8997497558594 12.55972290039063 105.842414855957 10.35746765136719 101.6360015869141 8.57830810546875 C 92.8846435546875 4.876800537109375 83.58668518066406 3 74.00037384033203 3 M 74.00037384033203 0 C 114.8696441650391 0 148.0007476806641 33.13097381591797 148.0007476806641 74.00007629394531 C 148.0007476806641 114.8692016601563 114.8696441650391 148.0001525878906 74.00037384033203 148.0001525878906 C 33.131103515625 148.0001525878906 0 114.8692016601563 0 74.00007629394531 C 0 33.13097381591797 33.131103515625 0 74.00037384033203 0 Z"/></g><g transform="translate(35.691 15.949)"><path class="a" d="M79.029,66.023l.368-.554a1.68,1.68,0,0,0,.792.3,1.039,1.039,0,0,0,.878-.281,1.207,1.207,0,0,0,.445-.77.856.856,0,0,0-.216-.705.817.817,0,0,0-.692-.29,1.456,1.456,0,0,0-.83.4l-.242.216-.394-.445a3.466,3.466,0,0,0,.5-.515.8.8,0,0,0,.143-.5.769.769,0,0,0-.195-.506A.808.808,0,0,0,79,62.113a.96.96,0,0,0-.688.281,1.13,1.13,0,0,0-.363.584,1.007,1.007,0,0,0,.061.636,1.736,1.736,0,0,0,.242.428l-.58.32a1.668,1.668,0,0,1,.247-2.418,1.644,1.644,0,0,1,1.163-.476,1.348,1.348,0,0,1,.982.441,1.237,1.237,0,0,1,.238,1.285,1.237,1.237,0,0,1,.783-.1,1.286,1.286,0,0,1,.731.424,1.421,1.421,0,0,1,.359,1.168,1.966,1.966,0,0,1-.709,1.233A1.839,1.839,0,0,1,79.029,66.023Z" transform="translate(-77.268 -48.563)"/><path class="a" d="M85.78,54.731l2.759-1.821.333.506-2.2,1.449.874,1.328,1.016-.67a3.593,3.593,0,0,1,.965-.48,1.179,1.179,0,0,1,.8.061,1.508,1.508,0,0,1,.662.567,1.6,1.6,0,0,1,.259.705,1.4,1.4,0,0,1-.121.744,2.264,2.264,0,0,1-.852.817l-1.665,1.1Zm3.08,3.443,1.125-.744a1.264,1.264,0,0,0,.558-.64.827.827,0,0,0-.143-.714.878.878,0,0,0-.424-.359.764.764,0,0,0-.519,0,4.392,4.392,0,0,0-.83.463l-.753.5Z" transform="translate(-82.098 -43.706)"/><path class="a" d="M99.16,52.634l-2.31-4.606,3.291-1.648.272.545-2.69,1.349.705,1.41,2.522-1.263.272.541L98.7,50.225l.787,1.57,2.794-1.4.272.545Z" transform="translate(-88.38 -40)"/><path class="a" d="M110.487,48.11,108.64,43.3l1.795-.688a4.807,4.807,0,0,1,.74-.234,1.478,1.478,0,0,1,.675,0,1.257,1.257,0,0,1,.558.316,1.692,1.692,0,0,1,.411,1.791,1.969,1.969,0,0,1-1.233.96l-1.22.467.753,1.955Zm-.342-2.768,1.228-.471a1.378,1.378,0,0,0,.779-.562.889.889,0,0,0,.009-.744.949.949,0,0,0-.35-.458.758.758,0,0,0-.506-.13,2.974,2.974,0,0,0-.606.182l-1.215.467Z" transform="translate(-95.071 -37.708)"/><path class="a" d="M122.46,44.777l-1.54-4.918.644-.2,1.54,4.918Z" transform="translate(-102.04 -36.187)"/><path class="a" d="M126.67,37.292l3.192-.822.151.588-2.539.653,1.138,4.4-.653.169Z" transform="translate(-105.303 -34.377)"/><path class="a" d="M136.99,40.681l.934-5.432.714-.138,3.032,4.658-.753.147-.882-1.419-2.089.407-.251,1.639Zm1.038-2.362,1.7-.329-.8-1.3c-.242-.394-.428-.722-.558-.982a6.328,6.328,0,0,1-.082,1.021Z" transform="translate(-111.159 -33.605)"/><path class="a" d="M148.78,32.938l.67-.074.251,2.3.973-.108a2.667,2.667,0,0,1,.519-1.817,2.129,2.129,0,0,1,1.505-.822,2.152,2.152,0,0,1,1.721.528,2.73,2.73,0,0,1,.861,1.843,2.823,2.823,0,0,1-.432,2.037,2.165,2.165,0,0,1-1.583.891,2.087,2.087,0,0,1-1.6-.445,2.68,2.68,0,0,1-.9-1.618l-.986.108.242,2.223-.67.074Zm2.6,2.331a2.306,2.306,0,0,0,.606,1.458,1.546,1.546,0,0,0,2.336-.255,2.421,2.421,0,0,0,.268-1.6,2.393,2.393,0,0,0-.6-1.462,1.53,1.53,0,0,0-2.349.264A2.5,2.5,0,0,0,151.379,35.269Z" transform="translate(-117.849 -32.068)"/><path class="a" d="M170.1,36.807l-.675.022-.069-2.076a4.572,4.572,0,0,1-1.574.394,1.727,1.727,0,0,1-.947-.221,1.237,1.237,0,0,1-.567-.619,3.185,3.185,0,0,1-.173-1.008l-.052-1.514.675-.022.048,1.453a1.475,1.475,0,0,0,.342,1.1,1.083,1.083,0,0,0,.74.242,3.923,3.923,0,0,0,1.484-.372l-.087-2.5.675-.022Z" transform="translate(-127.644 -31.647)"/><path class="a" d="M179.22,31.63l.61.017-.125,4.079,2.833-4,.679.022-.16,5.151-.61-.017.125-4.07L179.735,36.8l-.675-.022Z" transform="translate(-135.033 -31.63)"/><path class="a" d="M199.156,37.99l.58-4.507-1.665-.212.078-.6,4.005.515-.078.606-1.674-.216-.58,4.507Z" transform="translate(-145.82 -32.22)"/><path class="a" d="M208.6,39.466l1-5.056,1.886.372a4.391,4.391,0,0,1,.753.2,1.5,1.5,0,0,1,.571.359,1.256,1.256,0,0,1,.3.567,1.544,1.544,0,0,1,.013.718,1.618,1.618,0,0,1-.623,1.012,1.981,1.981,0,0,1-1.553.156l-1.28-.255-.407,2.054Zm1.189-2.522,1.293.255a1.381,1.381,0,0,0,.96-.061.872.872,0,0,0,.4-.627.918.918,0,0,0-.052-.575.735.735,0,0,0-.359-.381,2.837,2.837,0,0,0-.61-.169l-1.276-.255Z" transform="translate(-151.796 -33.208)"/><path class="a" d="M218.05,42.115l3.244-4.455.7.19.653,5.519-.74-.2-.164-1.661-2.054-.562-.952,1.358Zm1.977-1.652,1.665.454-.138-1.518c-.043-.463-.065-.835-.069-1.125a7.018,7.018,0,0,1-.523.878Z" transform="translate(-157.159 -35.052)"/><path class="a" d="M232.309,40.97l2.9,1.09-1.6,4.256.428.16-.636,1.7-.562-.212.424-1.125-3.153-1.181-.424,1.125-.562-.212.636-1.7.372.138a7.715,7.715,0,0,0,1.907-3.335Zm2.059,1.423-1.661-.623-.091.247c-.156.411-.4.956-.74,1.644a6.019,6.019,0,0,1-1.086,1.6l2.2.826Z" transform="translate(-163.446 -36.93)"/><path class="a" d="M244.913,45.51l.545.277-1.843,3.642,4.26-2.422.606.307-2.323,4.6-.545-.277,1.838-3.633-4.26,2.409-.6-.3Z" transform="translate(-171.085 -39.507)"/><path class="a" d="M256.754,52.26l.554.385L254.7,56.369l2.176,1.522,2.608-3.724.554.389-2.608,3.724.381.268-1.172,1.67-.489-.342.822-1.172-3.17-2.223Z" transform="translate(-177.446 -43.337)"/><path class="a" d="M264.37,65.069l3.495-3.789.5.458-3.495,3.789Z" transform="translate(-183.444 -48.456)"/><path class="a" d="M268.29,67.872l3.849-3.43.45.5-3.849,3.43Zm3.65-4.122.536-.48.433.489-.536.48Zm.865.965.536-.48.433.489-.536.48Z" transform="translate(-185.669 -49.585)"/></g><g transform="translate(47.577 129.239)"><path class="a" d="M104.75,299.689,107,295.048l-1.786-.865.3-.623,4.295,2.08-.3.623-1.791-.869-2.249,4.641Z" transform="translate(-104.75 -293.56)"/><path class="a" d="M114.54,304.846l1.886-5.536,2.137.727a2.88,2.88,0,0,1,.99.523,1.456,1.456,0,0,1,.415,1.535,1.28,1.28,0,0,1-.428.6,1.486,1.486,0,0,1-.77.3,1.561,1.561,0,0,1,.623.774,1.387,1.387,0,0,1-.009.934,1.64,1.64,0,0,1-.415.666,1.477,1.477,0,0,1-.593.372,1.817,1.817,0,0,1-.718.061,3.934,3.934,0,0,1-.952-.221Zm.978-.4,1.419.484a3.115,3.115,0,0,0,.523.147,1.313,1.313,0,0,0,.489,0,.85.85,0,0,0,.394-.208.988.988,0,0,0,.273-.428.963.963,0,0,0,.022-.592.911.911,0,0,0-.346-.476,2.927,2.927,0,0,0-.8-.376l-1.319-.45Zm.869-2.556,1.233.42a3.142,3.142,0,0,0,.74.182.858.858,0,0,0,.528-.13.824.824,0,0,0,.311-.432.937.937,0,0,0,.03-.532.725.725,0,0,0-.29-.42,3.573,3.573,0,0,0-.839-.372l-1.138-.389Z" transform="translate(-110.306 -296.823)"/><path class="a" d="M129.352,306.849a3.125,3.125,0,0,1,1.289-2.046,2.794,2.794,0,0,1,2.21-.346,2.927,2.927,0,0,1,1.38.709,2.528,2.528,0,0,1,.757,1.276,3.429,3.429,0,0,1,0,1.609,3.323,3.323,0,0,1-.714,1.471,2.465,2.465,0,0,1-1.254.8,3.106,3.106,0,0,1-1.505.03,2.9,2.9,0,0,1-1.393-.727,2.593,2.593,0,0,1-.748-1.285A3.127,3.127,0,0,1,129.352,306.849Zm.8.195a2.3,2.3,0,0,0,.2,1.752,2.083,2.083,0,0,0,2.876.644,2.443,2.443,0,0,0,.952-1.574,2.961,2.961,0,0,0,.035-1.272,1.862,1.862,0,0,0-.528-.965,2.025,2.025,0,0,0-.982-.523,2.067,2.067,0,0,0-1.544.229A2.491,2.491,0,0,0,130.148,307.044Z" transform="translate(-118.664 -299.695)"/><path class="a" d="M146.307,306.74l3.858.523-.091.683-3.067-.415-.7,5.112-.792-.108Z" transform="translate(-127.886 -301.039)"/><path class="a" d="M156.731,311.165a3.123,3.123,0,0,1,.943-2.227,2.781,2.781,0,0,1,2.124-.7,2.943,2.943,0,0,1,1.475.48,2.567,2.567,0,0,1,.952,1.138,3.463,3.463,0,0,1,.255,1.587,3.309,3.309,0,0,1-.467,1.566,2.473,2.473,0,0,1-1.112.995,3.1,3.1,0,0,1-1.484.272,2.894,2.894,0,0,1-1.492-.493,2.615,2.615,0,0,1-.947-1.151A3.174,3.174,0,0,1,156.731,311.165Zm.822.065a2.308,2.308,0,0,0,.48,1.7,2.081,2.081,0,0,0,2.941.173,2.454,2.454,0,0,0,.688-1.7,2.846,2.846,0,0,0-.173-1.259,1.877,1.877,0,0,0-.675-.869,2.017,2.017,0,0,0-1.055-.359,2.072,2.072,0,0,0-1.488.476A2.467,2.467,0,0,0,157.553,311.229Z" transform="translate(-134.245 -301.887)"/><path class="a" d="M180.785,314.221l-.385-5.835,1.2-.078,1.7,4.04c.156.376.273.657.342.843.056-.216.138-.536.26-.956l1.172-4.157,1.068-.069.385,5.835-.766.052-.324-4.883-1.423,5-.718.048-2.067-4.853.329,4.97Z" transform="translate(-147.68 -301.76)"/><path class="a" d="M198.773,313.024l-.783-5.8.792-.108.783,5.8Z" transform="translate(-157.662 -301.255)"/><path class="a" d="M209.429,308.5l.817.03a2.579,2.579,0,0,1-.593,1.6,2.523,2.523,0,0,1-1.458.809,2.933,2.933,0,0,1-1.626-.061,2.41,2.41,0,0,1-1.133-.908,3.859,3.859,0,0,1-.627-1.471,3.4,3.4,0,0,1,.03-1.635,2.433,2.433,0,0,1,.8-1.22,3.067,3.067,0,0,1,1.358-.64,2.5,2.5,0,0,1,1.579.134,2.314,2.314,0,0,1,1.094,1.06l-.731.333a1.779,1.779,0,0,0-.783-.787,1.667,1.667,0,0,0-1.042-.086,1.99,1.99,0,0,0-1.073.549,1.728,1.728,0,0,0-.467.982,3.351,3.351,0,0,0,.039,1.137,3.466,3.466,0,0,0,.48,1.233,1.628,1.628,0,0,0,.848.675,1.99,1.99,0,0,0,1.055.065,1.745,1.745,0,0,0,1.034-.6A1.834,1.834,0,0,0,209.429,308.5Z" transform="translate(-161.484 -300.021)"/><path class="a" d="M220.729,306.99l-1.5-4.935-1.9.575-.2-.662,4.567-1.388.2.662-1.907.58,1.5,4.935Z" transform="translate(-168.523 -297.544)"/><path class="a" d="M233.364,304.206l-.164-6.289.792-.337L238.55,302l-.835.355L236.375,301l-2.318.986.087,1.89Zm.657-2.894,1.877-.8-1.211-1.246q-.552-.564-.869-.947a7.263,7.263,0,0,1,.138,1.155Z" transform="translate(-177.642 -295.841)"/></g><g transform="translate(17.807 68.804)"><path class="a" d="M43.935,165.955a7.351,7.351,0,0,0,.307,2.565c0,.294.631,0,.631.614-1.336.4-2.673-.017-4.027,0,0,0,0-.614.324-.614h.294a70.774,70.774,0,0,0,.324-8.438v-3.088c0-.921.29-1.535,0-2.154H39.008c-.017,2.876-.307,5.748-.307,8.637v3.088c0,.307-.017.83-.017,1.276,0,.614.83.523.631,1.185-.138.446-1.907.385-2.781.216-.307-.061-.29-.216-.29-.506,0-.324.29-.324.614-.614v-8.348a31.294,31.294,0,0,0,0-5.255c-.324,0-.939,0-.939-.294.324-.614,1.228-.324,1.843-.324H44.25c.631,0,.307.939-.307.939v11.116Z" transform="translate(-35.92 -153.832)"/><path class="a" d="M64.446,155.452c-.307-.169-.307-.169-.631-.324a5.124,5.124,0,0,0-2.184.324c-.324.294-.277.77-.277,1.475,0,.878-.048,1.336-.048,1.951,0,.952.324,1.583,0,2.214a3.6,3.6,0,0,0,1.873.294c0-.294,0-.921.324-.921.307,0,.307,0,.631.307-.324.614.307,2.522-.324,2.522,0,0-.631-.324-.631-.632v-.324H61.626a10.51,10.51,0,0,0-.091,3.183c0,.952.091,2.167.091,2.781a6.983,6.983,0,0,0,2.5.307c.631-.307,0-1.246.631-1.553.631,0,.631.921.631,1.553,0,.324-.324.632-.631.952H63.179a27.694,27.694,0,0,1-5.009-.324V168.6h1.259a29.144,29.144,0,0,0,0-5.32v-7.842H58.17v-.631c1.259-.324,2.5-.324,3.767-.632h3.136a1.061,1.061,0,0,1,.324.632c0,.631.631,1.877-.631,1.877C64.446,156.377,64.77,155.746,64.446,155.452Z" transform="translate(-48.546 -154.029)"/><path class="a" d="M81.159,169.32c-1.613,0-2.582.324-3.875,0a1.056,1.056,0,0,1-.337-.644c.337-.324.337-.324.969-.324.337-.307.121-1.077.121-1.553-.017-2.106.078-3.642.078-5.272,0-.631.078-1.445,0-2.474-.061-.705.017-1.12,0-2.444,0-.463.091-.891-.216-1.016-.4-.169-.584.03-.921-.277-.631-.337-.121-.644.216-.952a25.459,25.459,0,0,1,4.6-.2c.324,0,.186-.078.662,0,1.259.2,2.245,1.938,2.569,3.551A6.3,6.3,0,0,1,84.7,160.3c-.307.969-1.276,1.613-1.938,2.245a4.535,4.535,0,0,1-2.245.337.326.326,0,0,0-.324.324c-.017.277,0,.969,0,1.276a14.9,14.9,0,0,0,0,3.875C81.159,168.351,81.791,168.676,81.159,169.32Zm-.969-7.746a1.165,1.165,0,0,0,1.246.2,3.235,3.235,0,0,0,1.324-1.8,5.1,5.1,0,0,0,.229-1.877,6.551,6.551,0,0,0-.536-2.63c-.337,0-.662-.337-1.289-.337H80.19a23.208,23.208,0,0,0,0,4.84Z" transform="translate(-59.049 -154.001)"/><path class="a" d="M109.552,157.268v4.5l-.121,1.462.121,1.445v3.7c.614,0,.939.939.307.939h-6.025a5.368,5.368,0,0,1-1.2.03,28.066,28.066,0,0,0-3.888.169c-.337-.307-.571-.307-.415-.921a5.351,5.351,0,0,0,.108-1.306,48.448,48.448,0,0,0,.03-4.948l.138-.8c0-.952.138-1.907.138-2.842a10.942,10.942,0,0,0-.463-3.214c0-.307-.307-.307-.644-.614v-.644h.337a22.747,22.747,0,0,1,2.95-.121c.307.03.247.061.247.433-.307.644-.614.644-.614.952,0,1.228-.03,2.444-.061,3.642-.017.554.048,1.107.03,1.661-.017.662-.121,1.306-.121,1.968-.03,1.661-.017,3.365.108,5.182,0,.307-.017.294.337.307.324.017.307,0,.614,0,0,0,1.324.017,1.721,0a40.463,40.463,0,0,0-.061-4.8V155.1c-.324-.294-.614-.294-.614-.614,0-.294-.017-.445.294-.506.878-.169,2.444-.229,2.582.216.2.662-.631.571-.631,1.185,0,.445.017.969.017,1.276v1.107l.121,1.981c0,1-.247,2-.2,3,.03.493.2,1,.229,1.505.078,1.384.156,2.768.156,4.135h2.474c.29-.614,0-1.228,0-2.154v-3.088c0-.692.151-1.414.151-2.137-.017-.891-.186-1.782-.216-2.643a16.541,16.541,0,0,0-.26-3.659h-.29c-.324,0-.324-.614-.324-.614,1.354.017,2.535-.4,3.875,0,0,.614-.631.324-.631.614A7.219,7.219,0,0,0,109.552,157.268Z" transform="translate(-70.945 -153.847)"/><path class="a" d="M134.2,162.528c-.614,0-1.6-.324-2.552-.324-.337.324-.337.969-.337,1.661a17.973,17.973,0,0,0-.355,4.533c.355.294.692,0,.982.294a4.755,4.755,0,0,1-.048.644c-.982.675-1.907-.017-2.846.337l-.675-.644a1.645,1.645,0,0,1,.969-.631c.337,0,.337-.324.337-.662.307-1.968.631-4.857.952-7.145a5.758,5.758,0,0,1,.675-2.582,10.067,10.067,0,0,1,1.6-3.244s.675-.692,1.293-.337a3.213,3.213,0,0,1,1.354,2.275,5.246,5.246,0,0,1,.493,1.739c.307,2.552.463,5.424.753,8.317v1.968c0,.294.675.644,0,.969l-.4-.091c-.644,0-1.2.091-1.86.091-.337.03-.861.169-.861-.121,0-.337.523-1.185.861-1.185A32.244,32.244,0,0,0,134.2,162.528Zm-2.262-2.9c0,.294-.294,1.276-.294,1.644a8.746,8.746,0,0,0,2.552.29v-1.938a11.1,11.1,0,0,0-.614-3.257.322.322,0,0,0-.337-.324l-.337.324C132.6,157.321,132.263,158.333,131.938,159.626Z" transform="translate(-88.383 -154.112)"/><path class="a" d="M175.655,165.955a7.351,7.351,0,0,0,.307,2.565c0,.294.631,0,.631.614-1.336.4-2.673-.017-4.027,0,0,0,0-.614.324-.614h.294a70.771,70.771,0,0,0,.324-8.438v-3.088c0-.921.29-1.535,0-2.154h-2.781c-.017,2.876-.307,5.748-.307,8.637v3.088c0,.307-.017.83-.017,1.276,0,.614.83.523.632,1.185-.138.446-1.907.385-2.781.216-.307-.061-.29-.216-.29-.506,0-.324.29-.324.614-.614v-8.348a31.293,31.293,0,0,0,0-5.255c-.324,0-.939,0-.939-.294.324-.614,1.228-.324,1.843-.324h6.488c.631,0,.307.939-.307.939v11.116Z" transform="translate(-110.668 -153.832)"/><path class="a" d="M196.166,155.452c-.307-.169-.307-.169-.632-.324a5.124,5.124,0,0,0-2.184.324c-.324.294-.277.77-.277,1.475,0,.878-.048,1.336-.048,1.951,0,.952.324,1.583,0,2.214a3.611,3.611,0,0,0,1.877.294c0-.294,0-.921.324-.921.307,0,.307,0,.632.307-.324.614.307,2.522-.324,2.522,0,0-.631-.324-.631-.632v-.324H193.35a10.51,10.51,0,0,0-.091,3.183c0,.952.091,2.167.091,2.781a6.983,6.983,0,0,0,2.5.307c.631-.307,0-1.246.631-1.553.631,0,.631.921.631,1.553,0,.324-.324.632-.631.952H194.9a27.764,27.764,0,0,1-5.013-.324V168.6h1.259a29.146,29.146,0,0,0,0-5.32v-7.842H189.89v-.631c1.259-.324,2.5-.324,3.767-.632h3.136a1.061,1.061,0,0,1,.324.632c0,.631.632,1.877-.631,1.877C196.166,156.377,196.486,155.746,196.166,155.452Z" transform="translate(-123.294 -154.029)"/><path class="a" d="M214.124,158.6c-.307.631-.632,1.246-.939,1.86,0,.324,0,.324.307.324.324.307.921.614,1.246.921.939,1.246.939,3.118,1.246,4.671,0,.631-.307,1.228,0,1.553,0,.307.705.584.705.908a1.267,1.267,0,0,1-.216.6c-.939,0-2.245.048-2.859.048a.5.5,0,0,1-.121-.614l.631-.632c.29-.631,0-1.228,0-1.86V164.2c0-.921-.307-2.184-.939-2.491a2.027,2.027,0,0,0-1.877,0c-.631.632-.307,2.491-.307,3.72,0,.631-.324.952-.324,1.583v1.228c.631.307.952.921.324,1.246-.921-.324-1.553.307-2.474,0-.324-.324-.324-.324-.324-.614.324-.324.614-.324.614-.631V164.2s.03-.017.03-.337l-.03-.29a11.876,11.876,0,0,0,.324-1.553,30.781,30.781,0,0,0-.324-5.6V155.5c-.29,0-.614,0-.614-.324-.307,0-.247-.675-.03-.891s.584-.03,1.215-.03,2.245-.307,2.245.614c0,.307-.324.307-.631.632,0,1.228.307,2.184.307,3.413,0,.324-.307.939,0,1.246a3.433,3.433,0,0,0,2.184-2.8c0-.631.324-1.228.324-1.86h-.632c0-.324-.324-.324-.324-.632.324-.614,1.259-.307,1.873-.614.939.307.614,1.246,0,1.246A9.634,9.634,0,0,1,214.124,158.6Z" transform="translate(-133.566 -154.028)"/><path class="a" d="M235.106,162.528c-.614,0-1.6-.324-2.552-.324-.337.324-.337.969-.337,1.661a17.974,17.974,0,0,0-.355,4.533c.355.294.692,0,.982.294a4.753,4.753,0,0,1-.048.644c-.982.675-1.907-.017-2.842.337l-.675-.644a1.645,1.645,0,0,1,.969-.631c.337,0,.337-.324.337-.662.307-1.968.632-4.857.952-7.145a5.758,5.758,0,0,1,.675-2.582,10.067,10.067,0,0,1,1.6-3.244s.675-.692,1.289-.337a3.213,3.213,0,0,1,1.354,2.275,5.144,5.144,0,0,1,.493,1.739c.307,2.552.463,5.424.753,8.317v1.968c0,.294.675.644,0,.969l-.4-.091c-.644,0-1.2.091-1.86.091-.337.03-.861.169-.861-.121,0-.337.523-1.185.861-1.185A32.241,32.241,0,0,0,235.106,162.528Zm-2.262-2.9c0,.294-.29,1.276-.29,1.644a8.746,8.746,0,0,0,2.552.29v-1.938a11.107,11.107,0,0,0-.614-3.257.322.322,0,0,0-.337-.324l-.337.324C233.506,157.321,233.168,158.333,232.844,159.626Z" transform="translate(-145.647 -154.112)"/><path class="a" d="M256.159,169.32c-1.613,0-2.582.324-3.875,0a1.056,1.056,0,0,1-.337-.644c.337-.324.337-.324.969-.324.337-.307.121-1.077.121-1.553-.017-2.106.078-3.642.078-5.272,0-.631.078-1.445,0-2.474-.061-.705.017-1.12,0-2.444,0-.463.091-.891-.216-1.016-.4-.169-.584.03-.921-.277-.632-.337-.121-.644.216-.952a25.459,25.459,0,0,1,4.6-.2c.324,0,.186-.078.662,0,1.259.2,2.245,1.938,2.565,3.551a6.3,6.3,0,0,1-.324,2.582c-.307.969-1.276,1.613-1.938,2.245a4.535,4.535,0,0,1-2.245.337.326.326,0,0,0-.324.324c-.017.277,0,.969,0,1.276a14.9,14.9,0,0,0,0,3.875C256.159,168.351,256.791,168.676,256.159,169.32Zm-.965-7.746a1.165,1.165,0,0,0,1.246.2,3.236,3.236,0,0,0,1.324-1.8,5.1,5.1,0,0,0,.229-1.877,6.551,6.551,0,0,0-.536-2.63c-.337,0-.662-.337-1.293-.337h-.969a23.207,23.207,0,0,0,0,4.84Z" transform="translate(-158.357 -154.001)"/><path class="a" d="M280.6,157.965v5.3c0,1.566.324,3.46.324,5.009.307.307.631.307.631.631v.631s-.091-.277-.307-.061a1.036,1.036,0,0,1-.476.078c-.324,0-.476-.017-1.107-.017-.324,0-.445.017-.74.017-.307-.307-.186-.337.121-.644,0-.324.614-.324.614-.631a66.513,66.513,0,0,0,0-7.824.318.318,0,0,0-.324-.324,10.614,10.614,0,0,0-3.119,0,2.665,2.665,0,0,0-.631,2.215v4.377c.324.631,0,.921.324,1.553.307,0,.939.632.307.939-1.259,0-1.86.324-3.118,0,0,0-.324-.632,0-.939h.631v-10.64c-.324-.632,0-1.57-.324-2.2a.983.983,0,0,1-.632-.324.443.443,0,0,1,0-.631h1.259c.632,0,1.553-.307,2.184,0a.679.679,0,0,1,.632.631c0,.324-.632.324-.939.324-.324.307,0,.631,0,1.259s-.324,1.57,0,2.184a7.747,7.747,0,0,0,3.75,0,12.465,12.465,0,0,0-.324-3.443c-.29-.324-.921,0-1.228-.324v-.631a2.9,2.9,0,0,1,1.86-.307,4.948,4.948,0,0,0,.952,0c.632.307.632,1.259,0,1.259A6.1,6.1,0,0,0,280.6,157.965Z" transform="translate(-170.25 -154.004)"/><path class="a" d="M301.747,155.878c0,1.661.017,2.876-.108,4.256-.061.74.108,5.043.108,2.829v5.61a1.254,1.254,0,0,1,.982.307c-.337.675-.645.675-1.324.675a6.349,6.349,0,0,0-2.522-.091c-.324,0-.277-.247-.277-.584,0-.307.662-.307.662-.631a4.545,4.545,0,0,0,.307-2c0-1.2.048-3-.03-4.563-.662-.337-1.077-.169-1.691.307a2.676,2.676,0,0,0-.631,2.184v2.184c0,.631-.294,1.228,0,1.86l.631.631a.5.5,0,0,1-.121.614c-.614,0-2.059-.048-3-.048a1.246,1.246,0,0,1-.216-.6c0-.324.705-.6.705-.908.307-.324.156-1.228.156-1.86.156-1.553.156-3.118.939-4.364a6.635,6.635,0,0,1,.584-.493,4.518,4.518,0,0,1-1.276-1.907,5.186,5.186,0,0,1,0-2.8c.463-1.907,3.153-2.6,5.151-2.258.307,0,.415.186.74.186,1,0,1.427.017,1.427.982C302.946,155.739,302.392,155.878,301.747,155.878Zm-2.119,4.58.121-.692c.091-1.752.138-3.118.138-4.52a5.71,5.71,0,0,0-1.613.108,1.992,1.992,0,0,0-.813,1.475,6.046,6.046,0,0,0,0,1.492,3.879,3.879,0,0,0,1.168,2.167C299,160.476,299.351,160.476,299.628,160.458Z" transform="translate(-182.67 -154.01)"/></g><ellipse class="a" cx="2.647" cy="2.647" rx="2.647" ry="2.647" transform="translate(111.314 127.223)"/><ellipse class="a" cx="2.647" cy="2.647" rx="2.647" ry="2.647" transform="translate(36.959 127.223)"/></g></svg>