<svg width="88" height="120" viewBox="0 0 88 120" fill="none" xmlns="http://www.w3.org/2000/svg">
<path d="M2.51397 120V95.5307L40.7263 54.1341C41.3967 53.352 42.3464 52.2905 43.5754 50.9497C44.9162 49.6089 45.8101 48.6592 46.257 48.1006C46.8156 47.5419 47.486 46.8156 48.2682 45.9218C49.162 44.9162 49.7207 44.1341 49.9441 43.5754C50.2793 42.905 50.5587 42.2346 50.7821 41.5642C51.1173 40.7821 51.2849 40 51.2849 39.2179C51.2849 37.3184 50.6145 35.7542 49.2737 34.5251C47.933 33.1844 45.9777 32.514 43.4078 32.514C37.1508 32.514 32.514 36.4804 29.4972 44.4134L0 28.324C3.91061 19.0503 9.66481 12.0112 17.2626 7.2067C24.9721 2.40223 33.5196 0 42.905 0C54.4134 0 64.2458 3.29609 72.4022 9.88827C80.6704 16.3687 84.8045 25.3631 84.8045 36.8715C84.8045 43.9106 83.2402 50.0559 80.1117 55.3073C77.095 60.5587 72.2905 66.8715 65.6983 74.2458L53.7989 87.486H87.3184V120H2.51397Z" fill="#859CAD" fill-opacity="0.16"/>
</svg>
