<svg width="88" height="120" viewBox="0 0 88 120" fill="none" xmlns="http://www.w3.org/2000/svg">
<path d="M62.1788 47.933C69.7765 50.1676 75.8101 54.0782 80.2793 59.6648C84.8603 65.1397 87.1508 72.067 87.1508 80.4469C87.1508 93.4078 83.0168 103.24 74.7486 109.944C66.4804 116.648 56.0894 120 43.5754 120C33.2961 120 24.3017 117.654 16.5922 112.961C8.88268 108.268 3.35196 101.341 0 92.1788L29.4972 75.2514C31.8436 83.4078 36.5363 87.486 43.5754 87.486C46.5922 87.486 48.9944 86.7039 50.7821 85.1397C52.6816 83.5754 53.6313 81.4525 53.6313 78.771C53.6313 73.1844 50.2793 70.3911 43.5754 70.3911H36.3687L23.2961 50.9497L39.0503 32.514H3.68715V0H80.7821V25.8101L62.1788 47.933Z" fill="#859CAD" fill-opacity="0.16"/>
</svg>
