<svg width="32" height="32" viewBox="0 0 32 32" fill="none" xmlns="http://www.w3.org/2000/svg">
<path d="M27.3154 4.68628C24.2944 1.66431 20.2778 0 16.0056 0C11.7332 0 7.7168 1.66431 4.6958 4.68628C1.6748 7.7085 0.0112305 11.7263 0.0112305 16C0.0112305 18.3076 0.514648 20.6052 1.47241 22.689C0.558838 23.6785 0 25.0005 0 26.4504C0 29.5105 2.48877 32 5.54785 32C6.99536 32 8.31494 31.4426 9.30396 30.5312C11.3909 31.4939 13.6934 32 16.0056 32C20.2778 32 24.2947 30.3357 27.3154 27.3137C30.3364 24.2915 32 20.2737 32 16C32 11.7263 30.3364 7.7085 27.3154 4.68628ZM5.54785 30.125C3.52271 30.125 1.875 28.4766 1.875 26.4504C1.875 24.4241 3.52271 22.7756 5.54785 22.7756C7.57324 22.7756 9.22095 24.4241 9.22095 26.4504C9.22095 28.4766 7.57324 30.125 5.54785 30.125ZM25.9895 25.988C23.3225 28.6558 19.7769 30.125 16.0056 30.125C14.075 30.125 12.219 29.7473 10.4744 29.001C10.8713 28.2368 11.0959 27.3694 11.0959 26.4504C11.0959 23.3904 8.60718 20.9006 5.54785 20.9006C4.63159 20.9006 3.76611 21.1243 3.00366 21.5195C2.26172 19.7783 1.88623 17.9263 1.88623 16C1.88623 12.2271 3.35498 8.67993 6.02173 6.01196C8.68848 3.34424 12.2341 1.875 16.0056 1.875C19.7769 1.875 23.3225 3.34424 25.9893 6.01196C28.6562 8.67993 30.125 12.2271 30.125 16C30.125 19.7729 28.6562 23.3201 25.9895 25.988Z" fill="#75ABF3"/>
<path d="M7.2395 25.5129H6.48535V24.7583C6.48535 24.2405 6.06567 23.8208 5.54785 23.8208C5.03027 23.8208 4.61035 24.2405 4.61035 24.7583V25.5129H3.85645C3.33862 25.5129 2.91895 25.9326 2.91895 26.4504C2.91895 26.968 3.33862 27.3879 3.85645 27.3879H4.61035V28.1426C4.61035 28.6602 5.03003 29.0801 5.54785 29.0801C6.06567 29.0801 6.48535 28.6602 6.48535 28.1426V27.3879H7.23926C7.75708 27.3879 8.17676 26.968 8.17676 26.4504C8.17676 25.9326 7.75708 25.5129 7.2395 25.5129Z" fill="#75ABF3"/>
<path d="M18.7283 16.032C19.3794 15.3533 19.78 14.4326 19.78 13.4199C19.78 11.3381 18.0867 9.64453 16.0056 9.64453C13.9243 9.64453 12.2312 11.3381 12.2312 13.4199C12.2312 14.4326 12.6318 15.3533 13.2827 16.032C11.5718 16.99 10.4126 18.821 10.4126 20.918C10.4126 21.4358 10.8323 21.8555 11.3501 21.8555H20.6611C21.1787 21.8555 21.5986 21.4358 21.5986 20.918C21.5986 18.821 20.4395 16.99 18.7283 16.032ZM16.0056 11.5195C17.053 11.5195 17.905 12.3721 17.905 13.4199C17.905 14.4678 17.053 15.3203 16.0056 15.3203C14.9583 15.3203 14.1062 14.4678 14.1062 13.4199C14.1062 12.3721 14.9583 11.5195 16.0056 11.5195ZM12.4072 19.9805C12.8235 18.3818 14.2791 17.1982 16.0056 17.1982C17.7322 17.1982 19.1875 18.3818 19.604 19.9805H12.4072Z" fill="#75ABF3"/>
</svg>
