<svg width="60" height="60" viewBox="0 0 60 60" fill="none" xmlns="http://www.w3.org/2000/svg">
<g clip-path="url(#clip0)">
<path d="M55.8853 10.5794H4.11473C1.84593 10.5794 0 12.4253 0 14.6944V29.7755C0 33.5483 3.06948 36.6177 6.84224 36.6177H53.158C56.9307 36.6177 60.0002 33.5483 60.0002 29.7755V14.6944C60 12.4253 58.1543 10.5794 55.8853 10.5794ZM8.92047 13.8812H51.0795V17.7683C51.0795 19.2966 49.8362 20.5402 48.3079 20.5402H11.6923C10.1641 20.5402 8.92071 19.2968 8.92071 17.7683V13.8812H8.92047ZM56.698 29.7755C56.698 31.7276 55.1098 33.316 53.1575 33.316H6.842C4.88994 33.316 3.30155 31.7278 3.30155 29.7755V14.6944C3.30155 14.246 3.66616 13.8812 4.11449 13.8812H5.61845V17.7683C5.61845 21.1173 8.34313 23.842 11.6918 23.842H48.3074C51.6564 23.842 54.3808 21.1173 54.3808 17.7683V13.8812H55.8848C56.3331 13.8812 56.6977 14.246 56.6977 14.6944V29.7755H56.698Z" fill="#4F4F4F"/>
<path d="M52.7304 28.1237H7.26954C6.35778 28.1237 5.61865 28.8628 5.61865 29.7745C5.61865 30.6863 6.35778 31.4254 7.26954 31.4254H52.7304C53.6421 31.4254 54.3813 30.6863 54.3813 29.7745C54.3813 28.8628 53.6421 28.1237 52.7304 28.1237Z" fill="#4F4F4F"/>
<path d="M19.8548 41.8284C19.7996 41.7975 19.7482 41.7676 19.7004 41.7388C20.4777 41.4046 20.8845 40.5256 20.615 39.7068C20.3298 38.8408 19.3968 38.3696 18.5308 38.6547C18.1207 38.7896 16.0656 39.5558 15.8875 41.3883C15.7653 42.6463 16.5564 43.763 18.2386 44.7076C18.7827 45.013 18.9127 45.2422 18.9157 45.2826C18.9327 45.512 18.4846 46.1165 18.0521 46.4521C17.3245 47.0016 17.1799 48.0367 17.7292 48.7643C18.0537 49.1942 18.5478 49.4206 19.048 49.4206C19.3945 49.4206 19.7438 49.3119 20.0414 49.0872C20.2791 48.9077 22.3592 47.27 22.2097 45.0599C22.1484 44.1543 21.6899 42.8586 19.8548 41.8284Z" fill="#4F4F4F"/>
<path d="M30.8082 41.8284C30.753 41.7975 30.7016 41.7676 30.6537 41.7388C31.4311 41.4046 31.8379 40.5256 31.5683 39.7068C31.2832 38.8408 30.3507 38.3696 29.4842 38.6547C29.0741 38.7896 27.0189 39.5558 26.8409 41.3883C26.7187 42.6463 27.5097 43.763 29.192 44.7076C29.7361 45.013 29.866 45.2422 29.8691 45.2826C29.8861 45.512 29.438 46.1165 29.0054 46.4521C28.2779 47.0016 28.1333 48.0367 28.6826 48.7643C29.0071 49.1942 29.5012 49.4206 30.0014 49.4206C30.3478 49.4206 30.6971 49.3119 30.9948 49.0872C31.2325 48.9077 33.3126 47.27 33.1631 45.0599C33.1018 44.1543 32.6435 42.8586 30.8082 41.8284Z" fill="#4F4F4F"/>
<path d="M41.7616 41.8284C41.7064 41.7975 41.655 41.7676 41.6071 41.7388C42.3844 41.4046 42.7913 40.5256 42.5217 39.7068C42.2366 38.8408 41.3038 38.3696 40.4376 38.6547C40.0274 38.7896 37.9723 39.5558 37.7942 41.3883C37.6721 42.6463 38.4631 43.763 40.1454 44.7076C40.6894 45.013 40.8194 45.2422 40.8225 45.2826C40.8394 45.512 40.3913 46.1165 39.9588 46.4521C39.2312 47.0016 39.0867 48.0367 39.6359 48.7643C39.9605 49.1942 40.4545 49.4206 40.9548 49.4206C41.3012 49.4206 41.6505 49.3119 41.9481 49.0872C42.1859 48.9077 44.266 47.27 44.1165 45.0599C44.0551 44.1543 43.5969 42.8586 41.7616 41.8284Z" fill="#4F4F4F"/>
</g>
<defs>
<clipPath id="clip0">
<rect width="60" height="60" fill="white"/>
</clipPath>
</defs>
</svg>
