<svg width="26" height="26" viewBox="0 0 26 26" fill="none" xmlns="http://www.w3.org/2000/svg">
<g clip-path="url(#clip0)">
<path d="M13.0008 0C5.8327 0 0.000976562 5.83173 0.000976562 12.9999C0.000976562 20.1683 5.8327 26.0001 13.0008 26.0001C13.5373 26.0001 13.9719 25.5654 13.9719 25.0291C13.9719 24.4928 13.5373 24.058 13.0008 24.058C6.90357 24.058 1.94307 19.0974 1.94307 12.9999C1.94307 6.9026 6.90357 1.9421 13.0008 1.9421C19.0981 1.9421 24.0586 6.9026 24.0586 12.9999V16.0075C24.0586 17.1303 23.1451 18.0438 22.0221 18.0438C20.8993 18.0438 19.9859 17.1303 19.9859 16.0075V12.9999C19.9859 9.14805 16.8524 6.01441 13.0007 6.01441C9.14889 6.01441 6.01526 9.14805 6.01526 12.9999C6.01526 16.852 9.14889 19.9858 13.0007 19.9858C15.1384 19.9858 17.0539 19.0196 18.3362 17.5019C18.9281 18.9569 20.3569 19.9858 22.0221 19.9858C24.2158 19.9858 26.0007 18.2012 26.0007 16.0075V12.9999C26.0007 5.83173 20.169 0 13.0008 0ZM13.0008 18.0438C10.2199 18.0438 7.95748 15.7811 7.95748 12.9999C7.95748 10.2189 10.22 7.95651 13.0008 7.95651C15.7817 7.95651 18.0439 10.2189 18.0439 12.9999C18.0439 15.7811 15.7817 18.0438 13.0008 18.0438Z" fill="#3E3D48"/>
</g>
<defs>
<clipPath id="clip0">
<rect width="26" height="26" fill="white"/>
</clipPath>
</defs>
</svg>
