<svg width="60" height="60" viewBox="0 0 60 60" fill="none" xmlns="http://www.w3.org/2000/svg">
<path d="M58.0132 26.7789C56.7698 25.8079 55.2033 25.4324 53.4412 25.8729C53.2453 25.9219 53.0486 25.9683 52.8525 26.0163V8.78906C52.8525 3.94277 48.9098 0 44.0635 0C39.7288 0 36.1192 3.15539 35.4051 7.2893C33.2914 7.97672 31.7588 9.96469 31.7588 12.3047V15.8203C31.7588 16.7911 32.5458 17.5781 33.5166 17.5781H40.5478C41.5186 17.5781 42.3057 16.7911 42.3057 15.8203V12.3047C42.3057 10.0832 40.9243 8.17957 38.9759 7.40402C39.5859 5.16621 41.6351 3.51562 44.0635 3.51562C46.9712 3.51562 49.3369 5.88129 49.3369 8.78906V26.8246C35.1538 29.8685 20.1958 30.5331 5.81043 28.735C2.72711 28.3495 0.000976562 30.7571 0.000976562 33.8636V34.0204C0.000976562 36.4167 1.65355 38.4756 3.93191 39.0373L6.19879 48.8984C6.51238 50.9623 7.55113 52.849 9.12953 54.218C10.5188 55.4228 12.246 56.1565 14.0635 56.3278V58.2422C14.0635 59.213 14.8505 60 15.8213 60C16.7921 60 17.5791 59.213 17.5791 58.2422V56.3672H42.4228V58.2422C42.4228 59.213 43.2099 60 44.1807 60C45.1514 60 45.9385 59.213 45.9385 58.2422V56.3277C47.7559 56.1564 49.483 55.4228 50.8724 54.2178C52.4508 52.8489 53.4896 50.9623 53.8032 48.8984L56.8587 35.6071C60.4688 34.0737 61.1172 29.2024 58.0132 26.7789ZM38.79 14.0625H35.2744V12.3047C35.2744 11.3354 36.063 10.5469 37.0322 10.5469C38.0015 10.5469 38.79 11.3354 38.79 12.3047V14.0625ZM24.7275 33.2171C26.476 33.1807 28.2241 33.1123 29.9695 33.0076C34.1027 32.7598 38.2243 32.3202 42.3057 31.6936V44.0625C42.3057 45.0318 41.5171 45.8203 40.5478 45.8203H38.79V40.5469C38.79 39.5761 38.003 38.7891 37.0322 38.7891C36.0614 38.7891 35.2744 39.5761 35.2744 40.5469V45.8203H31.7588V40.5469C31.7588 39.5761 30.9718 38.7891 30.001 38.7891C29.0302 38.7891 28.2432 39.5761 28.2432 40.5469V45.8203H26.4853C25.5161 45.8203 24.7275 45.0318 24.7275 44.0625V33.2171ZM4.96434 35.6605C4.13898 35.5574 3.5166 34.8523 3.5166 34.0204V33.8636C3.5166 32.869 4.38461 32.0994 5.37449 32.2235C10.6028 32.8771 15.9025 33.2169 21.2119 33.2447V36.7617C15.1906 36.728 10.2474 36.3207 4.96434 35.6605ZM50.3611 48.1787C50.3501 48.2268 50.3411 48.2752 50.3342 48.324C49.9654 50.9051 47.7211 52.8516 45.1137 52.8516H14.8882C12.2808 52.8516 10.0366 50.9051 9.66777 48.3239C9.66074 48.275 9.65172 48.2266 9.64082 48.1786L7.64992 39.5181C12.126 39.998 16.6711 40.2524 21.2119 40.2775V44.0625C21.2119 46.9703 23.5776 49.3359 26.4853 49.3359H40.5478C43.4556 49.3359 45.8213 46.9703 45.8213 44.0625V38.1209C48.336 37.6661 50.7462 37.1652 53.0172 36.6254L50.3611 48.1787ZM55.2334 32.4561C53.0152 33.0107 50.3482 33.7072 45.8214 34.5461V31.1039C48.6727 30.5879 51.5005 29.982 54.2938 29.2836L54.4316 29.2492C54.9287 29.1248 55.4458 29.2345 55.8498 29.5499C56.929 30.3925 56.5719 32.1216 55.2334 32.4561Z" fill="#4F4F4F"/>
</svg>
