<svg width="16" height="16" viewBox="0 0 16 16" fill="none" xmlns="http://www.w3.org/2000/svg">
<g clip-path="url(#clip0)">
<path d="M15.974 11.7807C15.9987 11.7147 16.0073 11.6421 15.9847 11.5687L14.6667 7.28537V3.3334C14.6667 2.41475 13.9193 1.66675 13 1.66675H3C2.08066 1.66675 1.33334 2.41475 1.33334 3.3334V7.2854L0.0153437 11.5687C-0.0073125 11.6414 0.00134375 11.7141 0.026 11.7807C0.01 11.8514 0 11.9241 0 12.0001V14.6667V16.0001C0 16.1841 0.149344 16.3334 0.333344 16.3334H1.66669C1.85066 16.3334 2 16.1841 2 16.0001V15.0001H14V16.0001C14 16.1841 14.1493 16.3334 14.3333 16.3334H15.6667C15.8507 16.3334 16 16.1841 16 16.0001V14.6667V12.0001C16 11.9241 15.99 11.8514 15.974 11.7807ZM2 3.3334C2 2.78206 2.44866 2.3334 3 2.3334H13C13.5513 2.3334 14 2.78206 14 3.3334V7.00006H13.094L12.7833 5.7574C12.6713 5.3114 12.272 5.00006 11.8127 5.00006H9.66666C9.11531 5.00006 8.66666 5.44872 8.66666 6.00006V7.00006H7.33331V6.00072C7.33331 5.44937 6.88466 5.00072 6.33331 5.00072H4.18731C3.72797 5.00072 3.32866 5.31272 3.21666 5.75806L2.906 7.00006H2V3.3334ZM12.4093 7.53872C12.3453 7.62006 12.2493 7.66672 12.146 7.66672H9.66666C9.48331 7.66672 9.33331 7.51737 9.33331 7.33337V6.00006C9.33331 5.81606 9.48331 5.66672 9.66666 5.66672H11.8133C11.9667 5.66672 12.0993 5.77006 12.1367 5.91872L12.47 7.25206C12.4953 7.35272 12.4733 7.45672 12.4093 7.53872ZM6.66734 6.00006V7.33006C6.66734 7.3314 6.66669 7.33206 6.66669 7.3334C6.66669 7.33406 6.66669 7.33475 6.66669 7.33475C6.66603 7.51809 6.51669 7.66675 6.33403 7.66675H3.85469C3.75069 7.66675 3.65534 7.62009 3.59134 7.53875C3.52734 7.45675 3.50534 7.35209 3.53069 7.25209L3.86403 5.91875C3.90138 5.77075 4.03403 5.66675 4.18803 5.66675H6.33403C6.51734 5.66672 6.66734 5.81606 6.66734 6.00006ZM1.91266 7.66672H2.916C2.95134 7.76672 2.99734 7.86272 3.06466 7.94937C3.25666 8.19337 3.544 8.33337 3.854 8.33337H6.33334C6.76734 8.33337 7.134 8.05337 7.272 7.66672H8.728C8.866 8.05406 9.23266 8.33337 9.66666 8.33337H12.146C12.456 8.33337 12.7427 8.19337 12.9347 7.94937C13.002 7.86337 13.048 7.76672 13.0833 7.66672H14.0873L15.1167 11.0121C15.078 11.0074 15.04 11.0001 15 11.0001H1C0.96 11.0001 0.922 11.0074 0.884 11.0121L1.91266 7.66672ZM1.33334 15.6667H0.666656V15.0001H1.33331V15.6667H1.33334ZM15.3333 15.6667H14.6667V15.0001H15.3333V15.6667ZM15.3333 14.3334H0.666656V12.0001C0.666656 11.8161 0.816656 11.6667 1 11.6667H15C15.1833 11.6667 15.3333 11.8161 15.3333 12.0001V14.3334Z" fill="#859CAD"/>
</g>
<defs>
<clipPath id="clip0">
<rect width="16" height="16" fill="white"/>
</clipPath>
</defs>
</svg>
