<svg width="41" height="22" viewBox="0 0 41 22" fill="none" xmlns="http://www.w3.org/2000/svg">
<rect x="9" width="32" height="2" rx="1" fill="#004677"/>
<rect x="9" y="10" width="32" height="2" rx="1" fill="#004677"/>
<rect x="9" y="20" width="32" height="2" rx="1" fill="#004677"/>
<path d="M4.91274 17.9022L4.91274 18.9398L1.93717 18.9398C1.56777 18.9398 1.2929 19.0102 1.11257 19.1509C0.929319 19.2916 0.837696 19.5114 0.837696 19.8104C0.837696 20.209 0.967132 20.5022 1.226 20.6898C1.48197 20.8744 1.90954 20.9668 2.50873 20.9668L4.91274 20.9668L4.91274 22L0.0872601 22L0.08726 21.191L0.719895 21.0459L0.719895 20.9931C0.490111 20.8583 0.312682 20.6634 0.187609 20.4084C0.0625363 20.1504 -9.32122e-08 19.8676 -1.06666e-07 19.5598C-1.39338e-07 18.8123 0.253054 18.3169 0.759162 18.0737L0.759162 18.0033C0.520651 17.8597 0.334497 17.6574 0.200698 17.3966C0.0668992 17.1357 -2.25695e-07 16.8367 -2.4043e-07 16.4996C-2.65799e-07 15.9192 0.145433 15.4971 0.4363 15.2333C0.727167 14.9666 1.17074 14.8332 1.76702 14.8332L4.91274 14.8332L4.91274 15.8665L1.93717 15.8665C1.56777 15.8665 1.2929 15.9383 1.11257 16.0819C0.929319 16.2226 0.837696 16.4424 0.837696 16.7414C0.837696 17.143 0.962769 17.4376 1.21291 17.6252C1.46015 17.8099 1.84119 17.9022 2.35602 17.9022L4.91274 17.9022Z" fill="#004677"/>
<path d="M5 11.8527C5 12.609 4.78185 13.2011 4.34555 13.629C3.90634 14.054 3.30279 14.2666 2.5349 14.2666C1.74666 14.2666 1.12711 14.0687 0.676265 13.673C0.225421 13.2773 -4.0505e-07 12.7335 -4.35288e-07 12.0418C-4.63347e-07 11.3998 0.193426 10.8927 0.580279 10.5205C0.967132 10.1482 1.49942 9.96209 2.17714 9.96209L2.73124 9.96209L2.73124 13.2025C3.19953 13.1879 3.56021 13.0604 3.81326 12.82C4.06341 12.5797 4.18848 12.2411 4.18848 11.8044C4.18848 11.5171 4.1623 11.2504 4.10995 11.0041C4.05468 10.755 3.96451 10.4882 3.83944 10.2039L4.67278 10.2039C4.79203 10.456 4.87638 10.711 4.92583 10.969C4.97528 11.2269 5 11.5215 5 11.8527ZM0.776614 12.0418C0.776614 12.3701 0.879872 12.6339 1.08639 12.8332C1.2929 13.0296 1.59395 13.1468 1.98953 13.1849L1.98953 10.9778C1.59104 10.9836 1.28999 11.0803 1.08639 11.2679C0.879872 11.4555 0.776614 11.7135 0.776614 12.0418Z" fill="#004677"/>
<path d="M4.91274 5.09536L4.91274 6.13301L1.9459 6.13301C1.57359 6.13301 1.29581 6.20922 1.11256 6.36164C0.929319 6.51113 0.837696 6.75002 0.837696 7.07832C0.837696 7.51507 0.965677 7.83457 1.22164 8.03682C1.4776 8.23907 1.90663 8.3402 2.50873 8.3402L4.91274 8.3402L4.91274 9.37345L0.0872595 9.37345L0.0872595 8.56444L0.719895 8.41934L0.719895 8.36658C0.49011 8.22002 0.312681 8.01191 0.187608 7.74224C0.0625357 7.47257 -6.48083e-07 7.17358 -6.62433e-07 6.84529C-7.13428e-07 5.67867 0.589005 5.09536 1.76702 5.09536L4.91274 5.09536Z" fill="#004677"/>
<path d="M4.91274 0.813408L4.2801 0.958502L4.2801 1.01126C4.50407 1.15489 4.68005 1.36007 4.80803 1.62682C4.93601 1.89062 5 2.19254 5 2.53256C5 3.12173 4.85457 3.56141 4.5637 3.85159C4.27283 4.14178 3.83217 4.28688 3.24171 4.28688L0.0872593 4.28688L0.0872592 3.24484L3.06283 3.24484C3.43223 3.24484 3.71001 3.16863 3.89616 3.0162C4.07941 2.86378 4.17103 2.62489 4.17103 2.29953C4.17103 1.86571 4.04305 1.54767 3.78709 1.34542C3.52821 1.14024 3.09628 1.03764 2.49127 1.03764L0.0872591 1.03764L0.0872591 -3.81426e-09L4.91274 -2.14743e-07L4.91274 0.813408Z" fill="#004677"/>
</svg>
