<svg width="60" height="60" viewBox="0 0 60 60" fill="none" xmlns="http://www.w3.org/2000/svg">
<g clip-path="url(#clip0)">
<path d="M59.8505 31.3911C59.8481 31.3619 59.8451 31.333 59.8414 31.3043C59.5243 28.6303 58.7356 26.0115 57.5145 23.6117L55.0586 18.7858C53.35 15.4283 49.9482 13.3424 46.1808 13.3424H1.75786C0.787054 13.3424 0 14.1295 0 15.1003V41.3839C0 42.3547 0.787054 43.1417 1.75786 43.1417H6.54394C7.26959 45.1878 9.22351 46.6574 11.5152 46.6574C13.8069 46.6574 15.7608 45.1878 16.4864 43.1417H38.8768C39.6025 45.1878 41.5564 46.6574 43.848 46.6574C46.1397 46.6574 48.0936 45.1878 48.8193 43.1417H58.2424C59.2132 43.1417 60.0002 42.3547 60.0002 41.3839C60 41.384 59.9489 32.2492 59.8505 31.3911ZM51.9253 20.3804L54.3812 25.2063C55.1163 26.6508 55.6642 28.1897 56.017 29.7719H51.2881L47.9387 24.3401V17.0998C49.6435 17.5789 51.0941 18.7469 51.9253 20.3804ZM25.7265 23.1275V16.8583H33.3168V23.1275H25.7265ZM14.6204 23.1275V16.8583H22.2107V23.1275H14.6204ZM36.8325 16.8583H44.423V23.1275H36.8325V16.8583ZM11.1047 16.8583V23.1275H3.51573V16.8583H11.1047ZM11.5152 43.1418C10.5459 43.1418 9.75732 42.3533 9.75732 41.384C9.75732 40.4147 10.5459 39.6261 11.5152 39.6261C12.4845 39.6261 13.273 40.4147 13.273 41.384C13.273 42.3533 12.4845 43.1418 11.5152 43.1418ZM43.8479 43.1418C42.8786 43.1418 42.0901 42.3533 42.0901 41.384C42.0901 40.4147 42.8786 39.6261 43.8479 39.6261C44.8172 39.6261 45.6058 40.4147 45.6058 41.384C45.6058 42.3533 44.8172 43.1418 43.8479 43.1418ZM56.4843 39.6261H48.819C48.0934 37.5801 46.1395 36.1104 43.8478 36.1104C41.5561 36.1104 39.6022 37.5801 38.8766 39.6261H16.4863C15.7607 37.5801 13.8067 36.1104 11.5151 36.1104C9.22351 36.1104 7.26947 37.5801 6.54382 39.6261H3.51573V33.2876H23.5205C24.4913 33.2876 25.2783 32.5005 25.2783 31.5297C25.2783 30.5589 24.4913 29.7719 23.5205 29.7719H3.51573V26.6432H45.2285L48.8106 32.4524C49.1307 32.9715 49.6969 33.2876 50.3068 33.2876H56.4703C56.4786 33.5171 56.4842 33.7466 56.4842 33.9762V39.6261H56.4843Z" fill="#4F4F4F"/>
<path d="M35.4605 29.7717H31.2789C30.3081 29.7717 29.521 30.5588 29.521 31.5296C29.521 32.5004 30.3081 33.2875 31.2789 33.2875H35.4605C36.4313 33.2875 37.2183 32.5004 37.2183 31.5296C37.2183 30.5588 36.4314 29.7717 35.4605 29.7717Z" fill="#4F4F4F"/>
</g>
<defs>
<clipPath id="clip0">
<rect width="60" height="60" fill="white"/>
</clipPath>
</defs>
</svg>
