<svg width="32" height="32" viewBox="0 0 32 32" fill="none" xmlns="http://www.w3.org/2000/svg">
<path d="M30.1245 8H31.0625C31.5803 8 32 7.58008 32 7.0625V6.4375C32 4.19751 30.1775 2.375 27.9375 2.375H4.0625C1.82251 2.375 0 4.19751 0 6.4375V7.0625C0 7.58008 0.419678 8 0.9375 8H1.875V27.7H0.938477C0.420654 27.7 0.000976562 28.1196 0.000976562 28.6372C0.000976562 29.155 0.420654 29.5747 0.938477 29.5747H4.6875C5.20508 29.5747 5.625 29.155 5.625 28.6372C5.625 28.1196 5.20508 27.7 4.6875 27.7H3.75V18.7756H28.2495V27.7H27.313C26.7952 27.7 26.3755 28.1196 26.3755 28.6372C26.3755 29.155 26.7952 29.5747 27.313 29.5747H31.0618C31.5796 29.5747 31.9993 29.155 31.9993 28.6372C31.9993 28.1196 31.5796 27.7 31.0618 27.7H30.1245V8ZM4.0625 4.25H27.9375C29.0376 4.25 29.9507 5.06616 30.1028 6.125H1.89722C2.04932 5.06616 2.9624 4.25 4.0625 4.25ZM7.93701 16.9006V11.7498H11.2068V16.9006H7.93701ZM13.0818 16.9006V10.8125C13.0818 10.2947 12.6621 9.875 12.1443 9.875H6.99976C6.48193 9.875 6.06226 10.2947 6.06226 10.8125V16.9006H3.75V8H28.2495V16.9006H13.0818Z" fill="#75ABF3"/>
<path d="M24.8936 24.4004H23.3127V22.5256H23.5879C24.1055 22.5256 24.5254 22.1057 24.5254 21.5881C24.5254 21.0703 24.1055 20.6506 23.5879 20.6506H12.8896C12.3721 20.6506 11.9521 21.0703 11.9521 21.5881C11.9521 22.1057 12.3721 22.5256 12.8896 22.5256H13.1646V24.4004H11.584C11.0662 24.4004 10.6465 24.8203 10.6465 25.3379C10.6465 25.8557 11.0662 26.2754 11.584 26.2754H11.9521V28.3708C11.9521 28.8887 12.3721 29.3083 12.8896 29.3083C13.4075 29.3083 13.8271 28.8887 13.8271 28.3708V26.2754H22.6504V28.3708C22.6504 28.8887 23.0701 29.3083 23.5879 29.3083C24.1055 29.3083 24.5254 28.8887 24.5254 28.3708V26.2754H24.8936C25.4114 26.2754 25.8311 25.8557 25.8311 25.3379C25.8311 24.8203 25.4114 24.4004 24.8936 24.4004ZM15.0396 22.5256H21.438V24.4004H15.0396V22.5256Z" fill="#75ABF3"/>
</svg>
