<svg width="80" height="80" viewBox="0 0 80 80" fill="none" xmlns="http://www.w3.org/2000/svg">
<path d="M70.625 6.25H66.875V0H60.625V6.25H19.375V0H13.125V6.25H9.375C4.20563 6.25 0 10.4556 0 15.625V70.625C0 75.7944 4.20563 80 9.375 80H70.625C75.7944 80 80 75.7944 80 70.625V15.625C80 10.4556 75.7944 6.25 70.625 6.25ZM73.75 70.625C73.75 72.3481 72.3481 73.75 70.625 73.75H9.375C7.65188 73.75 6.25 72.3481 6.25 70.625V29.375H73.75V70.625ZM73.75 23.125H6.25V15.625C6.25 13.9019 7.65188 12.5 9.375 12.5H13.125V18.75H19.375V12.5H60.625V18.75H66.875V12.5H70.625C72.3481 12.5 73.75 13.9019 73.75 15.625V23.125Z" fill="#004677"/>
<path d="M18.125 35.9375H11.875V42.1875H18.125V35.9375Z" fill="#004677"/>
<path d="M30.625 35.9375H24.375V42.1875H30.625V35.9375Z" fill="#004677"/>
<path d="M43.125 35.9375H36.875V42.1875H43.125V35.9375Z" fill="#004677"/>
<path d="M55.625 35.9375H49.375V42.1875H55.625V35.9375Z" fill="#004677"/>
<path d="M68.125 35.9375H61.875V42.1875H68.125V35.9375Z" fill="#004677"/>
<path d="M18.125 48.4375H11.875V54.6875H18.125V48.4375Z" fill="#004677"/>
<path d="M30.625 48.4375H24.375V54.6875H30.625V48.4375Z" fill="#004677"/>
<path d="M43.125 48.4375H36.875V54.6875H43.125V48.4375Z" fill="#004677"/>
<path d="M55.625 48.4375H49.375V54.6875H55.625V48.4375Z" fill="#004677"/>
<path d="M18.125 60.9375H11.875V67.1875H18.125V60.9375Z" fill="#004677"/>
<path d="M30.625 60.9375H24.375V67.1875H30.625V60.9375Z" fill="#004677"/>
<path d="M43.125 60.9375H36.875V67.1875H43.125V60.9375Z" fill="#004677"/>
<path d="M55.625 60.9375H49.375V67.1875H55.625V60.9375Z" fill="#004677"/>
<path d="M68.125 48.4375H61.875V54.6875H68.125V48.4375Z" fill="#004677"/>
</svg>
