<svg width="22" height="22" viewBox="0 0 22 22" fill="none" xmlns="http://www.w3.org/2000/svg">
<path fill-rule="evenodd" clip-rule="evenodd" d="M21.7226 1.61786C22.0927 1.24775 22.0927 0.647689 21.7226 0.277581C21.3525 -0.0925271 20.7524 -0.0925271 20.3823 0.277581L10.9999 9.65999L1.61786 0.277939C1.24775 -0.0921693 0.647689 -0.0921696 0.277581 0.277939C-0.0925271 0.648047 -0.0925271 1.24811 0.277581 1.61822L9.65963 11.0003L0.278119 20.3818C-0.0919892 20.7519 -0.0919895 21.352 0.278119 21.7221C0.648227 22.0922 1.24829 22.0922 1.6184 21.7221L10.9999 12.3405L20.3818 21.7224C20.7519 22.0925 21.352 22.0925 21.7221 21.7224C22.0922 21.3523 22.0922 20.7522 21.7221 20.3821L12.3402 11.0003L21.7226 1.61786Z" fill="white"/>
</svg>
