<svg width="60" height="60" viewBox="0 0 60 60" fill="none" xmlns="http://www.w3.org/2000/svg">
<g clip-path="url(#clip0)">
<path d="M58.2097 4.10156H1.79031C0.801544 4.10156 0 4.90311 0 5.89188V54.0001C0 54.9889 0.801544 55.7904 1.79031 55.7904H58.2097C59.1985 55.7904 60 54.9889 60 54.0001V5.89188C60 4.90311 59.1985 4.10156 58.2097 4.10156V4.10156ZM3.58109 7.68265H18.8063V52.2093H3.58109V7.68265ZM22.3874 7.68265H37.6131V52.2093H22.3874V7.68265ZM56.4189 52.2093H41.1937V7.68265H56.4189V52.2093Z" fill="#4F4F4F"/>
<path d="M8.04663 25.7281C7.05786 25.7281 6.25586 26.5297 6.25586 27.5185V32.3735C6.25586 33.3623 7.05786 34.1638 8.04663 34.1638C9.0354 34.1638 9.83694 33.3623 9.83694 32.3735V27.5185C9.83694 26.5297 9.0354 25.7281 8.04663 25.7281Z" fill="#4F4F4F"/>
<path d="M33.1472 25.7281C32.1585 25.7281 31.3569 26.5297 31.3569 27.5185V32.3735C31.3569 33.3623 32.1585 34.1638 33.1472 34.1638C34.136 34.1638 34.9376 33.3623 34.9376 32.3735V27.5185C34.9376 26.5297 34.136 25.7281 33.1472 25.7281Z" fill="#4F4F4F"/>
<path d="M45.6592 34.1638C46.648 34.1638 47.4495 33.3623 47.4495 32.3735V27.5185C47.4495 26.5297 46.648 25.7281 45.6592 25.7281C44.6704 25.7281 43.8689 26.5297 43.8689 27.5185V32.3735C43.8689 33.3623 44.6704 34.1638 45.6592 34.1638Z" fill="#4F4F4F"/>
</g>
<defs>
<clipPath id="clip0">
<rect width="60" height="60" fill="white"/>
</clipPath>
</defs>
</svg>
