<svg xmlns="http://www.w3.org/2000/svg" viewBox="0 0 526.62 178.44"><defs><style>.cls-1,.cls-3{fill:#0c5d91;}.cls-1{fill-rule:evenodd;}.cls-2{fill:#fefefe;}</style></defs><title>Asset 2</title><g id="Layer_2" data-name="Layer 2"><g id="Layer_1-2" data-name="Layer 1"><g id="Слой_1"><g id="_1755035822992" data-name=" 1755035822992"><polygon class="cls-1" points="1.11 178.44 525.51 178.44 525.51 134.76 1.11 134.76 1.11 178.44"/><path class="cls-2" d="M21.29,147.37a9,9,0,0,1,3.8.71,6.78,6.78,0,0,1,3.85,4.4,10.42,10.42,0,0,1-.05,5.89,7.09,7.09,0,0,1-1.39,2.5,6.67,6.67,0,0,1-2.33,1.73,8,8,0,0,1-3.29.62,10.93,10.93,0,0,1-2.94-.4v-4.59a4,4,0,0,0,1.89.43,3.06,3.06,0,0,0,2.27-.86,3.22,3.22,0,0,0,.85-2.46,7,7,0,0,0-.08-.8,2.76,2.76,0,0,0-.4-1.13,3.34,3.34,0,0,0-1.08-1,4.13,4.13,0,0,0-2.07-.42H18v15.9H12.7v-20.5ZM43.6,152H36.79v11.31h7.26v4.59H31.55v-20.5H43.6Zm1.1,6.26H37.79v-4.59H44.7Zm1.5-10.86H58.79V152H51.48v15.9H46.2Zm19.34,0v20.5H60.29v-20.5Zm2.29,10.24a14.09,14.09,0,0,1,.71-4.54,9.87,9.87,0,0,1,2-3.37,8.42,8.42,0,0,1,3.06-2.07,10.82,10.82,0,0,1,7.71,0,8.57,8.57,0,0,1,3,2.07,9.85,9.85,0,0,1,2,3.37,13.06,13.06,0,0,1,.74,4.54,13.23,13.23,0,0,1-.74,4.59,9.85,9.85,0,0,1-2,3.37,8.57,8.57,0,0,1-3,2.07,11.27,11.27,0,0,1-7.71,0,8.42,8.42,0,0,1-3.06-2.07,9.87,9.87,0,0,1-2-3.37A14.27,14.27,0,0,1,67.83,157.61Zm5.42,0a11.86,11.86,0,0,0,.22,2.26,6.44,6.44,0,0,0,.71,2,4,4,0,0,0,1.31,1.36,3.45,3.45,0,0,0,2,.51,3.6,3.6,0,0,0,2-.51,3.86,3.86,0,0,0,1.27-1.36,6.23,6.23,0,0,0,.74-2,11.12,11.12,0,0,0,0-4.5,6.23,6.23,0,0,0-.74-2,3.86,3.86,0,0,0-1.27-1.36,3.6,3.6,0,0,0-2-.51,3.53,3.53,0,0,0-2.86,1.3,5,5,0,0,0-.74,1.28,8.85,8.85,0,0,0-.39,1.39,6.34,6.34,0,0,0-.15,1.25C73.28,157.12,73.25,157.41,73.25,157.61Zm21.34-10.24v20.5H89.35v-20.5Zm11.31,0v20.5h-5.24V157.75h-5.1v-4.57h5.1v-5.81Zm13,0c.34.63.8,1.48,1.34,2.61A45.63,45.63,0,0,1,122,154.2c.6,1.71,1.22,3.66,1.82,5.93a67.17,67.17,0,0,1,1.56,7.74h-5.25c-.11-.63-.17-1.08-.22-1.36s-.09-.57-.12-.77-.05-.37-.08-.54-.09-.45-.14-.79h-5.22c.11-.77.25-1.47.42-2.18s.34-1.39.52-2.1h3.23c-.26-1-.54-2-.91-3.09s-.77-2.07-1.16-3a46.12,46.12,0,0,0-2.3,6.72,58.41,58.41,0,0,0-1.47,7.09H107.4c.15-.94.34-2,.6-3.09s.51-2.3.82-3.52.68-2.46,1.05-3.74.77-2.49,1.19-3.68.88-2.38,1.36-3.49a25.07,25.07,0,0,1,1.48-3ZM137,152c-.26,0-.6,0-1,.05a6.92,6.92,0,0,0-1.16.31,4.15,4.15,0,0,0-1.19.8,4.73,4.73,0,0,0-1.08,1.41,10.16,10.16,0,0,0-.76,2.3,18.65,18.65,0,0,0-.29,3.35c0,.51,0,1.1.06,1.75s.06,1.34.09,2,.05,1.38.14,2.07.08,1.27.14,1.84h-5.3c-.23-2.1-.37-3.77-.43-5s-.11-2.13-.11-2.72a25,25,0,0,1,.45-4.93,16,16,0,0,1,1.19-3.49,8,8,0,0,1,1.65-2.27,6.84,6.84,0,0,1,1.9-1.33,7.31,7.31,0,0,1,1.9-.63,13.27,13.27,0,0,1,1.64-.14h8v20.5h-5.27V152Zm14.14-4.6v15.91h1.59a13.22,13.22,0,0,0,1.56-.09,4.12,4.12,0,0,0,1.33-.4,2.7,2.7,0,0,0,.94-1,3.52,3.52,0,0,0,.36-1.76,4.41,4.41,0,0,0-.17-1.24,2.88,2.88,0,0,0-.56-1.05,3.09,3.09,0,0,0-1-.74,3.58,3.58,0,0,0-1.41-.28,2.62,2.62,0,0,0-.88.11,2.81,2.81,0,0,0-.82.34v-4.59a9.64,9.64,0,0,1,3-.43,7.31,7.31,0,0,1,3,.57,6.59,6.59,0,0,1,2.27,1.61,7.14,7.14,0,0,1,1.45,2.47,9.43,9.43,0,0,1,.51,3.18,11.46,11.46,0,0,1-.37,2.77,6.88,6.88,0,0,1-1.28,2.53,6.72,6.72,0,0,1-2.55,1.84,9.9,9.9,0,0,1-4,.71H145.9v-20.5Zm18.65,0v20.5h-5.27v-20.5Zm11.31,0v20.5h-5.27V157.75h-5.07v-4.57h5.07v-5.81Zm13,0c.34.63.79,1.48,1.36,2.61s1.13,2.55,1.73,4.22,1.22,3.66,1.84,5.93a74.22,74.22,0,0,1,1.56,7.74h-5.27c-.09-.63-.17-1.08-.23-1.36s-.09-.57-.11-.77a3.38,3.38,0,0,0-.09-.54l-.14-.79h-5.22c.14-.77.29-1.47.46-2.18s.31-1.39.51-2.1h3.2a31.76,31.76,0,0,0-.91-3.09,23.43,23.43,0,0,0-1.16-3,47.34,47.34,0,0,0-2.3,6.72c-.62,2.38-1.1,4.73-1.47,7.09h-5.24c.14-.94.34-2,.56-3.09s.54-2.3.85-3.52.66-2.46,1-3.74.8-2.49,1.22-3.68.85-2.38,1.34-3.49a28.58,28.58,0,0,1,1.47-3Zm22.53,17.1a23,23,0,0,0-.85-3.63,15.07,15.07,0,0,0-1-2.58,10,10,0,0,0-1-1.62l-.65-.82v12.05h-5.25v-20.5h5.25a17.27,17.27,0,0,1,1.58,1.9c.51.77,1,1.56,1.51,2.38s.87,1.65,1.24,2.47a13.22,13.22,0,0,1,.77,2.15h.11a11.6,11.6,0,0,1,.77-2.15,21.12,21.12,0,0,1,1.24-2.47,28.09,28.09,0,0,1,1.51-2.38,15.73,15.73,0,0,1,1.56-1.9h5.27v20.5h-5.27V155.82c-.29.34-.57.74-.91,1.22a15.28,15.28,0,0,0-1,1.76,19.67,19.67,0,0,0-.87,2.43,24.48,24.48,0,0,0-.74,3.24Zm27.1-12.5H237v11.31h7.25v4.59H231.7v-20.5h12.05Zm1.14,6.26h-6.95v-4.59h6.95ZM255,147.37a9,9,0,0,1,3.79.71,7.2,7.2,0,0,1,2.5,1.84,6.94,6.94,0,0,1,1.36,2.56,10.67,10.67,0,0,1,.4,2.89,9.37,9.37,0,0,1-.46,3,6.79,6.79,0,0,1-1.39,2.5,6.66,6.66,0,0,1-2.35,1.73,7.82,7.82,0,0,1-3.29.62,11.26,11.26,0,0,1-2.94-.4v-4.59a4.17,4.17,0,0,0,1.89.43,3,3,0,0,0,2.27-.86,3.22,3.22,0,0,0,.85-2.46,5.52,5.52,0,0,0-.05-.8,2.76,2.76,0,0,0-.4-1.13,3.8,3.8,0,0,0-1.08-1A4.21,4.21,0,0,0,254,152h-2.38v15.9h-5.24v-20.5Zm22.28,4.6h-6.78v11.31h7.26v4.59h-12.5v-20.5h12Zm1.13,6.26h-6.94v-4.59h6.94Zm16-10.86v4.91a4.56,4.56,0,0,0,1.42-.77,7,7,0,0,0,1.25-1.19,10.08,10.08,0,0,0,1-1.42,10,10,0,0,0,.77-1.53h5.95a14.6,14.6,0,0,1-2.1,3.72,20,20,0,0,1-3.09,3.28,18,18,0,0,1,2.27,3,23.26,23.26,0,0,1,1.67,3.4,25.53,25.53,0,0,1,1.08,3.57,22,22,0,0,1,.56,3.49h-5.35c-.12-.8-.29-1.67-.51-2.67s-.57-1.95-.94-2.94-.82-2-1.3-2.9a14.26,14.26,0,0,0-1.65-2.46,3.08,3.08,0,0,1-1.05.45v10.52h-5.24V157.35a2.77,2.77,0,0,1-1.05-.45,14.82,14.82,0,0,0-1.64,2.46,22.19,22.19,0,0,0-1.31,2.9,20.44,20.44,0,0,0-.93,2.91,17.51,17.51,0,0,0-.51,2.7h-5.36a28,28,0,0,1,.65-3.77,25.15,25.15,0,0,1,1.14-3.6,24,24,0,0,1,1.64-3.29,20.35,20.35,0,0,1,2.15-2.84,17,17,0,0,1-2.09-2.06,14.9,14.9,0,0,1-1.51-1.9,13.72,13.72,0,0,1-1-1.68,12.76,12.76,0,0,1-.59-1.36h5.95a9.14,9.14,0,0,0,.77,1.53,10.08,10.08,0,0,0,1,1.42,7,7,0,0,0,1.24,1.19,4.67,4.67,0,0,0,1.42.77v-4.91Zm22.31,0c.34.63.8,1.48,1.34,2.61s1.13,2.55,1.75,4.22,1.22,3.66,1.82,5.93a67.17,67.17,0,0,1,1.56,7.74H318c-.11-.63-.2-1.08-.22-1.36s-.09-.57-.12-.77-.05-.37-.08-.54-.09-.45-.17-.79h-5.19c.11-.77.25-1.47.42-2.18s.34-1.39.51-2.1h3.21a31.34,31.34,0,0,0-2.07-6.07,50,50,0,0,0-2.27,6.72,58.41,58.41,0,0,0-1.47,7.09h-5.28c.15-.94.34-2,.6-3.09s.51-2.3.82-3.52.68-2.46,1.05-3.74.77-2.49,1.19-3.68.88-2.38,1.33-3.49a30.51,30.51,0,0,1,1.51-3Zm23.79,0c.34.63.79,1.48,1.33,2.61s1.13,2.55,1.76,4.22,1.21,3.66,1.81,5.93a67.17,67.17,0,0,1,1.56,7.74h-5.25c-.11-.63-.17-1.08-.22-1.36s-.09-.57-.12-.77,0-.37-.08-.54-.09-.45-.17-.79H336c.12-.77.26-1.47.43-2.18s.34-1.39.51-2.1h3.23c-.26-1-.54-2-.91-3.09s-.76-2.07-1.16-3a47.34,47.34,0,0,0-2.3,6.72,58.41,58.41,0,0,0-1.47,7.09H329c.14-.94.34-2,.59-3.09s.51-2.3.82-3.52.68-2.46,1.05-3.74.77-2.49,1.19-3.68.88-2.38,1.34-3.49a28.47,28.47,0,0,1,1.5-3Zm17.49,0a7.07,7.07,0,0,1,3,.57,5.29,5.29,0,0,1,1.81,1.33,4.5,4.5,0,0,1,.91,1.76,6.5,6.5,0,0,1,.26,1.67,4.64,4.64,0,0,1-.23,1.45,3.65,3.65,0,0,1-.6,1.16,4,4,0,0,1-.85.88,6.26,6.26,0,0,1-.93.62v.06a5.55,5.55,0,0,1,1.64,1,4.86,4.86,0,0,1,1.08,1.25,5.09,5.09,0,0,1,.54,1.47,7.59,7.59,0,0,1,.14,1.59,5.9,5.9,0,0,1-.37,2.13,4.72,4.72,0,0,1-1.19,1.81,6.42,6.42,0,0,1-2.1,1.28,9.24,9.24,0,0,1-3.11.48h-9.53v-20.5ZM354.73,155h1.93c.25,0,.53,0,.82-.06a2,2,0,0,0,.76-.23,1.64,1.64,0,0,0,.57-.54,1.68,1.68,0,0,0,.23-.9,1.79,1.79,0,0,0-.23-.94,1.48,1.48,0,0,0-.57-.48,4.26,4.26,0,0,0-.82-.17,9.07,9.07,0,0,0-.91-.06h-2.75v11.94h2.9a3,3,0,0,0,2.06-.6,1.87,1.87,0,0,0,.66-1.5,2.14,2.14,0,0,0-.29-1.22,1.71,1.71,0,0,0-.71-.65,1.87,1.87,0,0,0-.9-.28c-.31,0-.63,0-.88,0h-1.87Zm24.94-7.66V152h-4.39v15.9H370V152h-4.43v-4.6Zm.8,10.24a13.3,13.3,0,0,1,.73-4.54,10,10,0,0,1,2-3.37,8.42,8.42,0,0,1,3.06-2.07,10.82,10.82,0,0,1,7.71,0,8.57,8.57,0,0,1,3,2.07,9.87,9.87,0,0,1,2,3.37,13.3,13.3,0,0,1,.74,4.54,13.47,13.47,0,0,1-.74,4.59,9.87,9.87,0,0,1-2,3.37,8.57,8.57,0,0,1-3,2.07,11.27,11.27,0,0,1-7.71,0,8.42,8.42,0,0,1-3.06-2.07,10,10,0,0,1-2-3.37A13.48,13.48,0,0,1,380.47,157.61Zm5.41,0a11.86,11.86,0,0,0,.23,2.26,6.19,6.19,0,0,0,.71,2,3.94,3.94,0,0,0,1.3,1.36,3.53,3.53,0,0,0,2,.51,3.59,3.59,0,0,0,1.95-.51,3.89,3.89,0,0,0,1.28-1.36,6.21,6.21,0,0,0,.73-2,11.12,11.12,0,0,0,0-4.5,6.21,6.21,0,0,0-.73-2,3.89,3.89,0,0,0-1.28-1.36,4.05,4.05,0,0,0-3.66-.14,3.51,3.51,0,0,0-1.16.93,5,5,0,0,0-.73,1.28,8.93,8.93,0,0,0-.4,1.39,9.75,9.75,0,0,0-.14,1.25C385.91,157.12,385.88,157.41,385.88,157.61ZM415,151.82a7.51,7.51,0,0,0-1.56-.31c-.45,0-.76-.08-.93-.08a6.53,6.53,0,0,0-2.44.42,5,5,0,0,0-1.84,1.25,5.52,5.52,0,0,0-1.14,1.93,8,8,0,0,0-.39,2.55,7.81,7.81,0,0,0,.51,3.06,5.78,5.78,0,0,0,1.3,1.9,4.62,4.62,0,0,0,1.76,1,6.87,6.87,0,0,0,1.81.28,8.5,8.5,0,0,0,1.48-.14,7.25,7.25,0,0,0,1.44-.39v4.59c-.59.14-1.19.25-1.84.34a18.43,18.43,0,0,1-2.21.11,9.87,9.87,0,0,1-4.51-.93,8.74,8.74,0,0,1-3-2.44,10.5,10.5,0,0,1-1.68-3.46,15.43,15.43,0,0,1-.51-3.91,12.56,12.56,0,0,1,.71-4.37,9.72,9.72,0,0,1,2-3.37,8.87,8.87,0,0,1,3.24-2.18,11.38,11.38,0,0,1,4.28-.74,13.75,13.75,0,0,1,1.89.11l1.59.34Zm14.63-4.45V152H425.2v15.9H420V152h-4.42v-4.6Zm11.48,0c.37.63.82,1.48,1.36,2.61s1.13,2.55,1.76,4.22,1.22,3.66,1.81,5.93a63.16,63.16,0,0,1,1.56,7.74h-5.24c-.12-.63-.2-1.08-.23-1.36s-.09-.57-.11-.77l-.09-.54c-.06-.17-.08-.45-.17-.79h-5.21c.14-.77.28-1.47.45-2.18s.31-1.39.51-2.1h3.2a28.76,28.76,0,0,0-.88-3.09,26.8,26.8,0,0,0-1.19-3,54.58,54.58,0,0,0-2.29,6.72,62.37,62.37,0,0,0-1.45,7.09h-5.27c.14-.94.34-2,.59-3.09s.51-2.3.83-3.52.65-2.46,1-3.74.76-2.49,1.19-3.68.87-2.38,1.33-3.49a23.62,23.62,0,0,1,1.5-3Zm13.24,0v20.5h-5.25v-20.5Zm11.34,0v20.5H460.4V157.75h-5.07v-4.57h5.07v-5.81Zm8.27,0c-.08.57-.14,1.22-.2,2s-.14,1.58-.19,2.38-.12,1.64-.15,2.44,0,1.47,0,2.09a19.23,19.23,0,0,0,.19,3,6.08,6.08,0,0,0,.71,2.18,3.6,3.6,0,0,0,1.48,1.39,5.31,5.31,0,0,0,2.38.46h9.1v4.59H476.36a15.61,15.61,0,0,1-1.9-.14,6,6,0,0,1-1.92-.51,6.21,6.21,0,0,1-1.76-1.11,7,7,0,0,1-1.45-1.93,11.67,11.67,0,0,1-1-3A23.3,23.3,0,0,1,468,157c0-.76,0-1.55.06-2.41s.08-1.64.17-2.46.14-1.65.23-2.44.19-1.56.28-2.27Zm11.09,15h-5.25v-15H485Zm9.32-15v20.5h-5.27v-20.5Zm8.25,0v5.47a20.81,20.81,0,0,1,1.33-1.61c.54-.54,1.08-1.08,1.65-1.59s1.1-.93,1.64-1.33a12,12,0,0,1,1.45-.94h5.24v20.5h-5.24V153.21a20.55,20.55,0,0,0-1.68,1.31c-.56.54-1.1,1.07-1.67,1.67s-1,1.19-1.5,1.81a19.08,19.08,0,0,0-1.22,1.79v8.08h-5.24v-20.5Zm6.38-2.52a3,3,0,0,1-.45,1.16,3.39,3.39,0,0,1-.85.8,3.44,3.44,0,0,1-1,.42,4.45,4.45,0,0,1-1,.14,3.87,3.87,0,0,1-1.22-.17,2.72,2.72,0,0,1-1-.51,2.75,2.75,0,0,1-.77-.79,3,3,0,0,1-.4-1.05Z"/></g><g id="_1755035823888" data-name=" 1755035823888"><path class="cls-3" d="M28.49,2.41H1.11V.2H28.49Zm21.57-.88L49.8,3.71h0l-.65-.08-.68-.09-.65,0-.65-.09-.68-.06-.65-.08-.66-.06-.68-.05-.65-.06L43.17,3l-.65,0-.68-.06-.65-.06-.65,0-.68,0-.66-.06-.68,0-.65,0-.68-.05-.65,0-.68,0-.65,0h-.68l-.68,0-.66,0h-.68l-.65,0h-.68l-.68,0h-2V.2h1.36l.68,0h1.36l.68,0h.68l.68,0,.68,0,.65,0,.68,0,.68,0,.68,0,.68,0,.68,0,.66.06.68,0,.68.05.68.06.65,0,.68.06.68,0,.68.06.65.06.68.08.68.06.65,0,.69.09.68.06.65.08.68.09.65.08ZM72.48,8.39l-.93,2h0L70.84,10l-.71-.31-.71-.31-.68-.31L68,8.79l-.71-.29-.68-.28-.71-.28-.68-.26-.68-.25-.71-.26-.68-.25-.68-.23-.68-.23-.68-.22L60.46,6l-.68-.23-.68-.2-.68-.17-.68-.2-.68-.17-.65-.14-.68-.17-.65-.14-.68-.14-.66-.14-.65-.12-.68-.11L51.76,4l-.65-.12-.65-.08-.66-.09.26-2.18.68.09.68.08.68.11.68.12.71.11.68.14.68.14.68.15.71.14.68.17L57.6,3l.71.17.68.2.71.19.71.2.68.2.71.23.7.23.71.22.71.26.71.25.71.26.71.25.71.29.7.28.71.28.71.31.74.32.71.31.71.31.73.34.71.34ZM92.15,26.25l-1.87,1.19h0l-.45-.74L89.32,26l-.48-.7-.51-.71-.48-.68-.54-.66-.51-.65-.54-.65-.51-.62-.54-.63-.57-.59-.54-.6-.56-.56L83,18.37l-.57-.57-.59-.54-.6-.51-.59-.51-.6-.51-.62-.48-.6-.48-.62-.46-.65-.45-.63-.45L76.25,13l-.65-.39-.65-.4-.68-.4-.65-.37-.68-.36-.68-.35-.71-.34.93-2,.74.34L74,9.1l.7.4.71.36.71.43.68.42.68.43.68.45.68.46.66.48.68.48.62.51.65.51.62.51.63.54.62.57.63.56.59.57.6.6.59.59.57.63.59.65.54.62.57.65.57.68.53.68.54.71.51.71.51.71.51.74.51.73.51.77Zm2.92,5.44-1.84,1.19-.08-.14-.06-.17L93,32.4l-.08-.2L92.83,32l-.08-.17-.09-.17-.08-.17-.09-.17-.08-.17L92.32,31l-.08-.17-.09-.17-.08-.17L92,30.33l-.08-.17L91.81,30l-.08-.17-.11-.17-.09-.17-.08-.17-.09-.14L91.25,29l-.09-.17-.08-.15L91,28.54l-.11-.17-.09-.14-.11-.17-.08-.14-.12-.17-.08-.14-.12-.17,1.87-1.19.09.17.11.17.12.14.08.17.11.17.12.17.08.17.12.17.08.17.11.17.09.17.11.17.09.17.11.17.09.17.08.2.12.17.08.17.09.17.08.17.11.2.09.17.08.17.09.2.08.17.09.17.08.2.09.17.08.19.09.17.08.2.09.17Zm-1.84,1.19,0-.05,0-.09Zm.17.26-.17-.26,1.84-1.19.17.26h0ZM95.24,32h0l0,0ZM103.18,64H101l0-1.19V61.65l-.06-1.16,0-1.13-.06-1.14-.09-1.13L100.63,56l-.11-1.07-.15-1.08-.14-1.08-.14-1-.17-1-.2-1-.2-1-.22-1-.23-1-.23-.94-.28-1-.25-.91L98,42.94l-.31-.87-.31-.88-.34-.88-.34-.85-.37-.85L96,37.79l-.4-.83-.42-.79-.4-.77-.45-.76-.45-.77-.46-.73L95.24,32l.51.79.46.79.48.8.42.82.43.85.43.85.39.88.37.88.37.88.34.9.34.94.31.93.31,1,.29,1,.28,1,.26,1,.22,1,.23,1,.2,1,.2,1,.19,1.07.15,1.08.14,1.11.14,1.1.11,1.14.12,1.13.08,1.13.06,1.19.05,1.17,0,1.19,0,1.22V64ZM97.6,93l-2-.93h0l.34-.74.31-.74.32-.73.28-.77.28-.76.29-.77.28-.79L98,86l.22-.79.26-.82.22-.82.2-.83.23-.85.17-.85.2-.88.17-.85.17-.9.14-.88.14-.91.14-.91.12-.9.11-.94.11-.93.09-1,.08-1,.06-1,.06-1,0-1,0-1,0-1,0-1V64h2.18v2.1l0,1-.05,1,0,1-.06,1-.08,1-.09,1-.08,1-.12,1-.11.93-.11,1-.15.93-.14.94-.17.9-.17.91-.17.91-.2.88-.19.9-.2.85-.23.88-.23.85-.25.85-.26.83-.28.85-.26.79-.31.82-.28.79-.31.8-.34.79-.31.77L97.6,93Zm-2-.93h0l0-.06ZM82.8,112.22l-1.36-1.73h0l.54-.42.54-.45.54-.46.53-.45.51-.45.51-.49.51-.48.51-.48.49-.51.48-.51.48-.51.48-.54.46-.54.45-.57.45-.53.46-.6.45-.57.43-.59.42-.6.43-.59.39-.63.43-.62.39-.65.4-.62.37-.69.4-.65.37-.68.36-.68.34-.68.37-.71.34-.71.34-.73,2,.93-.34.74-.37.74-.34.73-.4.71-.37.71-.39.71-.4.68-.4.71-.39.65-.43.68-.43.65-.42.63-.45.65-.43.62-.45.63-.46.59-.48.6-.48.59-.48.57-.48.57-.49.56-.51.54-.51.54-.51.54-.53.51-.54.51-.54.48-.54.51-.54.48-.57.46-.56.45-.57.45Zm-17.94,9-.6-2.1h0l.65-.2.63-.2.62-.17.6-.2.59-.2.57-.19.57-.2.56-.2.54-.23.54-.2.54-.22.54-.23.51-.23.51-.22.51-.26.51-.22.48-.26.51-.28.51-.26.48-.28.51-.31.48-.29.51-.31.51-.34.49-.31.51-.34.53-.37.52-.37.53-.37.54-.39.54-.43.54-.4,1.36,1.73-.57.43-.56.42-.57.43-.54.37-.54.39-.54.37-.54.34-.51.37-.53.34-.51.31-.54.32-.51.31-.54.28-.51.31-.54.26-.51.28-.54.26-.54.25-.54.26-.53.25-.57.23-.54.23-.57.22-.59.23-.57.2-.59.22-.6.2-.62.2-.63.2-.62.2-.65.2-.68.17Zm-25.15.85,1.93-1.05-1-.57h2.89l.76,0h.74l.77,0h1.53l.76,0H52l.76,0,.77,0,.79,0,.74,0,.76,0,.77,0,.74-.06.73-.06.74-.08.71-.09.74-.11.68-.08.71-.15.68-.11.65-.17.65-.14.65-.17.6,2.1-.68.19-.71.17-.74.17L62,122l-.73.11-.74.11-.77.12-.73.08-.77.09-.79.05-.77.09-.76,0-.8.05-.76,0-.8,0-.79,0H52l-.77,0H48.9l-.8,0H46.57l-.76,0H45l-.73,0H42.09l-.7,0h-.71Zm1,.56H40l-.32-.56Zm-2.16-7.31,3.12,5.7-1.93,1.05-3.11-5.7-.12-.54Zm-1.92,1-.12-.26v-.28Zm2.06-26.33v25.79H36.48V90.09L37.56,89Zm-2.18,0V89h1.08ZM60,82.74l1.73,1.34v0l-.51.6-.54.59-.54.54-.56.51-.57.49-.62.42-.6.43-.65.39-.65.34-.66.34-.68.29-.68.28-.71.25L53,89.8l-.74.2-.76.17-.77.17-.77.14-.79.14-.82.12-.79.08-.86.09-.85,0L45,91l-.87.06-.91,0-.91,0-.91,0-.93,0H37.56V89h2.89l.91,0h.9l.88,0,.88,0,.85,0,.82-.06.83-.06.79-.08.79-.09.77-.11.74-.11.7-.14L51,88l.68-.17.68-.19.66-.2.62-.23.62-.23.6-.28.59-.28.57-.32.54-.34.54-.34.51-.39.51-.4.48-.45.45-.46.49-.51.42-.54Zm1.73,1.34v0h0Zm4.56-25.4h2.22v1l0,1,0,1-.06,1-.06,1,0,.93-.09.94-.11.93-.11.91-.12.91-.14.85-.14.88-.17.85-.17.82-.2.82-.2.79-.22.8-.23.76-.23.77-.25.74-.29.73-.28.71-.28.71-.32.68-.34.65L64,80.5l-.34.66-.36.59-.37.62-.4.6-.42.57-.43.54L60,82.74l.4-.51.37-.54.34-.53.37-.54.31-.57.34-.59.31-.6.28-.6.31-.65.26-.65.28-.65.26-.68L64,75l.23-.74.23-.71.2-.73.2-.77.17-.79.17-.8.17-.79.14-.82.11-.85.11-.85.12-.88.08-.88.09-.91.08-.91.06-1,0-.93,0-1,0-1v-1ZM64,44.67l1.78-1.27.12.23.17.39.17.43.14.39.14.43.14.42.14.43.12.45L67,47l.11.45.12.43.11.45.08.45.12.46.08.45.09.48.08.46.09.48.08.48.06.48.06.48,0,.49.06.48.06.51,0,.51.06.48,0,.51,0,.51,0,.51v.54l0,.51v1.08H66.27v-1l0-.51v-.49l0-.51,0-.48,0-.48,0-.48,0-.48,0-.49L66,53.29l-.06-.48-.05-.45-.06-.46-.08-.45L65.68,51l-.09-.45-.08-.45-.09-.43-.11-.42-.08-.43-.12-.42L65,48l-.12-.4-.11-.42-.14-.4-.12-.4L64.4,46l-.11-.4-.14-.37L64,44.82l-.17-.37Zm1.78-1.27.09.08,0,.15Zm-4.25-1.65,1.56-1.53v0l.09.11.11.08.08.09.09.11.08.09.09.08.08.12.12.08.08.11.09.09.08.08.09.12.08.08.09.12.08.08.09.11.08.09.09.11.08.09.06.11.09.09.08.11.09.11.08.09.09.11,0,.09.09.11.08.11.09.09,0,.11.09.12.08.11L64,44.67l-.09-.11,0-.08-.09-.09-.06-.11-.08-.09-.06-.08L63.47,44l-.06-.08-.08-.09-.09-.11-.06-.08-.08-.09L63,43.46l0-.12-.09-.08-.08-.09-.06-.08L62.65,43l-.09-.08-.08-.09-.06-.08-.09-.09-.08-.08-.09-.09-.08-.08L62,42.26l-.05-.08-.09-.09L61.77,42l-.09-.09-.08-.08-.09-.09Zm-21.68-8V31.58h0l.9,0h.91l.88.05.85.06.88.08.85.09.82.11.82.12.83.14.82.17.79.17.77.2.76.2.77.22.73.26.74.25.74.29.71.28.68.31.71.34.68.34.65.37.65.37.65.4.63.42.59.43.62.45.57.45.6.48.56.51.54.52.54.53-1.56,1.53L61,41.27l-.51-.48L60,40.34l-.54-.46-.54-.42-.53-.4-.57-.4-.57-.39-.59-.34-.6-.37-.62-.34-.63-.31-.62-.29-.65-.31-.65-.25-.68-.26-.68-.25-.68-.23-.71-.2-.71-.2-.74-.17-.74-.17-.76-.17-.77-.11-.76-.11-.8-.12L44,34l-.82-.09-.82,0-.82,0-.85,0ZM35,31.58h4.85v2.21H35L33.9,32.68Zm-1.08,1.1v-1.1H35Zm0,89v-89h2.19v89L35,122.83Zm2.19,0v1.11H35ZM4.22,120.61H35v2.22H4.22l-1-.57Zm0,2.22H3.57l-.31-.57Zm-2.15-7.32,3.12,5.7-1.93,1.05-3.12-5.7L0,116Zm-1.93,1L0,116.31V116ZM2.21,1.3V116H0V1.3L1.11.2ZM0,1.3V.2H1.11ZM148.22,82.52l-1.78,1.27-.12-.22-.22-.51-.2-.52-.2-.53-.2-.54-.17-.51-.2-.57-.17-.54-.17-.54-.14-.56-.14-.57-.17-.57-.11-.59-.14-.57-.12-.59-.14-.6-.11-.6-.09-.59-.11-.6-.09-.62-.08-.62-.06-.63-.08-.62-.06-.65-.06-.63-.05-.65,0-.65-.06-.65,0-.68,0-.65v-.68l0-.68v-.69h2.21v1.31l0,.65,0,.65,0,.65,0,.63.06.62,0,.63.05.62.06.62.08.6.06.59.09.6.08.59.09.57.11.6.11.56.12.57.11.54.11.57.14.53.15.54.14.54.14.54.17.51.14.54.17.51.17.51.2.48.2.51.17.48.2.48Zm-1.78,1.27-.06-.11-.06-.11Zm18,6.44v2.21h-.74l-.71,0-.7-.06-.69,0-.7-.06-.66-.09-.68-.11-.65-.14-.65-.14-.62-.14-.63-.2-.62-.17-.6-.23-.59-.23-.57-.25-.59-.26-.54-.28-.57-.28-.54-.32-.51-.34-.51-.34-.51-.36-.51-.4-.45-.4-.48-.39-.46-.46-.45-.45-.43-.46-.42-.48-.4-.51-.4-.51-.39-.51,1.78-1.27.37.48.34.45.37.46.4.42.37.43.39.39.43.37.4.37.42.37.45.34.43.31.45.31.48.29.46.28.51.25.48.26.51.23.51.22.54.2.54.2.54.17.56.17.57.14.6.11.59.12.6.11.62.09.62,0,.66.06.65,0,.65,0Zm16.75-8.68L183,82.74h0l-.36.6-.4.57-.43.56-.42.54-.45.51-.46.51-.45.48-.48.46-.49.45-.51.43-.53.42-.51.37L177,89l-.57.34-.57.34-.56.31-.6.28-.62.29-.6.25-.65.23-.62.22-.66.2-.65.17-.68.17-.68.14-.71.12-.71.11-.7.09-.74,0-.74.06-.74,0h-.76V90.23h.71l.68,0,.68,0,.68-.06.65-.08.65-.09.63-.11.62-.14.6-.14.59-.17.6-.17.56-.2.57-.2.54-.23.54-.25.54-.26.51-.28.51-.28.48-.32.48-.34.45-.34.46-.37.45-.36.45-.4.43-.43.4-.42.42-.45.4-.46.37-.51.37-.48.36-.54.37-.54Zm5.67-22.87H189v.88l0,.9,0,.88,0,.88-.06.85-.06.85-.08.85-.09.85-.11.82-.11.83-.12.79-.14.79-.14.8-.14.76-.17.77-.2.76-.17.74-.23.74-.2.73-.22.71-.26.71-.25.71L186,77l-.28.65-.28.68-.32.65-.31.66-.31.65-.34.62-.37.62-.34.63-.4.59-1.84-1.19.34-.54.34-.59.34-.57.31-.59.29-.6.31-.62.28-.6.26-.65.25-.62.26-.66.25-.65.23-.68.2-.68.23-.68.17-.71.19-.71.17-.7.17-.74.15-.74.14-.76.11-.74.14-.79.09-.77.11-.79.09-.8,0-.82.06-.82.06-.82,0-.85,0-.85,0-.88v-.85Zm-2.35-16,2.07-.71h0l.17.48.14.49.14.48.14.48.15.48.11.51.14.48.11.51.12.49.11.51.09.51.11.51.08.51.09.51.08.51.09.51.08.54.06.54.09.51,0,.53.06.54.06.54,0,.54.06.54,0,.57,0,.53,0,.54,0,.57V57l0,.56v1.14h-2.21V57l0-.54,0-.53,0-.54,0-.54,0-.51,0-.54-.06-.51,0-.51,0-.54-.09-.51-.05-.51-.06-.48-.08-.51-.06-.51-.09-.48-.08-.51-.09-.49-.11-.48-.08-.48-.12-.48-.11-.48-.11-.46-.12-.48-.11-.48-.14-.45-.14-.46-.12-.45-.14-.46-.14-.45Zm-.54-1.61,1.76-1.31.14.26,0,0,0,.06,0,.06v0l0,.06,0,.09,0,.05,0,.06,0,.06v.05l0,.06,0,.06,0,.08,0,.06v0l0,.06,0,.06,0,.08,0,.06v.06l0,.05,0,.06,0,.08v.06l0,.06,0,0,0,.06v.09l0,.05,0,.06,0,.06V42l-2.07.71,0-.06,0-.08,0-.06v-.05l0-.06,0-.06v0l0-.06,0-.06,0,0V42l0-.06,0-.05v-.06l0-.06,0-.05,0-.06v-.06l0,0,0-.06,0-.06v0l0-.06,0-.06,0-.05v-.06l0-.06,0-.05,0-.06,0-.06v0l0-.06Zm1.76-1.31.08.12.06.14Zm-5.5-2.69,1.39-1.7h0l.17.11.14.14.14.12.14.11.14.14.12.12.14.14.14.11.14.14.14.14.15.12.11.14.14.14.11.11.15.15.14.14.11.14.14.14.12.14.11.14.14.15.12.14.11.14.14.14.11.14.12.14.11.17.11.15.12.14.11.17.11.14.12.14-1.76,1.31-.11-.15-.12-.14-.08-.14-.12-.14-.11-.11-.11-.15-.09-.14-.11-.14-.11-.11-.12-.14-.11-.15-.11-.11-.12-.14-.11-.12L182.3,39l-.12-.11-.11-.11-.11-.15-.15-.11-.11-.11-.11-.14-.12-.12-.14-.11-.11-.11-.14-.12-.12-.11-.11-.11-.14-.12-.11-.11-.15-.11-.14-.12-.11-.11Zm-12.7-4.17V30.67H168l.51,0,.51,0,.51,0,.51,0,.48.06.48.06.48.05L172,31l.48.08.48.09.45.11.46.12.45.11.45.14.46.14.45.14.43.17.42.17.43.18.42.19.4.2.4.2.42.23.4.22.37.23.39.23.37.25.37.29.37.25.37.28.34.29-1.39,1.7-.31-.26-.34-.25-.32-.23-.34-.25-.34-.2-.31-.23-.37-.2-.34-.2-.36-.19-.34-.17-.37-.2-.37-.14-.37-.17-.4-.15-.39-.14-.37-.14-.4-.14-.42-.11-.4-.12-.43-.08-.39-.12-.43-.08-.45-.06-.43-.08-.45-.06-.43-.06-.45-.05-.48,0-.46,0-.48,0h-1ZM154.69,37l-1.39-1.7h0l.34-.28.37-.26.34-.28.39-.25.37-.26.37-.23.4-.22.39-.23.4-.2.43-.22.39-.17.43-.2.42-.17.43-.17.45-.17.43-.15.45-.14.45-.11.46-.11.48-.12.45-.11.49-.09.48-.08.51-.09.48-.05.51-.06.48-.06.51,0,.54-.06h.51l.54,0h.51v2.21h-1l-.49,0-.48,0-.48,0-.45.05-.46.06-.45.06-.45,0-.46.09-.42.08-.43.09-.42.11-.4.12-.43.11-.39.11-.4.14-.4.15-.36.14-.4.17-.37.14-.37.17-.34.2-.37.17-.34.2-.34.19-.34.23L156,36l-.31.23-.34.25-.31.23-.31.25Zm-1.39-1.7h0l0,0Zm-5.9,12.9-2.1-.68h0l.17-.48.17-.46.17-.45.17-.45.17-.46.2-.45.2-.42.2-.46.2-.42.2-.4.22-.43.23-.39.23-.43.22-.39.26-.37.23-.4.25-.37.26-.39.28-.37.25-.34.29-.37.28-.34.28-.34.29-.34.31-.34.31-.31.31-.34.32-.32.31-.28.34-.31.34-.29.34-.31,1.39,1.7-.32.26-.28.28-.31.26-.28.28-.29.28-.28.29-.28.31-.26.28-.28.31-.26.32-.25.31-.26.34-.25.31-.23.34-.23.34-.22.34-.23.37-.23.37-.22.34-.2.37-.2.39-.2.37-.2.4-.2.4-.17.39-.19.4-.17.4-.17.42-.17.43-.15.42-.17.43-.14.45Zm-2.1-.68h0v0Zm-.22,16.89h-2.21v-.59l0-.57v-.59l0-.57v-.57l0-.56,0-.54.06-.57,0-.57.06-.53,0-.54.06-.54,0-.57.09-.51.05-.54.09-.54.08-.51.06-.53.11-.52.09-.51.08-.51.12-.51.11-.51.12-.51.11-.48.11-.51.12-.48.14-.48.14-.51.14-.46.14-.48.14-.48,2.1.68-.14.45-.14.46-.12.45-.14.45-.11.49-.14.45-.12.48-.11.46-.08.48-.12.48-.08.48-.12.51-.08.48-.09.51-.08.49-.06.51-.08.51-.06.51-.06.51-.05.54-.06.51-.06.53,0,.51-.06.54,0,.54,0,.54,0,.54,0,.57v.53l0,.57v1.13Zm73.3-25.14-2.07.77h0l-.11-.31-.11-.35-.15-.31-.14-.34-.11-.31-.14-.31-.15-.31-.11-.34-.14-.31-.14-.32-.14-.31-.15-.31-.14-.28-.14-.32-.14-.31-.17-.31-.14-.28-.14-.31-.17-.29-.15-.31-.17-.28-.14-.29-.17-.31-.17-.28-.14-.29-.17-.28-.17-.28-.17-.29-.17-.28-.17-.28-.17-.29-.17-.28,1.87-1.16.17.28.2.29.17.31.17.28.17.28.17.32.17.31.17.28.17.31.17.29.17.31.17.31.14.31.17.31.14.32.17.31.15.31.17.31.14.34.14.31.17.31.14.34.14.32.14.34.15.31.14.34.14.31.11.34.14.34.15.34.11.34.14.34Zm0,0h0l0-.06Zm4.14,25.14h-2.21V62.65l0-.85,0-.83,0-.85-.05-.82,0-.82-.09-.82-.05-.8-.09-.82,0-.79-.12-.8-.08-.76-.12-.8-.11-.76-.11-.77-.15-.76-.14-.74-.14-.76-.14-.74-.17-.71-.17-.74-.17-.71-.17-.73-.2-.71-.2-.68-.2-.71-.22-.68L217,42l-.23-.68-.22-.65-.26-.68,2.07-.77.26.68.25.71.23.68.22.71.23.74.23.71.2.73.2.74.19.74.17.73.17.74.17.77.17.76.15.77.14.79.14.77.11.79.12.79.11.82.11.8L222,55l.08.82.09.82,0,.83.06.85.06.82.05.88,0,.85,0,.85,0,.88v1.75Zm-4.11,25.12-2.07-.79h0l.26-.66.22-.65.23-.68.23-.68.22-.68.2-.71.2-.68.2-.71.17-.71.17-.73.17-.71.17-.74.14-.73.14-.74.14-.77.12-.73.14-.77.11-.76.09-.8.11-.76.09-.8.08-.79.06-.82.08-.8.06-.82,0-.82.05-.82,0-.85,0-.85,0-.85V64.37h2.21v1.76l0,.85,0,.88,0,.85-.05.85-.06.85-.06.85,0,.83-.09.82-.08.82-.09.82-.11.79-.09.8-.14.79-.11.8-.14.79-.14.77-.15.76-.14.77-.17.76-.17.74-.2.76-.17.74-.19.71-.2.74-.23.7-.23.71-.22.71-.23.71-.26.68-.25.71Zm-2.07-.79h0l.06-.09ZM206.7,108l-1.56-1.56h0l.46-.45.45-.45.43-.49.42-.45.43-.48.42-.48.4-.51.42-.49.4-.51.37-.51.4-.51.36-.54.4-.51.34-.53.37-.54.37-.57.34-.54.34-.56.34-.57.31-.6.34-.56.31-.6.31-.59.29-.6.31-.62.28-.6.29-.62.28-.65.25-.63.26-.65.28-.65.23-.65,2.07.79-.26.68-.25.65-.28.68-.29.65-.28.66-.31.65-.29.65-.31.62-.31.63-.34.62-.31.62-.34.6-.34.62-.34.57-.37.6-.37.59-.37.57-.37.56-.39.57-.37.54-.4.57-.42.54-.4.53-.43.51-.42.54-.43.51-.42.51-.46.51-.45.49-.45.48-.48.48-.46.48Zm-17.54,11.34-.8-2.07h0l.6-.23.59-.22.57-.26.59-.25.57-.26.57-.25.57-.29.56-.28.57-.28.54-.29.57-.31.53-.31.54-.31.54-.31.54-.34.51-.34.54-.34.51-.34.51-.37.51-.34.51-.37.48-.4.51-.37.48-.39.49-.4.48-.4.48-.42.48-.43.45-.42.49-.43.45-.42.45-.46L206.7,108l-.48.46-.48.48-.48.45-.49.43-.51.45-.48.42-.51.43-.51.4-.51.42-.54.4-.51.4-.54.39-.51.37-.53.37-.54.37-.57.37-.54.34-.57.34-.56.34-.54.34-.6.31-.56.31-.57.31-.6.29-.59.31-.57.28-.62.28-.6.26-.59.28-.63.26-.59.23-.62.25Zm-21.66,3.8V120.9h1.42l.71,0,.68,0,.7,0,.68,0,.68,0,.69-.06.68-.06.68,0,.65-.09.68-.08.65-.09.68-.08.65-.12.65-.11.66-.11.65-.12.62-.14.65-.14.63-.14.65-.17.62-.14.63-.17.62-.17.62-.2.6-.2.62-.17.6-.23.62-.2.6-.22.59-.23.8,2.07-.63.23-.62.22-.65.23-.63.2-.62.23-.65.19-.65.17-.66.2-.65.17-.65.17-.65.14-.65.17-.68.15-.66.14-.68.11-.68.14-.68.12-.68.08-.68.12-.68.08-.71.09-.68.08-.71.09-.68,0-.71.06-.7,0-.71,0-.74,0-.71,0-.71,0H167.5Zm-28.29-6.8,1-1.93h0l.74.39.76.4.77.37.76.37.77.34.79.34.79.34.8.31.79.28.8.29.82.28.82.26.82.25.85.23.82.23.85.22.85.2.88.17.85.17.88.17.88.14.91.14.88.12.9.11.91.09.94.08.9.09.94,0,.93,0,.94.06h1.9v2.21h-1l-1,0-1,0-1,0-1-.06-1-.06-.94-.08-1-.12-.94-.11-.9-.11-.94-.15-.91-.14-.9-.17-.91-.2-.91-.17-.88-.22-.87-.2-.88-.26-.85-.22-.88-.26-.85-.28-.85-.28-.85-.32-.83-.31-.82-.31-.82-.34-.82-.37-.82-.37-.8-.37-.79-.39-.8-.4-.76-.42Zm-19.59-20.1,1.93-1v0L122,96l.46.8.45.76.46.74.48.74.48.73.48.71.51.71.51.68.51.68.54.68.54.65.54.66.56.62.57.62.6.6.56.59.6.57.62.57.63.56.62.54.62.54.66.51.68.51.65.51.68.48.68.49.71.45.71.45.7.43.74.42.74.43-1,1.93-.79-.43-.77-.45-.74-.46-.73-.48-.74-.48-.74-.48L134,113l-.68-.54-.71-.54-.68-.54-.65-.57-.68-.56-.65-.57-.62-.59-.63-.63-.62-.62-.62-.63-.6-.65-.57-.65-.59-.68-.57-.68-.54-.71-.54-.71-.53-.71-.54-.73-.51-.77-.49-.74-.51-.76-.48-.79-.45-.8-.48-.82-.43-.82Zm-1.25-2.47,1.88-1.16,0,.11,0,.09.06.08,0,.06,0,.08.06.09,0,.08,0,.06,0,.09,0,.08,0,.09.06.05,0,.09,0,.08.06.09,0,.06,0,.08,0,.09,0,.08.06.06,0,.08,0,.09.05,0,0,.09.06.08,0,.09,0,.06.06.08,0,.09.06.05,0,.09.06.08,0,.06-1.93,1-.05-.09,0-.05-.06-.09,0-.08,0-.09,0-.08-.06-.06,0-.09,0-.08,0-.09-.06-.08,0-.09,0,0,0-.09L119,95l0-.09,0-.08,0-.09,0-.08-.06-.06,0-.08,0-.09,0-.08,0-.09-.06-.08,0-.09-.05-.08,0-.09,0-.06-.06-.08,0-.09,0-.08Zm1.88-1.16,0,.06,0,0Zm-3.75-2.07,1.93-1.05h0l.06.11.05.09.06.11.06.12,0,.08.06.12.06.08.06.09,0,.11.06.08.06.12,0,.08.06.12.06.08,0,.11.06.09.06.08,0,.12.06.08.06.12,0,.08.06.09.06.11.05.08.06.09.06.11.05.09.09.11.06.09,0,.08.06.09.06.11-1.88,1.16-.05-.08-.06-.12-.08-.08-.06-.12-.06-.08,0-.11-.06-.09-.06-.11,0-.09-.06-.11-.06-.09-.08-.11-.06-.08-.06-.12,0-.08-.06-.12-.06-.11,0-.08-.06-.12-.06-.08-.05-.12-.06-.08-.06-.11-.05-.12-.06-.08-.06-.12,0-.11-.06-.08-.06-.12,0-.08-.06-.12-.06-.11Zm1.93-1.05h0v0Zm-9-30.78h2.21v1.1l0,1.14,0,1.1,0,1.11.08,1.07.06,1.08.08,1,.12,1.08.11,1,.11,1,.14,1,.17,1,.17,1,.17,1,.2,1,.2,1,.23,1,.22.94.26.93.25.94.29.91.28.9.31.91.32.88.31.85.34.88.37.85.36.85.37.82.4.82.4.8.42.79-1.93,1.05-.45-.82-.42-.85-.4-.85-.4-.88-.4-.88-.36-.88-.34-.91-.34-.9-.34-.91-.32-.94-.28-.93-.28-.94-.29-1-.25-1-.26-1-.22-1-.2-1-.2-1-.2-1-.17-1-.17-1-.14-1L110,68.68l-.15-1.07-.08-1.08-.09-1.08-.08-1.1-.06-1.14,0-1.1,0-1.14,0-1.16V58.68Zm4.08-25.12,2,.77h0l-.22.65-.23.68-.23.68-.23.68-.19.68-.23.71-.17.71-.2.71-.17.71-.2.7-.14.74-.17.74-.14.74-.14.73-.14.77-.12.73-.14.77-.11.77-.09.79-.11.76-.09.8-.08.79-.06.8-.08.82-.06.82,0,.79,0,.85,0,.83,0,.85,0,.82v1.73h-2.21V56.92l0-.88,0-.85,0-.85.06-.85.06-.85,0-.82.06-.82.09-.83.08-.82.09-.82.11-.79.08-.8.12-.79.14-.8.11-.79.14-.76.17-.77.15-.77.17-.76.17-.74.17-.76.2-.74.19-.74.2-.71.2-.73.23-.71.22-.71L113,35l.26-.68.25-.71Zm0,0h0v0ZM125.15,15l1.56,1.56h0l-.45.45-.46.48-.42.45-.43.49-.42.48-.43.48-.4.48-.42.51-.4.51-.39.51-.37.51-.37.54-.4.54-.34.54-.37.54-.37.54-.34.56-.34.57-.34.57-.31.59-.31.57-.31.59-.31.6-.32.62-.28.6-.28.62-.29.63-.28.65-.28.62L116,33l-.25.66-.26.65-2-.77.26-.68.25-.68.28-.68.29-.65.28-.65.28-.65.32-.66.28-.62.31-.65.34-.63.31-.62.34-.59.34-.6.34-.62.37-.57.37-.6.37-.56.37-.6.37-.54.39-.56.4-.57.4-.54.42-.54.4-.51.42-.54.46-.51.42-.51.46-.51.45-.51.45-.48.46-.48.48-.48ZM142.67,3.69l.76,2.06h0l-.59.23-.57.23-.59.25-.57.26-.6.22-.56.29-.54.25-.57.29-.57.28-.53.28-.57.29-.54.31-.54.31-.54.31-.51.34-.54.34-.51.34-.51.34-.51.34-.51.37L132,12l-.51.37-.48.4-.48.39-.51.4-.46.4-.48.42-.48.4-.48.42-.45.46-.46.42-.45.46L125.15,15l.48-.46.48-.48.49-.45.48-.43.48-.45.51-.43.51-.42.51-.43.51-.39.51-.4.54-.4.51-.39.54-.37.54-.37.53-.37.54-.37.57-.34.54-.34.57-.34.56-.31.57-.34.57-.31.56-.29.6-.31.59-.28.6-.28.59-.26.6-.28.6-.26.62-.25.59-.23.63-.25ZM164.41,0V2.21H163l-.68,0-.71,0-.7,0-.68,0-.71.06-.68.06-.68.05-.68.06-.68.09-.68.08-.66.09-.68.08-.65.11-.65.09-.65.11-.65.14-.66.12-.65.14-.62.14-.63.14-.65.17-.62.17-.62.17-.63.17-.59.17-.63.2-.59.2-.63.2-.59.23-.6.19-.76-2.06.62-.23.62-.2.63-.23.65-.2.62-.19.66-.2.62-.17.65-.2.65-.17.66-.14.68-.17.65-.14L151,1.3l.68-.14.68-.11.68-.11.68-.12.68-.11.68-.09.71-.08.68-.09.71-.08.71-.06.71-.08.71-.06.7,0,.71-.05.74,0,.71,0h.74l.73,0ZM186,3.74l-.79,2.07h0l-.6-.23L184,5.36l-.63-.2-.59-.2-.63-.2-.59-.17-.63-.2-.62-.17-.62-.17-.66-.14-.62-.14-.62-.17-.65-.11-.66-.15-.62-.11-.65-.11L174.59,3l-.66-.11-.68-.08-.65-.09L172,2.64l-.68-.09-.68-.06-.65-.05-.68-.06-.68-.06-.71,0-.68,0-.68,0-.71,0h-1.39V0h.71l.74,0h.7l.71,0,.71,0,.71.05.71.06.71,0,.71.08.68.06.7.08.69.09.68.08.68.09.68.11.68.12.68.11.65.14.68.14.65.14.68.15.65.14.66.17.65.17.65.2.65.17.62.19.66.2.62.2.62.23.66.22.62.23ZM203.56,15,202,16.55h0l-.46-.42-.45-.45-.45-.43-.49-.42-.45-.43-.48-.4-.48-.42-.48-.4-.52-.37-.48-.39-.51-.37-.48-.37-.51-.37-.51-.34-.54-.34-.51-.34-.54-.34-.51-.34-.54-.31L192.08,9l-.54-.32L191,8.39l-.54-.28-.57-.29-.56-.28-.57-.25L188.16,7l-.56-.25-.6-.26-.59-.23-.6-.22-.59-.23L186,3.74l.62.23.6.25.62.26.63.25.59.26.6.28.59.29.6.28.56.31.6.28.57.32.56.34.57.31.57.34.56.34.54.34.54.37.54.37.54.36.54.37.54.4.51.37.51.4.51.42.51.4.51.42.51.46.48.42.48.45.51.43.45.48.49.46Zm9.86,14.17-1.87,1.16-.06-.11-.22-.48-.26-.49-.23-.48-.25-.48-.26-.48-.25-.48-.26-.46-.25-.48-.26-.45-.28-.46-.28-.45-.29-.43-.25-.45-.31-.42-.29-.46-.28-.42-.31-.43-.29-.42-.31-.4-.31-.43-.31-.39-.31-.4-.34-.42-.32-.37-.34-.4-.34-.4-.34-.36-.34-.4-.34-.37-.34-.37-.36-.37-.37-.37L203.56,15l.39.39.37.37.37.4.37.39.34.4.37.4.34.39.34.43.34.4.34.42.34.43.34.42.31.43.31.45.34.43.31.45.32.45.28.46L210,23l.28.45.29.49.31.45.28.48.26.48.28.49.26.48.28.48.26.51.25.48.26.51.25.51.23.51Zm-1.87,1.16,0-.06,0-.05Zm119.2-.68-2,.88h0l-.08-.14-.06-.17-.08-.17-.09-.17-.08-.14-.06-.17-.08-.17-.09-.17-.08-.15-.09-.17-.08-.17-.09-.14-.08-.17-.09-.14-.09-.17-.08-.14-.09-.17-.08-.14-.09-.17-.08-.15-.09-.17-.11-.14-.08-.17-.09-.14-.11-.17-.09-.14-.08-.14-.12-.17-.08-.14-.11-.15-.09-.14-.11-.17,1.84-1.22.11.17.09.14.11.17.12.15.08.17.11.17.12.17.08.14.12.17.08.17.09.17.11.14.08.17.12.17.08.17.09.17.11.17.09.17.08.17.09.17.08.17.09.17.08.17.09.17.11.17.06.17.08.17.09.17.08.17.09.17.08.17.09.2Zm4.67,22h-2.21V50.29l0-.71,0-.68-.06-.68,0-.68-.06-.68-.08-.68-.06-.68-.08-.68-.09-.68-.11-.68-.11-.66-.12-.68-.11-.65-.14-.65-.14-.68-.17-.65-.17-.66-.17-.65-.17-.65-.2-.65-.2-.62-.2-.66-.2-.65-.23-.62-.22-.65-.26-.63-.25-.62-.26-.63-.25-.62-.29-.65,2-.88.28.65.28.65.26.66.25.65.26.65.25.68.23.65.23.68.22.65.2.69.2.68.17.68.2.68L334,39l.14.68.17.71.14.68.12.68.14.7.11.68.12.71.08.71.09.71.08.71.06.71.05.71.06.71.06.7,0,.71v.74l0,.71v.74Zm-2.86,17.77-2.1-.74h0l.17-.48.17-.51.17-.48.14-.51.15-.48.14-.51.14-.51.14-.52.12-.51.14-.51.11-.51.09-.51.11-.53.11-.51.09-.54.08-.51.09-.54.08-.54.06-.54.08-.54.06-.56.06-.54.05-.54,0-.57.06-.57,0-.53,0-.57,0-.57,0-.57V51.68h2.21v1.19l0,.59v.6l0,.59,0,.57-.06.59,0,.57-.05.57-.06.59-.06.57-.05.57-.09.56-.05.57-.09.54-.09.57-.08.54-.11.56-.12.54-.08.57-.12.54-.14.53-.11.54-.14.51-.14.54-.15.54-.14.51-.17.54-.14.51-.17.51-.17.54-.17.51Zm-2.1-.74h0l0-.08Zm-6.63,15.14-1.62-1.5h0l.34-.37.34-.37.34-.37.32-.4.34-.36.31-.4.31-.4.28-.39.32-.4.28-.4.28-.42.29-.4.28-.43.28-.39.26-.43L327,76l.26-.43.25-.42.26-.46.23-.42.22-.46.26-.45.2-.45.22-.46.2-.45.23-.45.2-.46.19-.48.17-.45.2-.48.17-.49.17-.48,2.1.74-.2.51-.17.48L332,71l-.19.51-.23.48-.2.49-.23.51-.22.48-.23.45-.23.48-.25.48-.23.46-.25.48-.26.45-.28.46-.26.45-.28.45-.28.46-.29.42-.28.46-.31.42-.32.43-.31.42-.31.43-.31.42-.34.4-.31.42-.34.4-.37.43-.34.39-.37.4-.34.37ZM309.6,93.49l-.82-2h0l.48-.2.51-.23.48-.2.48-.22.46-.23.48-.23.45-.23.46-.22.48-.26.42-.25.46-.26.45-.25.43-.26.42-.28.43-.28.42-.29.43-.28.39-.28.43-.29.4-.31.39-.31.4-.31.4-.32.36-.34.4-.31.37-.34.37-.34.37-.34.37-.37.34-.34.36-.37.34-.36,1.62,1.5-.37.4-.37.39-.39.37-.37.37-.4.37-.4.37-.39.34-.4.34-.43.37-.39.31-.43.34-.42.34-.43.31-.42.31-.46.31-.42.31-.45.29-.46.31-.45.28-.46.29-.48.25-.45.29-.48.25-.48.26-.49.25-.51.26-.48.22-.51.26-.51.22-.48.23-.54.2-.51.23Zm-18.94,3.37V94.65h.66l.62,0h.62l.63,0,.62,0,.6,0,.62-.06.6,0,.59-.06.6,0,.59-.09.6,0,.56-.09.6-.08.57-.09.56-.08.57-.12.54-.11.56-.12.54-.11.57-.14.54-.14.54-.14.51-.15.54-.14.51-.17.54-.17.51-.17.51-.17.51-.2.51-.17.48-.19.82,2-.51.2-.54.19-.54.2-.54.2-.53.17-.54.17-.57.17-.54.17-.57.14-.56.17-.57.14-.57.12-.59.14-.57.11-.59.12-.6.11-.59.11-.6.09-.59.08-.6.09-.62.08-.63.06-.59.06-.63,0-.65.06-.62,0-.63,0-.65,0-.65,0H292l-.68,0Zm-17.2-2.15,17.2-.06v2.21l-17.2.06-1-.6Zm0,2.21h-.65l-.32-.6Zm-2.13-7.35,3.09,5.7-1.93,1-3.11-5.7-.12-.51Zm-1.95,1.05-.12-.25v-.26Zm2.07-26.33V90.11h-2.19V64.29l1.11-1.08Zm-2.19,0V63.18l1.11,0Zm12.19,1.16-11.11,0,0-2.19,11.08,0v2.21Zm8.93-4.16,1,2h0l-.25.14-.29.11-.28.15-.28.11-.29.11-.28.12-.28.11-.31.11-.29.09-.28.11-.31.09-.32.08-.28.09-.31.08-.31.09-.31,0-.32.06-.31.06-.31.08-.31,0-.34.06-.31,0-.31,0-.35,0-.34,0-.31,0-.34,0-.34,0h-.34l-.34,0h-.68V63.24h.94l.31,0H283l.31,0,.29,0,.31,0,.31,0,.28,0,.29-.06.31,0,.28-.06.29-.06.28,0,.28-.06.26-.06.28-.05.28-.09.26-.08.28-.06.26-.09.25-.08.29-.09.25-.11.26-.08.25-.12.26-.08.22-.12.26-.11.25-.11.23-.12Zm0,0v0h0Zm5.95-5.81,1.93,1h0l-.14.28-.17.29-.14.25-.17.26-.17.28-.17.26-.2.25-.17.23-.2.25-.17.23-.2.23-.2.25-.19.23-.23.2-.2.22-.23.23-.2.2-.22.2-.23.2-.23.2-.22.19-.26.17-.22.2-.26.17-.25.17-.26.17-.25.17-.26.14-.25.17-.29.15-.25.14-.29.14-1-2,.26-.12.22-.11.23-.14.23-.12.22-.14.23-.14.23-.14.2-.17.22-.14.2-.15.2-.17.2-.17.2-.17.19-.17.17-.17.2-.17.2-.19.17-.17.17-.2.17-.2.17-.2.17-.2.17-.2.17-.22.14-.2.17-.23.15-.23.14-.22.17-.23.14-.23.14-.22.11-.26Zm2.19-9.66h2.21v.76l0,.37v.4l0,.37,0,.36,0,.37,0,.37-.06.37,0,.34-.06.37-.05.34-.06.34-.06.37-.08.34-.06.31-.08.34-.09.34-.08.31-.12.34-.08.31-.11.31-.09.32-.11.31-.14.31-.12.31-.11.31-.14.29-.15.28-.14.31-.14.29-.17.25-1.93-1,.15-.25.14-.26.11-.22.11-.26.12-.28.11-.26.11-.25.12-.29.08-.25.12-.29.08-.28.09-.28.08-.29.09-.31.05-.28.09-.31,0-.29.06-.31.06-.31.05-.31.06-.34.06-.31,0-.34,0-.32,0-.34,0-.34,0-.34,0-.34,0-.36v-1Zm-.68-6,1.64-1.48.26.46.05.22.06.23.06.23,0,.22.06.23.06.23,0,.22.06.23.06.23,0,.22.05.23,0,.23,0,.22.06.23,0,.2,0,.23,0,.22,0,.23,0,.2,0,.23,0,.22v.2l0,.23,0,.2v.22l0,.2V45l0,.22v.63h-2.21v-.77l0-.2V44.5l0-.19v-.2l0-.2,0-.2v-.2l0-.2,0-.2,0-.19,0-.2,0-.2,0-.2,0-.2,0-.2-.06-.22,0-.2-.06-.2,0-.23-.06-.19,0-.23-.06-.2-.05-.23-.06-.19,0-.23-.05-.23-.06-.2Zm1.64-1.48.17.2.09.26ZM295,37.22l1.36-1.76h0l.12.09.11.08.11.11.12.09.08.08L297,36l.11.09.11.08.12.09.08.08.11.09.09.11.11.08.12.09.08.08.11.09.09.08.08.12.12.08.08.09.12.08.08.09.09.11.08.09.12.08.08.09.09.08.08.11.09.09.08.08.09.09.08.11-1.64,1.48-.06-.09-.09-.08-.08-.09-.06-.08-.08-.09-.09-.08-.08-.06-.09-.09-.08-.08L297,39l-.05-.08-.12-.09-.08-.08-.09-.09-.08,0-.09-.09-.08-.08-.09-.09-.08-.08-.12-.09-.08-.08L296,38l-.11-.08-.08-.06-.12-.08-.08-.09-.12-.08-.08-.09-.11-.08-.09-.09-.11-.06-.12-.08Zm0,0h0l0,0Zm-13.35-3.43V31.58h.6l.59,0h.57l.57,0,.56.06.54,0,.54.06.54,0,.51.06.51.06.51.08.51.09.48.08.48.11.49.12.45.11.45.12.46.14.42.14.46.14.39.14.43.17.39.17.4.17.4.2.37.2.36.2.37.22.37.2.34.23.31.25.34.23L295,37.22l-.25-.23-.29-.2-.28-.17-.31-.19-.31-.17-.31-.17-.34-.18-.34-.17-.34-.17-.34-.14-.37-.14-.37-.14-.4-.14-.4-.12-.39-.11-.43-.11-.39-.12-.46-.08-.42-.09-.46-.08-.45-.09-.48-.08-.48-.06-.49,0-.48-.06-.51-.06-.54,0-.51,0-.54,0-.53,0h-1.14Zm-13.83-2.21h13.83v2.21H267.79l-1.11-1.11Zm-1.11,1.1v-1.1h1.11Zm0,89v-89h2.19v89l-1.08,1.11Zm2.19,0v1.11h-1.08ZM237,120.61h30.79v2.22H237l-1-.57Zm0,2.22h-.65l-.31-.57Zm-2.12-7.32,3.09,5.7L236,122.26l-3.12-5.7-.11-.54Zm-2,1-.11-.25V116ZM235,1.3V116h-2.18V1.3l1.1-1.1Zm-2.18,0V.2h1.1Zm51.31,1.11H233.91V.2h50.21Zm28,4.39L311,8.67v0l-.62-.39-.65-.37L309,7.57l-.68-.34-.68-.34-.7-.31-.71-.32L305.49,6l-.74-.28L304,5.39l-.77-.26-.76-.25-.8-.23-.82-.23L300,4.2,299.2,4l-.85-.2-.85-.17-.88-.17-.88-.17-.91-.14L293.92,3l-.9-.11-.94-.11-1-.09-1-.08-1-.09-1-.06-1,0-1,0-1,0h-1.05V.2h1.07l1.05,0,1.05,0,1,0,1,.06,1,.06,1,.08,1,.11,1,.09,1,.14.93.14.94.14.9.15.91.17.91.19.88.2.85.23.88.23.82.22.85.26.82.25.79.29.8.28.79.31.77.31.76.34.74.34.74.34.71.37.7.4.71.4.68.39Zm0,0h0v0Zm15.51,17.12-2,.91h0l-.29-.59-.28-.63-.31-.59-.31-.6-.34-.56-.35-.6-.34-.57-.36-.56-.37-.54L322.3,19l-.4-.54-.42-.54-.4-.51-.45-.54-.43-.51-.45-.51-.46-.48-.48-.51-.48-.48-.51-.48-.51-.48L316.8,13l-.54-.45-.54-.45-.54-.46-.56-.45-.6-.43-.59-.42-.6-.43-.59-.39-.63-.4L311,8.67l1.16-1.87.65.43.69.42.62.43.62.45.63.46.62.45.59.45.57.48.6.46.54.51.56.48.54.51.51.51.54.51.48.51.51.54.48.54.46.54.45.56.45.57.43.57.43.56.39.6.4.6.4.59.36.6.37.62.34.62.34.63.31.65.32.62.31.65Zm.14.37-1.84,1.22-.09-.17h0v0l0,0h0v0h0l0,0h0v0h0l0,0v0h0v0h0v0h0v0h0V25h0l0,0h0v0h0l0,0h0v0h0v0l0,0,2-.91v0l0,0h0V24h0v.05h0v.06h0v.06h0v0h0v0l0,0h0v0h0l0,0h0v.06h0v0h0v0Zm-1.84,1.22,0-.08-.06-.09ZM415.87,35l-2,.85h0l-.31-.79-.34-.77-.34-.76-.34-.8-.31-.76-.34-.77-.34-.76-.37-.77-.34-.76-.34-.77-.34-.76-.37-.77-.37-.76-.34-.74-.37-.77-.37-.73-.37-.77-.36-.74-.37-.76-.37-.74-.4-.74-.37-.73-.37-.74-.39-.74-.4-.73-.37-.74-.39-.74-.4-.71-.4-.73-.4-.74-.42-.71-.4-.74,1.93-1.07.4.73.39.74.43.71.4.74.39.73.4.74.4.77.39.73.37.74.4.74.4.76.36.74.37.76.4.74.37.77.37.76.37.74.36.76.37.77.34.77.37.76.37.77.34.79.34.76.37.77.34.77.34.79.34.76.34.8.31.79.34.77.34.79Zm10.91,30.42-2.09.65h0l-.32-1-.28-1-.31-1-.31-1-.29-.93-.31-1-.31-1-.31-1-.31-.94-.34-1-.31-.94-.35-1-.31-.94-.34-1L420,51.7l-.34-.93-.34-1-.34-.93-.34-.94-.34-.93-.37-.94-.34-.93-.37-.94-.34-.93-.36-.94-.37-.93-.37-.94-.37-.94-.4-.93-.36-.94-.37-.9-.4-.94,2-.85.37.94.4.93.36.94.4.93.37.94.37.93.37.94.37,1,.36.94.37.93.34.94.37,1,.34.94.34,1,.37.94.34,1,.34.94.31,1,.34.94.34,1,.31,1,.34.94.32,1,.34,1,.31,1,.31,1,.31,1,.31,1,.29,1,.31,1,.28,1,.31,1Zm-2.09.65h0v0Zm9.95,29.08-2.16.48h0l-.2-.9-.19-.88-.2-.88-.23-.91-.2-.9-.2-.88-.22-.91-.23-.91-.2-.9-.23-.91-.22-.91-.23-.91-.25-.93-.23-.91-.23-.93L429,81.1l-.26-.94-.22-.9-.26-.94-.26-.93-.25-.94-.28-.94-.26-.93-.25-.94-.29-1-.25-.94-.29-1-.28-.93-.28-1-.29-.93L425,67l-.28-1,2.09-.65.29,1,.28,1,.31,1,.29,1,.25,1,.29.93.28,1,.28.93.26,1,.25.94.29.94.25.93.26.94.25.93.26.94.22.93.26.94.22.9.26.94.23.94.22.9.23.91.23.94.22.9.23.91.2.91.23.9.19.91.2.88.23.91.2.9.2.88Zm-2.16.48h0v0Zm6,27.25v-2.22l-1.08,1.28-.11-.77-.11-.76-.12-.77-.14-.76-.11-.77-.14-.79-.12-.77-.14-.79-.14-.79-.14-.8-.14-.79-.15-.82-.14-.8-.14-.82-.17-.82-.14-.82-.17-.82-.14-.83-.17-.82-.17-.85-.17-.85-.17-.82-.17-.85-.17-.85-.17-.88-.17-.85-.2-.85-.17-.88-.2-.88-.2-.88-.17-.88-.2-.88,2.16-.48.19.88.17.91.2.88.2.88.17.85.2.87.17.88.17.85.2.85.17.85.17.86.17.85.14.85.17.82.17.85.14.82.17.82.14.82.15.83.17.79.14.82.14.8.14.82.11.79.15.8.14.79.11.76.14.8.12.76.14.77.11.76.12.77Zm1.11-1.28.19,1.28h-1.3Zm-31.89-.94h30.78v2.22H407.74l-1-.57Zm0,2.22h-.66l-.31-.57Zm-2.16-7.32,3.12,5.7-1.93,1.05-3.12-5.7-.11-.34Zm-1.93,1-.08-.17,0-.17Zm-1.53-8.9,2.19-.34h0l.05.34,0,.34.06.31.05.34.06.31.06.32,0,.31.05.31.06.28.06.31,0,.29.06.28,0,.28.06.29.05.28,0,.26.06.25,0,.26,0,.25,0,.26.06.25,0,.23.05.25,0,.23,0,.23.06.22,0,.2,0,.23.06.2,0,.2,0,.2,0,.19-2.15.4,0-.2-.05-.2,0-.19,0-.23,0-.2-.06-.23,0-.22-.06-.23,0-.23,0-.25-.06-.23,0-.25-.06-.26,0-.25-.06-.26,0-.25-.06-.29-.06-.25,0-.29,0-.28-.06-.28,0-.32-.05-.28-.06-.31,0-.31-.06-.31-.05-.32-.06-.31,0-.34-.05-.31-.06-.34-.06-.34Zm.29-4.14v-2.21l1.07.91,0,.17,0,.14,0,.14v.14l0,.14,0,.17,0,.15,0,.17,0,.14,0,.14,0,.17,0,.14,0,.17v.14l0,.17,0,.17,0,.15,0,.17,0,.17,0,.14,0,.17,0,.17,0,.17V106l0,.14,0,.17,0,.17,0,.17,0,.17,0,.17,0,.17,0,.17-2.19.34,0-.17,0-.17,0-.17,0-.17,0-.17,0-.17v-.17l0-.14,0-.17,0-.17,0-.17,0-.14,0-.17,0-.17,0-.15,0-.17v-.17l0-.14,0-.17,0-.14,0-.17,0-.14,0-.14,0-.17,0-.15v-.14l0-.17,0-.14,0-.14,0-.14,0-.14,0-.15Zm0-2.21h.9l.17.91Zm-28.46,0h28.46v2.21H374l-1-.57Zm0,2.21h-.66L373,103Zm-2.13-7.34,3.12,5.7L373,103l-3.09-5.72-.11-.74Zm-1.93,1-.2-.34.09-.4Zm6.49-25.57v2.21l1.08-.82-.2.76-.2.77-.19.76-.2.77-.2.77-.2.76-.2.77-.2.76-.17.77-.19.73-.17.77-.2.76-.17.74-.17.77-.17.73-.2.74-.17.77-.17.73-.17.74-.14.74-.17.73-.17.74-.17.74-.15.74-.17.73-.14.74-.14.71-.17.74-.14.73-.14.71-.14.74-.15.71-2.15-.43.14-.71.14-.73.14-.74.15-.71.17-.74.14-.73.14-.74.17-.74.17-.74.14-.73.17-.74.17-.76.17-.74.17-.74.17-.76.17-.74.17-.77.17-.73.17-.77.2-.76.17-.74.2-.77.17-.76.2-.77.2-.76.19-.77.17-.76.2-.77.2-.76.2-.77.23-.79.2-.77Zm-1,.82.22-.82h.82Zm19.84,1.39h-18.8V71.66h18.8l1.08.85Zm1.08-1.36.31,1.36h-1.39ZM390,58.85l2.1-.74h0l.14.43.14.45.14.42.15.43.14.42.14.43.14.45.14.43.14.45.15.43.14.45.14.43.11.45.14.45.15.43.11.45.14.46.11.45.15.45.11.46.14.45.11.45.12.48.14.46.11.45.12.48.11.46.11.45.14.48.12.48.11.46.12.48L394.1,73l-.11-.48-.12-.45-.11-.46-.11-.48-.12-.45-.11-.46-.11-.45-.12-.45-.14-.46-.11-.45-.11-.46-.15-.45-.11-.45-.11-.46-.15-.42-.11-.45-.14-.46-.14-.42-.12-.46-.14-.42-.11-.46-.14-.42-.14-.43-.15-.42-.14-.43-.11-.45-.14-.43-.14-.42-.15-.43-.14-.39-.14-.43-.17-.42Zm-4.62-12.08,2-.85h0l.14.34.17.34.15.34.14.34.14.37.14.34.14.37.14.34.17.37.15.37.14.36.14.37.14.37.14.37.17.4.15.37.14.39.14.37.14.4.17.39.14.4.14.4.15.4.14.39.14.4.17.4.14.42.14.4.14.42.15.43.17.42.14.4-2.1.74-.14-.43-.14-.39-.14-.43-.15-.43-.14-.39-.14-.4L389,56l-.14-.42-.14-.4-.15-.37-.14-.39-.14-.4-.14-.4-.17-.37-.14-.39-.14-.37-.15-.37-.14-.37-.14-.37L387.1,51l-.14-.37-.14-.37-.15-.37-.17-.34-.14-.37-.14-.34-.14-.37-.14-.34-.14-.34-.15-.34-.14-.34-.14-.34Zm0,0h0l0,.09Zm1.53-2,.48,1.19-2,.85-.51-1.16v-.88Zm-2,0,1-2.35,1,2.35Zm-7.06,25L375.7,69h0l.26-.79.28-.77.26-.79.25-.76.29-.8.25-.76.26-.77.28-.79.28-.77.26-.76.28-.77.29-.76.28-.77.28-.76.29-.77.28-.77.28-.73.29-.77.28-.76.31-.74.28-.77.32-.73.28-.77.31-.73.29-.74.31-.77.31-.73.28-.74.31-.74.32-.74.31-.73.31-.74,2,.88-.31.74-.31.71-.31.73-.32.74-.28.74-.31.73-.31.74-.29.74-.31.73-.28.74-.31.77-.29.73-.28.74-.28.77-.29.73-.28.77-.28.74-.29.76-.28.77-.29.76-.28.74-.25.76-.29.77-.28.76-.26.77-.28.77-.25.79-.26.76-.28.77-.26.76-.25.8-.26.76Zm-7.4,26.42-2.15-.48h0l.2-.85.22-.88.2-.85.2-.82.23-.85.2-.85.22-.85.2-.85.23-.82.22-.85.2-.86.23-.82.23-.85.22-.82.23-.85.26-.82.22-.82.23-.83.25-.85.23-.82.26-.82.22-.82.26-.82.25-.83.23-.82.25-.82.26-.82.26-.8.25-.82.28-.82.26-.79.25-.83,2.1.68-.25.83-.26.79-.25.79-.29.83-.25.82-.23.79-.25.82-.26.83-.25.79-.23.82-.26.82-.22.83-.26.82-.23.82-.22.82-.26.82-.22.83-.23.82-.23.85-.22.82-.23.82-.2.85-.23.82-.22.85-.2.83-.23.85-.2.82-.19.85-.23.85-.2.85-.2.82-.2.85Zm-6.2,26.71v-2.22l-1.08.94.11-.77.14-.76.12-.77.14-.79.11-.77.14-.79.15-.79.14-.77.14-.79.14-.8.14-.79.14-.79.17-.83.15-.79.17-.79.14-.82.17-.83.17-.79.17-.82.17-.82.17-.83.17-.82.17-.82.2-.85.17-.82.17-.83.2-.85.19-.85.17-.82.2-.85.2-.85.2-.85,2.15.48-.2.85-.19.85-.2.85-.2.83-.17.85-.2.82-.17.85-.2.82-.17.82-.17.83-.17.82-.17.82L368,107l-.17.79-.17.83-.14.79-.17.82-.17.8-.14.79-.14.79-.17.8-.15.79-.14.79-.14.77-.14.79-.11.77-.15.79-.14.77-.11.76-.14.77-.12.76-.11.77Zm1.1-.94-.17.94h-.93Zm-31.8-1.28h30.7v2.22H333.5l-1-.57Zm0,2.22h-.66l-.31-.57Zm-2.16-7.32,3.12,5.7-1.93,1.05-3.12-5.7-.11-.74Zm-1.93,1-.19-.34.08-.4Zm6.47-31.18,2.12.54h0l-.22,1-.26,1-.25,1-.23,1-.23,1-.25,1-.23,1-.23,1-.22,1-.23,1-.23,1-.19,1-.23,1-.2,1-.23,1-.2.94-.19.93-.2,1-.2.94-.2.94-.2.9-.2.94-.17.93-.19.91-.17.91-.17.9-.17.91-.2.91-.14.91-.17.87-.17.91-.17.88-2.16-.4.14-.88.17-.9.17-.91.17-.88.17-.91.17-.93.2-.91.17-.9.2-.94.17-.91.2-.93.2-.94.2-.93.19-.94.2-1,.2-.94.2-1,.23-1,.19-1,.23-1,.23-1,.2-1,.22-1,.23-1,.23-1,.25-1,.23-1,.23-1,.25-1,.23-1,.25-1,.26-1Zm9.21-32.15,2.1.68h0l-.34,1-.31,1-.32,1-.31,1-.31,1-.31,1-.31,1-.32,1-.28,1-.31,1-.31,1-.29,1-.28,1-.31,1-.28,1-.29,1-.28,1-.29,1-.28,1-.28,1-.29,1-.25,1-.28,1-.26,1-.28,1-.26,1-.25,1-.29,1-.25,1-.26,1-.25,1-.26,1-2.12-.54.25-1,.26-1,.25-1,.26-1,.25-1,.29-1,.25-1,.28-1,.26-1,.28-1,.29-1,.25-1,.29-1,.28-1,.28-1,.29-1,.28-1,.31-1,.28-1,.29-1,.31-1,.31-1,.29-1,.31-1,.31-1,.31-1,.31-1,.31-1,.32-1,.31-1,.31-1,.34-1Zm2.1.68h0l-.06.12Zm8.61-30,2.05.85h0l-.34.86-.34.82-.37.85-.34.85-.34.85-.34.85-.34.88-.34.85-.34.88-.34.88-.34.87-.34.88-.32.91-.34.88-.34.91-.34.9-.34.94-.31.91-.34.9-.34.94-.31.93-.34.94-.31.93-.34,1-.34.93-.32,1-.34,1-.31,1-.31,1-.34,1-.31,1-.31,1-2.1-.68.31-1,.31-1,.34-1,.32-1,.34-1,.31-1,.34-1,.31-.93.34-1,.34-1,.31-.93.34-.94.34-.93.34-.91.31-.94.34-.9.34-.94.34-.91.34-.9.34-.88.34-.91.34-.88.34-.88.35-.88.34-.87.34-.88.34-.85.34-.85.34-.85.36-.85.34-.86.34-.82ZM368.22.2V2.41l.94-.54-.37.6-.37.62-.34.62-.37.63-.37.62-.34.65-.37.65-.37.66-.34.68-.36.65-.34.68-.37.68-.34.71-.37.68-.34.71-.37.71-.34.73-.37.71-.34.74-.37.74-.34.76-.34.74-.37.76-.34.77-.34.79-.37.77-.34.79-.34.79-.36.83-.34.79-.34.82-.34.82-2.05-.85.34-.82.37-.82.34-.82.34-.82.37-.8.34-.79.37-.79.34-.8.37-.76.34-.77.37-.76.34-.77.37-.74.34-.73.37-.74.34-.74.36-.74.37-.7.34-.71.37-.68.37-.71.37-.68.34-.68.37-.68.37-.65.36-.68.37-.66.37-.62.34-.65.37-.63.37-.62.37-.62Zm-1,.54L367.6.2h.62Zm30.27,1.67H368.22V.2h29.31l.94.54Zm0-2.21h.62l.32.54Zm6.52,10.49-1.93,1.07,0,0-.14-.32-.17-.31-.17-.31-.17-.31-.17-.31-.17-.32-.17-.31-.17-.31-.17-.31-.17-.31-.17-.31L400.08,8l-.17-.31-.17-.31-.17-.31-.17-.29-.17-.31-.17-.31-.17-.31-.2-.31-.17-.31-.17-.32-.17-.28L398,4.31l-.2-.31-.17-.31-.17-.29-.17-.31-.19-.31-.17-.31-.17-.29-.2-.31,1.9-1.13.17.31.19.31.17.31.2.29.17.31.17.31.2.31.17.31.17.31.2.32.17.31.17.31.17.31.17.31.2.32.17.31.17.31.17.31.17.31.17.31.17.32.17.31.17.31.2.31.17.31.17.32.17.31.17.31.14.34.17.31.17.31.17.31Zm-1.93,1.07h0l0,0ZM523.3,32.68V7h2.19V32.68l-1.11,1.11Zm2.19,0v1.11h-1.11Zm-32.2-1.1h31.09v2.21H493.29Zm-7.72,7.74h-2.18v-.46l0-.45.06-.43,0-.42.09-.4.11-.42.14-.37L484,36l.17-.37.19-.34.23-.34.26-.34.25-.28.28-.31.29-.26.34-.25.34-.26.34-.22.37-.2.39-.17.4-.17.43-.17.42-.15.45-.11.46-.11.48-.09.48-.08.51-.06.54-.06.54,0h.54l.57,0v2.21h-.52l-.48,0-.48,0-.45,0-.46.06-.42.09-.4,0-.37.09-.37.11-.34.11-.34.12-.28.14-.28.11-.29.17-.22.14-.26.17-.2.17-.19.17-.2.2-.17.2-.14.2-.15.23-.14.22-.11.26-.09.25-.11.26-.06.28-.08.31,0,.32-.06.31,0,.37v.34Zm-.22.34-1.59,1.53-.31-.63v-.14l0-.05v-.26l0-.06v-.73h2.18v.34l0,0v.36l0,0v.2Zm-1.59,1.53-.25-.26-.06-.37Zm3.4.22-1.44,1.65h0l-.06-.06-.09-.06-.05,0-.06-.06-.08-.06-.06-.08-.06-.06-.08-.05-.06-.06-.06-.06-.08-.05-.06-.06-.05-.06-.06,0-.06-.06-.08-.06-.06,0-.06-.06-.05-.09-.06-.05-.06-.06-.05-.06-.06,0-.06-.06,0-.06-.06,0-.08-.06-.06-.06-.06,0,0-.06,0-.06-.06-.05,1.59-1.53,0,.05.06.06,0,.06.06.05.05.06.06,0,.06.06,0,0,0,.06.06.06.05,0,.06.06.06.06.06.05.05.06.06,0,.06.05.05.06.06.06.06,0,.05.06.06.06.06,0,.08.06.06.06.05,0,.06.06.06.06.08.05.06.06.06.06.05,0Zm8.53,6.67-1.33,1.75h0l-.37-.28-.36-.28-.37-.26-.34-.25-.34-.29-.34-.25L491.9,48l-.32-.25-.31-.26-.31-.23-.31-.22-.31-.23-.29-.23-.28-.22-.28-.23-.29-.2-.25-.23-.26-.19-.25-.2-.26-.2-.22-.2-.26-.17-.23-.2-.22-.17-.2-.17-.2-.2-.23-.14-.17-.17-.19-.17-.2-.14-.17-.17-.17-.14,1.44-1.65.17.12.17.17.17.14.17.14.2.17.2.17.2.14.22.17.2.2.23.17.23.2.25.17.23.2.25.2.26.2.25.19.29.23.25.2.29.23.31.22.28.23.31.23.31.25.32.23.31.25.34.23.34.25.34.29.34.25.37.26.34.28.37.29Zm0,0h0l0,0ZM511.4,60.69l-1.48,1.64h0l-.34-.31-.34-.28-.37-.31-.34-.32-.36-.31-.4-.34-.4-.34-.4-.34-.39-.34-.43-.34-.42-.37-.46-.34-.45-.36-.45-.4-.49-.37-.48-.4-.48-.39-.51-.4-.51-.4-.51-.42-.54-.43-.54-.42-.56-.43-.57-.42-.57-.46-.56-.45-.6-.45-.62-.46-.6-.48-.62-.45-.65-.49-.63-.48,1.33-1.75.63.48L497,49l.62.48.63.45.59.49.6.45.59.45.57.43.57.45.56.43.54.42.54.43.51.42.51.4.51.43.51.39.48.37.49.4.45.37.45.36.46.37.42.37.46.37.39.34.43.34.39.34.37.34.4.31.37.31.34.32.34.31.34.31Zm0,0h0l0,0Zm8.76,11.2-2,1h0l-.2-.37-.2-.37-.19-.37-.23-.37-.2-.37-.23-.34-.22-.36L516.5,70l-.23-.37-.22-.34-.26-.34-.22-.34-.26-.34-.23-.34-.25-.34-.26-.34-.28-.32-.26-.34-.25-.31L513.5,66l-.29-.31-.25-.31-.29-.31-.31-.32-.28-.31-.28-.31-.32-.28-.28-.31-.31-.29-.31-.31-.32-.28-.34-.29,1.48-1.64.34.31.34.31.31.29.34.34.31.31.31.31.32.31.31.34.31.31.28.34.32.34.28.34.28.35.29.34.28.34.28.34.26.36.28.34.26.37.25.37.26.34.25.37.26.37.25.4.23.36.23.37.22.4.23.37.23.39.22.4.2.37.23.4Zm0,0h0l0,0Zm.9,2-1.81,1.22-.11-.2,0-.06,0-.08,0-.06,0-.06,0,0,0-.09,0-.06,0,0,0-.09,0,0,0-.06,0-.06,0-.08,0-.06,0-.06,0,0,0-.09,0,0,0-.06,0-.06,0-.08,0-.06,0-.06,0,0,0-.06,0-.08,0-.06-.06-.06,0,0,0-.06,0-.09,0,0,2-1,0,.08,0,.06.06.08,0,.06,0,.06,0,.08,0,.06.06.08,0,.06,0,.06,0,.08,0,.06,0,.08.06.06,0,.09,0,0,0,.06,0,.08,0,.06,0,.09,0,0,0,.09,0,0,0,.09,0,.06,0,.08,0,.06,0,.08,0,.06,0,.08,0,.06,0,.09Zm-1.81,1.22-.06-.09-.05-.11Zm4,2.43-2,1h0l-.06-.08,0-.11-.09-.12-.06-.11,0-.11L521,78l-.06-.11,0-.11-.09-.12,0-.11-.06-.11-.06-.12-.05-.08-.09-.12-.06-.11,0-.11-.06-.12-.08-.11-.06-.08-.06-.12-.08-.11-.06-.11-.06-.12-.08-.08-.06-.12-.08-.11-.06-.08-.06-.12-.08-.11-.06-.12-.08-.08-.06-.11,1.81-1.22.09.11.08.11.06.09.09.11,0,.12.09.11.05.11.09.12.06.11.08.11.06.12.08.11.06.11.09.12,0,.11.09.11,0,.12.06.11.09.14.05.12.09.11,0,.11.06.12.09.11.05.11.06.12.06.14.08.11.06.11,0,.12.06.11.09.11Zm0,0h0v0ZM526.62,93h-2.21v-1l0-.51v-.51l0-.51-.05-.51,0-.49-.06-.51,0-.48,0-.48-.09-.45L524,87l-.08-.49-.09-.45-.08-.45-.09-.46-.11-.42-.11-.46-.12-.42-.11-.45-.11-.43-.14-.4-.15-.42-.14-.43-.14-.39-.14-.4-.17-.4-.17-.39-.17-.4-.17-.37-.2-.37-.17-.4,2-1,.19.43.2.4.2.42.2.43.17.42.17.43.17.45.17.43.14.45.14.45.14.46.15.45.14.48.11.46.12.48.11.48.08.48.12.48.08.48.09.52.05.51.09.48.06.51,0,.54,0,.51.06.53,0,.52,0,.53,0,.54,0,.54V93Zm-7,19.64L518.12,111h0l.37-.37.39-.39.34-.4.37-.42.31-.43.34-.45.31-.43.32-.48.28-.45.25-.51.29-.49.25-.51.23-.51.23-.53.22-.54.2-.57.2-.57.17-.59.17-.6.17-.59.14-.63.12-.62.11-.65.11-.65.09-.66.08-.68.09-.68.05-.71,0-.73,0-.71,0-.74V93h2.21v.79l0,.77,0,.76,0,.77-.06.76-.06.71-.08.74-.11.71-.12.7-.14.68-.11.69-.17.68-.17.65-.17.62-.2.65-.23.63-.23.59-.22.6-.26.59-.25.57-.29.57-.28.56-.31.54-.34.54-.34.51-.34.51-.37.48-.37.48-.4.46-.39.48-.43.43-.42.42ZM518.12,111h0l.08-.08Zm-13.75,10-.48-2.16h0l.48-.11.51-.11.45-.12.48-.14.49-.14.48-.17.45-.14.48-.17.46-.2.45-.17.45-.2.49-.2.42-.22.45-.23.46-.23.45-.22.43-.26.45-.25.43-.29.45-.28.42-.29.43-.28.42-.31.43-.31.43-.31.42-.34.43-.34.39-.34.43-.37.39-.37.4-.37.43-.4,1.53,1.59-.43.43-.45.39-.43.4-.42.37-.46.37-.45.36-.42.35-.46.34-.45.34-.45.34-.49.31-.45.31-.45.28-.49.29-.48.28-.48.28-.45.26-.48.22-.52.26-.48.23-.48.22-.51.23-.48.2-.51.2-.51.17-.51.17-.51.17-.51.17-.51.14-.51.11-.54.14-.51.12Zm-16,1.76v-2.22h1.42l.45,0h.48l.48,0h.49l.45,0,.48,0,.48,0,.49,0,.48,0,.48-.06.48,0,.48,0,.48-.06.49-.06.48,0,.48-.06L498,120l.48-.08.51-.06.49-.08.48-.09.51-.06.48-.08.51-.11.48-.09.51-.08.48-.12.51-.08.49-.12.48,2.16-.54.11-.51.11-.51.09-.51.11-.48.09-.51.08-.51.09-.51.08-.51.09-.51.08-.49.06-.51.08-.51.06-.51.06-.48.08-.51.06-.48,0-.51.06-.48.05-.51,0-.48.06-.51,0-.49,0-.48,0-.51,0-.48,0-.48,0h-.48l-.49,0h-1.47Zm-40.65-2.22h40.65v2.22H447.76l-1-.57Zm0,2.22h-.65l-.31-.57Zm-2.15-7.32,3.11,5.7-1.92,1.05-3.12-5.7-.14-.54Zm-1.93,1-.14-.25V116Zm2.07-26.22V116h-2.21V90.34l1.1-1.11Zm-2.21,0V89.23h1.1Zm35.2,1.11h-34.1V89.23h34.1Zm8.08-7.6H489v.45l0,.46-.06.42-.06.43-.11.39-.11.4-.15.4-.14.37-.2.36-.19.34-.23.34-.26.32-.28.28-.28.28-.31.29-.34.22-.35.26-.36.2-.37.2-.4.17-.42.17-.43.14-.45.14L483,91l-.48.12-.48.08-.51.09-.54,0-.54.06-.56,0h-.57l-.6,0V89.23h.54l.54,0,.48,0,.48,0,.49-.06.42-.08.43-.06.39-.08.37-.12.37-.08.34-.14.31-.12.31-.14.29-.14.25-.14.23-.17.23-.17.22-.17.17-.2.2-.2.14-.2.15-.2.14-.22.11-.23.11-.26.09-.25.08-.28.06-.29.06-.28.05-.34v-.31l0-.37Zm.23-.6,1.56-1.58.31.65v.08l0,.06v.23l0,0V83l0,0v.77h-2.18v-.37l0,0V83l0-.06v-.23l0,0V82.6Zm1.56-1.58.25.28.06.37Zm-5-1.45,1.39-1.7h0l.14.11.14.14.14.12.14.11.14.11.12.12.14.11.14.09.12.11.11.11.14.12.11.08.12.12.11.11.11.08.12.12.11.08.11.12.12.08.08.09.12.08.08.11.11.09.09.08.08.09.12.08.08.09.09.08.08.09.09.08.08.09.09.06-1.56,1.58-.06-.08-.08-.06-.09-.08-.08-.09-.09,0-.08-.09-.09-.09-.08-.08-.09-.09-.08-.08-.12-.09-.08-.08-.09-.09-.11-.11-.11-.08-.09-.09-.11-.11-.12-.09-.11-.08-.11-.12-.12-.08-.11-.11-.14-.12-.11-.11-.12-.09-.14-.11-.11-.11-.14-.12-.15-.11-.14-.11-.11-.12-.14-.11Zm-5.13-4.31,1.41-1.7v0l.15.11.14.12.11.11.14.11.14.12.15.11.14.14.14.11.17.12.14.14.14.11.17.15.14.11.15.14.17.14.17.12.14.14.17.14.17.14.17.14.17.14.17.15.17.14.17.14.17.14.17.14.17.14.2.17.17.15.17.14.2.17.17.14-1.39,1.7-.2-.17-.17-.14-.2-.14-.17-.17-.2-.14-.17-.15-.17-.14L482.2,79l-.17-.14-.17-.14-.17-.14-.17-.15-.17-.14-.17-.11L481,78l-.14-.14-.17-.15-.17-.11-.14-.14-.17-.14-.14-.12-.15-.14-.17-.11-.14-.14-.14-.12-.14-.11-.14-.11-.14-.14-.15-.12-.14-.11-.14-.11-.11-.12Zm1.41-1.7h0v0Zm-13.57-8.33,1.41-1.7h0l.34.28.32.28.34.29.34.28.34.28.34.29.34.28.36.28.34.32.37.28.34.31.37.28.37.32.37.31.37.31.39.31.37.31.4.32.37.31.39.34.4.31.4.34.4.31.42.34.4.34.42.34.4.34.42.34.43.34.43.34.42.37.45.34-1.41,1.7-.43-.34-.42-.34-.43-.37-.42-.34-.43-.34-.42-.34-.4-.34-.43-.34-.39-.34-.4-.31-.4-.34-.39-.31-.4-.34-.4-.31-.37-.32-.39-.31-.37-.31-.37-.31-.37-.31-.37-.31-.37-.29-.36-.31-.37-.31-.34-.29-.37-.28-.34-.31-.34-.28-.34-.29-.34-.28-.34-.28-.31-.26-.34-.28Zm-9-8.73L459,55.7h0l.23.26.23.25.25.28.23.26.25.25.23.26.26.28.25.26.26.25.25.26.26.28.25.26.26.25.28.29.26.25.28.26.25.28.29.25.28.26.28.28.29.26.28.28.31.26.29.25.31.29.28.25.31.28.32.26.31.28.31.26.31.28.31.26-1.41,1.7-.32-.29-.34-.28-.31-.25-.31-.29-.31-.28-.31-.26-.32-.28-.31-.28-.28-.26-.31-.28-.31-.29-.29-.25-.28-.28-.28-.29-.29-.25-.28-.29-.28-.25-.29-.29-.28-.28-.26-.25-.28-.29-.26-.25-.25-.29-.26-.25-.28-.28-.25-.29-.23-.25-.26-.29-.25-.25-.23-.28-.25-.26-.23-.28Zm0,0h0l-.06-.06ZM451.56,48l1.84-1.25.09.2.14.29.14.31.14.31.14.31.15.29.14.31.14.28.17.28.14.32.17.28.14.28.17.29.17.28.17.28.17.29.17.25.17.29.17.28.2.25.17.29.17.25.2.26.2.25.17.29.2.25.2.26.19.25.2.23.2.25.23.26.2.25.19.23-1.64,1.45-.23-.26-.22-.25-.23-.26-.2-.28-.23-.26-.19-.28-.23-.26-.2-.28-.2-.28-.2-.29-.19-.28-.2-.28-.2-.29-.2-.28-.17-.28-.2-.29-.17-.31-.2-.28-.17-.31-.17-.29-.17-.31-.17-.31-.17-.31-.17-.29-.17-.31-.14-.31-.17-.34-.14-.31-.17-.31-.14-.32-.14-.34-.15-.31Zm1.84-1.25.06.09,0,.11Zm-5.27-5.21,2-.85h0l.09.2.08.2.09.19.11.23.09.2.08.2.09.2.08.19.11.2.09.17.08.2.12.2.08.2.12.2.08.2.11.17.09.19.11.2.12.17.08.2.11.17.12.2.11.17.11.2.12.17.11.2.09.17.11.17.14.19.11.17.12.17.11.17L451.56,48l-.11-.2-.12-.17-.14-.19-.11-.2L451,47l-.14-.17-.11-.2-.11-.2-.12-.2-.11-.2-.11-.19-.12-.2-.11-.2-.12-.2-.11-.2-.11-.2-.09-.19-.11-.2-.11-.23-.12-.2-.08-.2-.12-.19L449,43.4l-.11-.2-.09-.23-.11-.2-.09-.19-.11-.23-.09-.2-.08-.23-.09-.22-.11-.2Zm2-.85h0v0Zm-4.39-11.79H448v.82l0,.4v.39l0,.4,0,.4,0,.39,0,.4,0,.4.06.37,0,.39.06.37.06.4.05.37.06.36.06.37.08.37.06.37.08.37.09.34.08.37.12.34.08.37.09.34.11.34.11.34.12.34.11.34.11.34.15.34.11.31.14.34-2,.85-.17-.37-.14-.34-.12-.37-.14-.37-.14-.36-.11-.37-.12-.37-.11-.37-.11-.37-.12-.4-.08-.36-.09-.4-.11-.37-.08-.4-.06-.39-.09-.4-.08-.4-.06-.39-.06-.4-.05-.4-.06-.42-.06-.4,0-.42-.06-.4,0-.43,0-.42,0-.43v-.39l0-.46v-.42l0-.43v-.42Zm3.43-14.49,1.95,1h0l-.19.37-.2.4-.17.37-.17.36-.17.4-.17.4-.17.37-.15.39-.14.4-.14.4-.14.42-.11.4-.12.4-.14.42-.08.43-.12.39-.08.43-.12.42-.05.43-.09.45-.08.43-.06.42-.06.46,0,.42-.06.46,0,.45,0,.45,0,.46,0,.45,0,.48v.94h-2.21v-.51l0-.49v-.51l0-.48,0-.48,0-.48.06-.48.05-.49.06-.48.06-.48.05-.45.09-.48.08-.46.09-.45.11-.45.09-.49.11-.42.12-.46.14-.45.11-.45.14-.43.14-.45.17-.43.15-.42.17-.43.17-.42.17-.43.19-.42.2-.4.2-.42.2-.4.2-.4Zm0,0h0v0ZM460.52,4l1,2h0l-.45.23-.46.22-.42.26-.43.23-.42.25-.4.23-.4.25-.39.26-.4.28-.37.26L457,8.7l-.34.29-.37.28-.34.28-.34.29-.31.28-.31.31-.31.28-.31.32-.29.31-.31.31-.25.31-.29.34-.25.31-.26.34-.25.34-.23.34L452,14l-.22.34-.23.37-.2.37-.2.34-1.95-1,.22-.42.23-.4.26-.4.25-.37.26-.39.25-.37.29-.4.28-.37.28-.34.31-.37.29-.34.34-.36.31-.34.34-.34.34-.32.34-.34.37-.31.37-.31.37-.31.39-.31.4-.32.4-.28.39-.28.43-.29.42-.28.43-.28.45-.26.46-.25.45-.26.45-.25.48-.26.49-.22Zm1,2h0l.09,0ZM480.33.2V2.41h-1.42l-.71,0-.7,0-.68,0-.68,0-.68.06-.66.06-.65,0-.65.06-.65.08-.63.09L471.6,3l-.6.09-.59.11-.6.12-.59.11-.57.11-.56.15-.57.14L467,4l-.54.14-.54.14-.54.17-.51.17-.51.2-.48.17-.51.2-.48.2-.45.2-.49.22-.45.2-1-1.95.48-.26.51-.23.51-.22.51-.2.54-.23.54-.17.53-.2.54-.2.57-.17.57-.17.56-.14.6-.17.59-.14.6-.14.6-.11.62-.15L470,1l.63-.08.65-.12.65-.08.65-.09.65-.08.68-.06.68-.08.69,0,.7-.06.71-.06.71,0,.71,0h.74l.73,0Zm41,2.21h-41V.2h41l1,.57Zm0-2.21h.65l.32.57Zm2.13,7.34-3.09-5.7L522.26.77l3.08,5.69.15.54Zm1.92-1.08.15.26V7Z"/><path class="cls-1" d="M1.11,1.3H28.49A173.9,173.9,0,0,1,50,2.61,73.18,73.18,0,0,1,72,9.38q11.43,5.4,19.19,17.46T99,58.34Q99,75,93.51,86.85A49.14,49.14,0,0,1,79,105.65a46.54,46.54,0,0,1-17.54,8.87c-7.06,2-16.39,1.36-23.9,1.36V90.09c10.52,0,18.28-.4,23.3-6.69,4.34-5.56,6.52-13.84,6.52-24.72,0-10.09-2.72-17.86-8.19-23.39S46.23,27,36.71,27H31.89v89H1.11ZM140.85,58.68q0,14.19,5.79,23.41c3.85,6.18,9.78,9.24,17.77,9.24s13.78-3.06,17.69-9.18,5.84-14,5.84-23.47a51.5,51.5,0,0,0-2.44-16.36,25.16,25.16,0,0,0-7.71-11.82c-3.54-2.95-8-4.42-13.38-4.42s-10,1.44-13.52,4.34a24.81,24.81,0,0,0-7.63,11.7A53.8,53.8,0,0,0,140.85,58.68Zm-30.36,0a71,71,0,0,1,4-24.72,49.86,49.86,0,0,1,11.42-18.2,47.66,47.66,0,0,1,17.15-11,60.7,60.7,0,0,1,21.35-3.62,60,60,0,0,1,21.2,3.65,48,48,0,0,1,17.18,11A50.21,50.21,0,0,1,214.24,33.9a70.24,70.24,0,0,1,4.08,24.78,70,70,0,0,1-4,24.72,49.69,49.69,0,0,1-11.45,18.08,49.14,49.14,0,0,1-17.18,11.11,59.27,59.27,0,0,1-21.23,3.72q-15.6,0-27.78-6.67A47.39,47.39,0,0,1,117.47,90Q110.49,77,110.49,58.68ZM233.91,1.3h50.21q16.92,0,27.44,6.44a37.79,37.79,0,0,1,15.08,16.64A52,52,0,0,1,331.23,46a51.39,51.39,0,0,1-2.84,17.4,39.38,39.38,0,0,1-8.47,14,38.25,38.25,0,0,1-13.83,9.36,49.43,49.43,0,0,1-18.52,3.29l-17.23,0,0-25.82,11.08.06a20.62,20.62,0,0,0,9.44-2.07A14.63,14.63,0,0,0,297.3,56a20.73,20.73,0,0,0,2.32-10.2,27.46,27.46,0,0,0-1.16-7.52c-.79-2.69-2.75-5.24-5.92-7.68s-7.8-3.65-14-3.65H264.67v89H233.91Zm134.31,0h29.31a221,221,0,0,1,14.2,28.38A318.68,318.68,0,0,1,422.62,60q4.71,15.43,7.82,29.65c2.1,9.5,3.74,18.28,5,26.39H404.62c-.37-2.07-.85-4.9-1.42-8.53-.65-4.42-1.3-8-1.93-10.77H370.86c1.5-7.71,3.34-15.71,5.52-24h18.8A148.4,148.4,0,0,0,391,58.48c-1.56-4.51-3.12-8.53-4.65-12.13s-2.66-6.13-3.32-7.57q-5.18,12-9.41,24.89t-7.45,26.5c-2.13,9.1-3.83,17.69-5.1,25.85H330.38q2.55-14.2,6.57-30.36t9.19-32.09c3.4-10.6,7-20.32,10.69-29.22A178.85,178.85,0,0,1,368.22,1.3Zm153.07,0V27H490.2c-5.9,0-8.82,2.21-8.82,6.63A8.26,8.26,0,0,0,482.6,38a20.22,20.22,0,0,0,3.85,4.26c1.73,1.5,4.6,3.74,8.56,6.71,6.92,5.22,12.16,9.42,15.65,12.56a38.6,38.6,0,0,1,8.51,10.89,31.55,31.55,0,0,1,3.26,14.88q0,12.45-6.67,18.85A30,30,0,0,1,501,114.29,74.11,74.11,0,0,1,485.29,116H444.64V90.34h34.1c6.13,0,9.19-2.15,9.19-6.49a8.77,8.77,0,0,0-.71-3.57,12,12,0,0,0-1.84-2.84,45.14,45.14,0,0,0-4.14-3.77c-2-1.67-3.72-3.09-5.13-4.31-4.62-3.77-8.68-7.11-12.14-10a87.76,87.76,0,0,1-8.9-8.59,35.7,35.7,0,0,1-5.95-9.67,31.7,31.7,0,0,1-2.27-12.21,29.19,29.19,0,0,1,3.32-14C452.35,10.77,456,7.46,461,5S472.45,1.3,480.33,1.3Z"/></g></g></g></g></svg>