<svg width="40" height="40" viewBox="0 0 40 40" fill="none" xmlns="http://www.w3.org/2000/svg">
<path d="M30.5411 9.87518C31.1884 9.87518 31.713 9.35028 31.713 8.70331V1.17188C31.713 0.524597 31.1884 0 30.5411 0H21.7542C17.6474 0 14.3063 3.34106 14.3063 7.44781V15.0626H9.45312C8.80585 15.0626 8.28125 15.5872 8.28125 16.2344V23.7656C8.28125 24.4128 8.80585 24.9374 9.45312 24.9374H14.3063V38.8281C14.3063 39.4754 14.8309 40 15.4782 40H23.0096C23.6569 40 24.1815 39.4754 24.1815 38.8281V24.9374H29.0347C29.5935 24.9374 30.0745 24.5432 30.184 23.9954L31.6901 16.4642C31.759 16.12 31.6699 15.7629 31.4471 15.4913C31.2247 15.22 30.892 15.0626 30.5411 15.0626H24.1815V9.87518H30.5411ZM23.0096 17.4063H29.1116L28.074 22.5937H23.0096C22.3624 22.5937 21.8378 23.1183 21.8378 23.7656V37.6562H16.6501V23.7656C16.6501 23.1183 16.1255 22.5937 15.4782 22.5937H10.625V17.4063H15.4782C16.1255 17.4063 16.6501 16.8817 16.6501 16.2344V7.44781C16.6501 4.63348 18.9398 2.34375 21.7542 2.34375H29.3692V7.53143H23.0096C22.3624 7.53143 21.8378 8.05603 21.8378 8.70331V16.2344C21.8378 16.8817 22.3624 17.4063 23.0096 17.4063Z" fill="white"/>
</svg>
