<svg width="80" height="80" viewBox="0 0 80 80" fill="none" xmlns="http://www.w3.org/2000/svg">
<path d="M72.6349 17.5H53.9746V2.26379C53.9746 1.01379 52.9608 0 51.7108 0H28.1134C26.8634 0 25.8496 1.01379 25.8496 2.26379V17.5H7.36511C3.29773 17.5 0 20.7977 0 24.8651V72.6343C0 76.7023 3.29773 80 7.36572 80H72.6343C76.7023 80 80 76.7023 80 72.6343V24.8651C80 20.7977 76.7023 17.5 72.6349 17.5ZM30.5371 4.6875H49.2871V17.5H30.5371V4.6875ZM32.9688 75.3125V55H47.0312V75.3125H32.9688ZM71.8823 75.3125H51.7188V52.5763C51.7188 51.3257 50.705 50.3125 49.455 50.3125H30.545C29.2944 50.3125 28.2812 51.3263 28.2812 52.5763V75.3125H8.11768C6.22314 75.3125 4.6875 73.7769 4.6875 71.8823V25.6177C4.6875 23.7231 6.22314 22.1875 8.11768 22.1875H71.8823C73.7769 22.1875 75.3125 23.7231 75.3125 25.6177V71.8823C75.3125 73.7769 73.7769 75.3125 71.8823 75.3125Z" fill="#004677"/>
<path d="M12.9733 46.5735H20.0717C21.5609 46.5735 22.7725 45.3619 22.7725 43.8727V28.9618C22.7725 27.4725 21.5609 26.261 20.0717 26.261H12.9733C11.484 26.261 10.2725 27.4725 10.2725 28.9618V43.8727C10.2725 45.3619 11.484 46.5735 12.9733 46.5735ZM14.96 41.886V37.2986H18.085V41.886H14.96ZM18.085 30.9485V32.6111H14.96V30.9485H18.085Z" fill="#004677"/>
<path d="M49.0179 26.261H30.9821C29.4928 26.261 28.2812 27.4725 28.2812 28.9618V43.8727C28.2812 45.3619 29.4928 46.5735 30.9821 46.5735H49.0179C50.5072 46.5735 51.7188 45.3619 51.7188 43.8727V28.9618C51.7188 27.4725 50.5072 26.261 49.0179 26.261ZM47.0312 41.886H32.9688V37.2986H47.0312V41.886ZM47.0312 32.6111H32.9688V30.9485H47.0312V32.6111Z" fill="#004677"/>
<path d="M20.1986 50.3125H13.1008C11.611 50.3125 10.3994 51.524 10.3994 53.0133V67.9242C10.3994 69.4135 11.611 70.625 13.1008 70.625H20.1986C21.6879 70.625 22.8994 69.4135 22.8994 67.9242V53.0133C22.8994 51.524 21.6879 50.3125 20.1986 50.3125ZM18.2119 55V56.6626H15.0869V55H18.2119ZM15.0869 65.9375V61.3501H18.2119V65.9375H15.0869Z" fill="#004677"/>
<path d="M44.5996 5.62134C43.3051 5.62134 42.2559 6.67053 42.2559 7.96509V8.86047H37.5684V7.96509C37.5684 6.67053 36.5192 5.62134 35.2246 5.62134C33.9301 5.62134 32.8809 6.67053 32.8809 7.96509V14.3109C32.8809 15.6049 33.9301 16.6547 35.2246 16.6547C36.5192 16.6547 37.5684 15.6049 37.5684 14.3109V13.548H42.2559V14.3109C42.2559 15.6049 43.3051 16.6547 44.5996 16.6547C45.8942 16.6547 46.9434 15.6049 46.9434 14.3109V7.96509C46.9434 6.67053 45.8942 5.62134 44.5996 5.62134Z" fill="#004677"/>
<path d="M59.84 46.5735H66.9377C68.427 46.5735 69.6392 45.3619 69.6392 43.8727V28.9618C69.6392 27.4725 68.427 26.261 66.9377 26.261H59.84C58.3507 26.261 57.1392 27.4725 57.1392 28.9618V43.8727C57.1386 45.3619 58.3507 46.5735 59.84 46.5735ZM61.8261 41.886V37.2986H64.951V41.886H61.8261ZM64.951 30.9485V32.6111H61.8261V30.9485H64.951Z" fill="#004677"/>
<path d="M67.0653 50.3125H59.9669C58.4777 50.3125 57.2661 51.524 57.2661 53.0133V67.9242C57.2661 69.4135 58.4777 70.625 59.9669 70.625H67.0653C68.554 70.625 69.7661 69.4135 69.7661 67.9242V53.0133C69.7661 51.524 68.554 50.3125 67.0653 50.3125ZM65.0786 55V56.6626H61.9536V55H65.0786ZM61.9536 65.9375V61.3501H65.0786V65.9375H61.9536Z" fill="#004677"/>
</svg>
