<svg width="32" height="32" viewBox="0 0 32 32" fill="none" xmlns="http://www.w3.org/2000/svg">
<path d="M28.881 7H21.4613V0.905518C21.4613 0.405518 21.0582 0 20.5612 0H11.1784C10.6814 0 10.2783 0.405518 10.2783 0.905518V7H2.92851C1.31124 7 0 8.31909 0 9.94604V29.0537C0 30.6809 1.31124 32 2.92875 32H28.8808C30.4983 32 31.8095 30.6809 31.8095 29.0537V9.94604C31.8095 8.31909 30.4983 7 28.881 7ZM12.1421 1.875H19.5975V7H12.1421V1.875ZM13.109 30.125V22H18.7005V30.125H13.109ZM28.5818 30.125H20.5644V21.0305C20.5644 20.5303 20.1613 20.125 19.6642 20.125H12.1453C11.648 20.125 11.2452 20.5305 11.2452 21.0305V30.125H3.22774C2.47444 30.125 1.86384 29.5107 1.86384 28.7529V10.2471C1.86384 9.48926 2.47444 8.875 3.22774 8.875H28.5818C29.3351 8.875 29.9457 9.48926 29.9457 10.2471V28.7529C29.9457 29.5107 29.3351 30.125 28.5818 30.125Z" fill="#75ABF3"/>
<path d="M5.15836 18.6293H7.98082C8.57298 18.6293 9.05471 18.1447 9.05471 17.549V11.5847C9.05471 10.989 8.57298 10.5043 7.98082 10.5043H5.15836C4.56621 10.5043 4.08447 10.989 4.08447 11.5847V17.549C4.08447 18.1447 4.56621 18.6293 5.15836 18.6293ZM5.94831 16.7543V14.9194H7.19087V16.7543H5.94831ZM7.19087 12.3793V13.0444H5.94831V12.3793H7.19087Z" fill="#75ABF3"/>
<path d="M19.4904 10.5043H12.319C11.7269 10.5043 11.2451 10.989 11.2451 11.5847V17.549C11.2451 18.1447 11.7269 18.6293 12.319 18.6293H19.4904C20.0826 18.6293 20.5643 18.1447 20.5643 17.549V11.5847C20.5643 10.989 20.0826 10.5043 19.4904 10.5043ZM18.7005 16.7543H13.109V14.9194H18.7005V16.7543ZM18.7005 13.0444H13.109V12.3793H18.7005V13.0444Z" fill="#75ABF3"/>
<path d="M8.03111 20.125H5.2089C4.6165 20.125 4.13477 20.6096 4.13477 21.2053V27.1697C4.13477 27.7654 4.6165 28.25 5.2089 28.25H8.03111C8.62327 28.25 9.105 27.7654 9.105 27.1697V21.2053C9.105 20.6096 8.62327 20.125 8.03111 20.125ZM7.24116 22V22.665H5.9986V22H7.24116ZM5.9986 26.375V24.54H7.24116V26.375H5.9986Z" fill="#75ABF3"/>
<path d="M17.7338 2.2486C17.2191 2.2486 16.8019 2.66827 16.8019 3.1861V3.54425H14.9381V3.1861C14.9381 2.66827 14.5209 2.2486 14.0061 2.2486C13.4914 2.2486 13.0742 2.66827 13.0742 3.1861V5.72443C13.0742 6.242 13.4914 6.66193 14.0061 6.66193C14.5209 6.66193 14.9381 6.242 14.9381 5.72443V5.41925H16.8019V5.72443C16.8019 6.242 17.2191 6.66193 17.7338 6.66193C18.2486 6.66193 18.6657 6.242 18.6657 5.72443V3.1861C18.6657 2.66827 18.2486 2.2486 17.7338 2.2486Z" fill="#75ABF3"/>
<path d="M23.7936 18.6293H26.6158C27.208 18.6293 27.69 18.1447 27.69 17.549V11.5847C27.69 10.989 27.208 10.5043 26.6158 10.5043H23.7936C23.2015 10.5043 22.7197 10.989 22.7197 11.5847V17.549C22.7195 18.1447 23.2015 18.6293 23.7936 18.6293ZM24.5833 16.7543V14.9194H25.8259V16.7543H24.5833ZM25.8259 12.3793V13.0444H24.5833V12.3793H25.8259Z" fill="#75ABF3"/>
<path d="M26.6664 20.125H23.8439C23.2518 20.125 22.77 20.6096 22.77 21.2053V27.1697C22.77 27.7654 23.2518 28.25 23.8439 28.25H26.6664C27.2583 28.25 27.7403 27.7654 27.7403 27.1697V21.2053C27.7403 20.6096 27.2583 20.125 26.6664 20.125ZM25.8764 22V22.665H24.6339V22H25.8764ZM24.6339 26.375V24.54H25.8764V26.375H24.6339Z" fill="#75ABF3"/>
</svg>
