<svg width="32" height="32" viewBox="0 0 32 32" fill="none" xmlns="http://www.w3.org/2000/svg">
<path d="M15.9961 13.1201C14.4458 13.1201 13.1846 14.3814 13.1846 15.9316V21.6171C13.1846 23.1673 14.4458 24.4286 15.9961 24.4286C17.5463 24.4286 18.8075 23.1673 18.8075 21.6171V15.9316C18.8076 14.3813 17.5463 13.1201 15.9961 13.1201ZM16.9333 21.617C16.9333 22.1337 16.5128 22.5542 15.9961 22.5542C15.4793 22.5542 15.0589 22.1337 15.0589 21.617V15.9316C15.0589 15.4148 15.4793 14.9944 15.9961 14.9944C16.5128 14.9944 16.9333 15.4148 16.9333 15.9316V21.617Z" fill="#75ABF3"/>
<path d="M15.9961 5.62292C14.4458 5.62292 13.1846 6.88417 13.1846 8.43436C13.1846 9.98454 14.4458 11.2459 15.9961 11.2459C17.5463 11.2459 18.8075 9.98461 18.8075 8.43436C18.8075 6.88411 17.5463 5.62292 15.9961 5.62292ZM15.9961 9.37155C15.4793 9.37155 15.0589 8.95111 15.0589 8.43436C15.0589 7.91761 15.4793 7.49717 15.9961 7.49717C16.5128 7.49717 16.9333 7.91761 16.9333 8.43436C16.9333 8.95111 16.5128 9.37155 15.9961 9.37155Z" fill="#75ABF3"/>
<path d="M31.363 30.1667C30.9686 29.9373 28.567 28.4499 27.2823 25.7604C30.1995 23.0186 31.9902 19.1467 31.9902 14.9945C31.9902 6.72656 24.8153 0 15.9961 0C7.17689 0 0.00195312 6.72656 0.00195312 14.9945C0.00195312 23.2457 7.15339 30.1139 15.9961 30.1139C17.1787 30.1139 18.3514 29.9921 19.4948 29.751C19.5405 29.7414 19.8926 29.6982 20.1317 29.6386C24.7258 32.0772 30.7643 31.9791 30.8636 31.9799C31.295 32.0731 31.7755 31.8361 31.9412 31.3797C32.1261 30.8704 31.8427 30.3348 31.363 30.1667ZM20.8783 27.9123C20.6481 27.7023 20.3185 27.6118 19.9963 27.7009C18.7037 28.0584 17.3578 28.2397 15.9961 28.2397C8.21039 28.2397 1.87627 22.2979 1.87627 14.9946C1.87627 7.76012 8.21039 1.87437 15.9961 1.87437C23.7818 1.87437 30.1159 7.76006 30.1159 14.9946C30.1159 18.7453 28.4502 22.3194 25.546 24.8004C25.243 25.0592 25.1368 25.4813 25.2813 25.8526C26.0012 27.7039 27.1904 29.1211 28.161 30.0517C26.2715 29.9002 23.6499 29.4123 20.8783 27.9123Z" fill="#75ABF3"/>
</svg>
