<svg width="40" height="40" viewBox="0 0 40 40" fill="none" xmlns="http://www.w3.org/2000/svg">
<path d="M28.7137 1H11.2863C5.61432 1 1 5.61432 1 11.2863V28.714C1 34.3857 5.61432 39 11.2863 39H28.714C34.3857 39 39 34.3857 39 28.714V11.2863C39 5.61432 34.3857 1 28.7137 1V1ZM36.7723 28.714C36.7723 33.1573 33.1573 36.7723 28.7137 36.7723H11.2863C6.8427 36.7723 3.22772 33.1573 3.22772 28.714V11.2863C3.22772 6.8427 6.8427 3.22772 11.2863 3.22772H28.714C33.1573 3.22772 36.7723 6.8427 36.7723 11.2863V28.714Z" fill="white"/>
<path d="M20.0002 9.60962C14.2709 9.60962 9.60986 14.2706 9.60986 20C9.60986 25.7293 14.2709 30.3903 20.0002 30.3903C25.7295 30.3903 30.3905 25.7293 30.3905 20C30.3905 14.2706 25.7295 9.60962 20.0002 9.60962ZM20.0002 28.1626C15.4995 28.1626 11.8376 24.5009 11.8376 20C11.8376 15.4993 15.4995 11.8373 20.0002 11.8373C24.5012 11.8373 28.1628 15.4993 28.1628 20C28.1628 24.5009 24.5012 28.1626 20.0002 28.1626Z" fill="white"/>
<path d="M30.6386 5.91968C28.9455 5.91968 27.5684 7.29707 27.5684 8.9899C27.5684 10.683 28.9455 12.0604 30.6386 12.0604C32.3317 12.0604 33.7091 10.683 33.7091 8.9899C33.7091 7.29678 32.3317 5.91968 30.6386 5.91968ZM30.6386 9.8324C30.1741 9.8324 29.7961 9.45435 29.7961 8.9899C29.7961 8.52516 30.1741 8.1474 30.6386 8.1474C31.1033 8.1474 31.4814 8.52516 31.4814 8.9899C31.4814 9.45435 31.1033 9.8324 30.6386 9.8324Z" fill="white"/>
</svg>
