<svg width="80" height="80" viewBox="0 0 80 80" fill="none" xmlns="http://www.w3.org/2000/svg">
<path d="M40.0073 0C23.7238 0 10.4761 13.2867 10.4761 29.6191C10.4761 37.8632 14.7449 48.4534 23.1635 61.095C29.4305 70.5048 35.7404 77.6239 36.4392 78.4045C37.3468 79.4183 38.6475 80 40.0067 80C41.3672 80 42.6678 79.4183 43.5748 78.4045C44.2737 77.6239 50.5841 70.5048 56.8512 61.095C65.2698 48.4528 69.5386 37.8632 69.5386 29.6191C69.538 13.2867 56.2909 0 40.0073 0ZM52.9492 58.4967C46.7584 67.7924 40.3522 74.9774 40.0824 75.2783C40.072 75.2893 40.0519 75.3125 40.0067 75.3125C39.9628 75.3125 39.9426 75.2905 39.9322 75.2783C39.6625 74.9774 33.2556 67.7924 27.0648 58.4967C19.2792 46.8048 15.1636 36.8195 15.1636 29.6191C15.1636 15.8716 26.3086 4.6875 40.0073 4.6875C53.7061 4.6875 64.8505 15.8716 64.8511 29.6191C64.8511 36.8195 60.7355 46.8048 52.9492 58.4967Z" fill="#004677"/>
<path d="M40.0074 6.88287C27.7937 6.88287 17.8572 16.8194 17.8572 29.0325C17.8572 41.2463 27.7937 51.1828 40.0074 51.1828C52.2212 51.1828 62.1577 41.2463 62.1577 29.0325C62.1577 16.8194 52.2212 6.88287 40.0074 6.88287ZM40.0074 46.4953C30.3785 46.4953 22.5447 38.6614 22.5447 29.0325C22.5447 19.4036 30.3785 11.5704 40.0074 11.5704C49.6364 11.5704 57.4702 19.4036 57.4702 29.0325C57.4702 38.6614 49.6364 46.4953 40.0074 46.4953Z" fill="#004677"/>
<path d="M42.4188 20.1504H34.9628C34.9475 20.1504 34.9329 20.1504 34.9176 20.151C34.903 20.1504 34.8883 20.1504 34.873 20.1504C33.5785 20.1504 32.5293 21.1996 32.5293 22.4941V36.1971C32.5293 37.4917 33.5785 38.5409 34.873 38.5409C36.1676 38.5409 37.2168 37.4917 37.2168 36.1971V32.7828H42.4188C45.9015 32.7828 48.7354 29.9496 48.7354 26.4669C48.7354 22.9836 45.9015 20.1504 42.4188 20.1504ZM42.4188 28.0953H37.2168V24.8379H42.4188C43.3173 24.8379 44.0479 25.5685 44.0479 26.4669C44.0479 27.3647 43.3173 28.0953 42.4188 28.0953Z" fill="#004677"/>
</svg>
