<svg width="170" height="41" viewBox="0 0 170 41" fill="none" xmlns="http://www.w3.org/2000/svg">
<path d="M61.44 28H63.8L61.1 14H58.64L55.94 28H58.32L58.72 25.08H61.04L61.44 28ZM58.96 23.32L59.62 18.58C59.7 18.22 59.8 17.14 59.88 16.28H59.9C59.98 17.14 60.08 18.22 60.16 18.58L60.8 23.32H58.96ZM69.4963 28.18C71.9163 28.2 72.9363 27.08 72.9363 24.86L72.9563 14H70.5763L70.5563 24.96C70.5563 25.82 70.2163 26.22 69.4963 26.24C68.7763 26.24 68.4563 25.82 68.4563 24.96V14H66.0563V24.86C66.0563 27.08 67.0563 28.16 69.4963 28.18ZM81.7723 14H75.4323V15.9H77.4523V28H79.8323V15.9H81.7723V14ZM87.7172 28.18C90.3772 28.2 91.3972 27.08 91.3972 24.78V17.24C91.3972 14.92 90.3772 13.82 87.7172 13.82C85.0372 13.82 84.0572 14.92 84.0572 17.24V24.78C84.0572 27.08 85.0372 28.16 87.7172 28.18ZM87.7172 26.24C86.7772 26.24 86.4372 25.82 86.4372 24.88V17.14C86.4372 16.18 86.7772 15.78 87.7172 15.76C88.6572 15.76 88.9972 16.18 88.9972 17.14V24.88C88.9972 25.82 88.6572 26.22 87.7172 26.24ZM99.8709 20.8C100.771 20.44 101.191 19.54 101.191 17.86V17.2C101.191 14.9 100.171 14 98.0709 14H94.4309V28H98.1109C100.251 28 101.391 27.12 101.391 24.72V23.94C101.391 22.12 100.891 21.16 99.8709 20.8ZM97.6709 15.72C98.4709 15.72 98.8909 16.04 98.8909 17.46V18.46C98.8909 19.86 98.4709 20.18 97.6709 20.18H96.7509V15.72H97.6709ZM99.0509 24.54C99.0509 25.94 98.6109 26.26 97.8109 26.26H96.7509V21.66H97.8109C98.6109 21.66 99.0509 21.98 99.0509 23.4V24.54ZM107.713 28.18C110.133 28.2 111.153 27.08 111.153 24.86L111.173 14H108.793L108.773 24.96C108.773 25.82 108.433 26.22 107.713 26.24C106.993 26.24 106.673 25.82 106.673 24.96V14H104.273V24.86C104.273 27.08 105.273 28.16 107.713 28.18ZM117.429 28.18C119.889 28.18 120.849 27.18 120.849 25.4V24.22C120.849 19.82 116.489 20.54 116.489 17.64V16.52C116.489 15.94 116.769 15.64 117.429 15.64C118.169 15.64 118.449 15.98 118.449 16.6V18.56H120.809V16.7C120.809 14.78 119.689 13.82 117.429 13.82C115.069 13.82 114.129 14.82 114.129 16.6V17.62C114.129 21.86 118.489 21.18 118.489 24.2V25.48C118.489 26.06 118.189 26.38 117.469 26.38C116.709 26.38 116.369 26.04 116.369 25.4V23.56H114.049V25.32C114.049 27.22 115.009 28.18 117.429 28.18ZM123.405 28H125.725V25.92H123.405V28ZM131.802 14H128.722V28H131.802C134.562 28 135.742 26.86 135.742 24.1V17.92C135.742 15.14 134.562 14 131.802 14ZM133.342 24.1C133.342 25.5 132.902 26.06 131.802 26.06H131.042V15.92H131.802C132.902 15.92 133.342 16.5 133.342 17.9V24.1ZM142.119 14H138.779V28H141.099V23.4H142.119C144.459 23.4 145.539 22.36 145.539 19.88V17.54C145.539 15.02 144.459 14 142.119 14ZM143.159 19.86C143.159 21.06 142.779 21.52 141.919 21.52H141.099V15.88H141.919C142.779 15.88 143.159 16.34 143.159 17.54V19.86ZM147.521 28H149.841V25.92H147.521V28ZM156.258 28.18C158.678 28.2 159.698 27.08 159.698 24.86L159.718 14H157.338L157.318 24.96C157.318 25.82 156.978 26.22 156.258 26.24C155.538 26.24 155.218 25.82 155.218 24.96V14H152.818V24.86C152.818 27.08 153.818 28.16 156.258 28.18ZM167.476 28H169.836L167.136 14H164.676L161.976 28H164.356L164.756 25.08H167.076L167.476 28ZM164.996 23.32L165.656 18.58C165.736 18.22 165.836 17.14 165.916 16.28H165.936C166.016 17.14 166.116 18.22 166.196 18.58L166.836 23.32H164.996Z" fill="white"/>
<path fill-rule="evenodd" clip-rule="evenodd" d="M12.956 14.9823C12.4438 15.397 12.0891 15.7524 11.567 16.1572C9.43924 17.8455 6.7795 20.2348 4.60245 22.081C4.35618 22.2883 3.94244 22.6043 3.61736 22.8807C3.76513 22.624 2.53377 23.3151 2.70123 23.1374C2.8687 22.9597 4.21827 22.1501 4.29708 22.0316L4.64186 21.7552L4.92753 21.5183L5.49888 21.0542C7.3804 19.4943 9.61656 17.5 11.5572 15.9005H11.6064L11.9315 15.634L12.4635 15.1995C12.9757 14.7948 13.3402 14.4393 13.8524 14.0247C16.1674 12.1488 17.2904 10.9937 20.088 9.65093L19.8615 10.1248C16.6304 11.8032 15.8325 12.7412 12.9659 15.0613L12.956 14.9823ZM39.8588 26.1289C39.8588 26.0203 39.8588 25.9117 39.8588 25.8031V25.5366C39.8588 25.5366 39.7603 24.0161 39.711 23.2855C39.4549 19.593 38.5388 12.4746 36.3125 10.0952C33.5936 7.18269 27.3679 6.49158 23.4176 7.88367C22.8364 8.11075 20.0683 9.58182 20.0683 9.58182L21.6051 9.06843C22.1623 8.70405 22.7651 8.41522 23.3979 8.20948C27.3482 6.81739 33.5739 7.53812 36.3125 10.4309C38.5289 12.8004 39.445 19.9287 39.6815 23.6311C39.7307 24.3617 39.8292 25.9019 39.8292 25.8722V26.1388L39.8588 26.1289ZM0.553739 28.1035C0.522357 26.4458 1.06935 24.829 2.10033 23.5323C1.48916 24.1561 1.01076 24.8978 0.694107 25.7124C0.377458 26.527 0.229163 27.3976 0.258212 28.2714L0.553739 28.1035Z" fill="#C11C1A"/>
<path fill-rule="evenodd" clip-rule="evenodd" d="M17.9111 23.868C17.4678 20.9061 15.9409 20.7975 14.1875 21.7453L0.22876 29.0316V29.1303L14.3648 21.9724C16.8078 20.8567 17.5663 23.1769 17.921 23.868" fill="#C11C1A"/>
<path fill-rule="evenodd" clip-rule="evenodd" d="M1.83474 27.3532C1.72507 26.0912 2.075 24.8322 2.81983 23.8088L2.57355 24.0358C2.14484 24.5127 1.81725 25.0719 1.61066 25.6795C1.40407 26.287 1.32279 26.9304 1.37174 27.5704L1.83474 27.3532Z" fill="#C11C1A"/>
<path fill-rule="evenodd" clip-rule="evenodd" d="M19.9107 25.4181C19.1424 22.6931 18.2755 18.507 15.8128 19.4252L0.268066 28.1529V28.2714L15.5271 19.9583C18.64 18.892 18.9454 24.4801 19.9206 25.3885" fill="#C11C1A"/>
<path fill-rule="evenodd" clip-rule="evenodd" d="M39.5141 29.8116C38.8837 30.9584 37.9223 31.8876 36.7558 32.4773L36.7164 32.5167C35.9267 32.9542 35.5169 32.957 34.8876 32.9614C34.6221 32.9632 34.3174 32.9654 33.9286 33.0005C33.8689 33.0604 33.8154 33.119 33.7642 33.1751C33.5369 33.4243 33.3534 33.6254 32.8549 33.6818C32.2872 33.7116 31.7184 33.7116 31.1507 33.6818C28.9447 33.6749 28.8637 33.5534 28.724 33.3439C28.6629 33.2522 28.5905 33.1435 28.3235 33.0203C28.1166 32.9314 21.6643 32.6155 21.221 32.7043C21.0153 32.7456 20.886 32.8697 20.7484 33.0018C20.5894 33.1543 20.4194 33.3175 20.1078 33.3757C18.287 33.4437 16.4637 33.3876 14.6504 33.2079C14.3828 33.0796 14.2862 32.9605 14.2074 32.8632C14.0859 32.7135 14.0065 32.6155 13.4092 32.6155L7.94199 32.6846C7.74615 32.6993 7.65981 32.8287 7.54389 33.0023C7.42658 33.1781 7.27897 33.3992 6.9569 33.5929C6.3166 33.9779 2.35654 33.741 2.12012 33.6916C1.65572 33.5684 1.37124 33.1937 1.17805 32.9393C1.09258 32.8267 1.02497 32.7376 0.967564 32.7043C0.0620765 32.3573 0.0765874 32.0665 0.203649 29.5196C0.217584 29.2403 0.232872 28.9338 0.248449 28.5972L14.4239 21.0147C16.1675 20.1262 17.4875 20.3434 18.1968 22.1008C18.6303 23.6019 19.1534 25.0756 19.7631 26.514C20.1768 27.1261 29.5647 28.8835 30.7468 28.8835C33.7644 28.8835 34.7981 28.9992 35.7954 28.8581C36.6864 28.7321 37.5484 28.4013 39.7702 27.6C39.7702 27.7349 39.7579 27.6855 39.7502 27.6541C39.7409 27.6167 39.738 27.6052 39.7702 27.9653C39.8708 28.5925 39.7816 29.2356 39.5141 29.8116ZM5.78459 31.3518C5.78459 30.2657 5.3807 29.3772 4.87831 29.3772C4.37591 29.3772 3.97202 30.2657 3.97202 31.3518C3.97202 32.4378 4.37591 33.3264 4.87831 33.3264C5.3807 33.3264 5.78459 32.4378 5.78459 31.3518ZM17.3298 29.2389C17.3298 27.3038 16.6698 25.734 15.8522 25.734C15.0444 25.734 14.3844 27.3433 14.3844 29.2587C14.3844 31.1741 15.0346 32.7439 15.8522 32.7439C16.6698 32.7439 17.3298 31.174 17.3298 29.2389ZM3.46963 31.6381C3.46963 30.6508 3.115 29.8609 2.68156 29.8609C2.24812 29.8609 1.89349 30.6607 1.89349 31.6381C1.89349 32.6155 2.24812 33.4152 2.68156 33.4152C3.115 33.4152 3.46963 32.6254 3.46963 31.6381Z" fill="#C11C1A"/>
<path fill-rule="evenodd" clip-rule="evenodd" d="M6.37585 24.7665C6.2528 22.9452 6.79557 21.1413 7.90274 19.6918C7.76482 19.8102 7.64661 19.9287 7.55796 20.0176C6.9456 20.7003 6.47724 21.5 6.181 22.3686C5.88475 23.2373 5.76674 24.157 5.83405 25.0725L6.37585 24.7665Z" fill="#C11C1A"/>
<path fill-rule="evenodd" clip-rule="evenodd" d="M12.4142 21.3603C12.2554 18.7632 13.047 16.1973 14.6405 14.1432C14.4648 14.2886 14.2971 14.4435 14.1381 14.6072C13.2648 15.5806 12.5965 16.7206 12.1733 17.9591C11.7501 19.1975 11.5808 20.5088 11.6754 21.8145L12.4142 21.3603Z" fill="#C11C1A"/>
<path fill-rule="evenodd" clip-rule="evenodd" d="M19.566 10.0162L18.9651 10.5C21.7726 9.6608 22.0878 12.4746 22.5804 14.4492C22.9941 16.1474 22.8463 16.7397 24.5505 16.2066C24.9938 16.0684 25.1711 15.8907 25.1711 15.318C24.9559 13.659 24.5899 12.0232 24.0777 10.4309C23.7526 9.64106 23.4177 9.11779 22.541 8.98944C22.001 8.94295 21.4574 9.0103 20.945 9.18714C20.4326 9.36399 19.9629 9.64641 19.566 10.0162ZM39.2678 15.6241C40.5287 15.012 38.9919 11.586 38.4797 10.737C37.2877 8.76236 35.9579 9.05855 35.3471 8.76236C34.9513 8.714 34.551 8.714 34.1552 8.76236C34.9683 9.15033 35.7004 9.68977 36.3125 10.3519C37.2976 11.4577 38.0758 13.6297 38.5782 15.9795L39.2678 15.6241Z" fill="#C11C1A"/>
</svg>
