<svg width="457" height="244" viewBox="0 0 457 244" fill="none" xmlns="http://www.w3.org/2000/svg">
<path d="M22.76 243H32.2L21.4 187H11.56L0.76001 243H10.28L11.88 231.32H21.16L22.76 243ZM12.84 224.28L15.48 205.32C15.8 203.88 16.2 199.56 16.52 196.12H16.6C16.92 199.56 17.32 203.88 17.64 205.32L20.2 224.28H12.84Z" fill="#C11C1A"/>
<path d="M54.985 243.72C64.665 243.8 68.745 239.32 68.745 230.44L68.825 187H59.305L59.225 230.84C59.225 234.28 57.865 235.88 54.985 235.96C52.105 235.96 50.825 234.28 50.825 230.84V187H41.225V230.44C41.225 239.32 45.225 243.64 54.985 243.72Z" fill="#C11C1A"/>
<path d="M104.089 187H78.7294V194.6H86.8094V243H96.3294V194.6H104.089V187Z" fill="#C11C1A"/>
<path d="M127.869 243.72C138.509 243.8 142.589 239.32 142.589 230.12V199.96C142.589 190.68 138.509 186.28 127.869 186.28C117.149 186.28 113.229 190.68 113.229 199.96V230.12C113.229 239.32 117.149 243.64 127.869 243.72ZM127.869 235.96C124.109 235.96 122.749 234.28 122.749 230.52V199.56C122.749 195.72 124.109 194.12 127.869 194.04C131.629 194.04 132.989 195.72 132.989 199.56V230.52C132.989 234.28 131.629 235.88 127.869 235.96Z" fill="#C11C1A"/>
<path d="M176.484 214.2C180.084 212.76 181.764 209.16 181.764 202.44V199.8C181.764 190.6 177.684 187 169.284 187H154.724V243H169.444C178.004 243 182.564 239.48 182.564 229.88V226.76C182.564 219.48 180.564 215.64 176.484 214.2ZM167.684 193.88C170.884 193.88 172.564 195.16 172.564 200.84V204.84C172.564 210.44 170.884 211.72 167.684 211.72H164.004V193.88H167.684ZM173.204 229.16C173.204 234.76 171.444 236.04 168.244 236.04H164.004V217.64H168.244C171.444 217.64 173.204 218.92 173.204 224.6V229.16Z" fill="#C11C1A"/>
<path d="M207.851 243.72C217.531 243.8 221.611 239.32 221.611 230.44L221.691 187H212.171L212.091 230.84C212.091 234.28 210.731 235.88 207.851 235.96C204.971 235.96 203.691 234.28 203.691 230.84V187H194.091V230.44C194.091 239.32 198.091 243.64 207.851 243.72Z" fill="#C11C1A"/>
<path d="M246.715 243.72C256.555 243.72 260.395 239.72 260.395 232.6V227.88C260.395 210.28 242.955 213.16 242.955 201.56V197.08C242.955 194.76 244.075 193.56 246.715 193.56C249.675 193.56 250.795 194.92 250.795 197.4V205.24H260.235V197.8C260.235 190.12 255.755 186.28 246.715 186.28C237.275 186.28 233.515 190.28 233.515 197.4V201.48C233.515 218.44 250.955 215.72 250.955 227.8V232.92C250.955 235.24 249.755 236.52 246.875 236.52C243.835 236.52 242.475 235.16 242.475 232.6V225.24H233.195V232.28C233.195 239.88 237.035 243.72 246.715 243.72Z" fill="#C11C1A"/>
<path d="M270.62 243H279.9V234.68H270.62V243Z" fill="#C11C1A"/>
<path d="M304.206 187H291.886V243H304.206C315.246 243 319.966 238.44 319.966 227.4V202.68C319.966 191.56 315.246 187 304.206 187ZM310.366 227.4C310.366 233 308.606 235.24 304.206 235.24H301.166V194.68H304.206C308.606 194.68 310.366 197 310.366 202.6V227.4Z" fill="#C11C1A"/>
<path d="M345.474 187H332.114V243H341.394V224.6H345.474C354.834 224.6 359.154 220.44 359.154 210.52V201.16C359.154 191.08 354.834 187 345.474 187ZM349.634 210.44C349.634 215.24 348.114 217.08 344.674 217.08H341.394V194.52H344.674C348.114 194.52 349.634 196.36 349.634 201.16V210.44Z" fill="#C11C1A"/>
<path d="M367.086 243H376.366V234.68H367.086V243Z" fill="#C11C1A"/>
<path d="M402.032 243.72C411.712 243.8 415.792 239.32 415.792 230.44L415.872 187H406.352L406.272 230.84C406.272 234.28 404.912 235.88 402.032 235.96C399.152 235.96 397.872 234.28 397.872 230.84V187H388.272V230.44C388.272 239.32 392.272 243.64 402.032 243.72Z" fill="#C11C1A"/>
<path d="M446.904 243H456.344L445.544 187H435.704L424.904 243H434.424L436.024 231.32H445.304L446.904 243ZM436.984 224.28L439.624 205.32C439.944 203.88 440.344 199.56 440.664 196.12H440.744C441.064 199.56 441.464 203.88 441.784 205.32L444.344 224.28H436.984Z" fill="#C11C1A"/>
<g clip-path="url(#clip0)">
<path fill-rule="evenodd" clip-rule="evenodd" d="M190.75 42.5975C187.933 44.8782 185.982 46.8331 183.111 49.0594C171.408 58.345 156.779 71.4859 144.806 81.6403C143.451 82.7806 141.176 84.5182 139.388 86.0387C140.2 84.6268 133.428 88.4279 134.349 87.4505C135.27 86.4731 142.693 82.0204 143.126 81.3688L145.022 79.8483L146.594 78.5451L149.736 75.9929C160.084 67.4133 172.383 56.4444 183.057 47.6476H183.328L185.115 46.1814L188.041 43.7922C190.859 41.5658 192.863 39.611 195.681 37.3303C208.413 27.0131 214.589 20.6598 229.976 13.2748L228.73 15.8813C210.959 25.1125 206.571 30.2711 190.804 43.032L190.75 42.5975ZM338.715 103.904C338.715 103.307 338.715 102.709 338.715 102.112V100.646C338.715 100.646 338.174 92.2833 337.903 88.265C336.494 67.9563 331.455 28.805 319.211 15.7184C304.257 -0.300553 270.015 -4.10165 248.289 3.55485C245.093 4.80378 229.868 12.8947 229.868 12.8947L238.32 10.071C241.385 8.06693 244.7 6.47839 248.181 5.34679C269.907 -2.3097 304.149 1.6543 319.211 17.5646C331.401 30.5969 336.44 69.8026 337.74 90.1656C338.011 94.1839 338.553 102.655 338.553 102.492V103.958L338.715 103.904ZM122.538 114.764C122.365 105.646 125.374 96.7544 131.044 89.6226C127.683 93.0534 125.051 97.1326 123.31 101.613C121.568 106.093 120.753 110.882 120.912 115.687L122.538 114.764Z" fill="#C11C1A"/>
<path fill-rule="evenodd" clip-rule="evenodd" d="M218.003 91.4688C215.564 75.1784 207.167 74.5811 197.523 79.794L120.75 119.868V120.411L198.498 81.0429C211.934 74.9069 216.106 87.6677 218.057 91.4688" fill="#C11C1A"/>
<path fill-rule="evenodd" clip-rule="evenodd" d="M129.581 110.637C128.978 103.696 130.902 96.7716 134.999 91.1429L133.644 92.3919C131.287 95.0146 129.485 98.0901 128.349 101.432C127.212 104.774 126.765 108.312 127.035 111.832L129.581 110.637Z" fill="#C11C1A"/>
<path fill-rule="evenodd" clip-rule="evenodd" d="M229.001 99.9941C224.775 85.0069 220.007 61.9831 206.462 67.0331L120.966 115.036V115.687L204.891 69.9654C222.012 64.1009 223.691 94.8355 229.055 99.8312" fill="#C11C1A"/>
<path fill-rule="evenodd" clip-rule="evenodd" d="M336.819 124.158C333.352 130.466 328.064 135.576 321.649 138.82L321.432 139.037C317.088 141.443 314.835 141.458 311.373 141.482C309.913 141.493 308.237 141.504 306.099 141.698C305.77 142.027 305.477 142.349 305.195 142.658C303.944 144.028 302.935 145.134 300.193 145.444C297.071 145.608 293.943 145.608 290.82 145.444C278.687 145.407 278.242 144.738 277.474 143.586C277.137 143.082 276.739 142.484 275.271 141.806C274.133 141.317 238.645 139.58 236.207 140.069C235.076 140.295 234.364 140.978 233.608 141.704C232.733 142.543 231.798 143.441 230.085 143.761C220.07 144.135 210.042 143.827 200.069 142.838C198.597 142.132 198.066 141.477 197.632 140.942C196.964 140.119 196.527 139.58 193.242 139.58L163.172 139.96C162.095 140.041 161.62 140.752 160.983 141.708C160.338 142.674 159.526 143.89 157.754 144.956C154.233 147.073 132.452 145.77 131.152 145.499C128.598 144.821 127.033 142.76 125.971 141.361C125.501 140.741 125.129 140.252 124.813 140.069C119.833 138.16 119.913 136.56 120.612 122.552C120.688 121.016 120.772 119.331 120.858 117.479L198.823 75.7757C208.413 70.8886 215.673 72.0832 219.574 81.7488C221.958 90.0051 224.835 98.1106 228.188 106.022C230.464 109.388 282.097 119.054 288.599 119.054C305.196 119.054 310.881 119.69 316.366 118.914C321.267 118.221 326.008 116.402 338.228 111.995C338.228 112.737 338.16 112.465 338.117 112.292C338.066 112.086 338.051 112.023 338.228 114.004C338.781 117.454 338.29 120.991 336.819 124.158ZM151.307 132.629C151.307 126.656 149.086 121.769 146.323 121.769C143.559 121.769 141.338 126.656 141.338 132.629C141.338 138.602 143.559 143.49 146.323 143.49C149.086 143.49 151.307 138.602 151.307 132.629ZM214.806 121.009C214.806 110.366 211.176 101.732 206.679 101.732C202.236 101.732 198.606 110.583 198.606 121.117C198.606 131.652 202.182 140.286 206.679 140.286C211.176 140.286 214.806 131.652 214.806 121.009ZM138.575 134.204C138.575 128.774 136.624 124.43 134.24 124.43C131.857 124.43 129.906 128.828 129.906 134.204C129.906 139.58 131.857 143.978 134.24 143.978C136.624 143.978 138.575 139.634 138.575 134.204Z" fill="#C11C1A"/>
<path fill-rule="evenodd" clip-rule="evenodd" d="M154.558 96.4102C153.881 86.3931 156.866 76.4716 162.956 68.4993C162.197 69.1509 161.547 69.8026 161.059 70.2913C157.692 74.0461 155.116 78.4444 153.486 83.2221C151.857 87.9998 151.208 93.0582 151.578 98.0936L154.558 96.4102Z" fill="#C11C1A"/>
<path fill-rule="evenodd" clip-rule="evenodd" d="M187.77 77.6762C186.897 63.3924 191.25 49.2795 200.015 37.9819C199.048 38.7821 198.126 39.634 197.252 40.5341C192.448 45.8876 188.773 52.158 186.445 58.9695C184.118 65.7809 183.186 72.9932 183.707 80.1741L187.77 77.6762Z" fill="#C11C1A"/>
<path fill-rule="evenodd" clip-rule="evenodd" d="M227.105 15.2839L223.8 17.9447C239.241 13.3291 240.975 28.805 243.684 39.6653C245.959 49.0051 245.147 52.2632 254.52 49.3309C256.958 48.5707 257.933 47.5933 257.933 44.4438C256.749 35.3192 254.736 26.3221 251.919 17.5646C250.131 13.2205 248.289 10.3425 243.467 9.63659C240.498 9.38091 237.508 9.75132 234.689 10.724C231.871 11.6966 229.288 13.2499 227.105 15.2839ZM335.465 46.1271C342.4 42.7604 333.948 23.9179 331.13 19.2479C324.574 8.38766 317.26 10.0167 313.901 8.38766C311.724 8.12167 309.522 8.12167 307.345 8.38766C311.818 10.5215 315.844 13.4884 319.211 17.1302C324.629 23.2119 328.909 35.1583 331.672 48.082L335.465 46.1271Z" fill="#C11C1A"/>
</g>
<defs>
<clipPath id="clip0">
<rect x="120" width="219" height="146" fill="white"/>
</clipPath>
</defs>
</svg>
