<svg width="32" height="32" viewBox="0 0 32 32" fill="none" xmlns="http://www.w3.org/2000/svg">
<path d="M30.7143 2.00461L21.6565 5.62772L10.606 1.98467C10.3915 1.91386 10.1576 1.92717 9.96429 2.00454L0.589311 5.75454C0.233375 5.89691 0 6.24166 0 6.62503V29.125C0 29.7906 0.673811 30.2401 1.28568 29.9954L10.3435 26.3723L21.3893 30.0139C21.4406 30.0311 21.4364 30.0275 21.4731 30.0377C21.5356 30.0377 21.7353 30.1168 22.0395 29.9939L31.4107 26.2454C31.7666 26.1031 32 25.7584 32 25.375V2.87504C31.9999 2.21292 31.3299 1.75848 30.7143 2.00461ZM9.37498 24.7403L1.875 27.7402V7.25972L9.37498 4.25973V24.7403ZM20.75 17.608C20.7392 17.6068 20.7287 17.6047 20.7178 17.6039C20.2032 17.564 19.7066 17.4438 19.2419 17.2468C18.7652 17.0447 18.2148 17.2672 18.0128 17.744C17.8107 18.2206 18.0333 18.7709 18.51 18.9731C19.4283 19.3624 20.4448 19.5038 20.75 19.4699V27.8288L11.25 24.6969V13.1553C11.5095 13.1612 11.7687 13.1873 12.0217 13.2358C12.5309 13.3333 13.0216 12.9995 13.1189 12.4915C13.2163 11.983 12.8831 11.4918 12.3746 11.3943C12.0056 11.3237 11.6278 11.2852 11.25 11.279V4.17123L20.75 7.3031V17.608ZM30.1249 24.7403L22.625 27.7403V7.25972L30.1249 4.25973V24.7403Z" fill="#75ABF3"/>
<path d="M5.28026 17.9713C4.78907 17.8073 4.25814 18.073 4.09439 18.5641L3.79789 19.4535C3.63414 19.9447 3.89957 20.4756 4.39076 20.6394C4.88138 20.803 5.41276 20.5381 5.57663 20.0465L5.87313 19.1571C6.03694 18.6659 5.77144 18.135 5.28026 17.9713Z" fill="#75ABF3"/>
<path d="M7.82262 13.2073C7.44712 12.8508 6.85381 12.8661 6.49724 13.2415C6.00837 13.7563 5.60968 14.3538 5.31225 15.0173C5.10043 15.4898 5.31175 16.0445 5.78424 16.2563C6.25681 16.4683 6.81143 16.2567 7.02318 15.7844C7.23381 15.3146 7.51424 14.8935 7.85687 14.5327C8.21343 14.1573 8.19806 13.5638 7.82262 13.2073Z" fill="#75ABF3"/>
<path d="M17.0626 15.2438C16.9085 14.9544 16.655 14.2919 16.0121 13.5233C15.68 13.1261 15.0888 13.0734 14.6916 13.4055C14.2944 13.7377 14.2417 14.3289 14.5738 14.7261C15.0525 15.2984 15.2096 15.7535 15.4077 16.1253C15.6512 16.5825 16.2191 16.7553 16.6759 16.512C17.1329 16.2686 17.306 15.7008 17.0626 15.2438Z" fill="#75ABF3"/>
<path d="M26.0518 15.7125C25.6416 15.3962 25.0531 15.472 24.7368 15.8819C24.4298 16.2797 24.058 16.6193 23.6316 16.8912C23.1952 17.1697 23.067 17.7493 23.3455 18.1858C23.6238 18.6221 24.2032 18.7506 24.6401 18.472C25.2495 18.0833 25.7814 17.5973 26.2211 17.0275C26.5375 16.6177 26.4616 16.0289 26.0518 15.7125Z" fill="#75ABF3"/>
<path d="M27.6415 11.3723C27.1565 11.1904 26.6163 11.4361 26.4345 11.9209L26.1053 12.7987C25.8759 13.4103 26.3288 14.0657 26.983 14.0657C27.3625 14.0657 27.7198 13.8334 27.8609 13.4571L28.1901 12.5793C28.3719 12.0945 28.1263 11.5541 27.6415 11.3723Z" fill="#75ABF3"/>
</svg>
