<svg width="80" height="80" viewBox="0 0 80 80" fill="none" xmlns="http://www.w3.org/2000/svg">
<path d="M76.7856 5.01168L54.1413 14.0695L26.5149 4.96184C25.9789 4.78481 25.394 4.81809 24.9107 5.01153L1.47328 14.3865C0.583436 14.7424 0 15.6043 0 16.5628V72.8127C0 74.4767 1.68453 75.6005 3.21421 74.9887L25.8587 65.9309L53.4733 75.0348C53.6015 75.0778 53.591 75.0689 53.6827 75.0944C53.839 75.0944 54.3383 75.2922 55.0988 74.985L78.5267 65.6138C79.4164 65.2578 80 64.3961 80 63.4377V7.18777C79.9998 5.53246 78.3249 4.39637 76.7856 5.01168ZM23.4375 61.8508L4.68749 69.3508V18.1495L23.4375 10.6495V61.8508ZM51.8751 44.0202C51.848 44.0171 51.8218 44.0119 51.7944 44.0099C50.508 43.91 49.2665 43.6097 48.1048 43.1171C46.9129 42.6119 45.5371 43.1682 45.0321 44.36C44.5268 45.5516 45.0832 46.9274 46.2749 47.4329C48.5707 48.4063 51.1119 48.7596 51.8751 48.6749V69.5722L28.1249 61.7425V32.8883C28.7739 32.9032 29.4217 32.9685 30.0543 33.0898C31.3273 33.3335 32.554 32.4988 32.7973 31.229C33.0409 29.9577 32.2078 28.7296 30.9365 28.486C30.014 28.3093 29.0695 28.213 28.1251 28.1977V10.4282L51.8751 18.2579V44.0202ZM75.3124 61.851L56.5624 69.3509V18.1495L75.3124 10.6495V61.851Z" fill="#004677"/>
<path d="M13.2009 44.9281C11.9729 44.5183 10.6456 45.1825 10.2362 46.4103L9.49496 48.6337C9.08559 49.8617 9.74918 51.189 10.9771 51.5984C12.2037 52.0074 13.5321 51.3453 13.9418 50.1162L14.6831 47.8928C15.0926 46.6648 14.4289 45.3375 13.2009 44.9281Z" fill="#004677"/>
<path d="M19.5563 33.0187C18.6176 32.1273 17.1343 32.1656 16.2429 33.1042C15.0207 34.3912 14.024 35.8849 13.2804 37.5437C12.7508 38.7249 13.2791 40.1117 14.4604 40.6412C15.6418 41.171 17.0283 40.642 17.5577 39.4613C18.0843 38.2868 18.7854 37.2342 19.6419 36.3321C20.5333 35.3935 20.4949 33.9099 19.5563 33.0187Z" fill="#004677"/>
<path d="M42.6565 38.1099C42.2711 37.3863 41.6374 35.73 40.0304 33.8085C39.1999 32.8155 37.7219 32.6838 36.729 33.5141C35.736 34.3444 35.6041 35.8225 36.4346 36.8155C37.6312 38.2463 38.0241 39.3841 38.5193 40.3136C39.128 41.4566 40.5479 41.8886 41.6897 41.2803C42.8322 40.6718 43.2651 39.2524 42.6565 38.1099Z" fill="#004677"/>
<path d="M65.1299 39.2814C64.1046 38.4905 62.6332 38.6802 61.8424 39.7049C61.0749 40.6994 60.1454 41.5484 59.0796 42.2281C57.9885 42.9242 57.668 44.3733 58.3641 45.4645C59.0601 46.5555 60.5085 46.8767 61.6007 46.1801C63.1241 45.2084 64.454 43.9933 65.5533 42.5689C66.3443 41.5442 66.1546 40.0724 65.1299 39.2814Z" fill="#004677"/>
<path d="M69.1041 28.4306C67.8918 27.9758 66.5412 28.5902 66.0866 29.8022L65.2637 31.9967C64.6902 33.5258 65.8226 35.1641 67.4579 35.1641C68.4068 35.1641 69.2999 34.5834 69.6527 33.6427L70.4757 31.4481C70.9302 30.2361 70.3162 28.8852 69.1041 28.4306Z" fill="#004677"/>
</svg>
