<svg width="32" height="32" viewBox="0 0 32 32" fill="none" xmlns="http://www.w3.org/2000/svg">
<path fill-rule="evenodd" clip-rule="evenodd" d="M21.3438 5.91785C22.6292 5.91785 23.6929 7.18772 24.3734 9.24085C25.6249 13.0165 25.6249 18.9835 24.3734 22.7592C23.6928 24.8123 22.6291 26.0822 21.3438 26.0822C20.0744 26.0822 12.1047 22.6284 10.3556 21.9505C10.2162 22.96 9.34675 23.7303 8.31244 23.7303H5.43744C4.30119 23.7303 3.37494 22.8042 3.37494 21.6678V19.2452L2.00688 18.715C0.858813 18.27 0 17.3048 0 16.0278C0 15.353 0.180813 14.8152 0.566688 14.3173C0.926813 13.8525 1.43206 13.5002 2.00756 13.2773C2.1855 13.2084 20.5423 5.91785 21.3438 5.91785ZM26.8313 22.8133C26.4653 22.4473 26.4653 21.8537 26.8313 21.4877C27.1974 21.1216 27.7909 21.1216 28.157 21.4877L30.2507 23.5814C30.6168 23.9475 30.6168 24.541 30.2507 24.9071C29.8847 25.2732 29.2911 25.2732 28.9251 24.9071L26.8313 22.8133ZM28.1571 10.5124C27.791 10.8785 27.1974 10.8785 26.8314 10.5124C26.4653 10.1463 26.4653 9.55278 26.8314 9.18672L28.9251 7.09297C29.2912 6.72691 29.8848 6.72691 30.2508 7.09297C30.6169 7.45903 30.6169 8.0526 30.2508 8.41866L28.1571 10.5124ZM28.125 16.9375C27.6073 16.9375 27.1875 16.5177 27.1875 16C27.1875 15.4822 27.6073 15.0625 28.125 15.0625H31.0625C31.5802 15.0625 32 15.4822 32 16C32 16.5177 31.5802 16.9375 31.0625 16.9375H28.125ZM16.1361 22.1817L18.4234 23.0729C17.0274 19.254 17.0276 12.7431 18.4243 8.92453L16.1428 9.80797C15.0176 13.1782 15.0149 18.8078 16.1361 22.1817ZM13.9728 21.348C13.2372 18.0941 13.2407 13.8826 13.9707 10.649L2.68138 15.0205C1.59913 15.4395 1.59875 16.5524 2.68069 16.9717L13.9728 21.348ZM8.49994 21.2313L5.24994 19.9718V21.6678C5.24994 21.769 5.33625 21.8553 5.43744 21.8553H8.31244C8.41362 21.8553 8.49994 21.769 8.49994 21.6678V21.2313ZM19.3767 13.4062C20.1321 13.4062 20.7684 13.6636 21.2722 14.1674C22.2869 15.1822 22.2869 16.8178 21.2722 17.8325C20.7684 18.3363 20.1321 18.5937 19.3767 18.5937C19.5154 19.9709 19.7622 21.1945 20.0866 22.1732C20.3152 22.863 20.7732 24.2069 21.3496 24.2069C21.7369 24.1992 22.1864 23.4235 22.6009 22.1732C23.7168 18.8068 23.7168 13.1931 22.6009 9.82666C22.1854 8.57328 21.7347 7.79691 21.3468 7.79285C20.7461 7.8156 20.3137 9.14141 20.0865 9.82666C19.7622 10.8054 19.5154 12.0291 19.3767 13.4062ZM19.2594 16.7187C19.5241 16.7187 19.7275 16.7258 19.9464 16.5068C20.4064 16.0468 20.0641 15.2812 19.4396 15.2812H19.2594V16.7187H19.2594Z" fill="#75ABF3"/>
</svg>
