<svg width="32" height="32" viewBox="0 0 32 32" fill="none" xmlns="http://www.w3.org/2000/svg">
<path d="M16 0C7.15687 0 0 7.15606 0 16C0 24.8431 7.15606 32 16 32C24.8431 32 32 24.8439 32 16C32 7.15687 24.8439 0 16 0ZM16 29.8667C8.35394 29.8667 2.13331 23.6461 2.13331 16C2.13331 8.35388 8.35394 2.13331 16 2.13331C23.6461 2.13331 29.8667 8.35394 29.8667 16C29.8667 23.6461 23.6461 29.8667 16 29.8667Z" fill="#75ABF3"/>
<path d="M23.2089 14.9334H17.0666V8.79105C17.0666 8.20199 16.589 7.72437 15.9999 7.72437C15.4107 7.72437 14.9332 8.20193 14.9332 8.79105V14.9334H8.79081C8.20175 14.9334 7.72412 15.411 7.72412 16.0001C7.72412 16.5892 8.20168 17.0668 8.79081 17.0668H14.9332V23.2092C14.9332 23.7982 15.4107 24.2759 15.9999 24.2759C16.589 24.2759 17.0666 23.7983 17.0666 23.2092V17.0668H23.2089C23.798 17.0668 24.2756 16.5892 24.2756 16.0001C24.2756 15.411 23.798 14.9334 23.2089 14.9334Z" fill="#75ABF3"/>
</svg>
