<svg width="26" height="26" viewBox="0 0 26 26" fill="none" xmlns="http://www.w3.org/2000/svg">
<g clip-path="url(#clip0)">
<path d="M25.334 19.1767L22.1018 15.9445C21.2107 15.0534 19.7607 15.0534 18.8696 15.9445L17.4005 17.4137C16.7254 18.0887 15.6269 18.0885 14.952 17.4139L8.58406 11.0405C7.9074 10.3638 7.9073 9.26865 8.58406 8.59188C8.8207 8.35524 9.50021 7.67574 10.0532 7.12273C10.9404 6.23558 10.9528 4.79009 10.0524 3.88974L6.82104 0.668586C5.92992 -0.222472 4.47996 -0.222472 3.59124 0.66625C2.92621 1.32549 2.71171 1.53816 2.41352 1.83376C-0.799924 5.04715 -0.799924 10.2757 2.41337 13.489L12.5032 23.5841C15.7242 26.8051 20.9374 26.8054 24.1586 23.5841L25.334 22.4088C26.2251 21.5177 26.2251 20.0678 25.334 19.1767ZM4.66628 1.74596C4.9633 1.44894 5.44654 1.44889 5.74452 1.74677L8.97584 4.96793C9.27357 5.26566 9.27357 5.74752 8.97584 6.04531L8.4371 6.58399L4.13033 2.27723L4.66628 1.74596ZM13.5808 22.5069L3.4909 12.4117C1.00474 9.92555 0.868091 6.02174 3.07063 3.37233L7.3649 7.6666C6.23654 8.94573 6.28357 10.8949 7.50643 12.1177L13.8742 18.4908C13.8743 18.4909 13.8744 18.491 13.8744 18.491C15.096 19.7126 17.045 19.7627 18.3257 18.6328L22.6201 22.9272C19.9791 25.1259 16.0841 25.0102 13.5808 22.5069ZM24.2567 21.3314L23.7179 21.8702L19.4084 17.5606L19.947 17.0219C20.2441 16.7249 20.7274 16.7248 21.0244 17.0219L24.2566 20.2541C24.5537 20.5511 24.5537 21.0345 24.2567 21.3314Z" fill="black"/>
</g>
<defs>
<clipPath id="clip0">
<rect width="26" height="26" fill="white"/>
</clipPath>
</defs>
</svg>
