<svg width="80" height="80" viewBox="0 0 80 80" fill="none" xmlns="http://www.w3.org/2000/svg">
<path d="M40 0C23.7164 0 10.4688 13.2867 10.4688 29.6191C10.4688 37.8632 14.7375 48.4534 23.1561 61.095C29.4232 70.5048 35.733 77.6239 36.4319 78.4045C37.3395 79.4183 38.6401 80 39.9994 80C41.3599 80 42.6605 79.4183 43.5675 78.4045C44.2664 77.6239 50.5768 70.5048 56.8439 61.095C65.2625 48.4528 69.5312 37.8632 69.5312 29.6191C69.5306 13.2867 56.2836 0 40 0ZM52.9419 58.4967C46.7511 67.7924 40.3448 74.9774 40.0751 75.2783C40.0647 75.2893 40.0446 75.3125 39.9994 75.3125C39.9554 75.3125 39.9353 75.2905 39.9249 75.2783C39.6552 74.9774 33.2483 67.7924 27.0575 58.4967C19.2719 46.8048 15.1562 36.8195 15.1562 29.6191C15.1562 15.8716 26.3013 4.6875 40 4.6875C53.6987 4.6875 64.8431 15.8716 64.8438 29.6191C64.8438 36.8195 60.7281 46.8048 52.9419 58.4967Z" fill="#004677"/>
<path d="M39.9999 6.88293C27.7861 6.88293 17.8496 16.8195 17.8496 29.0326C17.8496 41.2463 27.7861 51.1829 39.9999 51.1829C52.2136 51.1829 62.1501 41.2463 62.1501 29.0326C62.1501 16.8195 52.2136 6.88293 39.9999 6.88293ZM39.9999 46.4954C30.371 46.4954 22.5371 38.6615 22.5371 29.0326C22.5371 19.4037 30.371 11.5704 39.9999 11.5704C49.6288 11.5704 57.4626 19.4037 57.4626 29.0326C57.4626 38.6615 49.6288 46.4954 39.9999 46.4954Z" fill="#004677"/>
<path d="M42.4115 20.1501H34.9554C34.9402 20.1501 34.9255 20.1501 34.9103 20.1508C34.8956 20.1501 34.881 20.1501 34.8657 20.1501C33.5712 20.1501 32.522 21.1993 32.522 22.4939V36.1969C32.522 37.4915 33.5712 38.5406 34.8657 38.5406C36.1603 38.5406 37.2095 37.4915 37.2095 36.1969V32.7826H42.4115C45.8942 32.7826 48.728 29.9493 48.728 26.4667C48.728 22.9834 45.8942 20.1501 42.4115 20.1501ZM42.4115 28.0951H37.2095V24.8376H42.4115C43.3099 24.8376 44.0405 25.5682 44.0405 26.4667C44.0405 27.3645 43.3099 28.0951 42.4115 28.0951Z" fill="#004677"/>
</svg>
