<svg width="80" height="80" viewBox="0 0 80 80" fill="none" xmlns="http://www.w3.org/2000/svg">
<g clip-path="url(#clip0)">
<path d="M62.5171 31.8555H56.7627V16.7041C56.7627 7.49329 49.2694 0 40.0586 0C30.8478 0 23.3545 7.49329 23.3545 16.7041V31.8561H17.5769C15.7251 31.8561 14.2188 33.3624 14.2188 35.2136V76.6418C14.2188 78.4937 15.7251 80 17.5769 80H62.5171C64.3683 80 65.8746 78.4937 65.8746 76.6418V35.2136C65.8746 33.3624 64.3683 31.8555 62.5171 31.8555ZM28.0469 16.7041C28.0469 10.0812 33.4357 4.69238 40.0586 4.69238C46.6815 4.69238 52.0703 10.0812 52.0703 16.7041V31.8561H48.2434V16.5393C48.2434 12.0197 44.5667 8.3429 40.047 8.3429C35.5273 8.3429 31.8506 12.0197 31.8506 16.5393V31.8561H28.0475V16.7041H28.0469ZM43.551 31.8555H36.543V16.5393C36.543 14.6075 38.1146 13.0353 40.047 13.0353C41.9788 13.0353 43.551 14.6075 43.551 16.5393V31.8555ZM61.1823 75.3076H18.9117V36.5485H61.1823V75.3076Z" fill="#004677"/>
<path d="M32.558 67.0409C33.0163 67.4993 33.6169 67.7282 34.2175 67.7282C34.8175 67.7282 35.4181 67.4993 35.8764 67.0409L54.7845 48.1328C55.7007 47.2167 55.7007 45.7311 54.7845 44.8144C53.8684 43.8982 52.3828 43.8982 51.466 44.8144L34.2175 62.0635L28.6505 56.4971C27.7343 55.581 26.2487 55.581 25.3326 56.4971C24.4165 57.4132 24.4165 58.8988 25.3326 59.8156L32.558 67.0409Z" fill="#004677"/>
</g>
<defs>
<clipPath id="clip0">
<rect width="80" height="80" fill="white"/>
</clipPath>
</defs>
</svg>
