<svg width="32" height="32" viewBox="0 0 32 32" fill="none" xmlns="http://www.w3.org/2000/svg">
<g clip-path="url(#clip0)">
<path d="M27.9357 12.6196L17.3319 2.01581C16.2357 0.919565 14.4518 0.919502 13.3555 2.01581C12.37 3.00125 12.2851 4.50419 13.0129 5.57737L12.9981 5.65118C12.2336 9.47399 10.3724 12.9517 7.61564 15.7085L2.75196 20.5722C1.65309 21.6711 1.6529 23.4496 2.75196 24.5485L5.40283 27.1994C6.50164 28.2983 8.28026 28.2984 9.3792 27.1994L10.0419 26.5367L14.6811 31.1758C15.7799 32.2747 17.5584 32.2748 18.6574 31.1758C19.7537 30.0795 19.7537 28.2957 18.6574 27.1995L16.6692 25.2113L17.3319 24.5485C18.4308 23.4497 18.4309 21.6712 17.3319 20.5722L16.8816 20.1218C19.0971 18.5706 21.6133 17.4907 24.3004 16.9532L24.3751 16.9383C25.4722 17.679 26.9716 17.5599 27.9357 16.5959H27.9357C29.0318 15.4997 29.0318 13.7159 27.9357 12.6196ZM8.05376 25.874C7.68751 26.2402 7.09451 26.2402 6.72826 25.8739L4.07739 23.223C3.71108 22.8567 3.71108 22.2639 4.07739 21.8976L8.71645 17.2585L12.6928 21.2349C12.2389 21.6887 8.51882 25.4089 8.05376 25.874ZM17.3319 28.5248C17.6972 28.8902 17.6972 29.4848 17.3319 29.8503C16.9665 30.2157 16.3718 30.2157 16.0064 29.8503L11.3673 25.2112L12.6928 23.8857L17.3319 28.5248ZM14.0183 22.5603C14.3 22.2785 14.7217 21.847 15.3874 21.2785L16.0064 21.8976C16.3727 22.2639 16.3727 22.8567 16.0064 23.223L15.3437 23.8858L14.0183 22.5603ZM14.0581 19.9493L10.0019 15.8932C12.1756 13.3832 13.7323 10.4204 14.5651 7.20168L22.7495 15.3862C19.5308 16.2189 16.5681 17.7755 14.0581 19.9493ZM26.61 15.2704C26.2437 15.6366 25.6509 15.6366 25.2846 15.2704L14.6809 4.66669C14.3146 4.30031 14.3146 3.70756 14.6809 3.34125C15.0472 2.97494 15.6401 2.97494 16.0064 3.34125L26.61 13.9449C26.9754 14.3103 26.9754 14.9049 26.61 15.2704Z" fill="#75ABF3"/>
<path d="M9.37997 20.5721C9.01403 20.2061 8.42053 20.2061 8.05453 20.5721L6.72909 21.8975C6.36309 22.2635 6.36309 22.857 6.72909 23.223C7.09503 23.589 7.68859 23.589 8.05453 23.223L9.37997 21.8975C9.74597 21.5315 9.74597 20.9381 9.37997 20.5721Z" fill="#75ABF3"/>
<path d="M21.637 0C21.1193 0 20.6997 0.419624 20.6997 0.937248V2.81174C20.6997 3.32937 21.1193 3.74899 21.637 3.74899C22.1546 3.74899 22.5742 3.32937 22.5742 2.81174V0.937248C22.5742 0.419624 22.1546 0 21.637 0Z" fill="#75ABF3"/>
<path d="M29.135 7.49786H27.2605C26.7429 7.49786 26.3232 7.91749 26.3232 8.43511C26.3232 8.95274 26.7429 9.37236 27.2605 9.37236H29.135C29.6526 9.37236 30.0722 8.95274 30.0722 8.43511C30.0722 7.91749 29.6525 7.49786 29.135 7.49786Z" fill="#75ABF3"/>
<path d="M27.9227 2.14889C27.5567 1.78289 26.9632 1.78289 26.5972 2.14889L24.7227 4.02339C24.3567 4.38938 24.3567 4.98282 24.7227 5.34882C25.0887 5.71482 25.6822 5.71488 26.0482 5.34882L27.9227 3.47432C28.2887 3.10832 28.2887 2.51495 27.9227 2.14889Z" fill="#75ABF3"/>
</g>
<defs>
<clipPath id="clip0">
<rect width="32" height="32" fill="white"/>
</clipPath>
</defs>
</svg>
