<svg width="32" height="32" viewBox="0 0 32 32" fill="none" xmlns="http://www.w3.org/2000/svg">
<path d="M8.76611 23.7957C9.47192 23.0818 9.90845 22.1016 9.90845 21.0208C9.90845 18.8428 8.13647 17.0708 5.9585 17.0708C3.78027 17.0708 2.0083 18.8428 2.0083 21.0208C2.0083 22.1016 2.44482 23.0818 3.15063 23.7957C1.74512 24.5486 0 26.3027 0 29.0542V31.0625C0 31.5803 0.419678 32 0.9375 32H10.9792C11.4968 32 11.9167 31.5803 11.9167 31.0625V29.0542C11.9167 26.3032 10.1743 24.55 8.76611 23.7957ZM3.8833 21.0208C3.8833 19.8767 4.81421 18.9458 5.95825 18.9458C7.10254 18.9458 8.0332 19.8767 8.0332 21.0208C8.0332 22.165 7.10254 23.0957 5.95825 23.0957C4.81421 23.0957 3.8833 22.165 3.8833 21.0208ZM10.0417 30.125H1.875V29.0542C1.875 26.7988 3.69971 24.9709 5.95825 24.9709C8.21313 24.9709 10.0415 26.7954 10.0415 29.0542V30.125H10.0417Z" fill="#75ABF3"/>
<path d="M23.8357 8.28198C24.2317 7.78027 24.469 7.14771 24.469 6.46045C24.469 4.83618 23.1475 3.51465 21.5232 3.51465C19.8989 3.51465 18.5774 4.83618 18.5774 6.46045C18.5774 7.14673 18.814 7.77856 19.209 8.27979C17.6663 9.3999 17.5732 11.0081 17.5732 11.4802V12.9875C17.5732 13.5054 17.9929 13.925 18.5107 13.925H24.5356C25.0535 13.925 25.4731 13.5054 25.4731 12.9875V11.4812C25.4731 10.1665 24.8269 9.00049 23.8357 8.28198ZM21.5232 5.38965C22.1135 5.38965 22.594 5.86987 22.594 6.46045C22.594 7.05078 22.1135 7.53125 21.5232 7.53125C20.9329 7.53125 20.4524 7.05078 20.4524 6.46045C20.4524 5.86987 20.9326 5.38965 21.5232 5.38965ZM23.5981 12.05H19.4482V11.4802C19.4482 10.3367 20.3733 9.40625 21.5232 9.40625C22.6675 9.40625 23.5981 10.3372 23.5981 11.4812V12.05Z" fill="#75ABF3"/>
<path d="M28.552 0H14.4937C12.5925 0 11.0459 1.54663 11.0459 3.448V20.0166C11.0459 20.396 11.2742 20.7378 11.6245 20.8828C11.9512 21.0181 12.3604 20.9653 12.6462 20.6794L15.3843 17.9417H28.5522C29.4727 17.9417 30.3384 17.5833 30.9907 16.9316C31.6416 16.28 32 15.4143 32 14.4937V3.448C32 1.54663 30.4534 0 28.552 0ZM30.125 14.4937C30.125 14.9138 29.9614 15.3091 29.6648 15.6057C29.3716 15.8987 28.9661 16.0667 28.552 16.0667H14.9958C14.7471 16.0667 14.5088 16.1655 14.333 16.3413L12.9209 17.7534V3.448C12.9209 2.58057 13.6265 1.875 14.4937 1.875H28.5522C29.4194 1.875 30.125 2.58057 30.125 3.448V14.4937Z" fill="#75ABF3"/>
</svg>
