<svg width="40" height="40" viewBox="0 0 40 40" fill="none" xmlns="http://www.w3.org/2000/svg">
<g clip-path="url(#clip0)">
<path d="M39.3824 3.97339C38.8938 3.37585 38.162 3.04688 37.3215 3.04688C36.8647 3.04688 36.3807 3.14301 35.8832 3.33313L2.02399 16.2582C0.227114 16.944 -0.0148908 17.973 0.000673131 18.5254C0.0162371 19.0778 0.316225 20.0916 2.14911 20.6747C2.1601 20.6781 2.17108 20.6815 2.18207 20.6845L9.20539 22.6944L13.0036 33.5556C13.5215 35.0363 14.6839 35.9561 16.0377 35.9561C16.8912 35.9561 17.7308 35.5984 18.4656 34.9222L22.8098 30.9222L29.1108 35.9958C29.1114 35.9964 29.1123 35.9967 29.1129 35.9973L29.1727 36.0455C29.1782 36.0498 29.184 36.0544 29.1895 36.0587C29.8899 36.6019 30.6544 36.8887 31.4011 36.889H31.4014C32.8605 36.889 34.0223 35.809 34.3607 34.1379L39.9085 6.74408C40.1313 5.64453 39.9445 4.66064 39.3824 3.97339ZM11.5549 22.3126L25.105 15.3903L16.6678 24.3555C16.5296 24.5023 16.4316 24.682 16.3834 24.8776L14.7565 31.4676L11.5549 22.3126ZM16.8778 33.1979C16.8217 33.2495 16.7652 33.2956 16.7087 33.338L18.2181 27.2247L20.9638 29.4357L16.8778 33.1979ZM37.6115 6.27869L32.0637 33.6728C32.0103 33.9349 31.8397 34.545 31.4011 34.545C31.1844 34.545 30.9122 34.4269 30.6336 34.2123L23.4937 28.4634C23.4928 28.4625 23.4916 28.4616 23.4904 28.461L19.242 25.04L31.4432 12.0752C31.8339 11.6602 31.8693 11.0245 31.5272 10.5685C31.1848 10.1126 30.5643 9.96918 30.0568 10.2286L9.98908 20.4807L2.87024 18.4439L36.7191 5.52277C37.0051 5.41351 37.2047 5.39062 37.3215 5.39062C37.3932 5.39062 37.5208 5.39917 37.5681 5.45746C37.6304 5.53345 37.7097 5.79254 37.6115 6.27869Z" fill="white"/>
</g>
<defs>
<clipPath id="clip0">
<rect width="40" height="40" fill="white"/>
</clipPath>
</defs>
</svg>
