<svg width="26" height="26" viewBox="0 0 26 26" fill="none" xmlns="http://www.w3.org/2000/svg">
<g clip-path="url(#clip0)">
<path d="M19.1445 0H6.85547C3.07536 0 0 3.07536 0 6.85547V8.37891C0 9.63894 1.02512 10.6641 2.28516 10.6641H5.33203C6.59207 10.6641 7.61719 9.63894 7.61719 8.37891V6.85547C7.61719 6.43546 7.95889 6.09375 8.37891 6.09375H17.6211C18.0411 6.09375 18.3828 6.43546 18.3828 6.85547V8.37891C18.3828 9.63894 19.4079 10.6641 20.668 10.6641H23.7148C24.9749 10.6641 26 9.63894 26 8.37891V6.85547C26 3.07536 22.9246 0 19.1445 0ZM6.09375 8.37891C6.09375 8.79892 5.75204 9.14062 5.33203 9.14062H2.28516C1.86514 9.14062 1.52344 8.79892 1.52344 8.37891V7.61719H6.09375V8.37891ZM17.6211 4.57031H8.37891C7.38588 4.57031 6.5392 5.20721 6.22477 6.09375H1.57808C1.94883 3.51325 4.17402 1.52344 6.85547 1.52344H19.1445C21.826 1.52344 24.0512 3.51325 24.4219 6.09375H19.7752C19.4608 5.20721 18.6141 4.57031 17.6211 4.57031ZM24.4766 8.37891C24.4766 8.79892 24.1349 9.14062 23.7148 9.14062H20.668C20.248 9.14062 19.9062 8.79892 19.9062 8.37891V7.61719H24.4766V8.37891Z" fill="black"/>
<path d="M24.1857 21.3401C20.0364 11.2523 20.2853 11.8465 20.2415 11.7735C19.8309 11.0892 19.08 10.6641 18.282 10.6641H16.8594V9.90234C16.8594 8.64231 15.8343 7.61719 14.5742 7.61719H11.4258C10.1657 7.61719 9.14062 8.64231 9.14062 9.90234V10.6641H7.71804C6.73141 10.6641 5.92917 11.3359 5.70725 11.8757L1.81533 21.3374C1.62165 21.8032 1.52344 22.2952 1.52344 22.7996V23.7148C1.52344 24.9749 2.54856 26 3.80859 26H22.1914C23.4514 26 24.4766 24.9749 24.4766 23.7148V22.7996C24.4766 22.2951 24.3783 21.8031 24.1857 21.3401ZM10.6641 9.90234C10.6641 9.48233 11.0058 9.14063 11.4258 9.14063H14.5742C14.9942 9.14063 15.3359 9.48233 15.3359 9.90234V10.6641H10.6641V9.90234ZM22.9531 23.7148C22.9531 24.1349 22.6114 24.4766 22.1914 24.4766H3.80859C3.38858 24.4766 3.04688 24.1349 3.04688 23.7148V22.7996C3.04688 22.497 3.10578 22.2018 3.22309 21.9196L7.09054 12.5175C7.23161 12.3128 7.46784 12.1875 7.71804 12.1875C7.95224 12.1875 17.704 12.1875 18.282 12.1875C18.5322 12.1875 18.7684 12.3128 18.9095 12.5175L22.778 21.9223C22.8942 22.2018 22.9531 22.4969 22.9531 22.7996V23.7148Z" fill="black"/>
<path d="M13.0508 13.7109C10.5307 13.7109 8.48047 15.7612 8.48047 18.2812C8.48047 20.8013 10.5307 22.8516 13.0508 22.8516C15.5709 22.8516 17.6211 20.8013 17.6211 18.2812C17.6211 15.7612 15.5709 13.7109 13.0508 13.7109ZM13.0508 21.3281C11.3707 21.3281 10.0039 19.9613 10.0039 18.2812C10.0039 16.6012 11.3707 15.2344 13.0508 15.2344C14.7308 15.2344 16.0977 16.6012 16.0977 18.2812C16.0977 19.9613 14.7308 21.3281 13.0508 21.3281Z" fill="black"/>
<path d="M13.0508 16.7578C12.2108 16.7578 11.5273 17.4412 11.5273 18.2812C11.5273 19.1213 12.2108 19.8047 13.0508 19.8047C13.8908 19.8047 14.5742 19.1213 14.5742 18.2812C14.5742 17.4412 13.8908 16.7578 13.0508 16.7578Z" fill="black"/>
</g>
<defs>
<clipPath id="clip0">
<rect width="26" height="26" fill="white"/>
</clipPath>
</defs>
</svg>
