<svg width="60" height="60" viewBox="0 0 60 60" fill="none" xmlns="http://www.w3.org/2000/svg">
<g clip-path="url(#clip0)">
<path d="M54.7266 10.6638H30.6953L38.2809 2.99356C38.9635 2.30371 38.9575 1.19043 38.2672 0.507901C37.5769 -0.175082 36.4641 -0.168673 35.7816 0.521634L26.4844 9.92181L17.1872 0.521634C16.5047 -0.168673 15.3918 -0.174624 14.7015 0.507901C14.0112 1.19043 14.0053 2.30371 14.6878 2.99356L22.2734 10.6638H5.27344C2.36572 10.6638 0 13.0296 0 15.9373V51.2107C0 54.1184 2.36572 56.4842 5.27344 56.4842H8.17841L7.66342 56.9991C6.97678 57.6853 6.97678 58.7986 7.66342 59.4848C8.00629 59.8281 8.45627 59.9998 8.90625 59.9998C9.35623 59.9998 9.80621 59.8281 10.1491 59.4848L13.1502 56.4842H46.9675L49.9681 59.4848C50.311 59.8281 50.761 59.9998 51.2109 59.9998C51.6609 59.9998 52.1109 59.8281 52.4538 59.4848C53.1404 58.7986 53.1404 57.6858 52.4538 56.9991L51.9392 56.4842H54.7266C57.6343 56.4842 60 54.1184 60 51.2107V15.9373C60 13.0296 57.6343 10.6638 54.7266 10.6638ZM56.4844 51.2107C56.4844 52.1798 55.6956 52.9685 54.7266 52.9685H5.27344C4.30435 52.9685 3.51562 52.1798 3.51562 51.2107V15.9373C3.51562 14.9682 4.30435 14.1795 5.27344 14.1795H54.7266C55.6956 14.1795 56.4844 14.9682 56.4844 15.9373V51.2107Z" fill="#4F4F4F"/>
<path d="M37.0312 17.6953H12.4219C9.51416 17.6953 7.14844 20.061 7.14844 22.9688V44.0625C7.14844 46.9702 9.51416 49.3359 12.4219 49.3359H37.0312C39.939 49.3359 42.3047 46.9702 42.3047 44.0625V22.9688C42.3047 20.061 39.939 17.6953 37.0312 17.6953ZM38.7891 44.0625C38.7891 45.0316 38.0003 45.8203 37.0312 45.8203H12.4219C11.4528 45.8203 10.6641 45.0316 10.6641 44.0625V22.9688C10.6641 21.9997 11.4528 21.2109 12.4219 21.2109H37.0312C38.0003 21.2109 38.7891 21.9997 38.7891 22.9688V44.0625Z" fill="#4F4F4F"/>
<path d="M49.4531 19.4531C47.5145 19.4531 45.9375 21.0301 45.9375 22.9688C45.9375 24.9074 47.5145 26.4844 49.4531 26.4844C51.3918 26.4844 52.9688 24.9074 52.9688 22.9688C52.9688 21.0301 51.3918 19.4531 49.4531 19.4531Z" fill="#4F4F4F"/>
<path d="M51.2109 30H47.6953C46.7244 30 45.9375 30.7869 45.9375 31.7578C45.9375 32.7287 46.7244 33.5156 47.6953 33.5156H51.2109C52.1819 33.5156 52.9688 32.7287 52.9688 31.7578C52.9688 30.7869 52.1819 30 51.2109 30Z" fill="#4F4F4F"/>
<path d="M51.2109 37.0312H47.6953C46.7244 37.0312 45.9375 37.8181 45.9375 38.7891C45.9375 39.76 46.7244 40.5469 47.6953 40.5469H51.2109C52.1819 40.5469 52.9688 39.76 52.9688 38.7891C52.9688 37.8181 52.1819 37.0312 51.2109 37.0312Z" fill="#4F4F4F"/>
<path d="M51.2109 44.0625H47.6953C46.7244 44.0625 45.9375 44.8494 45.9375 45.8203C45.9375 46.7912 46.7244 47.5781 47.6953 47.5781H51.2109C52.1819 47.5781 52.9688 46.7912 52.9688 45.8203C52.9688 44.8494 52.1819 44.0625 51.2109 44.0625Z" fill="#4F4F4F"/>
</g>
<defs>
<clipPath id="clip0">
<rect width="60" height="60" fill="white"/>
</clipPath>
</defs>
</svg>
