<svg width="60" height="60" viewBox="0 0 60 60" fill="none" xmlns="http://www.w3.org/2000/svg">
<path d="M34.7568 29.0822C33.4862 27.8115 31.7968 27.1118 30 27.1118C28.2031 27.1118 26.5138 27.8115 25.2431 29.0822C23.9724 30.3528 23.2727 32.0422 23.2727 33.8391C23.2727 35.636 23.9724 37.3253 25.243 38.596C26.06 39.413 27.0507 39.9925 28.1313 40.3031V58.1313C28.1313 59.1633 28.9679 60 30 60C31.0319 60 31.8686 59.1634 31.8686 58.1313V40.3031C32.9492 39.9925 33.9398 39.4131 34.7568 38.596C36.0275 37.3254 36.7272 35.636 36.7272 33.8391C36.7272 32.0422 36.0275 30.3528 34.7568 29.0822ZM32.1143 35.9533C31.5495 36.518 30.7987 36.829 30.0001 36.829C29.2015 36.829 28.4506 36.518 27.8858 35.9533C27.3209 35.3885 27.01 34.6376 27.01 33.839C27.01 33.0403 27.3211 32.2895 27.8858 31.7247C28.4505 31.1599 29.2013 30.8489 30 30.8489C30.7986 30.8489 31.5494 31.1599 32.1141 31.7247C32.6789 32.2894 32.9899 33.0403 32.9899 33.839C32.9899 34.6376 32.6791 35.3885 32.1143 35.9533Z" fill="#4F4F4F"/>
<path d="M40.674 23.1649C37.823 20.3136 34.0322 18.7435 30 18.7435C25.9678 18.7435 22.1769 20.3136 19.3259 23.1649C18.5961 23.8945 18.5961 25.0777 19.3259 25.8075C20.0555 26.5371 21.2387 26.5371 21.9684 25.8075C24.1138 23.6621 26.9661 22.4808 30 22.4808C33.0339 22.4808 35.8862 23.6622 38.0316 25.8075C38.3965 26.1725 38.8746 26.3549 39.3529 26.3549C39.831 26.3549 40.3093 26.1724 40.6742 25.8075C41.4038 25.0779 41.4038 23.8946 40.674 23.1649Z" fill="#4F4F4F"/>
<path d="M47.4632 16.3755C42.7987 11.7109 36.5967 9.14191 29.9998 9.14191C23.403 9.14191 17.2011 11.7109 12.5363 16.3755C11.8066 17.1051 11.8066 18.2884 12.5363 19.0181C13.2659 19.7477 14.4492 19.7477 15.1789 19.0181C19.1377 15.0594 24.4012 12.8791 29.9998 12.8791C35.5985 12.8791 40.8618 15.0594 44.8208 19.0181C45.1857 19.3832 45.6638 19.5655 46.1421 19.5655C46.6202 19.5655 47.0985 19.383 47.4633 19.0181C48.193 18.2885 48.193 17.1054 47.4632 16.3755Z" fill="#4F4F4F"/>
<path d="M53.9279 9.91125C47.5365 3.51984 39.0388 0 30 0C20.9612 0 12.4636 3.51984 6.0722 9.91125C5.34247 10.6409 5.34247 11.8241 6.0722 12.5538C6.80192 13.2836 7.98517 13.2836 8.71477 12.5538C20.4516 0.817266 39.5484 0.817266 51.2852 12.5538C51.6502 12.9187 52.1284 13.1012 52.6065 13.1012C53.0847 13.1012 53.563 12.9187 53.9278 12.5538C54.6575 11.8241 54.6575 10.6409 53.9279 9.91125Z" fill="#4F4F4F"/>
</svg>
