<?xml version="1.0" encoding="utf-8"?><svg xmlns="http://www.w3.org/2000/svg" xmlns:xlink="http://www.w3.org/1999/xlink"><symbol viewBox="0 0 30 10" id="arrow-left" xmlns="http://www.w3.org/2000/svg"><path d="M3.92.908a.424.424 0 01.604 0 .427.427 0 010 .599L1.458 4.573h28.119c.235 0 .423.188.423.424s-.188.43-.423.43H1.457l3.067 3.06a.434.434 0 010 .605.424.424 0 01-.605 0L.127 5.3a.416.416 0 010-.599L3.919.908z"/></symbol><symbol viewBox="0 0 30 10" id="arrow-right" xmlns="http://www.w3.org/2000/svg"><path d="M26.08.908a.424.424 0 00-.604 0 .427.427 0 000 .599l3.066 3.066H.423A.421.421 0 000 4.997c0 .236.187.43.423.43h28.12l-3.067 3.06a.434.434 0 000 .605c.17.17.442.17.605 0L29.873 5.3a.416.416 0 000-.599L26.081.908z"/></symbol><symbol viewBox="0 0 8 18" id="arrow-top" xmlns="http://www.w3.org/2000/svg"><path d="M3.646.646a.5.5 0 01.708 0l3.182 3.182a.5.5 0 11-.708.708L4 1.707 1.172 4.536a.5.5 0 11-.708-.708L3.646.646zM3.5 18V1h1v17h-1z"/></symbol><symbol fill="none" viewBox="0 0 19 19" id="badge" xmlns="http://www.w3.org/2000/svg"><path d="M1.429 8.871h0L9.261 1.04 1.429 8.87zm0 0a1.982 1.982 0 000 2.8l.106-.105M1.429 8.87l.106 2.695m0 0l-.106.105 5.9 5.9c.373.373.871.579 1.4.579h0m-7.194-6.584l7.194 6.584m0 0h0c.53 0 1.028-.205 1.4-.578l7.832-7.832a.648.648 0 00.19-.458V2.83c0-1.092-.888-1.98-1.98-1.98H9.719m-.99 17.3L9.72.85m0 0a.648.648 0 00-.458.19L9.72.85zm-.506 15.805h0a.677.677 0 01-.484.199.677.677 0 01-.483-.199l-.106.106.106-.106-5.9-5.9a.685.685 0 010-.967s0 0 0 0l7.641-7.642h6.184c.377 0 .684.307.684.684v6.184l-7.642 7.641z" fill="#5E5E5E" stroke="#5E5E5E" stroke-width=".3"/><path d="M13.144 3.43c-.65 0-1.259.252-1.718.711a2.412 2.412 0 00-.711 1.717c0 .65.252 1.259.711 1.718a2.413 2.413 0 001.718.711c.648 0 1.258-.253 1.717-.711a2.413 2.413 0 00.711-1.718c0-.648-.252-1.258-.71-1.717a2.413 2.413 0 00-1.718-.711zm.624 3.053a.877.877 0 01-.624.258.876.876 0 01-.625-.258.877.877 0 01-.258-.625.88.88 0 01.258-.624.877.877 0 01.625-.258c.235 0 .457.091.624.258a.877.877 0 01.258.624.878.878 0 01-.258.625z" fill="#5E5E5E"/></symbol><symbol fill="none" viewBox="0 0 18 19" id="calendar" xmlns="http://www.w3.org/2000/svg"><path d="M14.58 2.637H2.696C1.76 2.637 1 3.369 1 4.273v11.455c0 .903.76 1.636 1.697 1.636H14.58c.938 0 1.698-.733 1.698-1.636V4.273c0-.904-.76-1.636-1.698-1.636zM12.035 1v3.273M5.242 1v3.273M1 7.547h15.277" stroke="#000" stroke-width="1.5" stroke-linecap="round" stroke-linejoin="round"/></symbol><symbol viewBox="0 0 16 16" id="checkbox" xmlns="http://www.w3.org/2000/svg"><path fill-rule="evenodd" clip-rule="evenodd" d="M8 0H0v16h16V8h-2v6H2V2h6V0z"/><path d="M12.472 2.973l-5 4.999-1.944-1.943L4 7.557l3.472 3.471L14 4.501l-1.528-1.528z"/></symbol><symbol viewBox="0 0 8 8" id="close" xmlns="http://www.w3.org/2000/svg"><path d="M8 .8L7.2 0 4 3.2.8 0 0 .8 3.2 4 0 7.2l.8.8L4 4.8 7.2 8l.8-.8L4.8 4 8 .8z"/></symbol><symbol fill="none" viewBox="0 0 12 12" id="cross" xmlns="http://www.w3.org/2000/svg"><path d="M11.172.142a.485.485 0 11.686.685L6.686 6l5.172 5.172a.485.485 0 11-.686.686L6 6.686.828 11.858a.483.483 0 01-.686 0 .485.485 0 010-.686L5.314 6 .142.827A.485.485 0 11.827.142L6 5.314 11.172.142z" fill="#000"/></symbol><symbol fill="none" viewBox="0 0 40 40" id="doc" xmlns="http://www.w3.org/2000/svg"><path stroke="#000" d="M5.5.5h29v39h-29z"/><path fill="#000" d="M17 16h13v1H17zm-6 4h19v1H11zm0 4h19v1H11zm0 4h19v1H11zm0 4h8v1h-8zm3.031-21.182L13.006 6.76l-1.038 4.06a8.91 8.91 0 01-.193.661.872.872 0 01-.248.36.68.68 0 01-.472.16.74.74 0 01-.391-.095.71.71 0 01-.25-.268 1.759 1.759 0 01-.155-.41c-.04-.159-.076-.306-.108-.441L9.095 6.228A2.853 2.853 0 019 5.623c0-.175.058-.323.173-.443A.57.57 0 019.602 5c.233 0 .39.08.471.24.08.16.152.393.212.698l.83 3.952.931-3.699a6.36 6.36 0 01.186-.646.93.93 0 01.269-.383c.123-.108.292-.162.506-.162.216 0 .384.056.504.168a.92.92 0 01.248.368c.046.132.109.35.186.655l.94 3.7.83-3.953c.04-.206.079-.368.114-.485a.792.792 0 01.186-.314c.088-.092.216-.139.383-.139.168 0 .31.06.427.178a.609.609 0 01.175.445c0 .126-.032.328-.095.605l-1.056 4.558a8.493 8.493 0 01-.18.676.897.897 0 01-.242.376c-.113.108-.274.162-.482.162a.683.683 0 01-.472-.157.846.846 0 01-.246-.353 9.96 9.96 0 01-.196-.672z"/></symbol><symbol viewBox="0 0 8 12" id="expand-right" xmlns="http://www.w3.org/2000/svg"><path d="M1.7 0L.3 1.4 4.9 6 .3 10.6 1.7 12l6-6-6-6z"/></symbol><symbol fill="none" viewBox="0 0 12 8" id="expand-top" xmlns="http://www.w3.org/2000/svg"><path d="M12 6.3l-1.4 1.4L6 3.1 1.4 7.7 0 6.3l6-6 6 6z" fill="#000"/></symbol><symbol fill="none" viewBox="0 0 23 14" id="eye" xmlns="http://www.w3.org/2000/svg"><path opacity=".7" d="M22.743 6.162c-1.198-1.856-2.809-3.347-4.832-4.473C15.887.563 13.75 0 11.5 0S7.113.563 5.089 1.69C3.065 2.814 1.455 4.305.257 6.161A1.617 1.617 0 000 7c0 .276.086.555.257.839 1.198 1.855 2.808 3.346 4.832 4.472C7.113 13.437 9.249 14 11.5 14c2.25 0 4.387-.56 6.41-1.683 2.024-1.122 3.636-2.615 4.833-4.478A1.61 1.61 0 0023 7c0-.275-.085-.555-.257-.838zM8.747 2.838C9.513 2.113 10.43 1.75 11.5 1.75c.17 0 .316.057.436.17.12.114.18.251.18.413 0 .163-.06.3-.18.413a.611.611 0 01-.436.17c-.736 0-1.365.248-1.887.742s-.783 1.09-.783 1.787c0 .162-.06.3-.18.413a.611.611 0 01-.436.17.612.612 0 01-.436-.17.548.548 0 01-.18-.413c0-1.013.383-1.882 1.149-2.607zm8.33 8.13a11.018 11.018 0 01-5.577 1.477c-2.002 0-3.861-.492-5.577-1.477A12.943 12.943 0 011.643 7c1.3-1.912 2.93-3.342 4.89-4.29a5.098 5.098 0 00-.783 2.735c0 1.499.563 2.78 1.688 3.846 1.125 1.066 2.48 1.598 4.062 1.598 1.583 0 2.937-.533 4.062-1.598 1.126-1.065 1.688-2.347 1.688-3.846 0-.98-.261-1.892-.783-2.735 1.96.948 3.59 2.378 4.89 4.29a12.94 12.94 0 01-4.28 3.968z" fill="#000"/></symbol><symbol fill="none" viewBox="0 0 16 16" id="file-pdf" xmlns="http://www.w3.org/2000/svg"><path d="M11.5 8h-2a.5.5 0 00-.5.5v4a.5.5 0 00.5.5h2a1 1 0 001-1V9a1 1 0 00-1-1zm0 4H10V9h1.5v3zM16 9V8h-2.5a.5.5 0 00-.5.5V13h1v-2h2v-1h-2V9h2z" fill="#000"/><path d="M1 14.5v-13a.5.5 0 01.5-.5H9v2a1 1 0 001 1h2v1.5h1v-2a.5.5 0 00-.145-.355l-3-3A.5.5 0 009.5 0h-8A1.5 1.5 0 000 1.5v13A1.5 1.5 0 001.5 16H5v-1H1.5a.5.5 0 01-.5-.5z" fill="#000"/><path d="M7.5 8h-2a.5.5 0 00-.5.5V13h1v-1.5h1.5a1 1 0 001-1V9a1 1 0 00-1-1zm0 2.5H6V9h1.5v1.5z" fill="#000"/></symbol><symbol fill="none" viewBox="0 0 46 46" id="icon-badge" xmlns="http://www.w3.org/2000/svg"><path d="M45.5 21.024V.5H24.976L.707 24.77l20.524 20.523L45.5 21.023zM41.192 9.908c0 1.226-.609 2.412-1.527 3.282-.921.873-2.19 1.464-3.573 1.464-2.372 0-4.746-1.967-4.746-4.746 0-1.416.71-2.608 1.68-3.433.967-.822 2.23-1.313 3.42-1.313 1.224 0 2.407.607 3.273 1.473.866.866 1.473 2.049 1.473 3.273z" stroke="#000"/></symbol><symbol fill="none" viewBox="0 0 48 48" id="icon-diagram" xmlns="http://www.w3.org/2000/svg"><path fill="#000" d="M1 40h1v8H1zm9-8h1v16h-1zm9-8h1v24h-1zm9-8h1v32h-1zm9-8h1v40h-1zm9-8h1v48h-1z"/></symbol><symbol viewBox="0 0 16 16" id="info" xmlns="http://www.w3.org/2000/svg"><path d="M8 0C3.589 0 0 3.589 0 8s3.589 8 8 8 8-3.589 8-8-3.589-8-8-8zm0 15.015A7.023 7.023 0 01.985 8 7.023 7.023 0 018 .985 7.023 7.023 0 0115.015 8 7.023 7.023 0 018 15.015z"/><path d="M8.126 5.635a.823.823 0 100-1.647.823.823 0 000 1.647zM7.91 6.977a.492.492 0 00-.492.492v4.184a.493.493 0 00.985 0V7.47a.492.492 0 00-.493-.492z"/></symbol><symbol viewBox="0 0 16 21" id="location" xmlns="http://www.w3.org/2000/svg"><path d="M8.088 18.632l4.88-7.935-4.88 7.935zm0 0l-5.01-7.859a5.511 5.511 0 01-.87-2.958C2.209 4.712 4.81 2.178 8 2.178s5.787 2.534 5.787 5.637a5.511 5.511 0 01-.818 2.882l-4.881 7.935zm-6.085-7.207h0l5.556 8.718c.116.182.32.292.538.292h.005a.636.636 0 00.538-.3l5.415-8.802h0a6.72 6.72 0 00.995-3.518C15.05 4.028 11.886.95 8 .95 4.114.95.95 4.028.95 7.815c0 1.28.364 2.527 1.053 3.61z" stroke="#000" stroke-width=".1"/><path d="M7.992 4.36c-1.956 0-3.55 1.55-3.55 3.458 0 1.895 1.568 3.457 3.55 3.457 2.007 0 3.55-1.583 3.55-3.457 0-1.908-1.594-3.458-3.55-3.458zm0 5.687c-1.267 0-2.29-1.002-2.29-2.23 0-1.223 1.03-2.229 2.29-2.229s2.287 1.006 2.287 2.23c0 1.209-1 2.229-2.287 2.229z" stroke="#000" stroke-width=".1"/></symbol><symbol fill="none" viewBox="0 0 16 16" id="loop" xmlns="http://www.w3.org/2000/svg"><g clip-path="url(#rclip0)"><path d="M15.862 15.184l-3.888-3.888a6.795 6.795 0 001.674-4.474A6.83 6.83 0 006.826 0 6.83 6.83 0 00.004 6.822c0 3.76 3.062 6.822 6.822 6.822 1.71 0 3.275-.631 4.474-1.674l3.888 3.888a.482.482 0 00.337.142.48.48 0 00.337-.816zM.958 6.822A5.87 5.87 0 016.823.958a5.87 5.87 0 015.864 5.864c0 3.232-2.629 5.868-5.864 5.868A5.874 5.874 0 01.958 6.822z" fill="#000"/></g><defs><clipPath id="rclip0"><path fill="#fff" d="M0 0h16v16H0z"/></clipPath></defs></symbol><symbol viewBox="0 0 24 11" id="menu-burger" xmlns="http://www.w3.org/2000/svg"><path d="M4 0h20v1H4zM2 5h20v1H2zm-2 5h20v1H0z"/></symbol><symbol fill="none" viewBox="0 0 37 37" id="play" xmlns="http://www.w3.org/2000/svg"><path d="M17.108 33.27a1 1 0 01-1.608-.794V3.996a1 1 0 011.608-.793l18.617 14.24a1 1 0 010 1.588L17.108 33.27z" fill="#fff"/></symbol><symbol fill="none" viewBox="0 0 48 48" id="popup-cross" xmlns="http://www.w3.org/2000/svg"><path d="M0 0h48v48L0 0z" fill="#000"/><g clip-path="url(#uclip0)"><path d="M33.427 13.96l-5.311 5.311a.378.378 0 00.534.534L34 14.454l5.352 5.351a.376.376 0 00.534 0 .378.378 0 000-.534l-5.312-5.311 5.315-5.315a.378.378 0 00-.534-.535L34 13.466l-5.355-5.355a.378.378 0 00-.534.534l5.315 5.315z" fill="#fff"/></g><defs><clipPath id="uclip0"><path fill="#fff" d="M28 8h12v12H28z"/></clipPath></defs></symbol><symbol fill="none" viewBox="0 0 20 16" id="settings" xmlns="http://www.w3.org/2000/svg"><mask id="va" fill="#fff"><path fill-rule="evenodd" clip-rule="evenodd" d="M16.732 1H19a1 1 0 110 2h-2.268a2 2 0 01-3.464 0H1a1 1 0 010-2h12.268a2 2 0 013.464 0z"/></mask><path fill-rule="evenodd" clip-rule="evenodd" d="M16.732 1H19a1 1 0 110 2h-2.268a2 2 0 01-3.464 0H1a1 1 0 010-2h12.268a2 2 0 013.464 0z" fill="#000"/><path d="M16.732 1l-.26.15.087.15h.173V1zm0 2v-.3h-.173l-.086.15.26.15zm-3.464 0l.26-.15-.087-.15h-.173V3zm0-2v.3h.173l.086-.15-.26-.15zm3.464.3H19V.7h-2.268v.6zM19 1.3a.7.7 0 01.7.7h.6A1.3 1.3 0 0019 .7v.6zm.7.7a.7.7 0 01-.7.7v.6A1.3 1.3 0 0020.3 2h-.6zm-.7.7h-2.268v.6H19v-.6zm-2.527.15A1.7 1.7 0 0115 3.7v.6a2.3 2.3 0 001.992-1.15l-.52-.3zM15 3.7a1.7 1.7 0 01-1.473-.85l-.52.3A2.3 2.3 0 0015 4.3v-.6zm-1.732-1H1v.6h12.268v-.6zM1 2.7A.7.7 0 01.3 2h-.6A1.3 1.3 0 001 3.3v-.6zM.3 2a.7.7 0 01.7-.7V.7A1.3 1.3 0 00-.3 2h.6zm.7-.7h12.268V.7H1v.6zm12.527-.15A1.7 1.7 0 0115 .3v-.6A2.3 2.3 0 0013.008.85l.52.3zM15 .3a1.7 1.7 0 011.473.85l.52-.3A2.3 2.3 0 0015-.3v.6z" fill="#fff" mask="url(#va)"/><mask id="vb" fill="#fff"><path fill-rule="evenodd" clip-rule="evenodd" d="M11.732 7H19a1 1 0 110 2h-7.268a2 2 0 01-3.464 0H1a1 1 0 010-2h7.268a2 2 0 013.464 0z"/></mask><path fill-rule="evenodd" clip-rule="evenodd" d="M11.732 7H19a1 1 0 110 2h-7.268a2 2 0 01-3.464 0H1a1 1 0 010-2h7.268a2 2 0 013.464 0z" fill="#000"/><path d="M11.732 7l-.26.15.087.15h.173V7zm0 2v-.3h-.173l-.086.15.26.15zM8.268 9l.26-.15-.087-.15h-.173V9zm0-2v.3h.173l.086-.15-.26-.15zm3.464.3H19v-.6h-7.268v.6zM19 7.3a.7.7 0 01.7.7h.6A1.3 1.3 0 0019 6.7v.6zm.7.7a.7.7 0 01-.7.7v.6A1.3 1.3 0 0020.3 8h-.6zm-.7.7h-7.268v.6H19v-.6zm-7.527.15A1.7 1.7 0 0110 9.7v.6a2.3 2.3 0 001.992-1.15l-.52-.3zM10 9.7a1.7 1.7 0 01-1.473-.85l-.52.3A2.3 2.3 0 0010 10.3v-.6zm-1.732-1H1v.6h7.268v-.6zM1 8.7A.7.7 0 01.3 8h-.6A1.3 1.3 0 001 9.3v-.6zM.3 8a.7.7 0 01.7-.7v-.6A1.3 1.3 0 00-.3 8h.6zm.7-.7h7.268v-.6H1v.6zm7.527-.15A1.7 1.7 0 0110 6.3v-.6a2.3 2.3 0 00-1.992 1.15l.52.3zM10 6.3a1.7 1.7 0 011.473.85l.52-.3A2.3 2.3 0 0010 5.7v.6z" fill="#fff" mask="url(#vb)"/><mask id="vc" fill="#fff"><path fill-rule="evenodd" clip-rule="evenodd" d="M16.732 13H19a1 1 0 110 2h-2.268a2 2 0 01-3.464 0H1a1 1 0 110-2h12.268a2 2 0 013.464 0z"/></mask><path fill-rule="evenodd" clip-rule="evenodd" d="M16.732 13H19a1 1 0 110 2h-2.268a2 2 0 01-3.464 0H1a1 1 0 110-2h12.268a2 2 0 013.464 0z" fill="#000"/><path d="M16.732 13l-.26.15.087.15h.173V13zm0 2v-.3h-.173l-.086.15.26.15zm-3.464 0l.26-.15-.087-.15h-.173v.3zm0-2v.3h.173l.086-.15-.26-.15zm3.464.3H19v-.6h-2.268v.6zm2.268 0a.7.7 0 01.7.7h.6a1.3 1.3 0 00-1.3-1.3v.6zm.7.7a.7.7 0 01-.7.7v.6a1.3 1.3 0 001.3-1.3h-.6zm-.7.7h-2.268v.6H19v-.6zm-2.527.15A1.7 1.7 0 0115 15.7v.6a2.3 2.3 0 001.992-1.15l-.52-.3zM15 15.7a1.7 1.7 0 01-1.473-.85l-.52.3A2.3 2.3 0 0015 16.3v-.6zm-1.732-1H1v.6h12.268v-.6zM1 14.7a.7.7 0 01-.7-.7h-.6A1.3 1.3 0 001 15.3v-.6zM.3 14a.7.7 0 01.7-.7v-.6A1.3 1.3 0 00-.3 14h.6zm.7-.7h12.268v-.6H1v.6zm12.527-.15A1.7 1.7 0 0115 12.3v-.6a2.3 2.3 0 00-1.992 1.15l.52.3zM15 12.3a1.7 1.7 0 011.473.85l.52-.3A2.3 2.3 0 0015 11.7v.6z" fill="#fff" mask="url(#vc)"/></symbol><symbol fill="none" viewBox="0 0 20 16" id="settings-icon" xmlns="http://www.w3.org/2000/svg"><mask id="wa" fill="#fff"><path fill-rule="evenodd" clip-rule="evenodd" d="M16.732 1H19a1 1 0 110 2h-2.268a2 2 0 01-3.464 0H1a1 1 0 010-2h12.268a2 2 0 013.464 0z"/></mask><path fill-rule="evenodd" clip-rule="evenodd" d="M16.732 1H19a1 1 0 110 2h-2.268a2 2 0 01-3.464 0H1a1 1 0 010-2h12.268a2 2 0 013.464 0z" fill="#000"/><path d="M16.732 1l-.26.15.087.15h.173V1zm0 2v-.3h-.173l-.086.15.26.15zm-3.464 0l.26-.15-.087-.15h-.173V3zm0-2v.3h.173l.086-.15-.26-.15zm3.464.3H19V.7h-2.268v.6zM19 1.3a.7.7 0 01.7.7h.6A1.3 1.3 0 0019 .7v.6zm.7.7a.7.7 0 01-.7.7v.6A1.3 1.3 0 0020.3 2h-.6zm-.7.7h-2.268v.6H19v-.6zm-2.527.15A1.7 1.7 0 0115 3.7v.6a2.3 2.3 0 001.992-1.15l-.52-.3zM15 3.7a1.7 1.7 0 01-1.473-.85l-.52.3A2.3 2.3 0 0015 4.3v-.6zm-1.732-1H1v.6h12.268v-.6zM1 2.7A.7.7 0 01.3 2h-.6A1.3 1.3 0 001 3.3v-.6zM.3 2a.7.7 0 01.7-.7V.7A1.3 1.3 0 00-.3 2h.6zm.7-.7h12.268V.7H1v.6zm12.527-.15A1.7 1.7 0 0115 .3v-.6A2.3 2.3 0 0013.008.85l.52.3zM15 .3a1.7 1.7 0 011.473.85l.52-.3A2.3 2.3 0 0015-.3v.6z" fill="#fff" mask="url(#wa)"/><mask id="wb" fill="#fff"><path fill-rule="evenodd" clip-rule="evenodd" d="M11.732 7H19a1 1 0 110 2h-7.268a2 2 0 01-3.464 0H1a1 1 0 010-2h7.268a2 2 0 013.464 0z"/></mask><path fill-rule="evenodd" clip-rule="evenodd" d="M11.732 7H19a1 1 0 110 2h-7.268a2 2 0 01-3.464 0H1a1 1 0 010-2h7.268a2 2 0 013.464 0z" fill="#000"/><path d="M11.732 7l-.26.15.087.15h.173V7zm0 2v-.3h-.173l-.086.15.26.15zM8.268 9l.26-.15-.087-.15h-.173V9zm0-2v.3h.173l.086-.15-.26-.15zm3.464.3H19v-.6h-7.268v.6zM19 7.3a.7.7 0 01.7.7h.6A1.3 1.3 0 0019 6.7v.6zm.7.7a.7.7 0 01-.7.7v.6A1.3 1.3 0 0020.3 8h-.6zm-.7.7h-7.268v.6H19v-.6zm-7.527.15A1.7 1.7 0 0110 9.7v.6a2.3 2.3 0 001.992-1.15l-.52-.3zM10 9.7a1.7 1.7 0 01-1.473-.85l-.52.3A2.3 2.3 0 0010 10.3v-.6zm-1.732-1H1v.6h7.268v-.6zM1 8.7A.7.7 0 01.3 8h-.6A1.3 1.3 0 001 9.3v-.6zM.3 8a.7.7 0 01.7-.7v-.6A1.3 1.3 0 00-.3 8h.6zm.7-.7h7.268v-.6H1v.6zm7.527-.15A1.7 1.7 0 0110 6.3v-.6a2.3 2.3 0 00-1.992 1.15l.52.3zM10 6.3a1.7 1.7 0 011.473.85l.52-.3A2.3 2.3 0 0010 5.7v.6z" fill="#fff" mask="url(#wb)"/><mask id="wc" fill="#fff"><path fill-rule="evenodd" clip-rule="evenodd" d="M16.732 13H19a1 1 0 110 2h-2.268a2 2 0 01-3.464 0H1a1 1 0 110-2h12.268a2 2 0 013.464 0z"/></mask><path fill-rule="evenodd" clip-rule="evenodd" d="M16.732 13H19a1 1 0 110 2h-2.268a2 2 0 01-3.464 0H1a1 1 0 110-2h12.268a2 2 0 013.464 0z" fill="#000"/><path d="M16.732 13l-.26.15.087.15h.173V13zm0 2v-.3h-.173l-.086.15.26.15zm-3.464 0l.26-.15-.087-.15h-.173v.3zm0-2v.3h.173l.086-.15-.26-.15zm3.464.3H19v-.6h-2.268v.6zm2.268 0a.7.7 0 01.7.7h.6a1.3 1.3 0 00-1.3-1.3v.6zm.7.7a.7.7 0 01-.7.7v.6a1.3 1.3 0 001.3-1.3h-.6zm-.7.7h-2.268v.6H19v-.6zm-2.527.15A1.7 1.7 0 0115 15.7v.6a2.3 2.3 0 001.992-1.15l-.52-.3zM15 15.7a1.7 1.7 0 01-1.473-.85l-.52.3A2.3 2.3 0 0015 16.3v-.6zm-1.732-1H1v.6h12.268v-.6zM1 14.7a.7.7 0 01-.7-.7h-.6A1.3 1.3 0 001 15.3v-.6zM.3 14a.7.7 0 01.7-.7v-.6A1.3 1.3 0 00-.3 14h.6zm.7-.7h12.268v-.6H1v.6zm12.527-.15A1.7 1.7 0 0115 12.3v-.6a2.3 2.3 0 00-1.992 1.15l.52.3zM15 12.3a1.7 1.7 0 011.473.85l.52-.3A2.3 2.3 0 0015 11.7v.6z" fill="#fff" mask="url(#wc)"/></symbol><symbol fill="none" viewBox="0 0 31 30" id="show-type-icon" xmlns="http://www.w3.org/2000/svg"><path fill-rule="evenodd" clip-rule="evenodd" d="M0 0h7.5v7.5H0V0zm11 0h7.5v7.5H11V0zm19.5 0H23v7.5h7.5V0zM0 11h7.5v7.5H0V11zm18.5 0H11v7.5h7.5V11zm4.5 0h7.5v7.5H23V11zM7.5 22H0v7.5h7.5V22zm3.5 0h7.5v7.5H11V22zm19.5 0H23v7.5h7.5V22z" fill="#000"/></symbol><symbol fill="none" viewBox="0 0 33 30" id="show-type2-icon" xmlns="http://www.w3.org/2000/svg"><path fill-rule="evenodd" clip-rule="evenodd" d="M7.5 0H0v7.5h7.5V0zm24.75 0H11v7.5h21.25V0zM0 11h7.5v7.5H0V11zm32.25 0H11v7.5h21.25V11zM0 22h7.5v7.5H0V22zm32.25 0H11v7.5h21.25V22z" fill="#000"/></symbol><symbol viewBox="0 0 18 18" id="tel" xmlns="http://www.w3.org/2000/svg"><path d="M10.181 12.352a24.094 24.094 0 00-.072-.037 3.757 3.757 0 01-.365-.202m.437.239l-3.633-3.15c.994 1.227 2.042 2.178 3.196 2.911m.437.239c.133.066.256.13.365.199l-.365-.2zm-.437-.239l-.082.126s0 0 0 0m.082-.126l-.08.127h-.002m0 0c.126.081.26.149.381.21l.07.035.001.001c.133.066.25.126.351.191l.007.005.007.003.01.006h.001a.564.564 0 00.024.013m-.852-.465l.852.465m0 0c.128.066.258.1.39.1.33 0 .54-.21.6-.27l1.24-1.24c.174-.174.347-.25.5-.25.19 0 .359.118.478.246h0l.003.004 2 1.996-5.21-.586zm-6.4-.972h.001a17.125 17.125 0 005.696 4.461v.001c.83.393 1.955.868 3.215.95h.013c.072.003.146.006.222.006.865 0 1.568-.3 2.138-.918a.244.244 0 00.026-.032c.172-.207.367-.395.577-.6l.046-.044c.156-.15.317-.307.471-.468.375-.391.572-.845.57-1.305 0-.46-.199-.908-.579-1.289l-1.991-1.991c-.362-.376-.804-.582-1.274-.582-.471 0-.916.207-1.287.578l-1.107 1.106c-.08-.043-.16-.082-.233-.12h-.002a3.97 3.97 0 01-.351-.191h0C9.2 10.617 8.23 9.734 7.3 8.594c-.438-.554-.737-1.02-.95-1.486.285-.262.553-.534.811-.798h0c.099-.102.2-.204.304-.307.38-.38.594-.83.594-1.3 0-.468-.21-.92-.594-1.3 0 0 0 0 0 0l-.988-.987c-.112-.112-.218-.222-.328-.334l-.009-.01s0 0 0 0a17.808 17.808 0 00-.677-.67C5.1 1.044 4.662.85 4.194.85c-.466 0-.906.195-1.284.555h0l-.003.003-1.24 1.24a2.698 2.698 0 00-.802 1.724v.001c-.066.82.086 1.685.47 2.716.587 1.594 1.471 3.07 2.78 4.643zm1.137-8.967l.089.09L15.725 13.29c.18.18.253.35.252.51-.002.159-.079.337-.264.53l-.002.002c-.136.146-.28.286-.435.434v.001l-.04.039c-.219.211-.45.437-.662.69-.35.376-.764.552-1.31.552a2.79 2.79 0 01-.163-.007c-1.057-.067-2.046-.48-2.802-.84a15.976 15.976 0 01-5.324-4.172c-1.228-1.478-2.05-2.85-2.593-4.316h0c-.337-.899-.46-1.609-.41-2.246.037-.406.191-.74.484-1.034L3.69 2.201c.171-.165.348-.239.505-.239.151 0 .32.072.49.244h0l.005.005c.19.175.37.358.562.554z" stroke="#000" stroke-width=".3"/></symbol></svg>