<svg width="18" height="18" viewBox="0 0 18 18" fill="none" xmlns="http://www.w3.org/2000/svg">
<path d="M15.7151 8.12058C16.2583 8.12058 16.4851 7.42273 16.0438 7.10105L9.33076 2.21785C9.23489 2.14761 9.11914 2.10974 9.00029 2.10974C8.88145 2.10974 8.76569 2.14761 8.66982 2.21785L1.95674 7.10105C1.51553 7.42097 1.74228 8.12058 2.28721 8.12058H3.37529V14.6948H2.10967C2.03232 14.6948 1.96904 14.7581 1.96904 14.8354V15.7495C1.96904 15.8268 2.03232 15.8901 2.10967 15.8901H15.8909C15.9683 15.8901 16.0315 15.8268 16.0315 15.7495V14.8354C16.0315 14.7581 15.9683 14.6948 15.8909 14.6948H14.6253V8.12058H15.7151ZM9.00029 3.4571L13.7657 6.92351H4.23486L9.00029 3.4571ZM4.64092 8.12058H6.69756V14.6948H4.64092V8.12058ZM7.96318 8.12058H10.0198V14.6948H7.96318V8.12058ZM13.3597 14.6948H11.2854V8.12058H13.3597V14.6948Z" fill="#2D415C"/>
</svg>
