<svg width="66" height="66" viewBox="0 0 66 66" fill="none" xmlns="http://www.w3.org/2000/svg">
<circle cx="33" cy="33" r="33" fill="url(#paint0_linear)"/>
<g clip-path="url(#clip0)">
<path d="M49.7024 20.8102C47.8936 20.6713 45.8468 20.2603 43.6188 19.589C40.9422 18.7822 38.344 18.9067 35.8962 19.9589C35.551 20.1073 35.3915 20.5074 35.5398 20.8527C35.6882 21.1978 36.0879 21.3576 36.4336 21.2091C38.579 20.2868 40.8645 20.18 43.2262 20.8918C45.548 21.5915 47.6919 22.0204 49.5983 22.1668C49.6159 22.1683 49.6336 22.1688 49.651 22.1688C50.0032 22.1688 50.3013 21.8975 50.3287 21.5406C50.3574 21.1659 50.077 20.8389 49.7024 20.8102Z" fill="white"/>
<path d="M49.7023 23.7016C47.894 23.5628 45.8472 23.1519 43.6188 22.4804C40.9422 21.6736 38.344 21.7982 35.8962 22.8503C35.551 22.9987 35.3915 23.3989 35.5398 23.7441C35.6882 24.0893 36.0879 24.249 36.4336 24.1005C38.579 23.1783 40.8645 23.0714 43.2262 23.7832C45.5485 24.483 47.6923 24.912 49.5983 25.0583C49.616 25.0597 49.6336 25.0602 49.651 25.0602C50.0032 25.0602 50.3013 24.7889 50.3287 24.4319C50.3574 24.0572 50.077 23.7303 49.7023 23.7016Z" fill="white"/>
<path d="M49.7024 38.159C47.8935 38.0201 45.8467 37.6092 43.6188 36.9378C40.9423 36.131 38.3443 36.2556 35.8962 37.3078C35.551 37.4562 35.3915 37.8563 35.5398 38.2016C35.6882 38.5466 36.0879 38.7065 36.4336 38.558C38.5791 37.6357 40.8646 37.529 43.2262 38.2406C45.5479 38.9403 47.6918 39.3693 49.5983 39.5157C49.6159 39.5172 49.6336 39.5177 49.651 39.5177C50.0032 39.5177 50.3013 39.2464 50.3287 38.8894C50.3574 38.5148 50.077 38.1878 49.7024 38.159Z" fill="white"/>
<path d="M49.7024 41.0505C47.8936 40.9117 45.8468 40.5007 43.6188 39.8294C40.9422 39.0227 38.344 39.1471 35.8962 40.1993C35.551 40.3477 35.3915 40.7478 35.5398 41.0931C35.6882 41.4382 36.0879 41.598 36.4336 41.4495C38.579 40.5272 40.8645 40.4204 43.2262 41.1322C45.548 41.8319 47.6919 42.2608 49.5983 42.4072C49.6159 42.4087 49.6336 42.4092 49.651 42.4092C50.0032 42.4092 50.3013 42.1379 50.3287 41.7809C50.3574 41.4063 50.077 41.0793 49.7024 41.0505Z" fill="white"/>
<path d="M49.7024 26.5932C47.8935 26.4543 45.8467 26.0434 43.6188 25.3719C40.9423 24.5652 38.3443 24.6897 35.8962 25.7419C35.551 25.8903 35.3915 26.2905 35.5398 26.6357C35.6882 26.9808 36.0879 27.1405 36.4336 26.9921C38.5791 26.0698 40.8646 25.9631 43.2262 26.6747C45.5479 27.3745 47.6918 27.8034 49.5983 27.9498C49.6159 27.9513 49.6336 27.9518 49.651 27.9518C50.0032 27.9518 50.3013 27.6805 50.3287 27.3236C50.3574 26.9489 50.077 26.6219 49.7024 26.5932Z" fill="white"/>
<path d="M49.7023 32.376C47.894 32.2373 45.8472 31.8265 43.6188 31.1549C40.9423 30.3481 38.3441 30.4727 35.8962 31.5248C35.551 31.6732 35.3915 32.0734 35.5398 32.4186C35.6882 32.7638 36.0879 32.9235 36.4336 32.775C38.5789 31.8528 40.8645 31.746 43.2262 32.4577C45.5485 33.1576 47.6923 33.5865 49.5983 33.7329C49.616 33.7342 49.6336 33.7348 49.651 33.7348C50.0032 33.7348 50.3013 33.4634 50.3287 33.1064C50.3574 32.7318 50.077 32.4048 49.7023 32.376Z" fill="white"/>
<path d="M49.7024 29.4846C47.8936 29.3457 45.8468 28.9348 43.6188 28.2634C40.9424 27.4566 38.3441 27.5812 35.8962 28.6334C35.551 28.7818 35.3915 29.1819 35.5398 29.5271C35.6882 29.8722 36.0879 30.032 36.4336 29.8835C38.5793 28.9613 40.8646 28.8545 43.2262 29.5662C45.548 30.266 47.6919 30.6949 49.5983 30.8413C49.6159 30.8427 49.6336 30.8433 49.651 30.8433C50.0032 30.8433 50.3013 30.572 50.3287 30.215C50.3574 29.8404 50.077 29.5133 49.7024 29.4846Z" fill="white"/>
<path d="M49.7023 35.2674C47.8937 35.1287 45.8469 34.7178 43.6188 34.0463C40.9423 33.2396 38.3443 33.3641 35.8962 34.4164C35.551 34.5648 35.3915 34.9649 35.5398 35.3101C35.6882 35.6552 36.0879 35.815 36.4336 35.6666C38.5791 34.7443 40.8646 34.6376 43.2262 35.3491C45.5481 36.049 47.6919 36.478 49.5983 36.6243C49.616 36.6257 49.6336 36.6262 49.651 36.6262C50.0032 36.6262 50.3013 36.3549 50.3287 35.9978C50.3574 35.6232 50.077 35.2963 49.7023 35.2674Z" fill="white"/>
<path d="M16.349 22.1688C16.3664 22.1688 16.3841 22.1681 16.4018 22.1668C18.3083 22.0205 20.4521 21.5915 22.7738 20.8917C25.1355 20.18 27.4209 20.2867 29.5664 21.209C29.9116 21.3574 30.3118 21.1978 30.4602 20.8526C30.6086 20.5074 30.4491 20.1072 30.1038 19.9588C27.656 18.9066 25.0578 18.7822 22.3812 19.5889C20.1532 20.2603 18.1065 20.6712 16.2977 20.8101C15.923 20.8387 15.6426 21.1659 15.6715 21.5405C15.6988 21.8974 15.9969 22.1688 16.349 22.1688Z" fill="white"/>
<path d="M16.349 25.0603C16.3664 25.0603 16.3841 25.0596 16.4017 25.0583C18.3077 24.9121 20.4516 24.4831 22.7738 23.7832C25.1355 23.0715 27.4209 23.1781 29.5664 24.1005C29.9116 24.2488 30.3118 24.0893 30.4602 23.7441C30.6086 23.3989 30.4491 22.9988 30.1038 22.8503C27.656 21.7981 25.0578 21.6738 22.3812 22.4804C20.1528 23.152 18.106 23.5628 16.2977 23.7016C15.923 23.7303 15.6426 24.0573 15.6715 24.4319C15.6988 24.7889 15.9969 25.0603 16.349 25.0603Z" fill="white"/>
<path d="M16.349 39.5178C16.3664 39.5178 16.3841 39.5171 16.4018 39.5158C18.3084 39.3695 20.4522 38.9404 22.7738 38.2406C25.1356 37.5287 27.4209 37.6358 29.5664 38.558C29.9116 38.7064 30.3118 38.5468 30.4602 38.2016C30.6086 37.8564 30.4491 37.4563 30.1038 37.3079C27.656 36.2556 25.0578 36.1312 22.3812 36.9378C20.1533 37.6093 18.1065 38.0202 16.2977 38.1591C15.923 38.1878 15.6426 38.5149 15.6715 38.8895C15.6988 39.2465 15.9969 39.5178 16.349 39.5178Z" fill="white"/>
<path d="M16.349 42.4092C16.3664 42.4092 16.3841 42.4085 16.4018 42.4072C18.3083 42.2609 20.4521 41.8319 22.7738 41.1321C25.1355 40.4204 27.4209 40.527 29.5664 41.4495C29.9116 41.5977 30.3118 41.4382 30.4602 41.093C30.6086 40.7478 30.4491 40.3477 30.1038 40.1993C27.656 39.147 25.0578 39.0226 22.3812 39.8293C20.1532 40.5007 18.1065 40.9116 16.2977 41.0505C15.923 41.0792 15.6426 41.4063 15.6715 41.7809C15.6988 42.1379 15.9969 42.4092 16.349 42.4092Z" fill="white"/>
<path d="M16.349 27.9517C16.3664 27.9517 16.3841 27.9511 16.4018 27.9497C18.3084 27.8034 20.4522 27.3744 22.7738 26.6746C25.1356 25.9628 27.4209 26.0697 29.5664 26.992C29.9116 27.1403 30.3118 26.9808 30.4602 26.6356C30.6086 26.2904 30.4491 25.8902 30.1038 25.7418C27.656 24.6896 25.0578 24.5652 22.3812 25.3718C20.1533 26.0433 18.1065 26.4542 16.2977 26.5931C15.923 26.6217 15.6426 26.9488 15.6715 27.3235C15.6988 27.6804 15.9969 27.9517 16.349 27.9517Z" fill="white"/>
<path d="M16.349 33.7347C16.3664 33.7347 16.3841 33.7341 16.4017 33.7328C18.3077 33.5866 20.4516 33.1575 22.7738 32.4577C25.1355 31.7459 27.4209 31.8525 29.5664 32.775C29.9116 32.9233 30.3118 32.7637 30.4602 32.4186C30.6086 32.0733 30.4491 31.6732 30.1038 31.5248C27.6561 30.4726 25.058 30.3482 22.3812 31.1549C20.1528 31.8264 18.106 32.2372 16.2977 32.3759C15.923 32.4047 15.6426 32.7317 15.6715 33.1064C15.6988 33.4634 15.9969 33.7347 16.349 33.7347Z" fill="white"/>
<path d="M16.349 30.8433C16.3664 30.8433 16.3841 30.8427 16.4018 30.8413C18.3083 30.695 20.4521 30.2661 22.7738 29.5663C25.1354 28.8547 27.4208 28.9612 29.5664 29.8836C29.9116 30.0318 30.3118 29.8724 30.4602 29.5272C30.6086 29.182 30.4491 28.7818 30.1038 28.6334C27.6559 27.5812 25.0578 27.4566 22.3812 28.2635C20.1532 28.9349 18.1065 29.3458 16.2977 29.4847C15.923 29.5133 15.6426 29.8404 15.6715 30.2151C15.6988 30.572 15.9969 30.8433 16.349 30.8433Z" fill="white"/>
<path d="M16.349 36.6262C16.3664 36.6262 16.3841 36.6256 16.4017 36.6243C18.3081 36.4781 20.4519 36.049 22.7738 35.3491C25.1356 34.6372 27.4209 34.7443 29.5664 35.6666C29.9116 35.815 30.3118 35.6553 30.4602 35.3101C30.6086 34.9649 30.4491 34.5648 30.1038 34.4164C27.656 33.3641 25.0578 33.2396 22.3812 34.0463C20.1532 34.7178 18.1063 35.1287 16.2977 35.2674C15.923 35.2962 15.6426 35.6232 15.6715 35.9978C15.6988 36.3549 15.9969 36.6262 16.349 36.6262Z" fill="white"/>
<path d="M54.5607 18.2426H53.4956V17.6219C53.4956 16.7519 52.7535 16.0638 51.8844 16.133C50.8805 16.2133 48.6823 16.2182 45.2386 15.345C44.8743 15.2524 44.5041 15.4731 44.412 15.8372C44.3195 16.2015 44.54 16.5716 44.9042 16.6639C48.3562 17.5391 50.6646 17.596 51.9932 17.4893C52.0706 17.4838 52.1349 17.544 52.1349 17.6219V45.0765C49.5577 45.3545 46.115 44.6168 43.6188 43.8646C38.0435 42.1843 34.4392 45.0711 33.6803 45.4824V18.2877C34.4155 17.5982 37.3784 15.156 41.7882 15.8656C42.159 15.9258 42.5083 15.6731 42.5681 15.3021C42.6279 14.9312 42.3756 14.582 42.0046 14.5222C37.3742 13.7762 34.1789 16.038 32.9984 17.0681C30.2916 14.7206 26.4198 13.6779 22.3813 14.8952C18.0468 16.2015 15.3419 16.231 14.1158 16.1331C13.2455 16.0633 12.5046 16.7536 12.5046 17.6219V18.2426H11.4394C10.5232 18.2426 9.77783 18.9879 9.77783 19.9042V47.4937C9.77783 48.41 10.5233 49.1553 11.4395 49.1553H29.0673C29.3314 49.1553 29.571 49.3011 29.6777 49.527C30.9981 52.3205 34.9971 52.3308 36.3223 49.527C36.4291 49.3013 36.6687 49.1553 36.9328 49.1553H54.5606C55.4768 49.1553 56.2221 48.4099 56.2221 47.4937V34.5913C56.2221 34.2154 55.9176 33.9109 55.5417 33.9109C55.1659 33.9109 54.8614 34.2154 54.8614 34.5913V47.4936C54.8614 47.6595 54.7265 47.7945 54.5606 47.7945H36.9329C36.1452 47.7945 35.4228 48.2462 35.0923 48.9454C34.2606 50.7048 31.7426 50.7117 30.9079 48.9455C30.5775 48.2464 29.8551 47.7945 29.0673 47.7945H11.4395C11.2735 47.7945 11.1385 47.6595 11.1385 47.4936V19.9042C11.1385 19.7383 11.2735 19.6033 11.4394 19.6033H12.5046V45.6572C12.5046 45.9659 12.7125 46.2359 13.0109 46.3148C13.1403 46.3491 16.2564 47.1317 22.774 45.1674C25.9274 44.2171 28.971 44.7998 31.3859 46.5028C32.3196 47.1611 33.6194 47.2046 34.6146 46.5027C36.073 45.4742 39.1307 43.9334 43.2264 45.1674C49.7442 47.1316 52.8601 46.349 52.9895 46.3148C53.2879 46.2359 53.4957 45.9659 53.4957 45.6572V19.6033H54.5608C54.7267 19.6033 54.8617 19.7383 54.8617 19.9042V31.4163C54.8617 31.7921 55.1662 32.0967 55.542 32.0967C55.9178 32.0967 56.2224 31.7921 56.2224 31.4163V19.9042C56.2223 18.9879 55.4769 18.2426 54.5607 18.2426ZM13.8653 17.6219C13.8653 17.5456 13.9276 17.4837 14.007 17.4893C15.3287 17.5956 18.2256 17.5687 22.774 16.198C26.4576 15.0882 29.9767 16.0943 32.3198 18.2883V45.4824C31.9295 45.2711 28.104 42.1397 22.3813 43.8647C22.0144 43.9753 21.6111 44.0901 21.2379 44.1898C21.2333 44.191 21.2288 44.1922 21.2244 44.1934C19.0337 44.7778 16.1194 45.3196 13.8652 45.0769C13.8653 43.1859 13.8653 18.129 13.8653 17.6219Z" fill="white"/>
</g>
<defs>
<linearGradient id="paint0_linear" x1="47.3845" y1="4.91835" x2="20.1222" y2="60.0921" gradientUnits="userSpaceOnUse">
<stop stop-color="#2C4898"/>
<stop offset="1" stop-color="#2B9DD7"/>
</linearGradient>
<clipPath id="clip0">
<rect width="46.4444" height="46.4444" fill="white" transform="translate(9.77783 9.77777)"/>
</clipPath>
</defs>
</svg>
