<svg width="16" height="16" viewBox="0 0 16 16" fill="none" xmlns="http://www.w3.org/2000/svg">
<path d="M14.5333 2.6666H1.46667C1.2 2.6666 1 2.93326 1 3.19993V12.9999C1 13.2666 1.2 13.5333 1.53333 13.5333H14.5333C14.8 13.5333 15.0667 13.3333 15.0667 12.9999V3.19993C15 2.93326 14.8 2.6666 14.5333 2.6666ZM13.8667 4.19993V12.3333H2.13333V4.19993L1.66667 3.8666L2 3.79993H2.93333H13H13.8667L14.2667 3.8666L13.8667 4.19993ZM14.3333 3.8666L13.7333 3.2666L14.3333 3.8666Z" fill="#2D415C"/>
<path d="M9.73309 9.4666H6.26643C5.99976 9.4666 5.73309 9.2666 5.73309 8.93326V7.19993C5.73309 6.93326 5.93309 6.6666 6.26643 6.6666H9.73309C9.99976 6.6666 10.2664 6.8666 10.2664 7.19993V8.93326C10.1998 9.19993 9.99976 9.4666 9.73309 9.4666ZM6.79976 8.4666H9.26643V7.73326H6.79976V8.4666Z" fill="#2D415C"/>
<path d="M6.26641 8.59996H2.99974C2.79974 8.59996 2.59974 8.46663 2.53307 8.26663L1.06641 3.86663L1.99974 3.53329L3.33307 7.53329H6.26641V8.59996Z" fill="#2D415C"/>
<path d="M12.9998 8.59994H9.73309V7.59994H12.6664L13.9998 3.59995L14.9331 3.93328L13.4664 8.33328C13.3998 8.46661 13.1998 8.59994 12.9998 8.59994Z" fill="#2D415C"/>
<path d="M10.9331 3.79991H5.06641V2.46657C5.06641 1.73324 5.66641 1.13324 6.39974 1.13324H9.59974C10.3331 1.13324 10.9331 1.73324 10.9331 2.46657V3.79991ZM6.06641 2.79991H9.93307V2.46657C9.93307 2.26657 9.79974 2.13324 9.59974 2.13324H6.39974C6.19974 2.13324 6.06641 2.26657 6.06641 2.46657V2.79991Z" fill="#2D415C"/>
</svg>
