<svg width="80" height="80" viewBox="0 0 80 80" fill="none" xmlns="http://www.w3.org/2000/svg">
<path d="M53.7835 43.2428L46.9738 40.2163C46.4927 40.0025 46.1821 39.5242 46.1821 38.998V37.128C48.4696 35.3053 49.9399 32.4986 49.9399 29.3533V26.7209C50.6935 26.3045 51.1924 25.4998 51.1924 24.5986V24.3431C51.1924 18.8625 46.7335 14.4036 41.2529 14.4036H38.7479C33.2672 14.4036 28.8083 18.8625 28.8083 24.3431V26.6611C28.8083 27.4533 29.1493 28.1709 29.7435 28.6302C29.8443 28.708 29.9504 28.7764 30.0608 28.8356V29.3531C30.0608 32.4984 31.531 35.3052 33.8183 37.1277V38.9978C33.8183 39.5241 33.5076 40.0024 33.0266 40.2161L26.2169 43.2427C23.9867 44.2338 22.5457 46.4513 22.5457 48.8918V64.4237C22.5457 65.0708 23.0703 65.5955 23.7175 65.5955C24.3647 65.5955 24.8894 65.0708 24.8894 64.4237V48.8919C24.8894 48.7561 24.8991 48.6219 24.9132 48.4888L28.051 51.6266C28.5393 52.115 28.8083 52.7643 28.8083 53.455V64.4238C28.8083 65.071 29.333 65.5957 29.9802 65.5957C30.6274 65.5957 31.1521 65.071 31.1521 64.4238V53.455C31.1521 52.1383 30.6394 50.9005 29.7083 49.9694L25.9675 46.2285C26.3046 45.8788 26.7089 45.5889 27.1689 45.3844L33.8638 42.4089L38.8287 47.3738V64.4237C38.8287 65.0708 39.3533 65.5955 40.0005 65.5955C40.6477 65.5955 41.1724 65.0708 41.1724 64.4237V47.3739L46.1373 42.4091L52.832 45.3844C53.292 45.5889 53.6963 45.8788 54.0334 46.2286L50.2926 49.9694C49.3615 50.9005 48.8488 52.1383 48.8488 53.455V64.4238C48.8488 65.071 49.3735 65.5957 50.0207 65.5957C50.6679 65.5957 51.1926 65.071 51.1926 64.4238V53.455C51.1926 52.7644 51.4615 52.115 51.9499 51.6266L55.0876 48.4889C55.1017 48.6221 55.1114 48.756 55.1114 48.8918V64.4237C55.1114 65.0708 55.636 65.5955 56.2832 65.5955C56.9304 65.5955 57.4551 65.0708 57.4551 64.4237V48.8919C57.4546 46.4514 56.0137 44.2339 53.7835 43.2428ZM40.0001 45.2313L35.6437 40.8747C35.9749 40.3174 36.1619 39.6725 36.1619 38.998V38.5211C37.3437 39.0177 38.6404 39.2928 40.0002 39.2928C41.3601 39.2928 42.6566 39.0178 43.8382 38.5213V38.998C43.8382 39.6727 44.0252 40.3174 44.3566 40.8749L40.0001 45.2313ZM40.0002 36.9489C35.8119 36.9491 32.4044 33.5416 32.4044 29.3533V28.8262C33.1357 28.5364 33.8494 28.0752 34.5327 27.4447C35.0082 27.0058 35.038 26.2644 34.599 25.7887C34.1601 25.3133 33.4188 25.2834 32.943 25.7223C32.3569 26.2634 31.7713 26.613 31.2029 26.7614C31.1891 26.765 31.179 26.7666 31.1718 26.7672C31.1633 26.7508 31.1519 26.7164 31.1519 26.6612V24.3433C31.1519 20.155 34.5594 16.7475 38.7477 16.7475H41.2527C45.4412 16.7475 48.8485 20.155 48.8485 24.3433V24.5987C48.8485 24.6367 48.8257 24.6697 48.7957 24.6756C41.7784 26.0616 38.2587 23.4495 37.0712 22.262C36.6135 21.8044 35.8715 21.8044 35.414 22.262C34.9563 22.7197 34.9563 23.4617 35.414 23.9192C39.053 27.5583 44.3632 27.6239 47.596 27.2355V29.3531C47.596 33.5414 44.1885 36.9489 40.0002 36.9489Z" fill="#013B5D"/>
<path d="M21.1316 36.869V34.3636C21.1316 31.3064 19.5428 28.6151 17.1489 27.0664C17.2968 26.5921 17.3739 26.0954 17.3739 25.5959C17.3739 22.8778 15.1627 20.6665 12.4446 20.6665C9.72642 20.6665 7.51517 22.8779 7.51517 25.5959C7.51517 26.1017 7.59173 26.5935 7.73986 27.0667C5.3461 28.6153 3.75751 31.3065 3.75751 34.3636V36.8686C3.75751 39.829 5.24704 42.4469 7.51501 44.0159V46.593C7.51501 47.1013 7.23267 47.5581 6.77814 47.7855L2.72485 49.812C1.04406 50.6527 0 52.342 0 54.2213V64.4243C0 65.0714 0.524688 65.5961 1.17188 65.5961C1.81907 65.5961 2.34375 65.0714 2.34375 64.4243V54.7281L4.25282 56.6372C4.7411 57.1256 5.01017 57.7749 5.01017 58.4657V64.4243C5.01017 65.0714 5.53485 65.5961 6.18204 65.5961C6.82923 65.5961 7.35392 65.0714 7.35392 64.4243V58.4657C7.35392 57.1489 6.84111 55.9111 5.91017 54.98L3.25313 52.323C3.24032 52.3102 3.22657 52.2991 3.21344 52.287C3.38016 52.1399 3.56719 52.0117 3.77313 51.9086L7.82642 49.882C8.03408 49.7781 8.22736 49.6555 8.40752 49.5192L11.2727 52.3845V64.4244C11.2727 65.0716 11.7974 65.5963 12.4446 65.5963C13.0917 65.5963 13.6164 65.0716 13.6164 64.4244V52.3844L16.4818 49.5191C16.6621 49.6555 16.8552 49.7781 17.0628 49.8819L18.1805 50.4408C18.3488 50.525 18.5275 50.5649 18.7038 50.5649C19.1336 50.5649 19.5475 50.3274 19.7528 49.9169C20.0424 49.338 19.8077 48.6341 19.2288 48.3447L18.1111 47.7858C17.6564 47.5584 17.3741 47.1016 17.3741 46.5934V44.0164C19.6421 42.4473 21.1316 39.8294 21.1316 36.869ZM12.4446 23.0103C13.8703 23.0103 15.0302 24.1703 15.0302 25.5959C15.0302 25.7529 15.0161 25.9068 14.9892 26.0576C14.1839 25.8104 13.3297 25.6765 12.4446 25.6765C11.5606 25.6765 10.7075 25.81 9.90346 26.0565C9.87642 25.9057 9.85892 25.7526 9.85892 25.5959C9.85892 24.1701 11.0188 23.0103 12.4446 23.0103ZM12.4446 28.0204C15.9422 28.0204 18.7878 30.8661 18.7878 34.3637V34.7884C13.9089 36.2822 11.0013 32.5707 10.8771 32.4081C10.6731 32.1364 10.3614 31.9664 10.0227 31.9423C9.68392 31.9186 9.35111 32.0425 9.11096 32.2826C7.99236 33.4012 6.89673 33.9408 6.10548 34.2012C6.1922 30.7784 9.00142 28.0204 12.4446 28.0204ZM12.4446 50.2416L9.73658 47.5336C9.81564 47.2314 9.85892 46.9164 9.85892 46.5931V45.1627C10.676 45.418 11.5446 45.5556 12.4446 45.5556C13.3446 45.5556 14.2132 45.418 15.0302 45.1627V46.5931C15.0302 46.9164 15.0735 47.2316 15.1525 47.5336L12.4446 50.2416ZM12.4446 43.2119C8.94689 43.2119 6.10126 40.3662 6.10126 36.8686V36.6258C7.03579 36.4111 8.42142 35.9122 9.86689 34.7497C10.3783 35.2322 11.1092 35.824 12.04 36.3317C13.141 36.9322 14.6614 37.4876 16.5186 37.4876C17.2244 37.4876 17.9796 37.4056 18.7778 37.2172C18.5961 40.5534 15.8252 43.2119 12.4446 43.2119Z" fill="#013B5D"/>
<path d="M77.2752 47.3072L70.7169 44.0279C70.2623 43.8006 69.98 43.3437 69.98 42.8356V41.1748C71.5151 39.8118 72.485 37.8256 72.485 35.6162V34.2823C72.512 34.2823 72.5386 34.2831 72.5656 34.2831C73.2128 34.2831 73.7375 33.7584 73.7375 33.1112V30.6062C73.7375 26.5068 70.4023 23.1716 66.3029 23.1716H63.7979C59.6986 23.1716 56.3634 26.5068 56.3634 30.6062V33.1112C56.3634 33.7584 56.8881 34.2831 57.5353 34.2831C57.545 34.2831 57.5731 34.2827 57.6159 34.281V35.6162C57.6159 37.8257 58.5859 39.812 60.1211 41.175V42.8357C60.1211 43.344 59.8387 43.8009 59.384 44.0281C58.8051 44.3175 58.5704 45.0214 58.86 45.6003C59.0653 46.0109 59.4792 46.2484 59.909 46.2484C60.0851 46.2484 60.2639 46.2086 60.4322 46.1245C60.6398 46.0206 60.8331 45.8979 61.0132 45.7617L63.8786 48.627V64.4244C63.8786 65.0716 64.4033 65.5963 65.0504 65.5963C65.6976 65.5963 66.2223 65.0716 66.2223 64.4244V48.6267L69.0875 45.7614C69.2678 45.8978 69.4609 46.0204 69.6686 46.1242L76.0147 49.2973L74.0898 51.2222C73.1589 52.1533 72.6461 53.3911 72.6461 54.7078V64.4241C72.6461 65.0712 73.1708 65.5959 73.818 65.5959C74.4651 65.5959 74.9898 65.0712 74.9898 64.4241V54.7078C74.9898 54.0172 75.2587 53.3678 75.7472 52.8793L77.5705 51.0561C77.6258 51.2681 77.6561 51.4892 77.6561 51.7161V64.4241C77.6561 65.0712 78.1808 65.5959 78.828 65.5959C79.4752 65.5959 79.9998 65.0712 79.9998 64.4241V51.7161C80 49.837 78.9559 48.1476 77.2752 47.3072ZM58.707 31.6982V30.606H58.7072C58.7072 27.799 60.9909 25.5152 63.7979 25.5152H66.3029C69.11 25.5152 71.3937 27.799 71.3937 30.606V31.9077C66.2995 31.6329 63.2253 29.6506 63.1954 29.631C62.9972 29.4988 62.7709 29.4341 62.5458 29.4341C62.2433 29.4341 61.9433 29.551 61.7167 29.7774C60.5954 30.8987 59.4968 31.4384 58.707 31.6982ZM65.0504 46.484L62.3425 43.776C62.4215 43.4739 62.4648 43.1589 62.4648 42.8356V42.586C63.2704 42.8859 64.1415 43.0506 65.0504 43.0506C65.9594 43.0506 66.8304 42.8859 67.6361 42.586V42.8356C67.6361 43.1589 67.6792 43.4739 67.7584 43.776L65.0504 46.484ZM65.0504 40.707C62.2434 40.707 59.9597 38.4234 59.9597 35.6162V33.727C60.7804 33.399 61.7367 32.8776 62.7098 32.0485C63.9404 32.6888 66.5151 33.7956 70.1412 34.1612V35.6162C70.1412 38.4232 67.8575 40.707 65.0504 40.707Z" fill="#013B5D"/>
</svg>
