<svg width="97" height="795" viewBox="0 0 97 795" fill="none" xmlns="http://www.w3.org/2000/svg">
<path d="M60.345 764.575H73.845C80.595 764.575 83.025 767.545 83.025 772.27C83.025 776.995 80.595 779.965 73.845 779.965H22.815C16.065 779.965 13.5 776.995 13.5 772.27C13.5 767.545 16.065 764.575 22.815 764.575H32.94V750.535H23.76C8.64001 750.535 1.95611e-05 758.095 2.01984e-05 772.675C2.08357e-05 787.255 8.64001 794.815 23.76 794.815H72.9C88.02 794.815 96.66 787.255 96.66 772.675C96.66 758.095 88.02 750.535 72.9 750.535H60.345V764.575Z" fill="white" fill-opacity="0.5"/>
<path d="M22.815 727.889C16.065 727.889 13.5 724.919 13.5 720.194C13.5 715.469 16.065 712.499 22.815 712.499H73.845C80.595 712.499 83.16 715.469 83.16 720.194C83.16 724.919 80.595 727.889 73.845 727.889H22.815ZM72.9 742.739C88.02 742.739 96.66 734.774 96.66 720.194C96.66 705.614 88.02 697.649 72.9 697.649H23.76C8.64001 697.649 1.72671e-05 705.614 1.79044e-05 720.194C1.85417e-05 734.774 8.64001 742.739 23.76 742.739H72.9Z" fill="white" fill-opacity="0.5"/>
<path d="M95.58 656.274V641.019H1.08001L1.08001 654.249H57.645L1.08001 669.504L1.08001 688.134H95.58V674.769H27.135L95.58 656.274Z" fill="white" fill-opacity="0.5"/>
<path d="M23.76 632.277C50.76 632.277 54.405 603.252 73.845 603.252C80.595 603.252 83.025 606.222 83.025 610.947C83.025 615.672 80.595 618.642 73.845 618.642H67.095L67.095 632.682H72.9C88.02 632.682 96.66 625.122 96.66 610.542C96.66 595.962 88.02 588.402 72.9 588.402C45.9 588.402 42.255 617.427 22.815 617.427C16.065 617.427 13.5 614.727 13.5 610.002C13.5 605.277 16.065 602.577 22.815 602.577H26.73L26.73 588.537H23.76C8.64001 588.537 1.2474e-05 595.962 1.31054e-05 610.407C1.37368e-05 624.852 8.64001 632.277 23.76 632.277Z" fill="white" fill-opacity="0.5"/>
<path d="M1.08001 580.568H73.035C88.155 580.568 96.795 573.008 96.795 558.428C96.795 543.848 88.155 536.288 73.035 536.288H1.08L1.08 550.328H73.98C80.73 550.328 83.16 553.298 83.16 558.023C83.16 562.748 80.73 565.719 73.98 565.719H1.08001L1.08001 580.568Z" fill="white" fill-opacity="0.5"/>
<path d="M95.58 526.104V486.82H82.08V511.255H1.08L1.08 526.104H95.58Z" fill="white" fill-opacity="0.5"/>
<path d="M14.58 491.402L14.58 475.876H95.58V461.026L14.58 461.027L14.58 445.501H1.08L1.08 491.402H14.58Z" fill="white" fill-opacity="0.5"/>
<path d="M1.08 411.163L1.08 432.898L95.58 448.018V434.383L78.435 431.818V413.593L95.58 411.028V396.043L1.08 411.163ZM17.82 422.773L65.61 415.618V429.928L17.82 422.773Z" fill="white" fill-opacity="0.5"/>
<path d="M95.58 357.402V342.147H1.08L1.08 355.377H57.645L1.08 370.632L1.08 389.262H95.58V375.897H27.135L95.58 357.402Z" fill="white" fill-opacity="0.5"/>
<path d="M60.345 302.49H73.845C80.595 302.49 83.025 305.46 83.025 310.185C83.025 314.91 80.595 317.88 73.845 317.88H22.815C16.065 317.88 13.5 314.91 13.5 310.185C13.5 305.46 16.065 302.49 22.815 302.49H32.94V288.45H23.76C8.63999 288.45 -6.37312e-07 296.01 0 310.59C6.37312e-07 325.17 8.63999 332.73 23.76 332.73H72.9C88.02 332.73 96.66 325.17 96.66 310.59C96.66 296.01 88.02 288.45 72.9 288.45H60.345V302.49Z" fill="white" fill-opacity="0.5"/>
<path d="M95.58 266.985V252.135H64.26L1.07999 233.37L1.07999 247.545L44.145 258.885L1.07999 270.225L1.07999 285.75L64.26 266.985H95.58Z" fill="white" fill-opacity="0.5"/>
<path d="M14.58 174.316L14.58 149.881H1.07999L1.07999 189.166L95.58 189.166V174.316H56.565V155.146H43.065V174.316H14.58Z" fill="white" fill-opacity="0.5"/>
<path d="M95.58 142.759V127.909H1.07999L1.07999 142.759L95.58 142.759Z" fill="white" fill-opacity="0.5"/>
<path d="M95.58 70.8814C92.07 72.3664 88.695 72.5014 84.105 72.5014H69.525C59.67 72.5014 52.515 74.9314 49.41 82.3564C46.305 75.7414 39.96 72.6364 30.24 72.6364H22.815C8.23499 72.6364 1.07998 79.2514 1.07999 94.6414L1.07999 117.051H95.58V102.201L57.105 102.201V97.0714C57.105 90.3214 60.345 87.3514 69.12 87.3514H83.97C91.665 87.3514 93.15 86.8114 95.58 86.0014V70.8814ZM14.58 95.0464C14.58 89.7814 17.55 87.4864 24.3 87.4864H33.615C41.175 87.4864 43.605 90.8614 43.605 96.3964V102.201H14.58L14.58 95.0464Z" fill="white" fill-opacity="0.5"/>
<path d="M1.07998 42.215L1.07998 62.87H95.58L95.58 49.91H28.755L95.58 38.84V24.8L27.81 14.54L95.58 14.54V0.5L1.07998 0.500004L1.07998 21.155L68.175 31.28L1.07998 42.215Z" fill="white" fill-opacity="0.5"/>
</svg>
