<svg width="94" height="14" viewBox="0 0 94 14" fill="none" xmlns="http://www.w3.org/2000/svg">
<path d="M24.0825 9.8624V9.99983H30.7703V8.32475H25.7514L24.0825 9.8624V9.8624ZM24.0825 0L25.7514 1.67508H30.7703V0H24.0825V0ZM24.0825 4.17493V5.83741H25.7514H30.7703V4.17493H25.7514H24.0825V4.17493ZM48.0137 0C46.6208 0 45.4416 0.499919 44.4755 1.47498C43.4967 2.45004 42.9948 3.62503 42.9948 4.99996C42.9948 6.38757 43.4967 7.54996 44.4755 8.52477C45.4541 9.49991 46.6208 9.99983 48.0137 9.99983C49.4064 9.99983 50.5734 9.49991 51.5522 8.52477C52.5434 7.56231 53.0453 6.38757 53.0453 4.99996C53.0453 3.62503 52.5434 2.45004 51.5522 1.47498C50.5734 0.499919 49.4064 0 48.0137 0V0ZM48.0137 1.67508C48.9298 1.67508 49.7201 1.99993 50.3725 2.65014C51.0252 3.3001 51.3513 4.0874 51.3513 4.99996C51.3513 5.91243 51.0376 6.70007 50.3725 7.36229C49.7201 8.01241 48.9298 8.32475 48.0137 8.32475C47.0977 8.32475 46.2948 8.01241 45.6424 7.36229C44.9898 6.71234 44.6762 5.91243 44.6762 4.99996C44.6762 4.0874 44.9898 3.3001 45.6424 2.65014C46.3071 1.98759 47.0977 1.67508 48.0137 1.67508ZM57.2488 0H55.103L59.0429 4.99996L60.0969 3.64998L57.2488 0V0ZM55.103 9.99983H57.2488L60.0969 6.35002L59.0429 4.99996L55.103 9.99983ZM65.0782 0H62.9578L60.0969 3.64998L61.1636 4.99996L65.0782 0V0ZM60.0969 6.35002L62.9578 9.99983H65.0782L61.1636 4.99996L60.0969 6.35002ZM68.3029 8.32475L66.6341 9.99983H73.3219V8.32475H68.3029ZM66.6341 0V0.275036V7.73738L68.3029 6.06247V0.275036V0H66.6341V0ZM78.529 6.67487L80.0096 3.73743L81.4776 6.67487H83.3598L80.0096 0L74.9907 9.99983H76.8477L77.701 8.32475L78.529 6.67487ZM84.1879 8.33735H82.3309L83.159 9.99983H85.0287L84.1879 8.33735ZM94.0001 2.91258C94.0001 2.51254 93.9248 2.13762 93.7743 1.78748C93.6237 1.425 93.4103 1.12492 93.1468 0.862661C92.8834 0.587539 92.5696 0.38752 92.206 0.224883C91.8421 0.0750177 91.4655 0 91.0765 0H85.6435L87.3124 1.67508H91.0765C91.2396 1.67508 91.4027 1.70003 91.5533 1.7627C91.7163 1.82512 91.8545 1.91257 91.9676 2.0374C92.0805 2.1498 92.1682 2.28749 92.2309 2.43752C92.2935 2.58756 92.3313 2.74994 92.3313 2.91258C92.3313 3.08748 92.2935 3.24994 92.2309 3.39998C92.1682 3.55001 92.0805 3.68762 91.9676 3.80002C91.8545 3.92493 91.7163 4.01238 91.5533 4.07514C91.4027 4.14998 91.2396 4.17493 91.0765 4.17493H87.3124H86.6473H85.6435V5.83741H87.3124H91.0765C91.2523 5.83741 91.4154 5.87488 91.5785 5.9373C91.729 6.00005 91.8545 6.09993 91.9676 6.21233C92.0805 6.32482 92.1682 6.46242 92.2309 6.61245C92.2935 6.76249 92.3313 6.92496 92.3313 7.08742C92.3313 7.24981 92.2935 7.41244 92.2309 7.56231C92.1682 7.71234 92.0805 7.85003 91.9676 7.96243C91.8545 8.08743 91.7163 8.17488 91.5533 8.23747C91.4027 8.29997 91.2396 8.32475 91.0765 8.32475H87.3124V9.99983H91.0765C91.478 9.99983 91.8545 9.92481 92.206 9.77495C92.5696 9.61231 92.8834 9.41229 93.1468 9.13734C93.4103 8.8749 93.6237 8.57483 93.7743 8.21235C93.9248 7.86221 94.0001 7.48729 94.0001 7.08742C94.0001 6.2624 93.7117 5.56238 93.1219 4.99996C93.7117 4.42502 94.0001 3.725 94.0001 2.91258ZM39.0449 3.32513L37.5642 6.26257L36.6149 8.10889L37.5642 10L42.5831 0.000170301H40.7262L39.8729 1.67525L39.0449 3.32513ZM33.386 1.66265H35.243L34.4148 0.000170301H32.5451L33.386 1.66265Z" fill="black"/>
<path d="M5.07324 6.50879C4.98047 5.48828 4.14062 4.62891 2.78809 4.62891C1.28906 4.62891 0.302734 5.69824 0.302734 7.34863C0.302734 9.02832 1.29395 10.0635 2.79785 10.0635C4.07227 10.0635 4.96094 9.32617 5.08301 8.21777H4.07227C3.94531 8.83789 3.49121 9.1748 2.80273 9.1748C1.95312 9.1748 1.37695 8.49121 1.37695 7.34863C1.37695 6.23535 1.94336 5.52246 2.79785 5.52246C3.52539 5.52246 3.96484 5.94727 4.0625 6.50879H5.07324ZM5.86426 10H6.92383V6.83594C6.92383 6.08887 7.36328 5.60547 8.06152 5.60547C8.27148 5.60547 8.45703 5.63477 8.54492 5.66895V4.67773C8.46191 4.6582 8.33008 4.64355 8.17383 4.64355C7.54883 4.64355 7.06055 5 6.89453 5.59082H6.875V4.69727H5.86426V10ZM9.54102 3.50586V4.69727H8.80859V5.53223H9.54102V8.60352C9.54102 9.62891 9.95117 10.0342 11.0107 10.0342C11.2402 10.0342 11.4893 10.0098 11.6064 9.98047V9.14551C11.5381 9.15527 11.3574 9.16992 11.2451 9.16992C10.8008 9.16992 10.5957 8.95508 10.5957 8.49609V5.53223H11.6113V4.69727H10.5957V3.50586H9.54102ZM14.375 10.0537C15.1514 10.0537 15.7568 9.70215 16.0693 9.10156H16.0889V10H17.1143V2.63672H16.0596V5.57617H16.0352C15.7324 4.99023 15.127 4.64355 14.3652 4.64355C13.0469 4.64355 12.1387 5.71289 12.1387 7.34375C12.1387 8.98438 13.0469 10.0537 14.375 10.0537ZM14.6436 5.54199C15.4932 5.54199 16.0645 6.26953 16.0645 7.34863C16.0645 8.43262 15.4932 9.15527 14.6436 9.15527C13.7842 9.15527 13.2227 8.44727 13.2227 7.34863C13.2227 6.25488 13.7891 5.54199 14.6436 5.54199Z" fill="black"/>
</svg>
