<svg width="70" height="24" viewBox="0 0 70 24" fill="none" xmlns="http://www.w3.org/2000/svg">
<path d="M0 23.8624V23.9998H6.68775V22.3247H1.66884L0 23.8624H0ZM0 14L1.66884 15.6751H6.68775V14H0H0ZM0 18.1749V19.8374H1.66884H6.68775V18.1749H1.66884H0H0ZM23.9312 14C22.5383 14 21.3591 14.4999 20.3929 15.475C19.4141 16.45 18.9123 17.625 18.9123 19C18.9123 20.3876 19.4141 21.55 20.3929 22.5248C21.3716 23.4999 22.5383 23.9998 23.9312 23.9998C25.3238 23.9998 26.4909 23.4999 27.4697 22.5248C28.4608 21.5623 28.9628 20.3876 28.9628 19C28.9628 17.625 28.4608 16.45 27.4697 15.475C26.4909 14.4999 25.3238 14 23.9312 14V14ZM23.9312 15.6751C24.8473 15.6751 25.6376 15.9999 26.29 16.6501C26.9427 17.3001 27.2688 18.0874 27.2688 19C27.2688 19.9124 26.9551 20.7001 26.29 21.3623C25.6376 22.0124 24.8473 22.3247 23.9312 22.3247C23.0152 22.3247 22.2123 22.0124 21.5599 21.3623C20.9072 20.7123 20.5937 19.9124 20.5937 19C20.5937 18.0874 20.9072 17.3001 21.5599 16.6501C22.2246 15.9876 23.0152 15.6751 23.9312 15.6751ZM33.1663 14H31.0205L34.9604 19L36.0144 17.65L33.1663 14V14ZM31.0205 23.9998H33.1663L36.0144 20.35L34.9604 19L31.0205 23.9998ZM40.9957 14H38.8753L36.0144 17.65L37.0811 19L40.9957 14V14ZM36.0144 20.35L38.8753 23.9998H40.9957L37.0811 19L36.0144 20.35ZM44.2204 22.3247L42.5516 23.9998H49.2393V22.3247H44.2204ZM42.5516 14V14.275V21.7374L44.2204 20.0625V14.275V14H42.5516V14ZM54.4465 20.6749L55.9271 17.7374L57.3951 20.6749H59.2773L55.9271 14L50.9082 23.9998H52.7651L53.6184 22.3247L54.4465 20.6749ZM60.1053 22.3373H58.2484L59.0765 23.9998H60.9462L60.1053 22.3373ZM69.9176 16.9126C69.9176 16.5125 69.8423 16.1376 69.6918 15.7875C69.5412 15.425 69.3278 15.1249 69.0643 14.8627C68.8008 14.5875 68.4871 14.3875 68.1234 14.2249C67.7596 14.075 67.383 14 66.994 14H61.561L63.2299 15.6751H66.994C67.1571 15.6751 67.3202 15.7 67.4708 15.7627C67.6338 15.8251 67.772 15.9126 67.8851 16.0374C67.9979 16.1498 68.0857 16.2875 68.1484 16.4375C68.211 16.5876 68.2488 16.7499 68.2488 16.9126C68.2488 17.0875 68.211 17.2499 68.1484 17.4C68.0857 17.55 67.9979 17.6876 67.8851 17.8C67.772 17.9249 67.6338 18.0124 67.4708 18.0751C67.3202 18.15 67.1571 18.1749 66.994 18.1749H63.2299H62.5648H61.561V19.8374H63.2299H66.994C67.1698 19.8374 67.3329 19.8749 67.496 19.9373C67.6465 20.0001 67.772 20.0999 67.8851 20.2123C67.9979 20.3248 68.0857 20.4624 68.1484 20.6125C68.211 20.7625 68.2488 20.925 68.2488 21.0874C68.2488 21.2498 68.211 21.4124 68.1484 21.5623C68.0857 21.7123 67.9979 21.85 67.8851 21.9624C67.772 22.0874 67.6338 22.1749 67.4708 22.2375C67.3202 22.3 67.1571 22.3247 66.994 22.3247H63.2299V23.9998H66.994C67.3955 23.9998 67.772 23.9248 68.1234 23.7749C68.4871 23.6123 68.8008 23.4123 69.0643 23.1373C69.3278 22.8749 69.5412 22.5748 69.6918 22.2123C69.8423 21.8622 69.9176 21.4873 69.9176 21.0874C69.9176 20.2624 69.6292 19.5624 69.0394 19C69.6292 18.425 69.9176 17.725 69.9176 16.9126ZM14.9624 17.3251L13.4817 20.2626L12.5324 22.1089L13.4817 24L18.5006 14.0002H16.6436L15.7903 15.6753L14.9624 17.3251ZM9.30344 15.6627H11.1605L10.3323 14.0002H8.46261L9.30344 15.6627Z" fill="black"/>
<path d="M5.07324 6.50879C4.98047 5.48828 4.14062 4.62891 2.78809 4.62891C1.28906 4.62891 0.302734 5.69824 0.302734 7.34863C0.302734 9.02832 1.29395 10.0635 2.79785 10.0635C4.07227 10.0635 4.96094 9.32617 5.08301 8.21777H4.07227C3.94531 8.83789 3.49121 9.1748 2.80273 9.1748C1.95312 9.1748 1.37695 8.49121 1.37695 7.34863C1.37695 6.23535 1.94336 5.52246 2.79785 5.52246C3.52539 5.52246 3.96484 5.94727 4.0625 6.50879H5.07324ZM5.86426 10H6.92383V6.83594C6.92383 6.08887 7.36328 5.60547 8.06152 5.60547C8.27148 5.60547 8.45703 5.63477 8.54492 5.66895V4.67773C8.46191 4.6582 8.33008 4.64355 8.17383 4.64355C7.54883 4.64355 7.06055 5 6.89453 5.59082H6.875V4.69727H5.86426V10ZM9.54102 3.50586V4.69727H8.80859V5.53223H9.54102V8.60352C9.54102 9.62891 9.95117 10.0342 11.0107 10.0342C11.2402 10.0342 11.4893 10.0098 11.6064 9.98047V9.14551C11.5381 9.15527 11.3574 9.16992 11.2451 9.16992C10.8008 9.16992 10.5957 8.95508 10.5957 8.49609V5.53223H11.6113V4.69727H10.5957V3.50586H9.54102ZM14.375 10.0537C15.1514 10.0537 15.7568 9.70215 16.0693 9.10156H16.0889V10H17.1143V2.63672H16.0596V5.57617H16.0352C15.7324 4.99023 15.127 4.64355 14.3652 4.64355C13.0469 4.64355 12.1387 5.71289 12.1387 7.34375C12.1387 8.98438 13.0469 10.0537 14.375 10.0537ZM14.6436 5.54199C15.4932 5.54199 16.0645 6.26953 16.0645 7.34863C16.0645 8.43262 15.4932 9.15527 14.6436 9.15527C13.7842 9.15527 13.2227 8.44727 13.2227 7.34863C13.2227 6.25488 13.7891 5.54199 14.6436 5.54199Z" fill="black"/>
</svg>
