<svg width="20" height="20" viewBox="0 0 20 20" fill="none" xmlns="http://www.w3.org/2000/svg">
<path d="M18.4 17.5C18.4 18.01 18.01 18.4 17.5 18.4H13V13H16V9.39999H13V7.89998C13 7.71998 13.12 7.59999 13.3 7.59999H16.3V3.99999H12.97C10.96 4.17999 9.39999 5.88999 9.39999 7.89998V9.39999H6.99998V13H9.39999V18.4H2.50001C1.99 18.4 1.60001 18.01 1.60001 17.5V2.50001C1.60001 1.99 1.99 1.60001 2.50001 1.60001H17.5C18.01 1.60001 18.4 1.99 18.4 2.50001L18.4 17.5Z" fill="#333333"/>
<path fill-rule="evenodd" clip-rule="evenodd" d="M2.50001 1H17.5C18.34 1 19 1.65999 19 2.50001V17.5C19 18.34 18.34 19 17.5 19H12.4V18.4V12.4H15.4V10H12.4V7.90001C12.4 7.39 12.79 7.00001 13.3 7.00001H15.7V4.6H13C11.32 4.75001 10 6.19001 10 7.90001V10H7.59999V12.4H10V18.4V19H2.50001C1.65999 19 1 18.34 1 17.5V2.50001C1 1.65999 1.65999 1 2.50001 1ZM17.5 18.4C18.01 18.4 18.4 18.01 18.4 17.5L18.4 2.50001C18.4 1.99 18.01 1.60001 17.5 1.60001H2.50001C1.99 1.60001 1.60001 1.99 1.60001 2.50001V17.5C1.60001 18.01 1.99 18.4 2.50001 18.4H9.39999V13H6.99998V9.39999H9.39999V7.89998C9.39999 5.88999 10.96 4.17999 12.97 3.99999H16.3V7.59999H13.3C13.12 7.59999 13 7.71998 13 7.89998V9.39999H16V13H13V18.4H17.5Z" fill="#333333"/>
</svg>
