<svg width="32" height="32" viewBox="0 0 32 32" fill="none" xmlns="http://www.w3.org/2000/svg">
<path d="M30.9333 29.3333C30.9333 30.24 30.24 30.9333 29.3333 30.9333H21.3333V21.3333H26.6666V14.9333H21.3333V12.2666C21.3333 11.9466 21.5466 11.7333 21.8666 11.7333H27.2V5.33331H21.28C17.7067 5.65331 14.9333 8.69331 14.9333 12.2666V14.9333H10.6666V21.3333H14.9333V30.9333H2.66669C1.76 30.9333 1.06669 30.24 1.06669 29.3333V2.66669C1.06669 1.76 1.76 1.06669 2.66669 1.06669H29.3334C30.2401 1.06669 30.9334 1.76 30.9334 2.66669L30.9333 29.3333Z" fill="#333333"/>
<path fill-rule="evenodd" clip-rule="evenodd" d="M2.66669 0H29.3333C30.8267 0 32 1.17331 32 2.66669V29.3333C32 30.8267 30.8267 32 29.3334 32H20.2667V30.9334V20.2667H25.6V16H20.2666V12.2667C20.2666 11.36 20.9599 10.6667 21.8666 10.6667H26.1333V6.4H21.3333C18.3467 6.66669 16 9.22669 16 12.2667V16H11.7333V20.2667H16V30.9333V32H2.66669C1.17331 32 0 30.8267 0 29.3334V2.66669C0 1.17331 1.17331 0 2.66669 0ZM29.3333 30.9333C30.24 30.9333 30.9333 30.24 30.9333 29.3333L30.9334 2.66669C30.9334 1.76 30.2401 1.06669 29.3334 1.06669H2.66669C1.76 1.06669 1.06669 1.76 1.06669 2.66669V29.3333C1.06669 30.24 1.76 30.9333 2.66669 30.9333H14.9333V21.3333H10.6666V14.9333H14.9333V12.2666C14.9333 8.69331 17.7067 5.65331 21.28 5.33331H27.2V11.7333H21.8666C21.5466 11.7333 21.3333 11.9466 21.3333 12.2666V14.9333H26.6666V21.3333H21.3333V30.9333H29.3333Z" fill="#333333"/>
</svg>
