<svg width="298" height="130" viewBox="0 0 298 130" fill="none" xmlns="http://www.w3.org/2000/svg">
<path fill-rule="evenodd" clip-rule="evenodd" d="M166.281 15.4269C162.116 10.5489 155.921 7.45619 149.004 7.45619C136.462 7.45619 126.296 17.623 126.296 30.1645C126.296 42.7059 136.462 52.8728 149.004 52.8728C149.425 52.8728 149.844 52.8613 150.259 52.8387C148.335 53.3043 146.326 53.551 144.259 53.551C130.22 53.551 118.839 42.1702 118.839 28.1313C118.839 14.0923 130.22 2.71155 144.259 2.71155C153.67 2.71155 161.886 7.82588 166.281 15.4269Z" fill="url(#paint0_linear)"/>
<path fill-rule="evenodd" clip-rule="evenodd" d="M131.719 38.1231C135.884 43.0017 142.079 46.0948 148.996 46.0948C161.538 46.0948 171.705 35.928 171.705 23.3866C171.705 10.8451 161.538 0.678268 148.996 0.678268C148.575 0.678268 148.156 0.689743 147.741 0.712391C149.665 0.246773 151.674 4.19617e-05 153.741 4.19617e-05C167.78 4.19617e-05 179.161 11.3808 179.161 25.4198C179.161 39.4587 167.78 50.8395 153.741 50.8395C144.33 50.8395 136.113 45.7247 131.719 38.1231Z" fill="url(#paint1_linear)"/>
<path d="M16.8125 100.645H6.59375L6.59375 94.9572H16.2344V91.3322H6.59375L6.59375 85.8947H16.8125L16.8125 82.004H1.875L1.875 104.551H16.8125V100.645ZM35.6562 87.3478H31.0937V97.1447C31.0937 99.4728 29.7656 101.004 27.6406 101.004C25.5312 101.004 24.375 99.754 24.375 97.4259V87.3478H19.8125V98.379C19.8125 102.379 22.2656 104.801 25.9844 104.801C28.5937 104.801 30.2812 103.598 31.1562 101.442H31.25V104.551H35.6562L35.6562 87.3478ZM38.7656 104.551H43.3281L43.3281 94.9259C43.3281 92.5197 44.6875 91.0822 47 91.0822C47.6719 91.0822 48.2969 91.1915 48.6875 91.3478V87.3165C48.3594 87.2072 47.8906 87.1447 47.3594 87.1447C45.3281 87.1447 43.8438 88.3009 43.2656 90.4259H43.1719V87.3478H38.7656L38.7656 104.551ZM57.9219 104.848C63.1406 104.848 66.4062 101.52 66.4062 95.9415C66.4062 90.4259 63.1094 87.0509 57.9219 87.0509C52.75 87.0509 49.4375 90.4415 49.4375 95.9415C49.4375 101.504 52.7031 104.848 57.9219 104.848ZM57.9219 101.332C55.5156 101.332 54.0625 99.3634 54.0625 95.9415C54.0625 92.5665 55.5156 90.5509 57.9219 90.5509C60.3125 90.5509 61.7656 92.5509 61.7656 95.9415C61.7656 99.3634 60.3281 101.332 57.9219 101.332ZM68.9844 104.551H73.5469V94.7853C73.5469 92.4728 74.875 90.8947 77.125 90.8947C79.2969 90.8947 80.4219 92.254 80.4219 94.504V104.551H84.9844V93.5509C84.9844 89.5665 82.7812 87.0978 78.9688 87.0978C76.3438 87.0978 74.5312 88.254 73.5625 90.4259H73.4688V80.9259H68.9844V104.551ZM95.6875 90.4572C97.7969 90.4572 99.2656 91.9259 99.3438 94.1759H91.9219C92.0781 91.9728 93.6094 90.4572 95.6875 90.4572ZM99.4062 99.3009C98.9688 100.629 97.6094 101.442 95.8906 101.442C93.4844 101.442 91.875 99.7697 91.875 97.2853V97.004H103.75V95.5978C103.75 90.3634 100.594 87.0509 95.6406 87.0509C90.5938 87.0509 87.375 90.5509 87.375 96.0197C87.375 101.488 90.5781 104.848 95.8125 104.848C100 104.848 103.109 102.629 103.609 99.3009H99.4062ZM112.781 101.426C111.125 101.426 110.047 100.629 110.047 99.3634C110.047 98.0978 111.062 97.3478 112.969 97.2228L116.578 96.9728V98.2384C116.578 100.113 114.891 101.426 112.781 101.426ZM111.297 104.754C113.5 104.754 115.625 103.692 116.562 101.895H116.656V104.551H121.062V92.754C121.062 89.3165 118.172 87.0509 113.75 87.0509C109.453 87.0509 106.484 89.3165 106.359 92.5978H110.531C110.75 91.3478 111.906 90.4728 113.562 90.4728C115.438 90.4728 116.578 91.379 116.578 93.0353V94.1759L112.281 94.4415C107.891 94.7072 105.5 96.4728 105.5 99.5978C105.5 102.676 107.984 104.754 111.297 104.754ZM124.266 104.551H128.828V80.9259H124.266V104.551ZM133.266 83.5197V87.3478H130.938V90.8009H133.266V99.9103C133.266 103.27 134.828 104.613 138.812 104.613C139.734 104.613 140.547 104.52 141.016 104.426V101.051C140.734 101.098 140.281 101.129 139.875 101.129C138.484 101.129 137.828 100.488 137.828 99.1603V90.8009H141.016V87.3478H137.828V83.5197H133.266ZM143.766 104.551H148.328V94.7853C148.328 92.4728 149.656 90.8947 151.906 90.8947C154.078 90.8947 155.203 92.254 155.203 94.504V104.551H159.766V93.5509C159.766 89.5665 157.562 87.0978 153.75 87.0978C151.125 87.0978 149.312 88.254 148.344 90.4259H148.25V80.9259H143.766V104.551ZM169.156 98.129C169.297 102.363 172.75 104.942 178.172 104.942C183.766 104.942 187.312 102.176 187.312 97.8009C187.312 94.3634 185.344 92.4259 180.828 91.4572L178.094 90.879C175.5 90.2853 174.406 89.504 174.406 88.1134C174.406 86.4415 175.969 85.3322 178.297 85.3322C180.656 85.3322 182.328 86.4884 182.484 88.3947H186.906C186.828 84.3165 183.531 81.6134 178.281 81.6134C173.25 81.6134 169.656 84.3634 169.656 88.5197C169.656 91.8165 171.703 93.9259 175.859 94.8165L178.797 95.4572C181.516 96.0665 182.594 96.879 182.594 98.3478C182.594 100.004 180.875 101.207 178.359 101.207C175.859 101.207 173.922 99.9884 173.703 98.129H169.156ZM192.078 110.832C196.375 110.832 198.484 109.285 199.953 104.895L205.906 87.3478H201.094L197.359 100.848H197.266L193.547 87.3478H188.547L194.578 104.66L194.422 105.317C194.062 106.692 193.078 107.285 191.375 107.285C191.188 107.285 190.5 107.27 190.344 107.238V110.77C190.516 110.801 191.906 110.832 192.078 110.832ZM207.25 92.4103C207.25 94.9259 208.922 96.5978 212.156 97.3322L215.328 98.0509C216.891 98.4259 217.484 98.8947 217.484 99.7853C217.484 100.91 216.375 101.613 214.562 101.613C212.672 101.613 211.5 100.801 211.281 99.3478H206.828C207.062 102.66 209.906 104.848 214.438 104.848C218.938 104.848 222.016 102.645 222.016 99.3009C222.016 96.7384 220.641 95.4103 217.188 94.629L213.953 93.9259C212.406 93.5665 211.656 92.9884 211.656 92.129C211.656 91.0197 212.75 90.2853 214.391 90.2853C216.141 90.2853 217.281 91.1447 217.375 92.504H221.594C221.531 89.2228 218.703 87.0509 214.453 87.0509C210.094 87.0509 207.25 89.1759 207.25 92.4103ZM225.609 83.5197V87.3478H223.281V90.8009H225.609V99.9103C225.609 103.27 227.172 104.613 231.156 104.613C232.078 104.613 232.891 104.52 233.359 104.426V101.051C233.078 101.098 232.625 101.129 232.219 101.129C230.828 101.129 230.172 100.488 230.172 99.1603V90.8009L233.359 90.8009V87.3478H230.172V83.5197L225.609 83.5197ZM243.406 90.4572C245.516 90.4572 246.984 91.9259 247.062 94.1759H239.641C239.797 91.9728 241.328 90.4572 243.406 90.4572ZM247.125 99.3009C246.688 100.629 245.328 101.442 243.609 101.442C241.203 101.442 239.594 99.7697 239.594 97.2853V97.004H251.469V95.5978C251.469 90.3634 248.312 87.0509 243.359 87.0509C238.312 87.0509 235.094 90.5509 235.094 96.0197C235.094 101.488 238.297 104.848 243.531 104.848C247.719 104.848 250.828 102.629 251.328 99.3009H247.125ZM253.922 104.551H258.484V94.2072C258.484 92.254 259.734 90.879 261.531 90.879C263.297 90.879 264.359 91.9884 264.359 93.8322V104.551H268.766V94.1447C268.766 92.1915 269.969 90.879 271.766 90.879C273.625 90.879 274.641 91.9884 274.641 94.004V104.551H279.203V92.8634C279.203 89.3947 276.938 87.0978 273.562 87.0978C271.062 87.0978 269 88.4572 268.219 90.6134H268.125C267.547 88.3634 265.797 87.0978 263.328 87.0978C261.031 87.0978 259.156 88.3947 258.422 90.4728H258.328V87.3478H253.922V104.551ZM281.938 92.4103C281.938 94.9259 283.609 96.5978 286.844 97.3322L290.016 98.0509C291.578 98.4259 292.172 98.8947 292.172 99.7853C292.172 100.91 291.062 101.613 289.25 101.613C287.359 101.613 286.188 100.801 285.969 99.3478H281.516C281.75 102.66 284.594 104.848 289.125 104.848C293.625 104.848 296.703 102.645 296.703 99.3009C296.703 96.7384 295.328 95.4103 291.875 94.629L288.641 93.9259C287.094 93.5665 286.344 92.9884 286.344 92.129C286.344 91.0197 287.438 90.2853 289.078 90.2853C290.828 90.2853 291.969 91.1447 292.062 92.504H296.281C296.219 89.2228 293.391 87.0509 289.141 87.0509C284.781 87.0509 281.938 89.1759 281.938 92.4103Z" fill="#013B5D"/>
<path d="M41.751 125.551H40.5205V116.794H37.3418V115.687H44.9297V116.794H41.751V125.551ZM44.9844 125.551V118.182H46.1055V119.378H46.1328C46.2422 118.991 46.4587 118.683 46.7822 118.455C47.1058 118.227 47.484 118.113 47.917 118.113C48.1038 118.113 48.2565 118.129 48.375 118.161V119.337C48.2474 119.282 48.0423 119.255 47.7598 119.255C47.2812 119.255 46.8962 119.415 46.6045 119.734C46.3174 120.053 46.1738 120.472 46.1738 120.991V125.551H44.9844ZM51.834 124.587C52.4355 124.587 52.9323 124.414 53.3242 124.068C53.7207 123.717 53.9189 123.277 53.9189 122.748V122.153L51.9912 122.276C50.8701 122.345 50.3096 122.739 50.3096 123.459C50.3096 123.801 50.4463 124.074 50.7197 124.279C50.9977 124.484 51.3691 124.587 51.834 124.587ZM51.5811 125.619C50.8337 125.619 50.2321 125.421 49.7764 125.025C49.3206 124.628 49.0928 124.104 49.0928 123.452C49.0928 122.819 49.3298 122.322 49.8037 121.962C50.2777 121.597 50.9613 121.388 51.8545 121.333L53.9189 121.21V120.595C53.9189 120.139 53.7731 119.788 53.4814 119.542C53.1898 119.296 52.7728 119.173 52.2305 119.173C51.8021 119.173 51.4398 119.276 51.1436 119.481C50.8519 119.686 50.6696 119.961 50.5967 120.308H49.4551C49.4733 119.688 49.749 119.168 50.2822 118.749C50.8154 118.325 51.4694 118.113 52.2441 118.113C53.1146 118.113 53.8096 118.33 54.3291 118.763C54.8486 119.191 55.1084 119.768 55.1084 120.492V125.551H53.9805V124.273H53.9531C53.7435 124.683 53.4245 125.011 52.9961 125.257C52.5677 125.498 52.096 125.619 51.5811 125.619ZM56.6875 125.551V118.182H57.8086V119.378H57.8359C58.3053 118.535 59.1074 118.113 60.2422 118.113C61.0534 118.113 61.6937 118.357 62.1631 118.845C62.6325 119.328 62.8672 119.989 62.8672 120.827V125.551H61.6777V121.032C61.6777 120.431 61.5228 119.97 61.2129 119.651C60.9076 119.332 60.4655 119.173 59.8867 119.173C59.2806 119.173 58.793 119.364 58.4238 119.747C58.0592 120.13 57.877 120.638 57.877 121.272V125.551H56.6875ZM64.3301 120.239C64.3301 119.62 64.583 119.111 65.0889 118.715C65.5993 118.318 66.2555 118.12 67.0576 118.12C67.805 118.12 68.4316 118.321 68.9375 118.722C69.4479 119.118 69.7145 119.62 69.7373 120.226H68.5957C68.5592 119.879 68.3997 119.606 68.1172 119.405C67.8346 119.205 67.4678 119.105 67.0166 119.105C66.5609 119.105 66.194 119.203 65.916 119.399C65.638 119.595 65.499 119.854 65.499 120.178C65.499 120.67 65.9137 121.019 66.7432 121.224L67.8643 121.504C68.6071 121.691 69.1289 121.932 69.4297 122.229C69.735 122.52 69.8877 122.935 69.8877 123.473C69.8877 124.102 69.6143 124.617 69.0674 125.018C68.5251 125.419 67.8278 125.619 66.9756 125.619C66.1826 125.619 65.5241 125.423 65 125.031C64.4759 124.635 64.1842 124.118 64.125 123.48H65.3213C65.3805 123.853 65.5583 124.14 65.8545 124.341C66.1553 124.537 66.5563 124.635 67.0576 124.635C67.5589 124.635 67.9554 124.539 68.2471 124.348C68.5433 124.152 68.6914 123.887 68.6914 123.555C68.6914 123.295 68.6048 123.09 68.4316 122.94C68.2585 122.785 67.9622 122.652 67.543 122.543L66.251 122.208C64.9704 121.875 64.3301 121.219 64.3301 120.239ZM71.5693 125.551V119.166H70.5439V118.182H71.5693V117.498C71.5693 116.815 71.7243 116.316 72.0342 116.001C72.3486 115.687 72.8477 115.529 73.5312 115.529C73.75 115.529 73.971 115.55 74.1943 115.591V116.575C74.0257 116.539 73.8411 116.521 73.6406 116.521C73.3307 116.521 73.1074 116.598 72.9707 116.753C72.834 116.903 72.7633 117.152 72.7588 117.498V118.182H74.1943V119.166H72.7588V125.551H71.5693ZM80.6543 124.601C80.0391 125.28 79.2142 125.619 78.1797 125.619C77.1452 125.619 76.3203 125.28 75.7051 124.601C75.0898 123.922 74.7822 123.01 74.7822 121.866C74.7822 120.722 75.0898 119.811 75.7051 119.132C76.3203 118.453 77.1452 118.113 78.1797 118.113C79.2142 118.113 80.0391 118.453 80.6543 119.132C81.2695 119.811 81.5771 120.722 81.5771 121.866C81.5771 123.01 81.2695 123.922 80.6543 124.601ZM78.1797 124.56C78.8678 124.56 79.4033 124.323 79.7861 123.849C80.1735 123.37 80.3672 122.709 80.3672 121.866C80.3672 121.019 80.1735 120.358 79.7861 119.884C79.4033 119.41 78.8678 119.173 78.1797 119.173C77.4915 119.173 76.9538 119.412 76.5664 119.891C76.1836 120.365 75.9922 121.023 75.9922 121.866C75.9922 122.709 76.1859 123.37 76.5732 123.849C76.9606 124.323 77.4961 124.56 78.1797 124.56ZM82.8281 125.551V118.182L83.9492 118.182V119.378H83.9766C84.0859 118.991 84.3024 118.683 84.626 118.455C84.9495 118.227 85.3278 118.113 85.7607 118.113C85.9476 118.113 86.1003 118.129 86.2188 118.161V119.337C86.0911 119.282 85.8861 119.255 85.6035 119.255C85.125 119.255 84.7399 119.415 84.4482 119.734C84.1611 120.053 84.0176 120.472 84.0176 120.991V125.551H82.8281ZM87.2715 125.551V118.182H88.3926V119.378H88.4199C88.5931 118.986 88.8643 118.679 89.2334 118.455C89.6071 118.227 90.0332 118.113 90.5117 118.113C91.0085 118.113 91.4368 118.234 91.7969 118.476C92.1569 118.717 92.4167 119.061 92.5762 119.508H92.6035C92.8132 119.07 93.123 118.729 93.5332 118.483C93.9434 118.236 94.4059 118.113 94.9209 118.113C95.6501 118.113 96.2311 118.332 96.6641 118.77C97.1016 119.207 97.3203 119.79 97.3203 120.52V125.551H96.1309V120.793C96.1309 120.283 95.9941 119.886 95.7207 119.604C95.4518 119.317 95.0713 119.173 94.5791 119.173C94.0869 119.173 93.6813 119.337 93.3623 119.665C93.0479 119.993 92.8906 120.41 92.8906 120.916V125.551H91.7012V120.65C91.7012 120.203 91.5599 119.845 91.2773 119.576C90.9993 119.307 90.6302 119.173 90.1699 119.173C89.6777 119.173 89.2699 119.346 88.9463 119.693C88.6227 120.034 88.4609 120.463 88.4609 120.978V125.551H87.2715ZM98.9746 125.551V118.182H100.164V125.551H98.9746ZM99.5693 116.992C99.3643 116.992 99.1865 116.919 99.0361 116.774C98.8903 116.623 98.8174 116.445 98.8174 116.24C98.8174 116.031 98.8903 115.853 99.0361 115.707C99.1865 115.561 99.3643 115.488 99.5693 115.488C99.779 115.488 99.9567 115.561 100.103 115.707C100.248 115.853 100.321 116.031 100.321 116.24C100.321 116.445 100.248 116.623 100.103 116.774C99.9567 116.919 99.779 116.992 99.5693 116.992ZM101.846 125.551V118.182H102.967V119.378H102.994C103.464 118.535 104.266 118.113 105.4 118.113C106.212 118.113 106.852 118.357 107.321 118.845C107.791 119.328 108.025 119.989 108.025 120.827V125.551H106.836V121.032C106.836 120.431 106.681 119.97 106.371 119.651C106.066 119.332 105.624 119.173 105.045 119.173C104.439 119.173 103.951 119.364 103.582 119.747C103.217 120.13 103.035 120.638 103.035 121.272V125.551H101.846ZM112.592 124.491C113.239 124.491 113.761 124.248 114.157 123.76C114.558 123.268 114.759 122.627 114.759 121.839C114.759 121.046 114.558 120.403 114.157 119.911C113.761 119.419 113.239 119.173 112.592 119.173C111.949 119.173 111.434 119.417 111.047 119.904C110.66 120.387 110.466 121.032 110.466 121.839C110.466 122.641 110.66 123.284 111.047 123.767C111.434 124.25 111.949 124.491 112.592 124.491ZM112.612 128.183C111.778 128.183 111.083 127.996 110.527 127.622C109.971 127.253 109.65 126.763 109.563 126.152H110.801C110.887 126.458 111.099 126.699 111.437 126.877C111.778 127.059 112.193 127.151 112.681 127.151C113.319 127.151 113.825 126.996 114.198 126.686C114.572 126.38 114.759 125.966 114.759 125.442V124.286H114.731C114.499 124.687 114.175 124.999 113.761 125.223C113.346 125.442 112.881 125.551 112.366 125.551C111.432 125.551 110.678 125.211 110.104 124.532C109.534 123.849 109.249 122.951 109.249 121.839C109.249 120.713 109.536 119.811 110.11 119.132C110.685 118.453 111.446 118.113 112.394 118.113C112.913 118.113 113.38 118.223 113.795 118.442C114.214 118.66 114.547 118.972 114.793 119.378H114.813V118.182H115.948V125.346C115.948 126.225 115.65 126.918 115.053 127.424C114.46 127.93 113.647 128.183 112.612 128.183ZM128.943 125.551H127.713V121.06H122.299V125.551H121.068V115.687H122.299V119.952H127.713V115.687H128.943V125.551ZM133.646 119.159C133.068 119.159 132.587 119.351 132.204 119.734C131.826 120.116 131.616 120.62 131.575 121.244H135.629C135.615 120.62 135.426 120.116 135.062 119.734C134.701 119.351 134.23 119.159 133.646 119.159ZM135.602 123.445H136.777C136.677 124.079 136.34 124.601 135.766 125.011C135.191 125.416 134.51 125.619 133.722 125.619C132.687 125.619 131.865 125.284 131.254 124.614C130.648 123.944 130.345 123.038 130.345 121.894C130.345 120.75 130.648 119.834 131.254 119.146C131.86 118.457 132.664 118.113 133.667 118.113C134.651 118.113 135.431 118.439 136.005 119.091C136.579 119.738 136.866 120.618 136.866 121.73V122.194H131.575V122.263C131.575 122.965 131.773 123.525 132.17 123.944C132.566 124.364 133.093 124.573 133.749 124.573C134.209 124.573 134.606 124.473 134.938 124.273C135.276 124.068 135.497 123.792 135.602 123.445ZM140.523 124.587C141.125 124.587 141.622 124.414 142.014 124.068C142.41 123.717 142.608 123.277 142.608 122.748V122.153L140.681 122.276C139.56 122.345 138.999 122.739 138.999 123.459C138.999 123.801 139.136 124.074 139.409 124.279C139.687 124.484 140.059 124.587 140.523 124.587ZM140.271 125.619C139.523 125.619 138.922 125.421 138.466 125.025C138.01 124.628 137.782 124.104 137.782 123.452C137.782 122.819 138.019 122.322 138.493 121.962C138.967 121.597 139.651 121.388 140.544 121.333L142.608 121.21V120.595C142.608 120.139 142.463 119.788 142.171 119.542C141.879 119.296 141.462 119.173 140.92 119.173C140.492 119.173 140.129 119.276 139.833 119.481C139.541 119.686 139.359 119.961 139.286 120.308H138.145C138.163 119.688 138.438 119.168 138.972 118.749C139.505 118.325 140.159 118.113 140.934 118.113C141.804 118.113 142.499 118.33 143.019 118.763C143.538 119.191 143.798 119.768 143.798 120.492V125.551H142.67V124.273H142.643C142.433 124.683 142.114 125.011 141.686 125.257C141.257 125.498 140.785 125.619 140.271 125.619ZM145.445 125.551V115.256H146.635V125.551H145.445ZM148.706 116.521H149.896V118.182H151.331V119.166H149.896V123.589C149.896 123.926 149.968 124.175 150.114 124.334C150.265 124.494 150.497 124.573 150.812 124.573C151.017 124.573 151.188 124.562 151.324 124.539V125.544C151.151 125.585 150.896 125.606 150.559 125.606C149.893 125.606 149.417 125.455 149.13 125.154C148.847 124.849 148.706 124.343 148.706 123.637V119.166H147.681V118.182H148.706V116.521ZM152.719 125.551V115.256H153.908V119.378H153.936C154.4 118.535 155.202 118.113 156.342 118.113C157.148 118.113 157.8 118.364 158.297 118.865C158.794 119.367 159.042 120.027 159.042 120.848V125.551H157.853V121.06C157.853 120.472 157.686 120.012 157.354 119.679C157.025 119.342 156.57 119.173 155.986 119.173C155.362 119.173 154.858 119.369 154.476 119.761C154.097 120.153 153.908 120.67 153.908 121.313V125.551H152.719ZM166.712 120.581H165.543C165.465 120.166 165.26 119.829 164.928 119.569C164.595 119.305 164.162 119.173 163.629 119.173C162.982 119.173 162.46 119.419 162.063 119.911C161.667 120.403 161.469 121.055 161.469 121.866C161.469 122.696 161.667 123.352 162.063 123.835C162.465 124.318 162.991 124.56 163.643 124.56C164.158 124.56 164.579 124.443 164.907 124.211C165.24 123.974 165.456 123.635 165.557 123.193H166.726C166.625 123.917 166.293 124.503 165.728 124.949C165.167 125.396 164.47 125.619 163.636 125.619C162.615 125.619 161.797 125.282 161.182 124.608C160.566 123.929 160.259 123.015 160.259 121.866C160.259 120.736 160.566 119.829 161.182 119.146C161.797 118.457 162.61 118.113 163.622 118.113C164.493 118.113 165.206 118.355 165.762 118.838C166.318 119.317 166.634 119.898 166.712 120.581ZM170.273 124.587C170.875 124.587 171.372 124.414 171.764 124.068C172.16 123.717 172.358 123.277 172.358 122.748V122.153L170.431 122.276C169.31 122.345 168.749 122.739 168.749 123.459C168.749 123.801 168.886 124.074 169.159 124.279C169.437 124.484 169.809 124.587 170.273 124.587ZM170.021 125.619C169.273 125.619 168.672 125.421 168.216 125.025C167.76 124.628 167.532 124.104 167.532 123.452C167.532 122.819 167.769 122.322 168.243 121.962C168.717 121.597 169.401 121.388 170.294 121.333L172.358 121.21V120.595C172.358 120.139 172.213 119.788 171.921 119.542C171.629 119.296 171.212 119.173 170.67 119.173C170.242 119.173 169.879 119.276 169.583 119.481C169.291 119.686 169.109 119.961 169.036 120.308H167.895C167.913 119.688 168.188 119.168 168.722 118.749C169.255 118.325 169.909 118.113 170.684 118.113C171.554 118.113 172.249 118.33 172.769 118.763C173.288 119.191 173.548 119.768 173.548 120.492V125.551H172.42V124.273H172.393C172.183 124.683 171.864 125.011 171.436 125.257C171.007 125.498 170.535 125.619 170.021 125.619ZM175.127 125.551V118.182H176.248V119.378H176.275C176.385 118.991 176.601 118.683 176.925 118.455C177.248 118.227 177.627 118.113 178.06 118.113C178.246 118.113 178.399 118.129 178.518 118.161V119.337C178.39 119.282 178.185 119.255 177.902 119.255C177.424 119.255 177.039 119.415 176.747 119.734C176.46 120.053 176.316 120.472 176.316 120.991V125.551H175.127ZM182.168 119.159C181.589 119.159 181.108 119.351 180.726 119.734C180.347 120.116 180.138 120.62 180.097 121.244H184.15C184.137 120.62 183.948 120.116 183.583 119.734C183.223 119.351 182.751 119.159 182.168 119.159ZM184.123 123.445H185.299C185.199 124.079 184.861 124.601 184.287 125.011C183.713 125.416 183.032 125.619 182.243 125.619C181.209 125.619 180.386 125.284 179.775 124.614C179.169 123.944 178.866 123.038 178.866 121.894C178.866 120.75 179.169 119.834 179.775 119.146C180.382 118.457 181.186 118.113 182.188 118.113C183.173 118.113 183.952 118.439 184.526 119.091C185.101 119.738 185.388 120.618 185.388 121.73V122.194H180.097V122.263C180.097 122.965 180.295 123.525 180.691 123.944C181.088 124.364 181.614 124.573 182.271 124.573C182.731 124.573 183.127 124.473 183.46 124.273C183.797 124.068 184.018 123.792 184.123 123.445ZM190.139 115.687H193.522C194.985 115.687 196.127 116.122 196.947 116.992C197.768 117.858 198.178 119.066 198.178 120.615C198.178 122.169 197.768 123.382 196.947 124.252C196.132 125.118 194.99 125.551 193.522 125.551H190.139V115.687ZM191.369 116.794V124.443H193.44C194.557 124.443 195.416 124.115 196.018 123.459C196.619 122.798 196.92 121.855 196.92 120.629C196.92 119.394 196.619 118.446 196.018 117.785C195.421 117.124 194.562 116.794 193.44 116.794H191.369ZM202.498 119.159C201.919 119.159 201.438 119.351 201.056 119.734C200.677 120.116 200.468 120.62 200.427 121.244H204.48C204.467 120.62 204.278 120.116 203.913 119.734C203.553 119.351 203.081 119.159 202.498 119.159ZM204.453 123.445H205.629C205.529 124.079 205.191 124.601 204.617 125.011C204.043 125.416 203.362 125.619 202.573 125.619C201.539 125.619 200.716 125.284 200.105 124.614C199.499 123.944 199.196 123.038 199.196 121.894C199.196 120.75 199.499 119.834 200.105 119.146C200.712 118.457 201.516 118.113 202.519 118.113C203.503 118.113 204.282 118.439 204.856 119.091C205.431 119.738 205.718 120.618 205.718 121.73V122.194H200.427V122.263C200.427 122.965 200.625 123.525 201.021 123.944C201.418 124.364 201.944 124.573 202.601 124.573C203.061 124.573 203.457 124.473 203.79 124.273C204.127 124.068 204.348 123.792 204.453 123.445ZM207.037 125.551V115.256H208.227V125.551H207.037ZM209.977 125.551V118.182H211.166V125.551H209.977ZM210.571 116.992C210.366 116.992 210.188 116.919 210.038 116.774C209.892 116.623 209.819 116.445 209.819 116.24C209.819 116.031 209.892 115.853 210.038 115.707C210.188 115.561 210.366 115.488 210.571 115.488C210.781 115.488 210.959 115.561 211.104 115.707C211.25 115.853 211.323 116.031 211.323 116.24C211.323 116.445 211.25 116.623 211.104 116.774C210.959 116.919 210.781 116.992 210.571 116.992ZM218.856 118.182L216.136 125.551H214.933L212.212 118.182H213.456L215.521 124.266H215.548L217.619 118.182H218.856ZM222.568 119.159C221.99 119.159 221.509 119.351 221.126 119.734C220.748 120.116 220.538 120.62 220.497 121.244H224.551C224.537 120.62 224.348 120.116 223.983 119.734C223.623 119.351 223.152 119.159 222.568 119.159ZM224.523 123.445H225.699C225.599 124.079 225.262 124.601 224.688 125.011C224.113 125.416 223.432 125.619 222.644 125.619C221.609 125.619 220.786 125.284 220.176 124.614C219.57 123.944 219.267 123.038 219.267 121.894C219.267 120.75 219.57 119.834 220.176 119.146C220.782 118.457 221.586 118.113 222.589 118.113C223.573 118.113 224.353 118.439 224.927 119.091C225.501 119.738 225.788 120.618 225.788 121.73V122.194H220.497V122.263C220.497 122.965 220.695 123.525 221.092 123.944C221.488 124.364 222.015 124.573 222.671 124.573C223.131 124.573 223.528 124.473 223.86 124.273C224.198 124.068 224.419 123.792 224.523 123.445ZM227.039 125.551V118.182H228.16V119.378H228.188C228.297 118.991 228.513 118.683 228.837 118.455C229.16 118.227 229.539 118.113 229.972 118.113C230.159 118.113 230.311 118.129 230.43 118.161V119.337C230.302 119.282 230.097 119.255 229.814 119.255C229.336 119.255 228.951 119.415 228.659 119.734C228.372 120.053 228.229 120.472 228.229 120.991V125.551H227.039ZM232.111 128.224C231.934 128.224 231.76 128.208 231.592 128.176V127.171C231.729 127.198 231.89 127.212 232.077 127.212C232.419 127.212 232.692 127.119 232.897 126.932C233.103 126.749 233.28 126.437 233.431 125.995L233.574 125.558L230.847 118.182H232.111L234.176 124.341H234.203L236.268 118.182H237.519L234.634 126.002C234.319 126.854 233.982 127.438 233.622 127.752C233.267 128.067 232.763 128.224 232.111 128.224Z" fill="black"/>
<defs>
<linearGradient id="paint0_linear" x1="157.339" y1="8.00012" x2="135.839" y2="50.0001" gradientUnits="userSpaceOnUse">
<stop stop-color="#2C4898"/>
<stop offset="1" stop-color="#2B9DD7"/>
</linearGradient>
<linearGradient id="paint1_linear" x1="155.44" y1="50.8395" x2="155.44" y2="4.19617e-05" gradientUnits="userSpaceOnUse">
<stop stop-color="#15A949"/>
<stop offset="1" stop-color="#A7CC34"/>
</linearGradient>
</defs>
</svg>
