<svg width="298" height="130" viewBox="0 0 298 130" fill="none" xmlns="http://www.w3.org/2000/svg">
<path fill-rule="evenodd" clip-rule="evenodd" d="M166.281 15.4269C162.116 10.5489 155.921 7.45619 149.004 7.45619C136.462 7.45619 126.296 17.623 126.296 30.1645C126.296 42.7059 136.462 52.8728 149.004 52.8728C149.425 52.8728 149.844 52.8613 150.259 52.8387C148.335 53.3043 146.326 53.551 144.259 53.551C130.22 53.551 118.839 42.1702 118.839 28.1313C118.839 14.0923 130.22 2.71155 144.259 2.71155C153.67 2.71155 161.886 7.82588 166.281 15.4269Z" fill="url(#paint0_linear)"/>
<path fill-rule="evenodd" clip-rule="evenodd" d="M131.719 38.1231C135.884 43.0017 142.079 46.0948 148.996 46.0948C161.538 46.0948 171.705 35.928 171.705 23.3866C171.705 10.8451 161.538 0.678268 148.996 0.678268C148.575 0.678268 148.156 0.689743 147.741 0.712391C149.665 0.246773 151.674 4.19617e-05 153.741 4.19617e-05C167.78 4.19617e-05 179.161 11.3808 179.161 25.4198C179.161 39.4587 167.78 50.8395 153.741 50.8395C144.33 50.8395 136.113 45.7247 131.719 38.1231Z" fill="url(#paint1_linear)"/>
<path d="M3.93203 82.6332C3.93203 78.5648 3.84016 77.9389 1.51171 77.6691L0.874335 77.5887C0.633164 77.448 0.716419 76.7503 0.95759 76.6039C2.65727 76.7503 4.02104 76.7503 5.62023 76.7503H13.108C15.6489 76.7503 17.9975 76.7503 18.4339 76.6039C18.6837 77.2527 18.9277 80.1382 19.0655 81.8723C18.9306 82.1307 18.2731 82.2169 18.0836 81.9843C17.495 80.0693 17.0787 78.7084 15.0632 78.1945C14.2249 77.9763 12.9645 77.9389 11.216 77.9389H8.37936C7.16202 77.9389 7.162 78.0624 7.162 79.541V87.5025C7.162 88.628 7.31418 88.628 8.48558 88.628H10.7566C12.462 88.628 13.6593 88.5304 14.1388 88.3495C14.5981 88.2059 14.9025 87.9389 15.1207 86.9656L15.4422 85.3033C15.6489 85.0707 16.2777 85.0707 16.4184 85.3865C16.4184 86.3627 16.2777 87.8758 16.2777 89.3974C16.2777 90.7899 16.4184 92.3116 16.4184 93.1873C16.2777 93.4801 15.6489 93.4801 15.4422 93.2189L15.0604 91.657C14.8996 90.9536 14.5952 90.3478 13.843 90.1525C13.2774 90.0176 12.3615 89.9516 10.7537 89.9516H8.48271C7.31131 89.9516 7.15914 90.0176 7.15914 91.0311V96.6182C7.15914 98.7543 7.3113 100.052 7.9372 100.735C8.39083 101.206 9.25215 101.663 12.729 101.663C15.7867 101.663 16.9036 101.508 17.8482 101.068C18.5258 100.684 19.5909 99.2654 20.6417 97.2269C20.88 97.0288 21.4715 97.158 21.595 97.4566C21.3279 98.8806 20.3432 101.947 19.8292 102.998C16.2375 102.94 12.729 102.854 9.25216 102.854H5.61736C3.92916 102.854 2.57689 102.94 0.251314 102.998C-0.0444075 102.854 -0.0903505 102.28 0.173789 102.016L1.43133 101.855C3.72532 101.737 3.92917 101.106 3.92917 96.9312V82.6332H3.93203Z" fill="#313081"/>
<path d="M27.5724 97.0832C27.5724 99.8078 28.2672 101.66 31.2847 101.66C32.347 101.66 33.6218 101.209 34.4917 100.445C34.9856 99.9629 35.2928 99.3858 35.2928 98.1311V91.6568C35.2928 89.0815 34.9856 88.9982 33.8256 88.5302L33.26 88.2747C33.0074 88.1369 33.0074 87.577 33.3462 87.4363C34.9425 87.4134 37.1217 87.1176 38.0347 86.7128C38.1954 86.776 38.2931 86.8449 38.3218 86.9655C38.2701 87.755 38.2385 88.9982 38.2385 90.4452V97.0832C38.2385 100.261 38.3218 101.419 39.4501 101.419C39.9411 101.419 40.4808 101.341 40.9747 101.206C41.2359 101.419 41.2761 102.228 40.9546 102.383C39.4329 102.688 37.1188 103.089 35.7464 103.87C35.5885 103.87 35.376 103.73 35.2928 103.575V101.947C35.2928 101.559 35.1837 101.384 34.9396 101.384C33.7539 102.151 31.7757 103.483 29.4874 103.483C25.979 103.483 24.6583 101.734 24.6583 98.5072V91.8865C24.6583 89.3915 24.6583 88.9925 23.4897 88.5245L22.9844 88.2689C22.7576 88.0622 22.7978 87.5339 23.0361 87.4306C24.8765 87.4076 26.4355 87.0114 27.3255 86.7071C27.5724 86.7702 27.6844 86.8391 27.6959 86.9597C27.6815 87.6545 27.5724 88.5245 27.5724 90.4395V97.0832Z" fill="#313081"/>
<path d="M45.4536 91.5048C45.4536 89.9486 45.4537 89.7821 44.4115 89.0787L44.0239 88.7801C43.8975 88.6681 43.8975 88.2432 44.1071 88.0681C44.9828 87.7953 47.1017 86.7732 48.0721 86.176C48.2731 86.2191 48.408 86.265 48.408 86.4689V88.7198C48.408 88.9581 48.4511 89.0816 48.5056 89.0816C49.9153 87.9417 51.3968 86.7129 52.8926 86.7129C53.8832 86.7129 54.6928 87.3474 54.6928 88.2777C54.6928 89.6156 53.6075 90.1439 52.9615 90.1439C52.5682 90.1439 52.3672 90.0204 52.0801 89.8625C51.526 89.472 50.8886 89.2424 50.323 89.2424C49.7373 89.2424 49.2579 89.584 48.9162 90.0204C48.5056 90.5401 48.408 91.7201 48.408 93.0551V98.4786C48.408 101.318 48.4827 101.826 50.0101 101.861L51.3997 102.022C51.7097 102.231 51.615 102.86 51.3365 103.003C49.4617 102.946 48.3678 102.86 46.9265 102.86C45.4938 102.86 44.3339 102.946 43.309 103.003C43.0477 102.86 42.9415 102.234 43.2056 102.022L43.975 101.861C45.4537 101.663 45.4536 101.318 45.4536 98.4786V91.5048Z" fill="#313081"/>
<path d="M72.4016 94.9673C72.4016 99.8568 68.9965 103.489 64.0209 103.489C59.4817 103.489 55.8929 100.262 55.8929 95.332C55.8929 90.2932 59.677 86.713 64.3367 86.713C68.7754 86.7101 72.4016 90.0147 72.4016 94.9673ZM63.8745 87.9389C61.236 87.9389 59.3066 90.4167 59.3066 94.8037C59.3066 98.3667 60.9575 102.283 64.4401 102.283C67.9285 102.283 68.9965 98.5677 68.9965 95.5588C68.9965 92.2025 67.65 87.9389 63.8745 87.9389Z" fill="#313081"/>
<path d="M77.2568 80.5343C77.2568 78.1943 77.231 77.9388 76.0337 77.2239L75.6547 77.0258C75.4336 76.8909 75.4336 76.2965 75.6547 76.1702C76.6223 75.8774 78.5029 75.263 79.9039 74.5509C80.0676 74.5509 80.2198 74.6514 80.3059 74.7778C80.3059 76.0094 80.1767 77.9417 80.1767 79.6729V88.0221C80.1767 88.3695 80.2198 88.7284 80.3604 88.7829C81.7931 87.6919 83.6765 86.7129 85.6806 86.7129C89.456 86.7129 90.837 89.0815 90.837 91.809V98.4757C90.837 101.315 90.9002 101.757 92.3185 101.858L93.3693 102.019C93.6794 102.228 93.6076 102.857 93.332 103.001C91.8821 102.943 90.7394 102.857 89.3756 102.857C87.9229 102.857 86.74 102.943 85.6806 103.001C85.3619 102.857 85.3131 102.231 85.5973 102.019L86.3524 101.858C87.8741 101.66 87.8741 101.315 87.8741 98.4757V92.8139C87.8741 90.2443 86.6768 88.5303 84.133 88.5303C82.7808 88.5303 81.7328 88.9982 81.0265 89.6126C80.3088 90.2299 80.1796 90.4137 80.1796 91.7861V98.4757C80.1796 101.315 80.3088 101.74 81.6926 101.858L82.5338 102.019C82.8411 102.191 82.7463 102.857 82.4822 103.001C81.2706 102.943 80.0992 102.857 78.7411 102.857C77.3286 102.857 76.1112 102.943 74.8479 103.001C74.5465 102.857 74.512 102.231 74.7848 102.019L75.7811 101.858C77.2309 101.754 77.2597 101.315 77.2597 98.4757V80.5343H77.2568Z" fill="#313081"/>
<path d="M99.3785 92.7707C98.3162 92.7707 98.2904 92.8109 98.2904 93.8617C98.2904 97.8095 100.613 101.206 104.874 101.206C106.183 101.206 107.274 100.793 108.497 99.2651C108.905 99.1991 109.146 99.4173 109.238 99.8049C107.906 102.435 105.069 103.486 102.993 103.486C100.415 103.486 98.3736 102.294 97.2281 100.793C96.0595 99.2651 95.5887 97.4564 95.5887 95.6878C95.5887 90.7868 98.7813 86.7099 103.553 86.7099C106.973 86.7099 109.143 89.0785 109.143 91.4357C109.143 92.0099 109.097 92.2769 109.028 92.4492C108.905 92.6932 108.322 92.7707 106.677 92.7707H99.3785ZM101.796 91.5677C104.759 91.5677 105.62 91.3811 105.902 91.1802C106.042 91.0452 106.186 90.9505 106.186 90.4136C106.186 89.3484 105.439 87.9358 103.097 87.9358C100.751 87.9358 98.7612 90.0116 98.6981 91.3639C98.6981 91.3639 98.6981 91.5677 98.9766 91.5677H101.796Z" fill="#313081"/>
<path d="M119.286 94.6858C119.863 94.4618 119.964 94.1173 119.964 93.5488L120.004 91.7142C120.093 90.2442 119.568 88.2746 117.119 88.2746C115.996 88.2746 114.598 88.7799 114.584 90.0145C114.506 90.7093 114.506 91.1802 114.176 91.3811C113.596 91.8893 112.511 92.1678 111.899 92.1678C111.552 92.1678 111.362 91.9668 111.362 91.6166C111.362 89.558 115.824 86.7099 118.764 86.7099C121.6 86.7099 122.993 88.3665 122.872 91.361L122.631 98.2373C122.568 100.055 122.895 101.737 124.431 101.737C124.848 101.737 125.186 101.559 125.436 101.464C125.614 101.341 125.83 101.206 125.947 101.206C126.128 101.206 126.243 101.418 126.243 101.737C126.243 101.855 124.851 103.486 122.895 103.486C121.939 103.486 120.983 103.092 120.303 102.228C120.171 101.947 119.941 101.657 119.677 101.657C119.404 101.657 118.893 102.019 118.141 102.435C117.271 102.943 116.424 103.486 115.316 103.486C114.147 103.486 113.188 103.13 112.508 102.535C111.761 101.855 111.319 100.887 111.319 99.8049C111.319 98.177 112.037 97.2812 114.584 96.3998L119.286 94.6858ZM116.837 101.66C117.607 101.66 118.836 101.071 119.272 100.683C119.751 100.175 119.751 99.6355 119.763 98.8287L119.826 96.463C119.826 96.0581 119.677 95.9605 119.476 95.9605C119.223 95.9605 118.554 96.127 117.825 96.3711C115.479 97.1606 114.331 97.7607 114.331 99.268C114.331 99.9628 114.816 101.66 116.837 101.66Z" fill="#313081"/>
<path d="M132.33 98.4757C132.33 101.315 132.402 101.74 133.826 101.858L134.836 102.019C135.069 102.228 134.997 102.857 134.727 103.001C133.398 102.943 132.232 102.857 130.848 102.857C129.441 102.857 128.215 102.943 127.03 103.001C126.78 102.857 126.674 102.231 126.987 102.019L127.897 101.858C129.352 101.74 129.404 101.315 129.404 98.4757V80.5343C129.404 78.1943 129.352 77.9388 128.141 77.2239L127.805 77.0258C127.555 76.8909 127.555 76.2965 127.805 76.1702C128.741 75.8774 130.65 75.263 132.066 74.5509C132.203 74.5509 132.364 74.6514 132.453 74.7778C132.402 76.0094 132.33 77.9417 132.33 79.6729V98.4757Z" fill="#313081"/>
<path d="M142.844 88.9551C142.149 88.9551 142.149 89.0786 142.149 89.9112V97.2813C142.149 99.604 142.428 101.737 144.997 101.737C145.431 101.737 145.758 101.657 146.071 101.508C146.447 101.387 146.941 100.956 147.064 100.956C147.377 100.956 147.549 101.384 147.446 101.657C146.766 102.435 145.296 103.486 143.289 103.486C139.941 103.486 139.238 101.545 139.238 99.202V90.0978C139.238 88.9953 139.152 88.9551 138.379 88.9551H137.208C136.99 88.78 136.978 88.3493 137.13 88.068C138.313 87.7521 139.269 87.2267 139.654 86.8707C140.177 86.3798 140.92 85.3003 141.331 84.5251C141.517 84.4676 141.988 84.4676 142.146 84.749V86.509C142.146 87.2239 142.206 87.2239 142.864 87.2239H147.274C147.785 87.6229 147.673 88.714 147.305 88.9523H142.844V88.9551Z" fill="#313081"/>
<path d="M151.311 80.5343C151.311 78.1943 151.311 77.9388 150.119 77.2239L149.694 77.0258C149.559 76.8909 149.559 76.2965 149.694 76.1702C150.693 75.8774 152.603 75.263 154.038 74.5509C154.17 74.5509 154.317 74.6514 154.423 74.7778C154.363 76.0094 154.268 77.9417 154.268 79.6729V88.0221C154.268 88.3695 154.317 88.7284 154.446 88.7829C155.867 87.6919 157.825 86.7129 159.812 86.7129C163.553 86.7129 164.9 89.0815 164.9 91.809V98.4757C164.9 101.315 165.023 101.757 166.387 101.858L167.489 102.019C167.771 102.228 167.673 102.857 167.406 103.001C165.959 102.943 164.856 102.857 163.447 102.857C162.014 102.857 160.82 102.943 159.766 103.001C159.502 102.857 159.413 102.231 159.714 102.019L160.469 101.858C161.939 101.66 161.954 101.315 161.954 98.4757V92.8139C161.954 90.2443 160.736 88.5303 158.207 88.5303C156.855 88.5303 155.87 88.9982 155.149 89.6126C154.423 90.2299 154.268 90.4137 154.268 91.7861V98.4757C154.268 101.315 154.363 101.74 155.784 101.858L156.654 102.019C156.915 102.191 156.852 102.857 156.519 103.001C155.37 102.943 154.205 102.857 152.827 102.857C151.374 102.857 150.22 102.943 148.91 103.001C148.689 102.857 148.58 102.231 148.862 102.019L149.832 101.858C151.311 101.754 151.311 101.315 151.311 98.4757V80.5343Z" fill="#313081"/>
<path d="M187.084 103.54C183.739 103.54 181.646 102.469 180.888 102.07C180.375 101.206 179.924 98.3667 179.803 96.5292C180.016 96.2105 180.616 96.1646 180.751 96.4029C181.348 98.4356 182.987 102.28 187.621 102.28C190.937 102.28 192.522 100.121 192.522 97.758C192.522 96.0296 192.175 94.04 189.312 92.1996L185.528 89.7247C183.561 88.4241 181.239 86.1732 181.239 82.8973C181.239 79.162 184.199 76.1014 189.309 76.1014C190.57 76.1014 192.02 76.2967 193.048 76.6039C193.536 76.7876 194.073 76.8163 194.411 76.8163C194.79 77.7782 195.161 80.0291 195.161 81.7058C194.994 81.9297 194.302 82.0216 194.127 81.7833C193.602 79.9056 192.519 77.3073 188.735 77.3073C184.848 77.3073 184.006 79.9056 184.006 81.7029C184.006 83.9854 185.921 85.7024 187.397 86.5866L190.567 88.6251C193.068 90.1382 195.542 92.415 195.542 96.2077C195.551 100.575 192.247 103.54 187.084 103.54Z" fill="#7AB72D"/>
<path d="M198.069 111.039C198.069 110.006 198.807 109.46 199.683 109.46H200.398C201.046 109.46 201.434 109.182 201.692 108.74C202.87 106.98 203.639 105.317 203.998 104.344C204.11 104.063 204.391 103.21 204.391 102.67C204.391 101.858 204.279 101.387 203.719 99.9456L200.604 91.4385C199.95 89.581 199.683 88.6277 198.296 88.3493L197.314 88.1368C197.099 87.9387 197.127 87.2266 197.417 87.1175C198.692 87.2266 199.898 87.2266 201.213 87.2266C202.244 87.2266 203.366 87.2266 204.607 87.1175C204.925 87.2266 204.991 87.9387 204.704 88.1368L203.722 88.3493C203.145 88.4497 202.872 88.6277 202.872 88.8689C202.872 89.3484 203.814 91.9668 204.001 92.5697L205.276 96.2103C205.497 96.8419 206.289 98.9608 206.421 99.067C206.519 98.9608 207.162 97.7607 207.903 96.127L209.249 93.0176C210.113 90.9562 210.616 89.4718 210.616 89.001C210.616 88.7225 210.398 88.4526 209.651 88.3521L208.474 88.1397C208.213 87.9415 208.218 87.2295 208.514 87.1204C209.812 87.2295 210.992 87.2295 212.017 87.2295C213.019 87.2295 213.94 87.2295 214.997 87.1204C215.339 87.2956 215.37 87.9415 215.08 88.1397L214.429 88.2775C213.131 88.533 212.433 89.6384 211.087 92.4549L208.859 97.0314C207.535 99.7274 204.291 106.592 202.379 110.887C201.678 112.418 200.713 112.774 199.826 112.774C198.661 112.771 198.069 112.062 198.069 111.039Z" fill="#7AB72D"/>
<path d="M225.327 87.4334C225.674 88.2718 225.959 89.5781 225.959 90.6461C225.821 90.9533 225.252 91.0136 225.028 90.7093C224.354 88.9981 223.159 87.8727 221.52 87.8727C220.004 87.8727 218.996 88.8689 218.996 90.2873C218.996 91.964 220.647 92.8109 222.065 93.5459C224.193 94.7977 226.131 96.1213 226.131 98.9292C226.131 101.944 223.329 103.483 220.389 103.483C218.58 103.483 217.133 103.046 216.134 102.277C215.832 101.505 215.557 99.5235 215.672 98.2344C215.875 98.0133 216.366 98.0019 216.596 98.177C217.222 100.388 218.577 102.28 220.771 102.28C222.209 102.28 223.426 101.464 223.426 99.8049C223.426 97.9473 221.873 96.9309 220.386 96.1242C218.063 94.8006 216.473 93.4397 216.473 91.272C216.473 88.3493 218.861 86.7099 221.876 86.7099C223.541 86.7099 224.954 87.1176 225.327 87.4334Z" fill="#7AB72D"/>
<path d="M234.446 88.9551C233.734 88.9551 233.702 89.0786 233.702 89.9112V97.2813C233.702 99.604 233.966 101.737 236.599 101.737C236.978 101.737 237.383 101.657 237.656 101.508C238.015 101.387 238.557 100.956 238.658 100.956C238.991 100.956 239.131 101.384 239.048 101.657C238.345 102.435 236.903 103.486 234.888 103.486C231.469 103.486 230.762 101.545 230.762 99.202V90.0978C230.762 88.9953 230.708 88.9551 229.924 88.9551H228.879C228.609 88.78 228.577 88.3493 228.701 88.068C229.832 87.7521 230.863 87.2267 231.224 86.8707C231.736 86.3798 232.502 85.3003 232.895 84.5251C233.091 84.4676 233.573 84.4676 233.734 84.749V86.509C233.734 87.2239 233.78 87.2239 234.446 87.2239H238.847C239.315 87.6229 239.232 88.714 238.862 88.9523H234.446V88.9551Z" fill="#7AB72D"/>
<path d="M244.607 92.7707C243.559 92.7707 243.541 92.8109 243.541 93.8617C243.541 97.8095 245.876 101.206 250.122 101.206C251.408 101.206 252.525 100.793 253.768 99.2651C254.147 99.1991 254.423 99.4173 254.503 99.8049C253.18 102.435 250.317 103.486 248.256 103.486C245.721 103.486 243.645 102.294 242.485 100.793C241.313 99.2651 240.866 97.4564 240.866 95.6878C240.866 90.7868 244.035 86.7099 248.77 86.7099C252.204 86.7099 254.423 89.0785 254.423 91.4357C254.423 92.0099 254.363 92.2769 254.274 92.4492C254.147 92.6932 253.61 92.7707 251.925 92.7707H244.607ZM247.079 91.5677C249.987 91.5677 250.894 91.3811 251.17 91.1802C251.288 91.0452 251.408 90.9505 251.408 90.4136C251.408 89.3484 250.642 87.9358 248.394 87.9358C245.999 87.9358 243.992 90.0116 243.966 91.3639C243.966 91.3639 243.966 91.5677 244.222 91.5677H247.079Z" fill="#7AB72D"/>
<path d="M280.047 92.6905C280.047 90.0147 278.859 88.6279 276.364 88.6279C274.833 88.6279 273.593 89.3486 273.108 90.0147C272.585 90.6032 272.462 91.0138 272.462 92.3977V98.4729C272.462 101.312 272.554 101.737 273.995 101.855L274.833 102.016C275.08 102.225 275.023 102.854 274.767 102.998C273.556 102.94 272.384 102.854 270.986 102.854C269.605 102.854 268.506 102.94 267.432 102.998C267.11 102.854 267.03 102.228 267.311 102.016L268.04 101.855C269.482 101.657 269.533 101.312 269.533 98.4729V92.6905C269.533 90.0147 268.362 88.6279 265.916 88.6279C264.265 88.6279 263.162 89.3486 262.545 90.0147C262.166 90.5343 261.991 91.031 261.991 92.2771V98.4729C261.991 101.312 262.034 101.657 263.435 101.855L264.17 102.016C264.48 102.225 264.423 102.854 264.147 102.998C263.022 102.94 261.914 102.854 260.481 102.854C259.083 102.854 257.911 102.94 256.665 102.998C256.361 102.854 256.272 102.228 256.591 102.016L257.512 101.855C258.997 101.737 259.019 101.312 259.019 98.4729V91.5048C259.019 89.9486 259.019 89.7821 257.943 89.0787L257.633 88.7801C257.435 88.6681 257.435 88.2432 257.659 88.0681C258.58 87.7953 260.828 86.7732 261.626 86.176C261.75 86.176 261.991 86.265 262.034 86.4689C261.991 87.3474 261.991 87.9389 261.991 88.2748C261.991 88.5303 262.143 88.7198 262.399 88.7198C263.897 87.692 265.744 86.7129 267.63 86.7129C269.688 86.7129 270.756 87.4364 271.885 89.0816C272.215 89.1189 272.516 88.9983 272.893 88.7198C274.452 87.6489 276.404 86.7129 278.241 86.7129C281.42 86.7129 282.99 88.9179 282.99 91.6569V98.4758C282.99 101.315 283.045 101.74 284.483 101.858L285.439 102.019C285.7 102.228 285.655 102.857 285.344 103.001C284.098 102.943 282.907 102.857 281.537 102.857C280.082 102.857 278.991 102.943 277.891 103.001C277.641 102.857 277.547 102.231 277.845 102.019L278.531 101.858C280.016 101.66 280.044 101.315 280.044 98.4758V92.6905H280.047Z" fill="#7AB72D"/>
<path d="M297.233 87.4334C297.586 88.2718 297.839 89.5781 297.839 90.6461C297.678 90.9533 297.127 91.0136 296.869 90.7093C296.217 88.9981 295.008 87.8727 293.435 87.8727C291.87 87.8727 290.871 88.8689 290.871 90.2873C290.871 91.964 292.487 92.8109 293.909 93.5459C296.019 94.7977 298 96.1213 298 98.9292C298 101.944 295.166 103.483 292.243 103.483C290.386 103.483 288.993 103.046 288.023 102.277C287.675 101.505 287.446 99.5235 287.515 98.2344C287.719 98.0133 288.232 98.0019 288.425 98.177C289.108 100.388 290.386 102.28 292.642 102.28C294.061 102.28 295.287 101.464 295.287 99.8049C295.287 97.9473 293.725 96.9309 292.246 96.1242C289.949 94.8006 288.339 93.4397 288.339 91.272C288.339 88.3493 290.713 86.7099 293.728 86.7099C295.376 86.7099 296.86 87.1176 297.233 87.4334Z" fill="#7AB72D"/>
<path d="M41.9423 125.774V117.229H45.0117V115.909H37.3349V117.229H40.4111V125.774H41.9423ZM45.1962 125.774H46.6796V121.344C46.6796 120.298 47.2949 119.621 48.2724 119.621C48.5663 119.621 48.8261 119.662 48.9492 119.71V118.322C48.8329 118.295 48.6484 118.275 48.4296 118.275C47.5546 118.275 46.871 118.774 46.6386 119.601H46.6113V118.35H45.1962V125.774ZM52.3261 124.666C51.4716 124.666 50.9179 124.256 50.9179 123.62C50.9179 122.964 51.4443 122.588 52.456 122.526L54.2607 122.403V122.984C54.2607 123.962 53.4267 124.666 52.3261 124.666ZM51.9296 125.849C52.9413 125.849 53.8642 125.343 54.2744 124.536H54.3085V125.774H55.7236V120.681C55.7236 119.211 54.5546 118.254 52.7431 118.254C51.0751 118.254 49.831 119.225 49.79 120.537H51.1777C51.3076 119.895 51.8954 119.478 52.7021 119.478C53.6933 119.478 54.2607 119.943 54.2607 120.79V121.364L52.2578 121.481C50.4257 121.597 49.4208 122.349 49.4208 123.648C49.4208 124.974 50.4462 125.849 51.9296 125.849ZM57.2138 125.774H58.6972V121.487C58.6972 120.318 59.3671 119.539 60.4882 119.539C61.5751 119.539 62.0947 120.168 62.0947 121.296V125.774H63.5781V121.016C63.5781 119.307 62.6415 118.268 61.0009 118.268C59.8525 118.268 59.1074 118.726 58.6562 119.601H58.6288V118.35H57.2138V125.774ZM64.9384 120.462C64.9384 121.487 65.6015 122.171 66.9413 122.499L68.2675 122.827C69.0468 123.026 69.3408 123.272 69.3408 123.743C69.3408 124.345 68.7597 124.728 67.8369 124.728C66.8935 124.728 66.3193 124.338 66.2031 123.627H64.7402C64.8495 124.967 66.0322 125.862 67.7617 125.862C69.5595 125.862 70.8173 124.946 70.8173 123.62C70.8173 122.526 70.2636 121.986 68.7665 121.624L67.5361 121.33C66.7499 121.139 66.3808 120.831 66.3808 120.38C66.3808 119.792 66.9413 119.402 67.7822 119.402C68.6298 119.402 69.1972 119.813 69.2587 120.469H70.6533C70.6191 119.177 69.4433 118.261 67.8163 118.261C66.1074 118.261 64.9384 119.156 64.9384 120.462ZM72.4648 125.774H73.9413V119.519H75.3564V118.35H73.9277V117.714C73.9345 117.078 74.1874 116.812 74.7958 116.812C74.9941 116.812 75.1992 116.832 75.3495 116.866V115.738C75.1103 115.697 74.8642 115.67 74.5976 115.67C73.0937 115.67 72.4648 116.278 72.4648 117.666V118.35H71.4394V119.519H72.4648V125.774ZM79.4648 125.862C81.6113 125.862 82.9716 124.4 82.9716 122.062C82.9716 119.724 81.6044 118.254 79.4648 118.254C77.3251 118.254 75.9511 119.731 75.9511 122.062C75.9511 124.4 77.3183 125.862 79.4648 125.862ZM79.4648 124.632C78.207 124.632 77.455 123.682 77.455 122.062C77.455 120.448 78.207 119.484 79.4648 119.484C80.7226 119.484 81.4677 120.442 81.4677 122.062C81.4677 123.682 80.7226 124.632 79.4648 124.632ZM84.1611 125.774H85.6445V121.344C85.6445 120.298 86.2597 119.621 87.2372 119.621C87.5312 119.621 87.791 119.662 87.914 119.71V118.322C87.7978 118.295 87.6132 118.275 87.3945 118.275C86.5195 118.275 85.8359 118.774 85.6035 119.601H85.5761V118.35H84.1611V125.774ZM88.8642 125.774H90.3476V121.221C90.3476 120.25 91.0038 119.539 91.9199 119.539C92.788 119.539 93.3417 120.086 93.3417 120.947V125.774H94.7978V121.166C94.7978 120.216 95.4404 119.539 96.3495 119.539C97.2724 119.539 97.7988 120.1 97.7988 121.07V125.774H99.2753V120.715C99.2753 119.232 98.3183 118.268 96.8554 118.268C95.7958 118.268 94.9208 118.815 94.5312 119.71H94.497C94.1962 118.787 93.4511 118.268 92.4189 118.268C91.4482 118.268 90.6484 118.774 90.3066 119.608H90.2792V118.35H88.8642V125.774ZM100.813 125.774H102.297V118.35H100.813V125.774ZM101.559 117.29C102.037 117.29 102.427 116.907 102.427 116.436C102.427 115.95 102.037 115.581 101.559 115.581C101.08 115.581 100.69 115.95 100.69 116.436C100.69 116.907 101.08 117.29 101.559 117.29ZM103.876 125.774H105.359V121.487C105.359 120.318 106.029 119.539 107.15 119.539C108.237 119.539 108.757 120.168 108.757 121.296V125.774H110.24V121.016C110.24 119.307 109.304 118.268 107.663 118.268C106.515 118.268 105.769 118.726 105.318 119.601H105.291V118.35H103.876V125.774ZM114.875 124.523C113.679 124.523 112.906 123.559 112.906 122.041C112.906 120.517 113.679 119.532 114.875 119.532C116.078 119.532 116.878 120.537 116.878 122.041C116.878 123.538 116.078 124.523 114.875 124.523ZM114.882 128.446C117.021 128.446 118.354 127.353 118.354 125.582V118.35H116.919V119.58H116.892C116.434 118.76 115.572 118.275 114.519 118.275C112.619 118.275 111.389 119.744 111.389 122.034C111.389 124.297 112.633 125.753 114.485 125.753C115.538 125.753 116.413 125.275 116.844 124.475H116.878V125.698C116.878 126.669 116.119 127.284 114.943 127.284C114.034 127.284 113.344 126.922 113.18 126.348H111.683C111.826 127.619 113.098 128.446 114.882 128.446ZM131.377 125.774V115.909H129.846V120.079H124.78V115.909H123.249V125.774H124.78V121.405H129.846V125.774H131.377ZM136.128 119.464C137.208 119.464 137.939 120.23 137.974 121.385H134.207C134.289 120.243 135.061 119.464 136.128 119.464ZM137.967 123.6C137.762 124.249 137.085 124.659 136.224 124.659C135.007 124.659 134.2 123.812 134.2 122.526V122.438H139.457V121.918C139.457 119.669 138.172 118.254 136.135 118.254C134.057 118.254 132.703 119.765 132.703 122.089C132.703 124.413 134.043 125.862 136.196 125.862C137.864 125.862 139.17 124.933 139.382 123.6H137.967ZM143.23 124.666C142.376 124.666 141.822 124.256 141.822 123.62C141.822 122.964 142.349 122.588 143.36 122.526L145.165 122.403V122.984C145.165 123.962 144.331 124.666 143.23 124.666ZM142.834 125.849C143.846 125.849 144.768 125.343 145.179 124.536H145.213V125.774H146.628V120.681C146.628 119.211 145.459 118.254 143.647 118.254C141.979 118.254 140.735 119.225 140.694 120.537H142.082C142.212 119.895 142.8 119.478 143.606 119.478C144.598 119.478 145.165 119.943 145.165 120.79V121.364L143.162 121.481C141.33 121.597 140.325 122.349 140.325 123.648C140.325 124.974 141.351 125.849 142.834 125.849ZM148.18 125.774H149.663V115.465H148.18V125.774ZM151.693 116.682V118.35H150.668V119.519H151.693V123.818C151.693 125.254 152.268 125.821 153.751 125.821C154.072 125.821 154.421 125.787 154.585 125.746V124.577C154.489 124.591 154.236 124.611 154.079 124.611C153.457 124.611 153.17 124.311 153.17 123.668V119.519H154.592V118.35H153.17V116.682H151.693ZM155.904 125.774H157.388V121.522C157.388 120.332 158.085 119.539 159.24 119.539C160.327 119.539 160.881 120.209 160.881 121.317V125.774H162.364V121.029C162.364 119.355 161.387 118.268 159.753 118.268C158.618 118.268 157.852 118.726 157.408 119.601H157.374V115.465H155.904V125.774ZM170.198 120.886C170.068 119.457 168.893 118.254 166.999 118.254C164.9 118.254 163.519 119.751 163.519 122.062C163.519 124.413 164.907 125.862 167.013 125.862C168.797 125.862 170.041 124.83 170.212 123.278H168.797C168.619 124.147 167.983 124.618 167.019 124.618C165.83 124.618 165.023 123.661 165.023 122.062C165.023 120.503 165.816 119.505 167.013 119.505C168.031 119.505 168.646 120.1 168.783 120.886H170.198ZM173.883 124.666C173.028 124.666 172.475 124.256 172.475 123.62C172.475 122.964 173.001 122.588 174.013 122.526L175.817 122.403V122.984C175.817 123.962 174.983 124.666 173.883 124.666ZM173.486 125.849C174.498 125.849 175.421 125.343 175.831 124.536H175.865V125.774H177.28V120.681C177.28 119.211 176.111 118.254 174.3 118.254C172.632 118.254 171.388 119.225 171.347 120.537H172.734C172.864 119.895 173.452 119.478 174.259 119.478C175.25 119.478 175.817 119.943 175.817 120.79V121.364L173.814 121.481C171.982 121.597 170.977 122.349 170.977 123.648C170.977 124.974 172.003 125.849 173.486 125.849ZM178.77 125.774H180.254V121.344C180.254 120.298 180.869 119.621 181.847 119.621C182.141 119.621 182.4 119.662 182.523 119.71V118.322C182.407 118.295 182.223 118.275 182.004 118.275C181.129 118.275 180.445 118.774 180.213 119.601H180.185V118.35H178.77V125.774ZM186.249 119.464C187.329 119.464 188.06 120.23 188.095 121.385H184.328C184.41 120.243 185.183 119.464 186.249 119.464ZM188.088 123.6C187.883 124.249 187.206 124.659 186.345 124.659C185.128 124.659 184.321 123.812 184.321 122.526V122.438H189.578V121.918C189.578 119.669 188.293 118.254 186.256 118.254C184.178 118.254 182.824 119.765 182.824 122.089C182.824 124.413 184.164 125.862 186.317 125.862C187.985 125.862 189.291 124.933 189.503 123.6H188.088ZM194.151 115.909V125.774H197.685C200.625 125.774 202.354 123.942 202.354 120.824C202.354 117.714 200.625 115.909 197.685 115.909H194.151ZM195.683 117.229H197.542C199.634 117.229 200.796 118.514 200.796 120.838C200.796 123.169 199.634 124.447 197.542 124.447H195.683V117.229ZM206.757 119.464C207.837 119.464 208.568 120.23 208.602 121.385H204.836C204.918 120.243 205.69 119.464 206.757 119.464ZM208.596 123.6C208.391 124.249 207.714 124.659 206.852 124.659C205.636 124.659 204.829 123.812 204.829 122.526V122.438H210.086V121.918C210.086 119.669 208.801 118.254 206.764 118.254C204.685 118.254 203.332 119.765 203.332 122.089C203.332 124.413 204.672 125.862 206.825 125.862C208.493 125.862 209.799 124.933 210.011 123.6H208.596ZM211.344 125.774H212.827V115.465H211.344V125.774ZM214.468 125.774H215.951V118.35H214.468V125.774ZM215.213 117.29C215.691 117.29 216.081 116.907 216.081 116.436C216.081 115.95 215.691 115.581 215.213 115.581C214.734 115.581 214.345 115.95 214.345 116.436C214.345 116.907 214.734 117.29 215.213 117.29ZM223.833 118.35H222.295L220.394 124.311H220.36L218.467 118.35H216.901L219.581 125.774H221.16L223.833 118.35ZM227.606 119.464C228.686 119.464 229.418 120.23 229.452 121.385H225.685C225.768 120.243 226.54 119.464 227.606 119.464ZM229.445 123.6C229.24 124.249 228.563 124.659 227.702 124.659C226.485 124.659 225.679 123.812 225.679 122.526V122.438H230.935V121.918C230.935 119.669 229.65 118.254 227.613 118.254C225.535 118.254 224.182 119.765 224.182 122.089C224.182 124.413 225.521 125.862 227.675 125.862C229.343 125.862 230.648 124.933 230.86 123.6H229.445ZM232.132 125.774H233.615V121.344C233.615 120.298 234.23 119.621 235.208 119.621C235.502 119.621 235.762 119.662 235.885 119.71V118.322C235.768 118.295 235.584 118.275 235.365 118.275C234.49 118.275 233.807 118.774 233.574 119.601H233.547V118.35H232.132V125.774ZM237.58 128.474C239.098 128.474 239.802 127.9 240.437 126.115L243.22 118.35H241.661L239.754 124.42H239.72L237.812 118.35H236.22L238.913 125.794L238.797 126.177C238.544 126.963 238.154 127.264 237.45 127.264C237.32 127.264 237.088 127.257 236.978 127.23V128.433C237.095 128.453 237.457 128.474 237.58 128.474Z" fill="black"/>
<defs>
<linearGradient id="paint0_linear" x1="157.339" y1="8.00012" x2="135.839" y2="50.0001" gradientUnits="userSpaceOnUse">
<stop stop-color="#2C4898"/>
<stop offset="1" stop-color="#2B9DD7"/>
</linearGradient>
<linearGradient id="paint1_linear" x1="155.44" y1="50.8395" x2="155.44" y2="4.19617e-05" gradientUnits="userSpaceOnUse">
<stop stop-color="#15A949"/>
<stop offset="1" stop-color="#A7CC34"/>
</linearGradient>
</defs>
</svg>
