<svg width="20" height="20" viewBox="0 0 20 20" fill="none" xmlns="http://www.w3.org/2000/svg">
<path d="M9.99988 5.20001C7.35989 5.20001 5.19989 7.36001 5.19989 10C5.19989 12.64 7.35989 14.8 9.99988 14.8C12.6399 14.8 14.7999 12.64 14.7999 10C14.7999 7.36001 12.6399 5.20001 9.99988 5.20001ZM9.99988 14.2C7.68987 14.2 5.79987 12.31 5.79987 10C5.79987 7.68999 7.68987 5.79999 9.99988 5.79999C12.3099 5.79999 14.1999 7.68999 14.1999 10C14.1999 12.31 12.3099 14.2 9.99988 14.2Z" fill="#333333"/>
<path d="M9.99996 6.69999C8.16997 6.69999 6.69995 8.16997 6.69995 10C6.69995 11.83 8.16993 13.3 9.99996 13.3C11.83 13.3 13.3 11.83 13.3 10C13.3 8.16997 11.8299 6.69999 9.99996 6.69999ZM9.99996 12.7C8.49995 12.7 7.29996 11.5 7.29996 10C7.29996 8.49999 8.49995 7.3 9.99996 7.3C11.5 7.3 12.7 8.49999 12.7 10C12.7 11.5 11.5 12.7 9.99996 12.7Z" fill="#333333"/>
<path fill-rule="evenodd" clip-rule="evenodd" d="M16.5999 13.87C16.5999 15.37 15.3699 16.6 13.8699 16.6H6.12989C4.62988 16.6 3.3999 15.37 3.3999 13.87V6.13C3.3999 4.62999 4.62992 3.40001 6.12989 3.40001H13.8699C15.3699 3.40001 16.5999 4.63002 16.5999 6.13V13.87ZM5.19989 10C5.19989 7.36001 7.35989 5.20001 9.99988 5.20001C12.6399 5.20001 14.7999 7.36001 14.7999 10C14.7999 12.64 12.6399 14.8 9.99988 14.8C7.35989 14.8 5.19989 12.64 5.19989 10ZM13.8999 5.20001C13.8999 4.69 14.2899 4.30001 14.7999 4.30001C15.31 4.30001 15.6999 4.69 15.6999 5.20001C15.6999 5.71003 15.31 6.10001 14.7999 6.10001C14.2899 6.10001 13.8999 5.71003 13.8999 5.20001Z" fill="#333333"/>
<path d="M9.99996 12.7C8.49995 12.7 7.29996 11.5 7.29996 10C7.29996 8.49999 8.49995 7.3 9.99996 7.3C11.5 7.3 12.7 8.49999 12.7 10C12.7 11.5 11.5 12.7 9.99996 12.7Z" fill="#333333"/>
<path fill-rule="evenodd" clip-rule="evenodd" d="M13.87 1H6.13C3.31001 1 1 3.31001 1 6.13V13.87C1 16.69 3.31001 19 6.13 19H13.87C16.69 19 19 16.69 19 13.87V6.13C19 3.31001 16.69 1 13.87 1ZM13.87 18.4C16.36 18.4 18.4 16.36 18.4 13.87V6.13C18.4 3.64002 16.36 1.60001 13.87 1.60001H6.13C3.64002 1.60001 1.60001 3.63999 1.60001 6.13V13.87C1.60001 16.36 3.63999 18.4 6.13 18.4H13.87Z" fill="#333333"/>
<path fill-rule="evenodd" clip-rule="evenodd" d="M18.4 13.87C18.4 16.36 16.36 18.4 13.87 18.4H6.13C3.63999 18.4 1.60001 16.36 1.60001 13.87V6.13C1.60001 3.63999 3.64002 1.60001 6.13 1.60001H13.87C16.36 1.60001 18.4 3.64002 18.4 6.13V13.87ZM6.12989 2.8H13.8699C15.6999 2.8 17.1999 4.30001 17.1999 6.13V13.87C17.1999 15.7 15.6999 17.2 13.8699 17.2H6.12989C4.2999 17.2 2.79989 15.7 2.79989 13.87V6.13C2.79989 4.30001 4.2999 2.8 6.12989 2.8Z" fill="#333333"/>
</svg>
