<svg width="381" height="54" viewBox="0 0 381 54" fill="none" xmlns="http://www.w3.org/2000/svg">
<path d="M86.932 8.08201C86.932 4.01369 86.8401 3.3878 84.5116 3.11791L83.8743 3.03751C83.6331 2.89683 83.7164 2.19916 83.9575 2.05273C85.6572 2.19916 87.021 2.19916 88.6202 2.19916H96.108C98.6489 2.19916 100.997 2.19916 101.434 2.05273C101.684 2.7016 101.928 5.58705 102.065 7.32119C101.931 7.57958 101.273 7.6657 101.084 7.43315C100.495 5.51813 100.079 4.15725 98.0632 3.64333C97.2248 3.42512 95.9644 3.3878 94.2159 3.3878H91.3793C90.162 3.3878 90.1619 3.51126 90.1619 4.98987V12.9514C90.1619 14.0768 90.3141 14.0768 91.4855 14.0768H93.7565C95.462 14.0768 96.6592 13.9792 97.1387 13.7984C97.5981 13.6548 97.9024 13.3878 98.1206 12.4145L98.4422 10.7521C98.6489 10.5196 99.2776 10.5196 99.4183 10.8354C99.4183 11.8116 99.2776 13.3246 99.2776 14.8463C99.2776 16.2388 99.4183 17.7604 99.4183 18.6361C99.2776 18.929 98.6489 18.929 98.4422 18.6677L98.0603 17.1058C97.8995 16.4024 97.5952 15.7966 96.843 15.6014C96.2774 15.4664 95.3615 15.4004 93.7537 15.4004H91.4826C90.3112 15.4004 90.1591 15.4664 90.1591 16.4799V22.0671C90.1591 24.2032 90.3112 25.5009 90.9371 26.1842C91.3908 26.6551 92.2521 27.1116 95.729 27.1116C98.7867 27.1116 99.9035 26.9565 100.848 26.5173C101.526 26.1325 102.591 24.7142 103.642 22.6757C103.88 22.4776 104.471 22.6068 104.595 22.9054C104.328 24.3295 103.343 27.3958 102.829 28.4466C99.2374 28.3892 95.729 28.3031 92.2521 28.3031H88.6173C86.9291 28.3031 85.5768 28.3892 83.2513 28.4466C82.9555 28.3031 82.9096 27.7289 83.1737 27.4647L84.4313 27.3039C86.7253 27.1862 86.9291 26.5546 86.9291 22.38V8.08201H86.932Z" fill="white"/>
<path d="M110.572 22.5324C110.572 25.257 111.267 27.1089 114.285 27.1089C115.347 27.1089 116.622 26.6581 117.492 25.8944C117.985 25.4121 118.293 24.835 118.293 23.5803V17.106C118.293 14.5306 117.985 14.4474 116.825 13.9794L116.26 13.7239C116.007 13.5861 116.007 13.0262 116.346 12.8855C117.942 12.8625 120.121 12.5668 121.034 12.162C121.195 12.2252 121.293 12.2941 121.322 12.4147C121.27 13.2042 121.238 14.4474 121.238 15.8944V22.5324C121.238 25.7106 121.322 26.8677 122.45 26.8677C122.941 26.8677 123.481 26.7902 123.974 26.6552C124.236 26.8677 124.276 27.6773 123.954 27.8324C122.433 28.1367 120.119 28.5387 118.746 29.3196C118.588 29.3196 118.376 29.1789 118.293 29.0239V27.396C118.293 27.0084 118.183 26.8332 117.939 26.8332C116.754 27.5998 114.776 28.932 112.487 28.932C108.979 28.932 107.658 27.1835 107.658 23.9564V17.3357C107.658 14.8407 107.658 14.4416 106.49 13.9737L105.984 13.7181C105.757 13.5114 105.798 12.9831 106.036 12.8798C107.876 12.8568 109.435 12.4606 110.325 12.1562C110.572 12.2194 110.684 12.2883 110.696 12.4089C110.681 13.1037 110.572 13.9736 110.572 15.8887V22.5324Z" fill="white"/>
<path d="M128.454 16.9537C128.454 15.3976 128.454 15.2311 127.412 14.5277L127.024 14.2291C126.898 14.1171 126.898 13.6922 127.107 13.517C127.983 13.2443 130.102 12.2222 131.072 11.625C131.273 11.6681 131.408 11.714 131.408 11.9178V14.1688C131.408 14.4071 131.451 14.5305 131.506 14.5305C132.915 13.3907 134.397 12.1619 135.893 12.1619C136.883 12.1619 137.693 12.7964 137.693 13.7266C137.693 15.0646 136.608 15.5928 135.962 15.5928C135.568 15.5928 135.367 15.4694 135.08 15.3115C134.526 14.921 133.889 14.6913 133.323 14.6913C132.737 14.6913 132.258 15.033 131.916 15.4694C131.506 15.9891 131.408 17.1691 131.408 18.5041V23.9276C131.408 26.7671 131.483 27.2753 133.01 27.3097L134.4 27.4705C134.71 27.6801 134.615 28.3089 134.337 28.4524C132.462 28.395 131.368 28.3089 129.927 28.3089C128.494 28.3089 127.334 28.395 126.309 28.4524C126.048 28.3089 125.942 27.683 126.206 27.4705L126.975 27.3097C128.454 27.1116 128.454 26.7671 128.454 23.9276V16.9537Z" fill="white"/>
<path d="M155.401 20.4165C155.401 25.3059 151.996 28.9379 147.021 28.9379C142.481 28.9379 138.893 25.7108 138.893 20.7811C138.893 15.7424 142.677 12.1621 147.336 12.1621C151.775 12.1592 155.401 15.4639 155.401 20.4165ZM146.874 13.3881C144.236 13.3881 142.306 15.8658 142.306 20.2528C142.306 23.8158 143.957 27.732 147.44 27.732C150.928 27.732 151.996 24.0168 151.996 21.0079C151.996 17.6516 150.65 13.3881 146.874 13.3881Z" fill="white"/>
<path d="M160.257 5.98333C160.257 3.6434 160.231 3.38788 159.034 2.67298L158.655 2.47487C158.434 2.33993 158.434 1.74561 158.655 1.61928C159.622 1.32643 161.503 0.712029 162.904 0C163.068 0 163.22 0.100482 163.306 0.226809C163.306 1.4585 163.177 3.39074 163.177 5.12201V13.4711C163.177 13.8185 163.22 14.1774 163.361 14.232C164.793 13.141 166.677 12.1619 168.681 12.1619C172.456 12.1619 173.837 14.5306 173.837 17.2581V23.9247C173.837 26.7642 173.9 27.2064 175.319 27.3069L176.369 27.4677C176.68 27.6773 176.608 28.306 176.332 28.4496C174.882 28.3922 173.74 28.306 172.376 28.306C170.923 28.306 169.74 28.3922 168.681 28.4496C168.362 28.306 168.313 27.6801 168.597 27.4677L169.353 27.3069C170.874 27.1088 170.874 26.7642 170.874 23.9247V18.263C170.874 15.6933 169.677 13.9793 167.133 13.9793C165.781 13.9793 164.733 14.4473 164.027 15.0617C163.309 15.679 163.18 15.8627 163.18 17.2351V23.9247C163.18 26.7642 163.309 27.1892 164.693 27.3069L165.534 27.4677C165.841 27.6399 165.746 28.306 165.482 28.4496C164.271 28.3922 163.099 28.306 161.741 28.306C160.329 28.306 159.111 28.3922 157.848 28.4496C157.547 28.306 157.512 27.6801 157.785 27.4677L158.781 27.3069C160.231 27.2035 160.26 26.7642 160.26 23.9247V5.98333H160.257Z" fill="white"/>
<path d="M182.379 18.22C181.316 18.22 181.291 18.2602 181.291 19.311C181.291 23.2588 183.613 26.6553 187.874 26.6553C189.183 26.6553 190.274 26.2418 191.497 24.7144C191.905 24.6484 192.146 24.8666 192.238 25.2542C190.906 27.8841 188.069 28.9349 185.993 28.9349C183.415 28.9349 181.374 27.7434 180.228 26.2418C179.06 24.7144 178.589 22.9057 178.589 21.1371C178.589 16.2361 181.782 12.1592 186.553 12.1592C189.973 12.1592 192.143 14.5278 192.143 16.885C192.143 17.4592 192.097 17.7262 192.028 17.8985C191.905 18.1425 191.322 18.22 189.677 18.22H182.379ZM184.796 17.0171C187.759 17.0171 188.62 16.8304 188.902 16.6295C189.042 16.4945 189.186 16.3998 189.186 15.8629C189.186 14.7977 188.44 13.3851 186.097 13.3851C183.751 13.3851 181.761 15.4609 181.698 16.8132C181.698 16.8132 181.698 17.0171 181.977 17.0171H184.796Z" fill="white"/>
<path d="M202.287 20.1351C202.864 19.9111 202.964 19.5666 202.964 18.9981L203.004 17.1635C203.093 15.6935 202.568 13.7239 200.119 13.7239C198.996 13.7239 197.598 14.2292 197.584 15.4638C197.506 16.1586 197.506 16.6295 197.176 16.8304C196.596 17.3386 195.511 17.6171 194.899 17.6171C194.552 17.6171 194.362 17.4161 194.362 17.0659C194.362 15.0073 198.824 12.1592 201.764 12.1592C204.601 12.1592 205.993 13.8158 205.873 16.8103L205.631 23.6866C205.568 25.504 205.896 27.1864 207.432 27.1864C207.848 27.1864 208.187 27.0084 208.436 26.9137C208.614 26.7902 208.83 26.6553 208.948 26.6553C209.128 26.6553 209.243 26.8678 209.243 27.1864C209.243 27.3042 207.851 28.9349 205.896 28.9349C204.939 28.9349 203.983 28.5416 203.303 27.6774C203.171 27.396 202.941 27.106 202.677 27.106C202.404 27.106 201.893 27.4678 201.141 27.8841C200.271 28.3923 199.424 28.9349 198.316 28.9349C197.147 28.9349 196.188 28.5789 195.508 27.9846C194.761 27.3042 194.319 26.3366 194.319 25.2542C194.319 23.6263 195.037 22.7305 197.584 21.8491L202.287 20.1351ZM199.838 27.1089C200.607 27.1089 201.836 26.5203 202.272 26.1327C202.752 25.6246 202.752 25.0848 202.763 24.278L202.826 21.9123C202.826 21.5074 202.677 21.4098 202.476 21.4098C202.223 21.4098 201.554 21.5763 200.825 21.8204C198.48 22.6099 197.331 23.21 197.331 24.7173C197.331 25.4121 197.816 27.1089 199.838 27.1089Z" fill="white"/>
<path d="M215.329 23.9247C215.329 26.7642 215.401 27.1892 216.825 27.3069L217.836 27.4677C218.068 27.6773 217.996 28.306 217.727 28.4496C216.397 28.3922 215.232 28.306 213.848 28.306C212.441 28.306 211.215 28.3922 210.029 28.4496C209.779 28.306 209.673 27.6801 209.986 27.4677L210.896 27.3069C212.352 27.1892 212.404 26.7642 212.404 23.9247V5.98333C212.404 3.6434 212.352 3.38788 211.14 2.67298L210.804 2.47487C210.555 2.33993 210.555 1.74561 210.804 1.61928C211.74 1.32643 213.65 0.712029 215.065 0C215.203 0 215.364 0.100482 215.453 0.226809C215.401 1.4585 215.329 3.39074 215.329 5.12201V23.9247Z" fill="white"/>
<path d="M225.844 14.4046C225.149 14.4046 225.149 14.5281 225.149 15.3607V22.7307C225.149 25.0535 225.428 27.1867 227.997 27.1867C228.431 27.1867 228.758 27.1063 229.071 26.957C229.447 26.8364 229.941 26.4057 230.064 26.4057C230.377 26.4057 230.55 26.8335 230.446 27.1063C229.766 27.8843 228.296 28.9352 226.289 28.9352C222.941 28.9352 222.238 26.9943 222.238 24.6515V15.5473C222.238 14.4448 222.152 14.4046 221.379 14.4046H220.208C219.99 14.2295 219.978 13.7988 220.13 13.5174C221.313 13.2016 222.269 12.6762 222.654 12.3202C223.177 11.8292 223.92 10.7497 224.331 9.97451C224.517 9.91709 224.988 9.91708 225.146 10.1985V11.9584C225.146 12.6733 225.207 12.6733 225.864 12.6733H230.274C230.785 13.0724 230.673 14.1634 230.306 14.4017H225.844V14.4046Z" fill="white"/>
<path d="M234.311 5.98333C234.311 3.6434 234.311 3.38788 233.119 2.67298L232.695 2.47487C232.56 2.33993 232.56 1.74561 232.695 1.61928C233.694 1.32643 235.603 0.712029 237.038 0C237.171 0 237.317 0.100482 237.423 0.226809C237.363 1.4585 237.268 3.39074 237.268 5.12201V13.4711C237.268 13.8185 237.317 14.1774 237.446 14.232C238.867 13.141 240.825 12.1619 242.812 12.1619C246.553 12.1619 247.9 14.5306 247.9 17.2581V23.9247C247.9 26.7642 248.023 27.2064 249.387 27.3069L250.489 27.4677C250.771 27.6773 250.673 28.306 250.406 28.4496C248.959 28.3922 247.857 28.306 246.447 28.306C245.014 28.306 243.82 28.3922 242.766 28.4496C242.502 28.306 242.413 27.6801 242.715 27.4677L243.47 27.3069C244.94 27.1088 244.954 26.7642 244.954 23.9247V18.263C244.954 15.6933 243.737 13.9793 241.207 13.9793C239.855 13.9793 238.87 14.4473 238.15 15.0617C237.423 15.679 237.268 15.8627 237.268 17.2351V23.9247C237.268 26.7642 237.363 27.1892 238.784 27.3069L239.654 27.4677C239.915 27.6399 239.852 28.306 239.519 28.4496C238.371 28.3922 237.205 28.306 235.827 28.306C234.374 28.306 233.22 28.3922 231.911 28.4496C231.69 28.306 231.581 27.6801 231.862 27.4677L232.832 27.3069C234.311 27.2035 234.311 26.7642 234.311 23.9247V5.98333Z" fill="white"/>
<path d="M270.084 28.9897C266.739 28.9897 264.646 27.9188 263.888 27.5197C263.374 26.6556 262.923 23.8161 262.803 21.9786C263.015 21.6599 263.615 21.6139 263.75 21.8522C264.347 23.885 265.987 27.7293 270.621 27.7293C273.937 27.7293 275.522 25.5703 275.522 23.2074C275.522 21.479 275.174 19.4893 272.312 17.649L268.528 15.1741C266.561 13.8735 264.238 11.6226 264.238 8.34665C264.238 4.61137 267.198 1.55078 272.309 1.55078C273.569 1.55078 275.019 1.74602 276.047 2.05322C276.535 2.23697 277.072 2.26568 277.411 2.26568C277.79 3.22749 278.16 5.47843 278.16 7.15515C277.994 7.37909 277.302 7.47097 277.127 7.23267C276.601 5.35498 275.519 2.75664 271.735 2.75664C267.847 2.75664 267.006 5.35497 267.006 7.15227C267.006 9.43478 268.921 11.1517 270.397 12.036L273.566 14.0745C276.067 15.5875 278.542 17.8643 278.542 21.657C278.551 26.0239 275.246 28.9897 270.084 28.9897Z" fill="white"/>
<path d="M281.069 36.4883C281.069 35.4547 281.807 34.9092 282.683 34.9092H283.397C284.046 34.9092 284.434 34.6307 284.692 34.1886C285.869 32.4286 286.639 30.7662 286.998 29.7929C287.11 29.5116 287.391 28.6589 287.391 28.1191C287.391 27.3066 287.279 26.8357 286.719 25.3944L283.604 16.8874C282.95 15.0298 282.683 14.0766 281.296 13.7981L280.314 13.5857C280.099 13.3876 280.127 12.6755 280.417 12.5664C281.692 12.6755 282.898 12.6755 284.213 12.6755C285.244 12.6755 286.366 12.6755 287.606 12.5664C287.925 12.6755 287.991 13.3876 287.704 13.5857L286.722 13.7981C286.145 13.8986 285.872 14.0766 285.872 14.3178C285.872 14.7972 286.814 17.4157 287.001 18.0186L288.275 21.6591C288.496 22.2908 289.289 24.4096 289.421 24.5159C289.519 24.4096 290.162 23.2095 290.902 21.5759L292.249 18.4665C293.113 16.4051 293.616 14.9207 293.616 14.4498C293.616 14.1713 293.397 13.9015 292.651 13.801L291.474 13.5885C291.213 13.3904 291.218 12.6784 291.514 12.5693C292.812 12.6784 293.992 12.6784 295.017 12.6784C296.019 12.6784 296.94 12.6784 297.997 12.5693C298.339 12.7444 298.37 13.3904 298.08 13.5885L297.428 13.7263C296.131 13.9819 295.433 15.0872 294.086 17.9038L291.859 22.4803C290.535 25.1762 287.291 32.041 285.379 36.3361C284.678 37.8664 283.713 38.2224 282.826 38.2224C281.66 38.2195 281.069 37.5104 281.069 36.4883Z" fill="white"/>
<path d="M308.327 12.8827C308.674 13.7211 308.958 15.0274 308.958 16.0954C308.82 16.4026 308.252 16.4629 308.028 16.1586C307.353 14.4474 306.159 13.322 304.52 13.322C303.004 13.322 301.996 14.3182 301.996 15.7366C301.996 17.4133 303.647 18.2602 305.065 18.9952C307.193 20.247 309.131 21.5706 309.131 24.3785C309.131 27.3932 306.328 28.9321 303.388 28.9321C301.58 28.9321 300.133 28.4957 299.133 27.7262C298.832 26.9539 298.556 24.9728 298.671 23.6837C298.875 23.4626 299.366 23.4512 299.596 23.6263C300.222 25.837 301.577 27.7291 303.77 27.7291C305.209 27.7291 306.426 26.9137 306.426 25.2542C306.426 23.3966 304.873 22.3802 303.385 21.5735C301.063 20.2499 299.472 18.889 299.472 16.7213C299.472 13.7986 301.861 12.1592 304.876 12.1592C306.541 12.1592 307.953 12.5669 308.327 12.8827Z" fill="white"/>
<path d="M317.446 14.4046C316.734 14.4046 316.702 14.5281 316.702 15.3607V22.7307C316.702 25.0535 316.967 27.1867 319.599 27.1867C319.978 27.1867 320.383 27.1063 320.656 26.957C321.015 26.8364 321.557 26.4057 321.658 26.4057C321.991 26.4057 322.132 26.8335 322.048 27.1063C321.345 27.8843 319.904 28.9352 317.888 28.9352C314.469 28.9352 313.762 26.9943 313.762 24.6515V15.5473C313.762 14.4448 313.708 14.4046 312.924 14.4046H311.879C311.609 14.2295 311.578 13.7988 311.701 13.5174C312.832 13.2016 313.863 12.6762 314.225 12.3202C314.736 11.8292 315.502 10.7497 315.896 9.97451C316.091 9.91709 316.573 9.91708 316.734 10.1985V11.9584C316.734 12.6733 316.78 12.6733 317.446 12.6733H321.847C322.315 13.0724 322.232 14.1634 321.862 14.4017H317.446V14.4046Z" fill="white"/>
<path d="M327.606 18.22C326.558 18.22 326.541 18.2602 326.541 19.311C326.541 23.2588 328.875 26.6553 333.122 26.6553C334.408 26.6553 335.525 26.2418 336.768 24.7144C337.147 24.6484 337.422 24.8666 337.503 25.2542C336.179 27.8841 333.317 28.9349 331.255 28.9349C328.72 28.9349 326.644 27.7434 325.485 26.2418C324.313 24.7144 323.865 22.9057 323.865 21.1371C323.865 16.2361 327.035 12.1592 331.769 12.1592C335.203 12.1592 337.423 14.5278 337.423 16.885C337.423 17.4592 337.362 17.7262 337.273 17.8985C337.147 18.1425 336.61 18.22 334.925 18.22H327.606ZM330.078 17.0171C332.987 17.0171 333.894 16.8304 334.17 16.6295C334.287 16.4945 334.408 16.3998 334.408 15.8629C334.408 14.7977 333.641 13.3851 331.393 13.3851C328.999 13.3851 326.992 15.4609 326.966 16.8132C326.966 16.8132 326.966 17.0171 327.222 17.0171H330.078Z" fill="white"/>
<path d="M363.048 18.1395C363.048 15.4636 361.859 14.0769 359.364 14.0769C357.834 14.0769 356.593 14.7975 356.108 15.4636C355.586 16.0522 355.462 16.4628 355.462 17.8466V23.9219C355.462 26.7614 355.554 27.1863 356.995 27.304L357.834 27.4648C358.081 27.6744 358.023 28.3031 357.768 28.4467C356.556 28.3893 355.385 28.3031 353.987 28.3031C352.606 28.3031 351.506 28.3893 350.432 28.4467C350.111 28.3031 350.03 27.6772 350.312 27.4648L351.041 27.304C352.482 27.1059 352.534 26.7614 352.534 23.9219V18.1395C352.534 15.4636 351.362 14.0769 348.916 14.0769C347.265 14.0769 346.163 14.7975 345.546 15.4636C345.167 15.9833 344.991 16.48 344.991 17.7261V23.9219C344.991 26.7614 345.034 27.1059 346.436 27.304L347.171 27.4648C347.481 27.6744 347.423 28.3031 347.148 28.4467C346.022 28.3893 344.914 28.3031 343.481 28.3031C342.083 28.3031 340.912 28.3893 339.666 28.4467C339.361 28.3031 339.272 27.6772 339.591 27.4648L340.513 27.304C341.997 27.1863 342.02 26.7614 342.02 23.9219V16.9537C342.02 15.3976 342.02 15.2311 340.943 14.5277L340.633 14.2291C340.435 14.1171 340.435 13.6922 340.659 13.517C341.581 13.2443 343.829 12.2222 344.627 11.625C344.75 11.625 344.991 11.714 345.034 11.9178C344.991 12.7964 344.991 13.3878 344.991 13.7238C344.991 13.9793 345.144 14.1688 345.399 14.1688C346.898 13.1409 348.744 12.1619 350.63 12.1619C352.689 12.1619 353.757 12.8854 354.885 14.5305C355.215 14.5679 355.517 14.4473 355.893 14.1688C357.452 13.0979 359.404 12.1619 361.242 12.1619C364.42 12.1619 365.991 14.3669 365.991 17.1059V23.9247C365.991 26.7642 366.045 27.1892 367.484 27.3069L368.44 27.4676C368.701 27.6772 368.655 28.306 368.345 28.4496C367.099 28.3921 365.907 28.306 364.538 28.306C363.082 28.306 361.991 28.3921 360.892 28.4496C360.642 28.306 360.547 27.6801 360.846 27.4676L361.532 27.3069C363.016 27.1088 363.045 26.7642 363.045 23.9247V18.1395H363.048Z" fill="white"/>
<path d="M380.233 12.8827C380.586 13.7211 380.839 15.0274 380.839 16.0954C380.678 16.4026 380.127 16.4629 379.868 16.1586C379.216 14.4474 378.008 13.322 376.434 13.322C374.87 13.322 373.87 14.3182 373.87 15.7366C373.87 17.4133 375.487 18.2602 376.908 18.9952C379.018 20.247 380.999 21.5706 380.999 24.3785C380.999 27.3932 378.166 28.9321 375.243 28.9321C373.385 28.9321 371.993 28.4957 371.022 27.7262C370.675 26.9539 370.445 24.9728 370.514 23.6837C370.718 23.4626 371.232 23.4512 371.424 23.6263C372.108 25.837 373.385 27.7291 375.642 27.7291C377.06 27.7291 378.286 26.9137 378.286 25.2542C378.286 23.3966 376.724 22.3802 375.246 21.5735C372.949 20.2499 371.338 18.889 371.338 16.7213C371.338 13.7986 373.713 12.1592 376.727 12.1592C378.375 12.1592 379.86 12.5669 380.233 12.8827Z" fill="white"/>
<path fill-rule="evenodd" clip-rule="evenodd" d="M47.4419 15.4272C43.2768 10.5492 37.0821 7.45655 30.1651 7.45655C17.6236 7.45655 7.45678 17.6234 7.45678 30.1648C7.45678 42.7063 17.6236 52.8731 30.1651 52.8731C30.5862 52.8731 31.0047 52.8617 31.4202 52.839C29.4962 53.3046 27.4868 53.5513 25.4197 53.5513C11.3808 53.5513 0 42.1706 0 28.1316C0 14.0927 11.3808 2.71191 25.4197 2.71191C34.8308 2.71191 43.0475 7.82624 47.4419 15.4272Z" fill="white"/>
<path fill-rule="evenodd" clip-rule="evenodd" d="M12.8797 38.1234C17.0448 43.0021 23.2399 46.0952 30.1575 46.0952C42.6989 46.0952 52.8658 35.9284 52.8658 23.3869C52.8658 10.8455 42.6989 0.678635 30.1575 0.678635C29.7362 0.678635 29.3176 0.690109 28.902 0.712757C30.826 0.247139 32.8355 0.000408173 34.9025 0.000408173C48.9415 0.000408173 60.3223 11.3812 60.3223 25.4201C60.3223 39.459 48.9415 50.8398 34.9025 50.8398C25.491 50.8398 17.274 45.725 12.8797 38.1234Z" fill="white"/>
<path d="M87.9424 48V39.4551H91.0117V38.1357H83.335V39.4551H86.4111V48H87.9424ZM91.1963 48H92.6797V43.5703C92.6797 42.5244 93.2949 41.8477 94.2725 41.8477C94.5664 41.8477 94.8262 41.8887 94.9492 41.9365V40.5488C94.833 40.5215 94.6484 40.501 94.4297 40.501C93.5547 40.501 92.8711 41 92.6387 41.8271H92.6113V40.5762H91.1963V48ZM98.3262 46.8926C97.4717 46.8926 96.918 46.4824 96.918 45.8467C96.918 45.1904 97.4443 44.8145 98.4561 44.7529L100.261 44.6299V45.2109C100.261 46.1885 99.4268 46.8926 98.3262 46.8926ZM97.9297 48.0752C98.9414 48.0752 99.8643 47.5693 100.274 46.7627H100.309V48H101.724V42.9072C101.724 41.4375 100.555 40.4805 98.7432 40.4805C97.0752 40.4805 95.8311 41.4512 95.79 42.7637H97.1777C97.3076 42.1211 97.8955 41.7041 98.7021 41.7041C99.6934 41.7041 100.261 42.1689 100.261 43.0166V43.5908L98.2578 43.707C96.4258 43.8232 95.4209 44.5752 95.4209 45.874C95.4209 47.2002 96.4463 48.0752 97.9297 48.0752ZM103.214 48H104.697V43.7139C104.697 42.5449 105.367 41.7656 106.488 41.7656C107.575 41.7656 108.095 42.3945 108.095 43.5225V48H109.578V43.2422C109.578 41.5332 108.642 40.4941 107.001 40.4941C105.853 40.4941 105.107 40.9521 104.656 41.8271H104.629V40.5762H103.214V48ZM110.938 42.6885C110.938 43.7139 111.602 44.3975 112.941 44.7256L114.268 45.0537C115.047 45.252 115.341 45.498 115.341 45.9697C115.341 46.5713 114.76 46.9541 113.837 46.9541C112.894 46.9541 112.319 46.5645 112.203 45.8535H110.74C110.85 47.1934 112.032 48.0889 113.762 48.0889C115.56 48.0889 116.817 47.1729 116.817 45.8467C116.817 44.7529 116.264 44.2129 114.767 43.8506L113.536 43.5566C112.75 43.3652 112.381 43.0576 112.381 42.6064C112.381 42.0186 112.941 41.6289 113.782 41.6289C114.63 41.6289 115.197 42.0391 115.259 42.6953H116.653C116.619 41.4033 115.443 40.4873 113.816 40.4873C112.107 40.4873 110.938 41.3828 110.938 42.6885ZM118.465 48H119.941V41.7451H121.356V40.5762H119.928V39.9404C119.935 39.3047 120.188 39.0381 120.796 39.0381C120.994 39.0381 121.199 39.0586 121.35 39.0928V37.9648C121.11 37.9238 120.864 37.8965 120.598 37.8965C119.094 37.8965 118.465 38.5049 118.465 39.8926V40.5762H117.439V41.7451H118.465V48ZM125.465 48.0889C127.611 48.0889 128.972 46.626 128.972 44.2881C128.972 41.9502 127.604 40.4805 125.465 40.4805C123.325 40.4805 121.951 41.957 121.951 44.2881C121.951 46.626 123.318 48.0889 125.465 48.0889ZM125.465 46.8584C124.207 46.8584 123.455 45.9082 123.455 44.2881C123.455 42.6748 124.207 41.7109 125.465 41.7109C126.723 41.7109 127.468 42.668 127.468 44.2881C127.468 45.9082 126.723 46.8584 125.465 46.8584ZM130.161 48H131.645V43.5703C131.645 42.5244 132.26 41.8477 133.237 41.8477C133.531 41.8477 133.791 41.8887 133.914 41.9365V40.5488C133.798 40.5215 133.613 40.501 133.395 40.501C132.52 40.501 131.836 41 131.604 41.8271H131.576V40.5762H130.161V48ZM134.864 48H136.348V43.4473C136.348 42.4766 137.004 41.7656 137.92 41.7656C138.788 41.7656 139.342 42.3125 139.342 43.1738V48H140.798V43.3926C140.798 42.4424 141.44 41.7656 142.35 41.7656C143.272 41.7656 143.799 42.3262 143.799 43.2969V48H145.275V42.9414C145.275 41.458 144.318 40.4941 142.855 40.4941C141.796 40.4941 140.921 41.041 140.531 41.9365H140.497C140.196 41.0137 139.451 40.4941 138.419 40.4941C137.448 40.4941 136.648 41 136.307 41.834H136.279V40.5762H134.864V48ZM146.813 48H148.297V40.5762H146.813V48ZM147.559 39.5166C148.037 39.5166 148.427 39.1338 148.427 38.6621C148.427 38.1768 148.037 37.8076 147.559 37.8076C147.08 37.8076 146.69 38.1768 146.69 38.6621C146.69 39.1338 147.08 39.5166 147.559 39.5166ZM149.876 48H151.359V43.7139C151.359 42.5449 152.029 41.7656 153.15 41.7656C154.237 41.7656 154.757 42.3945 154.757 43.5225V48H156.24V43.2422C156.24 41.5332 155.304 40.4941 153.663 40.4941C152.515 40.4941 151.77 40.9521 151.318 41.8271H151.291V40.5762H149.876V48ZM160.875 46.749C159.679 46.749 158.906 45.7852 158.906 44.2676C158.906 42.7432 159.679 41.7588 160.875 41.7588C162.078 41.7588 162.878 42.7637 162.878 44.2676C162.878 45.7646 162.078 46.749 160.875 46.749ZM160.882 50.6729C163.021 50.6729 164.354 49.5791 164.354 47.8086V40.5762H162.919V41.8066H162.892C162.434 40.9863 161.572 40.501 160.52 40.501C158.619 40.501 157.389 41.9707 157.389 44.2607C157.389 46.5234 158.633 47.9795 160.485 47.9795C161.538 47.9795 162.413 47.501 162.844 46.7012H162.878V47.9248C162.878 48.8955 162.119 49.5107 160.943 49.5107C160.034 49.5107 159.344 49.1484 159.18 48.5742H157.683C157.826 49.8457 159.098 50.6729 160.882 50.6729ZM177.377 48V38.1357H175.846V42.3057H170.78V38.1357H169.249V48H170.78V43.6318H175.846V48H177.377ZM182.128 41.6904C183.208 41.6904 183.939 42.4561 183.974 43.6113H180.207C180.289 42.4697 181.062 41.6904 182.128 41.6904ZM183.967 45.8262C183.762 46.4756 183.085 46.8857 182.224 46.8857C181.007 46.8857 180.2 46.0381 180.2 44.7529V44.6641H185.457V44.1445C185.457 41.8955 184.172 40.4805 182.135 40.4805C180.057 40.4805 178.703 41.9912 178.703 44.3154C178.703 46.6396 180.043 48.0889 182.196 48.0889C183.864 48.0889 185.17 47.1592 185.382 45.8262H183.967ZM189.23 46.8926C188.376 46.8926 187.822 46.4824 187.822 45.8467C187.822 45.1904 188.349 44.8145 189.36 44.7529L191.165 44.6299V45.2109C191.165 46.1885 190.331 46.8926 189.23 46.8926ZM188.834 48.0752C189.846 48.0752 190.769 47.5693 191.179 46.7627H191.213V48H192.628V42.9072C192.628 41.4375 191.459 40.4805 189.647 40.4805C187.979 40.4805 186.735 41.4512 186.694 42.7637H188.082C188.212 42.1211 188.8 41.7041 189.606 41.7041C190.598 41.7041 191.165 42.1689 191.165 43.0166V43.5908L189.162 43.707C187.33 43.8232 186.325 44.5752 186.325 45.874C186.325 47.2002 187.351 48.0752 188.834 48.0752ZM194.18 48H195.663V37.6914L194.18 37.6914V48ZM197.693 38.9082V40.5762H196.668V41.7451H197.693V46.0449C197.693 47.4805 198.268 48.0479 199.751 48.0479C200.072 48.0479 200.421 48.0137 200.585 47.9727V46.8037C200.489 46.8174 200.236 46.8379 200.079 46.8379C199.457 46.8379 199.17 46.5371 199.17 45.8945V41.7451H200.592V40.5762H199.17V38.9082H197.693ZM201.904 48H203.388V43.748C203.388 42.5586 204.085 41.7656 205.24 41.7656C206.327 41.7656 206.881 42.4355 206.881 43.543V48H208.364V43.2559C208.364 41.5811 207.387 40.4941 205.753 40.4941C204.618 40.4941 203.853 40.9521 203.408 41.8271H203.374V37.6914H201.904V48ZM216.198 43.1123C216.068 41.6836 214.893 40.4805 212.999 40.4805C210.9 40.4805 209.52 41.9775 209.52 44.2881C209.52 46.6396 210.907 48.0889 213.013 48.0889C214.797 48.0889 216.041 47.0566 216.212 45.5049H214.797C214.619 46.373 213.983 46.8447 213.02 46.8447C211.83 46.8447 211.023 45.8877 211.023 44.2881C211.023 42.7295 211.816 41.7314 213.013 41.7314C214.031 41.7314 214.646 42.3262 214.783 43.1123H216.198ZM219.883 46.8926C219.028 46.8926 218.475 46.4824 218.475 45.8467C218.475 45.1904 219.001 44.8145 220.013 44.7529L221.817 44.6299V45.2109C221.817 46.1885 220.983 46.8926 219.883 46.8926ZM219.486 48.0752C220.498 48.0752 221.421 47.5693 221.831 46.7627H221.865V48H223.28V42.9072C223.28 41.4375 222.111 40.4805 220.3 40.4805C218.632 40.4805 217.388 41.4512 217.347 42.7637H218.734C218.864 42.1211 219.452 41.7041 220.259 41.7041C221.25 41.7041 221.817 42.1689 221.817 43.0166V43.5908L219.814 43.707C217.982 43.8232 216.978 44.5752 216.978 45.874C216.978 47.2002 218.003 48.0752 219.486 48.0752ZM224.771 48H226.254V43.5703C226.254 42.5244 226.869 41.8477 227.847 41.8477C228.141 41.8477 228.4 41.8887 228.523 41.9365V40.5488C228.407 40.5215 228.223 40.501 228.004 40.501C227.129 40.501 226.445 41 226.213 41.8271H226.186V40.5762H224.771V48ZM232.249 41.6904C233.329 41.6904 234.061 42.4561 234.095 43.6113L230.328 43.6113C230.41 42.4697 231.183 41.6904 232.249 41.6904ZM234.088 45.8262C233.883 46.4756 233.206 46.8857 232.345 46.8857C231.128 46.8857 230.321 46.0381 230.321 44.7529V44.6641L235.578 44.6641V44.1445C235.578 41.8955 234.293 40.4805 232.256 40.4805C230.178 40.4805 228.824 41.9912 228.824 44.3154C228.824 46.6396 230.164 48.0889 232.317 48.0889C233.985 48.0889 235.291 47.1592 235.503 45.8262H234.088ZM240.151 38.1357V48H243.686C246.625 48 248.354 46.168 248.354 43.0508C248.354 39.9404 246.625 38.1357 243.686 38.1357H240.151ZM241.683 39.4551H243.542C245.634 39.4551 246.796 40.7402 246.796 43.0645C246.796 45.3955 245.634 46.6738 243.542 46.6738H241.683V39.4551ZM252.757 41.6904C253.837 41.6904 254.568 42.4561 254.603 43.6113H250.836C250.918 42.4697 251.69 41.6904 252.757 41.6904ZM254.596 45.8262C254.391 46.4756 253.714 46.8857 252.853 46.8857C251.636 46.8857 250.829 46.0381 250.829 44.7529V44.6641H256.086V44.1445C256.086 41.8955 254.801 40.4805 252.764 40.4805C250.686 40.4805 249.332 41.9912 249.332 44.3154C249.332 46.6396 250.672 48.0889 252.825 48.0889C254.493 48.0889 255.799 47.1592 256.011 45.8262H254.596ZM257.344 48H258.827V37.6914H257.344V48ZM260.468 48H261.951V40.5762H260.468V48ZM261.213 39.5166C261.691 39.5166 262.081 39.1338 262.081 38.6621C262.081 38.1768 261.691 37.8076 261.213 37.8076C260.734 37.8076 260.345 38.1768 260.345 38.6621C260.345 39.1338 260.734 39.5166 261.213 39.5166ZM269.833 40.5762H268.295L266.395 46.5371H266.36L264.467 40.5762H262.901L265.581 48H267.16L269.833 40.5762ZM273.606 41.6904C274.687 41.6904 275.418 42.4561 275.452 43.6113H271.686C271.768 42.4697 272.54 41.6904 273.606 41.6904ZM275.445 45.8262C275.24 46.4756 274.563 46.8857 273.702 46.8857C272.485 46.8857 271.679 46.0381 271.679 44.7529V44.6641H276.936V44.1445C276.936 41.8955 275.65 40.4805 273.613 40.4805C271.535 40.4805 270.182 41.9912 270.182 44.3154C270.182 46.6396 271.521 48.0889 273.675 48.0889C275.343 48.0889 276.648 47.1592 276.86 45.8262H275.445ZM278.132 48H279.615V43.5703C279.615 42.5244 280.23 41.8477 281.208 41.8477C281.502 41.8477 281.762 41.8887 281.885 41.9365V40.5488C281.769 40.5215 281.584 40.501 281.365 40.501C280.49 40.501 279.807 41 279.574 41.8271H279.547V40.5762H278.132V48ZM283.58 50.7002C285.098 50.7002 285.802 50.126 286.438 48.3418L289.22 40.5762H287.661L285.754 46.6465H285.72L283.812 40.5762H282.22L284.913 48.0205L284.797 48.4033C284.544 49.1895 284.154 49.4902 283.45 49.4902C283.32 49.4902 283.088 49.4834 282.979 49.4561V50.6592C283.095 50.6797 283.457 50.7002 283.58 50.7002Z" fill="white"/>
</svg>
