<svg width="171" height="48" viewBox="0 0 171 48" fill="none" xmlns="http://www.w3.org/2000/svg">
<path fill-rule="evenodd" clip-rule="evenodd" d="M42.5252 13.8287C38.7919 9.45566 33.2388 6.68308 27.0382 6.68308C15.7968 6.68308 6.68384 15.7961 6.68384 27.0375C6.68384 38.2789 15.7968 47.3919 27.0382 47.3919C27.4147 47.3919 27.7888 47.3817 28.1602 47.3615C26.4366 47.7784 24.6365 47.9992 22.7848 47.9992C10.2011 47.9992 0 37.7982 0 25.2145C0 12.6308 10.2011 2.42969 22.7848 2.42969C31.2211 2.42969 38.5865 7.01466 42.5252 13.8287Z" fill="url(#paint0_linear)"/>
<path fill-rule="evenodd" clip-rule="evenodd" d="M11.5431 34.1694C15.2764 38.5434 20.83 41.3167 27.0314 41.3167C38.2728 41.3167 47.3858 32.2037 47.3858 20.9623C47.3858 9.72084 38.2728 0.607864 27.0314 0.607864C26.6552 0.607864 26.2815 0.618069 25.9103 0.638214C27.6336 0.221535 29.4333 0.000751495 31.2846 0.000751495C43.8682 0.000751495 54.0693 10.2018 54.0693 22.7855C54.0693 35.3692 43.8682 45.5703 31.2846 45.5703C22.8475 45.5703 15.4814 40.9845 11.5431 34.1694Z" fill="url(#paint1_linear)"/>
<path d="M80.5771 20.5586H74.1904V17.0039H80.2158V14.7383L74.1904 14.7383V11.3398L80.5771 11.3398V8.9082L71.2412 8.9082V23H80.5771V20.5586ZM92.3545 12.248H89.5029V18.3711C89.5029 19.8262 88.6729 20.7832 87.3447 20.7832C86.0264 20.7832 85.3037 20.002 85.3037 18.5469V12.248L82.4521 12.248V19.1426C82.4521 21.6426 83.9854 23.1562 86.3096 23.1562C87.9404 23.1563 88.9951 22.4043 89.542 21.0566H89.6006V23H92.3545V12.248ZM94.2979 23H97.1494V16.9844C97.1494 15.4805 97.999 14.582 99.4443 14.582C99.8643 14.582 100.255 14.6504 100.499 14.748V12.2285C100.294 12.1602 100.001 12.1211 99.6689 12.1211C98.3994 12.1211 97.4717 12.8438 97.1104 14.1719H97.0518V12.248H94.2979V23ZM106.271 23.1855C109.532 23.1855 111.573 21.1055 111.573 17.6191C111.573 14.1719 109.513 12.0625 106.271 12.0625C103.038 12.0625 100.968 14.1816 100.968 17.6191C100.968 21.0957 103.009 23.1855 106.271 23.1855ZM106.271 20.9883C104.767 20.9883 103.858 19.7578 103.858 17.6191C103.858 15.5098 104.767 14.25 106.271 14.25C107.765 14.25 108.673 15.5 108.673 17.6191C108.673 19.7578 107.774 20.9883 106.271 20.9883ZM113.185 23H116.036V16.8965C116.036 15.4512 116.866 14.4648 118.272 14.4648C119.63 14.4648 120.333 15.3145 120.333 16.7207V23H123.185V16.125C123.185 13.6348 121.808 12.0918 119.425 12.0918C117.784 12.0918 116.651 12.8145 116.046 14.1719H115.987V8.23438H113.185V23ZM129.874 14.1914C131.192 14.1914 132.11 15.1094 132.159 16.5156L127.521 16.5156C127.618 15.1387 128.575 14.1914 129.874 14.1914ZM132.198 19.7188C131.925 20.5488 131.075 21.0566 130.001 21.0566C128.497 21.0566 127.491 20.0117 127.491 18.459V18.2832L134.913 18.2832V17.4043C134.913 14.1328 132.94 12.0625 129.845 12.0625C126.69 12.0625 124.679 14.25 124.679 17.668C124.679 21.0859 126.681 23.1855 129.952 23.1855C132.569 23.1855 134.513 21.7988 134.825 19.7188H132.198ZM140.558 21.0469C139.522 21.0469 138.849 20.5488 138.849 19.7578C138.849 18.9668 139.483 18.498 140.675 18.4199L142.931 18.2637V19.0547C142.931 20.2266 141.876 21.0469 140.558 21.0469ZM139.63 23.127C141.007 23.127 142.335 22.4629 142.921 21.3398H142.979V23H145.733V15.627C145.733 13.4785 143.927 12.0625 141.163 12.0625C138.478 12.0625 136.622 13.4785 136.544 15.5293H139.151C139.288 14.748 140.011 14.2012 141.046 14.2012C142.218 14.2012 142.931 14.7676 142.931 15.8027V16.5156L140.245 16.6816C137.501 16.8477 136.007 17.9512 136.007 19.9043C136.007 21.8281 137.56 23.127 139.63 23.127ZM147.735 23H150.587V8.23438H147.735V23ZM153.36 9.85547V12.248H151.905V14.4063H153.36V20.0996C153.36 22.1992 154.337 23.0391 156.827 23.0391C157.403 23.0391 157.911 22.9805 158.204 22.9219V20.8125C158.028 20.8418 157.745 20.8613 157.491 20.8613C156.622 20.8613 156.212 20.4609 156.212 19.6309V14.4063H158.204V12.248H156.212V9.85547H153.36ZM159.923 23H162.774V16.8965C162.774 15.4512 163.604 14.4648 165.011 14.4648C166.368 14.4648 167.071 15.3145 167.071 16.7207V23H169.923V16.125C169.923 13.6348 168.546 12.0918 166.163 12.0918C164.522 12.0918 163.39 12.8145 162.784 14.1719H162.726V8.23438H159.923V23ZM70.7139 34.9863C70.8018 37.6328 72.96 39.2441 76.3486 39.2441C79.8447 39.2441 82.0615 37.5156 82.0615 34.7812C82.0615 32.6328 80.8311 31.4219 78.0088 30.8164L76.2998 30.4551C74.6787 30.084 73.9951 29.5957 73.9951 28.7266C73.9951 27.6816 74.9717 26.9883 76.4268 26.9883C77.9014 26.9883 78.9463 27.7109 79.0439 28.9023L81.8076 28.9023C81.7588 26.3535 79.6982 24.6641 76.417 24.6641C73.2725 24.6641 71.0264 26.3828 71.0264 28.9805C71.0264 31.041 72.3057 32.3594 74.9033 32.916L76.7393 33.3164C78.4385 33.6973 79.1123 34.2051 79.1123 35.123C79.1123 36.1582 78.0381 36.9102 76.4658 36.9102C74.9033 36.9102 73.6924 36.1484 73.5557 34.9863H70.7139ZM85.04 42.9258C87.7256 42.9258 89.0439 41.959 89.9619 39.2148L93.6826 28.248H90.6748L88.3408 36.6855H88.2822L85.958 28.248H82.833L86.6025 39.0684L86.5049 39.4785C86.2803 40.3379 85.665 40.709 84.6006 40.709C84.4834 40.709 84.0537 40.6992 83.9561 40.6797V42.8867C84.0635 42.9062 84.9326 42.9258 85.04 42.9258ZM94.5225 31.4121C94.5225 32.9844 95.5674 34.0293 97.5889 34.4883L99.5713 34.9375C100.548 35.1719 100.919 35.4648 100.919 36.0215C100.919 36.7246 100.226 37.1641 99.0928 37.1641C97.9111 37.1641 97.1787 36.6562 97.042 35.748H94.2588C94.4053 37.8184 96.1826 39.1855 99.0146 39.1855C101.827 39.1855 103.751 37.8086 103.751 35.7188C103.751 34.1172 102.892 33.2871 100.733 32.7988L98.7119 32.3594C97.7451 32.1348 97.2764 31.7734 97.2764 31.2363C97.2764 30.543 97.96 30.084 98.9854 30.084C100.079 30.084 100.792 30.6211 100.851 31.4707L103.487 31.4707C103.448 29.4199 101.681 28.0625 99.0244 28.0625C96.2998 28.0625 94.5225 29.3906 94.5225 31.4121ZM105.997 25.8555V28.248H104.542V30.4063H105.997V36.0996C105.997 38.1992 106.974 39.0391 109.464 39.0391C110.04 39.0391 110.548 38.9805 110.841 38.9219V36.8125C110.665 36.8418 110.382 36.8613 110.128 36.8613C109.259 36.8613 108.849 36.4609 108.849 35.6309V30.4063H110.841V28.248H108.849V25.8555H105.997ZM117.12 30.1914C118.438 30.1914 119.356 31.1094 119.405 32.5156H114.767C114.864 31.1387 115.821 30.1914 117.12 30.1914ZM119.444 35.7188C119.171 36.5488 118.321 37.0566 117.247 37.0566C115.743 37.0566 114.737 36.0117 114.737 34.459V34.2832H122.159V33.4043C122.159 30.1328 120.187 28.0625 117.091 28.0625C113.937 28.0625 111.925 30.25 111.925 33.668C111.925 37.0859 113.927 39.1855 117.198 39.1855C119.815 39.1855 121.759 37.7988 122.071 35.7188H119.444ZM123.692 39L126.544 39V32.5352C126.544 31.3145 127.325 30.4551 128.448 30.4551C129.552 30.4551 130.216 31.1484 130.216 32.3008V39H132.97V32.4961C132.97 31.2754 133.722 30.4551 134.845 30.4551C136.007 30.4551 136.642 31.1484 136.642 32.4082V39H139.493V31.6953C139.493 29.5273 138.077 28.0918 135.968 28.0918C134.405 28.0918 133.116 28.9414 132.628 30.2891H132.569C132.208 28.8828 131.114 28.0918 129.571 28.0918C128.136 28.0918 126.964 28.9023 126.505 30.2012H126.446V28.248L123.692 28.248V39ZM141.202 31.4121C141.202 32.9844 142.247 34.0293 144.269 34.4883L146.251 34.9375C147.228 35.1719 147.599 35.4648 147.599 36.0215C147.599 36.7246 146.905 37.1641 145.772 37.1641C144.591 37.1641 143.858 36.6563 143.722 35.748H140.938C141.085 37.8184 142.862 39.1855 145.694 39.1855C148.507 39.1855 150.431 37.8086 150.431 35.7188C150.431 34.1172 149.571 33.2871 147.413 32.7988L145.392 32.3594C144.425 32.1348 143.956 31.7734 143.956 31.2363C143.956 30.543 144.64 30.084 145.665 30.084C146.759 30.084 147.472 30.6211 147.53 31.4707H150.167C150.128 29.4199 148.36 28.0625 145.704 28.0625C142.979 28.0625 141.202 29.3906 141.202 31.4121Z" fill="#013B5D"/>
<defs>
<linearGradient id="paint0_linear" x1="34.51" y1="7.17006" x2="15.2389" y2="44.8168" gradientUnits="userSpaceOnUse">
<stop stop-color="#2C4898"/>
<stop offset="1" stop-color="#2B9DD7"/>
</linearGradient>
<linearGradient id="paint1_linear" x1="32.8062" y1="45.5703" x2="32.8062" y2="0.000751495" gradientUnits="userSpaceOnUse">
<stop stop-color="#15A949"/>
<stop offset="1" stop-color="#A7CC34"/>
</linearGradient>
</defs>
</svg>
