<svg width="166" height="48" viewBox="0 0 166 48" fill="none" xmlns="http://www.w3.org/2000/svg">
<path fill-rule="evenodd" clip-rule="evenodd" d="M42.5252 13.8297C38.7919 9.45664 33.2388 6.68406 27.0382 6.68406C15.7968 6.68406 6.68384 15.797 6.68384 27.0385C6.68384 38.2799 15.7968 47.3929 27.0382 47.3929C27.4147 47.3929 27.7888 47.3826 28.1602 47.3625C26.4366 47.7793 24.6365 48.0002 22.7848 48.0002C10.2011 48.0002 0 37.7991 0 25.2154C0 12.6318 10.2011 2.43066 22.7848 2.43066C31.2211 2.43066 38.5865 7.01563 42.5252 13.8297Z" fill="white"/>
<path fill-rule="evenodd" clip-rule="evenodd" d="M11.5431 34.1685C15.2764 38.5424 20.83 41.3157 27.0314 41.3157C38.2728 41.3157 47.3858 32.2027 47.3858 20.9613C47.3858 9.71986 38.2728 0.606888 27.0314 0.606888C26.6552 0.606888 26.2815 0.617092 25.9103 0.637238C27.6336 0.220558 29.4333 -0.000225067 31.2846 -0.000225067C43.8682 -0.000225067 54.0693 10.2009 54.0693 22.7846C54.0693 35.3682 43.8682 45.5693 31.2846 45.5693C22.8475 45.5693 15.4814 40.9835 11.5431 34.1685Z" fill="white"/>
<path d="M72.2543 8.42652C72.2543 6.11443 72.2032 5.75873 70.9093 5.60536L70.5552 5.55966C70.4211 5.47971 70.4674 5.08322 70.6014 5C71.5459 5.08322 72.3037 5.08322 73.1924 5.08322H77.3533C78.7652 5.08322 80.0703 5.08322 80.3128 5C80.4516 5.36876 80.5872 7.0086 80.6638 7.99413C80.5888 8.14098 80.2234 8.18993 80.1181 8.05776C79.7911 6.96943 79.5597 6.19603 78.4397 5.90396C77.9739 5.77995 77.2735 5.75873 76.3019 5.75873H74.7256C74.0491 5.75873 74.0491 5.8289 74.0491 6.66921V11.1938C74.0491 11.8335 74.1337 11.8335 74.7846 11.8335H76.0466C76.9943 11.8335 77.6596 11.778 77.926 11.6752C78.1813 11.5936 78.3504 11.4419 78.4717 10.8887L78.6503 9.94398C78.7652 9.81181 79.1146 9.81182 79.1928 9.9913C79.1928 10.5461 79.1146 11.406 79.1146 12.2707C79.1146 13.0621 79.1928 13.9269 79.1928 14.4246C79.1146 14.591 78.7652 14.591 78.6503 14.4425L78.4381 13.5549C78.3488 13.1551 78.1797 12.8108 77.7617 12.6999C77.4474 12.6232 76.9384 12.5857 76.045 12.5857H74.783C74.1321 12.5857 74.0475 12.6232 74.0475 13.1992V16.3744C74.0475 17.5884 74.1321 18.3259 74.4799 18.7142C74.732 18.9818 75.2106 19.2413 77.1427 19.2413C78.8418 19.2413 79.4624 19.1532 79.9873 18.9035C80.3638 18.6849 80.9557 17.8788 81.5397 16.7203C81.6721 16.6077 82.0007 16.6812 82.0693 16.8509C81.921 17.6602 81.3737 19.4028 81.0881 20C79.0923 19.9674 77.1427 19.9184 75.2106 19.9184H73.1908C72.2527 19.9184 71.5012 19.9674 70.209 20C70.0446 19.9184 70.0191 19.5921 70.1659 19.442L70.8647 19.3506C72.1394 19.2837 72.2527 18.9247 72.2527 16.5523V8.42652H72.2543Z" fill="white"/>
<path d="M85.6516 17.0455C85.6516 18.633 86.0303 19.7119 87.6748 19.7119C88.2537 19.7119 88.9485 19.4493 89.4226 19.0044C89.6917 18.7233 89.8591 18.3871 89.8591 17.6561V13.8839C89.8591 12.3834 89.6917 12.3349 89.0595 12.0622L88.7513 11.9134C88.6136 11.8331 88.6136 11.5069 88.7982 11.4249C89.6682 11.4115 90.8558 11.2392 91.3534 11.0033C91.441 11.0402 91.4942 11.0803 91.5099 11.1506C91.4817 11.6106 91.4645 12.3349 91.4645 13.178V17.0455C91.4645 18.8973 91.5099 19.5714 92.1248 19.5714C92.3924 19.5714 92.6865 19.5263 92.9557 19.4476C93.0981 19.5714 93.12 20.0432 92.9447 20.1335C92.1154 20.3108 90.8543 20.545 90.1063 21C90.0203 21 89.9045 20.918 89.8591 20.8277V19.8792C89.8591 19.6534 89.7997 19.5513 89.6667 19.5513C89.0204 19.998 87.9424 20.7742 86.6953 20.7742C84.7832 20.7742 84.0634 19.7554 84.0634 17.8752V14.0177C84.0634 12.5641 84.0634 12.3316 83.4266 12.0589L83.1512 11.91C83.0276 11.7896 83.0495 11.4818 83.1794 11.4215C84.1824 11.4082 85.032 11.1773 85.5171 11C85.6516 11.0368 85.7126 11.0769 85.7189 11.1472C85.7111 11.552 85.6516 12.0589 85.6516 13.1746V17.0455Z" fill="white"/>
<path d="M95.5132 13.85C95.5132 13.0177 95.5132 12.9287 94.8865 12.5525L94.6534 12.3928C94.5774 12.3329 94.5774 12.1056 94.7035 12.0119C95.2301 11.8661 96.5043 11.3194 97.0879 11C97.2087 11.023 97.2899 11.0476 97.2899 11.1566V12.3605C97.2899 12.488 97.3158 12.554 97.3486 12.554C98.1963 11.9444 99.0872 11.2872 99.9868 11.2872C100.582 11.2872 101.069 11.6265 101.069 12.124C101.069 12.8396 100.417 13.1222 100.028 13.1222C99.7917 13.1222 99.6708 13.0561 99.4982 12.9717C99.1649 12.7628 98.7816 12.64 98.4415 12.64C98.0893 12.64 97.8009 12.8227 97.5955 13.0561C97.3486 13.3341 97.2899 13.9652 97.2899 14.6792V17.5799C97.2899 19.0986 97.3348 19.3704 98.2533 19.3888L99.089 19.4748C99.2754 19.5869 99.2185 19.9232 99.051 20C97.9235 19.9693 97.2657 19.9232 96.399 19.9232C95.5374 19.9232 94.8399 19.9693 94.2235 20C94.0664 19.9232 94.0025 19.5885 94.1613 19.4748L94.6241 19.3888C95.5132 19.2829 95.5132 19.0986 95.5132 17.5799V13.85Z" fill="white"/>
<path d="M111.069 15.4284C111.069 18.0515 109.213 20 106.5 20C104.026 20 102.069 18.2687 102.069 15.624C102.069 12.9208 104.132 11 106.673 11C109.092 10.9985 111.069 12.7714 111.069 15.4284ZM106.421 11.6577C104.982 11.6577 103.93 12.987 103.93 15.3406C103.93 17.2521 104.83 19.3531 106.729 19.3531C108.631 19.3531 109.213 17.3599 109.213 15.7457C109.213 13.9451 108.479 11.6577 106.421 11.6577Z" fill="white"/>
<path d="M113.61 7.36502C113.61 6.04904 113.595 5.90534 112.901 5.50328L112.681 5.39187C112.553 5.31598 112.553 4.98173 112.681 4.91068C113.242 4.74598 114.332 4.40044 115.145 4C115.24 4 115.328 4.05651 115.378 4.12756C115.378 4.82026 115.303 5.90695 115.303 6.88061V11.5761C115.303 11.7715 115.328 11.9734 115.409 12.004C116.24 11.3905 117.332 10.8398 118.494 10.8398C120.683 10.8398 121.484 12.172 121.484 13.7059V17.4552C121.484 19.0522 121.52 19.3008 122.342 19.3574L122.952 19.4478C123.131 19.5656 123.09 19.9193 122.93 20C122.089 19.9677 121.427 19.9193 120.636 19.9193C119.794 19.9193 119.108 19.9677 118.494 20C118.309 19.9193 118.281 19.5673 118.446 19.4478L118.883 19.3574C119.766 19.2459 119.766 19.0522 119.766 17.4552V14.2711C119.766 12.8259 119.072 11.8619 117.597 11.8619C116.813 11.8619 116.205 12.1251 115.796 12.4707C115.379 12.8178 115.305 12.9212 115.305 13.693V17.4552C115.305 19.0522 115.379 19.2912 116.182 19.3574L116.67 19.4478C116.848 19.5447 116.793 19.9193 116.64 20C115.937 19.9677 115.258 19.9193 114.471 19.9193C113.652 19.9193 112.946 19.9677 112.213 20C112.039 19.9193 112.019 19.5673 112.177 19.4478L112.754 19.3574C113.595 19.2992 113.612 19.0522 113.612 17.4552V7.36502H113.61Z" fill="white"/>
<path d="M126.291 14.2516C125.668 14.2516 125.653 14.2731 125.653 14.8369C125.653 16.9548 127.014 18.777 129.511 18.777C130.279 18.777 130.918 18.5552 131.635 17.7358C131.874 17.7003 132.015 17.8174 132.069 18.0253C131.289 19.4362 129.626 20 128.409 20C126.898 20 125.702 19.3608 125.03 18.5552C124.345 17.7358 124.069 16.7654 124.069 15.8165C124.069 13.1872 125.941 11 128.737 11C130.742 11 132.014 12.2708 132.014 13.5353C132.014 13.8434 131.987 13.9866 131.946 14.0791C131.874 14.21 131.533 14.2516 130.568 14.2516H126.291ZM127.708 13.6062C129.444 13.6062 129.949 13.5061 130.114 13.3983C130.196 13.3259 130.281 13.275 130.281 12.987C130.281 12.4155 129.843 11.6577 128.47 11.6577C127.095 11.6577 125.929 12.7714 125.892 13.4968C125.892 13.4968 125.892 13.6062 126.055 13.6062H127.708Z" fill="white"/>
<path d="M137.874 15.279C138.222 15.1588 138.283 14.974 138.283 14.669L138.307 13.6848C138.361 12.8961 138.044 11.8395 136.567 11.8395C135.89 11.8395 135.047 12.1106 135.038 12.7729C134.991 13.1456 134.991 13.3983 134.792 13.5061C134.442 13.7787 133.788 13.9281 133.419 13.9281C133.21 13.9281 133.095 13.8203 133.095 13.6324C133.095 12.528 135.786 11 137.559 11C139.27 11 140.109 11.8888 140.037 13.4953L139.891 17.1843C139.853 18.1593 140.05 19.062 140.977 19.062C141.228 19.062 141.432 18.9665 141.583 18.9156C141.69 18.8494 141.82 18.777 141.891 18.777C142 18.777 142.069 18.891 142.069 19.062C142.069 19.1251 141.23 20 140.05 20C139.474 20 138.897 19.789 138.487 19.3253C138.407 19.1744 138.269 19.0188 138.11 19.0188C137.945 19.0188 137.637 19.2129 137.183 19.4363C136.659 19.7089 136.148 20 135.479 20C134.775 20 134.197 19.809 133.786 19.4902C133.336 19.1251 133.069 18.606 133.069 18.0253C133.069 17.152 133.502 16.6714 135.038 16.1985L137.874 15.279ZM136.397 19.0204C136.861 19.0204 137.602 18.7046 137.865 18.4967C138.155 18.224 138.155 17.9345 138.161 17.5016L138.2 16.2324C138.2 16.0152 138.11 15.9629 137.988 15.9629C137.836 15.9629 137.433 16.0522 136.993 16.1831C135.578 16.6067 134.886 16.9286 134.886 17.7373C134.886 18.11 135.178 19.0204 136.397 19.0204Z" fill="white"/>
<path d="M144.776 17.4552C144.776 19.0522 144.811 19.2912 145.507 19.3574L146.001 19.4478C146.115 19.5656 146.08 19.9193 145.948 20C145.298 19.9677 144.728 19.9193 144.051 19.9193C143.364 19.9193 142.764 19.9677 142.185 20C142.063 19.9193 142.011 19.5673 142.164 19.4478L142.609 19.3574C143.32 19.2912 143.346 19.0522 143.346 17.4552V7.36502C143.346 6.04904 143.32 5.90534 142.728 5.50328L142.564 5.39187C142.442 5.31598 142.442 4.98173 142.564 4.91068C143.021 4.74598 143.955 4.40044 144.647 4C144.714 4 144.793 4.05651 144.836 4.12756C144.811 4.82026 144.776 5.90695 144.776 6.88061V17.4552Z" fill="white"/>
<path d="M150.364 12.3486C149.97 12.3486 149.97 12.4137 149.97 12.8521V16.7329C149.97 17.956 150.128 19.0793 151.584 19.0793C151.829 19.0793 152.015 19.037 152.192 18.9583C152.405 18.8949 152.685 18.6681 152.755 18.6681C152.932 18.6681 153.03 18.8933 152.971 19.037C152.585 19.4467 151.753 20 150.616 20C148.719 20 148.321 18.978 148.321 17.7444V12.9503C148.321 12.3698 148.272 12.3486 147.835 12.3486H147.171C147.047 12.2564 147.041 12.0296 147.127 11.8815C147.797 11.7152 148.339 11.4385 148.557 11.2511C148.853 10.9925 149.274 10.4241 149.507 10.0159C149.612 9.98565 149.879 9.98565 149.969 10.1338V11.0606C149.969 11.437 150.003 11.437 150.375 11.437H152.873C153.163 11.6471 153.099 12.2216 152.891 12.3471H150.364V12.3486Z" fill="white"/>
<path d="M155.588 7.36502C155.588 6.04904 155.588 5.90534 154.896 5.50328L154.65 5.39187C154.572 5.31598 154.572 4.98173 154.65 4.91068C155.229 4.74598 156.337 4.40044 157.169 4C157.246 4 157.331 4.05651 157.393 4.12756C157.358 4.82026 157.303 5.90695 157.303 6.88061V11.5761C157.303 11.7715 157.331 11.9734 157.406 12.004C158.23 11.3905 159.366 10.8398 160.518 10.8398C162.688 10.8398 163.469 12.172 163.469 13.7059V17.4552C163.469 19.0522 163.541 19.3008 164.332 19.3574L164.971 19.4478C165.134 19.5656 165.078 19.9193 164.923 20C164.083 19.9677 163.444 19.9193 162.626 19.9193C161.795 19.9193 161.103 19.9677 160.492 20C160.338 19.9193 160.287 19.5673 160.462 19.4478L160.9 19.3574C161.752 19.2459 161.76 19.0522 161.76 17.4552V14.2711C161.76 12.8259 161.054 11.8619 159.587 11.8619C158.803 11.8619 158.232 12.1251 157.814 12.4707C157.393 12.8178 157.303 12.9212 157.303 13.693V17.4552C157.303 19.0522 157.358 19.2912 158.182 19.3574L158.686 19.4478C158.838 19.5447 158.801 19.9193 158.608 20C157.942 19.9677 157.266 19.9193 156.467 19.9193C155.624 19.9193 154.955 19.9677 154.195 20C154.067 19.9193 154.004 19.5673 154.167 19.4478L154.73 19.3574C155.588 19.2992 155.588 19.0522 155.588 17.4552V7.36502Z" fill="white"/>
<path d="M74.2328 38C72.3202 38 71.1233 37.4146 70.6899 37.1964C70.396 36.724 70.1383 35.1717 70.0693 34.1672C70.1908 33.993 70.5339 33.9679 70.6111 34.0982C70.9526 35.2094 71.89 37.311 74.5398 37.311C76.436 37.311 77.3422 36.1307 77.3422 34.839C77.3422 33.8941 77.1436 32.8064 75.5068 31.8004L73.3429 30.4474C72.2184 29.7364 70.8902 28.5059 70.8902 26.7151C70.8902 24.6731 72.5828 23 75.5051 23C76.2258 23 77.0549 23.1067 77.6427 23.2747C77.9218 23.3751 78.2288 23.3908 78.4225 23.3908C78.6392 23.9166 78.851 25.1471 78.851 26.0637C78.7558 26.1861 78.3601 26.2364 78.26 26.1061C77.9595 25.0796 77.3406 23.6592 75.1768 23.6592C72.9539 23.6592 72.4728 25.0796 72.4728 26.0622C72.4728 27.3099 73.5679 28.2485 74.4117 28.7319L76.2242 29.8463C77.6542 30.6734 79.0693 31.9181 79.0693 33.9914C79.0743 36.3787 77.1846 38 74.2328 38Z" fill="white"/>
<path d="M80.5643 42.9861C80.5643 42.3818 80.9719 42.0629 81.4556 42.0629H81.8504C82.2088 42.0629 82.4229 41.9001 82.5657 41.6416C83.2158 40.6126 83.6409 39.6407 83.8391 39.0716C83.9009 38.9071 84.0563 38.4086 84.0563 38.093C84.0563 37.618 83.9945 37.3427 83.6852 36.5L81.9646 31.5263C81.603 30.4403 81.4556 29.883 80.6896 29.7201L80.1472 29.5959C80.0283 29.4801 80.0442 29.0638 80.2043 29C80.9084 29.0638 81.5745 29.0638 82.3008 29.0638C82.8701 29.0638 83.4902 29.0638 84.1753 29C84.3513 29.0638 84.3878 29.4801 84.2292 29.5959L83.6868 29.7201C83.3681 29.7789 83.2174 29.883 83.2174 30.024C83.2174 30.3043 83.7376 31.8352 83.8407 32.1877L84.5448 34.3161C84.6669 34.6854 85.1046 35.9242 85.1775 35.9863C85.2314 35.9242 85.5867 35.2226 85.9958 34.2675L86.7396 32.4495C87.2169 31.2443 87.4944 30.3765 87.4944 30.1012C87.4944 29.9383 87.3739 29.7806 86.9616 29.7218L86.3114 29.5976C86.1671 29.4818 86.1703 29.0655 86.3336 29.0017C87.0504 29.0655 87.7022 29.0655 88.2683 29.0655C88.8218 29.0655 89.3308 29.0655 89.9144 29.0017C90.1031 29.1041 90.1206 29.4818 89.9604 29.5976L89.6004 29.6782C88.8836 29.8276 88.4983 30.4738 87.7545 32.1205L86.5239 34.7962C85.7928 36.3724 84.0008 40.386 82.9447 42.8972C82.5577 43.7919 82.0249 44 81.5349 44C80.891 43.9983 80.5643 43.5837 80.5643 42.9861Z" fill="white"/>
<path d="M95.6093 29.3882C95.8081 29.8381 95.9708 30.539 95.9708 31.1121C95.8919 31.277 95.5666 31.3093 95.4385 31.146C95.0524 30.2278 94.369 29.6239 93.431 29.6239C92.5636 29.6239 91.987 30.1585 91.987 30.9196C91.987 31.8192 92.9316 32.2737 93.7431 32.6681C94.9604 33.3398 96.0693 34.05 96.0693 35.5567C96.0693 37.1743 94.466 38 92.7837 38C91.7487 38 90.9208 37.7658 90.3491 37.353C90.1766 36.9386 90.0189 35.8756 90.0846 35.1838C90.2012 35.0652 90.4821 35.0591 90.6136 35.153C90.9717 36.3393 91.7471 37.3545 93.0022 37.3545C93.8253 37.3545 94.5218 36.917 94.5218 36.0265C94.5218 35.0298 93.633 34.4844 92.7821 34.0515C91.453 33.3413 90.5429 32.6111 90.5429 31.448C90.5429 29.8797 91.9097 29 93.6347 29C94.5875 29 95.3958 29.2188 95.6093 29.3882Z" fill="white"/>
<path d="M101.38 30.3486C100.974 30.3486 100.956 30.4137 100.956 30.8521V34.7329C100.956 35.956 101.107 37.0793 102.606 37.0793C102.822 37.0793 103.052 37.037 103.208 36.9583C103.412 36.8949 103.721 36.6681 103.778 36.6681C103.968 36.6681 104.048 36.8933 104 37.037C103.6 37.4467 102.779 38 101.632 38C99.6846 38 99.2825 36.978 99.2825 35.7444V30.9503C99.2825 30.3698 99.2514 30.3486 98.8051 30.3486H98.2101C98.0564 30.2564 98.0384 30.0296 98.1087 29.8815C98.7528 29.7152 99.3397 29.4385 99.5457 29.2511C99.8367 28.9925 100.273 28.4241 100.497 28.0159C100.608 27.9857 100.883 27.9856 100.974 28.1338V29.0606C100.974 29.437 101.001 29.437 101.38 29.437H103.886C104.152 29.6471 104.105 30.2216 103.894 30.3471H101.38V30.3486Z" fill="white"/>
<path d="M106.99 32.2516C106.452 32.2516 106.443 32.2731 106.443 32.8369C106.443 34.9548 107.641 36.777 109.82 36.777C110.481 36.777 111.054 36.5552 111.692 35.7358C111.887 35.7003 112.028 35.8174 112.069 36.0253C111.39 37.4362 109.921 38 108.863 38C107.561 38 106.496 37.3608 105.9 36.5552C105.299 35.7358 105.069 34.7654 105.069 33.8165C105.069 31.1872 106.696 29 109.126 29C110.889 29 112.028 30.2708 112.028 31.5353C112.028 31.8434 111.997 31.9866 111.951 32.0791C111.887 32.21 111.611 32.2516 110.746 32.2516H106.99ZM108.258 31.6062C109.751 31.6062 110.217 31.5061 110.358 31.3983C110.419 31.3259 110.481 31.275 110.481 30.987C110.481 30.4155 110.087 29.6577 108.933 29.6577C107.704 29.6577 106.674 30.7714 106.661 31.4968C106.661 31.4968 106.661 31.6062 106.792 31.6062H108.258Z" fill="white"/>
<path d="M126.833 31.872C126.833 30.2816 126.142 29.4573 124.69 29.4573C123.8 29.4573 123.078 29.8857 122.796 30.2816C122.492 30.6314 122.42 30.8754 122.42 31.698V35.3089C122.42 36.9966 122.473 37.2491 123.312 37.3191L123.8 37.4147C123.943 37.5393 123.91 37.913 123.761 37.9983C123.056 37.9642 122.375 37.913 121.561 37.913C120.758 37.913 120.118 37.9642 119.493 37.9983C119.306 37.913 119.26 37.541 119.423 37.4147L119.848 37.3191C120.686 37.2014 120.716 36.9966 120.716 35.3089V31.872C120.716 30.2816 120.035 29.4573 118.611 29.4573C117.651 29.4573 117.009 29.8857 116.65 30.2816C116.43 30.5904 116.328 30.8857 116.328 31.6263V35.3089C116.328 36.9966 116.353 37.2014 117.168 37.3191L117.596 37.4147C117.776 37.5393 117.743 37.913 117.582 37.9983C116.928 37.9642 116.283 37.913 115.449 37.913C114.636 37.913 113.954 37.9642 113.229 37.9983C113.052 37.913 113 37.541 113.186 37.4147L113.722 37.3191C114.586 37.2491 114.599 36.9966 114.599 35.3089V31.1672C114.599 30.2423 114.599 30.1433 113.973 29.7253L113.792 29.5478C113.677 29.4812 113.677 29.2287 113.807 29.1246C114.343 28.9625 115.651 28.3549 116.116 28C116.188 28 116.328 28.0529 116.353 28.1741C116.328 28.6962 116.328 29.0478 116.328 29.2474C116.328 29.3993 116.416 29.5119 116.565 29.5119C117.437 28.901 118.511 28.3191 119.609 28.3191C120.806 28.3191 121.428 28.7491 122.084 29.727C122.276 29.7491 122.452 29.6775 122.671 29.5119C123.578 28.8754 124.714 28.3191 125.783 28.3191C127.632 28.3191 128.545 29.6297 128.545 31.2577V35.3106C128.545 36.9983 128.577 37.2509 129.414 37.3208L129.97 37.4164C130.122 37.541 130.096 37.9147 129.915 38C129.19 37.9659 128.497 37.9147 127.7 37.9147C126.853 37.9147 126.219 37.9659 125.579 38C125.433 37.9147 125.378 37.5427 125.552 37.4164L125.951 37.3208C126.815 37.2031 126.832 36.9983 126.832 35.3106V31.872H126.833Z" fill="white"/>
<path d="M136.631 29.3882C136.833 29.8381 136.977 30.539 136.977 31.1121C136.886 31.277 136.57 31.3093 136.423 31.146C136.05 30.2278 135.359 29.6239 134.46 29.6239C133.566 29.6239 132.995 30.1585 132.995 30.9196C132.995 31.8192 133.919 32.2737 134.731 32.6681C135.937 33.3398 137.069 34.05 137.069 35.5567C137.069 37.1743 135.45 38 133.779 38C132.717 38 131.921 37.7658 131.367 37.353C131.168 36.9386 131.037 35.8756 131.076 35.1838C131.193 35.0652 131.487 35.0591 131.597 35.153C131.987 36.3393 132.717 37.3545 134.007 37.3545C134.818 37.3545 135.519 36.917 135.519 36.0265C135.519 35.0298 134.626 34.4844 133.781 34.0515C132.468 33.3413 131.547 32.6111 131.547 31.448C131.547 29.8797 132.904 29 134.627 29C135.569 29 136.418 29.2188 136.631 29.3882Z" fill="white"/>
</svg>
