<svg width="379" height="54" viewBox="0 0 379 54" fill="none" xmlns="http://www.w3.org/2000/svg">
<path d="M97.8125 26.0938L87.5938 26.0938V20.4062L97.2344 20.4063V16.7813L87.5938 16.7812V11.3438L97.8125 11.3438V7.45313L82.875 7.45312V30L97.8125 30V26.0938ZM116.656 12.7969H112.094V22.5938C112.094 24.9219 110.766 26.4531 108.641 26.4531C106.531 26.4531 105.375 25.2031 105.375 22.875V12.7969H100.812V23.8281C100.812 27.8281 103.266 30.25 106.984 30.25C109.594 30.25 111.281 29.0469 112.156 26.8906H112.25V30L116.656 30V12.7969ZM119.766 30H124.328V20.375C124.328 17.9688 125.688 16.5313 128 16.5313C128.672 16.5313 129.297 16.6406 129.688 16.7969V12.7656C129.359 12.6563 128.891 12.5938 128.359 12.5938C126.328 12.5938 124.844 13.75 124.266 15.875H124.172V12.7969H119.766V30ZM138.922 30.2969C144.141 30.2969 147.406 26.9688 147.406 21.3906C147.406 15.875 144.109 12.5 138.922 12.5C133.75 12.5 130.438 15.8906 130.438 21.3906C130.438 26.9531 133.703 30.2969 138.922 30.2969ZM138.922 26.7813C136.516 26.7813 135.062 24.8125 135.062 21.3906C135.062 18.0156 136.516 16 138.922 16C141.312 16 142.766 18 142.766 21.3906C142.766 24.8125 141.328 26.7813 138.922 26.7813ZM149.984 30H154.547V20.2344C154.547 17.9219 155.875 16.3438 158.125 16.3438C160.297 16.3438 161.422 17.7031 161.422 19.9531V30H165.984V19C165.984 15.0156 163.781 12.5469 159.969 12.5469C157.344 12.5469 155.531 13.7031 154.562 15.875H154.469V6.375L149.984 6.375V30ZM176.688 15.9063C178.797 15.9063 180.266 17.375 180.344 19.625H172.922C173.078 17.4219 174.609 15.9063 176.688 15.9063ZM180.406 24.75C179.969 26.0781 178.609 26.8906 176.891 26.8906C174.484 26.8906 172.875 25.2188 172.875 22.7344V22.4531L184.75 22.4531V21.0469C184.75 15.8125 181.594 12.5 176.641 12.5C171.594 12.5 168.375 16 168.375 21.4688C168.375 26.9375 171.578 30.2969 176.812 30.2969C181 30.2969 184.109 28.0781 184.609 24.75L180.406 24.75ZM193.781 26.875C192.125 26.875 191.047 26.0781 191.047 24.8125C191.047 23.5469 192.062 22.7969 193.969 22.6719L197.578 22.4219V23.6875C197.578 25.5625 195.891 26.875 193.781 26.875ZM192.297 30.2031C194.5 30.2031 196.625 29.1406 197.562 27.3438H197.656V30H202.062V18.2031C202.062 14.7656 199.172 12.5 194.75 12.5C190.453 12.5 187.484 14.7656 187.359 18.0469H191.531C191.75 16.7969 192.906 15.9219 194.562 15.9219C196.438 15.9219 197.578 16.8281 197.578 18.4844V19.625L193.281 19.8906C188.891 20.1563 186.5 21.9219 186.5 25.0469C186.5 28.125 188.984 30.2031 192.297 30.2031ZM205.266 30H209.828V6.375L205.266 6.375V30ZM214.266 8.96875V12.7969H211.938V16.25H214.266V25.3594C214.266 28.7188 215.828 30.0625 219.812 30.0625C220.734 30.0625 221.547 29.9688 222.016 29.875V26.5C221.734 26.5469 221.281 26.5781 220.875 26.5781C219.484 26.5781 218.828 25.9375 218.828 24.6094V16.25H222.016V12.7969L218.828 12.7969V8.96875H214.266ZM224.766 30H229.328V20.2344C229.328 17.9219 230.656 16.3438 232.906 16.3438C235.078 16.3438 236.203 17.7031 236.203 19.9531V30H240.766V19C240.766 15.0156 238.562 12.5469 234.75 12.5469C232.125 12.5469 230.312 13.7031 229.344 15.875H229.25V6.375L224.766 6.375V30ZM250.156 23.5781C250.297 27.8125 253.75 30.3906 259.172 30.3906C264.766 30.3906 268.312 27.625 268.312 23.25C268.312 19.8125 266.344 17.875 261.828 16.9063L259.094 16.3281C256.5 15.7344 255.406 14.9531 255.406 13.5625C255.406 11.8906 256.969 10.7813 259.297 10.7813C261.656 10.7813 263.328 11.9375 263.484 13.8438H267.906C267.828 9.76563 264.531 7.0625 259.281 7.0625C254.25 7.0625 250.656 9.8125 250.656 13.9688C250.656 17.2656 252.703 19.375 256.859 20.2656L259.797 20.9063C262.516 21.5156 263.594 22.3281 263.594 23.7969C263.594 25.4531 261.875 26.6563 259.359 26.6563C256.859 26.6563 254.922 25.4375 254.703 23.5781H250.156ZM273.078 36.2813C277.375 36.2813 279.484 34.7344 280.953 30.3438L286.906 12.7969L282.094 12.7969L278.359 26.2969H278.266L274.547 12.7969L269.547 12.7969L275.578 30.1094L275.422 30.7656C275.062 32.1406 274.078 32.7344 272.375 32.7344C272.188 32.7344 271.5 32.7188 271.344 32.6875V36.2188C271.516 36.25 272.906 36.2813 273.078 36.2813ZM288.25 17.8594C288.25 20.375 289.922 22.0469 293.156 22.7813L296.328 23.5C297.891 23.875 298.484 24.3438 298.484 25.2344C298.484 26.3594 297.375 27.0625 295.562 27.0625C293.672 27.0625 292.5 26.25 292.281 24.7969L287.828 24.7969C288.062 28.1094 290.906 30.2969 295.438 30.2969C299.938 30.2969 303.016 28.0938 303.016 24.75C303.016 22.1875 301.641 20.8594 298.188 20.0781L294.953 19.375C293.406 19.0156 292.656 18.4375 292.656 17.5781C292.656 16.4688 293.75 15.7344 295.391 15.7344C297.141 15.7344 298.281 16.5938 298.375 17.9531H302.594C302.531 14.6719 299.703 12.5 295.453 12.5C291.094 12.5 288.25 14.625 288.25 17.8594ZM306.609 8.96875V12.7969H304.281V16.25H306.609V25.3594C306.609 28.7188 308.172 30.0625 312.156 30.0625C313.078 30.0625 313.891 29.9688 314.359 29.875V26.5C314.078 26.5469 313.625 26.5781 313.219 26.5781C311.828 26.5781 311.172 25.9375 311.172 24.6094V16.25L314.359 16.25V12.7969H311.172V8.96875L306.609 8.96875ZM324.406 15.9063C326.516 15.9063 327.984 17.375 328.062 19.625H320.641C320.797 17.4219 322.328 15.9063 324.406 15.9063ZM328.125 24.75C327.688 26.0781 326.328 26.8906 324.609 26.8906C322.203 26.8906 320.594 25.2188 320.594 22.7344V22.4531H332.469V21.0469C332.469 15.8125 329.312 12.5 324.359 12.5C319.312 12.5 316.094 16 316.094 21.4688C316.094 26.9375 319.297 30.2969 324.531 30.2969C328.719 30.2969 331.828 28.0781 332.328 24.75H328.125ZM334.922 30L339.484 30V19.6563C339.484 17.7031 340.734 16.3281 342.531 16.3281C344.297 16.3281 345.359 17.4375 345.359 19.2813V30H349.766V19.5938C349.766 17.6406 350.969 16.3281 352.766 16.3281C354.625 16.3281 355.641 17.4375 355.641 19.4531V30L360.203 30V18.3125C360.203 14.8438 357.938 12.5469 354.562 12.5469C352.062 12.5469 350 13.9063 349.219 16.0625H349.125C348.547 13.8125 346.797 12.5469 344.328 12.5469C342.031 12.5469 340.156 13.8438 339.422 15.9219H339.328V12.7969H334.922V30ZM362.938 17.8594C362.938 20.375 364.609 22.0469 367.844 22.7813L371.016 23.5C372.578 23.875 373.172 24.3438 373.172 25.2344C373.172 26.3594 372.062 27.0625 370.25 27.0625C368.359 27.0625 367.188 26.25 366.969 24.7969H362.516C362.75 28.1094 365.594 30.2969 370.125 30.2969C374.625 30.2969 377.703 28.0938 377.703 24.75C377.703 22.1875 376.328 20.8594 372.875 20.0781L369.641 19.375C368.094 19.0156 367.344 18.4375 367.344 17.5781C367.344 16.4688 368.438 15.7344 370.078 15.7344C371.828 15.7344 372.969 16.5938 373.062 17.9531H377.281C377.219 14.6719 374.391 12.5 370.141 12.5C365.781 12.5 362.938 14.625 362.938 17.8594Z" fill="white"/>
<path fill-rule="evenodd" clip-rule="evenodd" d="M47.4419 15.4267C43.2768 10.5487 37.0821 7.45607 30.1651 7.45607C17.6236 7.45607 7.45678 17.6229 7.45678 30.1644C7.45678 42.7058 17.6236 52.8726 30.1651 52.8726C30.5862 52.8726 31.0047 52.8612 31.4202 52.8385C29.4962 53.3041 27.4868 53.5509 25.4197 53.5509C11.3808 53.5509 0 42.1701 0 28.1311C0 14.0922 11.3808 2.71143 25.4197 2.71143C34.8308 2.71143 43.0475 7.82576 47.4419 15.4267Z" fill="white"/>
<path fill-rule="evenodd" clip-rule="evenodd" d="M12.8797 38.1229C17.0448 43.0016 23.2399 46.0947 30.1575 46.0947C42.6989 46.0947 52.8658 35.9279 52.8658 23.3864C52.8658 10.845 42.6989 0.678146 30.1575 0.678146C29.7362 0.678146 29.3176 0.689621 28.902 0.712269C30.826 0.246651 32.8355 -8.01086e-05 34.9025 -8.01086e-05C48.9415 -8.01086e-05 60.3223 11.3807 60.3223 25.4196C60.3223 39.4586 48.9415 50.8394 34.9025 50.8394C25.491 50.8394 17.274 45.7245 12.8797 38.1229Z" fill="white"/>
<path d="M87.751 48H86.5205V39.2432H83.3418V38.1357H90.9297V39.2432H87.751V48ZM90.9844 48V40.6309H92.1055V41.8271H92.1328C92.2422 41.4398 92.4587 41.1322 92.7822 40.9043C93.1058 40.6764 93.484 40.5625 93.917 40.5625C94.1038 40.5625 94.2565 40.5785 94.375 40.6104V41.7861C94.2474 41.7314 94.0423 41.7041 93.7598 41.7041C93.2812 41.7041 92.8962 41.8636 92.6045 42.1826C92.3174 42.5016 92.1738 42.9209 92.1738 43.4404V48H90.9844ZM97.834 47.0361C98.4355 47.0361 98.9323 46.863 99.3242 46.5166C99.7207 46.1657 99.9189 45.7259 99.9189 45.1973V44.6025L97.9912 44.7256C96.8701 44.7939 96.3096 45.1882 96.3096 45.9082C96.3096 46.25 96.4463 46.5234 96.7197 46.7285C96.9977 46.9336 97.3691 47.0361 97.834 47.0361ZM97.5811 48.0684C96.8337 48.0684 96.2321 47.8701 95.7764 47.4736C95.3206 47.0771 95.0928 46.5531 95.0928 45.9014C95.0928 45.2679 95.3298 44.7712 95.8037 44.4111C96.2777 44.0465 96.9613 43.8369 97.8545 43.7822L99.9189 43.6592V43.0439C99.9189 42.5882 99.7731 42.2373 99.4814 41.9912C99.1898 41.7451 98.7728 41.6221 98.2305 41.6221C97.8021 41.6221 97.4398 41.7246 97.1436 41.9297C96.8519 42.1348 96.6696 42.4105 96.5967 42.7568H95.4551C95.4733 42.137 95.749 41.6175 96.2822 41.1982C96.8154 40.7744 97.4694 40.5625 98.2441 40.5625C99.1146 40.5625 99.8096 40.779 100.329 41.2119C100.849 41.6403 101.108 42.2168 101.108 42.9414V48H99.9805V46.7217H99.9531C99.7435 47.1318 99.4245 47.46 98.9961 47.7061C98.5677 47.9476 98.096 48.0684 97.5811 48.0684ZM102.688 48V40.6309H103.809V41.8271H103.836C104.305 40.984 105.107 40.5625 106.242 40.5625C107.053 40.5625 107.694 40.8063 108.163 41.2939C108.632 41.777 108.867 42.4378 108.867 43.2764V48H107.678V43.4814C107.678 42.8799 107.523 42.4196 107.213 42.1006C106.908 41.7816 106.465 41.6221 105.887 41.6221C105.281 41.6221 104.793 41.8135 104.424 42.1963C104.059 42.5791 103.877 43.0872 103.877 43.7207V48H102.688ZM110.33 42.6885C110.33 42.0687 110.583 41.5605 111.089 41.1641C111.599 40.7676 112.256 40.5693 113.058 40.5693C113.805 40.5693 114.432 40.7699 114.938 41.1709C115.448 41.5674 115.715 42.0687 115.737 42.6748H114.596C114.559 42.3285 114.4 42.055 114.117 41.8545C113.835 41.654 113.468 41.5537 113.017 41.5537C112.561 41.5537 112.194 41.6517 111.916 41.8477C111.638 42.0436 111.499 42.3034 111.499 42.627C111.499 43.1191 111.914 43.4678 112.743 43.6729L113.864 43.9531C114.607 44.14 115.129 44.3815 115.43 44.6777C115.735 44.9694 115.888 45.3841 115.888 45.9219C115.888 46.5508 115.614 47.0658 115.067 47.4668C114.525 47.8678 113.828 48.0684 112.976 48.0684C112.183 48.0684 111.524 47.8724 111 47.4805C110.476 47.084 110.184 46.5667 110.125 45.9287L111.321 45.9287C111.381 46.3024 111.558 46.5895 111.854 46.79C112.155 46.986 112.556 47.084 113.058 47.084C113.559 47.084 113.955 46.9883 114.247 46.7969C114.543 46.6009 114.691 46.3366 114.691 46.0039C114.691 45.7441 114.605 45.5391 114.432 45.3887C114.258 45.2337 113.962 45.1016 113.543 44.9922L112.251 44.6572C110.97 44.3245 110.33 43.6683 110.33 42.6885ZM117.569 48V41.6152H116.544V40.6309H117.569V39.9473C117.569 39.2637 117.724 38.7646 118.034 38.4502C118.349 38.1357 118.848 37.9785 119.531 37.9785C119.75 37.9785 119.971 37.999 120.194 38.04V39.0244C120.026 38.988 119.841 38.9697 119.641 38.9697C119.331 38.9697 119.107 39.0472 118.971 39.2021C118.834 39.3525 118.763 39.6009 118.759 39.9473V40.6309H120.194V41.6152H118.759V48H117.569ZM126.654 47.0498C126.039 47.7288 125.214 48.0684 124.18 48.0684C123.145 48.0684 122.32 47.7288 121.705 47.0498C121.09 46.3708 120.782 45.4593 120.782 44.3154C120.782 43.1715 121.09 42.2601 121.705 41.5811C122.32 40.902 123.145 40.5625 124.18 40.5625C125.214 40.5625 126.039 40.902 126.654 41.5811C127.27 42.2601 127.577 43.1715 127.577 44.3154C127.577 45.4593 127.27 46.3708 126.654 47.0498ZM124.18 47.0088C124.868 47.0088 125.403 46.7718 125.786 46.2979C126.174 45.8193 126.367 45.1585 126.367 44.3154C126.367 43.4678 126.174 42.807 125.786 42.333C125.403 41.859 124.868 41.6221 124.18 41.6221C123.492 41.6221 122.954 41.8613 122.566 42.3398C122.184 42.8138 121.992 43.4723 121.992 44.3154C121.992 45.1585 122.186 45.8193 122.573 46.2979C122.961 46.7718 123.496 47.0088 124.18 47.0088ZM128.828 48V40.6309H129.949V41.8271H129.977C130.086 41.4398 130.302 41.1322 130.626 40.9043C130.95 40.6764 131.328 40.5625 131.761 40.5625C131.948 40.5625 132.1 40.5785 132.219 40.6104V41.7861C132.091 41.7314 131.886 41.7041 131.604 41.7041C131.125 41.7041 130.74 41.8636 130.448 42.1826C130.161 42.5016 130.018 42.9209 130.018 43.4404V48H128.828ZM133.271 48V40.6309H134.393V41.8271H134.42C134.593 41.4352 134.864 41.1276 135.233 40.9043C135.607 40.6764 136.033 40.5625 136.512 40.5625C137.008 40.5625 137.437 40.6833 137.797 40.9248C138.157 41.1663 138.417 41.5104 138.576 41.957H138.604C138.813 41.5195 139.123 41.1777 139.533 40.9316C139.943 40.6855 140.406 40.5625 140.921 40.5625C141.65 40.5625 142.231 40.7813 142.664 41.2188C143.102 41.6563 143.32 42.2396 143.32 42.9688V48H142.131V43.2422C142.131 42.7318 141.994 42.3353 141.721 42.0527C141.452 41.7656 141.071 41.6221 140.579 41.6221C140.087 41.6221 139.681 41.7861 139.362 42.1143C139.048 42.4424 138.891 42.8594 138.891 43.3652V48H137.701V43.0986C137.701 42.652 137.56 42.2943 137.277 42.0254C136.999 41.7565 136.63 41.6221 136.17 41.6221C135.678 41.6221 135.27 41.7952 134.946 42.1416C134.623 42.4834 134.461 42.9118 134.461 43.4268V48H133.271ZM144.975 48V40.6309H146.164V48H144.975ZM145.569 39.4414C145.364 39.4414 145.187 39.3685 145.036 39.2227C144.89 39.0723 144.817 38.8945 144.817 38.6895C144.817 38.4798 144.89 38.3021 145.036 38.1563C145.187 38.0104 145.364 37.9375 145.569 37.9375C145.779 37.9375 145.957 38.0104 146.103 38.1563C146.248 38.3021 146.321 38.4798 146.321 38.6895C146.321 38.8945 146.248 39.0723 146.103 39.2227C145.957 39.3685 145.779 39.4414 145.569 39.4414ZM147.846 48V40.6309H148.967V41.8271H148.994C149.464 40.984 150.266 40.5625 151.4 40.5625C152.212 40.5625 152.852 40.8063 153.321 41.2939C153.791 41.777 154.025 42.4378 154.025 43.2764V48H152.836V43.4814C152.836 42.8799 152.681 42.4196 152.371 42.1006C152.066 41.7816 151.624 41.6221 151.045 41.6221C150.439 41.6221 149.951 41.8135 149.582 42.1963C149.217 42.5791 149.035 43.0872 149.035 43.7207V48H147.846ZM158.592 46.9404C159.239 46.9404 159.761 46.6966 160.157 46.209C160.558 45.7168 160.759 45.0765 160.759 44.2881C160.759 43.4951 160.558 42.8525 160.157 42.3604C159.761 41.8682 159.239 41.6221 158.592 41.6221C157.949 41.6221 157.434 41.8659 157.047 42.3535C156.66 42.8366 156.466 43.4814 156.466 44.2881C156.466 45.0902 156.66 45.7327 157.047 46.2158C157.434 46.6989 157.949 46.9404 158.592 46.9404ZM158.612 50.6318C157.778 50.6318 157.083 50.445 156.527 50.0713C155.971 49.7021 155.65 49.2122 155.563 48.6016H156.801C156.887 48.9069 157.099 49.1484 157.437 49.3262C157.778 49.5085 158.193 49.5996 158.681 49.5996C159.319 49.5996 159.825 49.4447 160.198 49.1348C160.572 48.8294 160.759 48.4147 160.759 47.8906V46.7354H160.731C160.499 47.1364 160.175 47.4486 159.761 47.6719C159.346 47.8906 158.881 48 158.366 48C157.432 48 156.678 47.6605 156.104 46.9814C155.534 46.2979 155.249 45.4001 155.249 44.2881C155.249 43.1624 155.536 42.2601 156.11 41.5811C156.685 40.902 157.446 40.5625 158.394 40.5625C158.913 40.5625 159.38 40.6719 159.795 40.8906C160.214 41.1094 160.547 41.4215 160.793 41.8271H160.813V40.6309H161.948V47.7949C161.948 48.6745 161.65 49.3672 161.053 49.873C160.46 50.3789 159.647 50.6318 158.612 50.6318ZM174.943 48H173.713V43.5088H168.299V48H167.068V38.1357H168.299V42.4014H173.713V38.1357H174.943V48ZM179.646 41.6084C179.068 41.6084 178.587 41.7998 178.204 42.1826C177.826 42.5654 177.616 43.069 177.575 43.6934H181.629C181.615 43.069 181.426 42.5654 181.062 42.1826C180.701 41.7998 180.23 41.6084 179.646 41.6084ZM181.602 45.8945H182.777C182.677 46.528 182.34 47.0498 181.766 47.46C181.191 47.8656 180.51 48.0684 179.722 48.0684C178.687 48.0684 177.865 47.7334 177.254 47.0635C176.648 46.3936 176.345 45.4867 176.345 44.3428C176.345 43.1989 176.648 42.2829 177.254 41.5947C177.86 40.9066 178.664 40.5625 179.667 40.5625C180.651 40.5625 181.431 40.8883 182.005 41.54C182.579 42.1872 182.866 43.0667 182.866 44.1787V44.6436H177.575V44.7119C177.575 45.4137 177.773 45.9743 178.17 46.3936C178.566 46.8128 179.093 47.0225 179.749 47.0225C180.209 47.0225 180.606 46.9222 180.938 46.7217C181.276 46.5166 181.497 46.2409 181.602 45.8945ZM186.523 47.0361C187.125 47.0361 187.622 46.863 188.014 46.5166C188.41 46.1657 188.608 45.7259 188.608 45.1973V44.6025L186.681 44.7256C185.56 44.7939 184.999 45.1882 184.999 45.9082C184.999 46.25 185.136 46.5234 185.409 46.7285C185.687 46.9336 186.059 47.0361 186.523 47.0361ZM186.271 48.0684C185.523 48.0684 184.922 47.8701 184.466 47.4736C184.01 47.0771 183.782 46.5531 183.782 45.9014C183.782 45.2679 184.019 44.7712 184.493 44.4111C184.967 44.0465 185.651 43.8369 186.544 43.7822L188.608 43.6592V43.0439C188.608 42.5882 188.463 42.2373 188.171 41.9912C187.879 41.7451 187.462 41.6221 186.92 41.6221C186.492 41.6221 186.129 41.7246 185.833 41.9297C185.541 42.1348 185.359 42.4105 185.286 42.7568H184.145C184.163 42.137 184.438 41.6175 184.972 41.1982C185.505 40.7744 186.159 40.5625 186.934 40.5625C187.804 40.5625 188.499 40.779 189.019 41.2119C189.538 41.6403 189.798 42.2168 189.798 42.9414V48H188.67V46.7217H188.643C188.433 47.1318 188.114 47.46 187.686 47.7061C187.257 47.9476 186.785 48.0684 186.271 48.0684ZM191.445 48V37.7051H192.635V48H191.445ZM194.706 38.9697L195.896 38.9697V40.6309L197.331 40.6309V41.6152L195.896 41.6152V46.0381C195.896 46.3753 195.968 46.6237 196.114 46.7832C196.265 46.9427 196.497 47.0225 196.812 47.0225C197.017 47.0225 197.188 47.0111 197.324 46.9883V47.9932C197.151 48.0342 196.896 48.0547 196.559 48.0547C195.893 48.0547 195.417 47.9043 195.13 47.6035C194.847 47.2982 194.706 46.7923 194.706 46.0859V41.6152H193.681V40.6309H194.706V38.9697ZM198.719 48V37.7051H199.908V41.8271H199.936C200.4 40.984 201.202 40.5625 202.342 40.5625C203.148 40.5625 203.8 40.8132 204.297 41.3145C204.794 41.8158 205.042 42.4766 205.042 43.2969V48H203.853V43.5088C203.853 42.9209 203.686 42.4606 203.354 42.1279C203.025 41.7907 202.57 41.6221 201.986 41.6221C201.362 41.6221 200.858 41.818 200.476 42.21C200.097 42.6019 199.908 43.1191 199.908 43.7617V48L198.719 48ZM212.712 43.0303H211.543C211.465 42.6156 211.26 42.2783 210.928 42.0186C210.595 41.7542 210.162 41.6221 209.629 41.6221C208.982 41.6221 208.46 41.8682 208.063 42.3604C207.667 42.8525 207.469 43.5042 207.469 44.3154C207.469 45.1449 207.667 45.8011 208.063 46.2842C208.465 46.7673 208.991 47.0088 209.643 47.0088C210.158 47.0088 210.579 46.8926 210.907 46.6602C211.24 46.4232 211.456 46.0837 211.557 45.6416H212.726C212.625 46.3662 212.293 46.9518 211.728 47.3984C211.167 47.8451 210.47 48.0684 209.636 48.0684C208.615 48.0684 207.797 47.7311 207.182 47.0566C206.566 46.3776 206.259 45.4639 206.259 44.3154C206.259 43.1852 206.566 42.2783 207.182 41.5947C207.797 40.9066 208.61 40.5625 209.622 40.5625C210.493 40.5625 211.206 40.804 211.762 41.2871C212.318 41.7656 212.634 42.3467 212.712 43.0303ZM216.273 47.0361C216.875 47.0361 217.372 46.863 217.764 46.5166C218.16 46.1657 218.358 45.7259 218.358 45.1973V44.6025L216.431 44.7256C215.31 44.7939 214.749 45.1882 214.749 45.9082C214.749 46.25 214.886 46.5234 215.159 46.7285C215.437 46.9336 215.809 47.0361 216.273 47.0361ZM216.021 48.0684C215.273 48.0684 214.672 47.8701 214.216 47.4736C213.76 47.0771 213.532 46.5531 213.532 45.9014C213.532 45.2679 213.769 44.7712 214.243 44.4111C214.717 44.0465 215.401 43.8369 216.294 43.7822L218.358 43.6592V43.0439C218.358 42.5882 218.213 42.2373 217.921 41.9912C217.629 41.7451 217.212 41.6221 216.67 41.6221C216.242 41.6221 215.879 41.7246 215.583 41.9297C215.291 42.1348 215.109 42.4105 215.036 42.7568H213.895C213.913 42.137 214.188 41.6175 214.722 41.1982C215.255 40.7744 215.909 40.5625 216.684 40.5625C217.554 40.5625 218.249 40.779 218.769 41.2119C219.288 41.6403 219.548 42.2168 219.548 42.9414V48H218.42V46.7217H218.393C218.183 47.1318 217.864 47.46 217.436 47.7061C217.007 47.9476 216.535 48.0684 216.021 48.0684ZM221.127 48V40.6309H222.248V41.8271H222.275C222.385 41.4398 222.601 41.1322 222.925 40.9043C223.248 40.6764 223.627 40.5625 224.06 40.5625C224.246 40.5625 224.399 40.5785 224.518 40.6104V41.7861C224.39 41.7314 224.185 41.7041 223.902 41.7041C223.424 41.7041 223.039 41.8636 222.747 42.1826C222.46 42.5016 222.316 42.9209 222.316 43.4404V48H221.127ZM228.168 41.6084C227.589 41.6084 227.108 41.7998 226.726 42.1826C226.347 42.5654 226.138 43.069 226.097 43.6934H230.15C230.137 43.069 229.948 42.5654 229.583 42.1826C229.223 41.7998 228.751 41.6084 228.168 41.6084ZM230.123 45.8945H231.299C231.199 46.528 230.861 47.0498 230.287 47.46C229.713 47.8656 229.032 48.0684 228.243 48.0684C227.209 48.0684 226.386 47.7334 225.775 47.0635C225.169 46.3936 224.866 45.4867 224.866 44.3428C224.866 43.1989 225.169 42.2829 225.775 41.5947C226.382 40.9066 227.186 40.5625 228.188 40.5625C229.173 40.5625 229.952 40.8883 230.526 41.54C231.101 42.1872 231.388 43.0667 231.388 44.1787V44.6436H226.097V44.7119C226.097 45.4137 226.295 45.9743 226.691 46.3936C227.088 46.8128 227.614 47.0225 228.271 47.0225C228.731 47.0225 229.127 46.9222 229.46 46.7217C229.797 46.5166 230.018 46.2409 230.123 45.8945ZM236.139 38.1357L239.522 38.1357C240.985 38.1357 242.127 38.571 242.947 39.4414C243.768 40.3073 244.178 41.515 244.178 43.0645C244.178 44.6185 243.768 45.8307 242.947 46.7012C242.132 47.5671 240.99 48 239.522 48H236.139V38.1357ZM237.369 39.2432V46.8926H239.44C240.557 46.8926 241.416 46.5645 242.018 45.9082C242.619 45.2474 242.92 44.304 242.92 43.0781C242.92 41.8431 242.619 40.8952 242.018 40.2344C241.421 39.5736 240.562 39.2432 239.44 39.2432H237.369ZM248.498 41.6084C247.919 41.6084 247.438 41.7998 247.056 42.1826C246.677 42.5654 246.468 43.069 246.427 43.6934H250.48C250.467 43.069 250.278 42.5654 249.913 42.1826C249.553 41.7998 249.081 41.6084 248.498 41.6084ZM250.453 45.8945H251.629C251.529 46.528 251.191 47.0498 250.617 47.46C250.043 47.8656 249.362 48.0684 248.573 48.0684C247.539 48.0684 246.716 47.7334 246.105 47.0635C245.499 46.3936 245.196 45.4867 245.196 44.3428C245.196 43.1989 245.499 42.2829 246.105 41.5947C246.712 40.9066 247.516 40.5625 248.519 40.5625C249.503 40.5625 250.282 40.8883 250.856 41.54C251.431 42.1872 251.718 43.0667 251.718 44.1787V44.6436H246.427V44.7119C246.427 45.4137 246.625 45.9743 247.021 46.3936C247.418 46.8128 247.944 47.0225 248.601 47.0225C249.061 47.0225 249.457 46.9222 249.79 46.7217C250.127 46.5166 250.348 46.2409 250.453 45.8945ZM253.037 48V37.7051H254.227V48H253.037ZM255.977 48V40.6309H257.166V48H255.977ZM256.571 39.4414C256.366 39.4414 256.188 39.3685 256.038 39.2227C255.892 39.0723 255.819 38.8945 255.819 38.6895C255.819 38.4798 255.892 38.3021 256.038 38.1563C256.188 38.0104 256.366 37.9375 256.571 37.9375C256.781 37.9375 256.959 38.0104 257.104 38.1563C257.25 38.3021 257.323 38.4798 257.323 38.6895C257.323 38.8945 257.25 39.0723 257.104 39.2227C256.959 39.3685 256.781 39.4414 256.571 39.4414ZM264.856 40.6309L262.136 48H260.933L258.212 40.6309H259.456L261.521 46.7148H261.548L263.619 40.6309H264.856ZM268.568 41.6084C267.99 41.6084 267.509 41.7998 267.126 42.1826C266.748 42.5654 266.538 43.069 266.497 43.6934H270.551C270.537 43.069 270.348 42.5654 269.983 42.1826C269.623 41.7998 269.152 41.6084 268.568 41.6084ZM270.523 45.8945H271.699C271.599 46.528 271.262 47.0498 270.688 47.46C270.113 47.8656 269.432 48.0684 268.644 48.0684C267.609 48.0684 266.786 47.7334 266.176 47.0635C265.57 46.3936 265.267 45.4867 265.267 44.3428C265.267 43.1989 265.57 42.2829 266.176 41.5947C266.782 40.9066 267.586 40.5625 268.589 40.5625C269.573 40.5625 270.353 40.8883 270.927 41.54C271.501 42.1872 271.788 43.0667 271.788 44.1787V44.6436H266.497V44.7119C266.497 45.4137 266.695 45.9743 267.092 46.3936C267.488 46.8128 268.015 47.0225 268.671 47.0225C269.131 47.0225 269.528 46.9222 269.86 46.7217C270.198 46.5166 270.419 46.2409 270.523 45.8945ZM273.039 48V40.6309H274.16V41.8271H274.188C274.297 41.4398 274.513 41.1322 274.837 40.9043C275.16 40.6764 275.539 40.5625 275.972 40.5625C276.159 40.5625 276.311 40.5785 276.43 40.6104V41.7861C276.302 41.7314 276.097 41.7041 275.814 41.7041C275.336 41.7041 274.951 41.8636 274.659 42.1826C274.372 42.5016 274.229 42.9209 274.229 43.4404V48H273.039ZM278.111 50.6729C277.934 50.6729 277.76 50.6569 277.592 50.625V49.6201C277.729 49.6475 277.89 49.6611 278.077 49.6611C278.419 49.6611 278.692 49.5677 278.897 49.3809C279.103 49.1986 279.28 48.8864 279.431 48.4443L279.574 48.0068L276.847 40.6309H278.111L280.176 46.79H280.203L282.268 40.6309H283.519L280.634 48.4512C280.319 49.3034 279.982 49.8867 279.622 50.2012C279.267 50.5156 278.763 50.6729 278.111 50.6729Z" fill="white"/>
</svg>
