<svg width="18" height="19" viewBox="0 0 18 19" fill="none" xmlns="http://www.w3.org/2000/svg">
<path d="M15.4178 4.74692L13.5457 2.87661C13.3172 2.6481 13.0113 2.51978 12.6879 2.51978C12.3645 2.51978 12.0586 2.64634 11.8301 2.87661L9.81387 4.88931C9.58535 5.11782 9.45703 5.42544 9.45703 5.74888C9.45703 6.07407 9.58359 6.37817 9.81387 6.60845L11.3889 8.1852C11.0301 9.0212 10.5145 9.78077 9.87012 10.4229C9.225 11.0715 8.4709 11.5831 7.63418 11.9452L6.05918 10.3684C5.83066 10.1399 5.5248 10.0116 5.20137 10.0116C5.04183 10.011 4.88379 10.0422 4.73649 10.1035C4.58919 10.1648 4.4556 10.2548 4.34355 10.3684L2.32559 12.3811C2.09707 12.6096 1.96875 12.9172 1.96875 13.2407C1.96875 13.5659 2.09531 13.87 2.32559 14.1002L4.1959 15.9706C4.58613 16.3608 5.12402 16.584 5.67598 16.584C5.79023 16.584 5.90098 16.5752 6.01348 16.5559C8.34082 16.1727 10.6506 14.9334 12.5156 13.0702C14.3789 11.2034 15.6164 8.8936 16.0031 6.5645C16.1139 5.90356 15.8924 5.22329 15.4178 4.74692ZM14.7568 6.35532C14.4141 8.42778 13.2996 10.495 11.6209 12.1737C9.94219 13.8524 7.87676 14.9668 5.8043 15.3096C5.54414 15.3536 5.27695 15.2657 5.08711 15.0776L3.2502 13.2407L5.19785 11.2913L7.30371 13.4006L7.31953 13.4165L7.69922 13.2758C8.85046 12.8526 9.89589 12.184 10.7631 11.3165C11.6302 10.4491 12.2984 9.40339 12.7213 8.252L12.8619 7.87231L10.7385 5.75063L12.6861 3.80122L14.523 5.63813C14.7129 5.82798 14.8008 6.09517 14.7568 6.35532Z" fill="#013B5D"/>
</svg>
