<svg width="110" height="110" viewBox="0 0 110 110" fill="none" xmlns="http://www.w3.org/2000/svg">
<path d="M100 47.7419H96.7381L91.8765 50.3C91.3293 49.998 90.7601 49.7422 90.1463 49.5883L84.0308 48.0581V47.3627C86.7363 45.4745 88.3871 42.3551 88.3871 39.0323V36.4948C88.3871 30.8556 83.9685 26.1364 78.5377 25.972C78.262 25.9649 77.9905 25.9748 77.7176 25.9883L79.3032 22.2763L71.6163 14.5916L67.085 17.5409C65.3633 16.5712 63.5424 15.8164 61.6513 15.2869L60.5322 10H49.4693L48.3501 15.2883C46.459 15.8178 44.6367 16.5727 42.9165 17.5423L38.3851 14.593L30.7046 22.2735L32.2633 25.9883C32.2037 25.9855 32.147 25.9748 32.0875 25.9734C29.3076 25.8926 26.6893 26.9069 24.7004 28.8377C22.7087 30.767 21.6129 33.3562 21.6129 36.129V39.0323C21.6129 42.3551 23.2623 45.4731 25.9677 47.3613V48.0581L21.9786 49.0553L14.7482 44.8387H10V74.9179L24.2808 79.6774H27.0621L27.4094 78.4611L31.787 81.0886C31.8585 83.4688 33.7673 85.3839 36.1453 85.4676C36.229 87.8357 38.1321 89.7388 40.5002 89.8224C40.5838 92.1905 42.4869 94.0936 44.855 94.1772C44.9415 96.6006 46.9261 98.5484 49.3693 98.5484C50.2766 98.5484 51.1661 98.2656 51.9139 97.7616L53.1997 98.8971C54.0056 99.6066 55.0432 100 56.1206 100H56.3892C58.8048 100 60.7703 98.0473 60.8008 95.6395C63.1901 95.609 65.1251 93.674 65.1556 91.2847C67.5464 91.2542 69.4828 89.3163 69.5105 86.9256C71.9232 86.8689 73.871 84.8977 73.871 82.4715C73.871 82.3255 73.8639 82.1816 73.849 82.0363L100 68.9619V47.7419ZM85.4839 36.4948V39.0323C85.4839 41.6087 84.0918 44.0158 81.8506 45.3136L81.1248 45.7332L81.1305 50.3269L88.3828 52.1386L72.4194 60.5407V56.6302C72.4194 54.6789 71.6312 52.892 70.3405 51.5716L75.3226 50.3269V45.7297L74.5982 45.3108C72.3584 44.0158 70.9677 41.6087 70.9677 39.0323V36.129C70.9677 34.1494 71.7503 32.298 73.1728 30.9194C74.5939 29.5415 76.4793 28.7987 78.4505 28.8752C82.3283 28.9915 85.4839 32.41 85.4839 36.4948ZM57.1888 59.3995L50.6175 57.2993C47.6229 56.3396 44.3815 56.1964 41.316 56.8755L40.4839 57.0598V56.6302C40.4839 54.6286 41.8412 52.8906 43.7819 52.4044L52.0968 50.3269V45.7297L51.3724 45.3108C49.1326 44.0158 47.7419 41.6087 47.7419 39.0323V36.129C47.7419 34.1494 48.5244 32.298 49.947 30.9194C51.3681 29.5415 53.2656 28.7987 55.2247 28.8752C59.1025 28.9915 62.2581 32.41 62.2581 36.4948V39.0323C62.2581 41.6087 60.866 44.0158 58.6248 45.3136L57.899 45.7332L57.9046 50.3269L66.2181 52.4044C68.1588 52.8906 69.5161 54.6286 69.5161 56.6302V62.0695L69.1575 62.2581H68.2679L59.3435 59.7078C58.6404 59.5086 57.916 59.4271 57.1888 59.3995ZM40.8092 31.726C43.5352 26.4441 49.022 23.0645 55 23.0645C60.9213 23.0645 66.3847 26.3987 69.1313 31.609C68.4402 32.9947 68.0645 34.5293 68.0645 36.129V39.0323C68.0645 42.3551 69.7139 45.4731 72.4194 47.3613V48.0581L66.6129 49.5118L60.805 48.0581V47.3627C63.5105 45.4745 65.1613 42.3551 65.1613 39.0323V36.4948C65.1613 30.8556 60.7427 26.1364 55.3119 25.972C52.5334 25.8905 49.9137 26.9055 47.9248 28.8362C45.9345 30.767 44.8387 33.3562 44.8387 36.129V39.0323C44.8387 42.3551 46.4881 45.4731 49.1936 47.3613V48.0581L43.3871 49.5118L37.5792 48.0581V47.3627C40.2847 45.4745 41.9355 42.3551 41.9355 39.0323V36.4948C41.9355 34.7866 41.5244 33.1649 40.8092 31.726ZM34.1331 22.9469L38.7707 18.3092L42.8527 20.9658L43.6338 20.4866C45.5907 19.2873 47.7058 18.4091 49.9194 17.8797L50.8124 17.6656L51.8225 12.9032H58.1789L59.1861 17.6642L60.0792 17.8776C62.2928 18.4077 64.4078 19.2859 66.3648 20.4852L67.1459 20.9644L71.2279 18.3078L75.8598 22.9412L74.2133 26.7963C73.0927 27.2783 72.0536 27.9566 71.1492 28.8334C71.0897 28.8915 71.0386 28.9539 70.9805 29.0134C67.5606 23.577 61.5145 20.1613 55 20.1613C48.4387 20.1613 42.3756 23.6089 38.9642 29.1006C38.0513 28.1452 36.9654 27.3712 35.7619 26.8303L34.1331 22.9469ZM28.871 50.3269V45.7297L28.1466 45.3108C25.9068 44.0158 24.5161 41.6087 24.5161 39.0323V36.129C24.5161 34.1494 25.2986 32.298 26.7212 30.9194C28.1423 29.5415 30.032 28.7987 31.9989 28.8752C35.8767 28.9915 39.0323 32.41 39.0323 36.4948V39.0323C39.0323 41.6087 37.6402 44.0158 35.399 45.3136L34.6732 45.7332L34.6788 50.3269L39.6595 51.5716C38.3688 52.892 37.5806 54.6789 37.5806 56.6302V57.7055L33.0529 58.712L33.1705 58.3009L33.2258 55.6181L25.5701 51.152L28.871 50.3269ZM12.9032 47.7419H13.9615L24.4013 53.8312L19.1335 74.9016L12.9032 72.8241V47.7419ZM24.7514 76.7742L21.8943 75.8223L27.0118 55.3544L30.3226 57.2852V57.6998L24.8734 76.7742H24.7514ZM34.6774 80.9533C34.6774 80.5251 34.8504 80.1055 35.1537 79.8022L37.7054 77.2505C38.0088 76.9471 38.4284 76.7742 38.8565 76.7742C39.7538 76.7742 40.4839 77.5043 40.4839 78.4016C40.4839 78.8297 40.3109 79.2493 40.0076 79.5527L37.4559 82.1043C37.1525 82.4077 36.7329 82.5807 36.3048 82.5807C35.4075 82.5807 34.6774 81.8506 34.6774 80.9533ZM39.0323 85.3081C39.0323 84.88 39.2052 84.4604 39.5086 84.157L42.0602 81.6053C42.3636 81.302 42.7832 81.129 43.2113 81.129C44.1087 81.129 44.8387 81.8591 44.8387 82.7564C44.8387 83.1845 44.6658 83.6041 44.3624 83.9075L41.8107 86.4592C41.5074 86.7625 41.0878 86.9355 40.6597 86.9355C39.7623 86.9355 39.0323 86.2054 39.0323 85.3081ZM43.3871 89.6629C43.3871 89.2348 43.56 88.8152 43.8634 88.5118L46.4151 85.9602C46.7184 85.6568 47.138 85.4839 47.5662 85.4839C48.4635 85.4839 49.1936 86.2139 49.1936 87.1113C49.1936 87.5394 49.0206 87.959 48.7172 88.2624L46.1656 90.814C45.8622 91.1174 45.4426 91.2903 45.0145 91.2903C44.1172 91.2903 43.3871 90.5603 43.3871 89.6629ZM49.3693 95.6452C48.472 95.6452 47.7419 94.9151 47.7419 94.0178C47.7419 93.5897 47.9149 93.1701 48.2182 92.8667L50.7699 90.315C51.0733 90.0117 51.4929 89.8387 51.921 89.8387C52.8183 89.8387 53.5484 90.5688 53.5484 91.4661C53.5484 91.8942 53.3754 92.3138 53.0721 92.6172L50.5204 95.1689C50.217 95.4722 49.7974 95.6452 49.3693 95.6452ZM56.3892 97.0968H56.1206C55.7506 97.0968 55.3962 96.9621 55.1205 96.7176L54.0346 95.76L55.1247 94.6699C55.5139 94.2807 55.8158 93.8179 56.0391 93.321L57.3589 94.4197C57.7041 94.7074 57.9032 95.1313 57.9032 95.5828C57.9032 96.4177 57.2242 97.0968 56.3892 97.0968ZM69.407 84.0323H69.1561C68.7917 84.0323 68.4359 83.9033 68.1574 83.6694L60.2855 77.1095L58.4256 79.3407L66.07 85.71C66.4137 85.9977 66.6129 86.4216 66.6129 86.8731C66.6129 87.7081 65.9339 88.3871 65.0989 88.3871H64.7821C64.4298 88.3871 64.0853 88.2624 63.8139 88.0355L55.9292 81.4657L54.0694 83.697L61.7137 90.0669C62.0589 90.3526 62.2581 90.7765 62.2581 91.228C62.2581 92.0629 61.579 92.7419 60.7441 92.7419C60.187 92.7419 59.644 92.5442 59.2166 92.1891L55.9767 89.4886C55.263 88.0299 53.7965 87.0127 52.0791 86.9518C51.9954 84.5837 50.0923 82.6806 47.7242 82.5969C47.6406 80.2289 45.7375 78.3258 43.3694 78.2421C43.2843 75.8187 41.2997 73.871 38.8565 73.871C37.6636 73.871 36.4962 74.3544 35.6527 75.1978L33.1011 77.7495C32.9487 77.9019 32.8225 78.0748 32.6942 78.2464L28.2352 75.5707L32.1442 61.8895L41.944 59.7107C44.5148 59.1358 47.2252 59.2606 49.7322 60.0629L51.8707 60.7469L44.6211 64.3717C42.9647 65.2017 41.9355 66.8681 41.9355 68.7209V69.0079C41.9355 71.6893 44.1172 73.871 46.7985 73.871C47.6796 73.871 48.5464 73.6314 49.2999 73.1771L54.7051 69.9357C55.791 69.2851 57.2483 69.4275 58.186 70.271L70.451 81.3091C70.7792 81.6068 70.9677 82.0292 70.9677 82.4715C70.9677 83.3327 70.2682 84.0323 69.407 84.0323ZM97.0968 67.1672L72.6412 79.396C72.5618 79.3117 72.4789 79.2316 72.3917 79.1536L60.1288 68.1156C59.0543 67.1459 57.6651 66.6129 56.2177 66.6129C55.1595 66.6129 54.1204 66.9007 53.2103 67.4464L47.8029 70.6892C47.4995 70.8721 47.1529 70.9677 46.7985 70.9677C45.7169 70.9677 44.8387 70.0895 44.8387 69.0079V68.7209C44.8387 67.9731 45.2541 67.3026 45.9217 66.9687L54.019 62.9201C55.4047 62.2262 57.0498 62.0709 58.5433 62.5005L67.6655 65.106L69.8748 65.1613L97.0968 50.8337V67.1672Z" fill="#333333"/>
</svg>
