<svg width="110" height="110" viewBox="0 0 110 110" fill="none" xmlns="http://www.w3.org/2000/svg">
<path d="M89.2444 44.2263H66.512C65.7839 44.2263 65.1938 44.8166 65.1938 45.5445C65.1938 46.2724 65.7841 46.8627 66.512 46.8627H89.2446C89.9727 46.8627 90.5628 46.2724 90.5628 45.5445C90.5628 44.8166 89.9725 44.2263 89.2444 44.2263Z" fill="#333333"/>
<path d="M89.2444 52.1738H66.512C65.7839 52.1738 65.1938 52.7641 65.1938 53.492C65.1938 54.2199 65.7841 54.8102 66.512 54.8102H89.2446C89.9727 54.8102 90.5628 54.2199 90.5628 53.492C90.5628 52.7641 89.9725 52.1738 89.2444 52.1738Z" fill="#333333"/>
<path d="M90.5628 61.4396C90.5628 60.7116 89.9725 60.1215 89.2446 60.1215H66.512C65.7839 60.1215 65.1938 60.7117 65.1938 61.4396C65.1938 62.1676 65.7841 62.7578 66.512 62.7578H89.2446C89.9725 62.758 90.5628 62.1677 90.5628 61.4396Z" fill="#333333"/>
<path d="M66.512 68.069C65.7839 68.069 65.1938 68.6592 65.1938 69.3872C65.1938 70.1151 65.7841 70.7053 66.512 70.7053H77.8782C78.6063 70.7053 79.1964 70.1151 79.1964 69.3872C79.1964 68.6592 78.6061 68.069 77.8782 68.069H66.512Z" fill="#333333"/>
<path d="M97.2063 25.5023L83.6147 11.9107C82.4071 10.7022 80.7525 10 79.0022 10H34.2766C30.6801 10 27.7543 12.9261 27.7543 16.5225V30.0192C27.7543 30.7473 28.3445 31.3374 29.0724 31.3374C29.8004 31.3374 30.3906 30.7471 30.3906 30.0192V16.5225C30.3906 14.3798 32.1338 12.6365 34.2766 12.6365H79.0022C79.2866 12.6365 79.5663 12.667 79.8396 12.7272V24.7324C79.8396 27.2383 81.8784 29.2771 84.3843 29.2771H96.388C96.4489 29.5521 96.48 29.8339 96.48 30.1145V93.4776C96.48 95.6202 94.7368 97.3636 92.594 97.3636H74.8844C76.4258 95.059 76.1804 91.9047 74.147 89.8713L62.1613 77.8857C61.2884 77.0127 60.0177 76.7782 58.9277 77.1759L56.3472 74.5954C63.6273 64.4859 62.5538 50.4982 53.6505 41.5947C43.7693 31.7137 27.557 31.5169 17.4793 41.5947C7.50689 51.5672 7.50689 67.7935 17.4793 77.766C26.3749 86.6617 40.3759 87.719 50.4791 80.4617L53.0604 83.0431C52.6628 84.1331 52.8973 85.4038 53.7704 86.2768L64.8573 97.3636H34.2766C32.134 97.3636 30.3906 95.6204 30.3906 93.4776V89.2527C30.3906 88.5246 29.8004 87.9345 29.0724 87.9345C28.3445 87.9345 27.7543 88.5248 27.7543 89.2527V93.4776C27.7543 97.0741 30.6803 100 34.2766 100H92.5942C96.1907 100 99.1167 97.0739 99.1167 93.4776V30.1145C99.1167 28.4038 98.4378 26.733 97.2063 25.5023ZM19.3438 75.9016C10.3994 66.9572 10.3994 52.4035 19.3438 43.4589C28.4022 34.4005 42.9407 34.6132 51.7865 43.4589C60.0226 51.6951 60.7899 64.7812 53.5711 73.8982C52.4629 75.2976 51.1841 76.577 49.7832 77.6861C40.7243 84.8586 27.6061 84.1639 19.3438 75.9016ZM52.5552 78.7992C53.3007 78.1356 54.0118 77.426 54.6887 76.6654L56.8596 78.8363L54.7209 80.975L52.5501 78.8041C52.5519 78.8024 52.5535 78.8006 52.5552 78.7992ZM67.6202 96.3979L55.6347 84.4124C55.463 84.2407 55.4627 83.9617 55.6347 83.7895L55.6521 83.772C55.6525 83.7717 55.6529 83.7715 55.653 83.7712L59.6744 79.7498C59.8459 79.5781 60.1256 79.5781 60.2973 79.7498L72.2828 91.7355C73.5681 93.021 73.5681 95.1124 72.2828 96.3979C70.9942 97.6864 68.9089 97.6864 67.6202 96.3979ZM82.4762 24.7324V14.5007L94.616 26.6405H84.3845C83.3321 26.6405 82.4762 25.7845 82.4762 24.7324Z" fill="#333333"/>
<path d="M64.9947 18.5542H38.8407C37.2773 18.5542 36.0054 19.8262 36.0054 21.3895V26.442C36.0054 28.0054 37.2773 29.2774 38.8407 29.2774H64.9947C66.5581 29.2774 67.8301 28.0054 67.8301 26.442V21.3895C67.8299 19.8262 66.5579 18.5542 64.9947 18.5542ZM65.1933 26.4419C65.1933 26.5514 65.1042 26.6407 64.9945 26.6407H38.8407C38.7312 26.6407 38.6419 26.5515 38.6419 26.4419V21.3895C38.6419 21.28 38.731 21.1907 38.8407 21.1907H64.9947C65.1044 21.1907 65.1935 21.2799 65.1935 21.3895V26.4419H65.1933Z" fill="#333333"/>
<path d="M49.9335 74.0485C57.8563 66.1259 57.8563 53.2346 49.9335 45.312C42.0107 37.3892 29.1197 37.3892 21.1969 45.312C18.1144 48.3947 16.1376 52.2951 15.4802 56.5919C15.3701 57.3115 15.8641 57.9842 16.5839 58.0943C17.3039 58.2048 17.9763 57.7104 18.0863 56.9905C18.6583 53.2527 20.3785 49.8589 23.0611 47.1761C29.9558 40.2815 41.1743 40.2815 48.0691 47.1761C54.6845 53.7915 54.9513 64.3869 48.8719 71.3248C48.2929 70.1465 47.308 69.1871 46.0199 68.62C44.4582 67.9326 41.766 67.4956 40.1099 67.2773L40.1029 65.6126C41.7032 64.4343 42.8391 62.6561 43.1655 60.5988C43.447 60.4819 43.7052 60.3091 43.9263 60.0864C44.3677 59.642 44.6084 59.0526 44.6043 58.4267C44.5925 56.6796 44.5941 53.7839 44.5941 52.0971C44.5941 50.5019 43.4319 49.1728 41.9098 48.9122C41.6176 47.4289 40.3072 46.3067 38.7394 46.3067H32.3756C29.095 46.3067 26.4259 48.9756 26.4259 52.2562V58.4513C26.4259 59.413 27.0128 60.2402 27.8473 60.5937C28.1663 62.5883 29.2458 64.3215 30.77 65.5001L30.7777 67.3165C29.1236 67.5487 26.4352 68.0083 24.879 68.709C23.6957 69.2421 22.7709 70.1462 22.2017 71.2594C20.0941 68.8333 18.6986 65.9084 18.1452 62.7279C18.0204 62.0107 17.3377 61.5303 16.6205 61.6551C15.9031 61.7799 15.4229 62.4626 15.5477 63.1798C16.267 67.3131 18.2204 71.0713 21.1971 74.0482C29.1546 82.0061 42.0458 81.9365 49.9335 74.0485ZM32.3756 48.9434H38.7394C39.0674 48.9434 39.3342 49.2103 39.3342 49.5383C39.3342 50.6215 40.2154 51.5026 41.2986 51.5026H41.3631C41.6911 51.5026 41.9579 51.7695 41.9579 52.0975V52.805L40.3645 52.6556C38.8035 52.5095 37.2071 52.8797 35.8697 53.6987C35.1362 54.1478 34.2939 54.3853 33.4338 54.3853H29.0626V52.2567C29.0624 50.4297 30.5487 48.9434 32.3756 48.9434ZM29.0624 58.1698V57.0215H33.4336C34.7801 57.0215 36.0984 56.6497 37.2466 55.9466C38.1009 55.4233 39.1208 55.1867 40.118 55.2802L41.9585 55.4528C41.9595 56.2647 41.9616 57.3359 41.9662 58.1649C41.2323 58.2938 40.6612 58.9124 40.6164 59.6788C40.4594 62.3742 38.2164 64.4855 35.5101 64.4855C32.8094 64.4855 30.5631 62.3759 30.3959 59.6826C30.3488 58.9236 29.7865 58.3089 29.0624 58.1698ZM35.5101 67.122C36.187 67.122 36.8443 67.0331 37.4718 66.8691L37.475 67.6042C37.4764 67.9452 37.5546 68.2706 37.6931 68.5631C37.0376 69.0054 36.2612 69.2493 35.4472 69.2518C35.4431 69.2518 35.4391 69.2518 35.435 69.2518C34.6286 69.2518 33.8579 69.0143 33.2047 68.5814C33.3408 68.2876 33.4171 67.9621 33.4157 67.6211L33.4123 66.8329C34.0806 67.0211 34.7845 67.122 35.5101 67.122ZM24.2659 73.2819C24.4573 72.3174 25.0731 71.5136 25.9615 71.1131C26.8583 70.7094 28.5857 70.3039 30.7612 69.9825C32.004 71.2023 33.6681 71.8882 35.4345 71.8882H35.4546C37.2342 71.8829 38.9072 71.1822 40.1486 69.943C42.3269 70.246 44.0576 70.6368 44.9578 71.0332C45.9666 71.4772 46.6188 72.3231 46.7786 73.3538C40.2548 78.712 30.7633 78.6876 24.2659 73.2819Z" fill="#333333"/>
</svg>
