<svg width="110" height="110" viewBox="0 0 110 110" fill="none" xmlns="http://www.w3.org/2000/svg">
<path d="M46.2516 52.9247C47.2273 52.4267 48.2562 52.0177 49.3096 51.7094C49.7004 51.595 49.9675 51.249 49.9675 50.8571V45.0487H58.7681V50.8571C58.7681 51.249 59.0356 51.595 59.4264 51.7094C60.4798 52.0177 61.5087 52.4267 62.4844 52.9247C62.8455 53.109 63.2895 53.0456 63.5791 52.7685L67.866 48.6603L73.2451 53.8157L73.2461 53.8166L74.089 54.6239L69.8021 58.7322C69.513 59.0093 69.4468 59.4352 69.6391 59.7812C70.1588 60.7158 70.5855 61.7019 70.9072 62.7118C71.0266 63.0863 71.3877 63.3422 71.7962 63.3422H77.8571V66.6685H68.4054C67.925 59.648 61.8132 54.0771 54.368 54.0771C52.3773 54.0771 50.4532 54.4677 48.6484 55.2378C48.6126 55.2561 48.5738 55.2758 48.5325 55.2968C47.7348 55.7024 45.956 56.6068 44.7465 57.7227C42.1468 60.0587 40.5684 63.2793 40.3316 66.6685H30.8784V63.3422H36.9394C37.3483 63.3422 37.7094 63.0863 37.8288 62.7118C38.1505 61.7019 38.5772 60.7158 39.097 59.7812C39.2892 59.4352 39.2231 59.0093 38.9339 58.7322L34.647 54.6239L35.4899 53.8166L35.4909 53.8157L40.87 48.6603L45.1569 52.7685C45.4461 53.0456 45.8905 53.109 46.2516 52.9247Z" fill="#333333"/>
<path d="M41.0426 34.2981C41.0426 34.6046 41.2066 34.889 41.477 35.0521L44.8237 37.0715C45.1263 37.2544 45.5118 37.2544 45.8143 37.0715L49.161 35.0521C49.4314 34.889 49.5954 34.6046 49.5954 34.2981V27.9962L52.6942 30.9287V37.4929L49.1241 40.9142C48.9495 41.0815 48.8517 41.308 48.8517 41.5446V43.2847C48.4274 43.3674 48.1081 43.7267 48.1081 44.1577V50.2106C47.3874 50.449 46.6807 50.7302 45.9936 51.0505L41.7863 47.0185V41.5446C41.7863 41.308 41.6885 41.0815 41.514 40.9142L37.9438 37.4929V30.9287L41.0426 27.9962V34.2981Z" fill="#333333"/>
<path d="M66.9492 41.8415V47.019L62.7419 51.051C62.0548 50.7307 61.3481 50.4495 60.6275 50.2106V44.1582C60.6275 43.7272 60.3081 43.3679 59.8838 43.2852V41.8419L66.9492 41.8415Z" fill="#333333"/>
<path d="M62.1876 33.5252L61.0077 32.4813L62.8623 26.7556H63.9713L65.8254 32.4813L64.6454 33.5252C64.4551 33.6939 64.3462 33.9309 64.3462 34.18V40.06H62.4873V34.18C62.4868 33.9309 62.3785 33.6939 62.1876 33.5252Z" fill="#333333"/>
<path d="M49.405 56.8658C50.97 56.1977 52.6395 55.859 54.368 55.859C60.7876 55.859 66.0661 60.6313 66.5422 66.6685H61.3097C60.8538 63.3877 57.9146 60.8481 54.368 60.8481C50.8214 60.8481 47.8822 63.3877 47.4263 66.6685H42.1929C42.4187 63.7429 43.7569 61.0549 46.0181 59.0226C46.6375 58.5199 48.1822 57.3848 49.405 56.8658Z" fill="#333333"/>
<path fill-rule="evenodd" clip-rule="evenodd" d="M41.0426 34.2981C41.0426 34.6046 41.2066 34.889 41.477 35.0521L44.8237 37.0715C45.1263 37.2544 45.5118 37.2544 45.8143 37.0715L49.161 35.0521C49.4314 34.889 49.5954 34.6046 49.5954 34.2981V27.9962L52.6942 30.9287V37.4929L49.1241 40.9142C48.9495 41.0815 48.8517 41.308 48.8517 41.5446V43.2847C48.4274 43.3674 48.1081 43.7267 48.1081 44.1577V50.2106C47.3874 50.449 46.6807 50.7302 45.9936 51.0505L41.7863 47.0185V41.5446C41.7863 41.308 41.6885 41.0815 41.514 40.9142L37.9438 37.4929V30.9287L41.0426 27.9962V34.2981ZM62.1876 33.5252L61.0077 32.4813L62.8623 26.7556H63.9713L65.8254 32.4813L64.6454 33.5252C64.4551 33.6939 64.3462 33.9309 64.3462 34.18V40.06H62.4873V34.18C62.4868 33.9309 62.3785 33.6939 62.1876 33.5252ZM66.9492 41.8415V47.019L62.7419 51.051C62.0548 50.7307 61.3481 50.4495 60.6275 50.2106V44.1582C60.6275 43.7272 60.3081 43.3679 59.8838 43.2852V41.8419L66.9492 41.8415ZM46.2516 52.9247C47.2273 52.4267 48.2562 52.0177 49.3096 51.7094C49.7004 51.595 49.9675 51.249 49.9675 50.8571V45.0487H58.7681V50.8571C58.7681 51.249 59.0356 51.595 59.4264 51.7094C60.4798 52.0177 61.5087 52.4267 62.4844 52.9247C62.8455 53.109 63.2895 53.0456 63.5791 52.7685L67.866 48.6603L73.2451 53.8157L73.2461 53.8166L74.089 54.6239L69.8021 58.7322C69.513 59.0093 69.4468 59.4352 69.6391 59.7812C70.1588 60.7158 70.5855 61.7019 70.9072 62.7118C71.0266 63.0863 71.3877 63.3422 71.7962 63.3422H77.8571V66.6685H68.4054C67.925 59.648 61.8132 54.0771 54.368 54.0771C52.3773 54.0771 50.4532 54.4677 48.6484 55.2378C48.6126 55.2561 48.5738 55.2758 48.5325 55.2968C47.7348 55.7024 45.956 56.6068 44.7465 57.7227C42.1468 60.0587 40.5684 63.2793 40.3316 66.6685H30.8784V63.3422H36.9394C37.3483 63.3422 37.7094 63.0863 37.8288 62.7118C38.1505 61.7019 38.5772 60.7158 39.097 59.7812C39.2892 59.4352 39.2231 59.0093 38.9339 58.7322L34.647 54.6239L35.4899 53.8166L35.4909 53.8157L40.87 48.6603L45.1569 52.7685C45.4461 53.0456 45.8905 53.109 46.2516 52.9247ZM49.405 56.8658C50.97 56.1977 52.6395 55.859 54.368 55.859C60.7876 55.859 66.0661 60.6313 66.5422 66.6685H61.3097C60.8538 63.3877 57.9146 60.8481 54.368 60.8481C50.8214 60.8481 47.8822 63.3877 47.4263 66.6685H42.1929C42.4187 63.7429 43.7569 61.0549 46.0181 59.0226C46.6375 58.5199 48.1822 57.3848 49.405 56.8658Z" fill="#333333"/>
<path fill-rule="evenodd" clip-rule="evenodd" d="M16.9983 16.0539C14.7936 16.0539 13 17.7708 13 19.8812V75.7011C13 77.8114 14.7936 79.5283 16.9983 79.5283H26.7444V82.506C26.7444 84.2024 28.1861 85.5824 29.9582 85.5824H44.107L37.4467 98.0298C37.0909 98.695 37.3655 99.5102 38.0603 99.851C38.2665 99.9522 38.4867 100 38.7036 100C39.2171 100 39.7126 99.7312 39.9627 99.2634L47.2832 85.5824H62.9111L70.2316 99.2634C70.4819 99.7312 70.9772 100 71.4908 100C71.7077 100 71.9278 99.9518 72.134 99.851C72.8289 99.5102 73.1037 98.695 72.7477 98.0298L66.0873 85.5824H80.2361C82.0082 85.5824 83.45 84.2025 83.45 82.506V79.5283H91.9283H93.2773C95.482 79.5283 97.2756 77.8114 97.2756 75.7011L97.1942 32.7458V19.8812C97.1942 17.7708 95.4005 16.0539 93.1959 16.0539H62.9422V13.3944C62.9422 11.5228 61.3514 10 59.3959 10H50.7985C48.8432 10 47.2521 11.5228 47.2521 13.3944V16.0539H16.9983ZM80.2361 82.8764C80.4494 82.8764 80.623 82.7102 80.623 82.506V79.5283H29.5713V82.506C29.5713 82.7102 29.7449 82.8764 29.9582 82.8764H80.2361ZM50.7985 12.706C50.4018 12.706 50.0791 13.0149 50.0791 13.3944L50.0793 16.0539H60.1152V13.3944C60.1152 13.0149 59.7924 12.706 59.3959 12.706H50.7985ZM16.9983 76.8223C16.3524 76.8223 15.827 76.3193 15.827 75.7011V19.8812C15.827 19.2629 16.3524 18.76 16.9983 18.76H93.1959C93.8418 18.76 94.3672 19.2629 94.3672 19.8812V32.7458L94.4486 75.701C94.4486 76.3192 93.9232 76.8222 93.2773 76.8222L91.9283 76.8223H16.9983ZM41.0426 34.2981C41.0426 34.6046 41.2066 34.889 41.477 35.0521L44.8237 37.0715C45.1263 37.2544 45.5118 37.2544 45.8143 37.0715L49.161 35.0521C49.4314 34.889 49.5954 34.6046 49.5954 34.2981V27.9962L52.6942 30.9287V37.4929L49.1241 40.9142C48.9495 41.0815 48.8517 41.308 48.8517 41.5446V43.2847C48.4274 43.3674 48.1081 43.7267 48.1081 44.1577V50.2106C47.3874 50.449 46.6807 50.7302 45.9936 51.0505L41.7863 47.0185V41.5446C41.7863 41.308 41.6885 41.0815 41.514 40.9142L37.9438 37.4929V30.9287L41.0426 27.9962V34.2981ZM62.1876 33.5252L61.0077 32.4813L62.8623 26.7556H63.9713L65.8254 32.4813L64.6454 33.5252C64.4551 33.6939 64.3462 33.9309 64.3462 34.18V40.06H62.4873V34.18C62.4868 33.9309 62.3785 33.6939 62.1876 33.5252ZM66.9492 41.8415V47.019L62.7419 51.051C62.0548 50.7307 61.3481 50.4495 60.6275 50.2106V44.1582C60.6275 43.7272 60.3081 43.3679 59.8838 43.2852V41.8419L66.9492 41.8415ZM46.2516 52.9247C47.2273 52.4267 48.2562 52.0177 49.3096 51.7094C49.7004 51.595 49.9675 51.249 49.9675 50.8571V45.0487H58.7681V50.8571C58.7681 51.249 59.0356 51.595 59.4264 51.7094C60.4798 52.0177 61.5087 52.4267 62.4844 52.9247C62.8455 53.109 63.2895 53.0456 63.5791 52.7685L67.866 48.6603L73.2451 53.8157L73.2461 53.8166L74.089 54.6239L69.8021 58.7322C69.513 59.0093 69.4468 59.4352 69.6391 59.7812C70.1588 60.7158 70.5855 61.7019 70.9072 62.7118C71.0266 63.0863 71.3877 63.3422 71.7962 63.3422H77.8571V66.6685H68.4054C67.925 59.648 61.8132 54.0771 54.368 54.0771C52.3773 54.0771 50.4532 54.4677 48.6484 55.2378L48.5325 55.2968C47.7348 55.7024 45.956 56.6068 44.7465 57.7227C42.1468 60.0587 40.5684 63.2793 40.3316 66.6685H30.8784V63.3422H36.9394C37.3483 63.3422 37.7094 63.0863 37.8288 62.7118C38.1505 61.7019 38.5772 60.7158 39.097 59.7812C39.2892 59.4352 39.2231 59.0093 38.9339 58.7322L34.647 54.6239L35.4899 53.8166L35.4909 53.8157L40.87 48.6603L45.1569 52.7685C45.4461 53.0456 45.8905 53.109 46.2516 52.9247ZM49.405 56.8658C50.97 56.1977 52.6395 55.859 54.368 55.859C60.7876 55.859 66.0661 60.6313 66.5422 66.6685H61.3097C60.8538 63.3877 57.9146 60.8481 54.368 60.8481C50.8214 60.8481 47.8822 63.3877 47.4263 66.6685H42.1929C42.4187 63.7429 43.7569 61.0549 46.0181 59.0226C46.6375 58.5199 48.1822 57.3848 49.405 56.8658Z" fill="#333333"/>
</svg>
