<svg width="110" height="110" viewBox="0 0 110 110" fill="none" xmlns="http://www.w3.org/2000/svg">
<path d="M90.3285 28.6369V23.7639C90.3285 23.181 90.0843 22.6476 89.7006 22.2641C89.312 21.8754 88.7837 21.6364 88.2008 21.6364H83.826C83.2378 21.6364 82.7098 21.8754 82.3211 22.2641C81.9374 22.6478 81.6981 23.181 81.6981 23.7639V28.6371H90.3285V28.6369ZM35.2182 52.3299C34.705 51.8119 34.705 50.9796 35.2182 50.4663C35.7314 49.9483 36.5685 49.9483 37.0818 50.4663L38.2827 51.6673L41.6163 48.3288C42.1295 47.8155 42.9666 47.8155 43.4799 48.3288C43.9981 48.847 43.9981 49.6792 43.4799 50.1974L39.2147 54.4627C38.7013 54.976 37.8642 54.976 37.3509 54.4627L35.2182 52.3299ZM84.6929 37.1176C84.6929 36.3901 85.2809 35.7972 86.0134 35.7972C86.741 35.7972 87.3288 36.3901 87.3288 37.1176V64.7871C87.3288 65.5144 86.7408 66.1075 86.0134 66.1075C85.2809 66.1075 84.6929 65.5144 84.6929 64.7871V37.1176ZM63.9094 81.7236H72.0215V76.068H63.9094V81.7236ZM73.3369 84.3595C59.0063 84.3595 44.6705 84.3595 30.3399 84.3595C29.6123 84.3595 29.0194 83.7664 29.0194 83.0388V74.7475C29.0194 74.02 29.6123 73.4322 30.3399 73.4322H39.7725V65.918C39.7725 65.1907 40.3605 64.6028 41.0879 64.6028H51.8408C52.5683 64.6028 53.1563 65.1908 53.1563 65.918V68.26H62.5888C63.3163 68.26 63.9092 68.8529 63.9092 69.5805V73.4322H73.3367C74.0643 73.4322 74.6572 74.0202 74.6572 74.7475V83.0388C74.6574 83.7664 74.0645 84.3595 73.3369 84.3595ZM53.1565 81.7236H61.2686V70.9009H53.1565V81.7236ZM42.4085 81.7236H50.5205V69.5805V67.2387H42.4085V81.7236ZM31.6554 81.7236H39.7727V76.068H31.6554V81.7236ZM26.0946 35.7973H79.0574V29.9524V23.7639C79.0574 22.4534 79.5955 21.2627 80.4575 20.4005C81.3195 19.5384 82.5104 19.0002 83.826 19.0002H88.2008C89.5113 19.0002 90.7022 19.5384 91.5642 20.4005C92.4263 21.2625 92.9643 22.4534 92.9643 23.7639V29.9524V35.7973H98.6846C99.4122 35.7973 100 36.3902 100 37.1178V88.8039C100 89.5315 99.412 90.1195 98.6846 90.1195H62.1853C61.4578 90.1195 60.87 89.5313 60.87 88.8039C60.87 88.0765 61.458 87.4835 62.1853 87.4835H97.3643V38.4332H92.9645V47.9653C92.9645 48.6929 92.3714 49.2858 91.6441 49.2858C90.9165 49.2858 90.3285 48.6929 90.3285 47.9653V37.1178V31.2731H81.6981V37.1178V70.632H90.3285V53.9396C90.3285 53.212 90.9165 52.6191 91.6441 52.6191C92.3714 52.6191 92.9645 53.212 92.9645 53.9396V71.9473C92.9645 72.2662 92.8798 72.4258 92.7402 72.6948L87.1894 83.627C87.0649 83.8711 86.8656 84.0803 86.6014 84.215C85.9536 84.5439 85.1663 84.2797 84.8374 83.6321L79.2666 72.67C79.137 72.406 79.0574 72.2565 79.0574 71.9475V38.4332H26.0946V48.4086C26.0946 49.1362 25.5066 49.7293 24.779 49.7293C24.0515 49.7293 23.4585 49.1362 23.4585 48.4086V37.1178V22.7025C22.3274 21.9951 21.0519 21.6364 19.7165 21.6364C17.7632 21.6364 15.9943 22.4286 14.7087 23.7092C13.4281 24.9947 12.6357 26.7636 12.6357 28.7169V73.7512C12.7055 73.6763 12.7752 73.6016 12.8448 73.532C14.6039 71.773 17.0355 70.6868 19.7163 70.6868C20.7877 70.6868 21.8241 70.8663 22.8057 71.1901C23.0251 71.2648 23.2443 71.3495 23.4584 71.4392V54.3833C23.4584 53.6557 24.0513 53.0628 24.7788 53.0628C25.5064 53.0628 26.0944 53.6557 26.0944 54.3833V73.7015C26.0944 73.9755 26.0047 74.2545 25.8253 74.4939C25.3918 75.0719 24.5646 75.1863 23.9817 74.7479C23.3787 74.2896 22.696 73.9258 21.9686 73.6865C21.2711 73.4524 20.5137 73.3228 19.7165 73.3228C17.7632 73.3228 15.9943 74.1153 14.7087 75.3958C13.4281 76.6762 12.6357 78.4502 12.6357 80.4033C12.6357 82.3617 13.4279 84.1304 14.7087 85.411C15.9942 86.6916 17.763 87.4838 19.7165 87.4838H56.2158C56.9434 87.4838 57.5312 88.0769 57.5312 88.8043C57.5312 89.5318 56.9432 90.1198 56.2158 90.1198H19.7165C17.0357 90.1198 14.6041 89.0335 12.845 87.2746C11.0862 85.5156 10 83.0889 10 80.4031V28.7167C10 26.0358 11.0862 23.6042 12.845 21.8454C14.6041 20.0863 17.0357 19 19.7165 19C21.7942 19 23.8372 19.6776 25.5064 20.9136C25.8602 21.1526 26.0944 21.5562 26.0944 22.0148V35.7973H26.0946ZM89.5013 73.2678H82.5205L86.0134 80.1391L89.5013 73.2678ZM71.882 43.7847C72.6095 43.7847 73.1973 44.3776 73.1973 45.1051C73.1973 45.8327 72.6094 46.4205 71.882 46.4205H54.0384C53.3108 46.4205 52.723 45.8325 52.723 45.1051C52.723 44.3776 53.311 43.7847 54.0384 43.7847H71.882ZM64.4626 56.3712C65.1951 56.3712 65.7831 56.9592 65.7831 57.6865C65.7831 58.4139 65.1951 59.007 64.4626 59.007H54.0386C53.311 59.007 52.7232 58.4141 52.7232 57.6865C52.7232 56.959 53.3112 56.3712 54.0386 56.3712H64.4626ZM71.882 50.0778C72.6095 50.0778 73.1973 50.666 73.1973 51.3983C73.1973 52.1259 72.6094 52.7139 71.882 52.7139H54.0384C53.3108 52.7139 52.723 52.1257 52.723 51.3983C52.723 50.666 53.311 50.0778 54.0384 50.0778H71.882ZM31.7999 42.524H46.9029C47.6304 42.524 48.2183 43.1169 48.2183 43.8444V58.9473C48.2183 59.6748 47.6303 60.2677 46.9029 60.2677H31.7999C31.0674 60.2677 30.4794 59.6748 30.4794 58.9473V43.8444C30.4794 43.1169 31.0674 42.524 31.7999 42.524ZM45.5826 45.1649H33.1155V57.6319H45.5826V45.1649Z" fill="#333333"/>
</svg>
