<svg width="110" height="110" viewBox="0 0 110 110" fill="none" xmlns="http://www.w3.org/2000/svg">
<path d="M96.9991 71.1437L91.0028 65.1475C93.1445 61.3056 94.375 56.89 94.375 52.1875C94.375 37.4542 82.3895 25.4688 67.6562 25.4688C61.4997 25.4688 55.8395 27.5823 51.317 31.0938H35.6978C38.042 29.0308 39.5312 26.0172 39.5312 22.6562C39.5312 16.4533 34.4842 11.4062 28.2812 11.4062C22.0783 11.4062 17.0312 16.4533 17.0312 22.6562C17.0312 26.1972 18.6794 29.357 21.2458 31.4214C15.6208 32.7067 11.4062 37.7411 11.4062 43.75V52.1875C11.4062 56.6369 14.3763 60.4028 18.4375 61.6164V92.9688C18.4375 96.0709 20.9603 98.5938 24.0625 98.5938C25.75 98.5938 27.2491 97.8316 28.2812 96.6503C29.3134 97.8316 30.8125 98.5938 32.5 98.5938C35.6022 98.5938 38.125 96.0709 38.125 92.9688V90.7384L49.9572 78.9062L48.5509 77.5L52.1481 73.9028C55.0647 75.9925 58.4073 77.5183 62.0312 78.2988V85.6295L65.4287 86.4775L63.6273 89.4812L71.1466 97.0005L74.1475 95.1977L74.9955 98.5938H85.6295L86.4775 95.1963L89.4784 96.9991L96.9977 89.4798L95.1963 86.4761L98.5938 85.6295V74.9955L95.1963 74.1475L96.9991 71.1437ZM91.5625 52.1875C91.5625 65.3697 80.8384 76.0938 67.6562 76.0938C54.4741 76.0938 43.75 65.3697 43.75 52.1875C43.75 39.0053 54.4741 28.2812 67.6562 28.2812C80.8384 28.2812 91.5625 39.0053 91.5625 52.1875ZM87.3438 80.3125C87.3438 84.1895 84.1895 87.3438 80.3125 87.3438C76.4355 87.3438 73.2812 84.1895 73.2812 80.3125C73.2812 79.5869 73.4247 78.888 73.6384 78.2059C77.1203 77.4058 80.3378 75.925 83.1559 73.9084C85.6802 75.0278 87.3438 77.5113 87.3438 80.3125ZM40.9375 69.8866L38.125 72.6991V62.0312H38.8281C40.1866 62.0312 41.4184 61.4772 42.31 60.5842C43.1622 63.1506 44.3969 65.5384 45.9409 67.6956L42.3438 71.2928L40.9375 69.8866ZM40.9375 52.1875C40.9375 52.3591 40.96 52.525 40.9628 52.6952C40.3145 52.3802 39.5959 52.1875 38.8281 52.1875H38.125V43.0469C38.125 41.8839 39.0714 40.9375 40.2344 40.9375H43.4547C41.8572 44.3617 40.9375 48.1656 40.9375 52.1875ZM29.6298 44.6317L28.2812 45.9803L26.9327 44.6317L27.9747 33.9062H28.5864L29.6298 44.6317ZM19.8438 22.6562C19.8438 18.003 23.628 14.2188 28.2812 14.2188C32.9345 14.2188 36.7188 18.003 36.7188 22.6562C36.7188 27.3095 32.9345 31.0938 28.2812 31.0938C23.628 31.0938 19.8438 27.3095 19.8438 22.6562ZM24.0625 33.9062H25.1495L24.0048 45.6808L28.2812 49.9572L32.5577 45.6808L31.413 33.9062H48.2247C47.0083 35.1986 45.9241 36.6105 44.9805 38.125H40.2344C37.5203 38.125 35.3125 40.3328 35.3125 43.0469V52.1875H22.6562C21.8814 52.1875 21.25 51.5575 21.25 50.7812V40.9375H18.4375V49.375H14.2188V43.75C14.2188 38.3233 18.6344 33.9062 24.0625 33.9062ZM14.2188 52.1875H18.6962C19.2784 53.8202 20.8253 55 22.6562 55H38.8281C39.9911 55 40.9375 55.9464 40.9375 57.1094C40.9375 58.2723 39.9911 59.2188 38.8281 59.2188H21.25C17.373 59.2188 14.2188 56.0645 14.2188 52.1875ZM32.5 95.7812C30.9489 95.7812 29.6875 94.5198 29.6875 92.9688V67.6562H26.875V92.9688C26.875 94.5198 25.6136 95.7812 24.0625 95.7812C22.5114 95.7812 21.25 94.5198 21.25 92.9688V62.0312H35.3125V92.9688C35.3125 94.5198 34.0511 95.7812 32.5 95.7812ZM38.125 86.7616V76.6759L40.9375 73.8634L45.9803 78.9062L38.125 86.7616ZM46.5625 75.5116L44.3322 73.2812L47.71 69.9034C48.4089 70.6909 49.1528 71.4334 49.9403 72.1337L46.5625 75.5116ZM95.7812 77.192V83.433L93.0405 84.1164L92.2895 84.4061L91.6342 86.0078L93.4567 89.0439L89.0439 93.4567L86.0092 91.6356L84.2936 92.3331L83.433 95.7812H77.192L76.5072 93.0405L76.2217 92.2881L74.6158 91.6356L71.5811 93.4567L67.1683 89.0439L68.9908 86.0078L68.2877 84.2922L64.8438 83.433V78.7558C65.7691 78.8528 66.7056 78.9062 67.6562 78.9062C68.6547 78.9062 69.6362 78.8416 70.6066 78.7347C70.5222 79.2536 70.4688 79.7781 70.4688 80.3125C70.4688 85.7392 74.8844 90.1562 80.3125 90.1562C85.7406 90.1562 90.1562 85.7392 90.1562 80.3125C90.1562 76.8644 88.352 73.7664 85.5212 71.9973C86.988 70.6727 88.3112 69.1975 89.4573 67.5803L93.4567 71.5797L91.6342 74.6158L92.3416 76.3314L95.7812 77.192Z" fill="#333333"/>
<path d="M98.5938 18.4375C98.5938 14.5605 95.4395 11.4062 91.5625 11.4062H85.9375C82.0605 11.4062 78.9062 14.5605 78.9062 18.4375V25.4688H91.5625C95.4395 25.4688 98.5938 22.3145 98.5938 18.4375ZM81.7188 18.4375C81.7188 16.1116 83.6116 14.2188 85.9375 14.2188H91.5625C93.8884 14.2188 95.7812 16.1116 95.7812 18.4375C95.7812 20.7634 93.8884 22.6562 91.5625 22.6562H81.7188V18.4375Z" fill="#333333"/>
<path d="M84.5312 17.0312H87.3438V19.8438H84.5312V17.0312Z" fill="#333333"/>
<path d="M90.1562 17.0312H92.9688V19.8438H90.1562V17.0312Z" fill="#333333"/>
<path d="M67.6562 73.2812C79.2873 73.2812 88.75 63.8186 88.75 52.1875C88.75 40.5564 79.2873 31.0938 67.6562 31.0938C56.0252 31.0938 46.5625 40.5564 46.5625 52.1875C46.5625 63.8186 56.0252 73.2812 67.6562 73.2812ZM60.625 59.2188H63.4375V69.9583C62.47 69.7291 61.5264 69.4366 60.625 69.0583V59.2188ZM57.8125 67.5677C56.8028 66.9194 55.8606 66.1769 55 65.3486V50.7812H57.8125V67.5677ZM66.25 70.397V39.5312H69.0625V70.397C68.597 70.4336 68.1316 70.4688 67.6562 70.4688C67.1809 70.4688 66.7155 70.4336 66.25 70.397ZM71.875 53.5938H74.6875V69.0583C73.7861 69.4352 72.8425 69.7277 71.875 69.9583V53.5938ZM80.3125 65.3486C79.4519 66.1769 78.5097 66.9194 77.5 67.5677V47.9688H80.3125V65.3486ZM67.6562 33.9062C77.7362 33.9062 85.9375 42.1075 85.9375 52.1875C85.9375 55.7523 84.8969 59.0711 83.125 61.885V45.1562H74.6875V50.7812H71.875V36.7188H63.4375V56.4062H60.625V47.9688H52.1875V61.885C50.4156 59.0697 49.375 55.7509 49.375 52.1875C49.375 42.1075 57.5763 33.9062 67.6562 33.9062Z" fill="#333333"/>
</svg>
