<svg width="71" height="70" viewBox="0 0 71 70" fill="none" xmlns="http://www.w3.org/2000/svg">
<path d="M62.2269 45.2733L58.4111 41.4575C59.7741 39.0127 60.5571 36.2027 60.5571 33.2102C60.5571 23.8345 52.93 16.2074 43.5542 16.2074C39.6364 16.2074 36.0345 17.5524 33.1566 19.787H23.2171C24.7088 18.4742 25.6565 16.5564 25.6565 14.4176C25.6565 10.4703 22.4448 7.25854 18.4974 7.25854C14.5501 7.25854 11.3383 10.4703 11.3383 14.4176C11.3383 16.671 12.3871 18.6818 14.0203 19.9955C10.4408 20.8134 7.75879 24.0171 7.75879 27.8409V33.2102C7.75879 36.0417 9.64879 38.4382 12.2332 39.2105V59.162C12.2332 61.1361 13.8386 62.7415 15.8128 62.7415C16.8866 62.7415 17.8406 62.2565 18.4974 61.5048C19.1543 62.2565 20.1082 62.7415 21.1821 62.7415C23.1562 62.7415 24.7616 61.1361 24.7616 59.162V57.7427L32.2912 50.2131L31.3963 49.3182L33.6854 47.0291C35.5414 48.3589 37.6686 49.3298 39.9747 49.8265V54.4915L42.1367 55.0312L40.9904 56.9426L45.7754 61.7276L47.685 60.5803L48.2247 62.7415H54.9918L55.5314 60.5795L57.4411 61.7267L62.2261 56.9417L61.0797 55.0303L63.2417 54.4915V47.7244L61.0797 47.1848L62.2269 45.2733ZM58.7673 33.2102C58.7673 41.5989 51.9429 48.4233 43.5542 48.4233C35.1656 48.4233 28.3412 41.5989 28.3412 33.2102C28.3412 24.8216 35.1656 17.9972 43.5542 17.9972C51.9429 17.9972 58.7673 24.8216 58.7673 33.2102ZM56.0827 51.108C56.0827 53.5752 54.0754 55.5824 51.6082 55.5824C49.141 55.5824 47.1338 53.5752 47.1338 51.108C47.1338 50.6462 47.2251 50.2015 47.3611 49.7674C49.5768 49.2582 51.6243 48.3159 53.4177 47.0327C55.024 47.745 56.0827 49.3254 56.0827 51.108ZM26.5514 44.4733L24.7616 46.2631V39.4745H25.2091C26.0735 39.4745 26.8575 39.1219 27.4248 38.5536C27.9671 40.1868 28.7528 41.7063 29.7354 43.0791L27.4463 45.3682L26.5514 44.4733ZM26.5514 33.2102C26.5514 33.3194 26.5657 33.425 26.5675 33.5333C26.155 33.3328 25.6977 33.2102 25.2091 33.2102H24.7616V27.3935C24.7616 26.6534 25.3639 26.0512 26.104 26.0512H28.1532C27.1367 28.2302 26.5514 30.6509 26.5514 33.2102ZM19.3556 28.402L18.4974 29.2602L17.6392 28.402L18.3023 21.5767H18.6916L19.3556 28.402ZM13.1281 14.4176C13.1281 11.4565 15.5362 9.04832 18.4974 9.04832C21.4586 9.04832 23.8667 11.4565 23.8667 14.4176C23.8667 17.3788 21.4586 19.787 18.4974 19.787C15.5362 19.787 13.1281 17.3788 13.1281 14.4176ZM15.8128 21.5767H16.5045L15.7761 29.0696L18.4974 31.791L21.2188 29.0696L20.4903 21.5767H31.1887C30.4146 22.3991 29.7247 23.2976 29.1242 24.2614H26.104C24.3768 24.2614 22.9719 25.6664 22.9719 27.3935V33.2102H14.9179C14.4248 33.2102 14.023 32.8093 14.023 32.3154V26.0512H12.2332V31.4205H9.54856V27.8409C9.54856 24.3876 12.3585 21.5767 15.8128 21.5767ZM9.54856 33.2102H12.3979C12.7684 34.2492 13.7527 35 14.9179 35H25.2091C25.9491 35 26.5514 35.6023 26.5514 36.3424C26.5514 37.0824 25.9491 37.6847 25.2091 37.6847H14.023C11.5558 37.6847 9.54856 35.6775 9.54856 33.2102ZM21.1821 60.9517C20.195 60.9517 19.3923 60.149 19.3923 59.162V43.054H17.6025V59.162C17.6025 60.149 16.7998 60.9517 15.8128 60.9517C14.8257 60.9517 14.023 60.149 14.023 59.162V39.4745H22.9719V59.162C22.9719 60.149 22.1691 60.9517 21.1821 60.9517ZM24.7616 55.2119V48.7938L26.5514 47.004L29.7605 50.2131L24.7616 55.2119ZM30.1309 48.0528L28.7117 46.6335L30.8612 44.484C31.3059 44.9852 31.7793 45.4577 32.2805 45.9033L30.1309 48.0528ZM61.452 49.1222V53.0937L59.7078 53.5286L59.23 53.713L58.813 54.7323L59.9727 56.6643L57.1646 59.4725L55.2334 58.3136L54.1416 58.7575L53.594 60.9517H49.6225L49.1867 59.2076L49.005 58.7288L47.983 58.3136L46.0519 59.4725L43.2437 56.6643L44.4035 54.7323L43.9561 53.6405L41.7645 53.0937V50.1173C42.3533 50.1791 42.9493 50.2131 43.5542 50.2131C44.1896 50.2131 44.8142 50.1719 45.4317 50.1039C45.378 50.4341 45.344 50.7679 45.344 51.108C45.344 54.5613 48.154 57.3722 51.6082 57.3722C55.0625 57.3722 57.8724 54.5613 57.8724 51.108C57.8724 48.9137 56.7243 46.9423 54.9229 45.8165C55.8562 44.9735 56.6983 44.0348 57.4277 43.0057L59.9727 45.5507L58.813 47.4828L59.2631 48.5746L61.452 49.1222Z" fill="#333333"/>
<path d="M63.2418 11.733C63.2418 9.26578 61.2346 7.25854 58.7674 7.25854H55.1878C52.7206 7.25854 50.7134 9.26578 50.7134 11.733V16.2074H58.7674C61.2346 16.2074 63.2418 14.2002 63.2418 11.733ZM52.5032 11.733C52.5032 10.2528 53.7077 9.04832 55.1878 9.04832H58.7674C60.2475 9.04832 61.452 10.2528 61.452 11.733C61.452 13.2131 60.2475 14.4176 58.7674 14.4176H52.5032V11.733Z" fill="#333333"/>
<path d="M54.293 10.8381H56.0827V12.6278H54.293V10.8381Z" fill="#333333"/>
<path d="M57.8721 10.8381H59.6618V12.6278H57.8721V10.8381Z" fill="#333333"/>
<path d="M43.5542 46.6335C50.9558 46.6335 56.9774 40.6118 56.9774 33.2102C56.9774 25.8086 50.9558 19.7869 43.5542 19.7869C36.1525 19.7869 30.1309 25.8086 30.1309 33.2102C30.1309 40.6118 36.1525 46.6335 43.5542 46.6335ZM39.0797 37.6847H40.8695V44.5189C40.2538 44.373 39.6533 44.1869 39.0797 43.9462V37.6847ZM37.2899 42.9976C36.6474 42.5851 36.0478 42.1126 35.5002 41.5855V32.3153H37.2899V42.9976ZM42.6593 44.7981V25.1562H44.449V44.7981C44.1528 44.8214 43.8566 44.8437 43.5542 44.8437C43.2517 44.8437 42.9555 44.8214 42.6593 44.7981ZM46.2388 34.1051H48.0286V43.9462C47.455 44.186 46.8545 44.3721 46.2388 44.5189V34.1051ZM51.6081 41.5855C51.0605 42.1126 50.4609 42.5851 49.8184 42.9976V30.5256H51.6081V41.5855ZM43.5542 21.5767C49.9687 21.5767 55.1877 26.7957 55.1877 33.2102C55.1877 35.4788 54.5255 37.5907 53.3979 39.3814V28.7358H48.0286V32.3153H46.2388V23.3665H40.8695V35.8949H39.0797V30.5256H33.7104V39.3814C32.5828 37.5898 31.9206 35.4779 31.9206 33.2102C31.9206 26.7957 37.1396 21.5767 43.5542 21.5767Z" fill="#333333"/>
</svg>
