<svg width="71" height="70" viewBox="0 0 71 70" fill="none" xmlns="http://www.w3.org/2000/svg">
<path d="M29.933 33.6794C30.554 33.3624 31.2087 33.1022 31.8791 32.906C32.1277 32.8332 32.2977 32.613 32.2977 32.3636V28.6674H37.8981V32.3636C37.8981 32.613 38.0683 32.8332 38.317 32.906C38.9874 33.1022 39.6421 33.3624 40.263 33.6794C40.4928 33.7966 40.7753 33.7563 40.9596 33.58L43.6877 30.9656L47.1108 34.2464L47.1114 34.2469L47.6478 34.7607L44.9197 37.375C44.7357 37.5514 44.6936 37.8224 44.816 38.0426C45.1467 38.6373 45.4183 39.2648 45.623 39.9075C45.699 40.1458 45.9287 40.3087 46.1887 40.3087H50.0457V42.4254H44.0309C43.7252 37.9578 39.8359 34.4127 35.098 34.4127C33.8312 34.4127 32.6068 34.6613 31.4583 35.1513C31.4355 35.163 31.4108 35.1755 31.3845 35.1889C30.8769 35.447 29.7449 36.0225 28.9753 36.7326C27.3209 38.2192 26.3165 40.2686 26.1658 42.4254H20.1501V40.3087H24.0071C24.2673 40.3087 24.4971 40.1458 24.5731 39.9075C24.7778 39.2648 25.0494 38.6373 25.3801 38.0426C25.5025 37.8224 25.4603 37.5514 25.2764 37.375L22.5483 34.7607L23.0847 34.2469L23.0853 34.2464L26.5084 30.9656L29.2365 33.58C29.4204 33.7563 29.7033 33.7966 29.933 33.6794Z" fill="white"/>
<path d="M26.6183 21.8261C26.6183 22.0211 26.7226 22.2021 26.8947 22.3059L29.0244 23.591C29.2169 23.7074 29.4622 23.7074 29.6548 23.591L31.7845 22.3059C31.9566 22.2021 32.0609 22.0211 32.0609 21.8261V17.8158L34.0329 19.6819V23.8591L31.761 26.0363C31.6499 26.1428 31.5877 26.2869 31.5877 26.4375V27.5448C31.3177 27.5975 31.1144 27.8261 31.1144 28.1004V31.9522C30.6559 32.1039 30.2061 32.2829 29.7689 32.4867L27.0915 29.9209V26.4375C27.0915 26.2869 27.0293 26.1428 26.9182 26.0363L24.6463 23.8591V19.6819L26.6183 17.8158V21.8261Z" fill="white"/>
<path d="M43.1043 26.6264V29.9212L40.4269 32.487C39.9897 32.2832 39.5399 32.1042 39.0813 31.9522V28.1007C39.0813 27.8264 38.8781 27.5978 38.6081 27.5451V26.6267L43.1043 26.6264Z" fill="white"/>
<path d="M40.0742 21.3342L39.3233 20.6699L40.5035 17.0263H41.2092L42.3891 20.6699L41.6382 21.3342C41.5171 21.4416 41.4478 21.5924 41.4478 21.7509V25.4928H40.2649V21.7509C40.2646 21.5924 40.1956 21.4416 40.0742 21.3342Z" fill="white"/>
<path d="M31.9398 36.1873C32.9357 35.7622 33.9981 35.5467 35.098 35.5467C39.1832 35.5467 42.5423 38.5835 42.8452 42.4254H39.5155C39.2253 40.3377 37.355 38.7215 35.098 38.7215C32.8411 38.7215 30.9707 40.3377 30.6806 42.4254H27.3502C27.4939 40.5637 28.3455 38.8531 29.7844 37.5598C30.1787 37.24 31.1616 36.5176 31.9398 36.1873Z" fill="white"/>
<path fill-rule="evenodd" clip-rule="evenodd" d="M26.6183 21.8261C26.6183 22.0211 26.7226 22.2021 26.8947 22.3059L29.0244 23.591C29.2169 23.7074 29.4622 23.7074 29.6548 23.591L31.7845 22.3059C31.9566 22.2021 32.0609 22.0211 32.0609 21.8261V17.8158L34.0329 19.6819V23.8591L31.761 26.0363C31.6499 26.1428 31.5877 26.2869 31.5877 26.4375V27.5448C31.3177 27.5975 31.1144 27.8261 31.1144 28.1004V31.9522C30.6559 32.1039 30.2061 32.2829 29.7689 32.4867L27.0915 29.9209V26.4375C27.0915 26.2869 27.0293 26.1428 26.9182 26.0363L24.6463 23.8591V19.6819L26.6183 17.8158V21.8261ZM40.0742 21.3342L39.3233 20.6699L40.5035 17.0263H41.2092L42.3891 20.6699L41.6382 21.3342C41.5171 21.4416 41.4478 21.5924 41.4478 21.7509V25.4928H40.2649V21.7509C40.2646 21.5924 40.1956 21.4416 40.0742 21.3342ZM43.1043 26.6264V29.9212L40.4269 32.487C39.9897 32.2832 39.5399 32.1042 39.0813 31.9522V28.1007C39.0813 27.8264 38.8781 27.5978 38.6081 27.5451V26.6267L43.1043 26.6264ZM29.933 33.6794C30.554 33.3624 31.2087 33.1022 31.8791 32.906C32.1277 32.8332 32.2977 32.613 32.2977 32.3636V28.6674H37.8981V32.3636C37.8981 32.613 38.0683 32.8332 38.317 32.906C38.9874 33.1022 39.6421 33.3624 40.263 33.6794C40.4928 33.7966 40.7753 33.7563 40.9596 33.58L43.6877 30.9656L47.1108 34.2464L47.1114 34.2469L47.6478 34.7607L44.9197 37.375C44.7357 37.5514 44.6936 37.8224 44.816 38.0426C45.1467 38.6373 45.4183 39.2648 45.623 39.9075C45.699 40.1458 45.9287 40.3087 46.1887 40.3087H50.0457V42.4254H44.0309C43.7252 37.9578 39.8359 34.4127 35.098 34.4127C33.8312 34.4127 32.6068 34.6613 31.4583 35.1513C31.4355 35.163 31.4108 35.1755 31.3845 35.1889C30.8769 35.447 29.7449 36.0225 28.9753 36.7326C27.3209 38.2192 26.3165 40.2686 26.1658 42.4254H20.1501V40.3087H24.0071C24.2673 40.3087 24.4971 40.1458 24.5731 39.9075C24.7778 39.2648 25.0494 38.6373 25.3801 38.0426C25.5025 37.8224 25.4603 37.5514 25.2764 37.375L22.5483 34.7607L23.0847 34.2469L23.0853 34.2464L26.5084 30.9656L29.2365 33.58C29.4204 33.7563 29.7033 33.7966 29.933 33.6794ZM31.9398 36.1873C32.9357 35.7622 33.9981 35.5467 35.098 35.5467C39.1832 35.5467 42.5423 38.5835 42.8452 42.4254H39.5155C39.2253 40.3377 37.355 38.7215 35.098 38.7215C32.8411 38.7215 30.9707 40.3377 30.6806 42.4254H27.3502C27.4939 40.5637 28.3455 38.8531 29.7844 37.5598C30.1787 37.24 31.1616 36.5176 31.9398 36.1873Z" fill="white"/>
<path fill-rule="evenodd" clip-rule="evenodd" d="M11.3173 10.2162C9.91434 10.2162 8.77295 11.3087 8.77295 12.6517V48.1734C8.77295 49.5164 9.91434 50.6089 11.3173 50.6089H17.5194V52.5038C17.5194 53.5833 18.4368 54.4616 19.5646 54.4616H28.5683L24.3299 62.3826C24.1035 62.8059 24.2782 63.3247 24.7204 63.5415C24.8516 63.606 24.9917 63.6364 25.1298 63.6364C25.4566 63.6364 25.7719 63.4653 25.931 63.1676L30.5896 54.4616H40.5346L45.1931 63.1676C45.3524 63.4653 45.6675 63.6364 45.9944 63.6364C46.1324 63.6364 46.2725 63.6057 46.4037 63.5415C46.8459 63.3247 47.0207 62.8059 46.7942 62.3826L42.5558 54.4616H51.5596C52.6873 54.4616 53.6048 53.5834 53.6048 52.5038V50.6089H59H59.8585C61.2615 50.6089 62.4029 49.5164 62.4029 48.1734L62.351 20.8383V12.6517C62.351 11.3087 61.2097 10.2162 59.8067 10.2162H40.5544V8.52375C40.5544 7.33269 39.542 6.36365 38.2976 6.36365H32.8265C31.5822 6.36365 30.5698 7.33269 30.5698 8.52375V10.2162H11.3173ZM51.5596 52.7395C51.6953 52.7395 51.8058 52.6338 51.8058 52.5038V50.6089H19.3183V52.5038C19.3183 52.6338 19.4288 52.7395 19.5646 52.7395H51.5596ZM32.8265 8.08567C32.5741 8.08567 32.3687 8.28221 32.3687 8.52375L32.3689 10.2162H38.7554V8.52375C38.7554 8.28221 38.5499 8.08567 38.2976 8.08567H32.8265ZM11.3173 48.8869C10.9063 48.8869 10.5719 48.5668 10.5719 48.1734V12.6517C10.5719 12.2582 10.9063 11.9382 11.3173 11.9382H59.8067C60.2177 11.9382 60.5521 12.2582 60.5521 12.6517V20.8383L60.6039 48.1734C60.6039 48.5668 60.2695 48.8869 59.8585 48.8869L59 48.8869H11.3173ZM26.6183 21.8261C26.6183 22.0211 26.7226 22.2021 26.8947 22.3059L29.0244 23.591C29.2169 23.7074 29.4622 23.7074 29.6548 23.591L31.7845 22.3059C31.9566 22.2021 32.0609 22.0211 32.0609 21.8261V17.8158L34.0329 19.6819V23.8591L31.761 26.0363C31.6499 26.1428 31.5877 26.2869 31.5877 26.4375V27.5448C31.3177 27.5975 31.1144 27.8261 31.1144 28.1004V31.9522C30.6559 32.1039 30.2061 32.2829 29.7689 32.4867L27.0915 29.9209V26.4375C27.0915 26.2869 27.0293 26.1428 26.9182 26.0363L24.6463 23.8591V19.6819L26.6183 17.8158V21.8261ZM40.0742 21.3342L39.3233 20.6699L40.5035 17.0263H41.2092L42.3891 20.6699L41.6382 21.3342C41.5171 21.4416 41.4478 21.5924 41.4478 21.7509V25.4928H40.2649V21.7509C40.2646 21.5924 40.1956 21.4416 40.0742 21.3342ZM43.1043 26.6264V29.9212L40.4269 32.487C39.9897 32.2832 39.5399 32.1042 39.0813 31.9522V28.1007C39.0813 27.8264 38.8781 27.5978 38.6081 27.5451V26.6267L43.1043 26.6264ZM29.933 33.6794C30.554 33.3624 31.2087 33.1022 31.8791 32.906C32.1277 32.8332 32.2977 32.613 32.2977 32.3636V28.6674H37.8981V32.3636C37.8981 32.613 38.0683 32.8332 38.317 32.906C38.9874 33.1022 39.6421 33.3624 40.263 33.6794C40.4928 33.7966 40.7753 33.7563 40.9596 33.58L43.6877 30.9656L47.1108 34.2464L47.1114 34.2469L47.6478 34.7607L44.9197 37.375C44.7357 37.5514 44.6936 37.8224 44.816 38.0426C45.1467 38.6373 45.4183 39.2648 45.623 39.9075C45.699 40.1458 45.9287 40.3087 46.1887 40.3087H50.0457V42.4254H44.0309C43.7252 37.9578 39.8359 34.4127 35.098 34.4127C33.8312 34.4127 32.6068 34.6613 31.4583 35.1513L31.3845 35.1889C30.8769 35.447 29.7449 36.0225 28.9753 36.7326C27.3209 38.2192 26.3165 40.2686 26.1658 42.4254H20.1501V40.3087H24.0071C24.2673 40.3087 24.4971 40.1458 24.5731 39.9075C24.7778 39.2648 25.0494 38.6373 25.3801 38.0426C25.5025 37.8224 25.4603 37.5514 25.2764 37.375L22.5483 34.7607L23.0847 34.2469L23.0853 34.2464L26.5084 30.9656L29.2365 33.58C29.4204 33.7563 29.7033 33.7966 29.933 33.6794ZM31.9398 36.1873C32.9357 35.7622 33.9981 35.5467 35.098 35.5467C39.1832 35.5467 42.5423 38.5835 42.8452 42.4254H39.5155C39.2253 40.3377 37.355 38.7215 35.098 38.7215C32.8411 38.7215 30.9707 40.3377 30.6806 42.4254H27.3502C27.4939 40.5637 28.3455 38.8531 29.7844 37.5598C30.1787 37.24 31.1616 36.5176 31.9398 36.1873Z" fill="white"/>
</svg>
