<svg width="71" height="70" viewBox="0 0 71 70" fill="none" xmlns="http://www.w3.org/2000/svg">
<path d="M57.9819 18.2235V15.1225C57.9819 14.7516 57.8265 14.4122 57.5823 14.1681C57.335 13.9208 56.9989 13.7686 56.6279 13.7686H53.8439C53.4697 13.7686 53.1336 13.9208 52.8863 14.1681C52.6421 14.4123 52.4899 14.7516 52.4899 15.1225V18.2236H57.9819V18.2235ZM22.9117 33.3009C22.5852 32.9713 22.5852 32.4416 22.9117 32.115C23.2383 31.7853 23.771 31.7853 24.0976 32.115L24.8619 32.8792L26.9832 30.7547C27.3098 30.4281 27.8425 30.4281 28.1692 30.7547C28.4989 31.0845 28.4989 31.614 28.1692 31.9438L25.455 34.6581C25.1282 34.9848 24.5955 34.9848 24.2689 34.6581L22.9117 33.3009ZM54.3956 23.6203C54.3956 23.1574 54.7698 22.78 55.2359 22.78C55.6989 22.78 56.073 23.1574 56.073 23.6203V41.2282C56.073 41.691 55.6988 42.0685 55.2359 42.0685C54.7698 42.0685 54.3956 41.691 54.3956 41.2282V23.6203ZM41.1698 52.006H46.332V48.407H41.1698V52.006ZM47.1691 53.6833C38.0496 53.6833 28.9268 53.6833 19.8073 53.6833C19.3443 53.6833 18.967 53.3059 18.967 52.8429V47.5667C18.967 47.1037 19.3443 46.7296 19.8073 46.7296H25.8099V41.9479C25.8099 41.485 26.1841 41.1109 26.6469 41.1109H33.4897C33.9527 41.1109 34.3269 41.4851 34.3269 41.9479V43.4382H40.3293C40.7923 43.4382 41.1696 43.8155 41.1696 44.2785V46.7296H47.169C47.632 46.7296 48.0093 47.1038 48.0093 47.5667V52.8429C48.0094 53.3059 47.6321 53.6833 47.1691 53.6833ZM34.327 52.006H39.4893V45.1188H34.327V52.006ZM27.4874 52.006H32.6495V44.2785V42.7883H27.4874V52.006ZM20.6445 52.006H25.81V48.407H20.6445V52.006ZM17.1058 22.7802H50.8094V19.0607V15.1225C50.8094 14.2886 51.1518 13.5308 51.7004 12.9821C52.2489 12.4336 53.0068 12.0911 53.8439 12.0911H56.6279C57.4619 12.0911 58.2197 12.4336 58.7683 12.9821C59.3169 13.5307 59.6593 14.2886 59.6593 15.1225V19.0607V22.7802H63.2994C63.7624 22.7802 64.1365 23.1575 64.1365 23.6205V56.5116C64.1365 56.9746 63.7623 57.3488 63.2994 57.3488H40.0726C39.6096 57.3488 39.2356 56.9745 39.2356 56.5116C39.2356 56.0487 39.6097 55.6713 40.0726 55.6713H62.4593V24.4575H59.6594V30.5234C59.6594 30.9864 59.282 31.3637 58.8191 31.3637C58.3561 31.3637 57.9819 30.9864 57.9819 30.5234V23.6205V19.9011H52.4899V23.6205V44.9477H57.9819V34.3252C57.9819 33.8622 58.3561 33.4849 58.8191 33.4849C59.282 33.4849 59.6594 33.8622 59.6594 34.3252V45.7847C59.6594 45.9876 59.6055 46.0892 59.5166 46.2603L55.9843 53.2172C55.9051 53.3726 55.7782 53.5057 55.6101 53.5914C55.1979 53.8007 54.6969 53.6325 54.4876 53.2204L50.9425 46.2446C50.8601 46.0766 50.8094 45.9815 50.8094 45.7848V24.4575H17.1058V30.8055C17.1058 31.2685 16.7316 31.6459 16.2686 31.6459C15.8056 31.6459 15.4283 31.2685 15.4283 30.8055V23.6205V14.4471C14.7085 13.9969 13.8968 13.7686 13.047 13.7686C11.804 13.7686 10.6783 14.2728 9.86019 15.0877C9.04528 15.9057 8.54101 17.0314 8.54101 18.2744V46.9326C8.58542 46.885 8.62983 46.8374 8.67413 46.7931C9.79352 45.6737 11.3409 44.9826 13.0469 44.9826C13.7287 44.9826 14.3882 45.0968 15.0128 45.3028C15.1524 45.3504 15.2919 45.4043 15.4282 45.4613V34.6076C15.4282 34.1446 15.8055 33.7673 16.2685 33.7673C16.7315 33.7673 17.1057 34.1446 17.1057 34.6076V46.901C17.1057 47.0754 17.0486 47.2529 16.9344 47.4052C16.6585 47.773 16.1321 47.8459 15.7612 47.5669C15.3775 47.2753 14.943 47.0437 14.4802 46.8915C14.0363 46.7425 13.5543 46.66 13.047 46.66C11.804 46.66 10.6783 47.1643 9.86019 47.9792C9.04528 48.794 8.54101 49.9229 8.54101 51.1658C8.54101 52.412 9.04517 53.5376 9.86019 54.3525C10.6782 55.1674 11.8039 55.6715 13.047 55.6715H36.2738C36.7368 55.6715 37.1109 56.049 37.1109 56.5118C37.1109 56.9748 36.7367 57.349 36.2738 57.349H13.047C11.341 57.349 9.79363 56.6577 8.67424 55.5384C7.55496 54.419 6.86377 52.8748 6.86377 51.1657V18.2743C6.86377 16.5683 7.55496 15.0209 8.67424 13.9016C9.79363 12.7822 11.341 12.0909 13.047 12.0909C14.3692 12.0909 15.6692 12.5222 16.7315 13.3087C16.9567 13.4608 17.1057 13.7176 17.1057 14.0095V22.7802H17.1058ZM57.4555 46.625H53.0132L55.2359 50.9977L57.4555 46.625ZM46.2432 27.863C46.7062 27.863 47.0803 28.2403 47.0803 28.7033C47.0803 29.1663 46.7061 29.5404 46.2432 29.5404H34.8882C34.4252 29.5404 34.0511 29.1662 34.0511 28.7033C34.0511 28.2403 34.4253 27.863 34.8882 27.863H46.2432ZM41.5218 35.8726C41.9879 35.8726 42.3621 36.2468 42.3621 36.7096C42.3621 37.1725 41.9879 37.55 41.5218 37.55H34.8883C34.4253 37.55 34.0513 37.1726 34.0513 36.7096C34.0513 36.2467 34.4254 35.8726 34.8883 35.8726H41.5218ZM46.2432 31.8677C46.7062 31.8677 47.0803 32.242 47.0803 32.708C47.0803 33.171 46.7061 33.5452 46.2432 33.5452H34.8882C34.4252 33.5452 34.0511 33.1709 34.0511 32.708C34.0511 32.242 34.4253 31.8677 34.8882 31.8677H46.2432ZM20.7364 27.0607H30.3474C30.8104 27.0607 31.1845 27.4381 31.1845 27.901V37.5119C31.1845 37.9749 30.8103 38.3522 30.3474 38.3522H20.7364C20.2703 38.3522 19.8961 37.9749 19.8961 37.5119V27.901C19.8961 27.4381 20.2703 27.0607 20.7364 27.0607ZM29.5072 28.7413H21.5736V36.6749H29.5072V28.7413Z" fill="#333333"/>
</svg>
