<svg width="71" height="70" viewBox="0 0 71 70" fill="none" xmlns="http://www.w3.org/2000/svg">
<path d="M57.2917 28.144H42.8257C42.3623 28.144 41.9868 28.5196 41.9868 28.9828C41.9868 29.446 42.3624 29.8217 42.8257 29.8217H57.2918C57.7552 29.8217 58.1307 29.446 58.1307 28.9828C58.1307 28.5196 57.7551 28.144 57.2917 28.144Z" fill="#333333"/>
<path d="M57.2917 33.2015H42.8257C42.3623 33.2015 41.9868 33.5771 41.9868 34.0403C41.9868 34.5035 42.3624 34.8792 42.8257 34.8792H57.2918C57.7552 34.8792 58.1307 34.5035 58.1307 34.0403C58.1307 33.5771 57.7551 33.2015 57.2917 33.2015Z" fill="#333333"/>
<path d="M58.1307 39.0979C58.1307 38.6346 57.7551 38.2591 57.2918 38.2591H42.8257C42.3623 38.2591 41.9868 38.6347 41.9868 39.0979C41.9868 39.5612 42.3624 39.9368 42.8257 39.9368H57.2918C57.7551 39.9369 58.1307 39.5613 58.1307 39.0979Z" fill="#333333"/>
<path d="M42.8257 43.3167C42.3623 43.3167 41.9868 43.6923 41.9868 44.1555C41.9868 44.6187 42.3624 44.9943 42.8257 44.9943H50.0587C50.522 44.9943 50.8975 44.6187 50.8975 44.1555C50.8975 43.6923 50.5219 43.3167 50.0587 43.3167H42.8257Z" fill="#333333"/>
<path d="M62.3587 16.2288L53.7095 7.57957C52.941 6.81053 51.8881 6.36365 50.7743 6.36365H22.3125C20.0239 6.36365 18.1619 8.22568 18.1619 10.5144V19.1031C18.1619 19.5665 18.5376 19.942 19.0008 19.942C19.464 19.942 19.8396 19.5664 19.8396 19.1031V10.5144C19.8396 9.15077 20.9489 8.04145 22.3125 8.04145H50.7743C50.9553 8.04145 51.1332 8.0608 51.3072 8.09917V15.7388C51.3072 17.3335 52.6045 18.6309 54.1992 18.6309H61.838C61.8767 18.8059 61.8965 18.9852 61.8965 19.1638V59.4858C61.8965 60.8493 60.7872 61.9587 59.4236 61.9587H48.1538C49.1347 60.4921 48.9786 58.4848 47.6846 57.1908L40.0573 49.5636C39.5018 49.0081 38.6932 48.8589 37.9995 49.1119L36.3574 47.4698C40.9903 41.0365 40.3071 32.1353 34.6414 26.4694C28.3533 20.1815 18.0364 20.0562 11.6233 26.4694C5.27725 32.8155 5.27725 43.1414 11.6233 49.4874C17.2842 55.1484 26.1939 55.8212 32.6232 51.2029L34.2659 52.8456C34.0128 53.5393 34.1621 54.3479 34.7177 54.9034L41.7729 61.9587H22.3125C20.9491 61.9587 19.8396 60.8494 19.8396 59.4858V56.7972C19.8396 56.3339 19.464 55.9584 19.0008 55.9584C18.5376 55.9584 18.1619 56.334 18.1619 56.7972V59.4858C18.1619 61.7745 20.024 63.6364 22.3125 63.6364H59.4237C61.7124 63.6364 63.5744 61.7743 63.5744 59.4858V19.1638C63.5744 18.0751 63.1424 17.0119 62.3587 16.2288ZM12.8098 48.301C7.11792 42.6091 7.11792 33.3477 12.8098 27.6557C18.5743 21.8913 27.826 22.0266 33.4552 27.6557C38.6963 32.8969 39.1846 41.2244 34.5908 47.0262C33.8856 47.9167 33.0719 48.7308 32.1803 49.4367C26.4156 54.0009 18.0676 53.5588 12.8098 48.301ZM33.9444 50.145C34.4188 49.7227 34.8712 49.2711 35.302 48.7871L36.6835 50.1686L35.3225 51.5296L33.9411 50.1481C33.9422 50.147 33.9433 50.1459 33.9444 50.145ZM43.5312 61.3441L35.9041 53.717C35.7948 53.6077 35.7945 53.4302 35.9041 53.3206L35.9151 53.3095C35.9154 53.3093 35.9156 53.3092 35.9157 53.3089L38.4747 50.7499C38.5839 50.6406 38.7619 50.6406 38.8712 50.7499L46.4983 58.3771C47.3162 59.1952 47.3162 60.5261 46.4983 61.3441C45.6782 62.1641 44.3512 62.1641 43.5312 61.3441ZM52.985 15.7388V9.22773L60.7103 16.9531H54.1993C53.5296 16.9531 52.985 16.4083 52.985 15.7388Z" fill="#333333"/>
<path d="M41.8604 11.8072H25.2169C24.222 11.8072 23.4126 12.6166 23.4126 13.6115V16.8267C23.4126 17.8216 24.222 18.631 25.2169 18.631H41.8604C42.8552 18.631 43.6647 17.8216 43.6647 16.8267V13.6115C43.6646 12.6166 42.8551 11.8072 41.8604 11.8072ZM41.9868 16.8266C41.9868 16.8963 41.93 16.9531 41.8602 16.9531H25.2169C25.1472 16.9531 25.0904 16.8964 25.0904 16.8266V13.6115C25.0904 13.5418 25.1471 13.485 25.2169 13.485H41.8604C41.9302 13.485 41.9869 13.5417 41.9869 13.6115V16.8266H41.9868Z" fill="#333333"/>
<path d="M32.2759 47.1219C37.3177 42.0802 37.3177 33.8767 32.2759 28.835C27.2341 23.7932 19.0308 23.7932 13.989 28.835C12.0274 30.7967 10.7694 33.2788 10.3511 36.0131C10.281 36.4711 10.5954 36.8991 11.0534 36.9692C11.5116 37.0395 11.9395 36.7249 12.0095 36.2668C12.3735 33.8882 13.4682 31.7285 15.1753 30.0213C19.5628 25.6338 26.7019 25.6338 31.0895 30.0213C35.2993 34.231 35.4691 40.9736 31.6004 45.3886C31.2319 44.6388 30.6051 44.0283 29.7854 43.6674C28.7917 43.2299 27.0784 42.9518 26.0246 42.8129L26.0201 41.7536C27.0385 41.0038 27.7613 39.8722 27.969 38.563C28.1481 38.4886 28.3124 38.3786 28.4532 38.2369C28.734 37.9541 28.8872 37.579 28.8846 37.1807C28.8771 36.0689 28.8781 34.2262 28.8781 33.1528C28.8781 32.1377 28.1385 31.2919 27.1699 31.126C26.984 30.1821 26.1501 29.468 25.1524 29.468H21.1027C19.015 29.468 17.3165 31.1664 17.3165 33.2541V37.1964C17.3165 37.8084 17.69 38.3348 18.221 38.5597C18.4241 39.829 19.111 40.932 20.0809 41.682L20.0859 42.8378C19.0333 42.9856 17.3225 43.2781 16.3322 43.724C15.5791 44.0633 14.9906 44.6386 14.6284 45.347C13.2872 43.8031 12.3991 41.9418 12.047 39.9178C11.9676 39.4614 11.5331 39.1557 11.0767 39.2351C10.6202 39.3146 10.3146 39.749 10.394 40.2054C10.8518 42.8357 12.0949 45.2273 13.9891 47.1217C19.0529 52.1858 27.2565 52.1415 32.2759 47.1219ZM21.1027 31.1459H25.1524C25.3611 31.1459 25.5309 31.3157 25.5309 31.5245C25.5309 32.2137 26.0917 32.7745 26.781 32.7745H26.822C27.0307 32.7745 27.2005 32.9443 27.2005 33.153V33.6033L26.1865 33.5082C25.1932 33.4152 24.1773 33.6508 23.3262 34.172C22.8595 34.4578 22.3234 34.6089 21.7761 34.6089H18.9944V33.2544C18.9943 32.0917 19.9401 31.1459 21.1027 31.1459ZM18.9943 37.0173V36.2865H21.776C22.6328 36.2865 23.4718 36.0499 24.2025 35.6025C24.7461 35.2694 25.3951 35.1189 26.0297 35.1784L27.2009 35.2882C27.2016 35.8049 27.2029 36.4866 27.2058 37.0141C26.7388 37.0961 26.3754 37.4898 26.3468 37.9775C26.2469 39.6928 24.8196 41.0363 23.0974 41.0363C21.3788 41.0363 19.9493 39.6939 19.8429 37.9799C19.8129 37.4969 19.4551 37.1058 18.9943 37.0173ZM23.0974 42.7141C23.5282 42.7141 23.9464 42.6575 24.3457 42.5532L24.3478 43.021C24.3487 43.238 24.3984 43.445 24.4866 43.6312C24.0695 43.9126 23.5754 44.0679 23.0573 44.0694C23.0548 44.0694 23.0522 44.0694 23.0496 44.0694C22.5364 44.0694 22.046 43.9183 21.6303 43.6428C21.7169 43.4559 21.7655 43.2487 21.7646 43.0317L21.7624 42.5301C22.1877 42.6499 22.6356 42.7141 23.0974 42.7141ZM15.942 46.6341C16.0638 46.0203 16.4556 45.5087 17.021 45.2539C17.5917 44.997 18.691 44.7389 20.0754 44.5344C20.8662 45.3106 21.9252 45.7471 23.0493 45.7471H23.062C24.1945 45.7438 25.2592 45.2979 26.0492 44.5093C27.4353 44.7021 28.5367 44.9508 29.1096 45.203C29.7515 45.4856 30.1665 46.0239 30.2682 46.6798C26.1167 50.0895 20.0767 50.074 15.942 46.6341Z" fill="#333333"/>
</svg>
