<svg width="71" height="70" viewBox="0 0 71 70" fill="none" xmlns="http://www.w3.org/2000/svg">
<path d="M64.1365 30.3812H62.0608L58.967 32.0091C58.6188 31.8169 58.2566 31.6541 57.866 31.5562L53.9743 30.5824V30.1399C55.696 28.9383 56.7465 26.9533 56.7465 24.8387V23.224C56.7465 19.6354 53.9346 16.6323 50.4787 16.5276C50.3032 16.5231 50.1304 16.5294 49.9568 16.538L50.9658 14.1759L46.0741 9.28556L43.1906 11.1624C42.095 10.5453 40.9362 10.065 39.7328 9.72804L39.0206 6.36365H31.9806L31.2684 9.72894C30.065 10.0659 28.9053 10.5462 27.8106 11.1633L24.927 9.28646L20.0394 14.1741L21.0313 16.538C20.9934 16.5362 20.9573 16.5294 20.9194 16.5285C19.1504 16.4771 17.4842 17.1226 16.2186 18.3512C14.9511 19.579 14.2538 21.2267 14.2538 22.9912V24.8387C14.2538 26.9533 15.3034 28.9374 17.0251 30.139V30.5824L14.4865 31.217L9.88536 28.5337H6.86377V47.675L15.9516 50.7038H17.7215L17.9425 49.9298L20.7282 51.6019C20.7738 53.1165 21.9884 54.3352 23.5017 54.3885C23.5549 55.8954 24.766 57.1065 26.273 57.1597C26.3262 58.6667 27.5373 59.8778 29.0442 59.931C29.0993 61.4731 30.3622 62.7126 31.917 62.7126C32.4943 62.7126 33.0604 62.5327 33.5363 62.212L34.3545 62.9345C34.8673 63.386 35.5276 63.6364 36.2132 63.6364H36.3842C37.9214 63.6364 39.1721 62.3937 39.1915 60.8615C40.712 60.8421 41.9434 59.6107 41.9628 58.0902C43.4842 58.0709 44.7165 56.8377 44.7341 55.3163C46.2694 55.2802 47.5089 54.0258 47.5089 52.4819C47.5089 52.389 47.5044 52.2974 47.4949 52.2049L64.1365 43.8848V30.3812ZM54.899 23.224V24.8387C54.899 26.4783 54.0131 28.0101 52.5869 28.8359L52.125 29.103L52.1286 32.0262L56.7438 33.1791L46.5852 38.5259V36.0374C46.5852 34.7957 46.0836 33.6586 45.2622 32.8183L48.4327 32.0262V29.1007L47.9717 28.8341C46.5464 28.0101 45.6614 26.4783 45.6614 24.8387V22.9912C45.6614 21.7314 46.1594 20.5533 47.0646 19.676C47.969 18.7991 49.1688 18.3264 50.4232 18.3752C52.8909 18.4491 54.899 20.6245 54.899 23.224ZM36.893 37.7997L32.7113 36.4632C30.8056 35.8525 28.7429 35.7614 26.7921 36.1935L26.2626 36.3108V36.0374C26.2626 34.7637 27.1264 33.6577 28.3613 33.3483L33.6526 32.0262V29.1007L33.1917 28.8341C31.7663 28.0101 30.8814 26.4783 30.8814 24.8387V22.9912C30.8814 21.7314 31.3793 20.5533 32.2846 19.676C33.1889 18.7991 34.3964 18.3264 35.6431 18.3752C38.1108 18.4491 40.1189 20.6245 40.1189 23.224V24.8387C40.1189 26.4783 39.233 28.0101 37.8068 28.8359L37.3449 29.103L37.3485 32.0262L42.6389 33.3483C43.8739 33.6577 44.7377 34.7637 44.7377 36.0374V39.4988L44.5094 39.6188H43.9434L38.2642 37.9959C37.8167 37.8692 37.3558 37.8173 36.893 37.7997ZM26.4696 20.1893C28.2044 16.828 31.696 14.6774 35.5001 14.6774C39.2682 14.6774 42.7449 16.7992 44.4927 20.1149C44.053 20.9967 43.8139 21.9732 43.8139 22.9912V24.8387C43.8139 26.9533 44.8635 28.9374 46.5852 30.139V30.5824L42.8902 31.5075L39.1942 30.5824V30.1399C40.9159 28.9383 41.9664 26.9533 41.9664 24.8387V23.224C41.9664 19.6354 39.1546 16.6323 35.6986 16.5276C33.9305 16.4758 32.2634 17.1217 30.9977 18.3503C29.7312 19.579 29.0339 21.2267 29.0339 22.9912V24.8387C29.0339 26.9533 30.0835 28.9374 31.8051 30.139V30.5824L28.1101 31.5075L24.4142 30.5824V30.1399C26.1359 28.9383 27.1863 26.9533 27.1863 24.8387V23.224C27.1863 22.1369 26.9247 21.1049 26.4696 20.1893ZM22.2212 14.6026L25.1724 11.6513L27.77 13.3419L28.2671 13.037C29.5124 12.2738 30.8584 11.7149 32.267 11.378L32.8353 11.2418L33.4781 8.21115H37.5231L38.164 11.2409L38.7324 11.3766C40.141 11.714 41.4869 12.2729 42.7323 13.0361L43.2294 13.341L45.827 11.6504L48.7746 14.5989L47.7268 17.0522C47.0137 17.3589 46.3524 17.7906 45.7769 18.3485C45.739 18.3855 45.7065 18.4252 45.6695 18.4631C43.4932 15.0035 39.6457 12.8299 35.5001 12.8299C31.3247 12.8299 27.4665 15.0238 25.2955 18.5186C24.7146 17.9106 24.0236 17.418 23.2577 17.0739L22.2212 14.6026ZM18.8726 32.0262V29.1007L18.4116 28.8341C16.9863 28.0101 16.1013 26.4783 16.1013 24.8387V22.9912C16.1013 21.7314 16.5993 20.5533 17.5045 19.676C18.4089 18.7991 19.6114 18.3264 20.8631 18.3752C23.3308 18.4491 25.3388 20.6245 25.3388 23.224V24.8387C25.3388 26.4783 24.453 28.0101 23.0268 28.8359L22.5649 29.103L22.5685 32.0262L25.738 32.8183C24.9167 33.6586 24.4151 34.7957 24.4151 36.0374V36.7217L21.5338 37.3622L21.6086 37.1006L21.6438 35.3933L16.772 32.5513L18.8726 32.0262ZM8.71128 30.3812H9.3847L16.0282 34.2562L12.676 47.6646L8.71128 46.3426V30.3812ZM16.2511 48.8563L14.4329 48.2506L17.6895 35.2255L19.7963 36.4542V36.7181L16.3286 48.8563H16.2511ZM22.5676 51.5157C22.5676 51.2433 22.6776 50.9763 22.8707 50.7832L24.4945 49.1594C24.6875 48.9664 24.9545 48.8563 25.227 48.8563C25.798 48.8563 26.2626 49.3209 26.2626 49.8919C26.2626 50.1644 26.1525 50.4314 25.9595 50.6244L24.3357 52.2482C24.1427 52.4413 23.8756 52.5513 23.6032 52.5513C23.0322 52.5513 22.5676 52.0868 22.5676 51.5157ZM25.3388 54.287C25.3388 54.0145 25.4489 53.7475 25.642 53.5545L27.2657 51.9307C27.4588 51.7376 27.7258 51.6276 27.9982 51.6276C28.5693 51.6276 29.0339 52.0922 29.0339 52.6632C29.0339 52.9356 28.9238 53.2026 28.7308 53.3957L27.107 55.0195C26.9139 55.2125 26.6469 55.3226 26.3745 55.3226C25.8034 55.3226 25.3388 54.858 25.3388 54.287ZM28.1101 57.0582C28.1101 56.7858 28.2202 56.5188 28.4132 56.3257L30.037 54.7019C30.23 54.5089 30.4971 54.3988 30.7695 54.3988C31.3405 54.3988 31.8051 54.8634 31.8051 55.4345C31.8051 55.7069 31.6951 55.9739 31.502 56.167L29.8782 57.7907C29.6852 57.9838 29.4182 58.0939 29.1457 58.0939C28.5747 58.0939 28.1101 57.6293 28.1101 57.0582ZM31.917 60.8651C31.3459 60.8651 30.8814 60.4005 30.8814 59.8295C30.8814 59.5571 30.9914 59.29 31.1845 59.097L32.8083 57.4732C33.0013 57.2802 33.2683 57.1701 33.5408 57.1701C34.1118 57.1701 34.5764 57.6347 34.5764 58.2057C34.5764 58.4781 34.4663 58.7452 34.2733 58.9382L32.6495 60.562C32.4564 60.7551 32.1894 60.8651 31.917 60.8651ZM36.3842 61.7889H36.2132C35.9778 61.7889 35.7523 61.7032 35.5768 61.5476L34.8858 60.9382L35.5795 60.2445C35.8271 59.9968 36.0193 59.7023 36.1614 59.3861L37.0012 60.0852C37.2209 60.2684 37.3476 60.5381 37.3476 60.8254C37.3476 61.3568 36.9155 61.7889 36.3842 61.7889ZM44.6682 53.4751H44.5085C44.2767 53.4751 44.0503 53.393 43.873 53.2441L38.8636 49.0697L37.6801 50.4896L42.5447 54.5427C42.7634 54.7259 42.8902 54.9956 42.8902 55.2829C42.8902 55.8142 42.4581 56.2463 41.9267 56.2463H41.7251C41.5009 56.2463 41.2817 56.167 41.109 56.0226L36.0915 51.8418L34.9079 53.2617L39.7725 57.3153C39.9922 57.4971 40.1189 57.7668 40.1189 58.0542C40.1189 58.5855 39.6868 59.0176 39.1555 59.0176C38.8009 59.0176 38.4554 58.8918 38.1834 58.6658L36.1217 56.9473C35.6675 56.019 34.7342 55.3718 33.6413 55.333C33.5881 53.826 32.3771 52.6149 30.8701 52.5617C30.8169 51.0547 29.6058 49.8437 28.0988 49.7904C28.0447 48.2483 26.7818 47.0088 25.227 47.0088C24.4679 47.0088 23.725 47.3164 23.1882 47.8532L21.5644 49.477C21.4675 49.5739 21.3872 49.684 21.3055 49.7932L18.468 48.0904L20.9555 39.3842L27.1918 37.9977C28.8277 37.6319 30.5525 37.7113 32.1479 38.2219L33.5087 38.6571L28.8954 40.9638C27.8413 41.492 27.1863 42.5524 27.1863 43.7315V43.9141C27.1863 45.6205 28.5747 47.0088 30.281 47.0088C30.8417 47.0088 31.3933 46.8564 31.8728 46.5672L35.3125 44.5046C36.0035 44.0905 36.9309 44.1812 37.5276 44.7179L45.3326 51.7421C45.5414 51.9316 45.6614 52.2004 45.6614 52.4819C45.6614 53.0299 45.2162 53.4751 44.6682 53.4751ZM62.289 42.7428L46.7264 50.5248C46.6758 50.4711 46.6231 50.4201 46.5676 50.3705L38.7639 43.3463C38.0801 42.7292 37.1961 42.39 36.275 42.39C35.6016 42.39 34.9404 42.5732 34.3612 42.9205L30.9202 44.984C30.7271 45.1004 30.5065 45.1613 30.281 45.1613C29.5927 45.1613 29.0339 44.6024 29.0339 43.9141V43.7315C29.0339 43.2556 29.2982 42.8289 29.7231 42.6165L34.8759 40.0401C35.7577 39.5985 36.8046 39.4997 37.7549 39.773L43.56 41.4311L44.9659 41.4663L62.289 32.3487V42.7428Z" fill="#333333"/>
</svg>
