<svg width="20" height="20" viewBox="0 0 20 20" fill="none" xmlns="http://www.w3.org/2000/svg">
<path d="M19.8854 3.68664C19.7836 3.58482 19.6139 3.55086 19.478 3.58482L18.7991 3.82246C19.2065 3.34721 19.478 2.83801 19.6478 2.36276C19.7157 2.19303 19.6817 2.05725 19.5799 1.95539C19.478 1.85356 19.3083 1.81961 19.1725 1.88748C18.222 2.29485 17.4073 2.63432 16.7283 2.83797C16.7283 2.87193 16.6944 2.83797 16.6604 2.83797C16.1173 2.53246 14.7934 1.85352 13.8429 1.85352C11.4326 1.88748 9.49768 3.92429 9.49768 6.40239V6.53817C5.96722 5.85923 4.03227 4.84083 1.92756 2.63428L1.58817 2.29481L1.38448 2.70219C0.230292 4.90874 1.04501 6.91159 2.36893 8.26947C1.7579 8.16764 1.35052 7.96395 0.977099 7.65844C0.841319 7.55661 0.671585 7.52266 0.501851 7.62448C0.366071 7.69239 0.298162 7.89604 0.332117 8.06578C0.807364 9.66125 1.9955 10.9513 3.28547 11.732C2.67444 11.732 2.16524 11.6641 1.65604 11.3246C1.52026 11.2567 1.31657 11.2567 1.18079 11.3586C1.04501 11.4605 0.977099 11.6302 1.04501 11.7999C1.65604 13.5312 2.84417 14.4477 4.74521 14.6854C3.76076 15.2625 2.47079 15.7377 0.467935 15.7717C0.264246 15.7717 0.0945121 15.9075 0.0266419 16.0772C-0.0412674 16.2809 0.0266419 16.4506 0.162421 16.5864C1.38452 17.5709 4.10022 18.148 7.46095 18.148C13.4356 18.148 18.3239 12.8183 18.3239 6.26661V6.16479C19.0707 5.79136 19.6818 5.07847 19.9873 4.09402C20.0212 3.9582 19.9872 3.78847 19.8854 3.68664ZM17.8486 5.62159L17.6449 5.6895V6.26661C17.6449 12.4449 13.0621 17.469 7.46091 17.469C4.37174 17.469 2.30102 16.9598 1.18079 16.4167C3.52311 16.2469 4.88098 15.5001 5.93334 14.6854L6.78202 14.0743H5.76361C3.82866 14.0743 2.64052 13.5312 1.96159 12.2412C2.57262 12.4449 3.2176 12.4449 3.93049 12.411C4.20205 12.377 4.47365 12.377 4.74521 12.377L4.84703 11.6981C3.55707 11.3246 2.02946 10.1705 1.28261 8.60893C1.96155 8.91445 2.70836 8.98236 3.38729 8.98236H4.43965L3.59102 8.37129C2.87813 7.86209 0.773449 6.06292 1.79185 3.48295C3.96444 5.62159 6.03521 6.60604 9.76932 7.28498L10.1767 7.35289V6.40239C10.1767 4.29771 11.8061 2.56641 13.8429 2.53246C14.6094 2.49913 15.8665 3.18546 16.2656 3.40335C16.2731 3.40743 16.2802 3.41134 16.2871 3.41508C16.4908 3.51691 16.6945 3.55086 16.8981 3.48299C17.4073 3.31326 18.0183 3.07562 18.6973 2.80406C18.3918 3.31326 17.9844 3.78851 17.4413 4.22984C17.3055 4.33166 17.2715 4.53535 17.3394 4.70509C17.4074 4.87482 17.611 4.94273 17.7807 4.87482L19.1047 4.43353C18.867 4.87478 18.4936 5.38398 17.8486 5.62159Z" fill="#333333"/>
<path d="M17.8486 5.62159L17.6449 5.6895V6.26661C17.6449 12.4449 13.0621 17.469 7.46091 17.469C4.37174 17.469 2.30102 16.9598 1.18079 16.4167C3.52311 16.2469 4.88098 15.5001 5.93334 14.6854L6.78202 14.0743H5.76361C3.82866 14.0743 2.64052 13.5312 1.96159 12.2412C2.57262 12.4449 3.2176 12.4449 3.93049 12.411C4.20205 12.377 4.47365 12.377 4.74521 12.377L4.84703 11.6981C3.55707 11.3246 2.02946 10.1705 1.28261 8.60893C1.96155 8.91445 2.70836 8.98236 3.38729 8.98236H4.43965L3.59102 8.37129C2.87813 7.86209 0.773449 6.06292 1.79185 3.48295C3.96444 5.62159 6.03521 6.60604 9.76932 7.28498L10.1767 7.35289V6.40239C10.1767 4.29771 11.8061 2.56641 13.8429 2.53246C14.6094 2.49913 15.8665 3.18546 16.2656 3.40335L16.2871 3.41508C16.4908 3.51691 16.6945 3.55086 16.8981 3.48299C17.4073 3.31326 18.0183 3.07562 18.6973 2.80406C18.3918 3.31326 17.9844 3.78851 17.4413 4.22984C17.3055 4.33166 17.2715 4.53535 17.3394 4.70509C17.4074 4.87482 17.611 4.94273 17.7807 4.87482L19.1047 4.43353C18.867 4.87478 18.4936 5.38398 17.8486 5.62159Z" fill="#333333"/>
</svg>
