<svg width="18" height="19" viewBox="0 0 18 19" fill="none" xmlns="http://www.w3.org/2000/svg">
<path d="M15.0911 13.9736C14.7595 13.1881 14.2783 12.4747 13.6743 11.873C13.0721 11.2695 12.3588 10.7884 11.5737 10.4562C11.5667 10.4527 11.5597 10.4509 11.5526 10.4474C12.6477 9.65637 13.3597 8.3679 13.3597 6.91418C13.3597 4.50598 11.4085 2.55481 9.00029 2.55481C6.59209 2.55481 4.64091 4.50598 4.64091 6.91418C4.64091 8.3679 5.35283 9.65637 6.44794 10.4491C6.44091 10.4527 6.43388 10.4544 6.42685 10.4579C5.63935 10.7902 4.93271 11.2665 4.32626 11.8747C3.72282 12.4769 3.2417 13.1902 2.90947 13.9753C2.58308 14.7439 2.40705 15.568 2.39091 16.4029C2.39044 16.4216 2.39373 16.4403 2.40059 16.4578C2.40745 16.4752 2.41773 16.4911 2.43084 16.5046C2.44394 16.518 2.4596 16.5287 2.4769 16.536C2.49419 16.5433 2.51277 16.547 2.53154 16.547H3.58623C3.66357 16.547 3.72509 16.4855 3.72685 16.4099C3.76201 15.0529 4.30693 13.782 5.27021 12.8187C6.26689 11.822 7.59052 11.2736 9.00029 11.2736C10.4101 11.2736 11.7337 11.822 12.7304 12.8187C13.6936 13.782 14.2386 15.0529 14.2737 16.4099C14.2755 16.4872 14.337 16.547 14.4144 16.547H15.469C15.4878 16.547 15.5064 16.5433 15.5237 16.536C15.541 16.5287 15.5566 16.518 15.5697 16.5046C15.5828 16.4911 15.5931 16.4752 15.6 16.4578C15.6068 16.4403 15.6101 16.4216 15.6097 16.4029C15.5921 15.5626 15.4181 14.7452 15.0911 13.9736ZM9.00029 9.93762C8.19345 9.93762 7.43408 9.62297 6.86279 9.05168C6.2915 8.4804 5.97685 7.72102 5.97685 6.91418C5.97685 6.10735 6.2915 5.34797 6.86279 4.77668C7.43408 4.2054 8.19345 3.89075 9.00029 3.89075C9.80713 3.89075 10.5665 4.2054 11.1378 4.77668C11.7091 5.34797 12.0237 6.10735 12.0237 6.91418C12.0237 7.72102 11.7091 8.4804 11.1378 9.05168C10.5665 9.62297 9.80713 9.93762 9.00029 9.93762Z" fill="#013B5D"/>
</svg>
