<svg width="150" height="150" viewBox="0 0 150 150" fill="none" xmlns="http://www.w3.org/2000/svg">
<path d="M0.5 75.0125C0.5 33.8535 33.8491 0.5 75.0025 0.5C116.146 0.5 149.505 33.8535 149.5 75.0124C149.5 116.151 116.146 149.5 75.0025 149.5C33.849 149.5 0.5 116.156 0.5 75.0125Z" stroke="#FDFDFD" stroke-opacity="0.3"/>
<path d="M99.7393 72.0663L68.5923 49.4219C67.4492 48.5932 65.9318 48.4684 64.679 49.1124C63.4161 49.7514 62.6274 51.0494 62.6274 52.4522V97.726C62.6274 99.1438 63.4161 100.437 64.679 101.076C65.213 101.345 65.7971 101.48 66.3861 101.48C67.1547 101.48 67.9334 101.235 68.5923 100.751L99.7393 78.1268C100.723 77.403 101.297 76.2847 101.297 75.0966C101.302 73.8885 100.713 72.7752 99.7393 72.0663Z" fill="white"/>
</svg>
