<svg width="80" height="80" viewBox="0 0 80 80" fill="none" xmlns="http://www.w3.org/2000/svg">
<g clip-path="url(#clip0)">
<path d="M40.0001 26.0149C47.1722 26.0149 53.0072 20.1799 53.0072 13.0079C53.0072 7.71463 49.845 2.99182 44.9511 0.976355C44.3526 0.730106 43.6676 1.01526 43.4212 1.6137C43.1748 2.21214 43.4601 2.89698 44.0586 3.14354C48.0709 4.79589 50.6634 8.66792 50.6634 13.0079C50.6634 18.8876 45.8798 23.6712 40.0001 23.6712C34.1204 23.6712 29.3369 18.8876 29.3369 13.0079C29.3369 7.12823 34.1204 2.34464 40.0001 2.34464C40.6473 2.34464 41.172 1.81995 41.172 1.17276C41.172 0.525574 40.6473 0.000886917 40.0001 0.000886917C32.8281 0.000886917 26.9931 5.83589 26.9931 13.0079C26.9931 20.1799 32.8281 26.0149 40.0001 26.0149ZM35.8378 13.4428C35.3801 12.9851 34.6381 12.9851 34.1806 13.4428C33.7229 13.9004 33.7229 14.6424 34.1806 15.0999L36.5386 17.4579C36.9803 17.8996 37.5603 18.1204 38.1404 18.1204C38.7206 18.1204 39.3009 17.8995 39.7425 17.4579L45.8197 11.3807C46.2773 10.9231 46.2773 10.181 45.8197 9.72354C45.362 9.26589 44.62 9.26589 44.1625 9.72354L38.1406 15.7456L35.8378 13.4428ZM79.6573 36.7368C79.2 36.279 78.458 36.2785 78 36.736L73.5714 41.1601L55.4245 22.6492L76.0989 2.00198C76.5569 1.54464 76.5573 0.802606 76.1 0.344793C75.6426 -0.113176 74.9006 -0.113801 74.4428 0.343699L49.0545 25.6984C47.8547 26.8968 47.2447 28.5051 47.3492 30.201H45.7833C43.4219 30.201 41.1642 31.2095 39.5895 32.9679L39.3631 33.2209C37.2039 32.1399 34.8298 31.5326 32.4153 31.4467C32.9837 29.406 32.3923 27.1721 30.8728 25.6934L5.23232 0.435106C4.77107 -0.0192693 4.02904 -0.013488 3.57514 0.447606C3.12092 0.908699 3.12639 1.65057 3.58764 2.10479L25.4826 23.6734L9.69764 39.7746C9.24451 40.2368 9.25186 40.9788 9.71404 41.4318C10.1761 41.8846 10.9179 41.8778 11.3712 41.4154L27.1522 25.3181L29.2308 27.3657C29.9062 28.0267 30.2809 28.9109 30.2858 29.8553C30.2906 30.7996 29.9251 31.6878 29.2565 32.3556L15.9222 45.6765C14.5514 47.046 12.3206 47.0462 10.9495 45.6765L2.00014 36.736C1.54232 36.2787 0.800293 36.279 0.342793 36.7368C-0.114551 37.1948 -0.114238 37.9367 0.343574 38.3942L9.29295 47.3345C10.4353 48.4757 11.9353 49.046 13.4358 49.046C13.979 49.046 14.522 48.9701 15.0484 48.8204C15.0778 49.6151 15.164 50.407 15.3053 51.192C14.7742 51.4359 14.2767 51.7757 13.8398 52.2123L11.2673 54.7821C10.3078 55.7406 9.77951 57.0148 9.77951 58.3704C9.77951 59.7262 10.3078 61.0004 11.2673 61.9588C12.3726 63.0615 13.8597 63.5553 15.3259 63.4204C15.1869 64.922 15.719 66.4084 16.7915 67.4776C17.7814 68.4665 19.0815 68.9609 20.3819 68.9609C20.5381 68.9609 20.6944 68.9534 20.85 68.939C20.7109 70.4406 21.2444 71.9259 22.3158 72.9962C23.4201 74.0993 24.9081 74.5923 26.3742 74.4578C26.2351 75.9593 26.7673 77.4457 27.84 78.5151C28.8298 79.504 30.13 79.9984 31.4303 79.9984C32.7304 79.9984 34.0308 79.504 35.0208 78.5151L36.7133 76.8243L38.4058 78.5151C39.3956 79.504 40.6958 79.9984 41.9961 79.9984C43.2964 79.9984 44.5967 79.5038 45.5865 78.5149C46.6559 77.4465 47.1889 75.9567 47.0523 74.4578C48.5239 74.5932 50.0026 74.1032 51.1108 72.9962C52.1803 71.9279 52.7131 70.4379 52.5765 68.939C54.048 69.0743 55.5269 68.5846 56.6351 67.4774C57.7045 66.4092 58.2373 64.9192 58.1008 63.4203C59.5722 63.5556 61.0511 63.0654 62.1592 61.9585C63.1187 61.0001 63.647 59.7259 63.647 58.3702C63.647 57.0145 63.1187 55.7403 62.1594 54.7818L60.7405 53.3643C61.7422 52.6001 62.6581 51.7315 63.4719 50.7678C63.993 50.1506 64.4714 49.4934 64.9028 48.8068C65.4442 48.9657 66.0042 49.0454 66.5642 49.0454C68.0645 49.0454 69.5648 48.4749 70.707 47.3338L79.6564 38.3937C80.1144 37.9367 80.1147 37.1948 79.6573 36.7368ZM16.7917 60.3009C15.7255 61.3663 13.9904 61.3662 12.924 60.3009C12.4079 59.7851 12.1236 59.0996 12.1236 58.3706C12.1236 57.6415 12.4078 56.956 12.924 56.4403L15.4965 53.8704C16.0297 53.3378 16.73 53.0715 17.4303 53.0715C18.1306 53.0715 18.8311 53.3378 19.3642 53.8704C19.8803 54.3862 20.1647 55.0717 20.1647 55.8007C20.1647 56.5298 19.8804 57.2153 19.3642 57.731L16.7917 60.3009ZM18.4481 65.8196C17.932 65.3038 17.6478 64.6184 17.6478 63.8893C17.6478 63.1603 17.932 62.4746 18.4483 61.959L21.0208 59.3892C22.0872 58.3242 23.8223 58.3242 24.8887 59.3892C25.4048 59.9049 25.6892 60.5904 25.6892 61.3195C25.6892 62.0485 25.405 62.734 24.8887 63.2498L22.3162 65.8198C21.2497 66.8848 19.5145 66.8848 18.4481 65.8196ZM23.9723 71.3382C23.4562 70.8224 23.1719 70.137 23.1719 69.4079C23.1719 68.6788 23.4561 67.9934 23.9723 67.4776L26.5448 64.9076C27.0781 64.3749 27.7784 64.1087 28.4787 64.1087C29.179 64.1087 29.8795 64.3751 30.4126 64.9076C30.9289 65.4234 31.2131 66.1088 31.2131 66.8379C31.2131 67.567 30.9289 68.2526 30.4126 68.7682L27.8401 71.3381C26.7739 72.4034 25.0389 72.4034 23.9723 71.3382ZM35.9372 74.2871L33.3647 76.8571C32.2983 77.9221 30.5631 77.9221 29.4967 76.8571V76.857C28.9806 76.3412 28.6962 75.6557 28.6962 74.9267C28.6962 74.1976 28.9804 73.5121 29.4967 72.9963L32.0692 70.4265C32.6023 69.8938 33.3028 69.6276 34.0031 69.6276C34.7034 69.6276 35.4039 69.8938 35.937 70.4265C36.4533 70.9423 36.7375 71.6277 36.7375 72.3568C36.7375 73.0859 36.4533 73.7713 35.9372 74.2871ZM61.3036 58.3706C61.3036 59.0996 61.0194 59.7851 60.5031 60.3009C59.4369 61.3662 57.7017 61.3663 56.6355 60.3009L48.2386 51.9124C47.7808 51.4551 47.0387 51.4553 46.5812 51.9132C46.1239 52.3712 46.1242 53.1132 46.582 53.5704L54.9789 61.9588C55.495 62.4746 55.7794 63.1601 55.7794 63.8892C55.7794 64.6182 55.4951 65.3038 54.9789 65.8195C53.9128 66.8843 52.1781 66.8845 51.1117 65.8199C51.1115 65.8198 51.1114 65.8196 51.1112 65.8195L42.7144 57.4309C42.2565 56.9734 41.5145 56.9738 41.057 57.4317C40.5997 57.8896 40.6 58.6317 41.0578 59.0888L49.4548 67.4774C49.9709 67.9932 50.2553 68.6787 50.2553 69.4077C50.2553 70.137 49.9711 70.8224 49.4548 71.3381C48.3883 72.4032 46.6531 72.4032 45.587 71.3381L37.1901 62.9496C36.7323 62.4921 35.9903 62.4926 35.5328 62.9504C35.0754 63.4084 35.0758 64.1504 35.5336 64.6076L43.9306 72.996C44.4467 73.5118 44.7311 74.1973 44.7311 74.9263C44.7311 75.6556 44.4469 76.3412 43.9306 76.8568C42.864 77.922 41.1289 77.9218 40.0628 76.8568L38.2869 75.0826C38.8036 74.2756 39.0817 73.3376 39.0815 72.3563C39.0815 71.0007 38.5533 69.7265 37.5939 68.7681C36.4851 67.6602 34.9869 67.1732 33.5354 67.3063C33.5495 67.1513 33.5575 66.9952 33.5575 66.8377C33.5575 65.4821 33.0292 64.2078 32.0697 63.2493C30.9609 62.1417 29.4626 61.6548 28.0112 61.7879C28.0253 61.6329 28.0333 61.4767 28.0333 61.3192C28.0333 59.9634 27.505 58.6892 26.5454 57.7307C25.4367 56.6231 23.9384 56.1362 22.487 56.2693C22.5011 56.1143 22.509 55.9581 22.509 55.8006C22.509 54.4448 21.9808 53.1706 21.0214 52.2121C20.0756 51.2671 18.8464 50.7748 17.6047 50.7326C17.4159 49.6667 17.3469 48.5862 17.3989 47.5056C17.4598 47.4496 17.5203 47.3932 17.5794 47.3342L30.9137 34.0134C30.9842 33.9431 31.0525 33.8712 31.1189 33.7981C33.3904 33.687 35.6639 34.1195 37.7326 35.042L30.3228 43.3154C29.0347 44.7539 29.0956 46.9496 30.4617 48.3142C33.0542 50.9042 37.2722 50.9042 39.8645 48.3142L45.2889 42.8953C45.7456 42.439 46.4887 42.439 46.9453 42.8953L58.0978 54.0367L60.5037 56.4401C61.0192 56.956 61.3036 57.6413 61.3036 58.3706ZM61.6814 49.256C60.9098 50.1699 60.0328 50.9867 59.0665 51.6923L48.6011 41.2373C47.2309 39.8688 45.0019 39.8687 43.6317 41.2374L38.2073 46.6563C36.5284 48.3334 33.7965 48.3337 32.1175 46.6563C31.6319 46.1712 31.6101 45.3906 32.0681 44.8793L41.3354 34.5317C42.4662 33.269 44.0873 32.5449 45.7833 32.5449H47.998C48.2711 33.0674 48.6244 33.5514 49.0534 33.9801L62.4214 47.3345C62.5514 47.4643 62.6865 47.5857 62.8253 47.7009C62.4762 48.2431 62.0959 48.7653 61.6814 49.256ZM69.0506 45.6763C67.6798 47.046 65.449 47.046 64.0779 45.6763L50.71 32.3218C50.0461 31.6585 49.6806 30.7768 49.6808 29.8392C49.6809 28.9015 50.0465 28.0198 50.7106 27.3568L53.7661 24.3054L71.9133 42.8165L69.0506 45.6763Z" fill="#013B5D"/>
</g>
<defs>
<clipPath id="clip0">
<rect width="80" height="80" fill="white"/>
</clipPath>
</defs>
</svg>
