<svg width="80" height="80" viewBox="0 0 80 80" fill="none" xmlns="http://www.w3.org/2000/svg">
<path d="M45.4425 57.1275C48.1812 55.3425 50 52.2563 50 48.75C50 43.2363 45.5138 38.75 40 38.75C34.4862 38.75 30 43.2363 30 48.75C30 52.2563 31.8188 55.3425 34.5575 57.1275C27.5662 59.4225 22.5 66.0012 22.5 73.75V78.75H57.5V73.75C57.5 66.0012 52.4338 59.4225 45.4425 57.1275ZM46.9825 71.25L41.9825 76.25H41.73L46.9438 60.4663C47.8388 60.9363 48.6825 61.4888 49.46 62.1225L48.8625 65.5075L44.2887 68.5563L46.9825 71.25ZM31.1387 65.5062L30.5413 62.1212C31.3188 61.4875 32.1625 60.935 33.0575 60.465L38.2713 76.25H38.0188L33.0188 71.25L35.7137 68.5563L31.1387 65.5062ZM32.5 48.75C32.5 44.6137 35.8638 41.25 40 41.25C44.1362 41.25 47.5 44.6137 47.5 48.75C47.5 52.8862 44.1362 56.25 40 56.25C35.8638 56.25 32.5 52.8862 32.5 48.75ZM44.6325 59.49L40 73.5138L35.3687 59.49C36.8287 59.015 38.3837 58.75 40 58.75C41.6175 58.75 43.1713 59.015 44.6325 59.49ZM25 73.75C25 70.16 26.2712 66.8625 28.3825 64.2775L28.8613 66.9938L31.7875 68.945L29.4825 71.25L34.4825 76.25H25V73.75ZM55 76.25H45.5175L50.5175 71.25L48.2125 68.9437L51.1387 66.9925L51.6175 64.2763C53.7287 66.8625 55 70.16 55 73.75V76.25Z" fill="#013B5D"/>
<path d="M33.7501 36.25H46.2501V21.25H52.3363L40.0001 2.74628L27.6638 21.25H33.7501V36.25ZM32.3363 18.75L40.0001 7.25378L47.6638 18.75H43.7501V33.75H36.2501V18.75H32.3363Z" fill="#013B5D"/>
<path d="M3.40649 18.4062L7.71774 39.965L11.954 35.7287L22.5865 46.785L31.784 37.5875L20.7277 26.955L24.964 22.7187L3.40649 18.4062ZM28.2152 37.6225L22.6227 43.215L11.9902 32.1587L9.25399 34.8937L6.59399 21.5937L19.8952 24.2537L17.1602 26.99L28.2152 37.6225Z" fill="#013B5D"/>
<path d="M48.2148 37.5875L57.4123 46.785L68.0448 35.7287L72.2811 39.965L76.5923 18.4062L55.0336 22.7175L59.2698 26.9537L48.2148 37.5875ZM73.4061 21.5937L70.7461 34.895L68.0098 32.16L57.3773 43.2162L51.7848 37.6237L62.8411 26.9912L60.1061 24.255L73.4061 21.5937Z" fill="#013B5D"/>
<path d="M5 8.75C7.0675 8.75 8.75 7.0675 8.75 5C8.75 2.9325 7.0675 1.25 5 1.25C2.9325 1.25 1.25 2.9325 1.25 5C1.25 7.0675 2.9325 8.75 5 8.75ZM5 3.75C5.68875 3.75 6.25 4.31125 6.25 5C6.25 5.68875 5.68875 6.25 5 6.25C4.31125 6.25 3.75 5.68875 3.75 5C3.75 4.31125 4.31125 3.75 5 3.75Z" fill="#013B5D"/>
<path d="M14.9336 16.7051L16.7014 14.9373L18.3807 16.6167L16.613 18.3845L14.9336 16.7051Z" fill="#013B5D"/>
<path d="M7.86475 9.63373L9.63251 7.86596L11.4003 9.63373L9.63251 11.4015L7.86475 9.63373Z" fill="#013B5D"/>
<path d="M11.3997 13.17L13.1674 11.4022L14.9352 13.17L13.1674 14.9378L11.3997 13.17Z" fill="#013B5D"/>
<path d="M5 71.25C2.9325 71.25 1.25 72.9325 1.25 75C1.25 77.0675 2.9325 78.75 5 78.75C7.0675 78.75 8.75 77.0675 8.75 75C8.75 72.9325 7.0675 71.25 5 71.25ZM5 76.25C4.31125 76.25 3.75 75.6887 3.75 75C3.75 74.3112 4.31125 73.75 5 73.75C5.68875 73.75 6.25 74.3112 6.25 75C6.25 75.6887 5.68875 76.25 5 76.25Z" fill="#013B5D"/>
<path d="M14.929 63.2902L16.6083 61.6108L18.3761 63.3785L16.6967 65.0579L14.929 63.2902Z" fill="#013B5D"/>
<path d="M7.85742 70.3604L9.62519 68.5926L11.393 70.3604L9.62519 72.1281L7.85742 70.3604Z" fill="#013B5D"/>
<path d="M11.3938 66.8239L13.1616 65.0561L14.9293 66.8239L13.1616 68.5916L11.3938 66.8239Z" fill="#013B5D"/>
<path d="M75 71.25C72.9325 71.25 71.25 72.9325 71.25 75C71.25 77.0675 72.9325 78.75 75 78.75C77.0675 78.75 78.75 77.0675 78.75 75C78.75 72.9325 77.0675 71.25 75 71.25ZM75 76.25C74.3112 76.25 73.75 75.6887 73.75 75C73.75 74.3112 74.3112 73.75 75 73.75C75.6887 73.75 76.25 74.3112 76.25 75C76.25 75.6887 75.6887 76.25 75 76.25Z" fill="#013B5D"/>
<path d="M68.584 70.3663L70.3518 68.5985L72.1195 70.3663L70.3518 72.134L68.584 70.3663Z" fill="#013B5D"/>
<path d="M61.6033 63.3842L63.371 61.6164L65.0504 63.2958L63.2826 65.0636L61.6033 63.3842Z" fill="#013B5D"/>
<path d="M65.0476 66.83L66.8154 65.0623L68.5831 66.83L66.8154 68.5978L65.0476 66.83Z" fill="#013B5D"/>
<path d="M75 8.75C77.0675 8.75 78.75 7.0675 78.75 5C78.75 2.9325 77.0675 1.25 75 1.25C72.9325 1.25 71.25 2.9325 71.25 5C71.25 7.0675 72.9325 8.75 75 8.75ZM75 3.75C75.6887 3.75 76.25 4.31125 76.25 5C76.25 5.68875 75.6887 6.25 75 6.25C74.3112 6.25 73.75 5.68875 73.75 5C73.75 4.31125 74.3112 3.75 75 3.75Z" fill="#013B5D"/>
<path d="M65.0549 13.1761L66.8227 11.4084L68.5905 13.1761L66.8227 14.9439L65.0549 13.1761Z" fill="#013B5D"/>
<path d="M68.5898 9.64087L70.3576 7.8731L72.1254 9.64087L70.3576 11.4086L68.5898 9.64087Z" fill="#013B5D"/>
<path d="M61.6077 16.6205L63.287 14.9412L65.0548 16.7089L63.3754 18.3883L61.6077 16.6205Z" fill="#013B5D"/>
<path d="M75 47.5C72.9325 47.5 71.25 49.1825 71.25 51.25C71.25 53.3175 72.9325 55 75 55C77.0675 55 78.75 53.3175 78.75 51.25C78.75 49.1825 77.0675 47.5 75 47.5ZM75 52.5C74.3112 52.5 73.75 51.9387 73.75 51.25C73.75 50.5612 74.3112 50 75 50C75.6887 50 76.25 50.5612 76.25 51.25C76.25 51.9387 75.6887 52.5 75 52.5Z" fill="#013B5D"/>
<path d="M66.25 50H68.75V52.5H66.25V50Z" fill="#013B5D"/>
<path d="M56.25 50H58.75V52.5H56.25V50Z" fill="#013B5D"/>
<path d="M61.25 50H63.75V52.5H61.25V50Z" fill="#013B5D"/>
<path d="M5 55C7.0675 55 8.75 53.3175 8.75 51.25C8.75 49.1825 7.0675 47.5 5 47.5C2.9325 47.5 1.25 49.1825 1.25 51.25C1.25 53.3175 2.9325 55 5 55ZM5 50C5.68875 50 6.25 50.5612 6.25 51.25C6.25 51.9387 5.68875 52.5 5 52.5C4.31125 52.5 3.75 51.9387 3.75 51.25C3.75 50.5612 4.31125 50 5 50Z" fill="#013B5D"/>
<path d="M16.25 50H18.75V52.5H16.25V50Z" fill="#013B5D"/>
<path d="M11.25 50H13.75V52.5H11.25V50Z" fill="#013B5D"/>
<path d="M21.25 50H23.75V52.5H21.25V50Z" fill="#013B5D"/>
</svg>
