<svg width="80" height="80" viewBox="0 0 80 80" fill="none" xmlns="http://www.w3.org/2000/svg">
<g clip-path="url(#clip0)">
<path d="M61.3315 14.6697C61.3313 14.6697 61.331 14.6697 61.3308 14.6697C59.1229 14.6674 57.3336 12.8781 57.3313 10.6702C57.3313 9.93396 56.7344 9.33704 55.9981 9.33704C55.2619 9.33704 54.665 9.93396 54.665 10.6702C54.6626 12.8781 52.8733 14.6674 50.6654 14.6697C49.9292 14.6697 49.3323 15.2667 49.3323 16.0029C49.3323 16.7391 49.9292 17.3361 50.6654 17.3361C52.8733 17.3384 54.6626 19.1277 54.665 21.3356C54.665 22.0718 55.2619 22.6688 55.9981 22.6688C56.7344 22.6688 57.3313 22.0718 57.3313 21.3356C57.3336 19.1277 59.1229 17.3384 61.3308 17.3361C62.0669 17.3362 62.6638 16.7396 62.664 16.0036C62.664 16.0034 62.664 16.0031 62.664 16.0029C62.6642 15.2668 62.0676 14.6699 61.3315 14.6697ZM55.9981 17.3401C55.6177 16.8336 55.1676 16.3835 54.6611 16.0031C55.1676 15.6226 55.6177 15.1725 55.9981 14.6661C56.3786 15.1725 56.8287 15.6226 57.3351 16.0031C56.8287 16.3834 56.3786 16.8336 55.9981 17.3401Z" fill="#013B5D"/>
<path d="M29.3347 14.6697C27.1268 14.6674 25.3376 12.8781 25.3352 10.6702C25.3352 9.93396 24.7383 9.33704 24.002 9.33704C23.2658 9.33704 22.6689 9.93396 22.6689 10.6702C22.6665 12.8781 20.8773 14.6674 18.6694 14.6697C17.9331 14.6697 17.3362 15.2667 17.3362 16.0029C17.3362 16.7391 17.9331 17.3361 18.6694 17.3361C20.8773 17.3384 22.6665 19.1277 22.6689 21.3356C22.6689 22.0718 23.2658 22.6688 24.002 22.6688C24.7383 22.6688 25.3352 22.0718 25.3352 21.3356C25.3376 19.1277 27.1268 17.3384 29.3347 17.3361C30.071 17.3361 30.6679 16.7391 30.6679 16.0029C30.6679 15.2667 30.071 14.6697 29.3347 14.6697ZM24.002 17.3401C23.6216 16.8336 23.1715 16.3835 22.665 16.0031C23.1715 15.6226 23.6216 15.1725 24.002 14.6661C24.3825 15.1725 24.8326 15.6226 25.3391 16.0031C24.8326 16.3834 24.3825 16.8336 24.002 17.3401Z" fill="#013B5D"/>
<path d="M45.3328 5.33751C43.1249 5.33518 41.3356 3.54589 41.3333 1.33799C41.3334 0.601916 40.7368 0.00498846 40.0007 0.00482181C40.0006 0.00482181 40.0002 0.00482181 40.0001 0.00482181C39.264 0.00465517 38.6671 0.60125 38.6669 1.33733C38.6669 1.33749 38.6669 1.33783 38.6669 1.33799C38.6646 3.54589 36.8753 5.33518 34.6674 5.33751C33.9312 5.33751 33.3342 5.93444 33.3342 6.67068C33.3342 7.40693 33.9312 8.00385 34.6674 8.00385C36.8753 8.00619 38.6646 9.79547 38.6669 12.0034C38.6669 12.7396 39.2638 13.3365 40.0001 13.3365C40.7363 13.3365 41.3333 12.7396 41.3333 12.0034C41.3356 9.79547 43.1249 8.00619 45.3328 8.00385C46.069 8.00385 46.6659 7.40693 46.6659 6.67068C46.6659 5.93444 46.069 5.33751 45.3328 5.33751ZM40.0001 8.00785C39.6196 7.50142 39.1695 7.0513 38.6631 6.67085C39.1695 6.29039 39.6196 5.84028 40.0001 5.33384C40.3805 5.84028 40.8306 6.29039 41.3371 6.67085C40.8306 7.05114 40.3805 7.50142 40.0001 8.00785Z" fill="#013B5D"/>
<path d="M40.0002 20.0024C28.2196 20.0024 18.6694 29.5526 18.6694 41.3332C18.6694 53.1137 28.2196 62.6639 40.0002 62.6639C51.7753 62.6504 61.3174 53.1082 61.3309 41.3332C61.3309 29.5526 51.7808 20.0024 40.0002 20.0024ZM40.0002 59.9976C29.6921 59.9976 21.3358 51.6413 21.3358 41.3332C21.3358 31.0251 29.6921 22.6688 40.0002 22.6688C50.3083 22.6688 58.6646 31.0251 58.6646 41.3332C58.6529 51.6364 50.3034 59.9861 40.0002 59.9976Z" fill="#013B5D"/>
<path d="M26.6685 40H29.3348C29.3415 34.1125 34.1127 29.3413 40.0002 29.3346V26.6683C32.6407 26.6768 26.6768 32.6406 26.6685 40Z" fill="#013B5D"/>
<path d="M79.9953 61.9935L79.9732 38.4397C79.9693 34.769 77.6869 32.001 74.6626 32.001H74.4075C71.464 32.1583 69.1036 34.4925 68.9133 37.434L65.6351 54.3043C64.5157 54.1375 63.375 54.4086 62.4506 55.0614L52.3893 62.1373C51.3093 62.8991 50.6664 64.1381 50.6655 65.4598V78.662C50.6654 79.3981 51.262 79.995 51.998 79.9952C51.9982 79.9952 51.9985 79.9952 51.9987 79.9952H65.3304C66.0665 79.9954 66.6634 79.3988 66.6636 78.6627C66.6636 78.6625 66.6636 78.6622 66.6636 78.662V76.9754L75.4412 71.3869C78.404 69.189 80.1046 65.6809 79.9953 61.9935ZM73.9817 69.1553L64.6143 75.1188C64.2301 75.3637 63.9974 75.7879 63.9973 76.2436V77.3288H53.3319V65.4598C53.332 65.0053 53.553 64.5794 53.9243 64.3172L63.9843 57.2419C64.77 56.6895 65.8547 56.8788 66.4071 57.6645C66.6129 57.9573 66.7234 58.3065 66.7234 58.6643C66.7299 59.0882 66.5781 59.4992 66.2976 59.8171L57.8052 66.9771L59.5236 69.0158L68.0994 61.7797C69.8167 60.0623 69.8202 57.2789 68.1073 55.5571L71.5443 37.8523C71.5832 36.23 72.7984 34.8781 74.4073 34.6672H74.6625C76.1675 34.6672 77.3041 36.29 77.3066 38.442L77.3288 61.9945C77.4423 64.7837 76.1941 67.4537 73.9817 69.1553Z" fill="#013B5D"/>
<path d="M27.6094 62.1367L17.5495 55.0614C16.6248 54.4089 15.4844 54.1378 14.365 54.3043L11.1011 37.5245C10.9376 34.55 8.56656 32.1726 5.59259 32.001H5.33745C2.31315 32.001 0.0307602 34.7688 0.0269273 38.4397L0.00476334 61.9949C-0.102557 65.6929 1.60907 69.2088 4.58621 71.4052L13.3365 76.9756V78.6622C13.3363 79.3983 13.9329 79.9952 14.669 79.9953C14.6692 79.9953 14.6695 79.9953 14.6697 79.9953H28.0014C28.7375 79.9955 29.3344 79.3989 29.3346 78.6628C29.3346 78.6627 29.3346 78.6623 29.3346 78.6622V65.4599C29.3336 64.1376 28.6903 62.8984 27.6094 62.1367ZM26.6682 77.3288H16.0028V76.2436C16.0027 75.7879 15.77 75.3637 15.3857 75.1188L6.0457 69.1735C3.81864 67.4735 2.55945 64.7954 2.67111 61.996L2.69327 38.4422C2.69594 36.2901 3.83247 34.6673 5.33745 34.6673H5.59259C7.23072 34.8956 8.45474 36.289 8.46991 37.9429L11.8927 55.5573C10.1797 57.2791 10.1832 60.0624 11.9005 61.7799C11.9495 61.8285 12.0021 61.8734 12.058 61.914L21.8836 69.074L23.4538 66.9193L13.7231 59.829C13.0802 59.1152 13.1375 58.0155 13.8511 57.3726C14.4538 56.8295 15.3521 56.7753 16.0158 57.2421L26.0744 64.3167C26.4464 64.5785 26.6679 65.005 26.6682 65.4598V77.3288Z" fill="#013B5D"/>
</g>
<defs>
<clipPath id="clip0">
<rect width="80" height="80" fill="white"/>
</clipPath>
</defs>
</svg>
