<svg width="80" height="80" viewBox="0 0 80 80" fill="none" xmlns="http://www.w3.org/2000/svg">
<path d="M42.68 45.6775L45.1337 41.545L38.455 34.8662L34.3225 37.32C33.2375 36.7475 32.0938 36.275 30.91 35.91L29.7213 31.25H20.2775L19.09 35.9113C17.9062 36.2762 16.7625 36.7488 15.6775 37.3213L11.545 34.8675L4.86625 41.5462L7.32 45.6787C6.7475 46.7637 6.275 47.9075 5.91 49.0912L1.25 50.2787V59.7225L5.91125 60.91C6.27625 62.0938 6.74875 63.2375 7.32125 64.3225L4.8675 68.455L11.5463 75.1337L15.6788 72.68C16.7638 73.2525 17.9075 73.725 19.0912 74.09L20.2787 78.75H29.7225L30.91 74.0887C32.0938 73.7238 33.2375 73.2513 34.3225 72.6788L38.455 75.1325L45.1337 68.4538L42.68 64.3213C43.2525 63.2363 43.725 62.0925 44.09 60.9088L48.75 59.7213V50.2775L44.0887 49.09C43.7238 47.9062 43.2525 46.7625 42.68 45.6775ZM46.25 57.7787L42.07 58.845L41.88 59.55C41.485 61.0212 40.905 62.425 40.1562 63.7213L39.7913 64.355L41.9912 68.0625L38.0612 71.9925L34.3537 69.7925L33.72 70.1575C32.4237 70.9062 31.02 71.485 29.5487 71.8813L28.8438 72.0713L27.7787 76.25H22.2225L21.1562 72.07L20.4513 71.88C18.98 71.485 17.5763 70.905 16.28 70.1562L15.6462 69.7913L11.9387 71.9912L8.00875 68.0613L10.2087 64.3538L9.84375 63.72C9.095 62.4238 8.51625 61.02 8.12 59.5487L7.93 58.8438L3.75 57.7787V52.2225L7.93 51.1562L8.12 50.4513C8.515 48.98 9.095 47.5762 9.84375 46.28L10.2087 45.6462L8.00875 41.9387L11.9387 38.0087L15.6462 40.2087L16.28 39.8438C17.5763 39.095 18.98 38.5163 20.4513 38.12L21.1562 37.93L22.2213 33.75H27.7775L28.8438 37.93L29.5487 38.12C31.02 38.515 32.4237 39.095 33.72 39.8438L34.3537 40.2087L38.0612 38.0087L41.9912 41.9387L39.7913 45.6462L40.1562 46.28C40.905 47.5762 41.4838 48.98 41.88 50.4513L42.07 51.1562L46.25 52.2213V57.7787Z" fill="#013B5D"/>
<path d="M25 40C16.7287 40 10 46.7287 10 55C10 63.2712 16.7287 70 25 70C33.2712 70 40 63.2712 40 55C40 46.7287 33.2712 40 25 40ZM25 67.5C18.1075 67.5 12.5 61.8925 12.5 55C12.5 48.1075 18.1075 42.5 25 42.5C31.8925 42.5 37.5 48.1075 37.5 55C37.5 61.8925 31.8925 67.5 25 67.5Z" fill="#013B5D"/>
<path d="M25 47.5C20.8637 47.5 17.5 50.8637 17.5 55C17.5 59.1362 20.8637 62.5 25 62.5C29.1362 62.5 32.5 59.1362 32.5 55C32.5 50.8637 29.1362 47.5 25 47.5ZM25 60C22.2425 60 20 57.7575 20 55C20 52.2425 22.2425 50 25 50C27.7575 50 30 52.2425 30 55C30 57.7575 27.7575 60 25 60Z" fill="#013B5D"/>
<path d="M75 11.25H45C42.9325 11.25 41.25 12.9325 41.25 15V32.5C41.25 34.5675 42.9325 36.25 45 36.25H47.5V42.0225L59.045 36.25H75C77.0675 36.25 78.75 34.5675 78.75 32.5V15C78.75 12.9325 77.0675 11.25 75 11.25ZM76.25 32.5C76.25 33.19 75.69 33.75 75 33.75H58.455L50 37.9775V33.75H45C44.31 33.75 43.75 33.19 43.75 32.5V15C43.75 14.31 44.31 13.75 45 13.75H75C75.69 13.75 76.25 14.31 76.25 15V32.5Z" fill="#013B5D"/>
<path d="M5 23.75H17.1537L25 28.4587V23.75H35C37.0675 23.75 38.75 22.0675 38.75 20V5C38.75 2.9325 37.0675 1.25 35 1.25H5C2.9325 1.25 1.25 2.9325 1.25 5V20C1.25 22.0675 2.9325 23.75 5 23.75ZM3.75 5C3.75 4.31 4.31 3.75 5 3.75H35C35.69 3.75 36.25 4.31 36.25 5V20C36.25 20.69 35.69 21.25 35 21.25H22.5V24.0412L17.8463 21.25H5C4.31 21.25 3.75 20.69 3.75 20V5Z" fill="#013B5D"/>
<path d="M71.25 28.75H68.75V18.75H66.25V28.75H63.75V16.25H61.25V28.75H58.75V21.25H56.25V28.75H53.75V23.75H51.25V28.75H48.75V31.25H73.75V16.25H71.25V28.75Z" fill="#013B5D"/>
<path d="M10 16.25C12.0675 16.25 13.75 14.5675 13.75 12.5C13.75 10.4325 12.0675 8.75 10 8.75C7.9325 8.75 6.25 10.4325 6.25 12.5C6.25 14.5675 7.9325 16.25 10 16.25ZM10 11.25C10.69 11.25 11.25 11.81 11.25 12.5C11.25 13.19 10.69 13.75 10 13.75C9.31 13.75 8.75 13.19 8.75 12.5C8.75 11.81 9.31 11.25 10 11.25Z" fill="#013B5D"/>
<path d="M20 16.25C22.0675 16.25 23.75 14.5675 23.75 12.5C23.75 10.4325 22.0675 8.75 20 8.75C17.9325 8.75 16.25 10.4325 16.25 12.5C16.25 14.5675 17.9325 16.25 20 16.25ZM20 11.25C20.69 11.25 21.25 11.81 21.25 12.5C21.25 13.19 20.69 13.75 20 13.75C19.31 13.75 18.75 13.19 18.75 12.5C18.75 11.81 19.31 11.25 20 11.25Z" fill="#013B5D"/>
<path d="M30 16.25C32.0675 16.25 33.75 14.5675 33.75 12.5C33.75 10.4325 32.0675 8.75 30 8.75C27.9325 8.75 26.25 10.4325 26.25 12.5C26.25 14.5675 27.9325 16.25 30 16.25ZM30 11.25C30.69 11.25 31.25 11.81 31.25 12.5C31.25 13.19 30.69 13.75 30 13.75C29.31 13.75 28.75 13.19 28.75 12.5C28.75 11.81 29.31 11.25 30 11.25Z" fill="#013B5D"/>
<path d="M65 51.25C62.555 51.25 60.1613 51.905 58.0463 53.15L50.5088 52.255L53.0438 58.23C51.8675 60.3 51.25 62.6263 51.25 65C51.25 72.5812 57.4188 78.75 65 78.75C72.5813 78.75 78.75 72.5812 78.75 65C78.75 57.4187 72.5813 51.25 65 51.25ZM57.9438 73.75H72.055C70.1238 75.31 67.67 76.25 64.9988 76.25C62.3275 76.25 59.8763 75.31 57.9438 73.75ZM63.3375 65.5988C62.7975 65.1125 62.5 64.455 62.5 63.75V61.4625C62.5 60.0362 63.5613 58.8225 64.8638 58.7537C65.5488 58.7137 66.2188 58.9587 66.7213 59.4375C67.2225 59.915 67.5 60.5575 67.5 61.25V63.75C67.5 64.455 67.2025 65.1125 66.6625 65.5988L66.25 65.9713V68.2725L69.705 70C70.2613 70.2775 70.6938 70.7188 70.9588 71.25H59.0425C59.3075 70.7188 59.7413 70.2775 60.2963 70L63.75 68.2725V65.9713L63.3375 65.5988ZM73.7213 72.0938C73.5813 70.2412 72.505 68.605 70.8225 67.7637L68.9313 66.8188C69.6175 65.9438 70 64.8625 70 63.75V61.25C70 59.885 69.4325 58.5637 68.4425 57.6237C67.4375 56.6712 66.1375 56.2063 64.7325 56.2563C62.0788 56.395 60 58.6825 60 61.4625V63.75C60 64.8625 60.3825 65.9438 61.0675 66.8188L59.1763 67.7637C57.4938 68.605 56.4175 70.2412 56.2775 72.0938C54.7 70.1562 53.75 67.6875 53.75 65C53.75 62.88 54.3538 60.8037 55.4975 58.9962L55.8475 58.4425L54.4913 55.245L58.62 55.7363L58.9963 55.4987C60.8038 54.3537 62.88 53.75 65 53.75C71.2038 53.75 76.25 58.7963 76.25 65C76.25 67.6875 75.3 70.1562 73.7213 72.0938Z" fill="#013B5D"/>
</svg>
