<svg width="20" height="20" viewBox="0 0 20 20" fill="none" xmlns="http://www.w3.org/2000/svg">
<path d="M19.7997 5.75961C19.7997 5.69282 19.5993 4.22373 18.965 3.52256C18.197 2.68785 17.3623 2.58768 16.9282 2.55427H16.7947C14.0902 2.35393 10.0501 2.32056 9.98335 2.32056C9.94998 2.32056 5.87651 2.35393 3.20538 2.62106H3.10521C2.63771 2.65443 1.803 2.7546 1.06846 3.58931C0.400667 4.29048 0.200334 5.79298 0.200334 5.85977C0.200334 5.85977 0 7.56261 0 9.26545V10.8347C0 12.5042 0.200334 14.207 0.200334 14.2404C0.200334 14.3072 0.400667 15.7763 1.03504 16.4775C1.73621 17.2788 2.57092 17.379 3.10517 17.4458C3.20534 17.4458 3.27213 17.4458 3.3723 17.4791C4.90818 17.6127 9.78298 17.6795 9.98331 17.6795C10.0167 17.6795 14.0902 17.6795 16.7947 17.379H16.8948C17.3623 17.3456 18.197 17.2454 18.9315 16.4107C19.5993 15.7095 19.7997 14.207 19.7997 14.1402C19.7997 14.1402 20 12.4374 20 10.7345V9.16528C20 7.49582 19.7997 5.79298 19.7997 5.75961ZM19.3322 10.8013C19.3322 12.4708 19.1319 14.1402 19.1319 14.1402C19.0651 14.5075 18.8647 15.5759 18.4307 16.0434C17.8631 16.7112 17.1953 16.7779 16.828 16.8113H16.7279C14.0567 17.0117 10.0167 17.0117 9.98331 17.0117C9.94994 17.0117 4.94159 16.9449 3.47247 16.778C3.3723 16.778 3.27213 16.7446 3.17196 16.7446C2.70451 16.7112 2.03675 16.611 1.5025 16.01C1.10184 15.576 0.868126 14.5075 0.834711 14.1402C0.834711 14.1069 0.634377 12.4374 0.634377 10.8014V9.23207C0.634377 7.56261 0.834711 5.89319 0.834711 5.89319C0.868087 5.5259 1.10184 4.45748 1.5025 3.99002C2.1035 3.32223 2.73788 3.25543 3.13855 3.22206H3.23872C5.90985 3.02172 9.9499 2.98835 9.98327 2.98835C10.0166 2.98835 14.0567 3.02172 16.7278 3.22206H16.8614C17.2287 3.25543 17.8964 3.32223 18.464 3.99002C18.8647 4.45748 19.065 5.5259 19.1318 5.89319C19.1652 5.95998 19.3322 7.6294 19.3322 9.23207L19.3322 10.8013Z" fill="#333333"/>
<path fill-rule="evenodd" clip-rule="evenodd" d="M19.3322 10.8013C19.3322 12.4708 19.1319 14.1402 19.1319 14.1402C19.0651 14.5075 18.8647 15.5759 18.4307 16.0434C17.8631 16.7112 17.1953 16.7779 16.828 16.8113H16.7279C14.0567 17.0117 10.0167 17.0117 9.98331 17.0117C9.94994 17.0117 4.94159 16.9449 3.47247 16.778C3.3723 16.778 3.27213 16.7446 3.17196 16.7446C2.70451 16.7112 2.03675 16.611 1.5025 16.01C1.10184 15.576 0.868126 14.5075 0.834711 14.1402C0.834711 14.1069 0.634377 12.4374 0.634377 10.8014V9.23207C0.634377 7.56261 0.834711 5.89319 0.834711 5.89319C0.868087 5.5259 1.10184 4.45748 1.5025 3.99002C2.1035 3.32223 2.73788 3.25543 3.13855 3.22206H3.23872C5.90985 3.02172 9.9499 2.98835 9.98327 2.98835C10.0166 2.98835 14.0567 3.02172 16.7278 3.22206H16.8614C17.2287 3.25543 17.8964 3.32223 18.464 3.99002C18.8647 4.45748 19.065 5.5259 19.1318 5.89319C19.1652 5.95998 19.3322 7.6294 19.3322 9.23207L19.3322 10.8013ZM7.81316 6.32723L14.157 10.0334C14.2572 10.1002 14.324 10.2004 14.324 10.3339C14.324 10.4674 14.2573 10.5676 14.1571 10.6344L7.8132 14.1736C7.74641 14.207 7.71303 14.207 7.64624 14.207C7.57945 14.207 7.54607 14.207 7.47928 14.1736C7.37912 14.1068 7.31233 14.0067 7.31233 13.8731V6.62773C7.31233 6.49419 7.37912 6.39402 7.47928 6.32723C7.57945 6.26044 7.71299 6.26044 7.81316 6.32723Z" fill="#333333"/>
</svg>
