<svg width="32" height="32" viewBox="0 0 32 32" fill="none" xmlns="http://www.w3.org/2000/svg">
<path d="M31.6795 10.0782C31.6795 9.97958 31.3589 7.81028 30.3439 6.77491C29.1152 5.54235 27.7797 5.39444 27.0852 5.3451H26.8715C22.5443 5.04928 16.0802 5 15.9734 5C15.92 5 9.40242 5.04928 5.12861 5.44373H4.96834C4.22034 5.49301 2.88481 5.64092 1.70954 6.87348C0.641068 7.90885 0.320534 10.1275 0.320534 10.2261C0.320534 10.2261 0 12.7406 0 15.255V17.5723C0 20.0375 0.320534 22.552 0.320534 22.6012C0.320534 22.6999 0.641068 24.8692 1.65607 25.9045C2.77794 27.0878 4.11348 27.2357 4.96828 27.3343C5.12854 27.3343 5.23541 27.3343 5.39568 27.3836C7.85308 27.5808 15.6528 27.6794 15.9733 27.6794C16.0267 27.6794 22.5442 27.6794 26.8715 27.2357H27.0317C27.7797 27.1864 29.1152 27.0385 30.2905 25.8059C31.3589 24.7705 31.6795 22.5519 31.6795 22.4533C31.6795 22.4533 32 19.9388 32 17.4243V15.1071C32 12.642 31.6795 10.1275 31.6795 10.0782ZM30.9315 17.523C30.9315 19.9881 30.611 22.4533 30.611 22.4533C30.5041 22.9956 30.1836 24.5733 29.4891 25.2635C28.5809 26.2496 27.5125 26.3482 26.9249 26.3975H26.7646C22.4908 26.6934 16.0267 26.6934 15.9733 26.6934C15.9199 26.6934 7.90655 26.5947 5.55594 26.3483C5.39568 26.3483 5.23541 26.299 5.07514 26.299C4.32721 26.2497 3.2588 26.1018 2.40401 25.2143C1.76294 24.5734 1.389 22.9957 1.33554 22.4533C1.33554 22.404 1.015 19.9389 1.015 17.523V15.2058C1.015 12.7406 1.33554 10.2755 1.33554 10.2755C1.38894 9.73311 1.76294 8.15544 2.40401 7.46518C3.36561 6.4791 4.38061 6.38047 5.02168 6.33119H5.18195C9.45575 6.03537 15.9198 5.98608 15.9732 5.98608C16.0266 5.98608 22.4908 6.03537 26.7645 6.33119H26.9782C27.5659 6.38047 28.6343 6.4791 29.5425 7.46518C30.1835 8.15544 30.5041 9.73311 30.6109 10.2755C30.6643 10.3741 30.9315 12.8392 30.9315 15.2058L30.9315 17.523Z" fill="#333333"/>
<path fill-rule="evenodd" clip-rule="evenodd" d="M30.9315 17.523C30.9315 19.9881 30.611 22.4533 30.611 22.4533C30.5041 22.9956 30.1836 24.5733 29.4891 25.2635C28.5809 26.2496 27.5125 26.3482 26.9249 26.3975H26.7646C22.4908 26.6934 16.0267 26.6934 15.9733 26.6934C15.9199 26.6934 7.90655 26.5947 5.55594 26.3483C5.39568 26.3483 5.23541 26.299 5.07514 26.299C4.32721 26.2497 3.2588 26.1018 2.40401 25.2143C1.76294 24.5734 1.389 22.9957 1.33554 22.4533C1.33554 22.404 1.015 19.9389 1.015 17.523V15.2058C1.015 12.7406 1.33554 10.2755 1.33554 10.2755C1.38894 9.73311 1.76294 8.15544 2.40401 7.46518C3.36561 6.4791 4.38061 6.38047 5.02168 6.33119H5.18195C9.45575 6.03537 15.9198 5.98608 15.9732 5.98608C16.0266 5.98608 22.4908 6.03537 26.7645 6.33119H26.9782C27.5659 6.38047 28.6343 6.4791 29.5425 7.46518C30.1835 8.15544 30.5041 9.73311 30.6109 10.2755C30.6643 10.3741 30.9315 12.8392 30.9315 15.2058L30.9315 17.523ZM12.5011 10.9164L22.6513 16.389C22.8115 16.4876 22.9185 16.6356 22.9185 16.8328C22.9185 17.03 22.8116 17.1779 22.6513 17.2765L12.5011 22.5026C12.3943 22.5519 12.3409 22.5519 12.234 22.5519C12.1271 22.5519 12.0737 22.5519 11.9669 22.5026C11.8066 22.404 11.6997 22.2561 11.6997 22.0589V11.3601C11.6997 11.1629 11.8066 11.015 11.9669 10.9164C12.1271 10.8178 12.3408 10.8178 12.5011 10.9164Z" fill="#333333"/>
</svg>
