<svg width="207" height="49" viewBox="0 0 207 49" fill="none" xmlns="http://www.w3.org/2000/svg">
<g clip-path="url(#clip0)">
<path fill-rule="evenodd" clip-rule="evenodd" d="M57.8531 13.9301C57.5986 11.6479 56.8689 9.44445 55.7112 7.46139C54.5535 5.47832 52.9933 3.75966 51.1311 2.4161C48.8977 0.835019 46.2265 -0.00959725 43.4901 8.22761e-05C37.3721 8.22761e-05 31.8511 3.96207 29.0041 6.43307C26.0641 3.86507 20.6351 8.22761e-05 14.5901 8.22761e-05C11.8403 -0.00605024 9.15517 0.83395 6.8991 2.40609C5.03702 3.72881 3.47428 5.4287 2.31252 7.39522C1.15076 9.36175 0.41602 11.5509 0.156098 13.8201C-0.643902 19.9831 1.6061 26.5081 6.5041 32.1921C12.4721 39.1185 19.7824 44.7631 27.9931 48.7851C28.3141 48.9275 28.6614 49.0012 29.0126 49.0012C29.3638 49.0012 29.7111 48.9275 30.0321 48.7851C38.2376 44.7603 45.5434 39.116 51.5091 32.1921C56.3751 26.5441 58.6281 20.0581 57.8531 13.9301ZM47.7001 28.9101C42.4338 34.9474 36.0966 39.959 29.0081 43.6921C21.9123 39.9666 15.5712 34.954 10.3081 28.9101C6.3561 24.3241 4.5191 19.1951 5.1361 14.4691C5.30514 12.9009 5.80201 11.3857 6.59449 10.022C7.38696 8.65825 8.45732 7.47638 9.7361 6.55306C11.1558 5.55121 12.8525 5.01712 14.5901 5.02511C20.4431 5.02511 26.1251 10.5341 27.2051 11.6381C27.4396 11.8777 27.7196 12.0681 28.0287 12.1979C28.3379 12.3277 28.6698 12.3944 29.0051 12.3941C29.3409 12.3938 29.6733 12.3261 29.9824 12.195C30.2916 12.064 30.5714 11.8722 30.8051 11.6311C31.0671 11.3621 37.2841 5.03109 43.4911 5.03109C45.201 5.01961 46.8708 5.54955 48.2611 6.54507C49.5457 7.48635 50.6192 8.68594 51.4126 10.0668C52.206 11.4476 52.7018 12.9792 52.8681 14.5631C53.4611 19.2581 51.6271 24.3551 47.7001 28.9101Z" fill="#333333"/>
<path d="M23.0531 22.146H37.2901H37.2921C37.5124 22.146 37.7306 22.1894 37.934 22.2739C38.1375 22.3583 38.3224 22.482 38.4779 22.638C38.6335 22.794 38.7568 22.9791 38.8408 23.1828C38.9247 23.3865 38.9677 23.6047 38.9671 23.825V28.694C38.9671 29.1382 38.7907 29.5643 38.4765 29.8784C38.1624 30.1925 37.7364 30.369 37.2921 30.369C36.8479 30.369 36.4218 30.1925 36.1077 29.8784C35.7936 29.5643 35.6171 29.1382 35.6171 28.694V25.5H23.0531V28.693C23.0531 29.1372 22.8767 29.5633 22.5625 29.8774C22.2484 30.1915 21.8224 30.368 21.3781 30.368C20.9339 30.368 20.5078 30.1915 20.1937 29.8774C19.8796 29.5633 19.7031 29.1372 19.7031 28.693V18.3C19.7031 17.8558 19.8796 17.4297 20.1937 17.1156C20.5078 16.8015 20.9339 16.625 21.3781 16.625C21.8224 16.625 22.2484 16.8015 22.5625 17.1156C22.8767 17.4297 23.0531 17.8558 23.0531 18.3V22.146Z" fill="#FD6262"/>
<path d="M28.2691 20H25.6691C25.482 19.9998 25.3025 19.9259 25.1695 19.7943C25.0364 19.6628 24.9605 19.4841 24.9581 19.297V18.712C24.9581 18.5231 25.0331 18.3421 25.1667 18.2086C25.3002 18.075 25.4813 18 25.6701 18H28.2701C28.4572 18.0002 28.6367 18.0741 28.7698 18.2057C28.9028 18.3372 28.9788 18.5159 28.9811 18.703V19.288C28.9811 19.4769 28.9061 19.6579 28.7726 19.7914C28.6391 19.925 28.458 20 28.2691 20Z" fill="#FD6262"/>
</g>
<path d="M68.352 28.678V32.176C72.774 32.176 75.15 29.228 75.15 21.484V19.57H78.208V32H82.058V16.27H71.498V21.44C71.498 27.072 70.222 28.436 68.352 28.678ZM85.3551 32H89.2051V25.84H91.3611C92.1091 29.558 95.1451 32.264 99.2151 32.264C103.923 32.264 107.311 28.656 107.311 24.036C107.311 19.526 103.923 16.006 99.2151 16.006C95.0351 16.006 91.9331 18.778 91.2951 22.562H89.2051V16.27H85.3551V32ZM95.1011 24.036C95.1011 21.462 96.9051 19.526 99.2151 19.526C101.525 19.526 103.329 21.462 103.329 24.036C103.329 26.72 101.525 28.744 99.2151 28.744C96.9051 28.744 95.1011 26.72 95.1011 24.036ZM109.761 32H116.295C119.353 32 121.421 29.932 121.421 27.028C121.421 24.124 119.353 22.012 116.295 22.012H113.611V19.57H119.991V16.27H109.761V32ZM113.611 28.7V25.312H115.503C116.845 25.312 117.505 26.038 117.505 27.028C117.505 28.018 116.845 28.7 115.569 28.7H113.611ZM122.385 28.678V32.176C126.807 32.176 129.183 29.228 129.183 21.484V19.57H132.241V32H136.091V16.27H125.531V21.44C125.531 27.072 124.255 28.436 122.385 28.678ZM139.388 32H143.238V25.84H145.394C146.142 29.558 149.178 32.264 153.248 32.264C157.956 32.264 161.344 28.656 161.344 24.036C161.344 19.526 157.956 16.006 153.248 16.006C149.068 16.006 145.966 18.778 145.328 22.562H143.238V16.27H139.388V32ZM149.134 24.036C149.134 21.462 150.938 19.526 153.248 19.526C155.558 19.526 157.362 21.462 157.362 24.036C157.362 26.72 155.558 28.744 153.248 28.744C150.938 28.744 149.134 26.72 149.134 24.036ZM163.443 27.336H170.351V24.036H163.443V27.336ZM173.291 32H177.141V25.84H182.861V32H186.711V16.27H182.861V22.562H177.141V16.27H173.291V32ZM189.147 24.036C189.147 28.656 192.623 32.264 197.375 32.264C202.127 32.264 205.603 28.656 205.603 24.036C205.603 19.526 202.127 16.006 197.375 16.006C192.623 16.006 189.147 19.526 189.147 24.036ZM193.129 24.036C193.129 21.462 195.021 19.526 197.375 19.526C199.729 19.526 201.621 21.462 201.621 24.036C201.621 26.72 199.729 28.744 197.375 28.744C195.021 28.744 193.129 26.72 193.129 24.036Z" fill="#333333"/>
<defs>
<clipPath id="clip0">
<rect width="58" height="49" fill="white"/>
</clipPath>
</defs>
</svg>
