<svg xmlns="http://www.w3.org/2000/svg" style="width:0; height:0; visibility:hidden;">
  <defs>
       <linearGradient id="paint0_linear" x1="-6.66151e-08" y1="6.43432" x2="15.3848" y2="13.4031" gradientUnits="userSpaceOnUse"> <stop stop-color="#3D3D48"/> <stop offset="1" stop-color="#070B0C"/> </linearGradient> <linearGradient id="paint1_linear" x1="2.30713" y1="7.42766" x2="13.8803" y2="13.0134" gradientUnits="userSpaceOnUse"> <stop stop-color="#3D3D48"/> <stop offset="1" stop-color="#070B0C"/> </linearGradient> <clipPath id="clip0"> <rect width="20" height="20" fill="white"/> </clipPath> 
 <linearGradient id="paint0_linear" x1="0.0447082" y1="5.30768" x2="16.5364" y2="10.9673" gradientUnits="userSpaceOnUse"> <stop stop-color="#3D3D48"/> <stop offset="1" stop-color="#070B0C"/> </linearGradient> 
 <linearGradient id="paint0_linear" x1="1.97906" y1="5.31481" x2="15.7948" y2="9.13481" gradientUnits="userSpaceOnUse"> <stop stop-color="#3D3D48"/> <stop offset="1" stop-color="#070B0C"/> </linearGradient> <linearGradient id="paint1_linear" x1="4.9057" y1="5.71997" x2="13.3412" y2="8.6278" gradientUnits="userSpaceOnUse"> <stop stop-color="#3D3D48"/> <stop offset="1" stop-color="#070B0C"/> </linearGradient> 
  </defs>
    <symbol id="icon_envelope" viewBox="0 0 20 20">
       <g clip-path="url(#clip0)"> <path d="M17.5585 2.38965H2.44569C1.09663 2.38965 0 3.48628 0 4.83533V15.1643C0 16.5134 1.09663 17.61 2.44569 17.61H17.5543C18.9034 17.61 20 16.5134 20 15.1643V4.83947C20.0041 3.49041 18.9075 2.38965 17.5585 2.38965ZM18.8868 15.1643C18.8868 15.8968 18.2909 16.4927 17.5585 16.4927H2.44569C1.71322 16.4927 1.11732 15.8968 1.11732 15.1643V4.83947C1.11732 4.10701 1.71322 3.51111 2.44569 3.51111H17.5543C18.2868 3.51111 18.8827 4.10701 18.8827 4.83947V15.1643H18.8868Z" fill="url(#paint0_linear)"/> <path d="M12.6133 9.87145L17.5046 5.48494C17.7322 5.27803 17.7529 4.92628 17.546 4.69454C17.3391 4.46694 16.9874 4.44624 16.7556 4.65316L10.0103 10.7074L8.69437 9.53211C8.69023 9.52798 8.68609 9.52384 8.68609 9.5197C8.65712 9.49073 8.62816 9.4659 8.59505 9.44107L3.2402 4.64902C3.00846 4.44211 2.65671 4.4628 2.4498 4.69454C2.24289 4.92628 2.26358 5.27803 2.49532 5.48494L7.44463 9.90869L2.51601 14.5228C2.29255 14.7339 2.28013 15.0856 2.49118 15.3132C2.60291 15.4291 2.75189 15.4911 2.90086 15.4911C3.03743 15.4911 3.17399 15.4415 3.28158 15.3422L8.28468 10.6618L9.64202 11.8743C9.74961 11.9695 9.88204 12.015 10.0145 12.015C10.1469 12.015 10.2834 11.9654 10.3869 11.8702L11.7815 10.6205L16.7556 15.3463C16.8632 15.4498 17.0039 15.4994 17.1405 15.4994C17.2894 15.4994 17.4343 15.4415 17.546 15.3256C17.7571 15.1022 17.7488 14.7463 17.5253 14.5352L12.6133 9.87145Z" fill="url(#paint1_linear)"/> </g>  
    </symbol>
    <symbol id="icon_facebook" viewBox="0 0 12 21">
       <path d="M10.8984 11.75L11.4453 8.15625H7.96875V5.8125C7.96875 4.79688 8.4375 3.85938 10 3.85938H11.6016V0.773438C11.6016 0.773438 10.1562 0.5 8.78906 0.5C5.9375 0.5 4.0625 2.25781 4.0625 5.38281V8.15625H0.859375V11.75H4.0625V20.5H7.96875V11.75H10.8984Z" fill=""/> 
    </symbol>
    <symbol id="icon_instagram" viewBox="0 0 19 19">
       <path d="M9.75 5.00781C7.25 5.00781 5.25781 7.03906 5.25781 9.5C5.25781 12 7.25 13.9922 9.75 13.9922C12.2109 13.9922 14.2422 12 14.2422 9.5C14.2422 7.03906 12.2109 5.00781 9.75 5.00781ZM9.75 12.4297C8.14844 12.4297 6.82031 11.1406 6.82031 9.5C6.82031 7.89844 8.10938 6.60938 9.75 6.60938C11.3516 6.60938 12.6406 7.89844 12.6406 9.5C12.6406 11.1406 11.3516 12.4297 9.75 12.4297ZM15.4531 4.85156C15.4531 4.26562 14.9844 3.79688 14.3984 3.79688C13.8125 3.79688 13.3438 4.26562 13.3438 4.85156C13.3438 5.4375 13.8125 5.90625 14.3984 5.90625C14.9844 5.90625 15.4531 5.4375 15.4531 4.85156ZM18.4219 5.90625C18.3438 4.5 18.0312 3.25 17.0156 2.23438C16 1.21875 14.75 0.90625 13.3438 0.828125C11.8984 0.75 7.5625 0.75 6.11719 0.828125C4.71094 0.90625 3.5 1.21875 2.44531 2.23438C1.42969 3.25 1.11719 4.5 1.03906 5.90625C0.960938 7.35156 0.960938 11.6875 1.03906 13.1328C1.11719 14.5391 1.42969 15.75 2.44531 16.8047C3.5 17.8203 4.71094 18.1328 6.11719 18.2109C7.5625 18.2891 11.8984 18.2891 13.3438 18.2109C14.75 18.1328 16 17.8203 17.0156 16.8047C18.0312 15.75 18.3438 14.5391 18.4219 13.1328C18.5 11.6875 18.5 7.35156 18.4219 5.90625ZM16.5469 14.6562C16.2734 15.4375 15.6484 16.0234 14.9062 16.3359C13.7344 16.8047 11 16.6875 9.75 16.6875C8.46094 16.6875 5.72656 16.8047 4.59375 16.3359C3.8125 16.0234 3.22656 15.4375 2.91406 14.6562C2.44531 13.5234 2.5625 10.7891 2.5625 9.5C2.5625 8.25 2.44531 5.51562 2.91406 4.34375C3.22656 3.60156 3.8125 3.01562 4.59375 2.70312C5.72656 2.23438 8.46094 2.35156 9.75 2.35156C11 2.35156 13.7344 2.23438 14.9062 2.70312C15.6484 2.97656 16.2344 3.60156 16.5469 4.34375C17.0156 5.51562 16.8984 8.25 16.8984 9.5C16.8984 10.7891 17.0156 13.5234 16.5469 14.6562Z" fill=""/> 
    </symbol>
    <symbol id="icon_mask" viewBox="0 0 30 30">
       <path d="M27.157 8.15447C26.8644 6.89903 26.1004 5.8328 25.0058 5.15206L18.4797 1.09355C18.3769 1.01351 18.2706 0.936698 18.1603 0.864217C16.4975 -0.228324 14.3943 -0.289203 12.6713 0.705662L6.36663 4.34557C4.67895 5.31993 3.47168 6.89323 2.96731 8.77562C2.46293 10.658 2.7218 12.6241 3.69616 14.3117L4.69073 16.0344C4.69741 16.0459 4.70485 16.0568 4.71223 16.0677V17.1247C4.71223 23.2204 8.84298 28.5076 14.7574 29.9825C14.804 29.9941 14.8516 29.9999 14.8992 29.9999C14.9465 29.9999 14.9936 29.9942 15.0397 29.9828L15.0503 29.9802C20.9673 28.5068 25.0997 23.219 25.0997 17.1214V14.1393L26.5554 11.7987C27.236 10.7041 27.4497 9.4099 27.157 8.15447ZM23.9279 17.1214C23.928 22.6348 20.2221 27.4218 14.8996 28.8095C9.58396 27.4166 5.88388 22.6325 5.88388 17.1248V16.022L6.66317 15.5721C6.58659 15.88 6.54528 16.2017 6.54528 16.5329C6.54528 18.7295 8.3324 20.5167 10.529 20.5167C12.7256 20.5167 14.5128 18.7295 14.5128 16.5329C14.5128 14.3363 12.7256 12.5492 10.529 12.5492C9.58666 12.5492 8.72017 12.8788 8.03732 13.4279C8.02642 13.4333 8.01546 13.4384 8.0048 13.4446L5.41243 14.9413L4.71077 13.7259C3.89286 12.3093 3.67559 10.6589 4.09899 9.0789C4.52245 7.4988 5.53571 6.17821 6.95239 5.3603L13.2571 1.72033C14.5941 0.948241 16.2265 0.995526 17.5168 1.84344C18.5834 2.54428 19.1981 3.72436 19.1613 5.00007C19.1245 6.27577 18.4426 7.41829 17.3373 8.0565L16.2093 8.70771C16.2082 8.70835 16.2071 8.70906 16.2059 8.7097L14.5807 9.64803C14.3005 9.80986 14.2045 10.1681 14.3663 10.4483C14.5282 10.7284 14.8865 10.8246 15.1666 10.6627L16.4866 9.90057L23.9279 14.5284V17.1214ZM7.71704 16.533C7.71704 14.9824 8.97851 13.7209 10.5291 13.7209C12.0797 13.7209 13.3411 14.9824 13.3411 16.533C13.3411 18.0836 12.0797 19.345 10.5291 19.345C8.97851 19.345 7.71704 18.0836 7.71704 16.533ZM25.5603 11.1799L24.2223 13.3315L17.6373 9.23623L17.9233 9.07111C19.3833 8.22818 20.284 6.71898 20.3327 5.03387C20.348 4.5053 20.2785 3.9892 20.1326 3.50112L24.3872 6.1471C26.0981 7.21111 26.6244 9.46885 25.5603 11.1799Z" fill="#C6373B"/> <path d="M18.3103 23.8041C18.2881 23.543 18.1221 23.3222 17.876 23.2275C17.5853 23.1155 17.3268 22.9295 17.1284 22.6894C16.8142 22.3092 16.3511 22.0911 15.8578 22.0911C15.5129 22.0911 15.1762 22.2012 14.8982 22.3996C14.6203 22.2012 14.2836 22.0911 13.9387 22.0911C13.4454 22.0911 12.9824 22.3092 12.6681 22.6894C12.4697 22.9294 12.2112 23.1155 11.9255 23.2256C11.9238 23.2262 11.9208 23.2273 11.9192 23.2279C11.6744 23.3222 11.5085 23.543 11.4862 23.804C11.4638 24.0664 11.5907 24.3133 11.8172 24.4485C11.9045 24.5005 12.0551 24.66 12.2007 24.8144C12.7196 25.3643 13.5034 26.1948 14.8946 26.1969C14.8953 26.1969 14.896 26.1969 14.8967 26.1969C14.8979 26.197 14.8988 26.197 14.8997 26.1969C14.9004 26.1969 14.9011 26.1969 14.9018 26.1969C16.2929 26.1949 17.0768 25.3642 17.5958 24.8143C17.7414 24.66 17.892 24.5005 17.9789 24.4486C18.2056 24.3135 18.3326 24.0666 18.3103 23.8041ZM16.7437 24.0103C16.2949 24.4858 15.7864 25.0248 14.8983 25.0253C14.0103 25.0248 13.5017 24.4858 13.0529 24.0103C13.0376 23.9941 13.0224 23.9779 13.0072 23.9619C13.2165 23.812 13.4065 23.6353 13.5713 23.4358C13.6622 23.3258 13.7961 23.2628 13.9387 23.2628C14.0683 23.2628 14.1939 23.3165 14.2833 23.4103L14.4745 23.6105C14.5851 23.7263 14.7381 23.7918 14.8982 23.7918C14.8983 23.7918 14.8983 23.7918 14.8983 23.7918C15.0584 23.7918 15.2115 23.7263 15.322 23.6105L15.5132 23.4103C15.6026 23.3165 15.7283 23.2628 15.8579 23.2628C16.0005 23.2628 16.1344 23.3258 16.2252 23.4357C16.39 23.6351 16.58 23.812 16.7894 23.9619C16.7743 23.978 16.759 23.9941 16.7437 24.0103Z" fill="#C6373B"/> <path d="M19.2679 12.5493C17.0712 12.5493 15.2841 14.3364 15.2841 16.5331C15.2841 18.7297 17.0712 20.5168 19.2679 20.5168C21.4645 20.5168 23.2516 18.7297 23.2516 16.5331C23.2516 14.3364 21.4645 12.5493 19.2679 12.5493ZM19.2679 19.3451C17.7172 19.3451 16.4558 18.0836 16.4558 16.5331C16.4558 14.9824 17.7173 13.721 19.2679 13.721C20.8184 13.721 22.0799 14.9825 22.0799 16.5331C22.0799 18.0837 20.8184 19.3451 19.2679 19.3451Z" fill="#C6373B"/> <path d="M19.2676 14.3584C18.9441 14.3584 18.6818 14.6207 18.6818 14.9442V15.1294C18.6818 15.4529 18.9441 15.7153 19.2676 15.7153C19.5911 15.7153 19.8534 15.4529 19.8534 15.1294V14.9442C19.8534 14.6207 19.5911 14.3584 19.2676 14.3584Z" fill="#C6373B"/> <path d="M19.2676 17.3508C18.9441 17.3508 18.6818 17.6132 18.6818 17.9367V18.1219C18.6818 18.4454 18.9441 18.7077 19.2676 18.7077C19.5911 18.7077 19.8534 18.4454 19.8534 18.1219V17.9367C19.8534 17.6131 19.5911 17.3508 19.2676 17.3508Z" fill="#C6373B"/> <path d="M20.8568 15.947H20.6715C20.3481 15.947 20.0857 16.2093 20.0857 16.5328C20.0857 16.8563 20.3481 17.1187 20.6715 17.1187H20.8568C21.1803 17.1187 21.4426 16.8563 21.4426 16.5328C21.4426 16.2094 21.1803 15.947 20.8568 15.947Z" fill="#C6373B"/> <path d="M17.8645 15.947H17.6793C17.3558 15.947 17.0935 16.2093 17.0935 16.5328C17.0935 16.8563 17.3558 17.1187 17.6793 17.1187H17.8645C18.188 17.1187 18.4504 16.8563 18.4504 16.5328C18.4504 16.2094 18.1881 15.947 17.8645 15.947Z" fill="#C6373B"/> <path d="M10.5289 14.3584C10.2054 14.3584 9.94312 14.6207 9.94312 14.9442V15.1294C9.94312 15.4529 10.2054 15.7153 10.5289 15.7153C10.8524 15.7153 11.1148 15.4529 11.1148 15.1294V14.9442C11.1148 14.6207 10.8524 14.3584 10.5289 14.3584Z" fill="#C6373B"/> <path d="M10.5289 17.3508C10.2054 17.3508 9.94312 17.6132 9.94312 17.9367V18.1219C9.94312 18.4454 10.2054 18.7077 10.5289 18.7077C10.8524 18.7077 11.1148 18.4454 11.1148 18.1219V17.9367C11.1148 17.6132 10.8524 17.3508 10.5289 17.3508Z" fill="#C6373B"/> <path d="M12.1175 15.947H11.9323C11.6088 15.947 11.3465 16.2093 11.3465 16.5328C11.3465 16.8563 11.6088 17.1187 11.9323 17.1187H12.1175C12.441 17.1187 12.7033 16.8563 12.7033 16.5328C12.7033 16.2094 12.441 15.947 12.1175 15.947Z" fill="#C6373B"/> <path d="M9.12529 15.947H8.94007C8.61657 15.947 8.35425 16.2093 8.35425 16.5328C8.35425 16.8563 8.61657 17.1187 8.94007 17.1187H9.12529C9.44878 17.1187 9.71111 16.8563 9.71111 16.5328C9.71111 16.2094 9.44878 15.947 9.12529 15.947Z" fill="#C6373B"/> <path d="M12.0998 4.63479C11.938 4.35471 11.5797 4.25856 11.2995 4.42039L6.83812 6.99618C6.55792 7.15802 6.46189 7.51626 6.62373 7.79645C6.7323 7.98442 6.92912 8.08948 7.13168 8.08948C7.23105 8.08948 7.33177 8.06411 7.424 8.01085L11.8854 5.43506C12.1656 5.27323 12.2616 4.91498 12.0998 4.63479Z" fill="#C6373B"/> 
    </symbol>
    <symbol id="icon_phone-call" viewBox="0 0 20 20">
       <path d="M16.7835 11.906C16.3495 11.4541 15.826 11.2125 15.2712 11.2125C14.7208 11.2125 14.1929 11.4497 13.741 11.9016L12.3271 13.311C12.2108 13.2483 12.0944 13.1902 11.9826 13.132C11.8215 13.0515 11.6694 12.9754 11.5396 12.8949C10.2152 12.0537 9.01167 10.9575 7.8573 9.53915C7.29802 8.83222 6.92218 8.23714 6.64925 7.63311C7.01614 7.29754 7.35618 6.94855 7.68728 6.61298C7.81256 6.4877 7.93784 6.35794 8.06312 6.23266C9.00272 5.29306 9.00272 4.07606 8.06312 3.13647L6.84164 1.91499C6.70294 1.77629 6.55976 1.63311 6.42554 1.48993C6.15708 1.21253 5.8752 0.926175 5.58437 0.657718C5.15037 0.228188 4.63135 0 4.08549 0C3.53963 0 3.01167 0.228188 2.56424 0.657718C2.55976 0.662192 2.55976 0.662192 2.55529 0.666667L1.03404 2.20134C0.461329 2.77405 0.134708 3.47204 0.0631192 4.28188C-0.0442633 5.58837 0.340524 6.80537 0.635826 7.60179C1.36066 9.55705 2.44343 11.3691 4.05865 13.311C6.01838 15.651 8.37632 17.4989 11.0698 18.8009C12.0989 19.2886 13.4725 19.8658 15.0072 19.9642C15.1012 19.9687 15.1996 19.9732 15.2891 19.9732C16.3226 19.9732 17.1906 19.6018 17.8707 18.8635C17.8752 18.8546 17.8841 18.8501 17.8886 18.8412C18.1213 18.5593 18.3897 18.3043 18.6716 18.0313C18.864 17.8479 19.0609 17.6555 19.2533 17.4541C19.6962 16.9933 19.9289 16.4564 19.9289 15.906C19.9289 15.3512 19.6918 14.8188 19.2399 14.3714L16.7835 11.906ZM18.3853 16.6175C18.3808 16.6175 18.3808 16.6219 18.3853 16.6175C18.2108 16.8054 18.0318 16.9754 17.8394 17.1633C17.5486 17.4407 17.2533 17.7315 16.9759 18.0582C16.524 18.5414 15.9915 18.7696 15.2935 18.7696C15.2264 18.7696 15.1548 18.7696 15.0877 18.7651C13.7589 18.6801 12.524 18.1611 11.5978 17.7181C9.06536 16.4922 6.84164 14.7517 4.99377 12.5459C3.46804 10.7069 2.44791 9.00671 1.77229 7.18121C1.35618 6.06711 1.20406 5.19911 1.27117 4.38031C1.31592 3.85682 1.51726 3.42282 1.88862 3.05145L3.41435 1.52573C3.63359 1.31991 3.86625 1.20805 4.09444 1.20805C4.37632 1.20805 4.60451 1.37808 4.74768 1.52125C4.75216 1.52573 4.75663 1.5302 4.76111 1.53468C5.03404 1.78971 5.29354 2.05369 5.56647 2.33557C5.70518 2.47875 5.84835 2.62192 5.99153 2.76958L7.21301 3.99105C7.68728 4.46532 7.68728 4.9038 7.21301 5.37808C7.08325 5.50783 6.95797 5.63758 6.82822 5.76286C6.45238 6.14765 6.09444 6.50559 5.70518 6.85459C5.69623 6.86353 5.68728 6.86801 5.68281 6.87696C5.29802 7.26175 5.36961 7.63758 5.45014 7.89262C5.45462 7.90604 5.45909 7.91946 5.46357 7.93289C5.78124 8.70246 6.22867 9.42729 6.90876 10.2908L6.91323 10.2953C8.14813 11.8166 9.45014 13.0022 10.8864 13.9105C11.0698 14.0268 11.2577 14.1208 11.4367 14.2103C11.5978 14.2908 11.7499 14.3669 11.8797 14.4474C11.8976 14.4564 11.9155 14.4698 11.9334 14.4787C12.0855 14.5548 12.2287 14.5906 12.3763 14.5906C12.7477 14.5906 12.9803 14.3579 13.0564 14.2819L14.5866 12.7517C14.7387 12.5996 14.9803 12.4161 15.2622 12.4161C15.5396 12.4161 15.7678 12.5906 15.9065 12.7427C15.911 12.7472 15.911 12.7472 15.9155 12.7517L18.3808 15.217C18.8416 15.6734 18.8416 16.1432 18.3853 16.6175Z" fill="url(#paint0_linear)"/>  
    </symbol>
    <symbol id="icon_placeholder" viewBox="0 0 20 20">
       <path d="M9.99584 0C5.57655 0 1.97906 3.59748 1.97906 8.01677C1.97906 8.51992 2.02519 9.02725 2.12162 9.52201C2.12582 9.55136 2.14259 9.63941 2.17613 9.79036C2.29772 10.3312 2.47802 10.8637 2.71282 11.3711C3.57655 13.4046 5.47592 16.5283 9.64364 19.8742C9.74846 19.9581 9.87424 20 10 20C10.1258 20 10.2516 19.9581 10.3564 19.8742C14.5199 16.5283 16.4235 13.4046 17.2872 11.3711C17.522 10.8637 17.7023 10.3354 17.8239 9.79036C17.8575 9.63941 17.8742 9.55136 17.8784 9.52201C17.9707 9.02725 18.021 8.51992 18.021 8.01677C18.0126 3.59748 14.4151 0 9.99584 0ZM16.7547 9.32495C16.7547 9.33333 16.7506 9.34172 16.7506 9.3501C16.7464 9.37107 16.7338 9.43396 16.7128 9.5304C16.7128 9.53459 16.7128 9.53459 16.7128 9.53878C16.608 10.0084 16.4529 10.4654 16.2474 10.9057C16.2432 10.9099 16.2432 10.9182 16.239 10.9224C15.455 12.7799 13.7359 15.6143 9.99584 18.7044C6.25579 15.6143 4.53672 12.7799 3.75265 10.9224C3.74846 10.9182 3.74846 10.9099 3.74426 10.9057C3.54301 10.4696 3.38787 10.0084 3.27886 9.53878C3.27886 9.53459 3.27886 9.53459 3.27886 9.5304C3.2537 9.43396 3.24531 9.37107 3.24112 9.3501C3.24112 9.34172 3.23693 9.33333 3.23693 9.32075C3.15307 8.88889 3.11114 8.45283 3.11114 8.01258C3.11114 4.21803 6.20129 1.12788 9.99584 1.12788C13.7904 1.12788 16.8805 4.21803 16.8805 8.01258C16.8805 8.45702 16.8386 8.89727 16.7547 9.32495Z" fill="url(#paint0_linear)"/> <path d="M9.99585 3.01465C7.19081 3.01465 4.9057 5.29976 4.9057 8.10479C4.9057 10.9098 7.19081 13.1949 9.99585 13.1949C12.8009 13.1949 15.086 10.9098 15.086 8.10479C15.086 5.29976 12.8009 3.01465 9.99585 3.01465ZM9.99585 12.0629C7.81136 12.0629 6.03778 10.2851 6.03778 8.10479C6.03778 5.9245 7.81555 4.14672 9.99585 4.14672C12.1761 4.14672 13.9539 5.9245 13.9539 8.10479C13.9539 10.2851 12.1803 12.0629 9.99585 12.0629Z" fill="url(#paint1_linear)"/>  
    </symbol>
    <symbol id="icon_uranchik" viewBox="49 199 440 349">
      <path d="M485.4 382.5c-2.5 10.1-2.2 22.1-13.9 18.9l-.2-16.9c2.8-10.8 4.3-20.9 3.9-32-1.2-30.5-5.3-59.6-25.1-83.9l-13.9-17.2-6.7-7.7-9.1-6.3-7.9-7.7-12.1-7.6-15.8-8-14.9-3.9s-18.1-3.2-20.4-2.6c-2.3.6-13.5-.2-13.5-.2l-12.4.5-15.8 3.9c-12.5 3.1-24.8 5.3-36.7 11.5-31.6 16.2-51.4 42.4-66.8 73.7l-4.5 12.5-2.8 12.1-5.9 8.2-4-4.5.8-6.2 4-13 3.6-10.7c4.5-9.4 8.8-18.9 14.9-27.5 9-13.2 25.8-36.4 40.4-43.5l28-13.6 19.8-7.9 22.3-2.9c44.7-6 83.7 13.8 116.4 42.6 36.9 32.2 60.4 91.8 48.3 139.9zm-289.3-37.9l8.5-5.6 10.5-5.7 7.9-4.3 6.3-4.3-.2 2.9-7.1 5.3-11.1 7-8.4 5.7-8 5.3-6.3 4-3.9 2.2-3.1-2.5 6.7-4.5 8.2-5.5zm10.6-21l15.2-8.8 13.6-6.7 13.2-7.9 6-2 3.1 2.8.2.8.5-.5c1.1-1.1 2.8-2.6 2.8-2.6l3.9-2 3.7-.3 2.6 5.1-3.1 9-8.2 8-8.2 10.2-7 6.7-10.6 10.6-9.3 7.9-9.9 9.7-11.8 10.2-5 3.6-2.9.3-3.2 2 .6 4.5-6.3 1.2-3.6.6-3.6 3.6-2.2 1.4-6.3 4.3-3.6 7.6-4.8 10.2-8.5 15.5-16.6 7.9-12.5 4-9.7.5-7.4-.2-6.7-1.7-1.9-5.3 2.8 2.5 6.8.9 6.7-.2 8.5-.6 7.6-1.9 6.5-4.2 5-4.2 3.2-4.3 5.6-6.3 2.5-5.6 3.7-5.7-5 2.6-5.3 1.7 5.9-6.8 2.9-6 8.5-6.8 6.3-5.3 7.6-5.3 4.3-2.2-2.2-2.5 4.2-1.9 5.1-2.5 6.7-3.6 6.7-6.3 6.8-5.1 6.7-5 7.6-6.8 6.2-5 4.8-5.3 1.1-.8-.6-3.6.6-6.7 2.9.9.5 3.6v2.9l4.2-3.9 3.6-3.4 4.8-5.6.5-1.5-1.4.9 1.4-5.4.6-5.6-5.6-1.5-5.6 3.6-6 3.7-9.4 6.7-6.5 3.9-13.6 11.8-13.9 7.7-5.3 3.9-4.5-1.2-5.1 2.2-9.1 7.1-6.3 4.6-8.5 8.2-5.9 5.4-7 5.9-5.9 5.6-5.9 4-10.5 8.2-8.5 6.3-6 5.6-4.5 5.1L96 417l-10.4 9-16.9 13.5-6.2 6.3-11.3-2.2 9.9-8.8 12.9-9.7 15.9-11 8.8-5.9 10.7-9.7 10.8-8.8 11.5-11.3 10.2-7.4 11.1-8.5 8.7-9.7 13.6-8.7 13.5-8.5 17.9-12zm50.3-10.1l2.9-.3 3.2-2.8 1.9-4 1.4-3.7-1.2-2.8-4 .8-3.6 1.2 1.2 5.6-1.2 4.3-1.7 1.2 1.1.5zM65.9 471.4l10.5.6 13.8-.5 8.2-5.3 11-8.8 10.7-8.8 12.7-4.5 14.4-3.4 10.5-3.6 5.9-3.4 5.9-4.3 3.1-3.4 3.7-4.3 2.5-5.1 3.7-4.6 4.2-5 3.1-6.3-3.6 1.7-1.2-2 2.6-5.9 7-2.9 4.8-2 6.3-3.9 6.7-1.9 6-5.1 4.2-3.6 3.1-3.7 2.3-4.6 1.2-2.9.5-4-.2-2.5-2-2.8 2.5.2 3.2 1.1 2.9 3.9-.8 6.3-5.6 6.7-4.2 6.5-6.7 5.3-7.3 6.3-9 4.3-7.1 7.6-5.3 4-4.3 10.1-8.7 9.1-7.4 7.1-11.1 6.2-6 3.2-8 2.3-8.5 2.5-7.1 2.6-9.3 7-2 4.5-1.9 4.8-6.7 5.7-8.2 4.3-9.7 2.3-8.4 2.9-7.4.9-9.3-.2-4.6-1.5-9-3.2-1.2-3.1 7.1 1.2 5.3 2.2 5 .6 5-.2 1.2-2.2-2.5-2.2-5.9-.2-5.3-.8-12.2-3.4.6-2.5 7.7 2.5 8.6 2.1zm32.8 58c.9.2 11.3 1.4 11.3 1.4l14.2 1.7 19.7.2 17.3-1.1 15.2-1.2 23.5-5.9 3.6-9.1 2.2-20.4 1.4-21.4-2-17.5-5-14.5-6.3-11.8-2.5-10.2 6.3-10.2 5.3 11 4.8 11.6 6.8 10.4 7.4 11 8.4 9.4 10.7 8.5 10.8 5.7.9 4.8-6.3-2.2-5.1-2.9-9-7.7-7.9-5.3-6.3-1.2-.6 7.7-.5 17-.5 17.2-1.2 16.4-.8 10.7-3.7 5.6-.5-3.7-5.4 1.7-3.7 1.4-9.4 2.2-12.8 1.2-15-.9-14.5-1.4-16.7.6c-9.9.5-34.2 2.2-40.5-6.7 1-1 4.1-2.4 6.4-2.1zm165.3 1.7l6-1.2 4.5-4 4-5.1 2.5-6.5-.9-7-1.5-7.4-4.5-4.3 2.9-.2 3.6 2.9 3.2 7 1.2 9-2.2 6.3-2.3 4.5-2.2 4-3.6 1.5 1.7 1.7 3.6 1.7-2.5.9-4-2.2-2.9-.3-5 .6-5.9.9-5-.8-4.3-3.4 6.2.9 7.4.5zm12.8-266c.6-.3 1.2-.6 1.4-.9l1.7 2.6c-.5.5-1.2 1.1-2.3 1.7-4.3 2-8.2-.5-10.4-5.3-2.9-6.3-.6-10.5 2.6-12.2 1.2-.6 2-.6 2.5-.6l.8 2.9c-.5 0-.9.2-1.7.5-1.9.9-2.8 3.2-.8 7.6 1.9 3.7 4.2 4.6 6.2 3.7zm18.6 104.7l3.6-.9 2-.8 4.8.5 4.3.9-1.1 2.3-4.3.5-6 .2-5.7-.2-3.2-.9-1.2-1.5 3.4.5 3.4-.6zm-8.8-9.1l-2.9.5-2.7-.2-4.8.9-2.8-2.8 1.4-.9 3.6-1.9 4 .2 2.6.5 4.2-.6 2.9-.6 2.2.2 3.7-2.3s1.2.2 2.2.2c.6 0 1.2.2 1.2.2l-5.6-1.2-4.3-.2-3.7-.5-.8-1.7h4.2l6-.3 4.6.9 3.2 1.1 1.7 3.7 2.8 2.8-4 1.2-4.6.6-.5 2.5-.6 1.5-3.7 1.9-6.5 1.1-2.6-3.6-.4-3.2zm49.5 105.7l-2.9-.9-3.7-.8-2.9-2.3 2-1.4 4.3.8 6.8-.8 5.9.5 3.6.5-1.5 3.4-4.6.9-7 .1zm55.1-99.5l3.6-1.2h3.2l-.5 1.5-3.7.6-4.6-.5.9-.3c.6.1 1.1-.1 1.1-.1zm-17.2 6l-4-1.2-2.8-.5-2-2 1.2-1.2 2.8 1.1 2.9.2 3.6.8 4 .2 4 .9-1.4 1.4-4.2.6-4.1-.3zm18.4 41.7l.6 2.6.6 6.8 1.4 6.2-1.2-3.6-2.6-3.2-2.2-2.6-3.1-2.5-4.8-1.2-3.7-1.5-5.3-1.7-1.5-3.2 2.5-1.4 3.4 2.2 5.4 2 4 .5 6.5.6zm-94.5-164.1c2.8.9 4 2.8 4.3 4.6.6 3.4-1.4 6-5 6.8-1.4.3-2.9.2-3.7 0l-.2-3.2c.8.3 2.2.3 3.2.2 1.7-.3 2.3-1.4 2.2-2.6-.3-1.4-1.2-1.9-2.9-2.5-2.8-1.1-4.2-2.8-4.5-4.5-.6-2.9.9-5.9 4.8-6.7 1.2-.3 2.5-.2 2.9.2v3.2c-.6-.2-1.4-.5-2.5-.2-1.5.3-2 1.4-1.9 2.3.5 1.2 1 1.7 3.3 2.4zm30.6-2.4c2.5 1.4 3.4 3.4 3.4 5.4 0 3.4-2.5 5.7-6.2 5.7-1.5 0-2.9-.5-3.6-.8l.5-3.2c.8.5 2 .6 3.1.6 1.7 0 2.5-.9 2.5-2.2 0-1.4-.9-2-2.5-3.1-2.5-1.5-3.6-3.6-3.6-5.3 0-2.9 2-5.6 5.9-5.6 1.2 0 2.5.3 2.9.6l-.6 3.2c-.5-.3-1.4-.6-2.3-.6-1.5 0-2.3.9-2.3 2 .3 1.4.8 2 2.8 3.3zm24.3-1.1c.5-2.9 2.8-5.3 6.7-4.6 1.2.2 2.3.6 2.8 1.1l-.9 2.9c-.5-.5-1.2-.8-2.2-.9-1.5-.2-2.5.6-2.5 1.7-.2 1.1.3 1.7 2.2 3.2 2.3 1.9 2.9 3.9 2.6 5.9-.5 3.4-3.2 5.3-6.8 4.8-1.4-.2-2.9-.8-3.6-1.2l.9-3.1c.6.5 2 .9 2.9 1.2 1.7.2 2.6-.6 2.8-1.7.2-1.4-.6-2.2-2-3.4-2.4-2.2-3-4.2-2.9-5.9zm33.4 12.8l-.5-.2-2.2 7.1-3.6-1.1 5.4-17.8c1.2.2 2.6.5 3.9.8 2 .6 3.6 1.4 4.3 2.8.8 1.4.8 2.6.3 4.2-.6 2-2 3.4-4.2 3.7v.2c1.1.9 1.4 2.2 1.1 4.3s-.5 4.5-.3 5.3l-3.7-1.1c-.2-.6.2-2.5.5-4.6.6-2.3.1-3.3-1-3.6zm4.2-4.8c.5-1.5.2-2.8-1.4-3.2-.3-.2-.6-.2-.9-.2l-1.7 5.3.6.2c1.7.6 2.9-.5 3.4-2.1zM270.6 458.4l-7.7-4.8-9.7-8.8-5.3-4.3-5.7-6-6.2-5.9-3.4-3.2-4.3.8-7.7-20 3.6-1.2 16.7 19.5 10.2 11.6 9.7 8.2 2.6-4.3-2.2-17.3-.2-11-2-9.3-2-8.7c-5.9-25.4 4.5-67.5 35.7-68.9.2 0 10.4-.5 10.4-.5l11.5-.5 10.2-1.2 7.9.5 10.8-.9 9.4.5 11.8 1.5 12.5 1.4 9.1 3.9 9.9 1.4 3.9 1.9 3.6 4.5 3.2 8.7 3.1 6.8 1.4 5.6.5 6.7-3.2 1.7-1.2-4.5-2-4.6-.9-5.9-2-5.1-2.5-5.9-3.6-2-2.9-1.2-1.9 1.4 1.7 1.4 4.3 2.3-3.6 1.1-5 .9-4.2 1.2-4.5 1.2-6.7 2.2-5.4 1.7-4.3.6-2.2 2 2 .9 3.9-1.2 3.7-.8h7.1l5.3-.3.9 1.5-4.2.3-4.3.2h-5.3l-3.6 1.5 2.6.8 4.5.2 7.3-.2h4.6l5.7.5 5.1 1.7 4.3 4.2-2.6.6-4.8-.9-3.4-1.7-4.2-.8-2.8.9.8 2.6-2 2.9-4 1.2-5.1-.6-2.9-1.2-.2-2.6-2-1.7-2.5-.6-.3 3.2-2.8 1.5-2-2 .6-1.5-2.2-1.2-2.5 2.9-3.4 3.6-4.5-2.6-.5-6.5 1.2-7.1 2.2-4 6.7-3.2 10.4-3.2 8.7-2.5 2.2-2.8-10.5-1.4-12.1-1.1s-13.6-.6-14.7-.5c-1.2.2-15.6.3-15.6.3l-11.3.2-11.3.6h-8l4.5 2.9 10.5 3.9 6.8 3.4 7.7 4.8-.5 39.1.2 6.2.2 5.6 5.4 2 6.7.2 5.7-.6 2.5-1.4 2-1.7 1.7-.5 1.7 1.5 1.4 2.8 2.2 1.2 2.6.6 1.2-1.2-.2-2.3-3.2-2.2-.6-2.9 2.9.2 3.6 3.7 2.2 2.2-.5 2.9-2.3 2.8-2.8 2-1.7 2.5-3.6 1.7-4.5.6-3.6.2-1.7 2.2-4 1.5-5-.9-3.6-1.1-1.2-2.2-2.8 1.1-5.4-.5-2.5-1.4-2.5-2-.3-2.2-2.3-2.2-3.2.2-5.4 1.9-6.3 1.7-5.9 3.7-6.5 4.8-3.2 4 2.9 2.5 4.3 1.4 5.4 1.9 5.3 2 8.2.6 5.1.3-.5 2.8h-4l-3.6.2-.6 1.4 1.7 3.9 3.6 2.8 4.3 1.7 4.2-.2 5.9 1.9 6.5 1.4 7.3.2 8.5-1.7 5.9-.2 4.8-1.7 4-.6 4-1.2 4.2-2.9 2.9-3.2-4 .2-8-.6-6.8.6-8.4.8-7.1.2-7.6-.3-.8-1.2h-5.9l-4.6-.9-3.7-.5 4-2.2 6.7-.2 5.1.9 5.6-.2h15.9l7.6-.3 6.7-1.4 5.7-1.2 6-2.8 4.6-1.7 2.5 2.2-2.2 4.3-2.5 3.7-4.3 5.3-4.5 3.1-4.5 3.2-5.6 4.3-7.1 2-2.3-.9 2.8-1.1 4-2.8.2-2-4.8.5-2.5.8-6.8 1.9-5.4.3-5.6.2-5.4.2h-6.3l-2.8 1.7 3.1 3.2 5.3-.2 7.1 1.5 5.7-.6 4.2.6-.3 1.4-4.8 1.2-6.8-.3-10.8-.5-9.9-3.7-5.6-4.2-5.4-4-5-4.2-3.7-3.6-3.7-.2-2.8-1.7-5.9-5.1-3.6-4-3.1-6.3 1.9-5.6 8.7-4.3 3.7-1.7 5.7-3.7 1.2-2.2 3.7-1.9 5.3-4 5.6-3.2 4-4.2.9-5.9.3-9-.6-13.3-4.6-4.5-2.8-4.3s-2.8-2.9-3.6-2.9-5.7-2.2-5.7-2.2l-7.7-2.2-6.8-3.4-5.1-2.5-6 .6-3.2 3.2-5.7 16.6-4.2 11 1.5 11 3.2 15.9 5.1 18.3 3.6 18.6 4 20.9 2.8 3.7 4.8 2.8 5.1 2.8 5.7 1.7 7.3 2.9 8.2 2 7.1 1.2 10.4 1.4 8-.2 6.8.5 7.1-1.4 9-2.5 6-2.6 8.4-2.9 7.1-3.2 4.5-2.9 5.6-3.9 2.2-4.5 2.3-4.6 2-5.3 1.2-3.7 1.5-7.3 1.1-4.5 1.9-6.7 1.5-9.3s.6-5.9.6-6.7.9-5.7.9-5.7l.8-4-.2-6.3 1.2-6.8-.2-4.5 1.2-2.5 3.2-.3-.5 4.3-.9 7.9-.6 6.5-.8 6.3-.5 9.6-.9 7.9-1.4 9.4-2.3 12.1-1.9 7.7 1.4 1.7 6.8-5.1 6.3-5.6 5.1-5.9 6.8-8.5 5-8.2 5.7-11 4.5-7.9 1.1-12.1-1.2-12.2-4.8-10.2-6.7-11.5-5.9-8.8-8.8-11.6-8.5-7.1-6.7-6-9.3-6.5-13-4-11-6.7-11.9-2.9-10.8-.9-8.5-1.2-13.9-.5-12.1.9-7.9 1.5-10.2 2.9-8.5-.5 3.2-2.9 2.5-3.6 3.1-3.1 10.4-2.5 13.3-1.7c9.9-.5 37.1-4.8 44.3 2.2l5.7 5.6 16.2 8 4.8-.3 7.9 2.8 9.4 6.3 9.4 7.4 9 9.9 11.6 10.1 5.6 7.9 3.9 10.1 3.6 5.6 2.6-1.5-1.2-6.3-2-8.2-3.2-6.3-2.8-6.8-3.6-7.1-2.8-3.1-4-7.6.8-3.6 6.2 4.5 6.7 9.6 4.3 10.4 5.1 10.8 3.2 17.5 2.2 16.2-.5 16.9-.9 9.1-1.7 8.8-1.2 7.1-4.5 5.1 1.2-6 .2-7.3 1.7-7.7-.5-4.8-3.6.8-2.8 3.9-4.8 9.7-7.4 9.6-8.7 9.1-8.2 9.3-9.1 9-7.1 5.9-8.2 5.7-5.7 3.2-8.5 3.7-6.5.9-9 3.7-11.6 2.2-9.6 2.2-10.2.5-10.8.6-9.7-2.3-11.9-2-10.4-2.5-7.3-4.3-10.1-5.4-2.7-3.4zm175.1 61.1l.5-8-.9-12.4.3-11.9.2-11.3-.2-9.3 3.7-6.7 4.8-12.5 4.3-12.8 2.9-12.1 2.6 2.5-2.9 9.4-.9 14.1 1.2 13.3 8.5 7.1 3.7-6 2.9-12.8 2-13.3.3-8.4-.5-8.5-3.6-6.7 1.2-3.2 3.1 4.8L482 428l.8 12.8-2.2 15.5-4.3 16.7-5.1 6.7-8.7-.2-1.4 3.4 1.2 29.1-.9 10.8 8.7 4.3 2.9 5.9-7.7-1.2-8.8-.6-8.5-.6-4.5 2.8-6.5 3.7-11 .3-10.8 3.6-11 3.7-11.3 1.2-10.2 1.5 1.7-2.6 61.3-25.3z" fill="currentColor"/>
    </symbol></svg>