<svg width="1200" height="207" viewBox="0 0 1200 207" fill="none" xmlns="http://www.w3.org/2000/svg">
<g opacity="0.04">
<path d="M179.911 75.1804C179.911 101.111 175.375 124.339 166.304 144.863C157.233 165.296 144.817 180.735 129.057 191.181C113.297 201.626 95.1552 206.849 74.6306 206.849C51.174 206.849 32.8485 200.115 19.6541 186.645C6.55137 173.084 0 154.301 0 130.294C0 106.013 4.53556 83.7017 13.6067 63.3604C22.6778 42.9275 35.185 27.2592 51.1282 16.3555C67.0714 5.45184 85.4885 0 106.38 0C129.745 0 147.841 6.59718 160.669 19.7915C173.497 32.9859 179.911 51.4489 179.911 75.1804ZM102.944 35.4599C91.8566 35.4599 81.686 39.6747 72.4316 48.1045C63.1772 56.4426 55.8928 67.9418 50.5784 82.6022C45.3556 97.2626 42.7442 113.16 42.7442 130.294C42.7442 143.764 45.768 153.934 51.8154 160.806C57.9544 167.678 66.5674 171.114 77.6543 171.114C88.7413 171.114 98.8203 167.129 107.891 159.157C117.054 151.185 124.201 139.915 129.332 125.346C134.463 110.778 137.029 94.4222 137.029 76.2799C137.029 63.2688 134.051 53.2356 128.095 46.1803C122.14 39.0333 113.756 35.4599 102.944 35.4599Z" fill="#242121"/>
<path d="M304.707 47.5547C324.774 47.5547 336.777 58.0002 340.717 78.8913H341.817C348.23 68.629 355.606 60.8407 363.945 55.5263C372.283 50.2119 381.216 47.5547 390.746 47.5547C403.207 47.5547 412.69 51.4489 419.196 59.2372C425.793 67.0255 429.092 77.8834 429.092 91.8108C429.092 98.7745 428.038 107.021 425.931 116.55L407.651 204.1H366.281L385.248 114.351C386.714 108.12 387.447 102.669 387.447 97.9956C387.447 86.7255 382.957 81.0904 373.978 81.0904C365.365 81.0904 357.576 86.3589 350.613 96.8961C343.741 107.433 338.472 121.865 334.807 140.19L321.613 204.1H280.243L299.072 114.351C300.538 108.12 301.271 102.669 301.271 97.9956C301.271 86.7255 296.782 81.0904 287.802 81.0904C279.372 81.0904 271.721 86.3131 264.849 96.7587C257.977 107.204 252.571 121.773 248.631 140.465L235.162 204.1H193.792L226.366 50.441H257.977L255.091 78.8913H256.328C269.706 58.0002 285.832 47.5547 304.707 47.5547Z" fill="#242121"/>
<path d="M507.158 109.541C519.986 109.541 529.057 108.212 534.372 105.555C539.686 102.806 542.343 98.3163 542.343 92.0857C542.343 87.8708 540.786 84.5722 537.67 82.1899C534.555 79.8076 529.057 78.6164 521.177 78.6164C514.855 78.6164 507.8 79.6701 500.011 81.7776C492.315 83.7934 484.939 86.3589 477.883 89.4743L467.988 59.3746C488.512 51.4947 508.67 47.5547 528.462 47.5547C546.146 47.5547 559.753 50.8075 569.282 57.313C578.903 63.8186 583.713 73.2562 583.713 85.6259C583.713 95.0636 580.873 102.898 575.192 109.128C569.511 115.359 560.44 120.17 547.978 123.56V124.659C565.388 129.79 574.092 140.144 574.092 155.721C574.092 172.214 567.495 184.859 554.301 193.655C541.198 202.451 522.46 206.849 498.087 206.849C488.833 206.849 479.579 205.933 470.324 204.1C461.07 202.268 453.281 199.748 446.959 196.541V162.456C463.086 170.519 479.67 174.55 496.713 174.55C520.353 174.55 532.173 167.907 532.173 154.621C532.173 143.901 524.109 138.541 507.983 138.541H483.793L489.978 109.541H507.158Z" fill="#242121"/>
<path d="M668.789 50.441L655.32 112.839C664.3 110.823 673.6 109.816 683.221 109.816C695.957 109.816 706.311 113.572 714.282 121.086C722.254 128.599 726.24 138.449 726.24 150.636C726.24 161.723 723.583 171.481 718.268 179.911C713.045 188.34 705.395 194.938 695.316 199.702C685.237 204.467 673.233 206.849 659.306 206.849C623.571 206.849 605.704 191.96 605.704 162.181C605.704 154.209 606.758 145.55 608.865 136.204L627.42 50.441H668.789ZM667.69 138.816C662.467 138.816 656.466 139.64 649.685 141.29C648.311 147.429 647.486 151.735 647.211 154.209C647.028 156.591 646.936 158.882 646.936 161.081C646.936 166.67 648.356 170.885 651.197 173.726C654.037 176.566 657.84 177.986 662.605 177.986C669.293 177.986 674.654 175.879 678.685 171.664C682.808 167.358 684.87 161.86 684.87 155.171C684.87 144.268 679.143 138.816 667.69 138.816ZM779.705 204.1H738.335L771.046 50.441H812.416L779.705 204.1Z" fill="#242121"/>
<path d="M915.084 47.5547C932.219 47.5547 945.734 51.3114 955.629 58.8249C965.525 66.2467 970.473 76.2799 970.473 88.9245C970.473 99.0035 967.77 107.067 962.364 113.114C957.05 119.07 948.666 123.331 937.212 125.896V126.996C945.367 129.286 951.506 133.043 955.629 138.266C959.753 143.489 961.814 149.948 961.814 157.645C961.814 167.358 959.111 175.971 953.705 183.484C948.391 190.906 940.694 196.678 930.615 200.802C920.628 204.833 908.854 206.849 895.293 206.849C874.493 206.849 858.367 201.535 846.913 190.906C835.46 180.186 829.733 164.792 829.733 144.726C829.733 126.217 833.215 109.587 840.179 94.8345C847.234 79.9908 857.221 68.3999 870.141 60.0618C883.152 51.7237 898.133 47.5547 915.084 47.5547ZM871.378 138.816L871.103 143.076V147.475C871.103 157.095 873.165 164.609 877.288 170.015C881.503 175.329 887.688 177.986 895.842 177.986C903.631 177.986 909.632 176.016 913.847 172.076C918.062 168.137 920.17 163.051 920.17 156.821C920.17 150.773 917.925 146.283 913.435 143.351C909.037 140.328 901.707 138.816 891.444 138.816H871.378ZM913.297 77.3794C905.509 77.3794 898.408 80.3573 891.994 86.3131C885.58 92.2689 880.586 100.286 877.013 110.365H904.639C912.61 110.365 918.749 108.762 923.056 105.555C927.454 102.348 929.653 97.5833 929.653 91.261C929.653 86.8629 928.141 83.4727 925.117 81.0904C922.094 78.6164 918.154 77.3794 913.297 77.3794Z" fill="#242121"/>
<path d="M1056.37 50.441L1042.9 112.839C1051.88 110.823 1061.18 109.816 1070.81 109.816C1083.54 109.816 1093.9 113.572 1101.87 121.086C1109.84 128.599 1113.82 138.449 1113.82 150.636C1113.82 161.723 1111.17 171.481 1105.85 179.911C1100.63 188.34 1092.98 194.938 1082.9 199.702C1072.82 204.467 1060.82 206.849 1046.89 206.849C1011.16 206.849 993.288 191.96 993.288 162.181C993.288 154.209 994.342 145.55 996.449 136.204L1015 50.441H1056.37ZM1055.27 138.816C1050.05 138.816 1044.05 139.64 1037.27 141.29C1035.9 147.429 1035.07 151.735 1034.8 154.209C1034.61 156.591 1034.52 158.882 1034.52 161.081C1034.52 166.67 1035.94 170.885 1038.78 173.726C1041.62 176.566 1045.42 177.986 1050.19 177.986C1056.88 177.986 1062.24 175.879 1066.27 171.664C1070.39 167.358 1072.45 161.86 1072.45 155.171C1072.45 144.268 1066.73 138.816 1055.27 138.816ZM1167.29 204.1H1125.92L1158.63 50.441H1200L1167.29 204.1Z" fill="#242121"/>
</g>
</svg>
