<svg width="1919" height="800" viewBox="0 0 1919 800" fill="none" xmlns="http://www.w3.org/2000/svg">
<path d="M22.147 123.802L22.8702 118.848L53.2593 108.162V105.818L44.5811 104.254V98.2584L53.6209 85.2242L67 84.7031L92.3218 79.2318L99.5587 64.1134L130.299 52.6498L152.372 52.1251L189.983 45.0869H196.14L226.163 57.3395L268.479 63.3355L312.614 62.5538L338.654 77.9291L349.145 78.4502L359.998 75.5844L368.677 75.3238L406.659 86.0131L428.722 80.2776L429.088 77.1476L425.106 70.1094L434.874 65.4198L440.664 65.1592L442.834 67.2435L443.914 76.8833L464.896 80.2776L466.348 76.6265L471.772 75.8412L477.196 80.2776L476.473 84.1857L465.981 92.5265L434.512 94.0898L414.619 103.994L384.959 109.986L375.552 119.369L365.784 131.618L363.619 140.74L376.998 147.258L388.575 155.598L397.981 156.376V161.851L392.19 170.717L391.829 177.23L404.851 176.184L418.597 157.679L434.151 150.641L435.959 141.526L460.201 117.542L480.45 117.024L491.298 129.273L489.857 132.921L488.049 136.829L502.156 138.135L511.919 129.013H515.902L518.428 147.779L531.817 169.675L533.263 175.403L528.557 181.659L500.343 191.303L489.49 191.824L486.236 189.479L464.173 189.74L433.061 203.291V206.678H436.32L456.58 198.598L473.941 197.816L472.495 200.165L467.066 204.337L467.789 212.153L480.45 216.325L479.727 221.272L461.642 224.141L456.58 226.747V229.356L452.597 228.835L451.874 225.705L460.201 222.318L460.552 216.846L444.998 219.712L422.936 228.835L414.981 238.214L398.704 239.781L382.784 255.941L377.36 261.93L371.574 262.712L374.106 255.153H369.405L361.088 273.401L339.744 284.865L324.185 297.117L321.654 310.669L318.038 326.569L316.587 332.561L311.886 332.822L306.1 321.879L305.377 305.198L296.332 302.067L282.23 301.55L272.1 303.374L271.377 309.366L261.609 309.887L250.756 306.5L230.497 306.24L212.417 318.749L200.118 334.649L196.497 353.155L202.287 364.618L207.349 370.878L229.779 371.139L239.903 359.411L263.784 356.542V362.794L246.055 385.211L244.971 389.38L277.886 389.901L273.908 411.272V421.437L280.055 423.521L283.671 428.472L290.908 431.602L297.779 429.517L303.569 427.169L308.632 428.732L312.614 432.38L312.976 434.207H319.123L325.993 420.655L335.761 418.571L346.614 414.138L354.213 410.227L357.824 411.012L357.467 414.399L353.123 416.747L352.038 420.655L349.507 422.74L348.962 427.69L353.123 430.431L359.092 428.864V419.092L363.619 412.054L369.221 412.575L385.682 422.351L398.343 424.042L406.298 421.698L412.267 421.044L415.343 421.826L420.95 428.604L430.351 435.253L437.588 439.55L447.896 447.762L472.312 451.538L480.995 458.187L488.594 464.961L492.928 474.476L490.218 481.382L486.057 485.944L481.896 490.244L482.263 492.721L486.414 492.85V490.116L495.642 486.593L499.08 485.158L505.049 485.555L505.772 487.639L506.133 489.987L503.964 493.11L499.62 494.281L495.642 494.417V496.108V498.321L503.964 498.064L509.566 494.545L512.102 488.81L517.71 487.896L523.862 493.11L530.732 495.976L550.08 501.712L564.915 502.886L586.071 512.008L594.571 512.137L599.094 532.855L573.594 558.138L577.031 569.473L576.848 582.764L568.531 602.315L564.371 615.478L541.763 621.731L523.133 630.2L520.424 651.05L513.554 666.04L506.133 679.981L497.995 687.929L491.843 688.322L476.289 681.544L469.781 681.151L486.964 696.659L480.45 704.09L474.481 709.95L464.535 710.471L457.303 712.562V715.557L460.736 716.992L457.843 722.463L449.159 724.811L447.357 725.461V729.112L454.405 734.191L451.696 745.008L444.637 753.478L460.201 761.426L460.012 766.123L456.218 771.33L456.035 782.016L460.374 789.835L454.588 795.831V799.607L449.704 800L441.383 795.178L439.58 789.443L433.244 788.533L411.543 761.819L407.566 760.384L404.673 759.995L405.035 756.74L410.275 753.606L410.82 749.305L401.959 730.804L388.758 725.329L387.673 720.25L386.222 713.08L383.329 707.477L384.959 694.053L386.583 693.272L386.405 676.462L381.159 670.469L380.976 652.746L379.168 644.533L377.543 635.932L375.914 625.771L374.645 615.603L373.561 607.005L370.128 598.143L367.052 594.235L352.216 584.852L343.9 579.898L327.806 567.257L318.761 558.266L312.792 550.447L305.194 540.021L301.761 534.946L298.14 527.773L285.484 522.037L284.94 509.403L292.171 504.056L292.355 500.669H286.931L286.747 492.85L291.087 479.038L308.27 466.264L308.632 448.936L308.27 441.766L305.739 436.423L303.029 434.471L299.948 434.207L296.332 436.163L295.431 441.634L287.654 442.159L274.631 433.297L262.699 427.433L257.632 422.872L256.725 417.008L251.841 410.623L247.863 405.016L239.542 405.28L226.886 398.631L221.64 396.154L216.211 393.288L211.149 388.206L205.898 385.472L202.104 387.421L195.234 389.769L169.189 379.476L155.805 373.348L145.313 367.227L140.073 360.71L141.697 355.499L140.612 341.684L129.398 324.613L121.621 310.933L117.822 299.983L117.644 285L117.282 277.313H114.751L112.036 282.913L108.237 293.341L107.152 300.247L110.05 307.15L116.92 322.918L121.983 337.254L122.166 340.902L115.836 340.641L112.036 332.172L106.067 324.745L99.9203 316.276L98.8355 310.276L103.175 301.811L100.099 296.336L98.4739 287.602L97.0225 282.656L96.4826 274.704L86.1747 267.409L85.8131 255.806L88.3442 243.039L95.2196 230.137L114.389 206.939L126.505 191.692L135.728 182.962H142.059L143.505 186.217L146.765 186.613L146.943 182.052L149.657 170.581L145.858 163.547L146.041 155.202L152.734 139.959L159.42 127.449L162.863 121.061L162.68 117.542L159.42 117.934L155.443 119.501H150.019L147.844 117.024L146.581 113.766L144.412 109.593L137.18 108.423L127.951 103.865L123.791 101.256H119.813L115.652 104.386L108.604 106.988L104.076 108.291L99.3754 108.68L93.045 108.423L91.7819 106.599L95.7594 103.733L100.46 102.298L105.523 99.3005L110.228 97.2162L110.59 94.8677H106.429L94.858 98.6473L50.9065 114.804L32.8216 121.453L26.1296 123.802H22.147Z" fill="#0C0C0C" fill-opacity="0.07"/>
<path d="M-1 126.143V121.974L7.31665 120.411L13.1022 122.499L13.4689 125.101L8.76301 126.143H-1Z" fill="#0C0C0C" fill-opacity="0.07"/>
<path d="M132.113 169.676L131.39 164.722L138.984 165.243L140.43 168.63L144.774 172.538V180.094L142.243 180.358L136.458 175.925V170.45L132.113 169.676Z" fill="#0C0C0C" fill-opacity="0.07"/>
<path d="M503.963 198.077L527.834 185.828L533.263 184.525L534.348 187.131L530.732 194.169L534.348 197.556L535.794 205.897L533.981 213.196L524.585 209.548L517.709 206.678H506.861L503.963 200.686V198.077Z" fill="#0C0C0C" fill-opacity="0.07"/>
<path d="M628.76 5.99567L629.478 8.86165L611.755 16.9421L593.67 17.4632L574.5 22.1529L554.964 36.49L545.924 37.2716L532.54 38.0533L527.116 33.6241L526.388 29.9728L536.156 23.7198L552.799 18.7659L567.263 15.3789L567.625 12.7771L554.964 11.2065L537.602 12.5092L528.924 11.4707V8.07998L542.303 5.99567L556.415 2.60498H573.415L581.732 6.51675H594.393H607.777L623.692 5.73878L628.76 5.99567Z" fill="#0C0C0C" fill-opacity="0.07"/>
<path d="M431.619 109.727L426.914 106.34V103.471L440.298 97.2178H447.535L451.151 99.0379V104.773L454.043 107.382L454.405 111.03L449.704 111.551L446.45 107.382L440.664 106.601L437.043 107.904L435.959 110.248L431.619 109.727Z" fill="#0C0C0C" fill-opacity="0.07"/>
<path d="M324.909 57.3401L339.021 56.8191L347.699 50.5626L369.762 45.873L369.405 43.5281L356.016 38.0532L343.717 40.6586L332.502 48.2214L321.654 54.2137L324.909 57.3401Z" fill="#0C0C0C" fill-opacity="0.07"/>
<path d="M388.574 37.2723V44.5705L411.365 44.0495L421.128 42.4827L427.637 37.0117L424.744 31.5372L418.958 31.2803L413.534 37.0117H411.365L409.913 36.2302L404.851 32.0618L398.342 32.8397L388.574 37.2723Z" fill="#0C0C0C" fill-opacity="0.07"/>
<path d="M348.06 61.2511V57.8605L364.704 50.826L374.462 50.3013L390.382 54.9946L400.15 57.3394V61.2511L394.721 64.895L396.891 67.2435L398.343 70.1094L396.173 71.4121L388.574 72.1974L383.507 75.3238L376.637 74.0211L370.851 71.9331H357.1L342.993 72.7148L335.038 68.2893L335.4 65.1592L348.06 64.3776L356.377 65.6803L356.739 62.8107L349.507 61.2511" fill="#0C0C0C" fill-opacity="0.07"/>
<path d="M415.705 53.4311L429.089 47.6958L443.191 49.78L441.745 53.9484L438.134 58.9058L431.62 63.5916L421.49 63.3348L415.705 59.1627V53.4311Z" fill="#0C0C0C" fill-opacity="0.07"/>
<path d="M445.728 56.0363L446.451 60.726L451.875 60.9865L460.92 57.8601L472.134 53.6878V49.7798L460.202 50.3009L452.959 51.8678L445.728 56.0363Z" fill="#0C0C0C" fill-opacity="0.07"/>
<path d="M446.089 38.0535L447.897 46.1338L452.236 45.6127L461.276 41.1799L461.643 37.7966L457.304 35.1913L451.875 34.1455L447.174 35.4445L446.089 38.0535Z" fill="#0C0C0C" fill-opacity="0.07"/>
<path d="M474.665 35.969L479.004 44.8272L496.365 48.2216H527.473L524.585 43.0035L494.196 42.7466L485.151 34.4058L474.665 35.969Z" fill="#0C0C0C" fill-opacity="0.07"/>
<path d="M467.066 69.0671L465.625 62.0326L485.151 52.3892L497.094 52.6497L503.603 52.9065L504.687 55.2514L503.241 57.5999L506.862 61.251L522.411 59.1631L528.201 64.1132L540.857 69.0671L547.732 75.0594L546.286 79.2316L541.585 82.6223V84.7029L560.755 93.3079L559.665 97.2159L540.134 105.553L534.348 103.208L530.009 97.737L527.834 98.2581L527.116 106.338L516.625 120.671L512.642 121.714L505.772 117.809L490.219 106.856H471.772L468.151 104.254L477.196 97.737H481.897H492.388L511.919 83.4039L518.071 79.2316L514.812 75.3236L495.642 73.7604L479.727 71.9329L467.066 69.0671Z" fill="#0C0C0C" fill-opacity="0.07"/>
<path d="M281.502 351.852V349.768L289.095 346.634L316.587 347.419L347.338 362.794V365.924L346.253 367.227H324.185L326.36 363.319L322.383 361.231L315.146 357.319L309.717 352.109L281.502 351.852Z" fill="#0C0C0C" fill-opacity="0.07"/>
<path d="M315.502 374.005L327.083 373.741L326.36 378.435H319.123L315.145 376.871L315.502 374.005Z" fill="#0C0C0C" fill-opacity="0.07"/>
<path d="M341.186 374.786L341.552 376.61L351.315 376.87L359.632 377.913L362.168 378.691L369.405 376.085L383.151 375.047V372.177L375.552 371.656L367.236 366.962L356.739 368.269L351.677 368.79L353.123 373.483L341.914 373.74" fill="#0C0C0C" fill-opacity="0.07"/>
<path d="M393.998 375.307L400.873 375.046L403.766 378.17L393.998 379.215L390.382 377.388L393.998 375.307Z" fill="#0C0C0C" fill-opacity="0.07"/>
<path d="M420.044 385.211L423.298 391.204L428.722 390.158L429.089 386.778L426.191 384.951L419.682 384.169" fill="#0C0C0C" fill-opacity="0.07"/>
<path d="M422.574 393.289H428.003L428.365 402.671L424.026 402.147L422.574 398.242V393.289Z" fill="#0C0C0C" fill-opacity="0.07"/>
<path d="M720.269 0L772.358 1.04213V3.91174L767.296 6.25653L756.443 7.81972V9.90768L762.595 12.2525L770.912 15.1184L777.782 18.7659L786.104 17.2027L794.426 13.8157L807.81 14.3331L816.855 15.1184L817.578 18.2485L811.426 19.0264L796.962 23.1987L794.787 26.582L780.319 32.3211L766.935 39.8766L767.296 47.4358L778.872 52.1255V54.7308L770.912 62.5542L764.765 66.9833H758.613L755.72 64.8954L749.573 66.9833L749.934 71.4124L756.805 75.8415V78.4506L749.573 78.9753L745.595 76.8837H742.703V80.5349L751.381 83.1402L757.166 83.6613L754.997 88.6151L739.082 89.3967L714.121 92.0021L686.273 99.8181L662.398 105.297L630.201 134.224L623.331 136.829L613.568 129.791L602.353 125.101V103.994L617.902 88.6151L628.393 75.3242L621.523 64.1138L617.178 48.7385L604.518 41.7004L594.393 41.9609H585.715L584.63 35.1906L592.223 31.279L596.562 32.0606H607.054L612.121 29.1873V23.7198L671.076 5.996L681.206 5.47124L690.246 9.64351L713.042 8.86191L720.269 0Z" fill="#0C0C0C" fill-opacity="0.07"/>
<path d="M737.997 104.771L743.064 101.124L748.483 100.867L752.828 106.077H758.252L765.488 103.733L779.239 102.166L783.935 106.855L781.765 113.894L771.274 118.848L754.274 118.326L743.421 115.982V112.33L739.443 111.028L737.997 104.771Z" fill="#0C0C0C" fill-opacity="0.07"/>
<path d="M789.001 189.22L791.894 184.787L789.001 183.481L791.533 178.274L798.041 170.45L806.363 167.845H813.957L817.939 168.63L813.595 175.404L809.617 182.442L800.934 190.262L797.685 190.001L795.149 188.438L791.894 189.22H789.001Z" fill="#0C0C0C" fill-opacity="0.07"/>
<path d="M835.302 146.739V148.82L833.132 150.904L838.918 152.728L841.449 156.375L835.302 158.727L836.025 162.371L840.726 168.106L844.708 175.141L849.048 181.137L857.002 181.918L856.641 185.826L851.579 190.78L840.003 193.125L825.534 194.692L813.958 196.512L814.681 193.385L823.002 191.562V188.956L820.471 186.612L824.087 180.616L832.409 176.443L832.771 170.191L827.342 169.145L819.02 162.632V154.291L824.087 147.257L835.302 146.739Z" fill="#0C0C0C" fill-opacity="0.07"/>
<path d="M787.556 270.536V241.866L788.64 235.873L796.962 234.046H809.618L821.912 236.134L828.064 236.915L835.301 234.046L833.493 230.138L837.109 225.705L836.386 216.847L828.426 213.196L821.189 210.59L818.663 209.023L817.94 205.376H830.957L832.408 201.204L829.872 198.862L835.663 198.598L838.917 201.989H845.788L859.533 191.564L864.962 189.74L868.578 185.828L872.556 184.004L874.007 187.656L876.538 187.395L876.177 179.315L883.77 177.752L893.538 175.664L895.708 169.675L894.985 160.806L894.267 156.116L900.052 153.25L905.471 152.469L907.284 157.162V162.894L903.668 165.76V170.717L908.73 172.273L918.499 173.058L925.369 172.798L933.686 170.717L940.561 170.192L949.244 169.932L954.673 171.235L958.284 170.717L960.815 163.936L964.793 156.901L968.052 153.511L972.753 153.771L974.566 155.074L979.99 153.511V150.124L977.815 144.131L990.838 143.086H997.347L1004.95 140.22L1002.06 136.829L999.526 136.308L993.012 136.572L987.589 137.871L981.075 140.22L972.391 139.959L962.99 126.668V122.5L970.95 117.025L977.097 111.81V105.297H973.476L968.419 103.734L961.905 108.68L955.753 114.159L955.391 117.81L948.16 121.197L942.369 130.055L945.985 136.572V141.526L940.199 148.561L936.222 155.599V158.729L932.606 161.587L928.262 163.415L926.097 166.284L919.588 166.541L917.775 161.074L915.601 155.856L911.262 153.25V147.518L908.73 148.036V144.131L902.222 146.74L898.601 147.258L896.069 149.863L888.114 150.124L883.77 145.952V131.101L893.538 126.143L902.222 120.151L919.588 108.423L932.244 99.3009L948.878 87.8337L976.736 74.2821H989.035L1000.61 78.1901L1007.48 80.535L1026.29 85.7457L1042.57 93.8297H1047.27L1050.53 97.4771L1053.42 98.523V102.948L1050.53 105.554L1042.93 105.818L1034.25 102.692L1026.29 100.6L1017.98 98.7762L1017.61 103.994L1023.04 107.121L1029.54 109.726L1039.31 117.025H1045.83L1058.12 107.902L1062.1 107.121L1068.61 102.948L1070.06 104.772L1075.85 105.036V100.083L1072.23 97.7377V94.0902L1067.88 92.2628V87.5731H1072.23L1080.18 91.2206L1080.55 96.6955L1083.81 96.9561L1096.1 94.6113L1110.57 90.439L1122.15 87.8337L1140.23 84.1861L1158.32 83.1403L1167.73 87.3089L1175.32 86.7915V83.4045L1169.53 77.6654L1164.83 76.8838L1164.47 71.9336L1175.32 64.1138L1177.13 61.769L1186.18 61.2516L1187.98 63.3359L1187.27 69.8493L1204.62 86.531V92.5269L1198.11 94.8681L1195.94 97.9982H1204.98L1211.13 94.0902L1211.5 86.531H1220.89L1224.88 85.7457L1224.15 82.8835L1210.77 80.0176L1201.01 75.06L1196.3 67.765L1218.01 58.9068L1227.05 53.4319L1239.34 46.1332L1270.09 39.0987L1282.39 37.2713L1329.77 37.0107L1337.01 38.574L1335.2 43.7884L1325.07 53.6887L1325.8 54.7309L1329.41 54.9951L1346.78 48.9954L1367.04 48.2212L1436.13 56.8189L1444.08 57.861L1461.45 56.8189L1463.98 51.8687L1467.6 47.6964L1478.45 48.2212L1507.37 53.1677L1534.87 52.3897L1554.41 51.8687L1575.75 56.5583L1593.48 56.2977L1613.37 49.7807L1630.73 50.0449L1672.33 53.4319L1700.9 59.1637L1716.82 61.769L1724.77 67.2439V69.8493H1718.26L1709.58 68.0256H1702.71L1698.37 68.2898L1694.39 67.2439L1690.77 68.0256L1690.41 74.7995L1701.99 78.1901L1712.11 80.0176L1716.46 82.3624L1715.38 86.2705L1703.8 98.7762V101.125L1687.88 102.167L1679.92 105.818L1683.9 110.768L1697.65 120.412L1710.3 134.745L1716.1 147.779V156.116L1711.75 155.856L1704.52 149.863L1692.21 140.741L1675.94 130.573L1663.65 124.844L1664.01 117.282L1669.07 112.067L1666.9 103.469L1661.47 96.435L1657.86 96.1708L1653.88 100.083H1651.35L1647.38 97.9982L1641.21 98.7762L1640.13 105.818L1644.47 112.331L1636.87 116.764L1623.49 118.327L1611.19 118.848L1598.9 119.37L1587.32 121.714L1584.42 124.063L1584.79 142.308L1594.19 149.603L1598.9 149.863L1600.71 148.036H1607.94L1616.26 152.99L1628.2 163.415L1637.24 174.882L1643.02 185.568L1647.01 199.905L1647.38 213.717L1630 217.885L1626.76 228.835L1625.3 238.214L1632.9 246.819L1643.02 256.98L1645.2 259.586V263.758L1638.33 267.67L1632.17 270.011L1631.81 265.321L1625.3 257.241L1619.88 250.206L1611.92 246.034L1600.71 237.954H1597.81L1590.93 243.432L1584.79 241.601V236.651L1586.6 234.567L1579.37 234.046L1568.15 242.387L1567.79 246.819L1575.02 251.77L1590.21 252.548L1597.81 254.114L1596.72 257.762L1592.74 259.065L1593.48 265.321L1607.94 282.26L1615.17 293.21L1610.83 295.033L1615.54 297.899L1620.24 301.55V321.098L1612.64 328.393L1593.1 342.465L1576.11 350.542L1569.96 357.32H1565.25L1562.73 352.891L1557.66 350.025L1550.79 352.37L1542.83 366.182L1544.64 371.657L1560.91 382.346L1572.13 391.465L1572.85 408.928L1567.79 415.441L1562.36 420.395L1554.77 425.088L1551.51 429.261L1546.81 429.518L1546.45 424.828L1543.55 420.916L1538.13 418.571L1531.62 414.139L1530.89 408.928L1525.11 407.365L1519.68 404.756L1517.51 401.372H1509.91L1513.17 414.92V425.61L1520.04 436.288L1526.55 443.594L1534.51 452.192L1539.93 461.053L1544.28 466.785L1542.47 470.701L1537.77 470.958L1531.26 466.004H1528L1516.43 447.762L1510.64 442.027L1500.52 434.471L1500.15 415.698L1498.7 402.936L1493.28 391.204L1486.77 379.737L1483.14 380.518L1478.08 384.951L1471.93 386.514L1466.5 384.687L1468.68 373.22L1455.65 362.795L1448.78 358.362L1447.69 354.197L1447.33 346.898H1439.38L1432.15 353.933L1426.36 353.415L1423.82 350.81L1416.95 353.155L1410.44 363.319L1401.4 371.917L1393.07 379.476L1380.77 392.246L1376.08 409.449L1373.54 421.437L1368.84 436.552L1363.78 436.031L1358.36 433.947L1351.85 421.958L1343.52 410.752L1329.05 387.296L1323.62 371.396L1322.18 354.979H1316.03L1314.95 362.534L1310.97 363.576L1304.46 360.971L1293.6 352.891L1289.99 348.201L1286.37 343.768L1278.05 338.033L1234.28 337.776L1226.32 335.952L1216.92 333.347V328.132L1211.5 325.266L1203.54 326.048L1199.2 328.918H1187.62L1182.19 325.006L1169.53 316.405L1162.66 311.194L1154.71 311.715L1150.36 315.366L1151.45 317.964L1160.13 323.443L1164.47 329.435L1168.81 330.738L1169.9 334.649L1173.51 335.431L1178.94 333.347L1182.19 335.692V342.73L1187.27 343.511L1197.02 344.289L1201.01 340.385L1205.71 334.91H1212.58L1212.22 341.427L1213.66 345.596L1219.45 347.419L1227.05 348.461L1231.03 350.025L1233.56 353.155L1226.68 368.27L1216.92 377.388L1206.8 384.17L1199.56 387.296L1186.54 393.549L1177.13 400.327L1168.09 404.756L1142.77 408.928L1135.17 410.227L1127.57 401.372L1124.31 396.675L1121.06 380.001L1102.62 362.017L1075.12 330.738L1067.53 316.405L1063.91 319.27L1061.74 318.749L1061.37 317.186L1054.14 316.926L1055.96 321.879L1059.94 330.217L1073.67 349.243L1085.25 362.534L1085.62 371.657L1100.8 382.863L1104.42 394.591L1108.76 396.419L1119.25 404.235L1129.02 411.794L1128.67 422.74L1134.81 423.257L1148.92 420.656L1171.71 415.181L1183.64 413.878L1184.36 418.05L1163.02 455.582L1144.57 473.302L1122.51 489.72L1105.5 504.838L1104.07 523.344L1112.02 558.791L1112.74 568.431L1097.92 579.898L1082 589.542L1068.61 597.622L1072.23 610.132L1071.87 623.166L1055.23 630.982V635.154L1042.93 652.092L1025.57 666.426L1012.18 673.989L998.436 675.291L980.713 678.414L972.391 683.371L967.329 682.847L965.154 679.981L955.03 674.77L953.583 661.475L936.583 639.583L932.606 619.775L930.07 610.132L915.967 587.457L916.329 566.347L929.346 548.102L923.556 522.562L913.436 507.183L894.985 487.114L898.239 476.693L902.578 467.827L903.307 461.314L893.177 460.272H881.962L870.025 448.023L857.725 449.065L830.239 454.276L795.872 462.096L782.488 460.272L752.466 437.077L730.765 417.786L723.528 406.322V393.813L728.229 381.036L727.867 367.488L729.675 356.802L747.403 331.262L756.805 323.443H762.957L777.426 310.933L779.59 302.328L782.132 297.899L794.064 291.907L798.408 287.735L805.64 279.394H810.341L817.217 281.999L825.533 281.742L845.788 276.267L862.431 273.658L872.199 272.102L881.962 270.275H896.069L912.346 271.053L911.623 277.313L907.646 284.865L909.092 287.999L915.967 292.424L923.923 294.512L935.86 295.554L939.471 296.336L942.007 302.853L951.052 306.5L965.154 308.324H970.589L971.301 304.677H968.775L969.142 299.983L976.736 296.857L987.945 295.033L994.097 298.42L1002.06 302.592L1012.91 307.543H1022.67L1029.19 304.941L1040.04 303.374L1045.1 303.631L1051.61 304.152L1054.87 305.719L1058.85 300.765L1061.37 295.294L1064.64 287.474V283.045V276.788L1067.16 275.486V273.141L1053.06 273.922L1042.93 273.658L1031.35 274.704L1019.05 274.965L1014 271.317L1010.74 262.712L1007.48 254.114H1014L1017.98 251.249L1021.23 249.682H1026.29L1034.61 248.639L1038.23 246.295L1042.57 244.21L1046.91 241.344H1056.31L1062.1 243.95L1070.79 244.992L1076.93 246.034L1083.81 246.819L1095.38 246.555L1095.02 241.344L1096.83 238.739L1092.85 236.134H1088.5L1083.09 233L1079.1 230.398L1071.5 227.268L1068.25 224.663L1069.33 220.494L1074.4 216.847L1078.02 215.28V212.935L1073.67 212.153L1070.42 213.196L1055.23 218.67L1059.57 221.797V225.184L1052.34 228.314H1047.63L1042.93 224.923L1039.67 217.368L1037.87 215.28L1033.53 216.326L1024.48 219.195L1019.79 228.835L1014.72 235.609V242.647L1017.61 246.555L1009.28 252.03H1004.22L999.526 249.682L989.758 251.249L987.945 255.153L986.865 261.413V264.279V274.183L978.539 275.225L973.115 271.574V264.279L977.454 263.497L971.301 261.153L967.329 256.723L962.628 248.9L956.476 242.908L948.516 239.257L937.307 231.697L930.431 229.613L926.454 226.487L924.284 223.881H920.306L918.86 228.053L922.476 230.659L926.454 235.873L927.538 238.739L935.499 241.601L942.369 243.432V247.076L950.691 250.988L955.391 254.375L957.928 258.283H955.391L952.137 255.942H949.601L948.516 265.064L946.708 267.145H943.459L942.731 259.85L938.03 255.678L932.244 251.249L926.097 247.858L918.499 247.337L913.436 245.249L906.561 237.176L904.03 233L898.962 230.138L893.9 231.697L885.94 237.954L879.07 238.996L875.454 236.134L866.409 238.996L864.601 244.21L846.154 255.421L838.917 266.624L830.595 276.532L825.533 276.267L819.019 274.183L813.234 275.225L804.917 276.267L797.319 273.658L792.256 272.88L787.556 270.536Z" fill="#0C0C0C" fill-opacity="0.07"/>
<path d="M899.33 235.088L894.268 239.256L894.986 244.475V246.295H900.415L901.861 244.731V239.781L899.33 235.088Z" fill="#0C0C0C" fill-opacity="0.07"/>
<path d="M893.177 251.769L896.07 249.945L901.137 249.164L901.494 251.248L899.686 255.152L901.137 255.941L898.963 259.585L896.07 260.106L894.267 258.807L892.815 254.635L893.177 251.769Z" fill="#0C0C0C" fill-opacity="0.07"/>
<path d="M920.668 266.366L921.391 267.929L928.261 271.316L933.685 274.703L940.199 274.182L940.927 268.707L937.306 265.845H931.516L920.668 266.366Z" fill="#0C0C0C" fill-opacity="0.07"/>
<path d="M988.307 281.743V279.916L994.82 281.743L1007.48 281.479L1008.57 283.307L1002.06 285.652L998.075 283.824L993.736 283.046L988.307 281.743Z" fill="#0C0C0C" fill-opacity="0.07"/>
<path d="M1045.1 284.346L1049.08 279.914L1059.94 277.573L1061.02 280.438L1057.4 283.822L1051.25 286.43L1047.63 286.691L1045.1 284.346Z" fill="#0C0C0C" fill-opacity="0.07"/>
<path d="M1098.28 61.5126L1095.38 72.4551L1110.22 74.2825L1113.83 76.1026L1126.49 75.8421V73.7614L1117.09 72.1982L1114.92 70.1103L1111.66 60.9878L1098.28 61.5126Z" fill="#0C0C0C" fill-opacity="0.07"/>
<path d="M1102.98 58.6432L1114.19 58.3827L1119.98 54.4745H1122.15L1128.67 50.8269H1134.81L1147.47 44.0491L1147.84 37.2713L1144.57 37.0107L1132.28 45.3518H1125.76L1116.36 44.8271L1112.02 48.482L1108.76 52.1259L1104.07 52.6507L1102.98 58.6432Z" fill="#0C0C0C" fill-opacity="0.07"/>
<path d="M1620.97 148.035L1622.05 145.434L1626.76 145.69L1630.37 148.296L1636.87 155.073L1644.11 160.545H1647.73L1660.39 170.449L1665.82 172.537L1665.09 174.621L1663.29 177.487L1668.35 184.004L1672.69 186.87L1677.39 189.479V193.126H1674.13V194.429H1670.16L1665.46 186.349L1658.94 183.479L1653.88 178.272L1645.2 170.717L1635.79 163.154L1627.12 152.729L1620.97 148.035Z" fill="#0C0C0C" fill-opacity="0.07"/>
<path d="M1675.22 203.291L1675.94 200.685L1681.73 198.861L1686.07 200.421H1691.14L1698.73 201.47L1701.99 202.509L1707.05 205.635V210.065L1702.71 213.455L1701.26 216.064L1696.56 216.586L1692.94 214.762H1689.33L1688.97 219.976H1683.17L1679.92 216.586L1677.75 213.455L1678.83 210.329L1680.65 207.98L1679.92 206.156L1675.22 203.291Z" fill="#0C0C0C" fill-opacity="0.07"/>
<path d="M1687.16 223.359L1692.94 223.099L1699.45 227.267L1706.68 235.608L1711.04 245.773L1714.29 252.547L1712.48 262.19L1703.07 262.976L1697.65 259.064H1687.52L1677.76 263.236L1677.39 270.274L1670.88 272.359L1664.36 271.573L1663.65 268.186L1670.16 262.455L1685.35 254.374L1685.71 247.857H1688.97L1694.39 249.424L1697.65 241.6L1692.58 238.478L1688.6 229.355L1687.16 223.359Z" fill="#0C0C0C" fill-opacity="0.07"/>
<path d="M1661.83 279.658L1667.26 279.915L1667.98 282.26L1669.79 286.953L1672.33 289.823L1677.39 289.559L1681 285.394L1676.3 280.957L1671.97 274.705L1665.82 274.184L1662.2 274.965L1661.11 278.613" fill="#0C0C0C" fill-opacity="0.07"/>
<path d="M1681.73 268.969L1688.97 268.448L1692.58 266.884L1697.65 263.237L1693.66 261.931L1686.43 262.976L1682.82 265.064L1681.73 268.969Z" fill="#0C0C0C" fill-opacity="0.07"/>
<path d="M1054.87 482.946L1063.91 480.602L1068.61 480.862L1074.4 482.165L1074.04 484.253L1071.15 487.64L1067.16 491.548V498.065L1059.94 498.586L1053.42 494.417L1054.87 482.946Z" fill="#0C0C0C" fill-opacity="0.07"/>
<path d="M1037.87 508.229L1037.5 519.957L1043.66 528.555L1047.63 528.819V523.344L1042.57 516.566V511.355L1041.12 507.708L1037.87 508.229Z" fill="#0C0C0C" fill-opacity="0.07"/>
<path d="M1064.64 538.721L1068.97 537.679L1069.33 543.411L1071.15 555.399L1072.59 564.261L1068.97 563.219L1066.45 560.089L1065.72 553.575L1066.09 544.974L1064.64 538.721Z" fill="#0C0C0C" fill-opacity="0.07"/>
<path d="M1132.63 596.315L1133 589.28L1130.47 588.499L1134.45 577.813L1144.93 572.081L1151.08 568.691L1156.51 562.438L1170.26 551.752L1173.15 551.228L1173.51 559.047L1173.88 575.208L1160.13 602.314L1151.81 624.467L1138.07 627.858L1130.47 628.115L1124.68 618.992L1123.96 610.13L1132.63 596.315Z" fill="#0C0C0C" fill-opacity="0.07"/>
<path d="M1204.98 600.751L1205.71 604.396L1209.68 606.223H1214.39L1215.11 603.878L1209.68 600.751H1204.98Z" fill="#0C0C0C" fill-opacity="0.07"/>
<path d="M1222.71 595.537H1225.24L1226.32 598.668L1224.15 601.273L1220.53 601.009L1222.71 595.537Z" fill="#0C0C0C" fill-opacity="0.07"/>
<path d="M1630.73 326.832L1636.52 325.79L1639.42 332.564V335.693L1642.3 345.597H1637.24L1630.73 341.429L1627.83 335.169L1630.73 326.832Z" fill="#0C0C0C" fill-opacity="0.07"/>
<path d="M1638.68 366.446L1648.81 365.925L1656.05 372.703L1651.71 381.036L1656.05 390.944L1666.18 393.029L1674.85 398.243L1676.3 401.894H1670.52L1661.83 395.638L1650.26 396.155L1640.13 385.73L1638.68 380.519L1641.58 377.914L1640.13 370.615L1638.68 366.446Z" fill="#0C0C0C" fill-opacity="0.07"/>
<path d="M1381.86 424.304L1389.82 433.165L1396.34 438.38L1391.99 445.675L1381.14 447.763L1376.08 440.982L1377.53 433.165L1379.7 426.909L1381.86 424.304Z" fill="#0C0C0C" fill-opacity="0.07"/>
<path d="M1490.38 449.321L1514.25 463.397L1535.96 480.075L1549.71 491.025L1558.38 498.32L1556.94 506.14V512.392L1547.53 513.959L1531.62 503.013L1513.53 482.163L1499.79 467.569L1488.93 456.098H1484.59L1483.87 451.409L1490.38 449.321Z" fill="#0C0C0C" fill-opacity="0.07"/>
<path d="M1548.26 521.781L1551.87 517.088L1563.45 514.479L1572.13 517.088L1589.49 518.651L1599.63 521.781L1611.19 528.555L1614.09 535.329L1606.85 534.815L1599.63 531.685L1589.49 531.164L1580.08 528.555L1562.73 525.429L1556.94 521.781H1548.26Z" fill="#0C0C0C" fill-opacity="0.07"/>
<path d="M1647.45 413.379L1645.73 419.291L1640.55 425.823H1636.23L1636.66 420.847L1640.98 417.111L1642.71 413.379L1647.02 412.447" fill="#0C0C0C" fill-opacity="0.07"/>
<path d="M1662.99 407.782L1671.19 408.714V411.514L1667.31 415.558L1662.56 416.49L1661.27 411.826L1662.99 407.782Z" fill="#0C0C0C" fill-opacity="0.07"/>
<path d="M1655.65 429.866L1659.11 426.138L1663.42 424.267H1666.45L1669.46 423.335L1672.06 419.603H1676.81L1678.54 423.026L1681.99 427.687L1673.79 437.022L1665.58 437.33L1665.15 432.046L1663.85 430.802L1657.38 431.11L1655.65 429.866Z" fill="#0C0C0C" fill-opacity="0.07"/>
<path d="M1634.92 441.064L1639.25 443.86L1642.27 446.664L1646.15 450.704L1638.81 455.372L1636.66 463.456L1641.84 468.432L1644.86 475.279L1637.09 480.875L1630.19 492.074L1624.14 503.274L1619.83 505.762H1611.61L1588.31 497.982L1583.56 487.41L1580.54 477.147V471.543H1584L1603.42 462.527L1615.51 452.26L1621.97 446.04L1624.14 440.752L1634.92 441.064Z" fill="#0C0C0C" fill-opacity="0.07"/>
<path d="M1710.91 466.88L1713.77 470.3V478.7L1711.35 483.364H1708.32L1704.87 479.008L1704.44 474.032L1705.3 469.056L1709.19 466.26L1710.91 466.88Z" fill="#0C0C0C" fill-opacity="0.07"/>
<path d="M1685.44 473.417L1688.47 473.101L1688.89 475.277L1685.44 478.081L1676.81 478.389L1659.11 479.321L1656.95 489.276L1666.01 486.164L1673.35 483.365L1679.4 483.992L1678.96 486.476L1674.64 486.788L1666.01 491.456L1665.15 495.808L1671.62 502.027L1673.35 506.383L1669.91 510.739L1661.7 512.295L1661.26 507.939L1660.4 498.299H1655.65L1653.93 503.895L1656.08 513.847L1655.22 515.403H1649.18V506.383L1645.73 500.787V490.832L1652.2 477.765L1656.08 473.725H1666.01L1667.31 475.904H1676.38L1685.44 473.417Z" fill="#0C0C0C" fill-opacity="0.07"/>
<path d="M1621.12 535.621L1624.57 532.198L1628.89 530.646H1639.69L1640.55 533.442L1636.66 535.93L1621.12 535.621Z" fill="#0C0C0C" fill-opacity="0.07"/>
<path d="M1648.32 532.199V534.999L1652.2 537.179L1661.7 536.867L1670.76 532.199L1671.19 528.783H1667.75L1661.27 531.579L1648.32 532.199Z" fill="#0C0C0C" fill-opacity="0.07"/>
<path d="M1673.79 539.354V544.33L1679.83 543.707L1685.44 540.907L1695.37 537.178L1698.4 536.246V532.823H1694.51L1685.44 534.999L1679.83 536.246L1678.1 538.734L1673.79 539.354Z" fill="#0C0C0C" fill-opacity="0.07"/>
<path d="M1709.19 497.676L1717.38 498.296L1724.29 500.788L1724.72 503.584L1716.09 504.208L1709.62 502.028L1709.19 497.676Z" fill="#0C0C0C" fill-opacity="0.07"/>
<path d="M1729.48 488.342L1736.38 500.47L1746.74 502.026L1758.83 509.805L1770.49 515.401L1773.51 519.137L1773.94 528.781L1785.17 534.997L1796.39 536.865L1803.3 539.353L1812.79 530.957L1817.54 530.645L1826.62 538.424L1831.36 544.952L1840.86 548.064L1850.35 548.372L1851.65 544.329L1842.15 534.689L1836.54 528.157L1834.8 525.045L1836.54 520.689L1820.57 511.049L1806.32 503.274L1795.96 500.47L1784.31 496.738L1768.33 494.562L1758.83 498.918L1751.06 499.538L1751.5 495.806V491.138L1749.76 488.959L1743.29 486.786L1737.67 485.23L1734.23 485.851L1729.48 488.342Z" fill="#0C0C0C" fill-opacity="0.07"/>
<path d="M1841.29 521.314H1861.14L1866.32 516.338V507.002L1862.88 507.314L1862.01 511.05L1859.42 514.466V516.646H1856.83L1852.95 514.466H1850.35L1849.05 516.338L1845.17 516.961L1842.15 518.826L1841.29 521.314Z" fill="#0C0C0C" fill-opacity="0.07"/>
<path d="M1797.68 548.688H1801.57L1802.87 572.323L1806.32 595.03L1820.13 620.225L1827.9 650.399L1817.54 668.435L1794.23 695.498L1764.02 718.829L1757.53 721.32L1748.47 722.557L1741.14 726.916L1733.8 729.096L1728.18 728.157V724.74H1721.71L1716.95 729.408L1711.35 726.293L1704 718.205L1701.42 708.565L1697.96 699.546L1707.03 693.946L1707.46 690.834H1702.71L1693.21 694.254L1691.49 698.298L1687.18 699.546L1686.3 693.637L1686.74 684.306L1681.55 680.57L1644 681.502L1615.08 685.546L1588.74 693.946L1578.82 695.19L1572.34 695.498L1565.43 688.966L1574.93 665.327L1580.54 639.512L1583.56 616.493L1610.76 606.229L1634.5 603.118L1666.02 582.278L1685.87 569.523L1695.8 569.215V573.879H1708.32L1704 570.147L1704.87 566.103L1712.21 564.235L1722.56 554.907L1727.75 550.236H1733.8L1738.97 553.66L1752.36 555.219L1754.52 558.951L1746.74 573.259L1747.6 578.855L1752.36 582.59L1765.74 592.234L1773.51 591.302L1784.74 575.438L1787.76 562.683L1792.07 553.039L1797.68 548.688Z" fill="#0C0C0C" fill-opacity="0.07"/>
<path d="M1710.91 739.673L1715.67 739.049L1719.55 741.537L1726.03 739.981H1729.91L1732.93 740.293L1734.23 745.269L1726.03 750.245L1723.87 753.357L1718.25 756.78L1710.91 757.404L1704.44 756.78V750.245L1708.32 742.784L1708.76 739.049L1710.91 739.673Z" fill="#0C0C0C" fill-opacity="0.07"/>
<path d="M1903.45 713.546L1906.9 716.966L1909.49 729.413V736.253L1919 737.494V741.849L1910.36 741.541L1901.73 745.893L1892.22 753.357L1885.75 759.577L1878.85 758.644L1879.71 752.737L1882.73 744.957L1890.94 742.161L1897.41 735.941L1899.99 726.606L1901.29 716.966L1903.45 713.546Z" fill="#0C0C0C" fill-opacity="0.07"/>
<path d="M1868.06 752.112L1873.66 756.78L1874.09 762.068L1864.6 764.556L1848.63 768.288L1836.54 775.131L1829.64 778.555L1824.45 783.843L1818.84 786.019L1807.61 786.331L1802.43 785.707L1801.14 779.487L1807.61 776.372L1823.59 772.647L1833.52 766.732L1846.9 762.688L1857.26 754.6L1868.06 752.112Z" fill="#0C0C0C" fill-opacity="0.07"/>
</svg>
