<svg width="100" height="12" viewBox="0 0 100 12" fill="none" xmlns="http://www.w3.org/2000/svg">
<g clip-path="url(#clip0)">
<path fill-rule="evenodd" clip-rule="evenodd" d="M18.5143 9.37147C18.5143 9.02861 18.5143 8.91432 18.5143 8.57147V2.85718C18.5143 2.51432 18.4 1.9429 19.0857 1.82861L20.8 1.60004V0.342896H11.8857V1.71432C12.2286 1.71432 13.2572 1.82861 13.6 1.9429C13.8286 2.05718 14.1714 2.17147 14.1714 2.85718C14.1714 3.42861 14.1714 4.91432 14.1714 4.91432H6.85716V2.7429C6.85716 2.40004 6.85716 2.05718 7.42859 1.82861C7.77144 1.71432 8.68573 1.71432 9.14287 1.60004V0.342896H0.1143V1.71432C0.800014 1.82861 1.25716 1.82861 1.94287 1.9429C2.5143 2.05718 2.40001 2.62861 2.40001 2.97147V8.91432C2.40001 9.48575 2.40001 9.37147 2.40001 9.37147C2.40001 9.9429 1.82859 10.0572 1.48573 10.0572H0.1143V11.4286H9.14287V10.0572C8.9143 10.0572 8.00001 9.9429 7.54287 9.82861C6.85716 9.82861 6.85716 9.37147 6.85716 8.91432V6.97147H13.9429V8.68575C13.9429 9.02861 14.0572 9.71432 13.3714 9.82861C12.6857 9.9429 12 10.0572 11.7714 10.0572V11.4286H20.8V10.0572C20.2286 10.0572 20.1143 10.0572 19.0857 9.82861C18.6286 9.82861 18.5143 9.60004 18.5143 9.37147Z" fill="#CC0000"/>
<path fill-rule="evenodd" clip-rule="evenodd" d="M37.0286 1.37143C35.2 0.228571 32.8 0 30.2857 0C28.1143 0 25.3714 0.342857 23.8857 1.37143C22.1714 2.51429 21.2572 4.34286 21.2572 5.94286C21.2572 7.42857 22.1714 9.25714 23.7714 10.4C25.3714 11.5429 27.8857 11.8857 30.2857 11.8857C32.8 11.8857 35.0857 11.7714 36.9143 10.6286C38.6286 9.6 39.6572 7.88571 39.6572 6.05714C39.5429 4.11429 38.6286 2.51429 37.0286 1.37143ZM26.4 7.08571C26.0572 5.71428 26.4 4.22857 27.2 3.31429C28.5714 1.6 32.4572 1.71429 33.7143 3.42857C34.7429 4.57143 34.7429 6.51429 34.0572 8C33.2572 9.48571 31.6572 9.82857 29.7143 9.71428C27.8857 9.48571 26.7429 8.68571 26.4 7.08571Z" fill="#CC0000"/>
<path fill-rule="evenodd" clip-rule="evenodd" d="M52.9143 0.342896V1.71432C54.9715 1.71432 55.0857 2.17147 55.0857 3.42861V8.80004L48.4572 0.342896H40.2286V1.71432C41.2572 1.71432 42.5143 2.05718 42.5143 3.42861V8.3429C42.4 9.71432 42.5143 10.0572 40.3429 10.1715V11.4286H47.3143V10.0572C45.1429 10.0572 45.1429 9.37147 45.1429 8.11432V3.20004L51.5429 11.5429H57.7143V4.00004C57.7143 3.5429 57.7143 2.97147 57.8286 2.62861C58.0572 1.71432 58.8572 1.71432 60 1.60004V0.342896H52.9143Z" fill="#CC0000"/>
<path fill-rule="evenodd" clip-rule="evenodd" d="M77.3715 1.71432C76.6858 1.25718 75.7715 0.914324 74.8572 0.685753C73.7143 0.342896 72 0.342896 70.8572 0.342896H68.6858H60.9143V1.71432L62.4 1.82861C62.7429 1.9429 63.0858 2.17147 63.0858 2.7429V9.1429C63.0858 9.1429 63.0858 9.71432 62.6286 9.82861C62.1715 9.9429 61.6 10.0572 60.9143 10.0572V11.4286H69.1429C70.2858 11.4286 72.8 11.4286 74.2858 11.2C76 10.8572 77.7143 10.0572 78.5143 8.91432C79.4286 7.5429 79.5429 6.62861 79.5429 5.71432C79.4286 4.3429 78.8572 2.85718 77.3715 1.71432ZM74.2858 5.71432C74.4 7.31432 74.0572 9.60004 70.5143 9.37147H67.3143V2.51432H70.7429C72 2.51432 72.6858 2.62861 73.3715 3.20004C74.0572 3.77147 74.1715 4.80004 74.2858 5.71432Z" fill="#CC0000"/>
<path fill-rule="evenodd" clip-rule="evenodd" d="M82.6286 0.342896V1.82861C82.6286 1.82861 85.9429 1.60004 84.4572 3.77147L81.8286 8.00004C81.0286 9.37147 80.6858 10.0572 78.6286 10.0572V11.4286H85.8286V10.0572C84.9143 9.9429 83.4286 9.82861 84.2286 8.57147L84.5715 8.00004H91.5429L92 8.57147C93.1429 10.2858 90.2858 10.0572 90.2858 10.0572V11.4286H99.8858V10.0572C98.2858 10.0572 97.9429 9.82861 97.3715 8.91432L91.4286 0.342896H82.6286ZM85.6 6.17147L88 2.40004L90.5143 6.17147H85.6Z" fill="#CC0000"/>
</g>
<defs>
<clipPath id="clip0">
<rect width="100" height="11.7714" fill="white"/>
</clipPath>
</defs>
</svg>
