<svg width="100" height="11" viewBox="0 0 100 11" fill="none" xmlns="http://www.w3.org/2000/svg">
<g clip-path="url(#clip0)">
<path d="M84.5291 10.4794H86.8762V2.0638H89.4925V0.0661621H86.8762H84.5291H82.0214V2.0638H84.5291V10.4794Z" fill="white"/>
<path d="M17.8232 8.40619L14.3521 0.0661621H11.1549V10.4794H12.9826V2.13464H13.1951L16.4253 10.4794H19.6508V0.0661621H17.8232V8.40619Z" fill="white"/>
<path d="M56.2458 2.13464L59.4713 10.4794H62.7015V0.0661621H60.8739V8.40619L57.4028 0.0661621H54.2056V10.4794H56.0332V2.13464H56.2458Z" fill="white"/>
<path d="M45.3463 0.0661621H43.0039V10.4794H45.3463V0.0661621Z" fill="white"/>
<path d="M99.9626 0.0661621H97.6203V10.4794H99.9626V0.0661621Z" fill="white"/>
<path d="M2.35674 0.0661621H0.0143547V10.4794H2.35674V0.0661621Z" fill="white"/>
<path d="M73.8417 0.0661621H71.4994V10.4794H73.8417V0.0661621Z" fill="white"/>
<path d="M34.7204 1.86073V0.0661621H30.3378H29.757H28.208V10.4794H30.3378V6.03547H34.7204V4.23617H30.3378V1.86073H34.7204Z" fill="white"/>
</g>
<defs>
<clipPath id="clip0">
<rect width="100" height="10.5313" fill="white"/>
</clipPath>
</defs>
</svg>
