<svg width="100" height="13" viewBox="0 0 100 13" fill="none" xmlns="http://www.w3.org/2000/svg">
<g clip-path="url(#clip0)">
<path d="M95.2646 5.29565H84.4011C84.4011 2.50858 87.1866 2.78729 87.1866 2.78729H98.8858V0.278931H86.9081C78.8301 1.11505 79.1086 7.52531 79.1086 7.52531H93.0362C94.9861 7.52531 94.9861 8.91884 94.9861 8.91884C94.9861 10.5911 93.5933 10.3124 93.5933 10.3124H77.9944V0.278931H73.5376V10.3124H65.1811C62.3955 10.3124 62.3955 8.91884 62.3955 8.91884V0.278931H55.4318L48.1894 4.45953L41.7827 0.278931H26.1838C17.8273 0.836344 17.2702 6.68919 17.2702 6.68919H20.0557C18.663 7.2466 17.2702 10.3124 17.2702 10.3124H7.52089C4.45682 10.3124 4.73538 7.80401 4.73538 7.80401V0.278931H0V6.68919C0 13.0994 5.84958 12.542 5.84958 12.542H39.8329L46.2396 8.64013L51.8106 12.542H58.7744L50.1393 5.85307L57.3816 1.67246V8.91884C58.2173 12.2633 62.6741 12.542 62.6741 12.542H95.8217C100 12.542 100 8.91884 100 8.91884C100 5.29565 95.2646 5.29565 95.2646 5.29565ZM39.2758 10.3124H22.8412C23.1198 7.52531 25.9053 7.52531 25.9053 7.52531H35.6546V5.01695H22.8412C23.3983 2.50858 26.1838 2.78729 26.1838 2.78729H37.0474V1.67246L44.5682 6.96789L39.2758 10.3124Z" fill="white"/>
</g>
<defs>
<clipPath id="clip0">
<rect width="100" height="12.8205" fill="white"/>
</clipPath>
</defs>
</svg>
