<svg width="100" height="19" viewBox="0 0 100 19" fill="none" xmlns="http://www.w3.org/2000/svg">
<path fill-rule="evenodd" clip-rule="evenodd" d="M99.5138 5.34844C99.5138 10.3728 99.5138 17.9092 99.5138 17.9092H85.8995C85.8995 17.9092 81.4425 17.8282 80.8752 13.4522C79.8218 16.6937 77.5527 17.9092 75.2026 17.9092C71.7991 17.9092 62.7229 17.9092 62.7229 17.9092V5.0243L46.7585 17.9092H30.6321C30.6321 17.9092 27.7958 17.9092 26.4182 15.5591C26.4182 17.0989 26.4182 17.9092 26.4182 17.9092H20.5835V7.94164C20.5835 7.94164 20.9077 5.67259 18.2334 5.67259H16.3696V17.9092H10.778V5.67259C8.50895 5.67259 6.64509 5.67259 6.64509 5.67259V17.9092H0.648335V0.486208H20.1783C20.1783 0.486208 26.4182 0.081021 26.4182 7.05023V8.99512C27.7958 6.80712 30.6321 6.96919 31.5235 6.96919C32.7391 6.96919 38.8979 6.96919 38.8979 6.96919C38.8979 6.96919 39.2221 5.18637 36.5478 5.18637C33.9547 5.18637 27.3906 5.18637 27.3906 5.18637V0.486208H38.979C38.979 0.486208 44.1653 0.243096 44.1653 5.34844C44.1653 10.3728 44.1653 13.047 44.1653 13.047L60.0486 0.486208H75.6078C75.6078 0.486208 81.6046 0.243096 81.6046 8.18475C81.6046 8.42786 81.6046 8.75201 81.6046 8.99512C82.9822 6.72608 85.8995 6.88815 86.791 6.88815C88.0875 6.88815 94.1653 6.88815 94.1653 6.88815C94.1653 6.88815 94.5705 5.10533 91.8963 5.10533C89.2221 5.10533 82.7391 5.10533 82.7391 5.10533V0.486208H94.3274C94.2464 0.486208 99.5138 0.243096 99.5138 5.34844ZM48.6224 17.9092L54.8623 12.8039H61.7504V17.9092H48.6224ZM58.1848 0.486208L51.9449 5.67259H45.0568V0.486208H58.1848ZM88.0065 10.7779H94.0033V13.128H87.8444C87.8444 13.128 86.5478 13.2091 86.5478 11.9125C86.5478 10.859 87.6013 10.7779 88.0065 10.7779ZM32.7391 10.7779H38.8169V13.128H32.6581C32.6581 13.128 31.3615 13.2091 31.3615 11.9125C31.4425 10.859 32.4149 10.7779 32.7391 10.7779ZM73.5819 12.7228H68.3145V5.42948H73.6629C73.6629 5.42948 76.1751 5.67259 76.1751 8.83305C76.1751 12.0745 74.9595 12.7228 73.5819 12.7228Z" fill="#008ACF"/>
</svg>
