<svg width="100" height="15" viewBox="0 0 100 15" fill="none" xmlns="http://www.w3.org/2000/svg">
<g clip-path="url(#clip0)">
<path fill-rule="evenodd" clip-rule="evenodd" d="M20.4831 0.0524902H23.9495C24.1596 0.0524902 24.3171 0.210053 24.3171 0.420137V13.708C24.3171 13.918 24.1596 14.0756 23.9495 14.0756H20.4831C20.273 14.0756 20.1155 13.918 20.1155 13.708V0.420137C20.168 0.210053 20.3255 0.0524902 20.4831 0.0524902ZM0.735201 0.210053H5.93478C6.14487 0.210053 6.88016 0.315095 7.30033 0.997868L13.8129 11.0294V0.525179C13.8129 0.315095 13.9705 0.157532 14.1806 0.157532H17.1218C17.3318 0.157532 17.4894 0.315095 17.4894 0.525179V13.813C17.4894 14.0231 17.3318 14.1806 17.1218 14.1806H12.0797C11.8697 14.1806 10.8718 14.1806 10.3991 13.3403L4.09655 3.51888V13.813C4.09655 14.0231 3.93898 14.1806 3.7289 14.1806H0.735201C0.525117 14.1806 0.367554 14.0231 0.367554 13.813V0.525179C0.420075 0.367616 0.577638 0.210053 0.735201 0.210053ZM82.8255 0.210053H88.0776C88.2877 0.210053 89.023 0.315095 89.4432 0.997868L95.9558 11.0294V0.525179C95.9558 0.315095 96.1133 0.157532 96.3234 0.157532H99.2646C99.4747 0.157532 99.6323 0.315095 99.6323 0.525179V13.813C99.6323 14.0231 99.4747 14.1806 99.2646 14.1806H94.2226C94.0125 14.1806 93.0146 14.1806 92.5419 13.3403L86.2394 3.51888V13.813C86.2394 14.0231 86.0818 14.1806 85.8718 14.1806H82.8255C82.6155 14.1806 82.4579 14.0231 82.4579 13.813V0.525179C82.4579 0.367616 82.6155 0.210053 82.8255 0.210053ZM68.1722 8.45585H73.8445L71.5335 3.30879H70.4831L68.1722 8.45585ZM75.1049 11.292H66.8592L65.7562 13.7605C65.6512 13.9706 65.4411 14.1281 65.2835 14.1281H61.8171C61.607 14.1281 61.5545 13.9706 61.6071 13.7605L67.5944 0.525179C67.6995 0.315095 67.9096 0.157532 68.0671 0.157532H73.897C74.107 0.157532 74.3171 0.315095 74.3697 0.525179L80.357 13.813C80.4621 14.0231 80.3571 14.1806 80.147 14.1806H76.6806C76.4705 14.1806 76.2604 14.0231 76.2079 13.813L75.1049 11.292ZM41.9117 3.25627H31.6701C31.4075 3.25627 31.1974 3.46636 31.1974 3.72896V4.51678C31.1974 4.77938 31.4075 4.98946 31.6176 4.98946C31.6176 4.98946 40.0734 5.77728 40.126 5.8298C41.6491 6.14493 42.752 7.56299 42.752 9.13862V10.6617C42.752 12.605 41.7541 14.1806 38.4453 14.1806H27.4684C27.3108 14.1806 27.1533 14.0756 27.1533 13.918V11.3445C27.1533 11.1869 27.2583 11.0819 27.4684 11.0819H38.2877C38.5503 11.0819 38.7079 10.8718 38.7079 10.6092V9.55879C38.7079 9.29619 38.4978 9.0861 38.2352 9.0861L30.357 8.40333H30.3045C28.5188 8.35081 27.1533 7.09031 27.1533 5.30459V3.72896C27.1533 1.78568 28.6764 0.262574 30.6197 0.210053H41.9117C42.0692 0.210053 42.2268 0.315095 42.2268 0.472658V2.99367C42.2268 3.15123 42.0692 3.25627 41.9117 3.25627ZM59.6638 3.25627H49.4222C49.1596 3.25627 48.9495 3.46636 48.9495 3.72896V4.51678C48.9495 4.77938 49.1596 4.98946 49.3697 4.98946C49.3697 4.98946 57.8255 5.77728 57.8781 5.8298C59.4012 6.14493 60.5041 7.56299 60.5041 9.13862V10.6617C60.5041 12.605 59.5062 14.1806 56.1974 14.1806H45.273C45.1155 14.1806 44.9579 14.0756 44.9579 13.918V11.3445C44.9579 11.1869 45.0629 11.0819 45.273 11.0819H56.0923C56.3549 11.0819 56.5125 10.8718 56.5125 10.6092V9.55879C56.5125 9.29619 56.3024 9.0861 56.0398 9.0861L48.1617 8.40333H48.1091C46.3234 8.35081 44.9579 7.09031 44.9579 5.30459V3.72896C44.9579 1.78568 46.481 0.262574 48.4243 0.210053H59.7163C59.8739 0.210053 60.0314 0.315095 60.0314 0.472658V2.99367C59.9789 3.15123 59.8739 3.25627 59.6638 3.25627Z" fill="#D5001F"/>
</g>
<defs>
<clipPath id="clip0">
<rect width="100" height="14.3382" fill="white"/>
</clipPath>
</defs>
</svg>
