<svg width="1920" height="550" viewBox="0 0 1920 550" fill="none" xmlns="http://www.w3.org/2000/svg">
<g opacity="0.3">
<path d="M37 29C37.5523 29 38 28.5523 38 28C38 27.4477 37.5523 27 37 27C36.4477 27 36 27.4477 36 28C36 28.5523 36.4477 29 37 29Z" fill="#262222"/>
<path d="M82 29C82.5523 29 83 28.5523 83 28C83 27.4477 82.5523 27 82 27C81.4477 27 81 27.4477 81 28C81 28.5523 81.4477 29 82 29Z" fill="#262222"/>
<path d="M127 29C127.552 29 128 28.5523 128 28C128 27.4477 127.552 27 127 27C126.448 27 126 27.4477 126 28C126 28.5523 126.448 29 127 29Z" fill="#262222"/>
<path d="M172 29C172.552 29 173 28.5523 173 28C173 27.4477 172.552 27 172 27C171.448 27 171 27.4477 171 28C171 28.5523 171.448 29 172 29Z" fill="#262222"/>
<path d="M217 29C217.552 29 218 28.5523 218 28C218 27.4477 217.552 27 217 27C216.448 27 216 27.4477 216 28C216 28.5523 216.448 29 217 29Z" fill="#262222"/>
<path d="M262 29C262.552 29 263 28.5523 263 28C263 27.4477 262.552 27 262 27C261.448 27 261 27.4477 261 28C261 28.5523 261.448 29 262 29Z" fill="#262222"/>
<path d="M307 29C307.552 29 308 28.5523 308 28C308 27.4477 307.552 27 307 27C306.448 27 306 27.4477 306 28C306 28.5523 306.448 29 307 29Z" fill="#262222"/>
<path d="M352 29C352.552 29 353 28.5523 353 28C353 27.4477 352.552 27 352 27C351.448 27 351 27.4477 351 28C351 28.5523 351.448 29 352 29Z" fill="#262222"/>
<path d="M397 29C397.552 29 398 28.5523 398 28C398 27.4477 397.552 27 397 27C396.448 27 396 27.4477 396 28C396 28.5523 396.448 29 397 29Z" fill="#262222"/>
<path d="M442 29C442.552 29 443 28.5523 443 28C443 27.4477 442.552 27 442 27C441.448 27 441 27.4477 441 28C441 28.5523 441.448 29 442 29Z" fill="#262222"/>
<path d="M487 29C487.552 29 488 28.5523 488 28C488 27.4477 487.552 27 487 27C486.448 27 486 27.4477 486 28C486 28.5523 486.448 29 487 29Z" fill="#262222"/>
<path d="M532 29C532.552 29 533 28.5523 533 28C533 27.4477 532.552 27 532 27C531.448 27 531 27.4477 531 28C531 28.5523 531.448 29 532 29Z" fill="#262222"/>
<path d="M577 29C577.552 29 578 28.5523 578 28C578 27.4477 577.552 27 577 27C576.448 27 576 27.4477 576 28C576 28.5523 576.448 29 577 29Z" fill="#262222"/>
<path d="M622 29C622.552 29 623 28.5523 623 28C623 27.4477 622.552 27 622 27C621.448 27 621 27.4477 621 28C621 28.5523 621.448 29 622 29Z" fill="#262222"/>
<path d="M667 29C667.552 29 668 28.5523 668 28C668 27.4477 667.552 27 667 27C666.448 27 666 27.4477 666 28C666 28.5523 666.448 29 667 29Z" fill="#262222"/>
<path d="M712 29C712.552 29 713 28.5523 713 28C713 27.4477 712.552 27 712 27C711.448 27 711 27.4477 711 28C711 28.5523 711.448 29 712 29Z" fill="#262222"/>
<path d="M757 29C757.552 29 758 28.5523 758 28C758 27.4477 757.552 27 757 27C756.448 27 756 27.4477 756 28C756 28.5523 756.448 29 757 29Z" fill="#262222"/>
<path d="M802 29C802.552 29 803 28.5523 803 28C803 27.4477 802.552 27 802 27C801.448 27 801 27.4477 801 28C801 28.5523 801.448 29 802 29Z" fill="#262222"/>
<path d="M847 29C847.552 29 848 28.5523 848 28C848 27.4477 847.552 27 847 27C846.448 27 846 27.4477 846 28C846 28.5523 846.448 29 847 29Z" fill="#262222"/>
<path d="M892 29C892.552 29 893 28.5523 893 28C893 27.4477 892.552 27 892 27C891.448 27 891 27.4477 891 28C891 28.5523 891.448 29 892 29Z" fill="#262222"/>
<path d="M937 29C937.552 29 938 28.5523 938 28C938 27.4477 937.552 27 937 27C936.448 27 936 27.4477 936 28C936 28.5523 936.448 29 937 29Z" fill="#262222"/>
<path d="M982 29C982.552 29 983 28.5523 983 28C983 27.4477 982.552 27 982 27C981.448 27 981 27.4477 981 28C981 28.5523 981.448 29 982 29Z" fill="#262222"/>
<path d="M1027 29C1027.55 29 1028 28.5523 1028 28C1028 27.4477 1027.55 27 1027 27C1026.45 27 1026 27.4477 1026 28C1026 28.5523 1026.45 29 1027 29Z" fill="#262222"/>
<path d="M1072 29C1072.55 29 1073 28.5523 1073 28C1073 27.4477 1072.55 27 1072 27C1071.45 27 1071 27.4477 1071 28C1071 28.5523 1071.45 29 1072 29Z" fill="#262222"/>
<path d="M1117 29C1117.55 29 1118 28.5523 1118 28C1118 27.4477 1117.55 27 1117 27C1116.45 27 1116 27.4477 1116 28C1116 28.5523 1116.45 29 1117 29Z" fill="#262222"/>
<path d="M1162 29C1162.55 29 1163 28.5523 1163 28C1163 27.4477 1162.55 27 1162 27C1161.45 27 1161 27.4477 1161 28C1161 28.5523 1161.45 29 1162 29Z" fill="#262222"/>
<path d="M1207 29C1207.55 29 1208 28.5523 1208 28C1208 27.4477 1207.55 27 1207 27C1206.45 27 1206 27.4477 1206 28C1206 28.5523 1206.45 29 1207 29Z" fill="#262222"/>
<path d="M1252 29C1252.55 29 1253 28.5523 1253 28C1253 27.4477 1252.55 27 1252 27C1251.45 27 1251 27.4477 1251 28C1251 28.5523 1251.45 29 1252 29Z" fill="#262222"/>
<path d="M1297 29C1297.55 29 1298 28.5523 1298 28C1298 27.4477 1297.55 27 1297 27C1296.45 27 1296 27.4477 1296 28C1296 28.5523 1296.45 29 1297 29Z" fill="#262222"/>
<path d="M1342 29C1342.55 29 1343 28.5523 1343 28C1343 27.4477 1342.55 27 1342 27C1341.45 27 1341 27.4477 1341 28C1341 28.5523 1341.45 29 1342 29Z" fill="#262222"/>
<path d="M1387 29C1387.55 29 1388 28.5523 1388 28C1388 27.4477 1387.55 27 1387 27C1386.45 27 1386 27.4477 1386 28C1386 28.5523 1386.45 29 1387 29Z" fill="#262222"/>
<path d="M1432 29C1432.55 29 1433 28.5523 1433 28C1433 27.4477 1432.55 27 1432 27C1431.45 27 1431 27.4477 1431 28C1431 28.5523 1431.45 29 1432 29Z" fill="#262222"/>
<path d="M1477 29C1477.55 29 1478 28.5523 1478 28C1478 27.4477 1477.55 27 1477 27C1476.45 27 1476 27.4477 1476 28C1476 28.5523 1476.45 29 1477 29Z" fill="#262222"/>
<path d="M1522 29C1522.55 29 1523 28.5523 1523 28C1523 27.4477 1522.55 27 1522 27C1521.45 27 1521 27.4477 1521 28C1521 28.5523 1521.45 29 1522 29Z" fill="#262222"/>
<path d="M1567 29C1567.55 29 1568 28.5523 1568 28C1568 27.4477 1567.55 27 1567 27C1566.45 27 1566 27.4477 1566 28C1566 28.5523 1566.45 29 1567 29Z" fill="#262222"/>
<path d="M1612 29C1612.55 29 1613 28.5523 1613 28C1613 27.4477 1612.55 27 1612 27C1611.45 27 1611 27.4477 1611 28C1611 28.5523 1611.45 29 1612 29Z" fill="#262222"/>
<path d="M1657 29C1657.55 29 1658 28.5523 1658 28C1658 27.4477 1657.55 27 1657 27C1656.45 27 1656 27.4477 1656 28C1656 28.5523 1656.45 29 1657 29Z" fill="#262222"/>
<path d="M1702 29C1702.55 29 1703 28.5523 1703 28C1703 27.4477 1702.55 27 1702 27C1701.45 27 1701 27.4477 1701 28C1701 28.5523 1701.45 29 1702 29Z" fill="#262222"/>
<path d="M1747 29C1747.55 29 1748 28.5523 1748 28C1748 27.4477 1747.55 27 1747 27C1746.45 27 1746 27.4477 1746 28C1746 28.5523 1746.45 29 1747 29Z" fill="#262222"/>
<path d="M1792 29C1792.55 29 1793 28.5523 1793 28C1793 27.4477 1792.55 27 1792 27C1791.45 27 1791 27.4477 1791 28C1791 28.5523 1791.45 29 1792 29Z" fill="#262222"/>
<path d="M1837 29C1837.55 29 1838 28.5523 1838 28C1838 27.4477 1837.55 27 1837 27C1836.45 27 1836 27.4477 1836 28C1836 28.5523 1836.45 29 1837 29Z" fill="#262222"/>
<path d="M1882 29C1882.55 29 1883 28.5523 1883 28C1883 27.4477 1882.55 27 1882 27C1881.45 27 1881 27.4477 1881 28C1881 28.5523 1881.45 29 1882 29Z" fill="#262222"/>
<path d="M37 74C37.5523 74 38 73.5523 38 73C38 72.4477 37.5523 72 37 72C36.4477 72 36 72.4477 36 73C36 73.5523 36.4477 74 37 74Z" fill="#262222"/>
<path d="M82 74C82.5523 74 83 73.5523 83 73C83 72.4477 82.5523 72 82 72C81.4477 72 81 72.4477 81 73C81 73.5523 81.4477 74 82 74Z" fill="#262222"/>
<path d="M127 74C127.552 74 128 73.5523 128 73C128 72.4477 127.552 72 127 72C126.448 72 126 72.4477 126 73C126 73.5523 126.448 74 127 74Z" fill="#262222"/>
<path d="M172 74C172.552 74 173 73.5523 173 73C173 72.4477 172.552 72 172 72C171.448 72 171 72.4477 171 73C171 73.5523 171.448 74 172 74Z" fill="#262222"/>
<path d="M217 74C217.552 74 218 73.5523 218 73C218 72.4477 217.552 72 217 72C216.448 72 216 72.4477 216 73C216 73.5523 216.448 74 217 74Z" fill="#262222"/>
<path d="M262 74C262.552 74 263 73.5523 263 73C263 72.4477 262.552 72 262 72C261.448 72 261 72.4477 261 73C261 73.5523 261.448 74 262 74Z" fill="#262222"/>
<path d="M307 74C307.552 74 308 73.5523 308 73C308 72.4477 307.552 72 307 72C306.448 72 306 72.4477 306 73C306 73.5523 306.448 74 307 74Z" fill="#262222"/>
<path d="M352 74C352.552 74 353 73.5523 353 73C353 72.4477 352.552 72 352 72C351.448 72 351 72.4477 351 73C351 73.5523 351.448 74 352 74Z" fill="#262222"/>
<path d="M397 74C397.552 74 398 73.5523 398 73C398 72.4477 397.552 72 397 72C396.448 72 396 72.4477 396 73C396 73.5523 396.448 74 397 74Z" fill="#262222"/>
<path d="M442 74C442.552 74 443 73.5523 443 73C443 72.4477 442.552 72 442 72C441.448 72 441 72.4477 441 73C441 73.5523 441.448 74 442 74Z" fill="#262222"/>
<path d="M487 74C487.552 74 488 73.5523 488 73C488 72.4477 487.552 72 487 72C486.448 72 486 72.4477 486 73C486 73.5523 486.448 74 487 74Z" fill="#262222"/>
<path d="M532 74C532.552 74 533 73.5523 533 73C533 72.4477 532.552 72 532 72C531.448 72 531 72.4477 531 73C531 73.5523 531.448 74 532 74Z" fill="#262222"/>
<path d="M577 74C577.552 74 578 73.5523 578 73C578 72.4477 577.552 72 577 72C576.448 72 576 72.4477 576 73C576 73.5523 576.448 74 577 74Z" fill="#262222"/>
<path d="M622 74C622.552 74 623 73.5523 623 73C623 72.4477 622.552 72 622 72C621.448 72 621 72.4477 621 73C621 73.5523 621.448 74 622 74Z" fill="#262222"/>
<path d="M667 74C667.552 74 668 73.5523 668 73C668 72.4477 667.552 72 667 72C666.448 72 666 72.4477 666 73C666 73.5523 666.448 74 667 74Z" fill="#262222"/>
<path d="M712 74C712.552 74 713 73.5523 713 73C713 72.4477 712.552 72 712 72C711.448 72 711 72.4477 711 73C711 73.5523 711.448 74 712 74Z" fill="#262222"/>
<path d="M757 74C757.552 74 758 73.5523 758 73C758 72.4477 757.552 72 757 72C756.448 72 756 72.4477 756 73C756 73.5523 756.448 74 757 74Z" fill="#262222"/>
<path d="M802 74C802.552 74 803 73.5523 803 73C803 72.4477 802.552 72 802 72C801.448 72 801 72.4477 801 73C801 73.5523 801.448 74 802 74Z" fill="#262222"/>
<path d="M847 74C847.552 74 848 73.5523 848 73C848 72.4477 847.552 72 847 72C846.448 72 846 72.4477 846 73C846 73.5523 846.448 74 847 74Z" fill="#262222"/>
<path d="M892 74C892.552 74 893 73.5523 893 73C893 72.4477 892.552 72 892 72C891.448 72 891 72.4477 891 73C891 73.5523 891.448 74 892 74Z" fill="#262222"/>
<path d="M937 74C937.552 74 938 73.5523 938 73C938 72.4477 937.552 72 937 72C936.448 72 936 72.4477 936 73C936 73.5523 936.448 74 937 74Z" fill="#262222"/>
<path d="M982 74C982.552 74 983 73.5523 983 73C983 72.4477 982.552 72 982 72C981.448 72 981 72.4477 981 73C981 73.5523 981.448 74 982 74Z" fill="#262222"/>
<path d="M1027 74C1027.55 74 1028 73.5523 1028 73C1028 72.4477 1027.55 72 1027 72C1026.45 72 1026 72.4477 1026 73C1026 73.5523 1026.45 74 1027 74Z" fill="#262222"/>
<path d="M1072 74C1072.55 74 1073 73.5523 1073 73C1073 72.4477 1072.55 72 1072 72C1071.45 72 1071 72.4477 1071 73C1071 73.5523 1071.45 74 1072 74Z" fill="#262222"/>
<path d="M1117 74C1117.55 74 1118 73.5523 1118 73C1118 72.4477 1117.55 72 1117 72C1116.45 72 1116 72.4477 1116 73C1116 73.5523 1116.45 74 1117 74Z" fill="#262222"/>
<path d="M1162 74C1162.55 74 1163 73.5523 1163 73C1163 72.4477 1162.55 72 1162 72C1161.45 72 1161 72.4477 1161 73C1161 73.5523 1161.45 74 1162 74Z" fill="#262222"/>
<path d="M1207 74C1207.55 74 1208 73.5523 1208 73C1208 72.4477 1207.55 72 1207 72C1206.45 72 1206 72.4477 1206 73C1206 73.5523 1206.45 74 1207 74Z" fill="#262222"/>
<path d="M1252 74C1252.55 74 1253 73.5523 1253 73C1253 72.4477 1252.55 72 1252 72C1251.45 72 1251 72.4477 1251 73C1251 73.5523 1251.45 74 1252 74Z" fill="#262222"/>
<path d="M1297 74C1297.55 74 1298 73.5523 1298 73C1298 72.4477 1297.55 72 1297 72C1296.45 72 1296 72.4477 1296 73C1296 73.5523 1296.45 74 1297 74Z" fill="#262222"/>
<path d="M1342 74C1342.55 74 1343 73.5523 1343 73C1343 72.4477 1342.55 72 1342 72C1341.45 72 1341 72.4477 1341 73C1341 73.5523 1341.45 74 1342 74Z" fill="#262222"/>
<path d="M1387 74C1387.55 74 1388 73.5523 1388 73C1388 72.4477 1387.55 72 1387 72C1386.45 72 1386 72.4477 1386 73C1386 73.5523 1386.45 74 1387 74Z" fill="#262222"/>
<path d="M1432 74C1432.55 74 1433 73.5523 1433 73C1433 72.4477 1432.55 72 1432 72C1431.45 72 1431 72.4477 1431 73C1431 73.5523 1431.45 74 1432 74Z" fill="#262222"/>
<path d="M1477 74C1477.55 74 1478 73.5523 1478 73C1478 72.4477 1477.55 72 1477 72C1476.45 72 1476 72.4477 1476 73C1476 73.5523 1476.45 74 1477 74Z" fill="#262222"/>
<path d="M1522 74C1522.55 74 1523 73.5523 1523 73C1523 72.4477 1522.55 72 1522 72C1521.45 72 1521 72.4477 1521 73C1521 73.5523 1521.45 74 1522 74Z" fill="#262222"/>
<path d="M1567 74C1567.55 74 1568 73.5523 1568 73C1568 72.4477 1567.55 72 1567 72C1566.45 72 1566 72.4477 1566 73C1566 73.5523 1566.45 74 1567 74Z" fill="#262222"/>
<path d="M1612 74C1612.55 74 1613 73.5523 1613 73C1613 72.4477 1612.55 72 1612 72C1611.45 72 1611 72.4477 1611 73C1611 73.5523 1611.45 74 1612 74Z" fill="#262222"/>
<path d="M1657 74C1657.55 74 1658 73.5523 1658 73C1658 72.4477 1657.55 72 1657 72C1656.45 72 1656 72.4477 1656 73C1656 73.5523 1656.45 74 1657 74Z" fill="#262222"/>
<path d="M1702 74C1702.55 74 1703 73.5523 1703 73C1703 72.4477 1702.55 72 1702 72C1701.45 72 1701 72.4477 1701 73C1701 73.5523 1701.45 74 1702 74Z" fill="#262222"/>
<path d="M1747 74C1747.55 74 1748 73.5523 1748 73C1748 72.4477 1747.55 72 1747 72C1746.45 72 1746 72.4477 1746 73C1746 73.5523 1746.45 74 1747 74Z" fill="#262222"/>
<path d="M1792 74C1792.55 74 1793 73.5523 1793 73C1793 72.4477 1792.55 72 1792 72C1791.45 72 1791 72.4477 1791 73C1791 73.5523 1791.45 74 1792 74Z" fill="#262222"/>
<path d="M1837 74C1837.55 74 1838 73.5523 1838 73C1838 72.4477 1837.55 72 1837 72C1836.45 72 1836 72.4477 1836 73C1836 73.5523 1836.45 74 1837 74Z" fill="#262222"/>
<path d="M1882 74C1882.55 74 1883 73.5523 1883 73C1883 72.4477 1882.55 72 1882 72C1881.45 72 1881 72.4477 1881 73C1881 73.5523 1881.45 74 1882 74Z" fill="#262222"/>
<path d="M37 119C37.5523 119 38 118.552 38 118C38 117.448 37.5523 117 37 117C36.4477 117 36 117.448 36 118C36 118.552 36.4477 119 37 119Z" fill="#262222"/>
<path d="M82 119C82.5523 119 83 118.552 83 118C83 117.448 82.5523 117 82 117C81.4477 117 81 117.448 81 118C81 118.552 81.4477 119 82 119Z" fill="#262222"/>
<path d="M127 119C127.552 119 128 118.552 128 118C128 117.448 127.552 117 127 117C126.448 117 126 117.448 126 118C126 118.552 126.448 119 127 119Z" fill="#262222"/>
<path d="M172 119C172.552 119 173 118.552 173 118C173 117.448 172.552 117 172 117C171.448 117 171 117.448 171 118C171 118.552 171.448 119 172 119Z" fill="#262222"/>
<path d="M217 119C217.552 119 218 118.552 218 118C218 117.448 217.552 117 217 117C216.448 117 216 117.448 216 118C216 118.552 216.448 119 217 119Z" fill="#262222"/>
<path d="M262 119C262.552 119 263 118.552 263 118C263 117.448 262.552 117 262 117C261.448 117 261 117.448 261 118C261 118.552 261.448 119 262 119Z" fill="#262222"/>
<path d="M307 119C307.552 119 308 118.552 308 118C308 117.448 307.552 117 307 117C306.448 117 306 117.448 306 118C306 118.552 306.448 119 307 119Z" fill="#262222"/>
<path d="M352 119C352.552 119 353 118.552 353 118C353 117.448 352.552 117 352 117C351.448 117 351 117.448 351 118C351 118.552 351.448 119 352 119Z" fill="#262222"/>
<path d="M397 119C397.552 119 398 118.552 398 118C398 117.448 397.552 117 397 117C396.448 117 396 117.448 396 118C396 118.552 396.448 119 397 119Z" fill="#262222"/>
<path d="M442 119C442.552 119 443 118.552 443 118C443 117.448 442.552 117 442 117C441.448 117 441 117.448 441 118C441 118.552 441.448 119 442 119Z" fill="#262222"/>
<path d="M487 119C487.552 119 488 118.552 488 118C488 117.448 487.552 117 487 117C486.448 117 486 117.448 486 118C486 118.552 486.448 119 487 119Z" fill="#262222"/>
<path d="M532 119C532.552 119 533 118.552 533 118C533 117.448 532.552 117 532 117C531.448 117 531 117.448 531 118C531 118.552 531.448 119 532 119Z" fill="#262222"/>
<path d="M577 119C577.552 119 578 118.552 578 118C578 117.448 577.552 117 577 117C576.448 117 576 117.448 576 118C576 118.552 576.448 119 577 119Z" fill="#262222"/>
<path d="M622 119C622.552 119 623 118.552 623 118C623 117.448 622.552 117 622 117C621.448 117 621 117.448 621 118C621 118.552 621.448 119 622 119Z" fill="#262222"/>
<path d="M667 119C667.552 119 668 118.552 668 118C668 117.448 667.552 117 667 117C666.448 117 666 117.448 666 118C666 118.552 666.448 119 667 119Z" fill="#262222"/>
<path d="M712 119C712.552 119 713 118.552 713 118C713 117.448 712.552 117 712 117C711.448 117 711 117.448 711 118C711 118.552 711.448 119 712 119Z" fill="#262222"/>
<path d="M757 119C757.552 119 758 118.552 758 118C758 117.448 757.552 117 757 117C756.448 117 756 117.448 756 118C756 118.552 756.448 119 757 119Z" fill="#262222"/>
<path d="M802 119C802.552 119 803 118.552 803 118C803 117.448 802.552 117 802 117C801.448 117 801 117.448 801 118C801 118.552 801.448 119 802 119Z" fill="#262222"/>
<path d="M847 119C847.552 119 848 118.552 848 118C848 117.448 847.552 117 847 117C846.448 117 846 117.448 846 118C846 118.552 846.448 119 847 119Z" fill="#262222"/>
<path d="M892 119C892.552 119 893 118.552 893 118C893 117.448 892.552 117 892 117C891.448 117 891 117.448 891 118C891 118.552 891.448 119 892 119Z" fill="#262222"/>
<path d="M937 119C937.552 119 938 118.552 938 118C938 117.448 937.552 117 937 117C936.448 117 936 117.448 936 118C936 118.552 936.448 119 937 119Z" fill="#262222"/>
<path d="M982 119C982.552 119 983 118.552 983 118C983 117.448 982.552 117 982 117C981.448 117 981 117.448 981 118C981 118.552 981.448 119 982 119Z" fill="#262222"/>
<path d="M1027 119C1027.55 119 1028 118.552 1028 118C1028 117.448 1027.55 117 1027 117C1026.45 117 1026 117.448 1026 118C1026 118.552 1026.45 119 1027 119Z" fill="#262222"/>
<path d="M1072 119C1072.55 119 1073 118.552 1073 118C1073 117.448 1072.55 117 1072 117C1071.45 117 1071 117.448 1071 118C1071 118.552 1071.45 119 1072 119Z" fill="#262222"/>
<path d="M1117 119C1117.55 119 1118 118.552 1118 118C1118 117.448 1117.55 117 1117 117C1116.45 117 1116 117.448 1116 118C1116 118.552 1116.45 119 1117 119Z" fill="#262222"/>
<path d="M1162 119C1162.55 119 1163 118.552 1163 118C1163 117.448 1162.55 117 1162 117C1161.45 117 1161 117.448 1161 118C1161 118.552 1161.45 119 1162 119Z" fill="#262222"/>
<path d="M1207 119C1207.55 119 1208 118.552 1208 118C1208 117.448 1207.55 117 1207 117C1206.45 117 1206 117.448 1206 118C1206 118.552 1206.45 119 1207 119Z" fill="#262222"/>
<path d="M1252 119C1252.55 119 1253 118.552 1253 118C1253 117.448 1252.55 117 1252 117C1251.45 117 1251 117.448 1251 118C1251 118.552 1251.45 119 1252 119Z" fill="#262222"/>
<path d="M1297 119C1297.55 119 1298 118.552 1298 118C1298 117.448 1297.55 117 1297 117C1296.45 117 1296 117.448 1296 118C1296 118.552 1296.45 119 1297 119Z" fill="#262222"/>
<path d="M1342 119C1342.55 119 1343 118.552 1343 118C1343 117.448 1342.55 117 1342 117C1341.45 117 1341 117.448 1341 118C1341 118.552 1341.45 119 1342 119Z" fill="#262222"/>
<path d="M1387 119C1387.55 119 1388 118.552 1388 118C1388 117.448 1387.55 117 1387 117C1386.45 117 1386 117.448 1386 118C1386 118.552 1386.45 119 1387 119Z" fill="#262222"/>
<path d="M1432 119C1432.55 119 1433 118.552 1433 118C1433 117.448 1432.55 117 1432 117C1431.45 117 1431 117.448 1431 118C1431 118.552 1431.45 119 1432 119Z" fill="#262222"/>
<path d="M1477 119C1477.55 119 1478 118.552 1478 118C1478 117.448 1477.55 117 1477 117C1476.45 117 1476 117.448 1476 118C1476 118.552 1476.45 119 1477 119Z" fill="#262222"/>
<path d="M1522 119C1522.55 119 1523 118.552 1523 118C1523 117.448 1522.55 117 1522 117C1521.45 117 1521 117.448 1521 118C1521 118.552 1521.45 119 1522 119Z" fill="#262222"/>
<path d="M1567 119C1567.55 119 1568 118.552 1568 118C1568 117.448 1567.55 117 1567 117C1566.45 117 1566 117.448 1566 118C1566 118.552 1566.45 119 1567 119Z" fill="#262222"/>
<path d="M1612 119C1612.55 119 1613 118.552 1613 118C1613 117.448 1612.55 117 1612 117C1611.45 117 1611 117.448 1611 118C1611 118.552 1611.45 119 1612 119Z" fill="#262222"/>
<path d="M1657 119C1657.55 119 1658 118.552 1658 118C1658 117.448 1657.55 117 1657 117C1656.45 117 1656 117.448 1656 118C1656 118.552 1656.45 119 1657 119Z" fill="#262222"/>
<path d="M1702 119C1702.55 119 1703 118.552 1703 118C1703 117.448 1702.55 117 1702 117C1701.45 117 1701 117.448 1701 118C1701 118.552 1701.45 119 1702 119Z" fill="#262222"/>
<path d="M1747 119C1747.55 119 1748 118.552 1748 118C1748 117.448 1747.55 117 1747 117C1746.45 117 1746 117.448 1746 118C1746 118.552 1746.45 119 1747 119Z" fill="#262222"/>
<path d="M1792 119C1792.55 119 1793 118.552 1793 118C1793 117.448 1792.55 117 1792 117C1791.45 117 1791 117.448 1791 118C1791 118.552 1791.45 119 1792 119Z" fill="#262222"/>
<path d="M1837 119C1837.55 119 1838 118.552 1838 118C1838 117.448 1837.55 117 1837 117C1836.45 117 1836 117.448 1836 118C1836 118.552 1836.45 119 1837 119Z" fill="#262222"/>
<path d="M1882 119C1882.55 119 1883 118.552 1883 118C1883 117.448 1882.55 117 1882 117C1881.45 117 1881 117.448 1881 118C1881 118.552 1881.45 119 1882 119Z" fill="#262222"/>
<path d="M37 164C37.5523 164 38 163.552 38 163C38 162.448 37.5523 162 37 162C36.4477 162 36 162.448 36 163C36 163.552 36.4477 164 37 164Z" fill="#262222"/>
<path d="M82 164C82.5523 164 83 163.552 83 163C83 162.448 82.5523 162 82 162C81.4477 162 81 162.448 81 163C81 163.552 81.4477 164 82 164Z" fill="#262222"/>
<path d="M127 164C127.552 164 128 163.552 128 163C128 162.448 127.552 162 127 162C126.448 162 126 162.448 126 163C126 163.552 126.448 164 127 164Z" fill="#262222"/>
<path d="M172 164C172.552 164 173 163.552 173 163C173 162.448 172.552 162 172 162C171.448 162 171 162.448 171 163C171 163.552 171.448 164 172 164Z" fill="#262222"/>
<path d="M217 164C217.552 164 218 163.552 218 163C218 162.448 217.552 162 217 162C216.448 162 216 162.448 216 163C216 163.552 216.448 164 217 164Z" fill="#262222"/>
<path d="M262 164C262.552 164 263 163.552 263 163C263 162.448 262.552 162 262 162C261.448 162 261 162.448 261 163C261 163.552 261.448 164 262 164Z" fill="#262222"/>
<path d="M307 164C307.552 164 308 163.552 308 163C308 162.448 307.552 162 307 162C306.448 162 306 162.448 306 163C306 163.552 306.448 164 307 164Z" fill="#262222"/>
<path d="M352 164C352.552 164 353 163.552 353 163C353 162.448 352.552 162 352 162C351.448 162 351 162.448 351 163C351 163.552 351.448 164 352 164Z" fill="#262222"/>
<path d="M397 164C397.552 164 398 163.552 398 163C398 162.448 397.552 162 397 162C396.448 162 396 162.448 396 163C396 163.552 396.448 164 397 164Z" fill="#262222"/>
<path d="M442 164C442.552 164 443 163.552 443 163C443 162.448 442.552 162 442 162C441.448 162 441 162.448 441 163C441 163.552 441.448 164 442 164Z" fill="#262222"/>
<path d="M487 164C487.552 164 488 163.552 488 163C488 162.448 487.552 162 487 162C486.448 162 486 162.448 486 163C486 163.552 486.448 164 487 164Z" fill="#262222"/>
<path d="M532 164C532.552 164 533 163.552 533 163C533 162.448 532.552 162 532 162C531.448 162 531 162.448 531 163C531 163.552 531.448 164 532 164Z" fill="#262222"/>
<path d="M577 164C577.552 164 578 163.552 578 163C578 162.448 577.552 162 577 162C576.448 162 576 162.448 576 163C576 163.552 576.448 164 577 164Z" fill="#262222"/>
<path d="M622 164C622.552 164 623 163.552 623 163C623 162.448 622.552 162 622 162C621.448 162 621 162.448 621 163C621 163.552 621.448 164 622 164Z" fill="#262222"/>
<path d="M667 164C667.552 164 668 163.552 668 163C668 162.448 667.552 162 667 162C666.448 162 666 162.448 666 163C666 163.552 666.448 164 667 164Z" fill="#262222"/>
<path d="M712 164C712.552 164 713 163.552 713 163C713 162.448 712.552 162 712 162C711.448 162 711 162.448 711 163C711 163.552 711.448 164 712 164Z" fill="#262222"/>
<path d="M757 164C757.552 164 758 163.552 758 163C758 162.448 757.552 162 757 162C756.448 162 756 162.448 756 163C756 163.552 756.448 164 757 164Z" fill="#262222"/>
<path d="M802 164C802.552 164 803 163.552 803 163C803 162.448 802.552 162 802 162C801.448 162 801 162.448 801 163C801 163.552 801.448 164 802 164Z" fill="#262222"/>
<path d="M847 164C847.552 164 848 163.552 848 163C848 162.448 847.552 162 847 162C846.448 162 846 162.448 846 163C846 163.552 846.448 164 847 164Z" fill="#262222"/>
<path d="M892 164C892.552 164 893 163.552 893 163C893 162.448 892.552 162 892 162C891.448 162 891 162.448 891 163C891 163.552 891.448 164 892 164Z" fill="#262222"/>
<path d="M937 164C937.552 164 938 163.552 938 163C938 162.448 937.552 162 937 162C936.448 162 936 162.448 936 163C936 163.552 936.448 164 937 164Z" fill="#262222"/>
<path d="M982 164C982.552 164 983 163.552 983 163C983 162.448 982.552 162 982 162C981.448 162 981 162.448 981 163C981 163.552 981.448 164 982 164Z" fill="#262222"/>
<path d="M1027 164C1027.55 164 1028 163.552 1028 163C1028 162.448 1027.55 162 1027 162C1026.45 162 1026 162.448 1026 163C1026 163.552 1026.45 164 1027 164Z" fill="#262222"/>
<path d="M1072 164C1072.55 164 1073 163.552 1073 163C1073 162.448 1072.55 162 1072 162C1071.45 162 1071 162.448 1071 163C1071 163.552 1071.45 164 1072 164Z" fill="#262222"/>
<path d="M1117 164C1117.55 164 1118 163.552 1118 163C1118 162.448 1117.55 162 1117 162C1116.45 162 1116 162.448 1116 163C1116 163.552 1116.45 164 1117 164Z" fill="#262222"/>
<path d="M1162 164C1162.55 164 1163 163.552 1163 163C1163 162.448 1162.55 162 1162 162C1161.45 162 1161 162.448 1161 163C1161 163.552 1161.45 164 1162 164Z" fill="#262222"/>
<path d="M1207 164C1207.55 164 1208 163.552 1208 163C1208 162.448 1207.55 162 1207 162C1206.45 162 1206 162.448 1206 163C1206 163.552 1206.45 164 1207 164Z" fill="#262222"/>
<path d="M1252 164C1252.55 164 1253 163.552 1253 163C1253 162.448 1252.55 162 1252 162C1251.45 162 1251 162.448 1251 163C1251 163.552 1251.45 164 1252 164Z" fill="#262222"/>
<path d="M1297 164C1297.55 164 1298 163.552 1298 163C1298 162.448 1297.55 162 1297 162C1296.45 162 1296 162.448 1296 163C1296 163.552 1296.45 164 1297 164Z" fill="#262222"/>
<path d="M1342 164C1342.55 164 1343 163.552 1343 163C1343 162.448 1342.55 162 1342 162C1341.45 162 1341 162.448 1341 163C1341 163.552 1341.45 164 1342 164Z" fill="#262222"/>
<path d="M1387 164C1387.55 164 1388 163.552 1388 163C1388 162.448 1387.55 162 1387 162C1386.45 162 1386 162.448 1386 163C1386 163.552 1386.45 164 1387 164Z" fill="#262222"/>
<path d="M1432 164C1432.55 164 1433 163.552 1433 163C1433 162.448 1432.55 162 1432 162C1431.45 162 1431 162.448 1431 163C1431 163.552 1431.45 164 1432 164Z" fill="#262222"/>
<path d="M1477 164C1477.55 164 1478 163.552 1478 163C1478 162.448 1477.55 162 1477 162C1476.45 162 1476 162.448 1476 163C1476 163.552 1476.45 164 1477 164Z" fill="#262222"/>
<path d="M1522 164C1522.55 164 1523 163.552 1523 163C1523 162.448 1522.55 162 1522 162C1521.45 162 1521 162.448 1521 163C1521 163.552 1521.45 164 1522 164Z" fill="#262222"/>
<path d="M1567 164C1567.55 164 1568 163.552 1568 163C1568 162.448 1567.55 162 1567 162C1566.45 162 1566 162.448 1566 163C1566 163.552 1566.45 164 1567 164Z" fill="#262222"/>
<path d="M1612 164C1612.55 164 1613 163.552 1613 163C1613 162.448 1612.55 162 1612 162C1611.45 162 1611 162.448 1611 163C1611 163.552 1611.45 164 1612 164Z" fill="#262222"/>
<path d="M1657 164C1657.55 164 1658 163.552 1658 163C1658 162.448 1657.55 162 1657 162C1656.45 162 1656 162.448 1656 163C1656 163.552 1656.45 164 1657 164Z" fill="#262222"/>
<path d="M1702 164C1702.55 164 1703 163.552 1703 163C1703 162.448 1702.55 162 1702 162C1701.45 162 1701 162.448 1701 163C1701 163.552 1701.45 164 1702 164Z" fill="#262222"/>
<path d="M1747 164C1747.55 164 1748 163.552 1748 163C1748 162.448 1747.55 162 1747 162C1746.45 162 1746 162.448 1746 163C1746 163.552 1746.45 164 1747 164Z" fill="#262222"/>
<path d="M1792 164C1792.55 164 1793 163.552 1793 163C1793 162.448 1792.55 162 1792 162C1791.45 162 1791 162.448 1791 163C1791 163.552 1791.45 164 1792 164Z" fill="#262222"/>
<path d="M1837 164C1837.55 164 1838 163.552 1838 163C1838 162.448 1837.55 162 1837 162C1836.45 162 1836 162.448 1836 163C1836 163.552 1836.45 164 1837 164Z" fill="#262222"/>
<path d="M1882 164C1882.55 164 1883 163.552 1883 163C1883 162.448 1882.55 162 1882 162C1881.45 162 1881 162.448 1881 163C1881 163.552 1881.45 164 1882 164Z" fill="#262222"/>
<path d="M37 209C37.5523 209 38 208.552 38 208C38 207.448 37.5523 207 37 207C36.4477 207 36 207.448 36 208C36 208.552 36.4477 209 37 209Z" fill="#262222"/>
<path d="M82 209C82.5523 209 83 208.552 83 208C83 207.448 82.5523 207 82 207C81.4477 207 81 207.448 81 208C81 208.552 81.4477 209 82 209Z" fill="#262222"/>
<path d="M127 209C127.552 209 128 208.552 128 208C128 207.448 127.552 207 127 207C126.448 207 126 207.448 126 208C126 208.552 126.448 209 127 209Z" fill="#262222"/>
<path d="M172 209C172.552 209 173 208.552 173 208C173 207.448 172.552 207 172 207C171.448 207 171 207.448 171 208C171 208.552 171.448 209 172 209Z" fill="#262222"/>
<path d="M217 209C217.552 209 218 208.552 218 208C218 207.448 217.552 207 217 207C216.448 207 216 207.448 216 208C216 208.552 216.448 209 217 209Z" fill="#262222"/>
<path d="M262 209C262.552 209 263 208.552 263 208C263 207.448 262.552 207 262 207C261.448 207 261 207.448 261 208C261 208.552 261.448 209 262 209Z" fill="#262222"/>
<path d="M307 209C307.552 209 308 208.552 308 208C308 207.448 307.552 207 307 207C306.448 207 306 207.448 306 208C306 208.552 306.448 209 307 209Z" fill="#262222"/>
<path d="M352 209C352.552 209 353 208.552 353 208C353 207.448 352.552 207 352 207C351.448 207 351 207.448 351 208C351 208.552 351.448 209 352 209Z" fill="#262222"/>
<path d="M397 209C397.552 209 398 208.552 398 208C398 207.448 397.552 207 397 207C396.448 207 396 207.448 396 208C396 208.552 396.448 209 397 209Z" fill="#262222"/>
<path d="M442 209C442.552 209 443 208.552 443 208C443 207.448 442.552 207 442 207C441.448 207 441 207.448 441 208C441 208.552 441.448 209 442 209Z" fill="#262222"/>
<path d="M487 209C487.552 209 488 208.552 488 208C488 207.448 487.552 207 487 207C486.448 207 486 207.448 486 208C486 208.552 486.448 209 487 209Z" fill="#262222"/>
<path d="M532 209C532.552 209 533 208.552 533 208C533 207.448 532.552 207 532 207C531.448 207 531 207.448 531 208C531 208.552 531.448 209 532 209Z" fill="#262222"/>
<path d="M577 209C577.552 209 578 208.552 578 208C578 207.448 577.552 207 577 207C576.448 207 576 207.448 576 208C576 208.552 576.448 209 577 209Z" fill="#262222"/>
<path d="M622 209C622.552 209 623 208.552 623 208C623 207.448 622.552 207 622 207C621.448 207 621 207.448 621 208C621 208.552 621.448 209 622 209Z" fill="#262222"/>
<path d="M667 209C667.552 209 668 208.552 668 208C668 207.448 667.552 207 667 207C666.448 207 666 207.448 666 208C666 208.552 666.448 209 667 209Z" fill="#262222"/>
<path d="M712 209C712.552 209 713 208.552 713 208C713 207.448 712.552 207 712 207C711.448 207 711 207.448 711 208C711 208.552 711.448 209 712 209Z" fill="#262222"/>
<path d="M757 209C757.552 209 758 208.552 758 208C758 207.448 757.552 207 757 207C756.448 207 756 207.448 756 208C756 208.552 756.448 209 757 209Z" fill="#262222"/>
<path d="M802 209C802.552 209 803 208.552 803 208C803 207.448 802.552 207 802 207C801.448 207 801 207.448 801 208C801 208.552 801.448 209 802 209Z" fill="#262222"/>
<path d="M847 209C847.552 209 848 208.552 848 208C848 207.448 847.552 207 847 207C846.448 207 846 207.448 846 208C846 208.552 846.448 209 847 209Z" fill="#262222"/>
<path d="M892 209C892.552 209 893 208.552 893 208C893 207.448 892.552 207 892 207C891.448 207 891 207.448 891 208C891 208.552 891.448 209 892 209Z" fill="#262222"/>
<path d="M937 209C937.552 209 938 208.552 938 208C938 207.448 937.552 207 937 207C936.448 207 936 207.448 936 208C936 208.552 936.448 209 937 209Z" fill="#262222"/>
<path d="M982 209C982.552 209 983 208.552 983 208C983 207.448 982.552 207 982 207C981.448 207 981 207.448 981 208C981 208.552 981.448 209 982 209Z" fill="#262222"/>
<path d="M1027 209C1027.55 209 1028 208.552 1028 208C1028 207.448 1027.55 207 1027 207C1026.45 207 1026 207.448 1026 208C1026 208.552 1026.45 209 1027 209Z" fill="#262222"/>
<path d="M1072 209C1072.55 209 1073 208.552 1073 208C1073 207.448 1072.55 207 1072 207C1071.45 207 1071 207.448 1071 208C1071 208.552 1071.45 209 1072 209Z" fill="#262222"/>
<path d="M1117 209C1117.55 209 1118 208.552 1118 208C1118 207.448 1117.55 207 1117 207C1116.45 207 1116 207.448 1116 208C1116 208.552 1116.45 209 1117 209Z" fill="#262222"/>
<path d="M1162 209C1162.55 209 1163 208.552 1163 208C1163 207.448 1162.55 207 1162 207C1161.45 207 1161 207.448 1161 208C1161 208.552 1161.45 209 1162 209Z" fill="#262222"/>
<path d="M1207 209C1207.55 209 1208 208.552 1208 208C1208 207.448 1207.55 207 1207 207C1206.45 207 1206 207.448 1206 208C1206 208.552 1206.45 209 1207 209Z" fill="#262222"/>
<path d="M1252 209C1252.55 209 1253 208.552 1253 208C1253 207.448 1252.55 207 1252 207C1251.45 207 1251 207.448 1251 208C1251 208.552 1251.45 209 1252 209Z" fill="#262222"/>
<path d="M1297 209C1297.55 209 1298 208.552 1298 208C1298 207.448 1297.55 207 1297 207C1296.45 207 1296 207.448 1296 208C1296 208.552 1296.45 209 1297 209Z" fill="#262222"/>
<path d="M1342 209C1342.55 209 1343 208.552 1343 208C1343 207.448 1342.55 207 1342 207C1341.45 207 1341 207.448 1341 208C1341 208.552 1341.45 209 1342 209Z" fill="#262222"/>
<path d="M1387 209C1387.55 209 1388 208.552 1388 208C1388 207.448 1387.55 207 1387 207C1386.45 207 1386 207.448 1386 208C1386 208.552 1386.45 209 1387 209Z" fill="#262222"/>
<path d="M1432 209C1432.55 209 1433 208.552 1433 208C1433 207.448 1432.55 207 1432 207C1431.45 207 1431 207.448 1431 208C1431 208.552 1431.45 209 1432 209Z" fill="#262222"/>
<path d="M1477 209C1477.55 209 1478 208.552 1478 208C1478 207.448 1477.55 207 1477 207C1476.45 207 1476 207.448 1476 208C1476 208.552 1476.45 209 1477 209Z" fill="#262222"/>
<path d="M1522 209C1522.55 209 1523 208.552 1523 208C1523 207.448 1522.55 207 1522 207C1521.45 207 1521 207.448 1521 208C1521 208.552 1521.45 209 1522 209Z" fill="#262222"/>
<path d="M1567 209C1567.55 209 1568 208.552 1568 208C1568 207.448 1567.55 207 1567 207C1566.45 207 1566 207.448 1566 208C1566 208.552 1566.45 209 1567 209Z" fill="#262222"/>
<path d="M1612 209C1612.55 209 1613 208.552 1613 208C1613 207.448 1612.55 207 1612 207C1611.45 207 1611 207.448 1611 208C1611 208.552 1611.45 209 1612 209Z" fill="#262222"/>
<path d="M1657 209C1657.55 209 1658 208.552 1658 208C1658 207.448 1657.55 207 1657 207C1656.45 207 1656 207.448 1656 208C1656 208.552 1656.45 209 1657 209Z" fill="#262222"/>
<path d="M1702 209C1702.55 209 1703 208.552 1703 208C1703 207.448 1702.55 207 1702 207C1701.45 207 1701 207.448 1701 208C1701 208.552 1701.45 209 1702 209Z" fill="#262222"/>
<path d="M1747 209C1747.55 209 1748 208.552 1748 208C1748 207.448 1747.55 207 1747 207C1746.45 207 1746 207.448 1746 208C1746 208.552 1746.45 209 1747 209Z" fill="#262222"/>
<path d="M1792 209C1792.55 209 1793 208.552 1793 208C1793 207.448 1792.55 207 1792 207C1791.45 207 1791 207.448 1791 208C1791 208.552 1791.45 209 1792 209Z" fill="#262222"/>
<path d="M1837 209C1837.55 209 1838 208.552 1838 208C1838 207.448 1837.55 207 1837 207C1836.45 207 1836 207.448 1836 208C1836 208.552 1836.45 209 1837 209Z" fill="#262222"/>
<path d="M1882 209C1882.55 209 1883 208.552 1883 208C1883 207.448 1882.55 207 1882 207C1881.45 207 1881 207.448 1881 208C1881 208.552 1881.45 209 1882 209Z" fill="#262222"/>
<path d="M37 254C37.5523 254 38 253.552 38 253C38 252.448 37.5523 252 37 252C36.4477 252 36 252.448 36 253C36 253.552 36.4477 254 37 254Z" fill="#262222"/>
<path d="M82 254C82.5523 254 83 253.552 83 253C83 252.448 82.5523 252 82 252C81.4477 252 81 252.448 81 253C81 253.552 81.4477 254 82 254Z" fill="#262222"/>
<path d="M127 254C127.552 254 128 253.552 128 253C128 252.448 127.552 252 127 252C126.448 252 126 252.448 126 253C126 253.552 126.448 254 127 254Z" fill="#262222"/>
<path d="M172 254C172.552 254 173 253.552 173 253C173 252.448 172.552 252 172 252C171.448 252 171 252.448 171 253C171 253.552 171.448 254 172 254Z" fill="#262222"/>
<path d="M217 254C217.552 254 218 253.552 218 253C218 252.448 217.552 252 217 252C216.448 252 216 252.448 216 253C216 253.552 216.448 254 217 254Z" fill="#262222"/>
<path d="M262 254C262.552 254 263 253.552 263 253C263 252.448 262.552 252 262 252C261.448 252 261 252.448 261 253C261 253.552 261.448 254 262 254Z" fill="#262222"/>
<path d="M307 254C307.552 254 308 253.552 308 253C308 252.448 307.552 252 307 252C306.448 252 306 252.448 306 253C306 253.552 306.448 254 307 254Z" fill="#262222"/>
<path d="M352 254C352.552 254 353 253.552 353 253C353 252.448 352.552 252 352 252C351.448 252 351 252.448 351 253C351 253.552 351.448 254 352 254Z" fill="#262222"/>
<path d="M397 254C397.552 254 398 253.552 398 253C398 252.448 397.552 252 397 252C396.448 252 396 252.448 396 253C396 253.552 396.448 254 397 254Z" fill="#262222"/>
<path d="M442 254C442.552 254 443 253.552 443 253C443 252.448 442.552 252 442 252C441.448 252 441 252.448 441 253C441 253.552 441.448 254 442 254Z" fill="#262222"/>
<path d="M487 254C487.552 254 488 253.552 488 253C488 252.448 487.552 252 487 252C486.448 252 486 252.448 486 253C486 253.552 486.448 254 487 254Z" fill="#262222"/>
<path d="M532 254C532.552 254 533 253.552 533 253C533 252.448 532.552 252 532 252C531.448 252 531 252.448 531 253C531 253.552 531.448 254 532 254Z" fill="#262222"/>
<path d="M577 254C577.552 254 578 253.552 578 253C578 252.448 577.552 252 577 252C576.448 252 576 252.448 576 253C576 253.552 576.448 254 577 254Z" fill="#262222"/>
<path d="M622 254C622.552 254 623 253.552 623 253C623 252.448 622.552 252 622 252C621.448 252 621 252.448 621 253C621 253.552 621.448 254 622 254Z" fill="#262222"/>
<path d="M667 254C667.552 254 668 253.552 668 253C668 252.448 667.552 252 667 252C666.448 252 666 252.448 666 253C666 253.552 666.448 254 667 254Z" fill="#262222"/>
<path d="M712 254C712.552 254 713 253.552 713 253C713 252.448 712.552 252 712 252C711.448 252 711 252.448 711 253C711 253.552 711.448 254 712 254Z" fill="#262222"/>
<path d="M757 254C757.552 254 758 253.552 758 253C758 252.448 757.552 252 757 252C756.448 252 756 252.448 756 253C756 253.552 756.448 254 757 254Z" fill="#262222"/>
<path d="M802 254C802.552 254 803 253.552 803 253C803 252.448 802.552 252 802 252C801.448 252 801 252.448 801 253C801 253.552 801.448 254 802 254Z" fill="#262222"/>
<path d="M847 254C847.552 254 848 253.552 848 253C848 252.448 847.552 252 847 252C846.448 252 846 252.448 846 253C846 253.552 846.448 254 847 254Z" fill="#262222"/>
<path d="M892 254C892.552 254 893 253.552 893 253C893 252.448 892.552 252 892 252C891.448 252 891 252.448 891 253C891 253.552 891.448 254 892 254Z" fill="#262222"/>
<path d="M937 254C937.552 254 938 253.552 938 253C938 252.448 937.552 252 937 252C936.448 252 936 252.448 936 253C936 253.552 936.448 254 937 254Z" fill="#262222"/>
<path d="M982 254C982.552 254 983 253.552 983 253C983 252.448 982.552 252 982 252C981.448 252 981 252.448 981 253C981 253.552 981.448 254 982 254Z" fill="#262222"/>
<path d="M1027 254C1027.55 254 1028 253.552 1028 253C1028 252.448 1027.55 252 1027 252C1026.45 252 1026 252.448 1026 253C1026 253.552 1026.45 254 1027 254Z" fill="#262222"/>
<path d="M1072 254C1072.55 254 1073 253.552 1073 253C1073 252.448 1072.55 252 1072 252C1071.45 252 1071 252.448 1071 253C1071 253.552 1071.45 254 1072 254Z" fill="#262222"/>
<path d="M1117 254C1117.55 254 1118 253.552 1118 253C1118 252.448 1117.55 252 1117 252C1116.45 252 1116 252.448 1116 253C1116 253.552 1116.45 254 1117 254Z" fill="#262222"/>
<path d="M1162 254C1162.55 254 1163 253.552 1163 253C1163 252.448 1162.55 252 1162 252C1161.45 252 1161 252.448 1161 253C1161 253.552 1161.45 254 1162 254Z" fill="#262222"/>
<path d="M1207 254C1207.55 254 1208 253.552 1208 253C1208 252.448 1207.55 252 1207 252C1206.45 252 1206 252.448 1206 253C1206 253.552 1206.45 254 1207 254Z" fill="#262222"/>
<path d="M1252 254C1252.55 254 1253 253.552 1253 253C1253 252.448 1252.55 252 1252 252C1251.45 252 1251 252.448 1251 253C1251 253.552 1251.45 254 1252 254Z" fill="#262222"/>
<path d="M1297 254C1297.55 254 1298 253.552 1298 253C1298 252.448 1297.55 252 1297 252C1296.45 252 1296 252.448 1296 253C1296 253.552 1296.45 254 1297 254Z" fill="#262222"/>
<path d="M1342 254C1342.55 254 1343 253.552 1343 253C1343 252.448 1342.55 252 1342 252C1341.45 252 1341 252.448 1341 253C1341 253.552 1341.45 254 1342 254Z" fill="#262222"/>
<path d="M1387 254C1387.55 254 1388 253.552 1388 253C1388 252.448 1387.55 252 1387 252C1386.45 252 1386 252.448 1386 253C1386 253.552 1386.45 254 1387 254Z" fill="#262222"/>
<path d="M1432 254C1432.55 254 1433 253.552 1433 253C1433 252.448 1432.55 252 1432 252C1431.45 252 1431 252.448 1431 253C1431 253.552 1431.45 254 1432 254Z" fill="#262222"/>
<path d="M1477 254C1477.55 254 1478 253.552 1478 253C1478 252.448 1477.55 252 1477 252C1476.45 252 1476 252.448 1476 253C1476 253.552 1476.45 254 1477 254Z" fill="#262222"/>
<path d="M1522 254C1522.55 254 1523 253.552 1523 253C1523 252.448 1522.55 252 1522 252C1521.45 252 1521 252.448 1521 253C1521 253.552 1521.45 254 1522 254Z" fill="#262222"/>
<path d="M1567 254C1567.55 254 1568 253.552 1568 253C1568 252.448 1567.55 252 1567 252C1566.45 252 1566 252.448 1566 253C1566 253.552 1566.45 254 1567 254Z" fill="#262222"/>
<path d="M1612 254C1612.55 254 1613 253.552 1613 253C1613 252.448 1612.55 252 1612 252C1611.45 252 1611 252.448 1611 253C1611 253.552 1611.45 254 1612 254Z" fill="#262222"/>
<path d="M1657 254C1657.55 254 1658 253.552 1658 253C1658 252.448 1657.55 252 1657 252C1656.45 252 1656 252.448 1656 253C1656 253.552 1656.45 254 1657 254Z" fill="#262222"/>
<path d="M1702 254C1702.55 254 1703 253.552 1703 253C1703 252.448 1702.55 252 1702 252C1701.45 252 1701 252.448 1701 253C1701 253.552 1701.45 254 1702 254Z" fill="#262222"/>
<path d="M1747 254C1747.55 254 1748 253.552 1748 253C1748 252.448 1747.55 252 1747 252C1746.45 252 1746 252.448 1746 253C1746 253.552 1746.45 254 1747 254Z" fill="#262222"/>
<path d="M1792 254C1792.55 254 1793 253.552 1793 253C1793 252.448 1792.55 252 1792 252C1791.45 252 1791 252.448 1791 253C1791 253.552 1791.45 254 1792 254Z" fill="#262222"/>
<path d="M1837 254C1837.55 254 1838 253.552 1838 253C1838 252.448 1837.55 252 1837 252C1836.45 252 1836 252.448 1836 253C1836 253.552 1836.45 254 1837 254Z" fill="#262222"/>
<path d="M1882 254C1882.55 254 1883 253.552 1883 253C1883 252.448 1882.55 252 1882 252C1881.45 252 1881 252.448 1881 253C1881 253.552 1881.45 254 1882 254Z" fill="#262222"/>
<path d="M37 299C37.5523 299 38 298.552 38 298C38 297.448 37.5523 297 37 297C36.4477 297 36 297.448 36 298C36 298.552 36.4477 299 37 299Z" fill="#262222"/>
<path d="M82 299C82.5523 299 83 298.552 83 298C83 297.448 82.5523 297 82 297C81.4477 297 81 297.448 81 298C81 298.552 81.4477 299 82 299Z" fill="#262222"/>
<path d="M127 299C127.552 299 128 298.552 128 298C128 297.448 127.552 297 127 297C126.448 297 126 297.448 126 298C126 298.552 126.448 299 127 299Z" fill="#262222"/>
<path d="M172 299C172.552 299 173 298.552 173 298C173 297.448 172.552 297 172 297C171.448 297 171 297.448 171 298C171 298.552 171.448 299 172 299Z" fill="#262222"/>
<path d="M217 299C217.552 299 218 298.552 218 298C218 297.448 217.552 297 217 297C216.448 297 216 297.448 216 298C216 298.552 216.448 299 217 299Z" fill="#262222"/>
<path d="M262 299C262.552 299 263 298.552 263 298C263 297.448 262.552 297 262 297C261.448 297 261 297.448 261 298C261 298.552 261.448 299 262 299Z" fill="#262222"/>
<path d="M307 299C307.552 299 308 298.552 308 298C308 297.448 307.552 297 307 297C306.448 297 306 297.448 306 298C306 298.552 306.448 299 307 299Z" fill="#262222"/>
<path d="M352 299C352.552 299 353 298.552 353 298C353 297.448 352.552 297 352 297C351.448 297 351 297.448 351 298C351 298.552 351.448 299 352 299Z" fill="#262222"/>
<path d="M397 299C397.552 299 398 298.552 398 298C398 297.448 397.552 297 397 297C396.448 297 396 297.448 396 298C396 298.552 396.448 299 397 299Z" fill="#262222"/>
<path d="M442 299C442.552 299 443 298.552 443 298C443 297.448 442.552 297 442 297C441.448 297 441 297.448 441 298C441 298.552 441.448 299 442 299Z" fill="#262222"/>
<path d="M487 299C487.552 299 488 298.552 488 298C488 297.448 487.552 297 487 297C486.448 297 486 297.448 486 298C486 298.552 486.448 299 487 299Z" fill="#262222"/>
<path d="M532 299C532.552 299 533 298.552 533 298C533 297.448 532.552 297 532 297C531.448 297 531 297.448 531 298C531 298.552 531.448 299 532 299Z" fill="#262222"/>
<path d="M577 299C577.552 299 578 298.552 578 298C578 297.448 577.552 297 577 297C576.448 297 576 297.448 576 298C576 298.552 576.448 299 577 299Z" fill="#262222"/>
<path d="M622 299C622.552 299 623 298.552 623 298C623 297.448 622.552 297 622 297C621.448 297 621 297.448 621 298C621 298.552 621.448 299 622 299Z" fill="#262222"/>
<path d="M667 299C667.552 299 668 298.552 668 298C668 297.448 667.552 297 667 297C666.448 297 666 297.448 666 298C666 298.552 666.448 299 667 299Z" fill="#262222"/>
<path d="M712 299C712.552 299 713 298.552 713 298C713 297.448 712.552 297 712 297C711.448 297 711 297.448 711 298C711 298.552 711.448 299 712 299Z" fill="#262222"/>
<path d="M757 299C757.552 299 758 298.552 758 298C758 297.448 757.552 297 757 297C756.448 297 756 297.448 756 298C756 298.552 756.448 299 757 299Z" fill="#262222"/>
<path d="M802 299C802.552 299 803 298.552 803 298C803 297.448 802.552 297 802 297C801.448 297 801 297.448 801 298C801 298.552 801.448 299 802 299Z" fill="#262222"/>
<path d="M847 299C847.552 299 848 298.552 848 298C848 297.448 847.552 297 847 297C846.448 297 846 297.448 846 298C846 298.552 846.448 299 847 299Z" fill="#262222"/>
<path d="M892 299C892.552 299 893 298.552 893 298C893 297.448 892.552 297 892 297C891.448 297 891 297.448 891 298C891 298.552 891.448 299 892 299Z" fill="#262222"/>
<path d="M937 299C937.552 299 938 298.552 938 298C938 297.448 937.552 297 937 297C936.448 297 936 297.448 936 298C936 298.552 936.448 299 937 299Z" fill="#262222"/>
<path d="M982 299C982.552 299 983 298.552 983 298C983 297.448 982.552 297 982 297C981.448 297 981 297.448 981 298C981 298.552 981.448 299 982 299Z" fill="#262222"/>
<path d="M1027 299C1027.55 299 1028 298.552 1028 298C1028 297.448 1027.55 297 1027 297C1026.45 297 1026 297.448 1026 298C1026 298.552 1026.45 299 1027 299Z" fill="#262222"/>
<path d="M1072 299C1072.55 299 1073 298.552 1073 298C1073 297.448 1072.55 297 1072 297C1071.45 297 1071 297.448 1071 298C1071 298.552 1071.45 299 1072 299Z" fill="#262222"/>
<path d="M1117 299C1117.55 299 1118 298.552 1118 298C1118 297.448 1117.55 297 1117 297C1116.45 297 1116 297.448 1116 298C1116 298.552 1116.45 299 1117 299Z" fill="#262222"/>
<path d="M1162 299C1162.55 299 1163 298.552 1163 298C1163 297.448 1162.55 297 1162 297C1161.45 297 1161 297.448 1161 298C1161 298.552 1161.45 299 1162 299Z" fill="#262222"/>
<path d="M1207 299C1207.55 299 1208 298.552 1208 298C1208 297.448 1207.55 297 1207 297C1206.45 297 1206 297.448 1206 298C1206 298.552 1206.45 299 1207 299Z" fill="#262222"/>
<path d="M1252 299C1252.55 299 1253 298.552 1253 298C1253 297.448 1252.55 297 1252 297C1251.45 297 1251 297.448 1251 298C1251 298.552 1251.45 299 1252 299Z" fill="#262222"/>
<path d="M1297 299C1297.55 299 1298 298.552 1298 298C1298 297.448 1297.55 297 1297 297C1296.45 297 1296 297.448 1296 298C1296 298.552 1296.45 299 1297 299Z" fill="#262222"/>
<path d="M1342 299C1342.55 299 1343 298.552 1343 298C1343 297.448 1342.55 297 1342 297C1341.45 297 1341 297.448 1341 298C1341 298.552 1341.45 299 1342 299Z" fill="#262222"/>
<path d="M1387 299C1387.55 299 1388 298.552 1388 298C1388 297.448 1387.55 297 1387 297C1386.45 297 1386 297.448 1386 298C1386 298.552 1386.45 299 1387 299Z" fill="#262222"/>
<path d="M1432 299C1432.55 299 1433 298.552 1433 298C1433 297.448 1432.55 297 1432 297C1431.45 297 1431 297.448 1431 298C1431 298.552 1431.45 299 1432 299Z" fill="#262222"/>
<path d="M1477 299C1477.55 299 1478 298.552 1478 298C1478 297.448 1477.55 297 1477 297C1476.45 297 1476 297.448 1476 298C1476 298.552 1476.45 299 1477 299Z" fill="#262222"/>
<path d="M1522 299C1522.55 299 1523 298.552 1523 298C1523 297.448 1522.55 297 1522 297C1521.45 297 1521 297.448 1521 298C1521 298.552 1521.45 299 1522 299Z" fill="#262222"/>
<path d="M1567 299C1567.55 299 1568 298.552 1568 298C1568 297.448 1567.55 297 1567 297C1566.45 297 1566 297.448 1566 298C1566 298.552 1566.45 299 1567 299Z" fill="#262222"/>
<path d="M1612 299C1612.55 299 1613 298.552 1613 298C1613 297.448 1612.55 297 1612 297C1611.45 297 1611 297.448 1611 298C1611 298.552 1611.45 299 1612 299Z" fill="#262222"/>
<path d="M1657 299C1657.55 299 1658 298.552 1658 298C1658 297.448 1657.55 297 1657 297C1656.45 297 1656 297.448 1656 298C1656 298.552 1656.45 299 1657 299Z" fill="#262222"/>
<path d="M1702 299C1702.55 299 1703 298.552 1703 298C1703 297.448 1702.55 297 1702 297C1701.45 297 1701 297.448 1701 298C1701 298.552 1701.45 299 1702 299Z" fill="#262222"/>
<path d="M1747 299C1747.55 299 1748 298.552 1748 298C1748 297.448 1747.55 297 1747 297C1746.45 297 1746 297.448 1746 298C1746 298.552 1746.45 299 1747 299Z" fill="#262222"/>
<path d="M1792 299C1792.55 299 1793 298.552 1793 298C1793 297.448 1792.55 297 1792 297C1791.45 297 1791 297.448 1791 298C1791 298.552 1791.45 299 1792 299Z" fill="#262222"/>
<path d="M1837 299C1837.55 299 1838 298.552 1838 298C1838 297.448 1837.55 297 1837 297C1836.45 297 1836 297.448 1836 298C1836 298.552 1836.45 299 1837 299Z" fill="#262222"/>
<path d="M1882 299C1882.55 299 1883 298.552 1883 298C1883 297.448 1882.55 297 1882 297C1881.45 297 1881 297.448 1881 298C1881 298.552 1881.45 299 1882 299Z" fill="#262222"/>
<path d="M37 344C37.5523 344 38 343.552 38 343C38 342.448 37.5523 342 37 342C36.4477 342 36 342.448 36 343C36 343.552 36.4477 344 37 344Z" fill="#262222"/>
<path d="M82 344C82.5523 344 83 343.552 83 343C83 342.448 82.5523 342 82 342C81.4477 342 81 342.448 81 343C81 343.552 81.4477 344 82 344Z" fill="#262222"/>
<path d="M127 344C127.552 344 128 343.552 128 343C128 342.448 127.552 342 127 342C126.448 342 126 342.448 126 343C126 343.552 126.448 344 127 344Z" fill="#262222"/>
<path d="M172 344C172.552 344 173 343.552 173 343C173 342.448 172.552 342 172 342C171.448 342 171 342.448 171 343C171 343.552 171.448 344 172 344Z" fill="#262222"/>
<path d="M217 344C217.552 344 218 343.552 218 343C218 342.448 217.552 342 217 342C216.448 342 216 342.448 216 343C216 343.552 216.448 344 217 344Z" fill="#262222"/>
<path d="M262 344C262.552 344 263 343.552 263 343C263 342.448 262.552 342 262 342C261.448 342 261 342.448 261 343C261 343.552 261.448 344 262 344Z" fill="#262222"/>
<path d="M307 344C307.552 344 308 343.552 308 343C308 342.448 307.552 342 307 342C306.448 342 306 342.448 306 343C306 343.552 306.448 344 307 344Z" fill="#262222"/>
<path d="M352 344C352.552 344 353 343.552 353 343C353 342.448 352.552 342 352 342C351.448 342 351 342.448 351 343C351 343.552 351.448 344 352 344Z" fill="#262222"/>
<path d="M397 344C397.552 344 398 343.552 398 343C398 342.448 397.552 342 397 342C396.448 342 396 342.448 396 343C396 343.552 396.448 344 397 344Z" fill="#262222"/>
<path d="M442 344C442.552 344 443 343.552 443 343C443 342.448 442.552 342 442 342C441.448 342 441 342.448 441 343C441 343.552 441.448 344 442 344Z" fill="#262222"/>
<path d="M487 344C487.552 344 488 343.552 488 343C488 342.448 487.552 342 487 342C486.448 342 486 342.448 486 343C486 343.552 486.448 344 487 344Z" fill="#262222"/>
<path d="M532 344C532.552 344 533 343.552 533 343C533 342.448 532.552 342 532 342C531.448 342 531 342.448 531 343C531 343.552 531.448 344 532 344Z" fill="#262222"/>
<path d="M577 344C577.552 344 578 343.552 578 343C578 342.448 577.552 342 577 342C576.448 342 576 342.448 576 343C576 343.552 576.448 344 577 344Z" fill="#262222"/>
<path d="M622 344C622.552 344 623 343.552 623 343C623 342.448 622.552 342 622 342C621.448 342 621 342.448 621 343C621 343.552 621.448 344 622 344Z" fill="#262222"/>
<path d="M667 344C667.552 344 668 343.552 668 343C668 342.448 667.552 342 667 342C666.448 342 666 342.448 666 343C666 343.552 666.448 344 667 344Z" fill="#262222"/>
<path d="M712 344C712.552 344 713 343.552 713 343C713 342.448 712.552 342 712 342C711.448 342 711 342.448 711 343C711 343.552 711.448 344 712 344Z" fill="#262222"/>
<path d="M757 344C757.552 344 758 343.552 758 343C758 342.448 757.552 342 757 342C756.448 342 756 342.448 756 343C756 343.552 756.448 344 757 344Z" fill="#262222"/>
<path d="M802 344C802.552 344 803 343.552 803 343C803 342.448 802.552 342 802 342C801.448 342 801 342.448 801 343C801 343.552 801.448 344 802 344Z" fill="#262222"/>
<path d="M847 344C847.552 344 848 343.552 848 343C848 342.448 847.552 342 847 342C846.448 342 846 342.448 846 343C846 343.552 846.448 344 847 344Z" fill="#262222"/>
<path d="M892 344C892.552 344 893 343.552 893 343C893 342.448 892.552 342 892 342C891.448 342 891 342.448 891 343C891 343.552 891.448 344 892 344Z" fill="#262222"/>
<path d="M937 344C937.552 344 938 343.552 938 343C938 342.448 937.552 342 937 342C936.448 342 936 342.448 936 343C936 343.552 936.448 344 937 344Z" fill="#262222"/>
<path d="M982 344C982.552 344 983 343.552 983 343C983 342.448 982.552 342 982 342C981.448 342 981 342.448 981 343C981 343.552 981.448 344 982 344Z" fill="#262222"/>
<path d="M1027 344C1027.55 344 1028 343.552 1028 343C1028 342.448 1027.55 342 1027 342C1026.45 342 1026 342.448 1026 343C1026 343.552 1026.45 344 1027 344Z" fill="#262222"/>
<path d="M1072 344C1072.55 344 1073 343.552 1073 343C1073 342.448 1072.55 342 1072 342C1071.45 342 1071 342.448 1071 343C1071 343.552 1071.45 344 1072 344Z" fill="#262222"/>
<path d="M1117 344C1117.55 344 1118 343.552 1118 343C1118 342.448 1117.55 342 1117 342C1116.45 342 1116 342.448 1116 343C1116 343.552 1116.45 344 1117 344Z" fill="#262222"/>
<path d="M1162 344C1162.55 344 1163 343.552 1163 343C1163 342.448 1162.55 342 1162 342C1161.45 342 1161 342.448 1161 343C1161 343.552 1161.45 344 1162 344Z" fill="#262222"/>
<path d="M1207 344C1207.55 344 1208 343.552 1208 343C1208 342.448 1207.55 342 1207 342C1206.45 342 1206 342.448 1206 343C1206 343.552 1206.45 344 1207 344Z" fill="#262222"/>
<path d="M1252 344C1252.55 344 1253 343.552 1253 343C1253 342.448 1252.55 342 1252 342C1251.45 342 1251 342.448 1251 343C1251 343.552 1251.45 344 1252 344Z" fill="#262222"/>
<path d="M1297 344C1297.55 344 1298 343.552 1298 343C1298 342.448 1297.55 342 1297 342C1296.45 342 1296 342.448 1296 343C1296 343.552 1296.45 344 1297 344Z" fill="#262222"/>
<path d="M1342 344C1342.55 344 1343 343.552 1343 343C1343 342.448 1342.55 342 1342 342C1341.45 342 1341 342.448 1341 343C1341 343.552 1341.45 344 1342 344Z" fill="#262222"/>
<path d="M1387 344C1387.55 344 1388 343.552 1388 343C1388 342.448 1387.55 342 1387 342C1386.45 342 1386 342.448 1386 343C1386 343.552 1386.45 344 1387 344Z" fill="#262222"/>
<path d="M1432 344C1432.55 344 1433 343.552 1433 343C1433 342.448 1432.55 342 1432 342C1431.45 342 1431 342.448 1431 343C1431 343.552 1431.45 344 1432 344Z" fill="#262222"/>
<path d="M1477 344C1477.55 344 1478 343.552 1478 343C1478 342.448 1477.55 342 1477 342C1476.45 342 1476 342.448 1476 343C1476 343.552 1476.45 344 1477 344Z" fill="#262222"/>
<path d="M1522 344C1522.55 344 1523 343.552 1523 343C1523 342.448 1522.55 342 1522 342C1521.45 342 1521 342.448 1521 343C1521 343.552 1521.45 344 1522 344Z" fill="#262222"/>
<path d="M1567 344C1567.55 344 1568 343.552 1568 343C1568 342.448 1567.55 342 1567 342C1566.45 342 1566 342.448 1566 343C1566 343.552 1566.45 344 1567 344Z" fill="#262222"/>
<path d="M1612 344C1612.55 344 1613 343.552 1613 343C1613 342.448 1612.55 342 1612 342C1611.45 342 1611 342.448 1611 343C1611 343.552 1611.45 344 1612 344Z" fill="#262222"/>
<path d="M1657 344C1657.55 344 1658 343.552 1658 343C1658 342.448 1657.55 342 1657 342C1656.45 342 1656 342.448 1656 343C1656 343.552 1656.45 344 1657 344Z" fill="#262222"/>
<path d="M1702 344C1702.55 344 1703 343.552 1703 343C1703 342.448 1702.55 342 1702 342C1701.45 342 1701 342.448 1701 343C1701 343.552 1701.45 344 1702 344Z" fill="#262222"/>
<path d="M1747 344C1747.55 344 1748 343.552 1748 343C1748 342.448 1747.55 342 1747 342C1746.45 342 1746 342.448 1746 343C1746 343.552 1746.45 344 1747 344Z" fill="#262222"/>
<path d="M1792 344C1792.55 344 1793 343.552 1793 343C1793 342.448 1792.55 342 1792 342C1791.45 342 1791 342.448 1791 343C1791 343.552 1791.45 344 1792 344Z" fill="#262222"/>
<path d="M1837 344C1837.55 344 1838 343.552 1838 343C1838 342.448 1837.55 342 1837 342C1836.45 342 1836 342.448 1836 343C1836 343.552 1836.45 344 1837 344Z" fill="#262222"/>
<path d="M1882 344C1882.55 344 1883 343.552 1883 343C1883 342.448 1882.55 342 1882 342C1881.45 342 1881 342.448 1881 343C1881 343.552 1881.45 344 1882 344Z" fill="#262222"/>
<path d="M37 389C37.5523 389 38 388.552 38 388C38 387.448 37.5523 387 37 387C36.4477 387 36 387.448 36 388C36 388.552 36.4477 389 37 389Z" fill="#262222"/>
<path d="M82 389C82.5523 389 83 388.552 83 388C83 387.448 82.5523 387 82 387C81.4477 387 81 387.448 81 388C81 388.552 81.4477 389 82 389Z" fill="#262222"/>
<path d="M127 389C127.552 389 128 388.552 128 388C128 387.448 127.552 387 127 387C126.448 387 126 387.448 126 388C126 388.552 126.448 389 127 389Z" fill="#262222"/>
<path d="M172 389C172.552 389 173 388.552 173 388C173 387.448 172.552 387 172 387C171.448 387 171 387.448 171 388C171 388.552 171.448 389 172 389Z" fill="#262222"/>
<path d="M217 389C217.552 389 218 388.552 218 388C218 387.448 217.552 387 217 387C216.448 387 216 387.448 216 388C216 388.552 216.448 389 217 389Z" fill="#262222"/>
<path d="M262 389C262.552 389 263 388.552 263 388C263 387.448 262.552 387 262 387C261.448 387 261 387.448 261 388C261 388.552 261.448 389 262 389Z" fill="#262222"/>
<path d="M307 389C307.552 389 308 388.552 308 388C308 387.448 307.552 387 307 387C306.448 387 306 387.448 306 388C306 388.552 306.448 389 307 389Z" fill="#262222"/>
<path d="M352 389C352.552 389 353 388.552 353 388C353 387.448 352.552 387 352 387C351.448 387 351 387.448 351 388C351 388.552 351.448 389 352 389Z" fill="#262222"/>
<path d="M397 389C397.552 389 398 388.552 398 388C398 387.448 397.552 387 397 387C396.448 387 396 387.448 396 388C396 388.552 396.448 389 397 389Z" fill="#262222"/>
<path d="M442 389C442.552 389 443 388.552 443 388C443 387.448 442.552 387 442 387C441.448 387 441 387.448 441 388C441 388.552 441.448 389 442 389Z" fill="#262222"/>
<path d="M487 389C487.552 389 488 388.552 488 388C488 387.448 487.552 387 487 387C486.448 387 486 387.448 486 388C486 388.552 486.448 389 487 389Z" fill="#262222"/>
<path d="M532 389C532.552 389 533 388.552 533 388C533 387.448 532.552 387 532 387C531.448 387 531 387.448 531 388C531 388.552 531.448 389 532 389Z" fill="#262222"/>
<path d="M577 389C577.552 389 578 388.552 578 388C578 387.448 577.552 387 577 387C576.448 387 576 387.448 576 388C576 388.552 576.448 389 577 389Z" fill="#262222"/>
<path d="M622 389C622.552 389 623 388.552 623 388C623 387.448 622.552 387 622 387C621.448 387 621 387.448 621 388C621 388.552 621.448 389 622 389Z" fill="#262222"/>
<path d="M667 389C667.552 389 668 388.552 668 388C668 387.448 667.552 387 667 387C666.448 387 666 387.448 666 388C666 388.552 666.448 389 667 389Z" fill="#262222"/>
<path d="M712 389C712.552 389 713 388.552 713 388C713 387.448 712.552 387 712 387C711.448 387 711 387.448 711 388C711 388.552 711.448 389 712 389Z" fill="#262222"/>
<path d="M757 389C757.552 389 758 388.552 758 388C758 387.448 757.552 387 757 387C756.448 387 756 387.448 756 388C756 388.552 756.448 389 757 389Z" fill="#262222"/>
<path d="M802 389C802.552 389 803 388.552 803 388C803 387.448 802.552 387 802 387C801.448 387 801 387.448 801 388C801 388.552 801.448 389 802 389Z" fill="#262222"/>
<path d="M847 389C847.552 389 848 388.552 848 388C848 387.448 847.552 387 847 387C846.448 387 846 387.448 846 388C846 388.552 846.448 389 847 389Z" fill="#262222"/>
<path d="M892 389C892.552 389 893 388.552 893 388C893 387.448 892.552 387 892 387C891.448 387 891 387.448 891 388C891 388.552 891.448 389 892 389Z" fill="#262222"/>
<path d="M937 389C937.552 389 938 388.552 938 388C938 387.448 937.552 387 937 387C936.448 387 936 387.448 936 388C936 388.552 936.448 389 937 389Z" fill="#262222"/>
<path d="M982 389C982.552 389 983 388.552 983 388C983 387.448 982.552 387 982 387C981.448 387 981 387.448 981 388C981 388.552 981.448 389 982 389Z" fill="#262222"/>
<path d="M1027 389C1027.55 389 1028 388.552 1028 388C1028 387.448 1027.55 387 1027 387C1026.45 387 1026 387.448 1026 388C1026 388.552 1026.45 389 1027 389Z" fill="#262222"/>
<path d="M1072 389C1072.55 389 1073 388.552 1073 388C1073 387.448 1072.55 387 1072 387C1071.45 387 1071 387.448 1071 388C1071 388.552 1071.45 389 1072 389Z" fill="#262222"/>
<path d="M1117 389C1117.55 389 1118 388.552 1118 388C1118 387.448 1117.55 387 1117 387C1116.45 387 1116 387.448 1116 388C1116 388.552 1116.45 389 1117 389Z" fill="#262222"/>
<path d="M1162 389C1162.55 389 1163 388.552 1163 388C1163 387.448 1162.55 387 1162 387C1161.45 387 1161 387.448 1161 388C1161 388.552 1161.45 389 1162 389Z" fill="#262222"/>
<path d="M1207 389C1207.55 389 1208 388.552 1208 388C1208 387.448 1207.55 387 1207 387C1206.45 387 1206 387.448 1206 388C1206 388.552 1206.45 389 1207 389Z" fill="#262222"/>
<path d="M1252 389C1252.55 389 1253 388.552 1253 388C1253 387.448 1252.55 387 1252 387C1251.45 387 1251 387.448 1251 388C1251 388.552 1251.45 389 1252 389Z" fill="#262222"/>
<path d="M1297 389C1297.55 389 1298 388.552 1298 388C1298 387.448 1297.55 387 1297 387C1296.45 387 1296 387.448 1296 388C1296 388.552 1296.45 389 1297 389Z" fill="#262222"/>
<path d="M1342 389C1342.55 389 1343 388.552 1343 388C1343 387.448 1342.55 387 1342 387C1341.45 387 1341 387.448 1341 388C1341 388.552 1341.45 389 1342 389Z" fill="#262222"/>
<path d="M1387 389C1387.55 389 1388 388.552 1388 388C1388 387.448 1387.55 387 1387 387C1386.45 387 1386 387.448 1386 388C1386 388.552 1386.45 389 1387 389Z" fill="#262222"/>
<path d="M1432 389C1432.55 389 1433 388.552 1433 388C1433 387.448 1432.55 387 1432 387C1431.45 387 1431 387.448 1431 388C1431 388.552 1431.45 389 1432 389Z" fill="#262222"/>
<path d="M1477 389C1477.55 389 1478 388.552 1478 388C1478 387.448 1477.55 387 1477 387C1476.45 387 1476 387.448 1476 388C1476 388.552 1476.45 389 1477 389Z" fill="#262222"/>
<path d="M1522 389C1522.55 389 1523 388.552 1523 388C1523 387.448 1522.55 387 1522 387C1521.45 387 1521 387.448 1521 388C1521 388.552 1521.45 389 1522 389Z" fill="#262222"/>
<path d="M1567 389C1567.55 389 1568 388.552 1568 388C1568 387.448 1567.55 387 1567 387C1566.45 387 1566 387.448 1566 388C1566 388.552 1566.45 389 1567 389Z" fill="#262222"/>
<path d="M1612 389C1612.55 389 1613 388.552 1613 388C1613 387.448 1612.55 387 1612 387C1611.45 387 1611 387.448 1611 388C1611 388.552 1611.45 389 1612 389Z" fill="#262222"/>
<path d="M1657 389C1657.55 389 1658 388.552 1658 388C1658 387.448 1657.55 387 1657 387C1656.45 387 1656 387.448 1656 388C1656 388.552 1656.45 389 1657 389Z" fill="#262222"/>
<path d="M1702 389C1702.55 389 1703 388.552 1703 388C1703 387.448 1702.55 387 1702 387C1701.45 387 1701 387.448 1701 388C1701 388.552 1701.45 389 1702 389Z" fill="#262222"/>
<path d="M1747 389C1747.55 389 1748 388.552 1748 388C1748 387.448 1747.55 387 1747 387C1746.45 387 1746 387.448 1746 388C1746 388.552 1746.45 389 1747 389Z" fill="#262222"/>
<path d="M1792 389C1792.55 389 1793 388.552 1793 388C1793 387.448 1792.55 387 1792 387C1791.45 387 1791 387.448 1791 388C1791 388.552 1791.45 389 1792 389Z" fill="#262222"/>
<path d="M1837 389C1837.55 389 1838 388.552 1838 388C1838 387.448 1837.55 387 1837 387C1836.45 387 1836 387.448 1836 388C1836 388.552 1836.45 389 1837 389Z" fill="#262222"/>
<path d="M1882 389C1882.55 389 1883 388.552 1883 388C1883 387.448 1882.55 387 1882 387C1881.45 387 1881 387.448 1881 388C1881 388.552 1881.45 389 1882 389Z" fill="#262222"/>
<path d="M37 434C37.5523 434 38 433.552 38 433C38 432.448 37.5523 432 37 432C36.4477 432 36 432.448 36 433C36 433.552 36.4477 434 37 434Z" fill="#262222"/>
<path d="M82 434C82.5523 434 83 433.552 83 433C83 432.448 82.5523 432 82 432C81.4477 432 81 432.448 81 433C81 433.552 81.4477 434 82 434Z" fill="#262222"/>
<path d="M127 434C127.552 434 128 433.552 128 433C128 432.448 127.552 432 127 432C126.448 432 126 432.448 126 433C126 433.552 126.448 434 127 434Z" fill="#262222"/>
<path d="M172 434C172.552 434 173 433.552 173 433C173 432.448 172.552 432 172 432C171.448 432 171 432.448 171 433C171 433.552 171.448 434 172 434Z" fill="#262222"/>
<path d="M217 434C217.552 434 218 433.552 218 433C218 432.448 217.552 432 217 432C216.448 432 216 432.448 216 433C216 433.552 216.448 434 217 434Z" fill="#262222"/>
<path d="M262 434C262.552 434 263 433.552 263 433C263 432.448 262.552 432 262 432C261.448 432 261 432.448 261 433C261 433.552 261.448 434 262 434Z" fill="#262222"/>
<path d="M307 434C307.552 434 308 433.552 308 433C308 432.448 307.552 432 307 432C306.448 432 306 432.448 306 433C306 433.552 306.448 434 307 434Z" fill="#262222"/>
<path d="M352 434C352.552 434 353 433.552 353 433C353 432.448 352.552 432 352 432C351.448 432 351 432.448 351 433C351 433.552 351.448 434 352 434Z" fill="#262222"/>
<path d="M397 434C397.552 434 398 433.552 398 433C398 432.448 397.552 432 397 432C396.448 432 396 432.448 396 433C396 433.552 396.448 434 397 434Z" fill="#262222"/>
<path d="M442 434C442.552 434 443 433.552 443 433C443 432.448 442.552 432 442 432C441.448 432 441 432.448 441 433C441 433.552 441.448 434 442 434Z" fill="#262222"/>
<path d="M487 434C487.552 434 488 433.552 488 433C488 432.448 487.552 432 487 432C486.448 432 486 432.448 486 433C486 433.552 486.448 434 487 434Z" fill="#262222"/>
<path d="M532 434C532.552 434 533 433.552 533 433C533 432.448 532.552 432 532 432C531.448 432 531 432.448 531 433C531 433.552 531.448 434 532 434Z" fill="#262222"/>
<path d="M577 434C577.552 434 578 433.552 578 433C578 432.448 577.552 432 577 432C576.448 432 576 432.448 576 433C576 433.552 576.448 434 577 434Z" fill="#262222"/>
<path d="M622 434C622.552 434 623 433.552 623 433C623 432.448 622.552 432 622 432C621.448 432 621 432.448 621 433C621 433.552 621.448 434 622 434Z" fill="#262222"/>
<path d="M667 434C667.552 434 668 433.552 668 433C668 432.448 667.552 432 667 432C666.448 432 666 432.448 666 433C666 433.552 666.448 434 667 434Z" fill="#262222"/>
<path d="M712 434C712.552 434 713 433.552 713 433C713 432.448 712.552 432 712 432C711.448 432 711 432.448 711 433C711 433.552 711.448 434 712 434Z" fill="#262222"/>
<path d="M757 434C757.552 434 758 433.552 758 433C758 432.448 757.552 432 757 432C756.448 432 756 432.448 756 433C756 433.552 756.448 434 757 434Z" fill="#262222"/>
<path d="M802 434C802.552 434 803 433.552 803 433C803 432.448 802.552 432 802 432C801.448 432 801 432.448 801 433C801 433.552 801.448 434 802 434Z" fill="#262222"/>
<path d="M847 434C847.552 434 848 433.552 848 433C848 432.448 847.552 432 847 432C846.448 432 846 432.448 846 433C846 433.552 846.448 434 847 434Z" fill="#262222"/>
<path d="M892 434C892.552 434 893 433.552 893 433C893 432.448 892.552 432 892 432C891.448 432 891 432.448 891 433C891 433.552 891.448 434 892 434Z" fill="#262222"/>
<path d="M937 434C937.552 434 938 433.552 938 433C938 432.448 937.552 432 937 432C936.448 432 936 432.448 936 433C936 433.552 936.448 434 937 434Z" fill="#262222"/>
<path d="M982 434C982.552 434 983 433.552 983 433C983 432.448 982.552 432 982 432C981.448 432 981 432.448 981 433C981 433.552 981.448 434 982 434Z" fill="#262222"/>
<path d="M1027 434C1027.55 434 1028 433.552 1028 433C1028 432.448 1027.55 432 1027 432C1026.45 432 1026 432.448 1026 433C1026 433.552 1026.45 434 1027 434Z" fill="#262222"/>
<path d="M1072 434C1072.55 434 1073 433.552 1073 433C1073 432.448 1072.55 432 1072 432C1071.45 432 1071 432.448 1071 433C1071 433.552 1071.45 434 1072 434Z" fill="#262222"/>
<path d="M1117 434C1117.55 434 1118 433.552 1118 433C1118 432.448 1117.55 432 1117 432C1116.45 432 1116 432.448 1116 433C1116 433.552 1116.45 434 1117 434Z" fill="#262222"/>
<path d="M1162 434C1162.55 434 1163 433.552 1163 433C1163 432.448 1162.55 432 1162 432C1161.45 432 1161 432.448 1161 433C1161 433.552 1161.45 434 1162 434Z" fill="#262222"/>
<path d="M1207 434C1207.55 434 1208 433.552 1208 433C1208 432.448 1207.55 432 1207 432C1206.45 432 1206 432.448 1206 433C1206 433.552 1206.45 434 1207 434Z" fill="#262222"/>
<path d="M1252 434C1252.55 434 1253 433.552 1253 433C1253 432.448 1252.55 432 1252 432C1251.45 432 1251 432.448 1251 433C1251 433.552 1251.45 434 1252 434Z" fill="#262222"/>
<path d="M1297 434C1297.55 434 1298 433.552 1298 433C1298 432.448 1297.55 432 1297 432C1296.45 432 1296 432.448 1296 433C1296 433.552 1296.45 434 1297 434Z" fill="#262222"/>
<path d="M1342 434C1342.55 434 1343 433.552 1343 433C1343 432.448 1342.55 432 1342 432C1341.45 432 1341 432.448 1341 433C1341 433.552 1341.45 434 1342 434Z" fill="#262222"/>
<path d="M1387 434C1387.55 434 1388 433.552 1388 433C1388 432.448 1387.55 432 1387 432C1386.45 432 1386 432.448 1386 433C1386 433.552 1386.45 434 1387 434Z" fill="#262222"/>
<path d="M1432 434C1432.55 434 1433 433.552 1433 433C1433 432.448 1432.55 432 1432 432C1431.45 432 1431 432.448 1431 433C1431 433.552 1431.45 434 1432 434Z" fill="#262222"/>
<path d="M1477 434C1477.55 434 1478 433.552 1478 433C1478 432.448 1477.55 432 1477 432C1476.45 432 1476 432.448 1476 433C1476 433.552 1476.45 434 1477 434Z" fill="#262222"/>
<path d="M1522 434C1522.55 434 1523 433.552 1523 433C1523 432.448 1522.55 432 1522 432C1521.45 432 1521 432.448 1521 433C1521 433.552 1521.45 434 1522 434Z" fill="#262222"/>
<path d="M1567 434C1567.55 434 1568 433.552 1568 433C1568 432.448 1567.55 432 1567 432C1566.45 432 1566 432.448 1566 433C1566 433.552 1566.45 434 1567 434Z" fill="#262222"/>
<path d="M1612 434C1612.55 434 1613 433.552 1613 433C1613 432.448 1612.55 432 1612 432C1611.45 432 1611 432.448 1611 433C1611 433.552 1611.45 434 1612 434Z" fill="#262222"/>
<path d="M1657 434C1657.55 434 1658 433.552 1658 433C1658 432.448 1657.55 432 1657 432C1656.45 432 1656 432.448 1656 433C1656 433.552 1656.45 434 1657 434Z" fill="#262222"/>
<path d="M1702 434C1702.55 434 1703 433.552 1703 433C1703 432.448 1702.55 432 1702 432C1701.45 432 1701 432.448 1701 433C1701 433.552 1701.45 434 1702 434Z" fill="#262222"/>
<path d="M1747 434C1747.55 434 1748 433.552 1748 433C1748 432.448 1747.55 432 1747 432C1746.45 432 1746 432.448 1746 433C1746 433.552 1746.45 434 1747 434Z" fill="#262222"/>
<path d="M1792 434C1792.55 434 1793 433.552 1793 433C1793 432.448 1792.55 432 1792 432C1791.45 432 1791 432.448 1791 433C1791 433.552 1791.45 434 1792 434Z" fill="#262222"/>
<path d="M1837 434C1837.55 434 1838 433.552 1838 433C1838 432.448 1837.55 432 1837 432C1836.45 432 1836 432.448 1836 433C1836 433.552 1836.45 434 1837 434Z" fill="#262222"/>
<path d="M1882 434C1882.55 434 1883 433.552 1883 433C1883 432.448 1882.55 432 1882 432C1881.45 432 1881 432.448 1881 433C1881 433.552 1881.45 434 1882 434Z" fill="#262222"/>
<path d="M37 478C37.5523 478 38 477.552 38 477C38 476.448 37.5523 476 37 476C36.4477 476 36 476.448 36 477C36 477.552 36.4477 478 37 478Z" fill="#262222"/>
<path d="M82 478C82.5523 478 83 477.552 83 477C83 476.448 82.5523 476 82 476C81.4477 476 81 476.448 81 477C81 477.552 81.4477 478 82 478Z" fill="#262222"/>
<path d="M127 478C127.552 478 128 477.552 128 477C128 476.448 127.552 476 127 476C126.448 476 126 476.448 126 477C126 477.552 126.448 478 127 478Z" fill="#262222"/>
<path d="M172 478C172.552 478 173 477.552 173 477C173 476.448 172.552 476 172 476C171.448 476 171 476.448 171 477C171 477.552 171.448 478 172 478Z" fill="#262222"/>
<path d="M217 478C217.552 478 218 477.552 218 477C218 476.448 217.552 476 217 476C216.448 476 216 476.448 216 477C216 477.552 216.448 478 217 478Z" fill="#262222"/>
<path d="M262 478C262.552 478 263 477.552 263 477C263 476.448 262.552 476 262 476C261.448 476 261 476.448 261 477C261 477.552 261.448 478 262 478Z" fill="#262222"/>
<path d="M307 478C307.552 478 308 477.552 308 477C308 476.448 307.552 476 307 476C306.448 476 306 476.448 306 477C306 477.552 306.448 478 307 478Z" fill="#262222"/>
<path d="M352 478C352.552 478 353 477.552 353 477C353 476.448 352.552 476 352 476C351.448 476 351 476.448 351 477C351 477.552 351.448 478 352 478Z" fill="#262222"/>
<path d="M397 478C397.552 478 398 477.552 398 477C398 476.448 397.552 476 397 476C396.448 476 396 476.448 396 477C396 477.552 396.448 478 397 478Z" fill="#262222"/>
<path d="M442 478C442.552 478 443 477.552 443 477C443 476.448 442.552 476 442 476C441.448 476 441 476.448 441 477C441 477.552 441.448 478 442 478Z" fill="#262222"/>
<path d="M487 478C487.552 478 488 477.552 488 477C488 476.448 487.552 476 487 476C486.448 476 486 476.448 486 477C486 477.552 486.448 478 487 478Z" fill="#262222"/>
<path d="M532 478C532.552 478 533 477.552 533 477C533 476.448 532.552 476 532 476C531.448 476 531 476.448 531 477C531 477.552 531.448 478 532 478Z" fill="#262222"/>
<path d="M577 478C577.552 478 578 477.552 578 477C578 476.448 577.552 476 577 476C576.448 476 576 476.448 576 477C576 477.552 576.448 478 577 478Z" fill="#262222"/>
<path d="M622 478C622.552 478 623 477.552 623 477C623 476.448 622.552 476 622 476C621.448 476 621 476.448 621 477C621 477.552 621.448 478 622 478Z" fill="#262222"/>
<path d="M667 478C667.552 478 668 477.552 668 477C668 476.448 667.552 476 667 476C666.448 476 666 476.448 666 477C666 477.552 666.448 478 667 478Z" fill="#262222"/>
<path d="M712 478C712.552 478 713 477.552 713 477C713 476.448 712.552 476 712 476C711.448 476 711 476.448 711 477C711 477.552 711.448 478 712 478Z" fill="#262222"/>
<path d="M757 478C757.552 478 758 477.552 758 477C758 476.448 757.552 476 757 476C756.448 476 756 476.448 756 477C756 477.552 756.448 478 757 478Z" fill="#262222"/>
<path d="M802 478C802.552 478 803 477.552 803 477C803 476.448 802.552 476 802 476C801.448 476 801 476.448 801 477C801 477.552 801.448 478 802 478Z" fill="#262222"/>
<path d="M847 478C847.552 478 848 477.552 848 477C848 476.448 847.552 476 847 476C846.448 476 846 476.448 846 477C846 477.552 846.448 478 847 478Z" fill="#262222"/>
<path d="M892 478C892.552 478 893 477.552 893 477C893 476.448 892.552 476 892 476C891.448 476 891 476.448 891 477C891 477.552 891.448 478 892 478Z" fill="#262222"/>
<path d="M937 478C937.552 478 938 477.552 938 477C938 476.448 937.552 476 937 476C936.448 476 936 476.448 936 477C936 477.552 936.448 478 937 478Z" fill="#262222"/>
<path d="M982 478C982.552 478 983 477.552 983 477C983 476.448 982.552 476 982 476C981.448 476 981 476.448 981 477C981 477.552 981.448 478 982 478Z" fill="#262222"/>
<path d="M1027 478C1027.55 478 1028 477.552 1028 477C1028 476.448 1027.55 476 1027 476C1026.45 476 1026 476.448 1026 477C1026 477.552 1026.45 478 1027 478Z" fill="#262222"/>
<path d="M1072 478C1072.55 478 1073 477.552 1073 477C1073 476.448 1072.55 476 1072 476C1071.45 476 1071 476.448 1071 477C1071 477.552 1071.45 478 1072 478Z" fill="#262222"/>
<path d="M1117 478C1117.55 478 1118 477.552 1118 477C1118 476.448 1117.55 476 1117 476C1116.45 476 1116 476.448 1116 477C1116 477.552 1116.45 478 1117 478Z" fill="#262222"/>
<path d="M1162 478C1162.55 478 1163 477.552 1163 477C1163 476.448 1162.55 476 1162 476C1161.45 476 1161 476.448 1161 477C1161 477.552 1161.45 478 1162 478Z" fill="#262222"/>
<path d="M1207 478C1207.55 478 1208 477.552 1208 477C1208 476.448 1207.55 476 1207 476C1206.45 476 1206 476.448 1206 477C1206 477.552 1206.45 478 1207 478Z" fill="#262222"/>
<path d="M1252 478C1252.55 478 1253 477.552 1253 477C1253 476.448 1252.55 476 1252 476C1251.45 476 1251 476.448 1251 477C1251 477.552 1251.45 478 1252 478Z" fill="#262222"/>
<path d="M1297 478C1297.55 478 1298 477.552 1298 477C1298 476.448 1297.55 476 1297 476C1296.45 476 1296 476.448 1296 477C1296 477.552 1296.45 478 1297 478Z" fill="#262222"/>
<path d="M1342 478C1342.55 478 1343 477.552 1343 477C1343 476.448 1342.55 476 1342 476C1341.45 476 1341 476.448 1341 477C1341 477.552 1341.45 478 1342 478Z" fill="#262222"/>
<path d="M1387 478C1387.55 478 1388 477.552 1388 477C1388 476.448 1387.55 476 1387 476C1386.45 476 1386 476.448 1386 477C1386 477.552 1386.45 478 1387 478Z" fill="#262222"/>
<path d="M1432 478C1432.55 478 1433 477.552 1433 477C1433 476.448 1432.55 476 1432 476C1431.45 476 1431 476.448 1431 477C1431 477.552 1431.45 478 1432 478Z" fill="#262222"/>
<path d="M1477 478C1477.55 478 1478 477.552 1478 477C1478 476.448 1477.55 476 1477 476C1476.45 476 1476 476.448 1476 477C1476 477.552 1476.45 478 1477 478Z" fill="#262222"/>
<path d="M1522 478C1522.55 478 1523 477.552 1523 477C1523 476.448 1522.55 476 1522 476C1521.45 476 1521 476.448 1521 477C1521 477.552 1521.45 478 1522 478Z" fill="#262222"/>
<path d="M1567 478C1567.55 478 1568 477.552 1568 477C1568 476.448 1567.55 476 1567 476C1566.45 476 1566 476.448 1566 477C1566 477.552 1566.45 478 1567 478Z" fill="#262222"/>
<path d="M1612 478C1612.55 478 1613 477.552 1613 477C1613 476.448 1612.55 476 1612 476C1611.45 476 1611 476.448 1611 477C1611 477.552 1611.45 478 1612 478Z" fill="#262222"/>
<path d="M1657 478C1657.55 478 1658 477.552 1658 477C1658 476.448 1657.55 476 1657 476C1656.45 476 1656 476.448 1656 477C1656 477.552 1656.45 478 1657 478Z" fill="#262222"/>
<path d="M1702 478C1702.55 478 1703 477.552 1703 477C1703 476.448 1702.55 476 1702 476C1701.45 476 1701 476.448 1701 477C1701 477.552 1701.45 478 1702 478Z" fill="#262222"/>
<path d="M1747 478C1747.55 478 1748 477.552 1748 477C1748 476.448 1747.55 476 1747 476C1746.45 476 1746 476.448 1746 477C1746 477.552 1746.45 478 1747 478Z" fill="#262222"/>
<path d="M1792 478C1792.55 478 1793 477.552 1793 477C1793 476.448 1792.55 476 1792 476C1791.45 476 1791 476.448 1791 477C1791 477.552 1791.45 478 1792 478Z" fill="#262222"/>
<path d="M1837 478C1837.55 478 1838 477.552 1838 477C1838 476.448 1837.55 476 1837 476C1836.45 476 1836 476.448 1836 477C1836 477.552 1836.45 478 1837 478Z" fill="#262222"/>
<path d="M1882 478C1882.55 478 1883 477.552 1883 477C1883 476.448 1882.55 476 1882 476C1881.45 476 1881 476.448 1881 477C1881 477.552 1881.45 478 1882 478Z" fill="#262222"/>
<path d="M37 522C37.5523 522 38 521.552 38 521C38 520.448 37.5523 520 37 520C36.4477 520 36 520.448 36 521C36 521.552 36.4477 522 37 522Z" fill="#262222"/>
<path d="M82 522C82.5523 522 83 521.552 83 521C83 520.448 82.5523 520 82 520C81.4477 520 81 520.448 81 521C81 521.552 81.4477 522 82 522Z" fill="#262222"/>
<path d="M127 522C127.552 522 128 521.552 128 521C128 520.448 127.552 520 127 520C126.448 520 126 520.448 126 521C126 521.552 126.448 522 127 522Z" fill="#262222"/>
<path d="M172 522C172.552 522 173 521.552 173 521C173 520.448 172.552 520 172 520C171.448 520 171 520.448 171 521C171 521.552 171.448 522 172 522Z" fill="#262222"/>
<path d="M217 522C217.552 522 218 521.552 218 521C218 520.448 217.552 520 217 520C216.448 520 216 520.448 216 521C216 521.552 216.448 522 217 522Z" fill="#262222"/>
<path d="M262 522C262.552 522 263 521.552 263 521C263 520.448 262.552 520 262 520C261.448 520 261 520.448 261 521C261 521.552 261.448 522 262 522Z" fill="#262222"/>
<path d="M307 522C307.552 522 308 521.552 308 521C308 520.448 307.552 520 307 520C306.448 520 306 520.448 306 521C306 521.552 306.448 522 307 522Z" fill="#262222"/>
<path d="M352 522C352.552 522 353 521.552 353 521C353 520.448 352.552 520 352 520C351.448 520 351 520.448 351 521C351 521.552 351.448 522 352 522Z" fill="#262222"/>
<path d="M397 522C397.552 522 398 521.552 398 521C398 520.448 397.552 520 397 520C396.448 520 396 520.448 396 521C396 521.552 396.448 522 397 522Z" fill="#262222"/>
<path d="M442 522C442.552 522 443 521.552 443 521C443 520.448 442.552 520 442 520C441.448 520 441 520.448 441 521C441 521.552 441.448 522 442 522Z" fill="#262222"/>
<path d="M487 522C487.552 522 488 521.552 488 521C488 520.448 487.552 520 487 520C486.448 520 486 520.448 486 521C486 521.552 486.448 522 487 522Z" fill="#262222"/>
<path d="M532 522C532.552 522 533 521.552 533 521C533 520.448 532.552 520 532 520C531.448 520 531 520.448 531 521C531 521.552 531.448 522 532 522Z" fill="#262222"/>
<path d="M577 522C577.552 522 578 521.552 578 521C578 520.448 577.552 520 577 520C576.448 520 576 520.448 576 521C576 521.552 576.448 522 577 522Z" fill="#262222"/>
<path d="M622 522C622.552 522 623 521.552 623 521C623 520.448 622.552 520 622 520C621.448 520 621 520.448 621 521C621 521.552 621.448 522 622 522Z" fill="#262222"/>
<path d="M667 522C667.552 522 668 521.552 668 521C668 520.448 667.552 520 667 520C666.448 520 666 520.448 666 521C666 521.552 666.448 522 667 522Z" fill="#262222"/>
<path d="M712 522C712.552 522 713 521.552 713 521C713 520.448 712.552 520 712 520C711.448 520 711 520.448 711 521C711 521.552 711.448 522 712 522Z" fill="#262222"/>
<path d="M757 522C757.552 522 758 521.552 758 521C758 520.448 757.552 520 757 520C756.448 520 756 520.448 756 521C756 521.552 756.448 522 757 522Z" fill="#262222"/>
<path d="M802 522C802.552 522 803 521.552 803 521C803 520.448 802.552 520 802 520C801.448 520 801 520.448 801 521C801 521.552 801.448 522 802 522Z" fill="#262222"/>
<path d="M847 522C847.552 522 848 521.552 848 521C848 520.448 847.552 520 847 520C846.448 520 846 520.448 846 521C846 521.552 846.448 522 847 522Z" fill="#262222"/>
<path d="M892 522C892.552 522 893 521.552 893 521C893 520.448 892.552 520 892 520C891.448 520 891 520.448 891 521C891 521.552 891.448 522 892 522Z" fill="#262222"/>
<path d="M937 522C937.552 522 938 521.552 938 521C938 520.448 937.552 520 937 520C936.448 520 936 520.448 936 521C936 521.552 936.448 522 937 522Z" fill="#262222"/>
<path d="M982 522C982.552 522 983 521.552 983 521C983 520.448 982.552 520 982 520C981.448 520 981 520.448 981 521C981 521.552 981.448 522 982 522Z" fill="#262222"/>
<path d="M1027 522C1027.55 522 1028 521.552 1028 521C1028 520.448 1027.55 520 1027 520C1026.45 520 1026 520.448 1026 521C1026 521.552 1026.45 522 1027 522Z" fill="#262222"/>
<path d="M1072 522C1072.55 522 1073 521.552 1073 521C1073 520.448 1072.55 520 1072 520C1071.45 520 1071 520.448 1071 521C1071 521.552 1071.45 522 1072 522Z" fill="#262222"/>
<path d="M1117 522C1117.55 522 1118 521.552 1118 521C1118 520.448 1117.55 520 1117 520C1116.45 520 1116 520.448 1116 521C1116 521.552 1116.45 522 1117 522Z" fill="#262222"/>
<path d="M1162 522C1162.55 522 1163 521.552 1163 521C1163 520.448 1162.55 520 1162 520C1161.45 520 1161 520.448 1161 521C1161 521.552 1161.45 522 1162 522Z" fill="#262222"/>
<path d="M1207 522C1207.55 522 1208 521.552 1208 521C1208 520.448 1207.55 520 1207 520C1206.45 520 1206 520.448 1206 521C1206 521.552 1206.45 522 1207 522Z" fill="#262222"/>
<path d="M1252 522C1252.55 522 1253 521.552 1253 521C1253 520.448 1252.55 520 1252 520C1251.45 520 1251 520.448 1251 521C1251 521.552 1251.45 522 1252 522Z" fill="#262222"/>
<path d="M1297 522C1297.55 522 1298 521.552 1298 521C1298 520.448 1297.55 520 1297 520C1296.45 520 1296 520.448 1296 521C1296 521.552 1296.45 522 1297 522Z" fill="#262222"/>
<path d="M1342 522C1342.55 522 1343 521.552 1343 521C1343 520.448 1342.55 520 1342 520C1341.45 520 1341 520.448 1341 521C1341 521.552 1341.45 522 1342 522Z" fill="#262222"/>
<path d="M1387 522C1387.55 522 1388 521.552 1388 521C1388 520.448 1387.55 520 1387 520C1386.45 520 1386 520.448 1386 521C1386 521.552 1386.45 522 1387 522Z" fill="#262222"/>
<path d="M1432 522C1432.55 522 1433 521.552 1433 521C1433 520.448 1432.55 520 1432 520C1431.45 520 1431 520.448 1431 521C1431 521.552 1431.45 522 1432 522Z" fill="#262222"/>
<path d="M1477 522C1477.55 522 1478 521.552 1478 521C1478 520.448 1477.55 520 1477 520C1476.45 520 1476 520.448 1476 521C1476 521.552 1476.45 522 1477 522Z" fill="#262222"/>
<path d="M1522 522C1522.55 522 1523 521.552 1523 521C1523 520.448 1522.55 520 1522 520C1521.45 520 1521 520.448 1521 521C1521 521.552 1521.45 522 1522 522Z" fill="#262222"/>
<path d="M1567 522C1567.55 522 1568 521.552 1568 521C1568 520.448 1567.55 520 1567 520C1566.45 520 1566 520.448 1566 521C1566 521.552 1566.45 522 1567 522Z" fill="#262222"/>
<path d="M1612 522C1612.55 522 1613 521.552 1613 521C1613 520.448 1612.55 520 1612 520C1611.45 520 1611 520.448 1611 521C1611 521.552 1611.45 522 1612 522Z" fill="#262222"/>
<path d="M1657 522C1657.55 522 1658 521.552 1658 521C1658 520.448 1657.55 520 1657 520C1656.45 520 1656 520.448 1656 521C1656 521.552 1656.45 522 1657 522Z" fill="#262222"/>
<path d="M1702 522C1702.55 522 1703 521.552 1703 521C1703 520.448 1702.55 520 1702 520C1701.45 520 1701 520.448 1701 521C1701 521.552 1701.45 522 1702 522Z" fill="#262222"/>
<path d="M1747 522C1747.55 522 1748 521.552 1748 521C1748 520.448 1747.55 520 1747 520C1746.45 520 1746 520.448 1746 521C1746 521.552 1746.45 522 1747 522Z" fill="#262222"/>
<path d="M1792 522C1792.55 522 1793 521.552 1793 521C1793 520.448 1792.55 520 1792 520C1791.45 520 1791 520.448 1791 521C1791 521.552 1791.45 522 1792 522Z" fill="#262222"/>
<path d="M1837 522C1837.55 522 1838 521.552 1838 521C1838 520.448 1837.55 520 1837 520C1836.45 520 1836 520.448 1836 521C1836 521.552 1836.45 522 1837 522Z" fill="#262222"/>
<path d="M1882 522C1882.55 522 1883 521.552 1883 521C1883 520.448 1882.55 520 1882 520C1881.45 520 1881 520.448 1881 521C1881 521.552 1881.45 522 1882 522Z" fill="#262222"/>
</g>
</svg>
