<svg width="712" height="707" viewBox="0 0 712 707" fill="none" xmlns="http://www.w3.org/2000/svg">
<path d="M493.601 568.448C496.421 566.329 497.647 562.692 496.684 559.297L483.384 512.368C491.409 505.472 498.889 497.965 505.755 489.914L552.76 503.284C556.179 504.258 559.843 503.009 561.958 500.151C565.556 495.211 568.872 490.073 571.891 484.759C574.964 479.498 577.756 474.078 580.253 468.521C581.71 465.249 580.968 461.414 578.395 458.922L543.228 424.874C547.312 413.204 550.354 401.197 552.318 388.991C552.775 386.152 551.77 383.274 549.646 381.335C547.522 379.396 544.565 378.658 541.778 379.371L485.903 393.697C483.077 394.422 480.818 396.54 479.913 399.313C457.042 469.129 383.028 508.331 312.425 488.024C241.821 467.717 199.944 395.183 217.659 323.885C235.375 252.587 306.333 208.09 378.229 223.192C381.084 223.795 384.047 222.897 386.088 220.813L426.432 179.587C428.442 177.53 429.282 174.599 428.665 171.79C428.048 168.982 426.058 166.672 423.371 165.648C411.817 161.25 399.897 157.88 387.751 155.579L375.833 108.108C374.96 104.638 372.016 102.082 368.46 101.703C362.402 101.084 356.314 100.79 350.224 100.821C344.112 100.775 338.002 101.075 331.924 101.721C328.391 102.123 325.478 104.672 324.612 108.12L312.688 155.512C302.283 157.432 292.042 160.155 282.057 163.659L248.065 128.677C245.599 126.141 241.827 125.388 238.577 126.784C227.349 131.726 216.693 137.878 206.8 145.13C203.984 147.251 202.762 150.885 203.725 154.276L217.025 201.206C208.999 208.101 201.519 215.608 194.653 223.66L147.649 210.29C144.23 209.316 140.565 210.564 138.451 213.422C134.853 218.362 131.537 223.501 128.517 228.814C125.445 234.077 122.655 239.5 120.16 245.059C118.709 248.329 119.452 252.156 122.02 254.647L157.18 288.699C153.709 298.666 150.974 308.874 148.996 319.239L101.533 331.153C98.0601 332.023 95.499 334.969 95.121 338.531C94.4995 344.59 94.2024 350.68 94.2315 356.77C94.1891 362.879 94.4902 368.984 95.1339 375.059C95.5474 378.589 98.0934 381.499 101.537 382.378L148.921 394.287C150.844 404.694 153.57 414.937 157.072 424.925L122.093 458.924C119.557 461.389 118.805 465.162 120.2 468.412C125.144 479.639 131.296 490.295 138.547 500.189C140.668 503.004 144.302 504.226 147.693 503.264L194.622 489.964C201.519 497.992 209.028 505.475 217.08 512.342L203.702 559.332C202.726 562.754 203.976 566.423 206.838 568.537C211.78 572.133 216.918 575.449 222.23 578.471C227.494 581.543 232.916 584.332 238.475 586.828C241.749 588.281 245.58 587.537 248.071 584.963L282.115 549.808C292.082 553.279 302.29 556.013 312.656 557.992L324.574 605.462C325.46 608.929 328.402 611.481 331.958 611.871C338.012 612.487 344.096 612.78 350.182 612.749C356.295 612.795 362.404 612.495 368.483 611.849C372.015 611.447 374.928 608.899 375.795 605.45L387.718 558.058C398.123 556.138 408.364 553.414 418.35 549.911L452.342 584.893C454.805 587.427 458.574 588.182 461.823 586.79C473.051 581.85 483.706 575.698 493.601 568.448ZM460.384 568.667L426.735 534.057C424.36 531.615 420.759 530.82 417.575 532.034C405.28 536.742 392.524 540.143 379.518 542.182C376.127 542.706 373.38 545.207 372.543 548.535L360.758 595.433C357.562 595.632 354.103 595.717 350.192 595.719C346.461 595.725 342.976 595.629 339.664 595.422L327.851 548.473C327.019 545.166 324.301 542.672 320.937 542.129C307.925 540.02 295.159 536.606 282.832 531.938C279.646 530.727 276.044 531.527 273.672 533.974L240.02 568.716C237.06 567.243 233.994 565.583 230.746 563.714C227.347 561.735 224.422 559.945 221.754 558.175L234.989 511.671C235.93 508.368 234.8 504.823 232.121 502.676C221.875 494.413 212.529 485.091 204.241 474.865C202.089 472.221 198.569 471.11 195.289 472.041L148.842 485.201C144.931 479.366 141.414 473.275 138.316 466.97L172.932 433.317C175.378 430.943 176.177 427.34 174.962 424.153C170.251 411.862 166.852 399.108 164.818 386.103C164.297 382.708 161.792 379.957 158.461 379.121L111.57 367.332C111.375 364.143 111.27 360.686 111.274 356.782C111.274 353.028 111.37 349.543 111.575 346.243L158.509 334.438C161.815 333.607 164.309 330.889 164.853 327.524C166.969 314.517 170.39 301.758 175.065 289.437C176.276 286.251 175.476 282.649 173.028 280.278L138.273 246.602C139.742 243.635 141.408 240.565 143.283 237.325C145.265 233.933 147.047 230.993 148.81 228.33L195.318 241.572C198.617 242.511 202.157 241.383 204.306 238.708C212.573 228.462 221.897 219.116 232.123 210.824C234.768 208.672 235.879 205.152 234.947 201.873L221.796 155.421C224.526 153.579 227.501 151.734 230.738 149.865C233.975 147.996 237.06 146.343 240.021 144.899L273.674 179.515C276.048 181.962 279.651 182.76 282.838 181.545C295.132 176.835 307.888 173.433 320.895 171.397C324.286 170.873 327.033 168.372 327.869 165.045L339.671 118.176C342.867 117.977 346.326 117.892 350.237 117.89C353.968 117.884 357.46 117.977 360.765 118.187L372.557 165.1C373.399 168.399 376.112 170.888 379.471 171.444C388.031 172.833 396.488 174.79 404.788 177.303L377.127 205.579C296.957 191.295 219.572 242.06 200.744 321.286C181.917 400.512 228.192 480.663 306.218 503.971C384.244 527.28 466.899 485.644 494.614 409.072L532.939 399.252C530.97 407.713 528.436 416.034 525.354 424.156C524.159 427.343 524.957 430.935 527.391 433.316L562.132 466.968C560.655 469.94 558.997 473.006 557.123 476.246C555.14 479.638 553.359 482.577 551.596 485.24L505.089 471.998C501.789 471.059 498.249 472.187 496.101 474.862C487.831 485.106 478.508 494.453 468.283 502.746C465.64 504.896 464.528 508.412 465.455 511.69L478.607 558.143C475.885 559.98 472.918 561.822 469.666 563.699C466.414 565.58 463.336 567.229 460.384 568.667Z" fill="#F2F2F2"/>
<path d="M284.058 329.012C280.145 325.114 273.813 325.127 269.915 329.039C266.018 332.952 266.03 339.284 269.942 343.181L284.058 329.012ZM347.17 406L340.113 413.085C344.015 416.972 350.326 416.972 354.228 413.085L347.17 406ZM572.058 196.085C575.97 192.187 575.982 185.855 572.085 181.942C568.187 178.03 561.855 178.018 557.942 181.915L572.058 196.085ZM269.942 343.181L340.113 413.085L354.228 398.915L284.058 329.012L269.942 343.181ZM354.228 413.085L572.058 196.085L557.942 181.915L340.113 398.915L354.228 413.085Z" fill="#E34132"/>
</svg>
