<svg width="100" height="18" viewBox="0 0 100 18" fill="none" xmlns="http://www.w3.org/2000/svg">
<g clip-path="url(#clip0)">
<path fill-rule="evenodd" clip-rule="evenodd" d="M49.963 8.82135C49.963 3.92884 53.8918 0 58.7843 0C63.6768 0 67.6057 3.92884 67.6057 8.82135C67.6057 13.7139 63.6768 17.6427 58.7843 17.6427C53.8918 17.7168 49.963 13.7139 49.963 8.82135ZM58.7843 14.4552C61.5271 14.4552 63.751 11.9348 63.751 8.82135C63.751 5.70793 61.5271 3.18755 58.7843 3.18755C56.0415 3.18755 53.8177 5.70793 53.8177 8.82135C53.8177 11.9348 56.0415 14.4552 58.7843 14.4552Z" fill="#EB0A1E"/>
<path fill-rule="evenodd" clip-rule="evenodd" d="M77.6871 3.70643V17.272H73.9807V3.70643H68.7175V0.593018H82.8762V3.70643H77.6871Z" fill="#EB0A1E"/>
<path fill-rule="evenodd" clip-rule="evenodd" d="M87.3981 13.5657L85.9896 17.3463H81.616L88.51 0.667236H90.808H93.106L100 17.3463H95.6264L94.2179 13.5657H90.808H87.3981ZM90.808 10.7488H93.1801L90.8821 4.6702L88.5841 10.7488H90.808Z" fill="#EB0A1E"/>
<path fill-rule="evenodd" clip-rule="evenodd" d="M8.89548 3.70643V17.272H5.18903V3.70643H0V0.593018H14.1586V3.70643H8.96961H8.89548Z" fill="#EB0A1E"/>
<path fill-rule="evenodd" clip-rule="evenodd" d="M15.1223 8.82135C15.1223 3.92884 19.0512 0 23.9437 0C28.8362 0 32.765 3.92884 32.765 8.82135C32.765 13.7139 28.8362 17.6427 23.9437 17.6427C19.0512 17.7168 15.1223 13.7139 15.1223 8.82135ZM23.9437 14.4552C26.6865 14.4552 28.9103 11.9348 28.9103 8.82135C28.9103 5.70793 26.6865 3.18755 23.9437 3.18755C21.2009 3.18755 18.977 5.70793 18.977 8.82135C18.977 11.9348 21.2009 14.4552 23.9437 14.4552Z" fill="#EB0A1E"/>
<path fill-rule="evenodd" clip-rule="evenodd" d="M41.364 17.272H43.2172V11.0452V10.9711L49.7405 0.593018H45.3669L41.364 7.63527L37.2869 0.593018H32.9874L39.4366 10.9711V11.0452V17.272H41.364Z" fill="#EB0A1E"/>
</g>
<defs>
<clipPath id="clip0">
<rect width="100" height="17.7168" fill="white"/>
</clipPath>
</defs>
</svg>
