<svg xmlns="http://www.w3.org/2000/svg" viewBox="0 0 11.042 51.521"><defs><style>.a,.c{fill:#00ffdc;}.b,.c{stroke:none;}</style></defs><g class="a" transform="translate(1938.523 -37)"><path class="b" d="M -1933.002075195313 87.81360626220703 L -1933.355590820313 87.46005249023438 L -1936.46240234375 84.35324859619141 L -1937.316040039063 83.49970245361328 L -1936.10888671875 83.49970245361328 L -1933.500244140625 83.49970245361328 L -1933.500244140625 36.99990081787109 L -1932.500244140625 36.99990081787109 L -1932.500244140625 83.49970245361328 L -1929.895263671875 83.49970245361328 L -1928.688110351563 83.49970245361328 L -1929.541748046875 84.35324859619141 L -1932.648559570313 87.46005249023438 L -1933.002075195313 87.81360626220703 Z"/><path class="c" d="M -1933.002075195313 87.10649871826172 L -1929.895263671875 83.99970245361328 L -1933.000244140625 83.99970245361328 L -1936.10888671875 83.99970245361328 L -1933.002075195313 87.10649871826172 M -1933.000244140625 83.99970245361328 L -1933.000244140625 36.99990081787109 L -1933.000244140625 83.99970245361328 M -1933.002075195313 88.52070617675781 L -1933.709228515625 87.81360626220703 L -1936.816040039063 84.70680999755859 L -1938.523071289063 82.99970245361328 L -1936.10888671875 82.99970245361328 L -1934.000244140625 82.99970245361328 L -1934.000244140625 36.99990081787109 L -1932.000244140625 36.99990081787109 L -1932.000244140625 82.99970245361328 L -1929.895263671875 82.99970245361328 L -1927.481079101563 82.99970245361328 L -1929.188110351563 84.70680999755859 L -1932.294921875 87.81360626220703 L -1933.002075195313 88.52070617675781 Z"/></g></svg>