<svg xmlns="http://www.w3.org/2000/svg" viewBox="0 0 75.904 72.15"><defs><style>.a{fill:none;stroke:#00ffdc;stroke-width:2px;}.b{fill:#00ffdc;}</style></defs><g transform="translate(-991.5 -512.5)"><path class="a" d="M33.711,72.053h.3a35.117,35.117,0,0,1-25.527-15.2,34.722,34.722,0,0,1,4.283-44.142,35.176,35.176,0,0,1,53.891,5.161,34.722,34.722,0,0,1-4.283,44.142A35.025,35.025,0,0,1,41.135,72.053h.452L37.649,75.99Z" transform="translate(990 586.151) rotate(-90)"/><path class="b" d="M21.184-18.176a.815.815,0,0,1,.6.344,1.088,1.088,0,0,1,.215.645A19.61,19.61,0,0,1,19.293-7.133,20.033,20.033,0,0,1,12.117.043,19.61,19.61,0,0,1,2.063,2.75a1.088,1.088,0,0,1-.645-.215.815.815,0,0,1-.344-.6L.043-2.535a.97.97,0,0,1,.086-.687A.925.925,0,0,1,.645-3.7L5.457-5.758A1.091,1.091,0,0,1,6.1-5.822a.863.863,0,0,1,.559.365L8.766-2.879a15.1,15.1,0,0,0,4.49-3.137,15.786,15.786,0,0,0,3.115-4.469l-2.578-2.148a1.029,1.029,0,0,1-.344-.537,1.071,1.071,0,0,1,.043-.666l2.063-4.812a.948.948,0,0,1,.473-.473.97.97,0,0,1,.688-.086Z" transform="translate(1017.986 557.236)"/></g></svg>