<svg xmlns="http://www.w3.org/2000/svg" viewBox="0 0 43.409 43.361"><defs><style>.a{fill:#8b8a8b;}</style></defs><path class="a" d="M43.409,21.961l-3.715-4.84.831-6.013L34.855,8.86,32.606,3.189l-6.013.831L21.7.256l-4.84,3.715L10.852,3.14,8.6,8.811,2.933,11.059l.831,6.013L0,21.961,3.715,26.8l-.831,6.013,5.671,2.249L10.8,40.732l6.013-.831,4.84,3.715L26.5,39.9l6.013.831,2.249-5.671,5.671-2.3L39.6,26.751ZM19.945,29,12.71,23.036l1.564-1.906,5.377,4.4,9.19-10.608L30.7,16.535Z" transform="translate(0 -0.256)"/></svg>