<svg xmlns="http://www.w3.org/2000/svg" viewBox="0 0 55.989 82.424"><defs><style>.a{fill:#00ffdc;}</style></defs><g transform="translate(-75.049 0)"><g transform="translate(75.049 0)"><path class="a" d="M123.764,68.141h-.616V65.27a7.277,7.277,0,0,0-7.2-7.344H108V25.52h.581a1.753,1.753,0,0,0,1.744-1.55l.581-4.9a11.482,11.482,0,0,0,3.276-8,11.114,11.114,0,1,0-18.968,8l.581,4.9a1.766,1.766,0,0,0,1.744,1.55h.581V57.926H90.178a7.288,7.288,0,0,0-7.2,7.344v2.871h-.616A7.291,7.291,0,0,0,75.049,75.4v5.248a1.8,1.8,0,0,0,1.8,1.779h52.4a1.8,1.8,0,0,0,1.8-1.779V75.4A7.25,7.25,0,0,0,123.764,68.141Zm-25.7-51.216A7.69,7.69,0,0,1,95.5,11.148a7.591,7.591,0,0,1,15.182-.07,7.934,7.934,0,0,1-2.571,5.847,1.8,1.8,0,0,0-.581,1.11L107.015,22H99.107l-.476-3.963A1.659,1.659,0,0,0,98.068,16.925Zm6.411,8.595V57.926h-2.818V25.52ZM86.514,65.27A3.756,3.756,0,0,1,90.2,61.448h25.749a3.756,3.756,0,0,1,3.681,3.822v2.871H86.514ZM78.589,78.884V75.4a3.781,3.781,0,0,1,3.787-3.734h41.371a3.758,3.758,0,0,1,3.787,3.734v3.487Z" transform="translate(-75.049 0)"/></g></g></svg>