<svg xmlns="http://www.w3.org/2000/svg" viewBox="0 0 20 30.213"><defs><style>.a{opacity:0.8;}.b{fill:#fff;}</style></defs><g class="a" transform="translate(-1.346)"><path class="b" d="M22.667,2.214,22.549,2.2a5.247,5.247,0,0,0-1.44.033C20.818.9,20.289,0,19.682,0c-.8,0-1.469,1.56-1.623,3.633C16.65,4.789,15.239,6.828,14.334,10.4c-.564,2.226-1.623,3.7-3.147,4.376a6.222,6.222,0,0,1-3.367.377,11.418,11.418,0,0,1-3.269-.97.857.857,0,0,0-1.112.354.808.808,0,0,0,.357,1.1,12.864,12.864,0,0,0,3.795,1.14,7.928,7.928,0,0,0,4.276-.51c2.011-.891,3.382-2.732,4.078-5.47a13.474,13.474,0,0,1,2.093-4.8l.172,3.2L19.225,28.18c0,.45,0,2.034.458,2.034s.456-1.584.456-2.034L21.157,9.2,21.339,5.8V4.535q0-.369-.024-.725a3.4,3.4,0,0,1,.9-.022c.056.008.1.016.186.033a.815.815,0,0,0,.267-1.607ZM19.7,1.767c.265,0,.5.238.682.624A6.2,6.2,0,0,0,18.8,3.1C18.952,2.315,19.3,1.767,19.7,1.767Zm.984,2.22c0,1.227-.439,2.222-.984,2.222-.366,0-.68-.458-.849-1.127A4.872,4.872,0,0,1,20.683,3.96Z" transform="translate(-2)"/></g></svg>