<svg xmlns="http://www.w3.org/2000/svg" viewBox="0 0 66.302 82.877"><defs><style>.a,.b{fill:none;}.b{stroke:#00ffdc;stroke-width:2px;}.c,.d{stroke:none;}.d{fill:#00ffdc;}</style></defs><g transform="translate(-51 0)"><g transform="translate(51)"><g class="a" transform="translate(-51)"><path class="c" d="M109.014,0H75.863L51,24.863V74.589a8.312,8.312,0,0,0,8.288,8.288h49.726a8.312,8.312,0,0,0,8.288-8.288V62.26l-8.288-7.454V31.552l8.288-7.2V8.288A8.312,8.312,0,0,0,109.014,0Z"/><path class="d" d="M 77.51988983154297 4 L 55 26.5198860168457 L 55 74.58908081054688 C 55 75.72521209716797 55.44851684570313 76.79943084716797 56.26293182373047 77.61384582519531 C 57.07734680175781 78.42825317382813 58.15154266357422 78.87677001953125 59.28767395019531 78.87677001953125 L 109.0137329101563 78.87677001953125 C 110.1498565673828 78.87677001953125 111.2240600585938 78.42825317382813 112.0384750366211 77.61384582519531 C 112.8528900146484 76.79943084716797 113.3014068603516 75.72521209716797 113.3014068603516 74.58908081054688 L 113.3014068603516 64.04229736328125 L 106.3387451171875 57.77962875366211 L 105.0137329101563 56.58781433105469 L 105.0137329101563 54.80565643310547 L 105.0137329101563 31.55157089233398 L 105.0137329101563 29.72821426391602 L 106.3900604248047 28.53224182128906 L 113.3014068603516 22.52657318115234 L 113.3014068603516 8.287673950195313 C 113.3014068603516 7.151557922363281 112.8528900146484 6.077339172363281 112.0384750366211 5.262924194335938 C 111.2240600585938 4.448516845703125 110.1498565673828 4 109.0137329101563 4 L 77.51988983154297 4 M 75.86302947998047 0 L 109.0137329101563 0 C 113.5719604492188 0 117.3014068603516 3.729454040527344 117.3014068603516 8.287673950195313 L 117.3014068603516 24.34992599487305 L 109.0137329101563 31.55157089233398 L 109.0137329101563 54.80565643310547 L 117.3014068603516 62.26012802124023 L 117.3014068603516 74.58908081054688 C 117.3014068603516 79.14731597900391 113.5719604492188 82.87677001953125 109.0137329101563 82.87677001953125 L 59.28767395019531 82.87677001953125 C 54.72944641113281 82.87677001953125 51 79.14731597900391 51 74.58908081054688 L 51 24.86302947998047 L 75.86302947998047 0 Z"/></g><line class="b" x1="20" y2="20" transform="translate(12.889 10.952)"/><line class="b" x1="20" y2="20" transform="translate(12.889 20.952)"/><line class="b" x1="20" y2="20" transform="translate(12.889 40.952)"/><line class="b" x1="20" y2="20" transform="translate(12.889 30.952)"/><line class="b" x1="20" y2="20" transform="translate(12.889 50.952)"/></g></g></svg>