<svg xmlns="http://www.w3.org/2000/svg" viewBox="0 0 80.979 80.985"><defs><style>.a{fill:#00ffdc;}</style></defs><g transform="translate(80.998 80.985) rotate(-180)"><g transform="translate(7.358 7.339)"><path class="a" d="M75.568,42.4A33.149,33.149,0,1,0,108.716,75.55,33.185,33.185,0,0,0,75.568,42.4Zm6.855,4.258A29.792,29.792,0,0,1,104.6,69.318H85.088a11.8,11.8,0,0,0-2.908-3.029Zm-3.462-.606-.225,18.574a11.279,11.279,0,0,0-6.249-.017l-.1-18.574A29.848,29.848,0,0,1,78.961,46.053ZM75.568,67.639a7.911,7.911,0,1,1-7.911,7.911A7.908,7.908,0,0,1,75.568,67.639ZM68.921,46.607l.121,19.63a11.78,11.78,0,0,0-2.995,3.081H46.539A29.806,29.806,0,0,1,68.921,46.607ZM45.881,75.55c0-.935.052-1.852.138-2.77H64.541a11.531,11.531,0,0,0,0,5.539H46.019A24.527,24.527,0,0,1,45.881,75.55Zm29.687,29.687A29.751,29.751,0,0,1,46.539,81.781H66.047A11.364,11.364,0,0,0,81.782,85.07a11.238,11.238,0,0,0,3.289-3.289H104.6A29.751,29.751,0,0,1,75.568,105.236ZM86.594,78.319a11.117,11.117,0,0,0,0-5.539h18.522c.087.917.138,1.835.138,2.77s-.052,1.852-.138,2.77Z" transform="translate(-42.419 -42.401)"/></g><g transform="translate(0.019 0)"><g transform="translate(0 0)"><path class="a" d="M69.138,11.857a40.49,40.49,0,1,0,0,57.262A40.209,40.209,0,0,0,69.138,11.857ZM66.767,66.609a.135.135,0,0,0-.069.069A37.038,37.038,0,1,1,14.248,14.367l.069-.069A37.038,37.038,0,1,1,66.767,66.609Z" transform="translate(-0.019 0)"/></g></g></g></svg>