<svg width="270" height="270" viewBox="0 0 270 270" fill="none" xmlns="http://www.w3.org/2000/svg">
<path d="M206 88.7722C188.968 68.9107 163.637 56.3185 135.351 56.3185C84.0668 56.3185 42.4924 97.7142 42.4924 148.778C42.4924 199.843 84.0668 241.239 135.351 241.239C137.074 241.239 138.785 241.192 140.484 241.1C132.616 242.995 124.399 244 115.947 244C58.5385 244 12 197.661 12 140.5C12 83.3385 58.5385 37 115.947 37C154.431 37 188.03 57.8237 206 88.7722Z" fill="url(#paint0_linear)"/>
<path d="M65 181.223C81.9438 201.087 107.146 213.682 135.287 213.682C186.307 213.682 227.666 172.286 227.666 121.222C227.666 70.1572 186.307 28.7615 135.287 28.7615C133.574 28.7615 131.871 28.8082 130.18 28.9004C138.007 27.0046 146.181 26 154.591 26C211.702 26 258 72.3385 258 129.5C258 186.661 211.702 233 154.591 233C116.303 233 82.8762 212.174 65 181.223Z" fill="url(#paint1_linear)"/>
<defs>
<linearGradient id="paint0_linear" x1="169.435" y1="58.5332" x2="82.1151" y2="229.847" gradientUnits="userSpaceOnUse">
<stop stop-color="#2C4898"/>
<stop offset="1" stop-color="#2B9DD7"/>
</linearGradient>
<linearGradient id="paint1_linear" x1="161.09" y1="233.654" x2="163.127" y2="26" gradientUnits="userSpaceOnUse">
<stop stop-color="#15A949"/>
<stop offset="1" stop-color="#A7CC34"/>
</linearGradient>
</defs>
</svg>
