<svg width="68" height="62" viewBox="0 0 68 62" fill="none" xmlns="http://www.w3.org/2000/svg">
<path d="M6.64868 38.054C6.64868 36.2628 5.19661 34.8108 3.4054 34.8108C1.61418 34.8108 0.162109 36.2628 0.162109 38.054V58.5946C0.162109 60.3858 1.61418 61.8378 3.4054 61.8378C5.19661 61.8378 6.64868 60.3858 6.64868 58.5946V38.054Z" fill="#DDE3E9"/>
<path d="M21.7838 20.7567C21.7838 18.9655 20.3318 17.5135 18.5406 17.5135C16.7494 17.5135 15.2974 18.9655 15.2974 20.7567V58.5946C15.2974 60.3858 16.7494 61.8378 18.5406 61.8378C20.3318 61.8378 21.7838 60.3858 21.7838 58.5946V20.7567Z" fill="#DDE3E9"/>
<path d="M36.9186 12.1081C36.9186 10.3169 35.4666 8.86487 33.6754 8.86487C31.8842 8.86487 30.4321 10.3169 30.4321 12.1081V58.5946C30.4321 60.3858 31.8842 61.8378 33.6754 61.8378C35.4666 61.8378 36.9186 60.3858 36.9186 58.5946V12.1081Z" fill="#DDE3E9"/>
<path d="M52.0539 20.7567C52.0539 18.9655 50.6018 17.5135 48.8106 17.5135C47.0194 17.5135 45.5674 18.9655 45.5674 20.7567V58.5946C45.5674 60.3858 47.0194 61.8378 48.8106 61.8378C50.6018 61.8378 52.0539 60.3858 52.0539 58.5946V20.7567Z" fill="#DDE3E9"/>
<path d="M67.1892 3.45943C67.1892 1.66824 65.7371 0.216187 63.9459 0.216187C62.1547 0.216187 60.7026 1.66824 60.7026 3.45943V58.5946C60.7026 60.3857 62.1547 61.8378 63.9459 61.8378C65.7371 61.8378 67.1892 60.3857 67.1892 58.5946V3.45943Z" fill="#C5CFD6"/>
</svg>
