<svg width="116" height="81" viewBox="0 0 116 81" fill="none" xmlns="http://www.w3.org/2000/svg">
<path fill-rule="evenodd" clip-rule="evenodd" d="M111.19 2.17206C110.613 1.7527 109.245 1.604 108.608 1.47837C105.963 0.956821 103.237 0.729736 100.54 0.729736C92.2231 0.742189 83.7711 1.55858 75.5922 2.97161C70.3994 3.86858 64.1217 6.88728 58.956 5.24791C49.9566 2.39145 40.8613 2.53173 32.3231 6.60967C24.517 10.3386 18.5911 17.4205 15.1329 25.0728C14.6111 26.228 12.4943 30.4795 11.895 33.3455C11.6389 33.9315 11.3929 34.5216 11.1709 35.1204C10.5412 36.8206 9.97656 38.5508 9.45179 40.2843C9.22759 41.0238 8.66368 42.6565 9.33328 42.9723C8.26343 44.9468 7.31505 46.9817 6.52507 49.0826C4.22774 55.1925 1.716 61.8947 0.908716 68.3705C0.609654 70.7684 0.598368 73.1802 0.875988 75.5829C1.01329 76.7703 0.956533 79.1583 1.76156 80.0611C3.47017 81.977 4.3474 79.2949 4.1548 78.0174C2.68393 68.2808 5.52407 59.1375 8.89013 49.985C11.0667 44.0666 14.643 38.6522 18.6494 33.7488C21.8917 29.7796 25.3699 26.6539 29.8144 24.0224C35.2495 20.8044 41.0603 18.2029 46.8178 15.5933C50.6044 13.8762 54.3956 12.2054 58.2879 10.7261C59.1535 10.3968 60.5152 9.55293 61.4749 9.54963C63.5043 9.5423 66.3803 11.0399 68.3406 11.597C74.7883 13.4301 81.3184 15.7771 87.9821 16.7133C92.2562 17.3143 96.2606 16.6378 100.258 15.2138C100.666 15.0688 101.351 14.6948 102.19 14.1608C105.158 13.0192 107.965 11.5824 110.41 9.50971C111.818 8.31534 113.096 6.77191 114.261 5.35925C114.61 4.93696 114.764 4.45276 114.769 3.99274C115.034 3.85466 115.209 3.69351 115.248 3.50525C115.539 2.11493 112.887 2.08929 111.19 2.17206Z" fill="#89C5CC"/>
</svg>
