<svg width="193" height="216" viewBox="0 0 193 216" fill="none" xmlns="http://www.w3.org/2000/svg">
<path fill-rule="evenodd" clip-rule="evenodd" d="M188.063 157.493C178.543 147.689 168.991 138.007 158.355 129.375C152.087 124.288 145.481 119.662 139.011 114.839C139.758 115.493 140.49 116.166 141.205 116.855C139.185 115.484 136.542 114.709 134.4 113.44C132.012 112.025 129.73 110.406 127.491 108.774C123.12 105.589 118.815 102.344 114.322 99.3254C109.317 95.9625 104.129 92.855 99.0385 89.6189C94.718 86.8724 90.3447 83.8661 85.7226 81.6211C83.2035 80.3973 80.6785 78.9466 78.149 77.6702C77.3025 77.2432 68.7125 71.8191 68.7341 71.8028C69.209 71.445 73.5316 73.4761 74.2 73.7493C76.1528 74.5469 78.0202 75.5009 79.8977 76.452C78.8672 74.4194 78.0515 72.2839 77.6075 70.036C77.4703 69.3422 76.3713 64.2911 76.9337 63.8674C77.2145 63.6557 79.9551 72.6927 80.0954 73.5616C80.2095 74.2674 80.1927 75.2837 80.4238 75.9519C80.7967 77.0313 80.7779 76.7053 81.5996 77.3133C83.1056 78.4278 85.1046 79.1241 86.7346 80.0558C87.6135 80.5464 90.3347 82.4921 91.9738 83.0468C96.9333 85.4556 101.96 89.1614 106.672 92.2381C105.436 89.9138 104.495 87.4835 103.808 84.9366C103.645 84.332 101.884 78.9077 102.311 78.5857C102.792 78.2233 106.148 86.5077 106.347 87.292C106.716 88.7488 106.792 90.3703 107.255 91.7878C107.762 93.3435 109.346 93.895 110.773 94.8019C116.024 98.1383 121.095 101.683 126.081 105.391C131.522 95.7149 125.249 84.03 119.962 75.9112C116.151 70.0599 111.02 65.0433 105.603 60.6638C98.3732 54.8188 90.1015 50.1493 81.84 45.8781C72.2137 40.9014 61.8094 37.8178 50.9927 36.3932C45.3355 35.6481 39.5477 35.6689 33.8333 35.9078C31.0418 36.0243 28.3623 36.3941 25.6872 37.3045C24.4815 37.7154 23.3162 38.2331 22.1806 38.8128C21.3178 39.2533 19.2306 39.7183 18.7346 40.3745C14.651 45.6895 12.5619 50.9859 12.8809 57.6647C13.1826 63.9871 15.1793 70.3127 17.8891 75.9522C20.907 82.232 24.7883 87.9315 29.8645 92.715C33.7373 96.3647 38.0672 99.541 42.3685 102.676C57.667 113.825 77.0629 123.522 96.8771 121.031C103.291 120.225 109.391 117.982 115.092 114.933C116.436 114.215 117.771 113.489 119.039 112.641C119.894 112.069 122.179 109.493 123.039 109.399C124.218 109.271 126.757 111.669 127.863 112.398C136.267 117.946 144.451 123.794 152.463 129.879C160.988 136.353 169.094 143.267 176.962 150.506C180.308 153.586 183.633 156.672 186.883 159.854C187.639 160.594 189.489 163.321 190.86 163.445C191.728 163.523 192.312 162.782 192.189 161.98C191.973 160.584 189.037 158.496 188.063 157.493Z" fill="#C1DEE2"/>
</svg>
