<svg width="121" height="123" viewBox="0 0 121 123" fill="none" xmlns="http://www.w3.org/2000/svg">
<path fill-rule="evenodd" clip-rule="evenodd" d="M10.5658 43.071C8.93411 44.3923 7.33381 45.7422 5.77249 47.1462C4.58263 48.2168 2.47683 49.4977 2.04967 51.1194C1.60563 52.804 3.00748 54.3814 4.11494 55.4002C9.97117 60.7879 16.5655 64.4306 24.6803 65.0362C37.1752 65.9692 48.0494 62.7785 58.8904 56.5001C66.5056 52.0899 71.5499 45.5663 72.6516 36.7575C81.7206 40.5268 90.4921 45.7218 97.9458 52.0981C101.624 55.2445 104.791 58.7301 107.721 62.5938C109.598 65.0689 111.413 67.584 113.097 70.1955C113.83 71.3301 114.574 73.3424 115.783 73.9958C117.202 74.7636 118.917 73.5603 118.847 71.9824C118.789 70.6693 117.37 69.1459 116.707 68.0725C115.606 66.2898 114.488 64.5183 113.311 62.7845C111.406 59.9777 109.438 57.2103 107.291 54.5833C102.465 48.6816 96.3258 43.806 89.9614 39.6485C77.7516 31.6724 64.3518 26.6475 49.4953 26.2219C40.3602 25.9598 32.6754 29.081 24.8635 33.7419C19.9999 36.6437 14.9792 39.4971 10.5658 43.071Z" fill="#DDE3E9"/>
</svg>
