<svg width="141" height="239" viewBox="0 0 141 239" fill="none" xmlns="http://www.w3.org/2000/svg">
<path fill-rule="evenodd" clip-rule="evenodd" d="M138.768 4.48707C134.504 1.59556 128.833 0.83783 123.731 0.83783C103.8 0.83783 85.066 8.23247 68.8821 19.2507C60.0142 25.2879 52.0811 32.9762 45.0774 40.981C41.0348 45.6017 37.4301 50.6005 34.8781 56.16C33.156 59.9125 31.974 63.8222 31.1728 67.855C30.1964 72.7697 29.4208 77.7841 29.0699 82.7805C28.9318 84.7481 27.7885 95.1884 31.0599 95.3652C31.0411 95.6226 31.0367 95.8679 31.0567 96.0879C23.9536 107.194 19.5648 120.211 15.4951 132.552C11.9543 143.291 8.79916 154.121 6.75093 165.23C4.05441 179.857 2.28322 194.703 1.44094 209.54C1.26011 212.729 1.13598 215.919 1.029 219.112C0.938384 221.835 0.846564 224.558 0.757146 227.282C0.657349 230.334 0.120036 233.847 0.605449 236.881C1.02779 239.524 3.31471 239.124 3.4157 236.494C3.53786 233.319 3.51789 230.137 3.65681 226.96C3.84163 222.742 4.03208 218.525 4.23846 214.309C5.67514 185.02 11.0649 156.162 21.0119 128.496C25.0373 117.301 29.65 106.702 35.5783 96.3457C40.7905 87.2397 47.0601 78.4242 53.4687 70.2138C59.6976 62.2351 66.1736 54.441 73.8057 47.681C79.9991 42.1955 86.8117 37.4166 93.8146 32.9699C102.709 27.3224 111.587 21.812 121.222 17.4767C126.23 15.2234 131.333 13.206 136.38 11.0438C137.288 10.6548 138.262 10.2775 139.135 9.82699C142.049 8.32439 141.09 6.06132 138.768 4.48707Z" fill="#C1DEE2"/>
</svg>
