<svg width="50" height="50" viewBox="0 0 50 50" fill="none" xmlns="http://www.w3.org/2000/svg">
<path fill-rule="evenodd" clip-rule="evenodd" d="M31.623 30.9231C30.025 32.6139 27.7613 33.6757 25.2435 33.6757C20.4058 33.6757 16.484 29.7793 16.484 24.973C16.484 20.1666 20.4058 16.2703 25.2435 16.2703V0.108093C11.4811 0.108093 0.216309 11.2998 0.216309 24.973C0.216309 38.6461 11.4811 49.8378 25.2435 49.8378C32.4726 49.8378 39.006 46.7993 43.4596 41.9656L31.623 30.9231Z" fill="#F2F2F2"/>
<path fill-rule="evenodd" clip-rule="evenodd" d="M25.0811 0.108093V16.2703C29.8874 16.2703 33.7838 20.1666 33.7838 24.973H49.9459C49.9459 11.2998 38.7542 0.108093 25.0811 0.108093Z" fill="#AFB9C5"/>
<path fill-rule="evenodd" clip-rule="evenodd" d="M33.8087 24.973C33.8087 27.7354 32.5077 30.1909 30.4868 31.7763L40.4288 44.4324C46.216 39.9014 49.9462 32.8778 49.9462 24.973H33.8087Z" fill="#C5CFD6"/>
</svg>
