<svg width="44" height="44" viewBox="0 0 44 44" fill="none" xmlns="http://www.w3.org/2000/svg">
<path fill-rule="evenodd" clip-rule="evenodd" d="M0.270462 22.3042C0.270462 10.2621 10.0024 0.405396 21.8921 0.405396V22.3042L7.11587 38.2433C2.91263 34.3464 0.270462 28.6297 0.270462 22.3042Z" fill="#F2F2F2"/>
<path fill-rule="evenodd" clip-rule="evenodd" d="M21.3199 22.0271H43.1548C43.1548 27.6714 40.8523 32.96 37.2124 36.8032C33.209 41.0065 27.5079 43.6486 21.3199 43.6486C15.62 43.6486 10.4025 41.3686 6.39802 37.7643L21.3199 22.0271Z" fill="#AFB9C5"/>
<path fill-rule="evenodd" clip-rule="evenodd" d="M43.5137 22.027C43.5137 10.1373 33.7818 0.405396 21.892 0.405396V22.027H43.5137ZM11.0812 0.405396L19.7299 19.8649L0.270426 11.2162C2.19475 6.17189 6.51583 2.32972 11.0812 0.405396Z" fill="#C5CFD6"/>
</svg>
