<svg width="148" height="301" viewBox="0 0 148 301" fill="none" xmlns="http://www.w3.org/2000/svg">
<path fill-rule="evenodd" clip-rule="evenodd" d="M11.0141 38.6339C31.1941 72.4885 54.6974 105.269 68.8119 142.284C68.2432 137.921 67.6401 133.563 66.965 129.21C63.3836 106.139 58.9326 83.2366 54.2553 60.3619C51.8733 48.7153 49.3541 37.1108 46.7703 25.5073C45.3806 19.2751 44.008 13.0391 42.5897 6.81277C42.2461 5.30368 41.951 2.66965 41.5209 0C55.238 45.0126 68.4659 90.0592 78.1416 136.154C79.411 142.203 80.4919 148.242 81.3773 154.27C81.6802 152.895 81.9781 151.52 82.3042 150.148C86.2192 133.708 92.0918 117.398 99.0842 102.026C102.427 94.6752 106.267 87.4849 110.787 80.785C113.607 76.6087 120.255 71.6442 122.827 67.367C108.762 93.1632 103.683 125.44 95.5625 153.485C93.5804 160.328 91.5859 167.161 89.6317 174.006C101.878 149.446 120.879 129.266 147.298 120.522C115.319 141.651 96.1386 178.653 83.2133 216.497C83.1707 216.946 83.1201 217.395 83.0763 217.844C86.8797 210.626 91.6707 204.097 98.164 199.524C112.061 189.735 127.478 192.586 140.959 200.984C130.379 194.258 111.257 200.382 102.355 207.218C95.9817 212.111 90.5352 218.676 85.8054 225.081C84.6721 226.616 83.126 228.407 81.4926 230.318C79.2024 245.184 75.4704 259.948 70.1867 274.595C71.0586 270.391 70.4282 263.667 70.67 260.533C70.6963 260.194 70.7177 259.855 70.7437 259.516C69.9406 262.723 69.1646 265.893 68.4175 269.013C69.9027 263.06 70.7098 256.847 71.3399 250.569C71.5022 247.871 71.6605 245.173 71.8278 242.475C71.7747 237.355 71.5639 232.215 71.2072 227.066C69.9425 222.062 68.5264 217.343 67.3586 213.418C63.1446 199.255 56.9669 185.686 49.3633 173.028C42.4259 161.477 34.1217 151.014 24.5351 141.551C19.3671 136.451 13.9585 131.594 8.62606 126.67C6.69782 124.89 3.25129 120.512 0.270508 118.231C21.9791 130.199 44.3233 143.146 60.1598 162.43C58.3032 155.3 56.2866 148.271 54.1534 141.383C43.3312 106.437 29.6665 70.219 11.0141 38.6339Z" fill="#DDE3E9"/>
<path fill-rule="evenodd" clip-rule="evenodd" d="M32.7031 230.27C32.7031 269.079 35.7764 300.541 77.0275 300.541C118.278 300.541 121.352 269.079 121.352 230.27" fill="#C5CFD6"/>
</svg>
