<svg width="312" height="415" viewBox="0 0 312 415" fill="none" xmlns="http://www.w3.org/2000/svg">
<path fill-rule="evenodd" clip-rule="evenodd" d="M212.257 96.8272C217.238 90.9799 220.61 83.8139 220.047 75.7843C218.423 52.6486 186.218 57.7382 179.953 69.4151C173.688 81.092 174.433 110.711 182.529 112.798C185.758 113.631 192.637 111.592 199.637 107.372L195.243 138.459H221.189L212.257 96.8272Z" fill="#B28B67"/>
<path fill-rule="evenodd" clip-rule="evenodd" d="M168.458 53.2275C168.996 51.3389 170.441 49.7219 172.388 49.2422C172.861 49.1258 173.348 49.0788 173.834 49.0984C174.009 49.1054 174.058 49.1556 174.139 49.0337C174.2 48.9434 174.201 48.7226 174.226 48.6163C174.303 48.2861 174.4 47.9599 174.519 47.6422C174.927 46.5586 175.612 45.5996 176.437 44.7917C177.981 43.2803 180.068 42.2372 182.236 42.0485C183.422 41.9453 184.6 42.138 185.721 42.524C186.302 42.7238 186.865 42.9725 187.413 43.2476C187.579 43.3304 188.114 43.7358 188.28 43.7096C188.463 43.6806 188.831 43.2258 188.98 43.1116C190.819 41.7004 193.09 41.1456 195.381 41.1625C197.967 41.1816 200.457 41.3109 202.614 42.8873C203.071 43.221 203.505 43.5864 203.919 43.9712C204.137 44.1737 204.349 44.3839 204.55 44.6028C204.672 44.7348 204.79 44.8699 204.904 45.0085C205.097 45.2439 205.066 45.3212 205.337 45.157C206.375 44.5264 207.577 44.2314 208.789 44.3803C209.508 44.4688 210.208 44.6848 210.873 44.969C211.099 45.0658 211.623 45.4518 211.864 45.4556C212.103 45.4593 212.619 45.1014 212.866 45.0105C214.197 44.5191 215.632 44.398 217.031 44.6251C218.474 44.8593 219.892 45.4351 221.114 46.2308C221.702 46.6135 222.216 47.0376 222.628 47.6067C222.806 47.8524 222.966 48.1123 223.168 48.3402C223.286 48.4736 223.52 48.6105 223.583 48.7793C223.546 48.6782 225.162 48.0551 225.314 48.0153C226.127 47.8031 226.954 47.8461 227.75 48.1079C229.246 48.6003 230.533 49.7044 231.59 50.8365C232.133 51.4179 232.608 52.0607 233.012 52.7454C233.205 53.0734 233.382 53.4108 233.544 53.7554C233.622 53.9223 233.674 54.1311 233.777 54.2815C233.911 54.4752 234 54.4789 234.241 54.5634C235.466 54.9923 236.582 55.7184 237.432 56.6995C238.292 57.6921 238.849 58.9145 239.083 60.2017C239.097 60.2775 239.105 60.5918 239.15 60.6328C239.21 60.6893 239.457 60.6643 239.55 60.6753C239.872 60.7131 240.193 60.7694 240.509 60.8442C241.091 60.9821 241.658 61.185 242.195 61.4504C244.285 62.4849 245.781 64.4243 246.512 66.6066C247.28 68.8968 247.267 71.5206 246.349 73.7681C246.201 74.1311 246.024 74.4835 245.817 74.8168C245.69 75.0214 245.649 75.0219 245.731 75.2366C245.824 75.4754 245.992 75.7075 246.101 75.9409C246.458 76.7025 246.707 77.5102 246.865 78.3352C247.123 79.6885 247.251 81.1106 246.996 82.4742C246.878 83.1073 246.672 83.7262 246.357 84.2902C246.197 84.5777 246.009 84.8504 245.797 85.1027C245.687 85.2336 245.57 85.3587 245.448 85.4786C245.378 85.547 245.286 85.6069 245.227 85.6834C245.082 85.8698 245.051 85.7166 245.126 85.9903C245.231 86.3731 245.468 86.7507 245.613 87.1232C245.763 87.507 245.898 87.896 246.022 88.2889C246.272 89.0845 246.484 89.8945 246.617 90.7184C246.871 92.3003 246.826 93.9858 246.078 95.4376C245.758 96.0587 245.299 96.6034 244.743 97.0272C244.47 97.2345 244.175 97.4132 243.865 97.5599C243.706 97.6355 243.503 97.6679 243.431 97.8217C243.352 97.9871 243.468 98.3156 243.495 98.5006C243.725 100.11 243.84 101.799 243.362 103.375C242.922 104.828 241.952 106.11 240.692 106.959C238.25 108.606 234.957 108.513 232.39 107.194C231.721 106.851 231.095 106.424 230.537 105.921C229.115 107.835 226.189 107.774 224.111 107.229C221.522 106.549 219.444 104.749 218.247 102.384C216.611 104.376 213.176 103.73 212.041 101.568C211.763 101.039 211.598 100.456 211.517 99.8663C211.475 99.5561 211.502 99.2431 211.47 98.9354C211.429 98.5432 211.167 98.1621 211.016 97.7827C210.723 97.0443 210.541 96.2816 210.533 95.4851C210.529 95.0693 210.582 94.6641 210.621 94.2516C210.657 93.8803 210.554 93.5343 210.495 93.1678C211.159 93.2771 211.968 93.0981 212.594 92.9055C213.208 92.7166 213.783 92.219 214.216 91.7646C215.222 90.7093 215.837 89.3259 216.257 87.9491C217.18 84.9272 216.802 81.3016 213.762 79.6431C212.346 78.8705 208.104 78.873 206.418 79.2549C204.644 79.6564 202.634 83.5691 202.535 83.9368C202.474 84.1644 202.505 84.4462 202.296 84.5978C201.836 84.9313 201.078 84.3526 200.739 84.067C200.154 83.574 199.737 82.9182 199.376 82.2534C198.589 80.805 197.954 79.2518 197.506 77.6663C197.16 76.4438 196.939 75.1833 196.487 73.992C196.038 72.8067 195.329 71.7472 194.227 71.0757C193.028 70.3452 191.654 69.9605 190.339 69.5014C189.034 69.0465 187.752 68.4904 186.741 67.5251C186.519 67.3128 186.303 67.0873 186.124 66.8374C185.983 66.6401 185.843 66.2623 185.628 66.1373C185.293 65.9426 184.805 66.4487 184.516 66.6325C183.088 67.5391 181.897 68.8035 180.937 70.1848C179.982 71.5586 179.198 72.8805 178.561 74.4145C178.088 75.5523 177.794 77.0093 176.963 77.9417C176.592 78.358 173.834 78.6099 172.941 78.2464C172.048 77.883 171.047 76.9392 170.747 76.3477C170.441 75.7423 170.367 75.0773 170.498 74.4145C170.576 74.0246 170.733 73.6604 170.819 73.2775C170.892 72.9558 170.958 72.6517 171.114 72.357C171.411 71.7985 171.918 71.3971 172.529 71.2293C171.893 70.6426 171.366 69.9408 171.001 69.1563C170.622 68.3413 170.301 67.3501 170.209 66.4555C170.135 65.729 170.25 64.9762 170.647 64.3518C171.065 63.6967 171.804 63.2694 172.443 62.8608C171.467 62.0965 170.63 61.1669 169.943 60.1378C168.606 58.1364 167.779 55.6136 168.458 53.2275Z" fill="#191847"/>
<path fill-rule="evenodd" clip-rule="evenodd" d="M293.621 273.595H169.297C159.744 273.595 152 281.339 152 290.892V390.351C152 399.904 159.744 407.649 169.297 407.649H293.621C303.174 407.649 310.918 399.904 310.918 390.351V290.892C310.918 281.339 303.174 273.595 293.621 273.595ZM276.324 303.865C278.712 303.865 280.648 305.801 280.648 308.189V373.054C280.648 375.442 278.712 377.378 276.324 377.378H186.594C184.206 377.378 182.27 375.442 182.27 373.054V308.189C182.27 305.801 184.206 303.865 186.594 303.865H276.324Z" fill="#C5CFD6"/>
<path fill-rule="evenodd" clip-rule="evenodd" d="M74.6922 404.038C88.5439 373.38 98.5612 346.685 102.582 332.6C109.467 308.484 114.705 287.263 116.028 279.338C119.185 260.44 91.7452 259.34 88.1182 268.732C82.6286 282.947 73.0451 329.651 61.5297 400.197L74.6922 404.038ZM235.363 307.825C222.655 302.802 178.149 287.081 156.684 282.634C150.515 281.356 144.537 280.168 138.916 279.095C122.209 275.906 113.554 306.046 129.644 308.362C169.717 314.129 226.526 320.085 231.388 320.753C238.202 321.69 243.351 310.983 235.363 307.825Z" fill="#B28B67"/>
<path fill-rule="evenodd" clip-rule="evenodd" d="M128.662 270.801L197.405 235.807V228.189H189.229C122.724 245.136 88.7395 255.996 87.2765 260.771C87.2608 260.822 87.2464 260.873 87.2332 260.925C87.1998 260.969 87.1668 261.013 87.1345 261.058C73.9545 279.184 66.0611 367.678 63.4703 374.304L88.7262 378.072C98.3872 342.247 129.297 317.29 128.476 274.383C128.697 273.124 128.753 271.93 128.662 270.801Z" fill="#544AF7"/>
<path fill-rule="evenodd" clip-rule="evenodd" d="M191.694 291.584C197.983 290.325 203.776 289.201 208.732 288.332C240.746 282.717 250.082 265.58 244.562 228.189L185.576 228.189C175.941 230.957 125.866 251.957 99.8844 263.126C82.6887 270.518 88.1094 297.167 97.8473 304.102C97.9002 304.528 98.0754 304.817 98.3875 304.946C150.771 326.657 192.21 315.265 206.054 318.905L212.457 298.706L191.694 291.584Z" fill="#6C63FF"/>
<path fill-rule="evenodd" clip-rule="evenodd" d="M231.018 304.615C234.45 304.943 236.887 305.459 238.327 306.161C240.08 307.016 242.494 308.555 245.571 310.778C244.579 312.811 235.67 331.079 218.841 365.582C213.438 364.71 211.298 362.648 212.419 359.397C213.54 356.145 214.444 353.431 215.131 351.254L216.199 320.243C216.22 319.646 216.72 319.179 217.317 319.2C217.327 319.2 217.337 319.201 217.348 319.201L222.118 319.501C224.829 317.307 226.617 315.322 227.483 313.546C228.187 312.103 228.576 309.826 228.651 306.715L228.651 306.715C228.679 305.522 229.67 304.577 230.864 304.606C230.916 304.607 230.967 304.61 231.018 304.615Z" fill="#E4E4E4"/>
<path fill-rule="evenodd" clip-rule="evenodd" d="M80.9964 398.353C82.2058 401.582 82.8105 403.998 82.8105 405.601C82.8105 407.55 82.4858 410.395 81.8362 414.135C79.5747 414.135 59.2497 414.135 20.8613 414.135C19.2768 408.897 20.1915 406.069 23.6053 405.651C27.0192 405.233 29.8552 404.856 32.1132 404.52L60.4538 391.885C60.9991 391.642 61.6383 391.887 61.8814 392.432C61.8856 392.442 61.8896 392.451 61.8935 392.461L63.7152 396.88C66.8755 398.354 69.4437 399.091 71.4195 399.091C73.0249 399.091 75.2419 398.443 78.0706 397.146L78.0706 397.146C79.1561 396.649 80.4395 397.125 80.9371 398.211C80.9585 398.258 80.9783 398.305 80.9964 398.353Z" fill="#E4E4E4"/>
<path fill-rule="evenodd" clip-rule="evenodd" d="M134.654 211.024L104.03 240.9C95.119 244.701 87.818 248.898 82.1266 253.491C80.8467 255.035 79.4533 257.993 85.4752 256.669C91.4971 255.345 97.8908 254.224 99.0226 256.182C100.154 258.141 96.8194 261.141 98.9111 263.704C100.306 265.413 104.995 259.978 112.98 247.4L144.826 228.624L134.654 211.024ZM270.586 215.238L247.994 215.327C261.943 260.358 269.474 284.251 270.586 287.006C273.087 293.206 267.794 302.647 265.53 307.721C272.903 311.02 272.117 298.802 281.418 303.129C289.908 307.079 296.366 314.235 306.174 308.183C307.38 307.439 308.701 304.637 305.508 302.448C297.554 296.994 286.091 287.448 284.543 284.306C282.431 280.021 277.778 256.999 270.586 215.238Z" fill="#B28B67"/>
<path fill-rule="evenodd" clip-rule="evenodd" d="M206.384 120.44L197.035 118.837C180.941 159.042 152.841 195.574 112.737 228.432L143.042 265.25C183.141 218.464 207.859 170.194 206.384 120.44Z" fill="#191847"/>
<path fill-rule="evenodd" clip-rule="evenodd" d="M247.135 237.919H163.892C183.177 191.027 192.82 151.193 192.82 118.417L217.93 114.676C237.665 146.414 243.238 185.491 247.135 237.919Z" fill="#DDE3E9"/>
<path fill-rule="evenodd" clip-rule="evenodd" d="M218.462 114.693C218.459 114.687 218.455 114.682 218.452 114.676L216.813 114.676C214.852 114.743 211.864 114.865 207.851 115.041L201.783 132.38C201.141 153.522 197.393 196.127 190.539 260.196H245.107C244.964 264.621 244.728 269.087 244.399 273.595H284.973C278.904 205.123 256.74 152.15 218.482 114.676L218.462 114.693V114.693Z" fill="#2F3676"/>
<path fill-rule="evenodd" clip-rule="evenodd" d="M241.502 203.576C239.949 231.16 236.061 250.175 229.838 260.622H245.093C245.76 240.776 244.564 221.761 241.502 203.576V203.576Z" fill="black" fill-opacity="0.1"/>
<path fill-rule="evenodd" clip-rule="evenodd" d="M232.961 227.108L206.054 214.599V227.108H232.961Z" fill="white" fill-opacity="0.2"/>
</svg>
