<svg xmlns="http://www.w3.org/2000/svg" viewBox="0 0 80.656 78.896"><defs><style>.a{fill:#005045;}</style></defs><g transform="translate(0 0)"><path class="a" d="M78.584,37.594l-4.746-.446a24.933,24.933,0,0,0-2.339-5.5l3.008-3.609a2.223,2.223,0,0,0-.134-2.986l-5.927-5.993a2.229,2.229,0,0,0-3.008-.156l-3.632,3.008a25.607,25.607,0,0,0-5.459-2.317L55.9,14.867A2.223,2.223,0,0,0,53.7,12.862H46.121V6.178a2.228,2.228,0,0,0-4.456,0v4.011H19.429a8.145,8.145,0,0,0-7.575,5.3L5.169,33.539c0,.022-.022.067-.022.089l-1.671,1.56a10.994,10.994,0,0,0-3.476,8v26.6a8.046,8.046,0,0,0,8.155,7.954h4.857a8.06,8.06,0,0,0,8.155-7.954V66.358h20.5v14.26a2.228,2.228,0,0,0,4.456,0V75.27H53.7a2.23,2.23,0,0,0,2.228-2.028L56.37,68.5A25.709,25.709,0,0,0,61.851,66.2l3.632,3.008a2.222,2.222,0,0,0,2.986-.134l5.993-5.993a2.251,2.251,0,0,0,.134-3.008l-3.008-3.632A26.1,26.1,0,0,0,73.9,50.984l4.7-.446a2.267,2.267,0,0,0,2.05-2.228V39.8A2.32,2.32,0,0,0,78.584,37.594Zm-61.9,32.173a3.593,3.593,0,0,1-3.7,3.5H8.132a3.607,3.607,0,0,1-3.7-3.5V65.578a8.491,8.491,0,0,0,3.7.78h8.556ZM41.642,45.191H34.669a2.228,2.228,0,0,0,0,4.456h6.974v1.114H34.669a2.228,2.228,0,1,0,0,4.456h6.974V61.9H8.132a3.629,3.629,0,0,1-3.7-3.543v-15.2A6.649,6.649,0,0,1,6.528,38.4L8.533,36.5H41.642v8.689ZM18.448,32.046a8.57,8.57,0,0,1,16.554,0Zm23.194,0H39.57a13.037,13.037,0,0,0-25.69,0H10.45l5.57-15.017a3.608,3.608,0,0,1,3.387-2.362H41.642ZM46.1,34.653a9.971,9.971,0,1,1,0,18.8Zm30.079,11.63h0l-4.256.4a2.277,2.277,0,0,0-1.983,1.738,21.119,21.119,0,0,1-2.963,7,2.21,2.21,0,0,0,.156,2.629l2.718,3.3L66.73,64.464l-3.3-2.718a2.21,2.21,0,0,0-2.651-.134,20.323,20.323,0,0,1-6.974,2.941,2.2,2.2,0,0,0-1.738,1.961l-.4,4.278H46.1V58.07a14.411,14.411,0,1,0,0-28.051V17.341h5.548L52.07,21.6a2.227,2.227,0,0,0,1.738,1.961,21.545,21.545,0,0,1,7,2.941,2.21,2.21,0,0,0,2.629-.156l3.275-2.718,3.075,3.1-2.741,3.32a2.208,2.208,0,0,0-.134,2.651,20.323,20.323,0,0,1,2.941,6.974A2.252,2.252,0,0,0,71.855,41.4l4.322.4v4.478Z" transform="translate(0 -3.95)"/></g></svg>