<svg xmlns="http://www.w3.org/2000/svg" viewBox="0 0 75.904 72.15"><defs><style>.a{fill:none;stroke:#00ffdc;stroke-width:2px;}.b{fill:#00ffdc;}</style></defs><g transform="translate(-967.5 -312.5)"><path class="a" d="M33.711,72.053h.3a35.117,35.117,0,0,1-25.527-15.2,34.722,34.722,0,0,1,4.283-44.142,35.176,35.176,0,0,1,53.891,5.161,34.722,34.722,0,0,1-4.283,44.142A35.025,35.025,0,0,1,41.135,72.053h.452L37.649,75.99Z" transform="translate(966 386.151) rotate(-90)"/><path class="b" d="M0-14.18a1.334,1.334,0,0,1,.236-.773,1.461,1.461,0,0,1,.623-.516l6.016-2.406v16.5L.945,1.332A.654.654,0,0,1,.3,1.246.658.658,0,0,1,0,.688Zm8.25,12.8v-16.5l8.25,2.75v16.5ZM23.8-17.832a.654.654,0,0,1,.645.086.658.658,0,0,1,.3.559V-2.32a1.334,1.334,0,0,1-.236.773,1.461,1.461,0,0,1-.623.516L17.875,1.375v-16.5Z" transform="translate(993 356.88)"/></g></svg>