<svg xmlns="http://www.w3.org/2000/svg" viewBox="0 0 75.904 72.15"><defs><style>.a{fill:none;stroke:#00ffdc;stroke-width:2px;}.b{fill:#00ffdc;}</style></defs><g transform="translate(-988.5 -663.5)"><path class="a" d="M33.711,72.053h.3a35.117,35.117,0,0,1-25.527-15.2,34.722,34.722,0,0,1,4.283-44.142,35.176,35.176,0,0,1,53.891,5.161,34.722,34.722,0,0,1-4.283,44.142A35.025,35.025,0,0,1,41.135,72.053h.452L37.649,75.99Z" transform="translate(987 737.151) rotate(-90)"/><path class="b" d="M21.57-11.043q-1.547,1.2-6.617,4.855l-.43.344a12,12,0,0,1-1.633,1.117,3.814,3.814,0,0,1-1.891.6,4.025,4.025,0,0,1-1.891-.559A17.092,17.092,0,0,1,7.477-5.8l-.43-.387Q1.848-9.969.43-11.043a.278.278,0,0,0-.279-.021.236.236,0,0,0-.15.236v8.766A1.989,1.989,0,0,0,.6-.6,1.989,1.989,0,0,0,2.063,0H19.938A1.989,1.989,0,0,0,21.4-.6,1.989,1.989,0,0,0,22-2.062v-8.766a.279.279,0,0,0-.15-.258A.212.212,0,0,0,21.57-11.043ZM11-5.5a2.743,2.743,0,0,1-1.375-.516,10.239,10.239,0,0,1-1.332-.945l-.43-.3Q2.578-11.129.688-12.59l-.3-.215A.979.979,0,0,1,0-13.621v-.816A1.989,1.989,0,0,1,.6-15.9a1.989,1.989,0,0,1,1.461-.6H19.938a1.989,1.989,0,0,1,1.461.6,1.989,1.989,0,0,1,.6,1.461v.816a.979.979,0,0,1-.387.816l-.215.172q-1.848,1.461-7.262,5.371l-.43.3a10.239,10.239,0,0,1-1.332.945A2.743,2.743,0,0,1,11-5.5Z" transform="translate(1015 707.5)"/></g></svg>