<svg xmlns="http://www.w3.org/2000/svg" viewBox="0 0 35.355 40.542"><defs><style>.a{fill:#8b8a8b;}</style></defs><path class="a" d="M52.993,27.964c-3.1,0-5.626-3.569-5.626-7.956s2.524-7.956,5.626-7.956a1.365,1.365,0,0,0,1.164-2.079l-3.7-6.026A1.365,1.365,0,0,0,48.332,3.7a3.3,3.3,0,0,1-4.661,0,3.275,3.275,0,0,1-.965-2.33A1.365,1.365,0,0,0,41.341,0H32.02a1.365,1.365,0,0,0-1.365,1.365,3.275,3.275,0,0,1-.965,2.33,3.3,3.3,0,0,1-4.661,0,1.365,1.365,0,0,0-2.129.252L19.2,9.973a1.365,1.365,0,0,0,1.164,2.079c3.1,0,5.626,3.569,5.626,7.956s-2.524,7.956-5.626,7.956A1.365,1.365,0,0,0,19.129,29.9l2.33,5.05a1.364,1.364,0,0,0,1.44.778c.1-.014,9.734-1.377,12.48,4.064a1.365,1.365,0,0,0,1.205.75H36.6a1.365,1.365,0,0,0,1.207-.727c2.952-5.578,12.6-4.483,12.694-4.471a1.364,1.364,0,0,0,1.386-.745l2.33-4.661a1.365,1.365,0,0,0-1.221-1.975Zm-15.357,3.7a.956.956,0,0,1-1.911,0v-.614a.956.956,0,1,1,1.911,0Zm0-4.575a.956.956,0,0,1-1.911,0v-1.15a.956.956,0,0,1,1.911,0Zm0-5.111a.956.956,0,0,1-1.911,0v-1.15a.956.956,0,0,1,1.911,0Zm0-5.111a.956.956,0,0,1-1.911,0v-1.15a.956.956,0,0,1,1.911,0v1.15Zm0-5.111a.956.956,0,0,1-1.911,0V10.6a.956.956,0,0,1,1.911,0Zm0-5.111a.956.956,0,0,1-1.911,0V6.026a.956.956,0,0,1,1.911,0Z" transform="translate(-19.003)"/></svg>