<svg xmlns="http://www.w3.org/2000/svg" viewBox="0 0 38.001 38.002"><defs><style>.a{fill:#8b8a8b;fill-rule:evenodd;}</style></defs><path class="a" d="M37.885,16.891a1.237,1.237,0,0,0-1.222-.936,4.2,4.2,0,0,1-2.872-7.3,1.055,1.055,0,0,0,.116-1.433,18.8,18.8,0,0,0-3.01-3.04,1.057,1.057,0,0,0-1.444.117,4.379,4.379,0,0,1-4.739,1.065,4.221,4.221,0,0,1-2.567-4.125,1.054,1.054,0,0,0-.932-1.11A18.97,18.97,0,0,0,16.94.115,1.057,1.057,0,0,0,16,1.2a4.228,4.228,0,0,1-2.6,4.054,4.391,4.391,0,0,1-4.7-1.071A1.06,1.06,0,0,0,7.26,4.065,18.873,18.873,0,0,0,4.186,7.1,1.057,1.057,0,0,0,4.3,8.548a4.211,4.211,0,0,1,1.062,4.741,4.393,4.393,0,0,1-4.134,2.568,1.033,1.033,0,0,0-1.1.933,19.034,19.034,0,0,0-.008,4.321,1.257,1.257,0,0,0,1.246.934,4.167,4.167,0,0,1,3.91,2.6,4.225,4.225,0,0,1-1.062,4.7A1.056,1.056,0,0,0,4.1,30.78a18.87,18.87,0,0,0,3.006,3.041,1.057,1.057,0,0,0,1.446-.115,4.373,4.373,0,0,1,4.737-1.066,4.214,4.214,0,0,1,2.571,4.124,1.055,1.055,0,0,0,.932,1.11,18.911,18.911,0,0,0,4.275.011,1.057,1.057,0,0,0,.941-1.088,4.223,4.223,0,0,1,2.6-4.052,4.385,4.385,0,0,1,4.706,1.071,1.062,1.062,0,0,0,1.434.12A18.917,18.917,0,0,0,33.82,30.9a1.055,1.055,0,0,0-.114-1.444,4.21,4.21,0,0,1-1.065-4.74,4.254,4.254,0,0,1,3.887-2.576l.235.006a1.058,1.058,0,0,0,1.112-.932A19.018,19.018,0,0,0,37.885,16.891ZM19.033,25.379a6.338,6.338,0,1,1,6.338-6.338A6.345,6.345,0,0,1,19.033,25.379Z" transform="translate(-0.003 0)"/></svg>