<svg xmlns="http://www.w3.org/2000/svg" viewBox="0 0 40.667 40.667"><defs><style>.a{fill:#8b8a8b;}</style></defs><g transform="translate(0 0)"><path class="a" d="M433.92,11.6a.871.871,0,0,0,1.233,0L445.259,1.488A.872.872,0,0,0,444.027.255L433.92,10.362A.871.871,0,0,0,433.92,11.6Z" transform="translate(-404.848 0)"/><path class="a" d="M37.807,59.342,36.7,47.154,33.656,50.2a3.7,3.7,0,1,1-3.082-3.082l3.044-3.044L21.429,42.963a1.625,1.625,0,0,0-1.295.469L.476,63.09a1.622,1.622,0,0,0,0,2.294l4.373,4.373L7.007,67.6l6.164,6.164-2.157,2.157,4.373,4.373a1.621,1.621,0,0,0,2.294,0L37.339,60.636A1.629,1.629,0,0,0,37.807,59.342Z" transform="translate(-0.001 -40.102)"/></g></svg>