<svg xmlns="http://www.w3.org/2000/svg" viewBox="0 0 187.668 63.225"><defs><style>.a{fill:none;}.b{fill:#00ffdc;}.c{fill:#fff;}</style></defs><g transform="translate(0 -0.4)"><path class="a" d="M164.031,11.413c-5.591-2.366-14.122-3.513-25.3-3.513-5.3,0-11.326.287-17.778.789-7.6.645-15.986,5.376-21.649,9.247l72.9-1.72A29.337,29.337,0,0,0,164.031,11.413Z" transform="translate(-28.118 -2.124)"/><path class="a" d="M162.543,61.206c.789-1.219,1.649-2.294,2.437-3.3l4.946-6.308c-1.864.143-3.8.287-5.806.358l-1.72,9.319h.143Z" transform="translate(-45.985 -14.498)"/><path class="a" d="M102.112,58.267c0-2.007-1.792-2.867-3.871-2.867a13.591,13.591,0,0,0-2.151.143L94.8,62.425h2.222C99.818,62.425,102.112,60.848,102.112,58.267Z" transform="translate(-26.844 -15.574)"/><path class="a" d="M61.988,55.3h-.072c-.717,1.792-1.577,4.229-2.294,5.806L57.4,66.339h5.233l-.287-5.3C62.2,59.529,62.131,57.092,61.988,55.3Z" transform="translate(-16.253 -15.546)"/><path class="b" d="M23.354,70.512c-4.444,0-7.168-2.581-7.168-6.882a10.381,10.381,0,0,1,3.8-8.53,9.4,9.4,0,0,1,5.878-1.792,14.81,14.81,0,0,1,5.018.789l1.935-5.95A15.854,15.854,0,0,0,26.508,47a18.874,18.874,0,0,0-10.394,2.652C11.454,52.52,8.3,57.466,8.3,64.419c0,7.67,5.376,12.33,13.19,12.33,3.584,0,6.165-.5,7.6-1.219l-.5-5.878A14.288,14.288,0,0,1,23.354,70.512Z" transform="translate(-2.35 -13.195)"/><path class="b" d="M58.74,47.7H53.292L39.6,76.517h7.814l2.867-6.738h7.6l.358,6.738h7.67L62.9,48.417c-1-.143-2.079-.358-3.082-.5ZM52.36,64.259l2.222-5.233c.717-1.577,1.577-4.014,2.294-5.806h.072c.143,1.792.215,4.158.358,5.806l.287,5.3H52.36Z" transform="translate(-11.213 -13.393)"/><path class="b" d="M80.3,77.395h7.168L89.547,66.57h1.29c2.222,0,3.369.86,3.584,4.086a49.3,49.3,0,0,0,.86,6.738h7.455c-.573-1.219-.789-5.376-1.147-8.315-.287-2.437-1-4.229-2.581-5.018v-.143c3.728-1.29,6.38-3.728,6.38-8.029a6.981,6.981,0,0,0-1.075-3.8c-6.738-.215-13.046-.717-19-1.29ZM91.913,54.241a13.59,13.59,0,0,1,2.151-.143c2.079,0,3.871.86,3.871,2.867,0,2.509-2.222,4.158-5.09,4.158H90.622Z" transform="translate(-22.738 -14.271)"/><path class="c" d="M120.976,52.9a8.669,8.669,0,0,0-1.935,5.591c0,4.014,3.3,6.237,6.093,7.742,2.437,1.29,3.728,2.079,3.728,3.512,0,1.72-1.792,2.509-3.8,2.437a14.8,14.8,0,0,1-7.1-1.792L115.6,76.412c1.434.932,4.3,2.079,8.817,2.079,6.38,0,12.258-3.011,12.258-10.036,0-3.441-2.294-5.806-5.806-7.6-2.222-1.219-4.086-2.151-4.086-3.513,0-1.219,1.219-2.294,3.8-2.294a12.076,12.076,0,0,1,5.52,1.219L137.32,52.9c-3.154.072-6.237.143-9.319.143C125.564,52.972,123.27,52.9,120.976,52.9Z" transform="translate(-32.733 -14.866)"/><path class="c" d="M165.978,51.132l-4.946,6.308c-.788,1.075-1.649,2.079-2.437,3.3h-.072l1.72-9.319c-2.366.143-4.8.287-7.24.358l-4.8,25.376h7.168l1.72-9.032,2.867-2.8,4.158,11.828h7.957l-6.38-16.344L175.44,50.2c-1.147.143-2.222.215-3.369.358C170.064,50.845,168.056,50.989,165.978,51.132Z" transform="translate(-41.964 -14.101)"/><path class="c" d="M190.161,49.147,185,76.6h7.312l5.376-28.459L197.545,48C195.179,48.43,192.67,48.789,190.161,49.147Z" transform="translate(-52.385 -13.478)"/><path class="c" d="M202.6,76.517h6.738l1.505-7.957c.932-4.8,1.72-9.391,2.007-12.258h.143a109.068,109.068,0,0,0,2.867,10.753l2.867,9.391h7.6L231.775,47.7h-6.81l-1.577,8.387a71.293,71.293,0,0,0-1.362,10.9h-.143c-.717-3.513-1.505-6.738-2.652-10.609L216.793,48.2a83.506,83.506,0,0,1-9.032.645Z" transform="translate(-57.368 -13.393)"/><path class="c" d="M132.532,49h0Z" transform="translate(-37.264 -13.762)"/><path class="c" d="M252.99,27.9c-.43.072-.86.215-1.29.287.43-.072.86-.215,1.29-.287Z" transform="translate(-71.272 -7.787)"/><path class="c" d="M15.6,43.46c.789-.287,1.649-.573,2.509-.86C17.177,42.887,16.317,43.173,15.6,43.46Z" transform="translate(-4.417 -11.949)"/><path class="c" d="M259.1,26.558a15.852,15.852,0,0,1,1.792-.358c-.573.143-1.147.215-1.792.358Z" transform="translate(-73.367 -7.306)"/><path class="c" d="M53.13,37.9h0Z" transform="translate(-14.923 -10.619)"/><path class="c" d="M7.168,30.866c6.093-2.8,16.846-5.735,34.91-5.735H97.633c.86,0,1.72,0,2.509-.072h.358c.717,0,1.434,0,2.222-.072h3.441a15.593,15.593,0,0,0,1.792-.072h.86a18.782,18.782,0,0,0,2.007-.072h.573c.86,0,1.72-.072,2.581-.072h.358c.717,0,1.505-.072,2.222-.072h.717c.645,0,1.29-.072,1.864-.072h.789c.645,0,1.219-.072,1.864-.072h.789c.717,0,1.434-.072,2.079-.072h.43c.86,0,1.72-.072,2.581-.072h.358c.717,0,1.434-.072,2.151-.072h.789c.573,0,1.219-.072,1.792-.072a2.94,2.94,0,0,0,.789-.072c.573,0,1.147-.072,1.792-.072a2.439,2.439,0,0,0,.717-.072c.717,0,1.362-.072,2.079-.072h.358c.86-.072,1.649-.072,2.437-.143h.43c.645-.072,1.29-.072,1.935-.143a2.439,2.439,0,0,0,.717-.072c.573,0,1.075-.072,1.649-.072a2.94,2.94,0,0,0,.789-.072c.573-.072,1.075-.072,1.649-.143a2.689,2.689,0,0,0,.717-.072c.43,0,.86-.072,1.29-.072h0c16.559-1.219,30.036-3.082,36.344-6.021.573-.287.645-.43.287-.5a4.569,4.569,0,0,0-.645-.143h0c-.5-.072-1.29-.143-2.294-.215-1.29-.143-2.867-.215-4.8-.5-.789-.072-1.577-.215-2.437-.358a86.147,86.147,0,0,1-23.082-6.667c-.573-.287-1.219-.5-1.792-.789-.215-.072-.358-.143-.573-.215-.43-.143-.789-.358-1.147-.5-.215-.072-.43-.215-.645-.287l-1.075-.43a4.943,4.943,0,0,1-.717-.287,5.618,5.618,0,0,0-1-.358c-.215-.072-.43-.143-.717-.215-.358-.143-.645-.215-1-.358l-.645-.215c-.358-.143-.717-.215-1.075-.358-.215-.072-.358-.143-.573-.215-.5-.143-1-.287-1.434-.43-.072,0-.143-.072-.215-.072-.5-.143-.932-.287-1.434-.43-.215-.072-.358-.072-.573-.143a5.281,5.281,0,0,1-1-.287c-.215-.072-.43-.072-.645-.143l-.86-.215c-.215-.072-.43-.072-.645-.143l-.86-.215c-.215-.072-.43-.072-.645-.143a3.6,3.6,0,0,0-.86-.143c-.215-.072-.43-.072-.645-.143a3.632,3.632,0,0,0-.932-.143c-.215,0-.358-.072-.573-.072-.43-.072-.86-.143-1.219-.215-.143,0-.215-.072-.358-.072-.43-.072-.86-.143-1.219-.215-.215,0-.358-.072-.573-.072-.287-.072-.573-.072-.86-.143-.215,0-.43-.072-.573-.072-.287,0-.573-.072-.789-.072S125.16.9,124.945.9c-.287,0-.5-.072-.789-.072-.215,0-.43-.072-.645-.072-.287,0-.573-.072-.789-.072a1.4,1.4,0,0,1-.573-.072c-.287,0-.573-.072-.86-.072h-.5c-.43,0-.86-.072-1.29-.072h-.287c-.43,0-.86-.072-1.29-.072H102.006C85.949.4,75.483,5.991,66.451,11.081c-1.29.717-2.581,1.434-3.8,2.151-6.38,3.513-4.659,4.086-10.753,4.946q-.645.108-1.505.215c-.358.072-.717.072-1.147.143-.789.072-1.72.215-2.724.287-.5.072-1,.143-1.577.215-3.369.358-7.814.86-13.62,1.505-2.437.287-4.659.573-6.738,1a78.107,78.107,0,0,0-7.742,1.792c-.287.072-.645.215-.932.287-1.219.358-2.366.789-3.441,1.147-1.075.43-2.007.789-2.867,1.219-.215.072-.43.215-.645.287a7.818,7.818,0,0,0-.789.43,6.3,6.3,0,0,0-.717.43,3.117,3.117,0,0,0-.5.287c-.215.143-.5.287-.717.43a1.848,1.848,0,0,0-1.147.43l-.86.645a16.287,16.287,0,0,0-1.935,1.864c-.143.215-.358.358-.5.573-.072.072-.143.215-.215.287A7.508,7.508,0,0,1,1,32.443c-.072.143-.215.358-.287.5a7.234,7.234,0,0,0-.5,1.075h0A8.387,8.387,0,0,0,0,35.6a7.543,7.543,0,0,1,.645-.717c.215-.143.43-.358.717-.573a6.069,6.069,0,0,1,1-.717c.717-.5,1.72-1.147,2.867-1.792C5.806,31.511,6.452,31.152,7.168,30.866ZM63.082,18.393c0-.072.072-.143.143-.215C66.594,15.382,80.214,4.7,92.616,3.7c.645-.072,1.219-.072,1.864-.143h.43c.645-.072,1.29-.072,1.935-.143h.215c.573-.072,1.219-.072,1.792-.143h.43c.645-.072,1.362-.072,2.007-.143h.358c.573,0,1.219-.072,1.792-.072h.358c.645,0,1.362-.072,2.007-.072h.43a15.591,15.591,0,0,0,1.864-.072h6.308a12.15,12.15,0,0,1,1.649.072h.43c.43,0,.86.072,1.29.072h.573c.358,0,.717.072,1.075.072a1.984,1.984,0,0,1,.645.072c.358,0,.717.072,1.075.072a1.578,1.578,0,0,1,.573.072c.5.072,1,.072,1.434.143h.143L124.8,3.7c.143,0,.358.072.5.072.358.072.717.072,1.075.143.215,0,.358.072.573.072.358.072.645.072,1,.143.215,0,.358.072.573.072l1.075.215a3.1,3.1,0,0,1,.358.072c.5.072.932.215,1.434.287.143,0,.215.072.358.072a5.972,5.972,0,0,1,1.075.287,4.569,4.569,0,0,0,.5.143,4.041,4.041,0,0,1,.86.287,4.569,4.569,0,0,0,.5.143c.287.072.573.215.86.287.143.072.287.072.358.143a8.745,8.745,0,0,1,1.219.5c.717.287,1.362.573,2.007.86.287.143.645.287.932.43a29.433,29.433,0,0,1,6.953,4.731,7.138,7.138,0,0,1,.717.789,5.021,5.021,0,0,1,.573.717,8.053,8.053,0,0,1,1.577,2.652L63.512,18.823h0a.263.263,0,0,1-.215-.072h0l-.143-.143h0a.263.263,0,0,1-.072-.215Z" transform="translate(0 0)"/><path class="b" d="M182.851,27.419a8.335,8.335,0,0,0-1.29.287c-.43.072-.86.215-1.29.287l-2.151.43c-.43.072-.932.215-1.362.287-.717.143-1.362.287-2.079.43a8.335,8.335,0,0,0-1.29.287l-2.15.43c-.43.072-.789.143-1.219.215-.86.143-1.649.287-2.509.43-.287.072-.5.072-.789.143-1.075.215-2.15.358-3.226.573-.215.072-.43.072-.645.143-.86.143-1.72.287-2.509.43a5.534,5.534,0,0,1-1.075.143c-.717.143-1.362.215-2.079.358-.358.072-.789.143-1.147.215-.645.072-1.29.215-1.935.287a6.274,6.274,0,0,1-1.147.143c-.645.072-1.29.215-1.935.287a5.533,5.533,0,0,1-1.075.143c-.717.072-1.362.215-2.079.287-.287.072-.573.072-.86.143-.932.143-1.864.287-2.724.358h-.143c-.932.143-1.935.287-2.867.358-.215,0-.5.072-.717.072a20.682,20.682,0,0,0-2.079.287c-.287.072-.645.072-.932.143-.573.072-1.219.143-1.792.215-.358.072-.645.072-1,.143l-1.72.215c-.358,0-.645.072-1,.072-.573.072-1.147.143-1.792.215-.287,0-.573.072-.86.072-.645.072-1.362.143-2.007.215-.215,0-.43.072-.573.072l-2.581.215H124c-.789.072-1.577.143-2.294.215-.287,0-.5.072-.789.072-.573.072-1.147.072-1.72.143-.287,0-.573.072-.932.072a11.612,11.612,0,0,1-1.577.072c-.287,0-.573.072-.932.072-.5,0-1,.072-1.505.072a3.489,3.489,0,0,0-.86.072c-.573,0-1.075.072-1.649.072a2.439,2.439,0,0,0-.717.072c-.645,0-1.362.072-2.007.072h-.287c-.789,0-1.505.072-2.294.072h-.573a12.692,12.692,0,0,0-1.649.072H91.239c-.932,0-1.864,0-2.724-.072h-.43c-.932,0-1.792-.072-2.724-.072h-.143c-.932,0-1.792-.072-2.724-.072h-.5c-.86,0-1.72-.072-2.581-.072h-.5c-.86-.072-1.72-.072-2.581-.143h-.143c-.86-.072-1.649-.072-2.509-.143h-.43c-.789-.072-1.649-.072-2.437-.143h-.5c-.789-.072-1.577-.143-2.366-.143h-.287c-.789-.072-1.505-.143-2.294-.143h-.287l-2.366-.215a1.4,1.4,0,0,1-.5-.072c-.789-.072-1.505-.143-2.294-.215h-.358c-.717-.072-1.505-.143-2.222-.215h-.215l-2.366-.215a.909.909,0,0,1-.43-.072c-.789-.072-1.505-.143-2.294-.215l-2.581-.215c-.932-.072-1.935-.143-2.867-.215a4.088,4.088,0,0,1-.932-.072c-.573,0-1.219-.072-1.792-.072H42.781A11.614,11.614,0,0,1,41.2,34.73H35.326c-.5,0-.932.072-1.362.072a3.49,3.49,0,0,0-.86.072c-.5,0-.932.072-1.362.072-.287,0-.5.072-.789.072-.5.072-1,.072-1.505.143-.215,0-.43.072-.645.072-1.362.143-2.724.287-3.943.5-.143,0-.287.072-.43.072-.43.072-.932.143-1.362.215a1.687,1.687,0,0,0-.573.143c-.358.072-.789.143-1.147.215-.215.072-.43.072-.573.143l-1.075.215c-.215.072-.358.072-.573.143a4.11,4.11,0,0,0-1,.287c-.143.072-.358.072-.5.143-.358.072-.717.215-1,.287-.143-.143-.287-.072-.43-.072-.43.143-.789.215-1.147.358-.072,0-.143.072-.215.072-.932.287-1.72.573-2.509.86-.072,0-.215.072-.287.072-.287.072-.573.215-.86.287-.143.072-.215.072-.358.143-.215.072-.5.215-.717.287-.143.072-.215.072-.287.143-.215.072-.43.215-.645.287-.072.072-.215.072-.287.143a4.257,4.257,0,0,0-.573.287c-.072.072-.143.072-.215.143a4.257,4.257,0,0,0-.573.287.25.25,0,0,0-.143.072c-.215.143-.43.215-.645.358h0c-.215.143-.43.215-.645.358a.07.07,0,0,0-.072.072,1.111,1.111,0,0,0-.573.143c-.072,0-.072.072-.143.072-.072.072-.215.143-.287.215-.072,0-.072.072-.143.072-.072.072-.143.072-.215.143-.072,0-.072.072-.143.072-.072.072-.143.072-.143.143l-.072.072c-.072,0-.072.072-.143.072a.07.07,0,0,0-.072.072L4,42.9h.072a.07.07,0,0,0,.072-.072h.072c.072,0,.143-.072.215-.072H4.5a.229.229,0,0,1,.215-.215.07.07,0,0,0,.072-.072c.072-.072.215-.072.358-.143a.25.25,0,0,0,.143-.072c.143-.072.215-.072.358-.143.072,0,.143-.072.215-.072a4.941,4.941,0,0,1,.573-.215h.072c.215-.072.43-.143.717-.215.072,0,.143-.072.215-.072.215-.072.358-.143.573-.215.072,0,.215-.072.287-.072l.645-.215c.072,0,.143-.072.215-.072.287-.072.645-.215.932-.287.072,0,.143-.072.215-.072l.86-.215c.143,0,.215-.072.358-.072.287-.072.5-.143.789-.215a3.105,3.105,0,0,0,.358-.072c.358-.072.645-.143,1-.215a.263.263,0,0,0,.215-.072c.43-.072.86-.215,1.29-.287a3.1,3.1,0,0,0,.358-.072c.287-.072.645-.143,1-.215.143,0,.287-.072.5-.072.358-.072.717-.143,1-.215.143,0,.287-.072.43-.072l1.505-.215a.263.263,0,0,0,.215-.072l1.29-.215c.143,0,.358-.072.5-.072.358-.072.789-.072,1.147-.143.215,0,.358-.072.573-.072.43-.072.932-.072,1.434-.143h.287c.573-.072,1.147-.072,1.72-.143h.5c.43,0,.86-.072,1.362-.072h.645a8.677,8.677,0,0,0,1.362-.072h5.3a10.1,10.1,0,0,1,1.434.072,3.49,3.49,0,0,1,.86.072c.43,0,.86.072,1.362.072.287,0,.573.072.932.072.43.072.932.072,1.362.143.287,0,.645.072.932.072.5.072.932.072,1.434.143.287.072.573.072.932.143.5.072,1.075.143,1.577.215.287.072.5.072.789.143.789.143,1.577.287,2.437.43s1.792.287,2.652.43c.287.072.573.072.86.143.645.072,1.219.215,1.864.287.358.072.717.072,1.075.143.573.072,1.075.143,1.649.215.358.072.789.072,1.147.143.573.072,1.075.143,1.649.215.43.072.789.072,1.219.143a11.721,11.721,0,0,0,1.577.143c.43.072.86.072,1.219.143.5.072,1.075.072,1.577.143.43.072.86.072,1.29.143.5.072,1.075.072,1.577.143.43,0,.86.072,1.29.072.5.072,1.075.072,1.577.143.43,0,.86.072,1.29.072.5,0,1.075.072,1.577.072.43,0,.86.072,1.29.072.5,0,1.075.072,1.577.072.43,0,.86.072,1.29.072.5,0,1.075.072,1.577.072.43,0,.86.072,1.29.072.5,0,1.075.072,1.577.072a7.791,7.791,0,0,1,1.29.072,11.616,11.616,0,0,1,1.577.072h21.075a9.141,9.141,0,0,0,1.362-.072,5.426,5.426,0,0,0,1.075-.072,7.792,7.792,0,0,0,1.29-.072,5.425,5.425,0,0,0,1.075-.072c.43,0,.86-.072,1.29-.072a4.408,4.408,0,0,0,1-.072c.43,0,.86-.072,1.29-.072a4.732,4.732,0,0,0,1-.072c.43,0,.86-.072,1.219-.072a4.088,4.088,0,0,0,.932-.072c.43,0,.789-.072,1.219-.072.287,0,.573-.072.932-.072.43,0,.789-.072,1.147-.072.287,0,.573-.072.86-.072.358,0,.789-.072,1.147-.072.287,0,.573-.072.789-.072.358,0,.789-.072,1.147-.072.215,0,.5-.072.717-.072.43,0,.86-.072,1.219-.072a1.578,1.578,0,0,0,.573-.072c.573-.072,1.147-.072,1.72-.143C165.647,37.669,188.8,26.2,188.8,26.2c-.645.143-1.219.287-1.792.358C185.5,26.845,184.213,27.132,182.851,27.419Z" transform="translate(-1.133 -7.306)"/><path class="c" d="M242.876,30.4A118.175,118.175,0,0,1,205.6,41.224C235.564,41.081,242.876,30.4,242.876,30.4Z" transform="translate(-58.218 -8.495)"/></g></svg>