<svg width="50" height="50" viewBox="0 0 50 50" fill="none" xmlns="http://www.w3.org/2000/svg">
<path d="M49.7139 9.17148L40.8271 0.286035C40.644 0.10293 40.3957 0 40.1367 0H11.1328C9.51738 0 8.20312 1.31426 8.20312 2.92969V4.79141C3.40576 6.67324 0 11.3491 0 16.8058C0 17.345 0.437305 17.7823 0.976562 17.7823H12.8995C13.4388 17.7823 13.8761 17.345 13.8761 16.8058V4.88281C13.8761 4.34355 13.4388 3.90625 12.8995 3.90625C11.9583 3.90625 11.0407 4.0085 10.1562 4.20088V2.92969C10.1562 2.39121 10.5943 1.95312 11.1328 1.95312H39.1602V7.91016C39.1602 9.52559 40.4744 10.8398 42.0898 10.8398H48.0469V47.0703C48.0469 47.6088 47.6088 48.0469 47.0703 48.0469H11.1328C10.5943 48.0469 10.1562 47.6088 10.1562 47.0703V38.7044C10.1562 38.1651 9.71895 37.7278 9.17969 37.7278C8.64043 37.7278 8.20312 38.1651 8.20312 38.7044V47.0703C8.20312 48.6857 9.51738 50 11.1328 50H47.0703C48.6857 50 50 48.6857 50 47.0703V9.86201C50 9.60303 49.8971 9.35459 49.7139 9.17148ZM11.9229 5.90264V15.8292H1.99629C2.46318 10.5706 6.66436 6.36953 11.9229 5.90264ZM42.0898 8.88672C41.5514 8.88672 41.1133 8.44863 41.1133 7.91016V3.33398L46.6668 8.88672H42.0898Z" fill="white"/>
<path d="M9.87002 34.4658C9.68848 34.2841 9.43652 34.1797 9.17969 34.1797C8.92285 34.1797 8.6709 34.2841 8.48926 34.4658C8.30762 34.6475 8.20312 34.8994 8.20312 35.1562C8.20312 35.4131 8.30752 35.665 8.48926 35.8466C8.6709 36.0283 8.92285 36.1328 9.17969 36.1328C9.43652 36.1328 9.68848 36.0283 9.87002 35.8466C10.0518 35.665 10.1562 35.4131 10.1562 35.1562C10.1562 34.8994 10.0518 34.6475 9.87002 34.4658Z" fill="white"/>
<path d="M16.3972 7.40417C15.858 7.40417 15.4207 7.84148 15.4207 8.38074V19.327H4.47437C3.93511 19.327 3.4978 19.7643 3.4978 20.3036C3.4978 27.4164 9.28442 33.2031 16.3972 33.2031C23.51 33.2031 29.2967 27.4164 29.2967 20.3036C29.2967 13.1908 23.51 7.40417 16.3972 7.40417ZM17.3738 9.40056C19.6599 9.60349 21.7459 10.5127 23.4124 11.9074L17.3738 17.946V9.40056ZM16.3972 31.25C10.6905 31.25 5.9896 26.8604 5.49419 21.2802H16.3972C16.6667 21.2802 16.9107 21.171 17.0875 20.9944C17.0875 20.9943 17.0876 20.9943 17.0878 20.9941L24.7938 13.2883C26.3847 15.1893 27.3436 17.6366 27.3436 20.3036C27.3436 26.3394 22.4331 31.25 16.3972 31.25Z" fill="white"/>
<path d="M42.7806 30.8208C41.1651 30.8208 39.8509 32.1351 39.8509 33.7505C39.8509 34.1554 39.9335 34.5412 40.0826 34.8923L34.4564 40.5186C34.0697 40.3302 33.6357 40.2242 33.1775 40.2242C32.7302 40.2242 32.3062 40.3254 31.9266 40.5054L28.1904 36.7692C28.3199 36.4388 28.3918 36.0795 28.3918 35.7035C28.3918 34.0881 27.0775 32.7738 25.4621 32.7738C23.8467 32.7738 22.5324 34.0881 22.5324 35.7035C22.5324 36.1412 22.6296 36.5564 22.8024 36.9298L19.2189 40.5133C18.8372 40.3307 18.4101 40.2282 17.9595 40.2282C16.344 40.2282 15.0298 41.5425 15.0298 43.1579C15.0298 44.7733 16.344 46.0876 17.9595 46.0876C19.5749 46.0876 20.8892 44.7733 20.8892 43.1579C20.8892 42.7051 20.7858 42.276 20.6017 41.8929L24.1651 38.3294C24.5564 38.5235 24.9967 38.6332 25.4623 38.6332C25.9882 38.6332 26.4816 38.4933 26.9087 38.2497L30.5395 41.8805C30.3527 42.2657 30.2479 42.6977 30.2479 43.1539C30.2479 44.7693 31.5621 46.0836 33.1775 46.0836C34.793 46.0836 36.1072 44.7693 36.1072 43.1539C36.1072 42.7088 36.007 42.2867 35.8286 41.9086L41.4023 36.3349C41.8134 36.555 42.2826 36.6802 42.7806 36.6802C44.396 36.6802 45.7103 35.3659 45.7103 33.7505C45.7103 32.1351 44.396 30.8208 42.7806 30.8208ZM17.9594 44.1346C17.4209 44.1346 16.9828 43.6965 16.9828 43.158C16.9828 42.6195 17.4209 42.1814 17.9594 42.1814C18.2216 42.1814 18.4594 42.2858 18.635 42.4546C18.6389 42.4587 18.6423 42.4631 18.6463 42.4671C18.651 42.4718 18.6561 42.4757 18.6608 42.4802C18.8308 42.656 18.9359 42.8948 18.9359 43.158C18.9359 43.6964 18.4979 44.1346 17.9594 44.1346ZM25.4621 36.6801C24.9236 36.6801 24.4855 36.242 24.4855 35.7035C24.4855 35.165 24.9236 34.727 25.4621 34.727C26.0006 34.727 26.4387 35.165 26.4387 35.7035C26.4387 36.242 26.0006 36.6801 25.4621 36.6801ZM33.1773 44.1305C32.6389 44.1305 32.2008 43.6924 32.2008 43.1539C32.2008 42.6154 32.6389 42.1773 33.1773 42.1773C33.7158 42.1773 34.1539 42.6154 34.1539 43.1539C34.1539 43.6924 33.7158 44.1305 33.1773 44.1305ZM42.7804 34.727C42.2419 34.727 41.8038 34.2889 41.8038 33.7504C41.8038 33.2119 42.242 32.7738 42.7804 32.7738C43.3189 32.7738 43.7569 33.2119 43.7569 33.7504C43.7569 34.2889 43.3189 34.727 42.7804 34.727Z" fill="white"/>
<path d="M37.8993 22.9492H32.7451C32.2059 22.9492 31.7686 23.3865 31.7686 23.9258C31.7686 24.465 32.2058 24.9023 32.7451 24.9023H37.8993C38.4386 24.9023 38.8759 24.465 38.8759 23.9258C38.8759 23.3865 38.4386 22.9492 37.8993 22.9492Z" fill="white"/>
<path d="M43.036 23.2354C42.8545 23.0537 42.6025 22.9492 42.3457 22.9492C42.0889 22.9492 41.8369 23.0536 41.6553 23.2354C41.4736 23.417 41.3691 23.6689 41.3691 23.9258C41.3691 24.1826 41.4735 24.4346 41.6553 24.6161C41.8369 24.7978 42.0879 24.9023 42.3457 24.9023C42.6025 24.9023 42.8545 24.7979 43.036 24.6161C43.2177 24.4346 43.3223 24.1826 43.3223 23.9258C43.3223 23.6689 43.2178 23.417 43.036 23.2354Z" fill="white"/>
<path d="M44.6742 13.5742H32.7451C32.2059 13.5742 31.7686 14.0115 31.7686 14.5508C31.7686 15.09 32.2058 15.5273 32.7451 15.5273H44.6742C45.2135 15.5273 45.6508 15.09 45.6508 14.5508C45.6508 14.0115 45.2135 13.5742 44.6742 13.5742Z" fill="white"/>
<path d="M44.6742 18.2617H32.7451C32.2059 18.2617 31.7686 18.699 31.7686 19.2383C31.7686 19.7775 32.2058 20.2148 32.7451 20.2148H44.6742C45.2135 20.2148 45.6508 19.7775 45.6508 19.2383C45.6508 18.699 45.2135 18.2617 44.6742 18.2617Z" fill="white"/>
</svg>
