<svg width="250" height="250" viewBox="0 0 250 250" fill="none" xmlns="http://www.w3.org/2000/svg">
<g clip-path="url(#clip0)">
<path d="M245.054 78.0088H212.493V33.7546C212.493 31.0233 210.279 28.8088 207.548 28.8088H4.94575C2.21443 28.8088 0 31.0233 0 33.7546V177.063C0 179.794 2.21443 182.009 4.94575 182.009H25.7263C28.4576 182.009 30.672 179.794 30.672 177.063C30.672 174.332 28.4576 172.117 25.7263 172.117H9.89149V153.187H175.361V172.117H66.2745C63.5432 172.117 61.3288 174.332 61.3288 177.063C61.3288 179.794 63.5432 182.009 66.2745 182.009H80.5949L74.6783 198.288H64.2203C62.6734 198.288 61.2162 199.011 60.2816 200.243L53.913 208.633C52.2612 210.808 52.6866 213.911 54.8629 215.561C57.0372 217.213 60.1386 216.787 61.7923 214.613L66.6751 208.179H145.82L150.703 214.613C151.676 215.895 153.152 216.568 154.646 216.568C155.689 216.568 156.738 216.24 157.633 215.561C159.809 213.911 160.232 210.808 158.582 208.633L152.214 200.243C151.279 199.011 149.822 198.288 148.275 198.288H137.052L131.136 182.009H175.361V215.891C175.361 218.622 177.576 220.837 180.307 220.837H245.054C247.785 220.837 250 218.622 250 215.891V82.9545C250 80.2232 247.785 78.0088 245.054 78.0088ZM85.203 198.288L91.1177 182.009H120.613L126.528 198.288H85.203ZM185.253 113.106H240.11V183.092H185.253V113.106ZM240.108 87.9003V103.214H185.253V87.9003H240.108ZM9.89149 143.297V38.7003H202.602V78.0107H180.307C177.576 78.0107 175.361 80.2232 175.361 82.9545V143.297H9.89149ZM240.108 210.945H185.253V192.984H240.11V210.945H240.108Z" fill="white"/>
<path d="M114.105 167.597C116.836 167.597 119.051 165.384 119.051 162.653C119.051 159.922 116.836 157.707 114.105 157.707H98.7394C96.0081 157.707 93.7956 159.922 93.7956 162.653C93.7956 165.384 96.0081 167.597 98.7394 167.597H114.105Z" fill="white"/>
<path d="M208.305 100.561H217.285C220.016 100.561 222.23 98.3468 222.23 95.6155C222.23 92.8842 220.016 90.6716 217.285 90.6716H208.305C205.574 90.6716 203.359 92.8842 203.359 95.6155C203.359 98.3468 205.574 100.561 208.305 100.561Z" fill="white"/>
<path d="M212.511 206.612C212.885 206.612 213.266 206.568 213.646 206.48L213.979 206.402C216.638 205.776 218.286 203.113 217.661 200.455C217.037 197.796 214.374 196.148 211.715 196.773L211.382 196.852C208.725 197.477 207.075 200.138 207.7 202.797C208.236 205.074 210.268 206.612 212.511 206.612Z" fill="white"/>
<path d="M44.5632 172.213L44.2581 172.283C41.5992 172.907 39.9494 175.568 40.5711 178.226C41.1052 180.508 43.1365 182.047 45.3815 182.047C45.7553 182.047 46.1349 182.003 46.5144 181.915L46.8177 181.843C49.4766 181.221 51.1283 178.56 50.5065 175.901C49.8828 173.241 47.2202 171.591 44.5632 172.213Z" fill="white"/>
<path d="M155.683 68.6246C156.057 68.6246 156.438 68.5808 156.818 68.4911L157.123 68.4206C159.78 67.7949 161.43 65.1323 160.804 62.4754C160.179 59.8146 157.518 58.1647 154.859 58.7923L154.554 58.8647C151.897 59.4884 150.247 62.1511 150.873 64.8099C151.409 67.0873 153.438 68.6246 155.683 68.6246Z" fill="white"/>
<path d="M32.0282 68.5865H82.9639C85.6952 68.5865 87.9097 66.374 87.9097 63.6427C87.9097 60.9113 85.6952 58.6969 82.9639 58.6969H32.0282C29.2968 58.6969 27.0824 60.9113 27.0824 63.6427C27.0824 66.374 29.2968 68.5865 32.0282 68.5865Z" fill="white"/>
<path d="M32.0282 85.9567H155.167C157.898 85.9567 160.112 83.7423 160.112 81.0109C160.112 78.2796 157.898 76.0652 155.167 76.0652H32.0282C29.2968 76.0652 27.0824 78.2796 27.0824 81.0109C27.0824 83.7423 29.2968 85.9567 32.0282 85.9567Z" fill="white"/>
<path d="M155.991 95.1215H32.0282C29.2968 95.1215 27.0824 97.3359 27.0824 100.067C27.0824 102.799 29.2968 105.013 32.0282 105.013H155.991C158.722 105.013 160.936 102.799 160.936 100.067C160.936 97.3359 158.722 95.1215 155.991 95.1215Z" fill="white"/>
<path d="M81.316 112.915H32.0282C29.2968 112.915 27.0824 115.129 27.0824 117.861C27.0824 120.592 29.2968 122.807 32.0282 122.807H81.316C84.0473 122.807 86.2617 120.592 86.2617 117.861C86.2617 115.129 84.0473 112.915 81.316 112.915Z" fill="white"/>
<path d="M123.291 112.915H98.646C95.9147 112.915 93.7021 115.129 93.7021 117.861C93.7021 120.592 95.9147 122.807 98.646 122.807H123.291C126.022 122.807 128.237 120.592 128.237 117.861C128.237 115.129 126.022 112.915 123.291 112.915Z" fill="white"/>
<path d="M99.2354 68.5865H109.287C112.018 68.5865 114.231 66.374 114.231 63.6427C114.231 60.9113 112.018 58.6969 109.287 58.6969H99.2354C96.504 58.6969 94.2896 60.9113 94.2896 63.6427C94.2896 66.374 96.504 68.5865 99.2354 68.5865Z" fill="white"/>
<path d="M124.918 68.5865H134.969C137.701 68.5865 139.915 66.374 139.915 63.6427C139.915 60.9113 137.701 58.6969 134.969 58.6969H124.918C122.186 58.6969 119.972 60.9113 119.972 63.6427C119.972 66.374 122.186 68.5865 124.918 68.5865Z" fill="white"/>
<path d="M201.902 148.275L199.661 146.059L201.902 143.845C203.844 141.924 203.861 138.794 201.94 136.85C200.019 134.909 196.889 134.892 194.946 136.812L189.151 142.544C187.965 143.717 187.452 145.407 187.782 147.041C187.982 148.029 188.474 148.916 189.174 149.599L194.948 155.308C195.911 156.261 197.168 156.736 198.425 156.736C199.699 156.736 200.973 156.248 201.942 155.27C203.861 153.328 203.844 150.196 201.902 148.275Z" fill="white"/>
<path d="M236.377 142.521L230.604 136.812C228.662 134.892 225.53 134.909 223.609 136.852C221.691 138.794 221.708 141.924 223.65 143.845L225.891 146.061L223.65 148.275C221.708 150.196 221.691 153.328 223.611 155.27C224.578 156.248 225.853 156.738 227.129 156.738C228.384 156.738 229.641 156.261 230.606 155.308L236.4 149.576C237.587 148.405 238.1 146.713 237.77 145.079C237.569 144.091 237.077 143.206 236.377 142.521Z" fill="white"/>
<path d="M219.749 130.981C217.256 129.862 214.33 130.974 213.211 133.467L203.72 154.602C202.602 157.093 203.714 160.021 206.205 161.14C206.863 161.434 207.552 161.575 208.229 161.575C210.117 161.575 211.919 160.488 212.743 158.653L222.234 137.518C223.354 135.027 222.24 132.099 219.749 130.981Z" fill="white"/>
</g>
<defs>
<clipPath id="clip0">
<rect width="250" height="250" fill="white"/>
</clipPath>
</defs>
</svg>
