<svg width="50" height="50" viewBox="0 0 50 50" fill="none" xmlns="http://www.w3.org/2000/svg">
<path d="M49.0196 4.39453H0.980377C0.439072 4.39453 0 4.8336 0 5.37491V44.6171C0 45.1584 0.439072 45.5975 0.980377 45.5975H37.7663C38.3076 45.5975 38.7466 45.1584 38.7466 44.6171C38.7466 44.0758 38.3076 43.6367 37.7663 43.6367H1.96075V15.3606H48.0392V43.6367H45.6142C45.0729 43.6367 44.6339 44.0758 44.6339 44.6171C44.6339 45.1584 45.0729 45.5975 45.6142 45.5975H49.0196C49.5609 45.5975 50 45.1584 50 44.6171V5.37491C50 4.8336 49.5609 4.39453 49.0196 4.39453V4.39453ZM1.96075 13.3999V6.35529H48.0392V13.3999H1.96075Z" fill="white"/>
<path d="M9.12443 9.50271C8.96307 9.1117 8.55337 8.8626 8.13185 8.90113C7.7336 8.93737 7.39104 9.22004 7.2785 9.60342C7.16368 9.9971 7.31512 10.4358 7.64891 10.6742C7.97545 10.9077 8.42177 10.9161 8.75746 10.6963C9.14618 10.4423 9.30182 9.93186 9.12443 9.50271Z" fill="white"/>
<path d="M5.19297 9.50272C5.0339 9.11743 4.63412 8.86948 4.2187 8.89999C3.81281 8.92937 3.46148 9.21356 3.34742 9.60342C3.23527 9.98604 3.37489 10.4125 3.69151 10.6551C4.0211 10.9073 4.48687 10.9229 4.83248 10.6925C5.21624 10.4369 5.36921 9.92882 5.19297 9.50272Z" fill="white"/>
<path d="M13.1127 9.68589C13.0311 9.28268 12.6988 8.9672 12.2914 8.90769C11.8821 8.8478 11.4678 9.0618 11.2801 9.42954C11.0932 9.79499 11.1558 10.2467 11.4358 10.5472C11.7116 10.8429 12.1537 10.9367 12.5268 10.783C12.9513 10.6079 13.2043 10.1368 13.1127 9.68589Z" fill="white"/>
<path d="M29.5323 36.0602C29.72 36.2311 29.9561 36.3154 30.1915 36.3154C30.4581 36.3154 30.7236 36.2075 30.917 35.995L36.2263 30.1581C36.5613 29.79 36.567 29.2289 36.2393 28.8539L31.1425 23.017C30.7862 22.6092 30.1671 22.5673 29.7593 22.9236C29.3515 23.2795 29.3095 23.899 29.6658 24.3068L34.1877 29.4852L29.4667 34.6755C29.1024 35.0761 29.1314 35.6959 29.5323 36.0602V36.0602Z" fill="white"/>
<path d="M20.4678 22.9366C20.0677 22.5723 19.4474 22.6017 19.0831 23.0022L13.7738 28.8391C13.4389 29.2072 13.4332 29.7684 13.7608 30.1437L18.8577 35.9802C19.0515 36.2022 19.3231 36.3155 19.5962 36.3155C19.8251 36.3155 20.0551 36.2362 20.2409 36.0737C20.6487 35.7174 20.6906 35.0983 20.3343 34.6905L15.8124 29.512L20.5335 24.3218C20.8978 23.9212 20.8688 23.3013 20.4678 22.9366Z" fill="white"/>
<path d="M26.0662 23.3219L21.751 34.9953C21.5633 35.5034 21.8227 36.0672 22.3305 36.2549C22.4426 36.2965 22.5574 36.3159 22.6704 36.3159C23.069 36.3159 23.444 36.071 23.5901 35.6754L27.9056 24.0021C28.0933 23.494 27.8339 22.9302 27.3258 22.7425C26.8181 22.5548 26.2543 22.8142 26.0662 23.3219V23.3219Z" fill="white"/>
<path d="M42.5881 44.2348C42.429 43.8496 42.0296 43.602 41.6131 43.6321C41.2003 43.6623 40.8444 43.9579 40.7364 44.3565C40.6308 44.7452 40.7841 45.1736 41.1126 45.4071C41.4448 45.6432 41.8961 45.6493 42.2341 45.4212C42.6152 45.1633 42.7632 44.6587 42.5881 44.2348Z" fill="white"/>
</svg>
