<svg width="60" height="60" viewBox="0 0 60 60" fill="none" xmlns="http://www.w3.org/2000/svg">
<g clip-path="url(#clip0)">
<path d="M9.72361 60C7.08542 60 4.67336 59.0201 2.86432 57.1357C1.05527 55.3266 0 52.8392 0 50.2764V9.72362C0 7.08543 0.979896 4.67337 2.86432 2.86432C4.67336 1.05528 7.1608 0 9.72361 0H50.2764C52.9146 0 55.3266 0.979899 57.1357 2.86432C58.9447 4.67337 60 7.16081 60 9.72362V50.2764C60 52.9146 59.0201 55.3266 57.1357 57.1357C55.3266 58.9447 52.8392 60 50.2764 60H9.72361Z" fill="#EDEDED"/>
<path d="M26.382 24.2714H9.42219C7.91465 24.2714 6.70862 23.0654 6.70862 21.5578V10.1005C6.70862 8.59299 7.91465 7.38696 9.42219 7.38696H26.382C27.8895 7.38696 29.0956 8.59299 29.0956 10.1005V21.5578C29.0956 23.0654 27.8895 24.2714 26.382 24.2714Z" fill="url(#paint0_linear)"/>
<path d="M49.975 24.2714H32.7137C31.2061 24.2714 30.0001 23.0654 30.0001 21.5578V10.1005C30.0001 8.59299 31.2061 7.38696 32.7137 7.38696H49.975C51.4825 7.38696 52.6886 8.59299 52.6886 10.1005V21.5578C52.7639 23.0654 51.4825 24.2714 49.975 24.2714Z" fill="url(#paint1_linear)"/>
<path d="M32.5629 51.1811H9.34681C7.83927 51.1811 6.63325 49.975 6.63325 48.4675V27.8896C6.63325 26.3821 7.83927 25.176 9.34681 25.176H32.5629C34.0704 25.176 35.2765 26.3821 35.2765 27.8896V48.3921C35.2765 49.975 34.0704 51.1811 32.5629 51.1811Z" fill="url(#paint2_linear)"/>
<path d="M49.9749 37.7638H38.8945C37.3869 37.7638 36.1809 36.5578 36.1809 35.0502V27.9648C36.1809 26.4573 37.3869 25.2512 38.8945 25.2512H49.9749C51.4824 25.2512 52.6885 26.4573 52.6885 27.9648V35.0502C52.7638 36.4824 51.4824 37.7638 49.9749 37.7638Z" fill="url(#paint3_linear)"/>
<path d="M49.9749 51.181H38.8945C37.3869 51.181 36.1809 49.975 36.1809 48.4674V41.382C36.1809 39.8745 37.3869 38.6685 38.8945 38.6685H49.9749C51.4824 38.6685 52.6885 39.8745 52.6885 41.382V48.4674C52.7638 49.975 51.4824 51.181 49.9749 51.181Z" fill="url(#paint4_linear)"/>
</g>
<defs>
<linearGradient id="paint0_linear" x1="6.63219" y1="15.8371" x2="29.0742" y2="15.8371" gradientUnits="userSpaceOnUse">
<stop stop-color="#E74744"/>
<stop offset="1" stop-color="#EE942E"/>
</linearGradient>
<linearGradient id="paint1_linear" x1="29.9974" y1="15.8371" x2="52.7269" y2="15.8371" gradientUnits="userSpaceOnUse">
<stop stop-color="#32C023"/>
<stop offset="1" stop-color="#59D727"/>
</linearGradient>
<linearGradient id="paint2_linear" x1="6.63219" y1="38.1796" x2="35.2894" y2="38.1796" gradientUnits="userSpaceOnUse">
<stop stop-color="#E74744"/>
<stop offset="1" stop-color="#EE942E"/>
</linearGradient>
<linearGradient id="paint3_linear" x1="36.21" y1="31.4597" x2="52.7268" y2="31.4597" gradientUnits="userSpaceOnUse">
<stop stop-color="#523F8F"/>
<stop offset="1" stop-color="#2996C1"/>
</linearGradient>
<linearGradient id="paint4_linear" x1="36.21" y1="44.8968" x2="52.7268" y2="44.8968" gradientUnits="userSpaceOnUse">
<stop stop-color="#523F8F"/>
<stop offset="1" stop-color="#2996C1"/>
</linearGradient>
<clipPath id="clip0">
<rect width="60" height="60" fill="white"/>
</clipPath>
</defs>
</svg>
