<svg width="184" height="184" viewBox="0 0 184 184" fill="none" xmlns="http://www.w3.org/2000/svg">
<g clip-path="url(#clip0)">
<path opacity="0.45" d="M151.541 148.747C154.092 139.229 123.734 122.816 83.7033 112.09C43.6993 101.371 9.2102 100.379 6.65242 109.924C4.10193 119.443 34.4592 135.855 74.4904 146.582C114.494 157.301 148.991 158.266 151.541 148.747Z" fill="url(#paint0_radial)"/>
<path d="M47.6542 62.5553C47.6542 62.5553 46.652 61.733 46.3022 63.0384C43.4748 73.5904 30.766 121.02 30.7369 121.129C30.2632 122.897 36.7593 125.92 37.7979 126.606C41.5 129.085 65.4321 143.513 73.4556 148.549C75.2507 149.671 77.0789 150.452 78.8812 151.547L95.8761 88.4474L49.3353 62.3645L47.6542 62.5553Z" fill="url(#paint1_linear)"/>
<path d="M147.562 90.8705L130.937 150.309L78.8804 151.547L95.874 88.1263L147.562 90.8705Z" fill="url(#paint2_linear)"/>
<path opacity="0.6" d="M98.5372 91.5508L116.134 103.116L144.212 92.1881L116.308 106.922L98.5372 91.5508Z" fill="#692EA1"/>
<path opacity="0.3" d="M110.467 131.329L80.809 151.306L108.419 138.971L128.924 150.44L110.467 131.329Z" fill="#5B0909"/>
<path d="M144.172 87.7759C140.024 85.4402 135.807 83.1444 131.674 80.7543C124.663 76.7188 117.513 72.8791 110.46 68.8907C105.022 65.8303 100.22 63.4361 93.8644 63.3654C89.7456 63.3111 85.5911 62.9558 81.4471 62.7782C72.1504 62.3858 62.8556 61.8774 53.5462 61.4233C51.3928 61.3127 49.2665 61.2093 47.113 61.0987L95.5297 88.7627L135.464 89.64L146.443 90.1625L144.172 87.7759Z" fill="url(#paint3_linear)"/>
<path d="M147.33 91.3042L108.567 109.629L102.504 132.256L130.754 150.669L147.33 91.3042Z" fill="#8E42C3"/>
<path d="M110.775 118.557C116.767 117.16 137.288 112.923 141.531 112.078L143.952 103.37C140.124 103.86 117.49 107.618 115.191 107.615L108.568 109.629L105.915 119.528C107.564 119.242 109.193 118.92 110.775 118.557Z" fill="url(#paint4_linear)"/>
<path opacity="0.4" d="M118.062 104.827C118.062 104.827 122.038 107.263 121.674 111.771C121.31 116.279 121.716 135.188 110.587 137.832L106.823 134.608L112.636 107.804L118.062 104.827Z" fill="#AA1F1F"/>
<path d="M95.2664 88.5466L125.361 109.523L120.353 129.518L80.6979 150.956L78.6902 150.301L95.2664 88.5466Z" fill="url(#paint5_linear)"/>
<path d="M89.4386 87.9177C89.4386 87.9177 92.6267 91.3371 89.6721 99.7563C86.7103 108.203 78.0231 150.618 72.8466 148.211L76.9037 150.668L92.9538 96.5257C92.9193 96.5456 95.5658 90.5797 89.4386 87.9177Z" fill="#AE78D4"/>
<path d="M114.639 106.737C114.158 106.579 113.814 106.341 113.581 106.017C105.479 107.139 97.3267 108.016 89.1639 108.714C87.7741 113.793 86.0881 119.433 84.4333 124.848C94.0872 122.713 103.707 120.598 113.429 118.859C115.262 118.535 117.088 118.237 118.922 117.912C119.722 113.404 119.585 108.267 114.639 106.737Z" fill="url(#paint6_linear)"/>
<path d="M100.734 89.9823C114.149 88.0388 147.31 92.1437 147.31 92.1437C148.651 89.0928 142.237 86.8495 142.237 86.8495C142.237 86.8495 100.125 87.6914 95.7584 87.3667C91.3919 87.042 49.884 61.404 49.884 61.404C45.2234 60.3301 46.4077 62.8627 46.4077 62.8627C51.5738 62.7021 89.7412 87.445 92.504 90.6046C95.2469 93.7297 76.3677 150.174 76.3677 150.174C78.0892 152.006 80.8812 151.471 80.8163 151.279C80.8163 151.279 80.8163 151.279 80.8362 151.313L112.758 135.382C114.971 134.401 117.791 133 119.509 131.478C122.701 128.69 125.88 111.936 125.158 109.527C124.435 107.118 102.616 95.5586 98.5576 91.5854C98.5378 91.5509 98.559 90.7113 100.734 89.9823ZM99.2802 95.1894C103.288 99.3529 123.827 107.975 123.257 111.408C122.589 115.31 121.318 121.469 120.426 125.34C119.459 129.599 112.58 133.44 108.761 135.74C104.144 138.525 99.6354 139.707 94.8515 142.243C91.7262 143.913 88.7023 145.639 85.3585 146.929C80.1063 148.932 81.1914 144.121 82.05 140.591C83.1947 135.885 84.3594 131.212 85.5856 126.527C87.4478 119.36 89.4186 112.222 91.4438 105.099C91.9154 103.447 92.3798 101.823 92.8787 100.178C93.1536 99.2609 94.2327 97.189 94.0439 96.264C94.0817 96.449 94.1141 96.5451 94.1141 96.5451C94.1141 96.5451 95.2728 91.0259 99.2802 95.1894Z" fill="#6C428A"/>
<path d="M142.49 91.5522C142.49 91.5522 147.037 90.555 144.277 99.5511C141.517 108.547 131.439 144.964 131.439 144.964C131.439 144.964 130.319 149.794 128.951 150.448L130.782 150.676C130.782 150.676 147.711 92.6012 147.358 91.3115C147.005 90.0218 142.49 91.5522 142.49 91.5522Z" fill="#AE78D4"/>
<path d="M146.347 93.7806C146.347 93.7806 148.233 91.1962 140.963 90.2978C133.702 89.3722 102.593 87.7118 98.5468 89.0177C95.1996 90.1029 98.2632 92.0314 105.923 99.1849C105.923 99.1849 96.6788 90.5575 94.9737 90.946C93.4535 91.2965 90.8996 103 90.8996 103C90.8996 103 93.6171 90.9031 90.6675 87.8975L73.6396 76.1643C73.6396 76.1643 88.9242 86.1478 95.1215 87.8958C97.9115 88.6726 128.098 88.0164 140.764 89.1951C142.521 89.3743 147.792 89.0378 146.347 93.7806Z" fill="url(#paint7_linear)"/>
<path d="M109.104 136.415C109.104 136.415 118.152 132.63 119.654 130.176C123.26 124.322 123.207 116.263 123.207 116.263C123.207 116.263 121.187 126.302 118.496 130.041C116.603 132.653 109.104 136.415 109.104 136.415Z" fill="url(#paint8_linear)"/>
<path d="M76.8765 149.145C77.2243 145.565 78.3492 142.019 83.695 129.781C83.695 129.781 76.5465 150.485 81.4609 150.286C81.4337 150.279 76.6651 151.129 76.8765 149.145Z" fill="url(#paint9_linear)"/>
<path opacity="0.4" d="M90.5532 64.752L96.3107 67.4898L103.459 69.0555L100.9 69.9147L105.309 72.5825L97.5653 70.3036L92.7291 70.3194L91.0135 68.14L84.1273 65.5953L90.3677 66.4221L90.5532 64.752Z" fill="url(#paint10_linear)"/>
<path opacity="0.3" d="M119.113 73.7452C117.702 72.9298 116.232 72.3319 114.895 71.5654L114.832 72.0151L110.647 71.4476L115.256 73.1489L116.404 74.6224L119.637 74.6143L121.524 75.1781C120.72 74.7005 119.917 74.2228 119.113 73.7452Z" fill="url(#paint11_linear)"/>
<path opacity="0.5" d="M56.7971 137.615L58.3424 138.583L73.9442 80.3563C73.9442 80.3563 74.6835 76.6193 80.088 76.8724L74.1509 76.6515C74.1509 76.6515 71.5981 75.9675 70.8481 80.7218C70.071 85.4688 56.7971 137.615 56.7971 137.615Z" fill="#5B0909"/>
<path d="M56.2332 138.192L72.5325 78.6661C72.5325 78.6661 72.9419 76.269 75.1768 76.4015C77.4118 76.534 127.549 77.4634 127.549 77.4634L114.151 69.9968L64.4408 69.648C64.4408 69.648 62.6716 69.4072 61.819 72.5891C61.134 75.1455 45.9549 131.795 45.9549 131.795L56.2332 138.192Z" fill="url(#paint12_linear)"/>
<path d="M106.112 76.6456C92.3667 76.3438 76.8209 76.0259 75.149 76.0734C72.0642 76.1796 71.6303 79.2114 71.5627 79.5722L55.8808 138.098L56.5326 138.272L72.2218 79.7197L72.2363 79.6653C72.2383 79.5492 72.5034 76.822 75.1715 76.7499C76.7891 76.6878 92.1919 76.9965 105.903 77.3183C105.941 77.0662 106.027 76.8559 106.112 76.6456Z" fill="#FFC969"/>
<path opacity="0.5" d="M100.233 150.623L98.4106 150.689L114.012 92.4622C114.012 92.4622 115.241 88.8563 110.434 86.3732L115.686 89.1504C115.686 89.1504 118.239 89.8345 116.511 94.3268C114.81 98.8264 100.233 150.623 100.233 150.623Z" fill="#5B0909"/>
<path d="M100.431 151.405L116.078 91.7042C116.078 91.7042 116.922 89.4235 114.893 88.4135C112.892 87.4108 68.3717 61.6071 68.3717 61.6071L83.5327 62.4922L127.56 87.9601C127.56 87.9601 129.213 88.6361 128.36 91.818C127.675 94.3744 112.496 151.023 112.496 151.023L100.431 151.405Z" fill="url(#paint13_linear)"/>
<path d="M100.104 151.317L100.728 151.485L116.41 92.959C116.559 92.62 117.672 89.7702 115.054 88.1359C112.537 86.5578 70.528 62.6803 68.7508 61.7086L68.4203 62.2904C68.8528 62.5229 112.179 87.1324 114.676 88.6759C116.944 90.0996 115.817 92.5668 115.76 92.6683L115.746 92.7227L100.049 151.303L100.104 151.317Z" fill="#E55C00"/>
<path opacity="0.3" d="M75.1648 73.5123L89.8952 74.0489L81.8399 69.6752C81.8472 69.648 76.8487 70.3782 75.1648 73.5123Z" fill="#5B0909"/>
<path opacity="0.3" d="M66.8223 69.5571C66.8223 69.5571 63.8771 75.4429 73.0579 78.2236L66.8223 69.5571Z" fill="#5B0909"/>
<path opacity="0.3" d="M91.7755 68.2279C87.9462 66.0067 75.0461 63.7452 75.0461 63.7452C75.0461 63.7452 81.1236 62.1382 85.2033 62.8816L93.4216 67.299C93.4216 67.299 92.1809 68.4531 91.7755 68.2279Z" fill="#5B0909"/>
<path opacity="0.3" d="M120.492 86.8528L119.862 83.4484L105.207 74.9162C105.207 74.9162 98.9353 71.924 95.516 71.6491L91.6278 68.8875C91.6278 68.8875 86.7891 67.0663 82.4648 69.8427L89.8955 74.049C89.8955 74.049 98.6073 77.9282 103.624 77.3485C104.118 77.5684 104.532 78.0874 105.006 78.2728L120.492 86.8528Z" fill="#5B0909"/>
<path d="M142.608 41.799C136.831 36.1995 125.462 38.5456 120.286 42.4347C111.898 48.7566 102.982 59.5428 100.112 69.8209C101.791 70.9413 103.62 72.0436 105.405 72.9881C108.457 70.3956 109.866 65.7888 112.611 62.8225C115.892 59.2709 119.729 56.2474 124.083 54.1203C127.295 52.5617 130.332 50.8977 133.779 52.6959C136.152 53.9438 138.668 58.3491 135.707 60.3831C135.734 60.3904 146.741 45.8212 142.608 41.799Z" fill="url(#paint14_linear)"/>
<path d="M138.603 39.0348C138.981 39.2526 139.358 39.4704 139.736 39.6882C139.42 39.4577 139.042 39.24 138.603 39.0348Z" fill="#FFE655"/>
<path d="M142.601 67.5637C143.683 63.7436 145.268 60.0001 145.908 56.0908C146.49 52.3991 147.177 46.8994 145.003 43.6061C143.82 41.8315 141.724 40.7453 139.771 39.6682C146.258 44.0297 139.925 53.7591 135.421 57.0993C126.185 63.8647 104.703 58.5457 99.5634 70.6644L99.9787 72.6994C100.621 73.0173 101.235 73.444 101.779 73.9106C105.561 72.9418 111.335 75.0721 114.626 75.7205C122.26 77.2122 129.3 76.3586 136.515 73.2202C140.206 71.6148 141.504 71.4381 142.601 67.5637Z" fill="url(#paint15_linear)"/>
<path d="M104.282 65.662L103.971 65.0832C104.178 64.9637 109.479 62.1283 120.219 61.0421C131.377 59.9218 138.095 57.5537 141.628 48.3859C142.741 45.5361 142.631 43.2329 141.268 41.5851C138.97 38.7541 133.797 38.5049 131.793 38.8133C131.581 38.8439 131.37 38.8746 131.096 38.9179C126.967 39.4439 115.996 40.8473 102.507 64.1371L101.927 63.8066C115.584 40.2122 126.794 38.7855 131.012 38.2541C131.251 38.2307 131.49 38.2073 131.675 38.1694C133.802 37.8357 139.315 38.1179 141.786 41.1703C143.269 43.0249 143.437 45.5476 142.231 48.6349C138.556 58.1144 131.673 60.5549 120.269 61.7258C109.679 62.794 104.344 65.6493 104.282 65.662Z" fill="url(#paint16_linear)"/>
<path d="M137.952 54.7169C137.117 55.6592 136.23 56.4709 135.429 57.0723C133.867 58.2279 131.964 59.0297 129.861 59.6028C131.401 61.2398 132.907 62.8968 134.477 64.4251C136.651 66.5233 138.789 68.7575 140.838 70.9971C141.614 70.2724 142.142 69.2772 142.636 67.544C143.283 65.2396 144.119 62.9862 144.82 60.6963C142.843 59.0589 138.301 55.0436 137.952 54.7169Z" fill="url(#paint17_linear)"/>
<path d="M95.7797 66.2107C92.6228 63.7617 90.5993 59.2553 87.5265 56.2749C84.461 53.2674 81.1451 50.5426 78.6274 47.0114C75.244 42.2572 71.1326 36.2003 76.9089 31.4811C74.3183 30.6121 61.6359 33.9472 62.8182 35.4008L60.1486 42.3223C61.262 45.0109 61.2891 47.4083 63.3464 49.9417C66.0456 53.23 69.8199 55.8736 73.5518 57.8063C80.7241 61.5645 88.7225 65.2817 95.0973 69.4091C94.9814 68.2121 95.204 67.1641 95.7797 66.2107Z" fill="url(#paint18_linear)"/>
<path d="M97.7746 49.3145C97.394 40.0891 94.7413 30.1091 87.6366 23.5999C85.0646 21.2493 80.9584 17.6714 77.7511 18.5609C73.6124 19.6673 69.518 23.7586 66.3947 26.507C62.7037 29.7445 59.3002 32.1263 59.1762 37.369C59.094 40.1744 59.8146 43.8944 61.0426 46.2639C61.3103 42.9835 61.5482 39.0539 64.4622 36.9781C67.7352 34.6488 73.7981 35.4863 77.2697 37.087C83.0219 39.7359 86.4191 47.2629 88.7672 52.7307C89.9223 55.3721 93.3678 68.0422 94.7237 68.5221L97.0481 68.2122C97.0521 67.98 97.0488 67.7751 97.0527 67.543C96.7648 61.6653 98.0513 55.4516 97.7746 49.3145Z" fill="url(#paint19_linear)"/>
<path d="M87.6357 23.5996C87.643 23.5724 87.643 23.5724 87.6357 23.5996C85.814 26.8134 80.6146 36.8756 79.7117 38.6157C82.2353 40.6036 84.2178 43.525 85.8579 46.5295C88.7725 42.8216 92.0906 39.455 95.4755 36.1646C93.8925 31.4265 91.4033 27.0285 87.6357 23.5996Z" fill="url(#paint20_linear)"/>
<path d="M92.4247 67.7601C92.3704 67.7456 85.7564 64.8366 71.615 56.9958C65.6827 53.7156 62.1634 50.1201 61.1097 46.3399C60.346 43.5411 61.2582 41.6576 61.4271 41.3531C63.6039 33.3376 72.3515 35.1277 72.9291 35.2533C78.8079 35.6917 84.0811 41.2146 88.6421 51.6768C92.0083 59.4287 93.517 66.5079 93.5296 66.5696L93.0507 67.0534C92.9877 66.745 86.3248 36.8606 72.843 35.9007L72.7887 35.8861C72.4356 35.7915 64.0722 33.8712 62.0173 41.5404L61.9954 41.622C61.9881 41.6492 60.9819 43.4491 61.7403 46.1591C62.4211 48.6151 64.7573 52.3891 71.9257 56.3794C86.0399 64.213 92.6718 67.2725 92.7532 67.2943L92.4247 67.7601Z" fill="url(#paint21_linear)"/>
<path d="M70.2492 66.2196C67.0034 68.5562 65.9362 69.9317 68.0545 72.8895C69.5998 75.0525 71.8069 76.8098 73.3741 78.8912C76.9195 69.0271 89.06 64.6724 96.6212 71.2164L96.6981 67.1271C89.4655 62.5074 77.6384 60.9124 70.2492 66.2196Z" fill="url(#paint22_linear)"/>
<path d="M73.6414 79.196L73.1698 78.4575C73.2333 78.3288 79.0694 65.3475 91.7748 68.2272L91.6344 68.86C79.4794 66.0986 73.705 79.0673 73.6414 79.196Z" fill="url(#paint23_linear)"/>
<path d="M102.449 68.6972L99.4764 73.3807C101.29 71.8263 108.153 75.3267 110.394 76.3061C114.646 78.1449 119.587 81.5385 120.275 86.3575C122.078 83.8673 122.572 79.3069 125.67 77.6302C123.318 69.2463 109.622 67.238 102.449 68.6972Z" fill="url(#paint24_linear)"/>
<path d="M119.948 86.386C118.985 78.8992 105.867 74.6264 105.731 74.59L105.926 73.9718C106.489 74.1518 119.572 78.4445 120.576 86.3213L119.948 86.386Z" fill="url(#paint25_linear)"/>
<path d="M97.1089 60.2711C96.714 63.8089 91.4988 68.8241 91.0623 68.8238C91.3794 73.3976 97.9736 73.882 101.713 74.5924C104.813 75.1899 105.26 75.368 106.673 72.9192C107.755 71.0522 107.978 70.0042 108.87 68.0863C105.219 63.4643 100.1 64.4247 97.1089 60.2711Z" fill="url(#paint26_linear)"/>
<path d="M108.025 70.0462C108.21 69.5712 108.43 69.0763 108.665 68.527C107.673 67.8824 99.349 64.0779 96.0576 63.1085C95.5654 63.9677 94.9573 64.8249 94.3094 65.6132C98.9535 66.8576 103.615 68.2525 108.025 70.0462Z" fill="url(#paint27_linear)"/>
<path d="M125.752 101.554L127.398 95.408C123.427 96.3258 119.41 97.0859 115.4 97.8187C115.065 97.8747 112.287 108.352 112.686 108.168C116.766 106.084 124.713 102.063 125.752 101.554Z" fill="url(#paint28_linear)"/>
</g>
<defs>
<radialGradient id="paint0_radial" cx="0" cy="0" r="1" gradientUnits="userSpaceOnUse" gradientTransform="translate(79.1032 129.328) rotate(15) scale(75.3394 17.7717)">
<stop stop-color="#666666"/>
<stop offset="0.1319" stop-color="#6D6D6D" stop-opacity="0.8681"/>
<stop offset="0.3245" stop-color="#818181" stop-opacity="0.6755"/>
<stop offset="0.5543" stop-color="#A1A1A1" stop-opacity="0.4457"/>
<stop offset="0.8106" stop-color="#CDCDCD" stop-opacity="0.1894"/>
<stop offset="1" stop-color="#F2F2F2" stop-opacity="0"/>
</radialGradient>
<linearGradient id="paint1_linear" x1="45.5986" y1="63.6266" x2="75.9303" y2="134.268" gradientUnits="userSpaceOnUse">
<stop stop-color="#8E42C3"/>
<stop offset="1" stop-color="#692EA1"/>
</linearGradient>
<linearGradient id="paint2_linear" x1="121.022" y1="91.0896" x2="106.081" y2="148.763" gradientUnits="userSpaceOnUse">
<stop stop-color="#8E42C3"/>
<stop offset="1" stop-color="#692EA1"/>
</linearGradient>
<linearGradient id="paint3_linear" x1="46.6965" y1="62.8176" x2="146.607" y2="89.5885" gradientUnits="userSpaceOnUse">
<stop stop-color="#8E42C3"/>
<stop offset="1" stop-color="#692EA1"/>
</linearGradient>
<linearGradient id="paint4_linear" x1="104.851" y1="113.513" x2="148.625" y2="109.023" gradientUnits="userSpaceOnUse">
<stop stop-color="white" stop-opacity="0.2"/>
<stop offset="1" stop-color="white" stop-opacity="0"/>
</linearGradient>
<linearGradient id="paint5_linear" x1="109.955" y1="102.195" x2="98.1899" y2="139.718" gradientUnits="userSpaceOnUse">
<stop stop-color="#AE78D4"/>
<stop offset="1" stop-color="#692EA1"/>
</linearGradient>
<linearGradient id="paint6_linear" x1="105.788" y1="105.501" x2="101.036" y2="123.875" gradientUnits="userSpaceOnUse">
<stop stop-color="white" stop-opacity="0.2"/>
<stop offset="1" stop-color="white" stop-opacity="0"/>
</linearGradient>
<linearGradient id="paint7_linear" x1="77.9279" y1="88.3028" x2="134.707" y2="99.76" gradientUnits="userSpaceOnUse">
<stop offset="0.0969388" stop-color="white" stop-opacity="0.3964"/>
<stop offset="0.3367" stop-color="white" stop-opacity="0.6"/>
<stop offset="1" stop-color="white" stop-opacity="0.1"/>
</linearGradient>
<linearGradient id="paint8_linear" x1="124.642" y1="118.843" x2="108.978" y2="140.271" gradientUnits="userSpaceOnUse">
<stop offset="0.0969388" stop-color="white" stop-opacity="0.1"/>
<stop offset="0.5102" stop-color="white" stop-opacity="0.4"/>
<stop offset="0.9949" stop-color="white" stop-opacity="0.1"/>
</linearGradient>
<linearGradient id="paint9_linear" x1="85.3188" y1="129.617" x2="75.6216" y2="159.913" gradientUnits="userSpaceOnUse">
<stop offset="0.0969388" stop-color="white" stop-opacity="0.3964"/>
<stop offset="0.3367" stop-color="white" stop-opacity="0.6"/>
<stop offset="1" stop-color="white" stop-opacity="0.1"/>
</linearGradient>
<linearGradient id="paint10_linear" x1="84.0127" y1="66.1806" x2="105.749" y2="70.0668" gradientUnits="userSpaceOnUse">
<stop stop-color="#CE2E2E"/>
<stop offset="0.9949" stop-color="#AA1F1F"/>
</linearGradient>
<linearGradient id="paint11_linear" x1="110.51" y1="72.1843" x2="125.062" y2="74.7861" gradientUnits="userSpaceOnUse">
<stop stop-color="#CE2E2E"/>
<stop offset="0.9949" stop-color="#AA1F1F"/>
</linearGradient>
<linearGradient id="paint12_linear" x1="98.975" y1="67.0321" x2="58.7592" y2="140.266" gradientUnits="userSpaceOnUse">
<stop offset="0.0561224" stop-color="#B42F1B"/>
<stop offset="0.1582" stop-color="#F17600"/>
<stop offset="0.2653" stop-color="#FFC82A"/>
<stop offset="0.3078" stop-color="#FABD29"/>
<stop offset="0.5397" stop-color="#E18821"/>
<stop offset="0.7407" stop-color="#CE611C"/>
<stop offset="0.9008" stop-color="#C34A18"/>
<stop offset="1" stop-color="#BF4117"/>
</linearGradient>
<linearGradient id="paint13_linear" x1="98.7023" y1="67.0506" x2="96.8841" y2="151.938" gradientUnits="userSpaceOnUse">
<stop offset="0.0561224" stop-color="#B4571B"/>
<stop offset="0.1582" stop-color="#F17600"/>
<stop offset="0.2857" stop-color="#FFE655"/>
<stop offset="0.602" stop-color="#FFAA00"/>
<stop offset="1" stop-color="#CC5712"/>
</linearGradient>
<linearGradient id="paint14_linear" x1="102.23" y1="62.292" x2="148.874" y2="42.2308" gradientUnits="userSpaceOnUse">
<stop offset="0.0561224" stop-color="#B42F1B"/>
<stop offset="0.3265" stop-color="#F17600"/>
<stop offset="0.648" stop-color="#F1AB26"/>
<stop offset="0.7376" stop-color="#E08821"/>
<stop offset="0.8517" stop-color="#CE611C"/>
<stop offset="0.9433" stop-color="#C34A18"/>
<stop offset="1" stop-color="#BF4117"/>
</linearGradient>
<linearGradient id="paint15_linear" x1="102.957" y1="66.2293" x2="150.991" y2="53.2554" gradientUnits="userSpaceOnUse">
<stop offset="0.199" stop-color="#E96640"/>
<stop offset="0.5102" stop-color="#FFC82A"/>
<stop offset="0.5182" stop-color="#FFC92C"/>
<stop offset="0.6545" stop-color="#FFDE4A"/>
<stop offset="0.7317" stop-color="#FFE655"/>
<stop offset="0.8517" stop-color="#F3BF3F"/>
<stop offset="0.9801" stop-color="#D36A1E"/>
</linearGradient>
<linearGradient id="paint16_linear" x1="106.129" y1="48.1878" x2="140.019" y2="57.2685" gradientUnits="userSpaceOnUse">
<stop stop-color="#F17600"/>
<stop offset="0.3827" stop-color="#FFC82A"/>
<stop offset="0.3954" stop-color="#FFC92C"/>
<stop offset="0.612" stop-color="#FFDE4A"/>
<stop offset="0.7347" stop-color="#FFE655"/>
<stop offset="1" stop-color="#FFD394"/>
</linearGradient>
<linearGradient id="paint17_linear" x1="104.587" y1="72.3103" x2="152.649" y2="59.3287" gradientUnits="userSpaceOnUse">
<stop offset="0.0969388" stop-color="white" stop-opacity="0.3964"/>
<stop offset="0.3367" stop-color="white" stop-opacity="0.6"/>
<stop offset="1" stop-color="white" stop-opacity="0.1"/>
</linearGradient>
<linearGradient id="paint18_linear" x1="66.1618" y1="35.7948" x2="92.5525" y2="68.3724" gradientUnits="userSpaceOnUse">
<stop offset="0.0561224" stop-color="#B42F1B"/>
<stop offset="0.3265" stop-color="#F17600"/>
<stop offset="0.648" stop-color="#F1AB26"/>
<stop offset="0.7376" stop-color="#E08821"/>
<stop offset="0.8517" stop-color="#CE611C"/>
<stop offset="0.9433" stop-color="#C34A18"/>
<stop offset="1" stop-color="#BF4117"/>
</linearGradient>
<linearGradient id="paint19_linear" x1="57.101" y1="15.4564" x2="100.57" y2="64.1397" gradientUnits="userSpaceOnUse">
<stop offset="0.1224" stop-color="#F8A116"/>
<stop offset="0.2755" stop-color="#D56F1F"/>
<stop offset="0.4206" stop-color="#EEA526"/>
<stop offset="0.5102" stop-color="#FFC82A"/>
<stop offset="0.5182" stop-color="#FFC92C"/>
<stop offset="0.6545" stop-color="#FFDE4A"/>
<stop offset="0.7317" stop-color="#FFE655"/>
<stop offset="0.8517" stop-color="#F3BF3F"/>
<stop offset="1" stop-color="#D36A1E"/>
</linearGradient>
<linearGradient id="paint20_linear" x1="63.9744" y1="9.38486" x2="107.398" y2="58.0171" gradientUnits="userSpaceOnUse">
<stop offset="0.0969388" stop-color="white" stop-opacity="0.3964"/>
<stop offset="0.3367" stop-color="white" stop-opacity="0.6"/>
<stop offset="1" stop-color="white" stop-opacity="0.1"/>
</linearGradient>
<linearGradient id="paint21_linear" x1="60.2398" y1="45.4112" x2="96.6115" y2="55.157" gradientUnits="userSpaceOnUse">
<stop stop-color="#F17600"/>
<stop offset="0.3827" stop-color="#FFC82A"/>
<stop offset="0.3954" stop-color="#FFC92C"/>
<stop offset="0.612" stop-color="#FFDE4A"/>
<stop offset="0.7347" stop-color="#FFE655"/>
<stop offset="1" stop-color="#FFD394"/>
</linearGradient>
<linearGradient id="paint22_linear" x1="94.248" y1="64.5567" x2="65.9088" y2="74.5582" gradientUnits="userSpaceOnUse">
<stop offset="0.0561224" stop-color="#B42F1B"/>
<stop offset="0.3469" stop-color="#F17600"/>
<stop offset="0.7143" stop-color="#FFC82A"/>
<stop offset="0.7245" stop-color="#FFC92C"/>
<stop offset="0.8971" stop-color="#FFDE4A"/>
<stop offset="0.9949" stop-color="#FFE655"/>
</linearGradient>
<linearGradient id="paint23_linear" x1="92.0953" y1="69.1015" x2="72.3469" y2="76.0711" gradientUnits="userSpaceOnUse">
<stop stop-color="#F17600"/>
<stop offset="0.3827" stop-color="#FFC82A"/>
<stop offset="0.3954" stop-color="#FFC92C"/>
<stop offset="0.612" stop-color="#FFDE4A"/>
<stop offset="0.7347" stop-color="#FFE655"/>
<stop offset="1" stop-color="#FFD394"/>
</linearGradient>
<linearGradient id="paint24_linear" x1="99.5947" y1="72.9522" x2="125.09" y2="79.7835" gradientUnits="userSpaceOnUse">
<stop offset="0.0561224" stop-color="#B42F1B"/>
<stop offset="0.3469" stop-color="#F17600"/>
<stop offset="0.7143" stop-color="#FFC82A"/>
<stop offset="0.7245" stop-color="#FFC92C"/>
<stop offset="0.8971" stop-color="#FFDE4A"/>
<stop offset="0.9949" stop-color="#FFE655"/>
</linearGradient>
<linearGradient id="paint25_linear" x1="104.838" y1="77.9986" x2="121.633" y2="82.4989" gradientUnits="userSpaceOnUse">
<stop stop-color="#F17600"/>
<stop offset="0.3827" stop-color="#FFC82A"/>
<stop offset="0.3954" stop-color="#FFC92C"/>
<stop offset="0.612" stop-color="#FFDE4A"/>
<stop offset="0.7347" stop-color="#FFE655"/>
<stop offset="1" stop-color="#FFD394"/>
</linearGradient>
<linearGradient id="paint26_linear" x1="94.6849" y1="78.296" x2="104.647" y2="60.6945" gradientUnits="userSpaceOnUse">
<stop stop-color="#F89D14"/>
<stop offset="0.0365837" stop-color="#E78117"/>
<stop offset="0.0853153" stop-color="#D46219"/>
<stop offset="0.1329" stop-color="#C64C1B"/>
<stop offset="0.1784" stop-color="#BE3F1D"/>
<stop offset="0.2194" stop-color="#BB3A1D"/>
<stop offset="0.263" stop-color="#C0401B"/>
<stop offset="0.322" stop-color="#CD5116"/>
<stop offset="0.3894" stop-color="#E36D0E"/>
<stop offset="0.4337" stop-color="#F48408"/>
<stop offset="0.6531" stop-color="#FFC82A"/>
<stop offset="0.6654" stop-color="#FFC92C"/>
<stop offset="0.8758" stop-color="#FFDE4A"/>
<stop offset="0.9949" stop-color="#FFE655"/>
</linearGradient>
<linearGradient id="paint27_linear" x1="102.419" y1="65.1186" x2="97.6453" y2="75.605" gradientUnits="userSpaceOnUse">
<stop offset="0.0969388" stop-color="white" stop-opacity="0.3964"/>
<stop offset="0.3367" stop-color="white" stop-opacity="0.6"/>
<stop offset="1" stop-color="white" stop-opacity="0.1"/>
</linearGradient>
<linearGradient id="paint28_linear" x1="120.748" y1="68.7043" x2="119.006" y2="150.052" gradientUnits="userSpaceOnUse">
<stop offset="0.0969388" stop-color="white" stop-opacity="0.4"/>
<stop offset="0.3367" stop-color="white" stop-opacity="0.6"/>
<stop offset="1" stop-color="white" stop-opacity="0.1"/>
</linearGradient>
<clipPath id="clip0">
<rect width="150" height="150" fill="white" transform="translate(38.8223) rotate(15)"/>
</clipPath>
</defs>
</svg>
