<svg width="60" height="60" viewBox="0 0 60 60" fill="none" xmlns="http://www.w3.org/2000/svg">
<path d="M60 30C60 13.4315 46.5685 8.93717e-06 30 9.6614e-06C13.4315 1.03856e-05 -2.03558e-06 13.4315 -1.31134e-06 30C-5.87108e-07 46.5685 13.4315 60 30 60C46.5685 60 60 46.5685 60 30Z" fill="#F7F7F7"/>
<path d="M4.47194 40.1419L1.91872 11.6736H29.8126L27.2594 40.1419L15.8338 43.2696L4.47194 40.1419Z" fill="#E44D26"/>
<path d="M15.8338 40.8442L25.0892 38.291L27.2594 14.0354H15.8338V40.8442Z" fill="#F16529"/>
<path d="M15.8338 24.5674H11.238L10.9188 20.9929H15.8338V17.4822H7.08901L7.21667 18.4396L8.04646 28.0142H15.8338V24.5674Z" fill="#EBEBEB"/>
<path d="M15.8338 33.6313L11.9401 32.5462L11.6848 29.8015H9.8337H8.17411L8.68475 35.2909L15.8338 37.2697V33.6313Z" fill="#EBEBEB"/>
<path d="M4.53576 3.95044H6.32301V5.67386H7.91877V3.95044H9.70603V9.24836H7.91877V7.46111H6.25918V9.24836H4.53576V3.95044Z" fill="black"/>
<path d="M12.0039 5.73769H10.472V3.95044H15.3231V5.73769H13.7912V9.31219H12.0039V5.73769Z" fill="black"/>
<path d="M16.1529 3.95044H18.004L19.1529 5.80152L20.238 3.95044H22.0891V9.24836H20.3019V6.63132L19.0891 8.54623L17.8763 6.63132V9.24836H16.1529V3.95044Z" fill="black"/>
<path d="M22.9828 3.95044H24.77V7.52494H27.2594V9.24836H22.9828V3.95044Z" fill="black"/>
<path d="M15.8338 24.5674V28.0142H20.1104L19.7274 32.5462L15.8338 33.6313V37.2696L22.9828 35.2909L23.0466 34.6526L23.8764 25.5248L23.9402 24.5674H22.9828H15.8338Z" fill="white"/>
<path d="M15.8338 17.4822V19.6524V20.9928H24.2594L24.3232 20.2269L24.5147 18.4396L24.5785 17.4822H15.8338Z" fill="white"/>
<path d="M55.1533 51.9509L43.7277 55.0148L32.302 51.9509L29.685 23.4187H57.7704L55.1533 51.9509Z" fill="#0D5AA2"/>
<path d="M43.7277 25.7166V52.5892H43.7915L52.9831 50.0998L55.1533 25.7166H43.7277Z" fill="#449CD1"/>
<path d="M37.2808 19.2057V17.5462H39.7702V15.6951H35.4297V20.9292H39.7702V19.2057H37.2808Z" fill="#1A171B"/>
<path d="M44.1745 17.5462H45.8979V15.6951H41.5574C41.5574 15.6951 41.5574 16.6525 41.5574 17.5462C42.1319 18.1206 42.4511 18.3759 43.2809 19.2696C42.7702 19.2696 41.5574 19.2696 41.5574 19.2696V20.993H45.8979V19.2696L44.1745 17.5462Z" fill="#1A171B"/>
<path d="M50.366 17.5462H52.0895V15.6951H47.749C47.749 15.6951 47.749 16.6525 47.749 17.5462C48.3235 18.1206 48.6426 18.3759 49.4724 19.2696C48.9618 19.2696 47.749 19.2696 47.749 19.2696V20.993H52.0895V19.2696L50.366 17.5462Z" fill="#1A171B"/>
<path d="M43.7277 32.8654L35.5574 36.2484L35.8127 39.6314L43.7277 36.2484L52.1533 32.6739L52.4724 29.2271L43.7277 32.8654Z" fill="white"/>
<path d="M35.5574 36.2485L35.8127 39.6315L43.7277 36.2485V32.8655L35.5574 36.2485Z" fill="url(#paint0_linear)"/>
<path d="M52.4724 29.2271L43.7277 32.8654V36.2484L52.1533 32.6739L52.4724 29.2271Z" fill="url(#paint1_linear)"/>
<path d="M35.5574 36.2485L35.8765 39.6315L47.9405 39.6954L47.6851 44.1635L43.7277 45.3125L39.8978 44.2912L39.6425 41.5465H36.068L36.5148 46.9082L43.7277 49.0146L50.8767 46.972L51.8341 36.2485H35.5574Z" fill="url(#paint2_linear)"/>
<g opacity="0.05">
<path opacity="0.05" d="M43.7277 36.2485H35.5574L35.8127 39.6315H43.7277V36.2485Z" fill="#1A171B"/>
<path opacity="0.05" d="M43.7277 45.2485L43.6638 45.3124L39.834 44.2911L39.6425 41.5464H36.068L36.5148 46.9081L43.7277 49.0145V45.2485Z" fill="#1A171B"/>
</g>
<path d="M34.8552 29.2271H52.4724L52.1533 32.6739H35.2382L34.8552 29.2271Z" fill="url(#paint3_linear)"/>
<path opacity="0.05" d="M43.7277 29.2271H34.8552L35.2382 32.6739H43.7277V29.2271Z" fill="#1A171B"/>
<defs>
<linearGradient id="paint0_linear" x1="39.6465" y1="39.633" x2="39.6465" y2="32.866" gradientUnits="userSpaceOnUse">
<stop offset="0.3865" stop-color="#D8D9DA" stop-opacity="0"/>
<stop offset="1" stop-color="#D8D9DA"/>
</linearGradient>
<linearGradient id="paint1_linear" x1="48.1009" y1="36.2569" x2="48.1009" y2="29.224" gradientUnits="userSpaceOnUse">
<stop offset="0.3865" stop-color="#D8D9DA" stop-opacity="0"/>
<stop offset="1" stop-color="#D8D9DA"/>
</linearGradient>
<linearGradient id="paint2_linear" x1="35.5758" y1="42.6513" x2="51.8282" y2="42.6513" gradientUnits="userSpaceOnUse">
<stop stop-color="#EEEDEB"/>
<stop offset="1" stop-color="white"/>
</linearGradient>
<linearGradient id="paint3_linear" x1="34.8284" y1="30.9458" x2="52.4733" y2="30.9458" gradientUnits="userSpaceOnUse">
<stop stop-color="#EEEDEB"/>
<stop offset="1" stop-color="white"/>
</linearGradient>
</defs>
</svg>
