<svg width="60" height="60" viewBox="0 0 60 60" fill="none" xmlns="http://www.w3.org/2000/svg">
<path fill-rule="evenodd" clip-rule="evenodd" d="M1.19998 0.540039H59.46V59.52H1.19998V0.540039Z" fill="#F3D90A"/>
<path fill-rule="evenodd" clip-rule="evenodd" d="M21 47.04C21.84 48.6 22.62 49.92 24.54 49.92C26.34 49.92 27.48 49.2 27.48 46.44V27.6H32.94V46.5C32.94 52.26 29.64 54.84 24.78 54.84C20.4 54.84 17.88 52.56 16.56 49.8L21 47.04ZM40.32 46.56C41.52 48.48 43.02 49.92 45.72 49.92C48 49.92 49.44 48.78 49.44 47.16C49.44 45.24 47.94 44.58 45.48 43.5L44.1 42.9C40.14 41.22 37.5 39.06 37.5 34.56C37.5 30.42 40.62 27.24 45.54 27.24C49.02 27.24 51.54 28.44 53.34 31.68L49.08 34.44C48.12 32.76 47.1 32.04 45.54 32.04C43.92 32.04 42.9 33.06 42.9 34.44C42.9 36.12 43.92 36.78 46.26 37.8L47.64 38.4C52.32 40.44 54.9 42.48 54.9 47.1C54.9 52.08 51 54.84 45.84 54.84C40.74 54.84 37.5 52.38 35.88 49.2L40.32 46.56Z" fill="#0B0B0A"/>
</svg>
