<svg width="250" height="250" viewBox="0 0 250 250" fill="none" xmlns="http://www.w3.org/2000/svg">
<path d="M223.455 65.762C208.818 65.762 196.911 77.6697 196.911 92.3064C196.911 97.6447 198.5 102.616 201.223 106.782L172.545 135.461C168.378 132.738 163.406 131.149 158.068 131.149C152.536 131.149 147.395 132.852 143.138 135.758L114.165 106.78C116.887 102.614 118.475 97.6433 118.475 92.3059C118.475 77.6692 106.568 65.7615 91.931 65.7615C77.2943 65.7615 65.3866 77.6692 65.3866 92.3059C65.3866 97.6433 66.9755 102.612 69.6966 106.779L41.0175 135.459C36.8515 132.737 31.8813 131.149 26.5444 131.149C11.9077 131.149 0 143.057 0 157.693C0 172.33 11.9077 184.238 26.5444 184.238C41.1811 184.238 53.0888 172.33 53.0888 157.693C53.0888 152.355 51.4994 147.384 48.7768 143.217L77.4549 114.539C81.6219 117.261 86.5931 118.851 91.9315 118.851C97.2693 118.851 102.241 117.261 106.407 114.539L135.541 143.676C132.999 147.748 131.524 152.55 131.524 157.693C131.524 172.33 143.432 184.237 158.069 184.237C172.705 184.237 184.613 172.33 184.613 157.693C184.613 152.356 183.024 147.386 180.303 143.22L208.983 114.54C213.149 117.262 218.119 118.85 223.456 118.85C238.092 118.85 250 106.943 250 92.3059C250 77.6687 238.092 65.762 223.455 65.762ZM26.5444 173.266C17.9575 173.266 10.9717 166.28 10.9717 157.693C10.9717 149.107 17.9575 142.121 26.5444 142.121C35.1308 142.121 42.1171 149.107 42.1171 157.693C42.1171 166.28 35.1313 173.266 26.5444 173.266ZM91.9315 107.879C83.3451 107.879 76.3587 100.893 76.3587 92.3059C76.3587 83.7195 83.3446 76.7331 91.9315 76.7331C100.518 76.7331 107.504 83.719 107.504 92.3059C107.504 100.893 100.518 107.879 91.9315 107.879ZM158.068 173.266C149.482 173.266 142.495 166.28 142.495 157.693C142.495 149.106 149.481 142.12 158.068 142.12C166.654 142.12 173.641 149.106 173.641 157.693C173.64 166.28 166.654 173.266 158.068 173.266ZM223.455 107.879C214.869 107.879 207.882 100.893 207.882 92.3059C207.882 83.7195 214.868 76.7331 223.455 76.7331C232.042 76.7331 239.028 83.719 239.028 92.3059C239.028 100.893 232.042 107.879 223.455 107.879Z" fill="white"/>
<path d="M86.3138 133.162C84.1712 131.02 80.6981 131.02 78.5555 133.162L67.3964 144.321C65.2543 146.463 65.2543 149.937 67.3968 152.079C68.4681 153.15 69.8719 153.686 71.2757 153.686C72.6795 153.686 74.0838 153.15 75.1546 152.079L86.3138 140.92C88.4569 138.778 88.4569 135.304 86.3138 133.162Z" fill="white"/>
<path d="M182.597 98.1133C180.455 95.9712 176.982 95.9713 174.839 98.1138L163.679 109.273C161.537 111.415 161.537 114.889 163.679 117.031C164.751 118.102 166.155 118.638 167.559 118.638C168.963 118.638 170.366 118.102 171.438 117.031L182.597 105.872C184.739 103.729 184.739 100.255 182.597 98.1133Z" fill="white"/>
</svg>
