<svg width="60" height="60" viewBox="0 0 60 60" fill="none" xmlns="http://www.w3.org/2000/svg">
<g id="marketing" clip-path="url(#clip0)">
<g id="Group">
<g id="Group_2">
<path id="Vector" d="M42.0251 8.0166H39.0187C37.6037 8.0166 36.4191 9.02031 36.1384 10.3531C33.8305 11.5077 22.5042 16.8706 7.58988 18.8336C6.75234 18.9439 6.03316 19.399 5.56816 20.0416H2.94363C1.32047 20.0417 0 21.3622 0 22.9853V28.9979C0 30.621 1.32047 31.9415 2.94363 31.9415H5.5684C6.03328 32.584 6.75258 33.0393 7.59 33.1495C7.73988 33.1693 7.88871 33.19 8.03801 33.2105L12.6538 49.8275C13.0064 51.0967 14.1727 51.9832 15.4901 51.9832H20.9779C20.9789 51.9832 20.9798 51.9835 20.9809 51.9835C20.9822 51.9835 20.9832 51.9832 20.9845 51.9832H21.9834C22.5022 51.9832 22.9229 51.5627 22.9229 51.0438C22.9229 50.5248 22.5023 50.1043 21.9834 50.1043H21.6955L17.5036 35.0143C27.36 37.416 34.3767 40.7487 36.1385 41.6301C36.4191 42.9629 37.6038 43.9666 39.0189 43.9666H42.0251C43.6482 43.9666 44.9687 42.6461 44.9687 41.0229V10.9602C44.9687 9.33707 43.6482 8.0166 42.0251 8.0166ZM5.01047 30.0625H2.94363C2.35652 30.0625 1.87887 29.5848 1.87887 28.9977V22.9852C1.87887 22.3981 2.35652 21.9204 2.94363 21.9204H5.01047V30.0625ZM19.7453 50.1043H15.4901C15.0136 50.1043 14.5918 49.7836 14.4643 49.3245L10.0717 33.5123C11.9214 33.8085 13.7074 34.1533 15.4191 34.5306L19.7453 50.1043ZM43.0897 41.0229C43.0897 41.61 42.6121 42.0877 42.025 42.0877H39.0187C38.4316 42.0877 37.954 41.61 37.954 41.0229V41.0218C37.954 41.0197 37.954 41.0175 37.954 41.0153V18.9774C37.954 18.4586 37.5334 18.0379 37.0145 18.0379C36.4956 18.0379 36.075 18.4585 36.075 18.9774V39.5105C32.3762 37.7541 21.5933 33.0975 7.83504 31.2866C7.29574 31.2157 6.88922 30.7614 6.88922 30.23V21.7532C6.88922 21.2218 7.29586 20.7675 7.83504 20.6965C21.5933 18.8857 32.3762 14.2291 36.075 12.4728V14.969C36.075 15.4878 36.4956 15.9085 37.0145 15.9085C37.5334 15.9085 37.954 15.4879 37.954 14.969V10.9668C37.954 10.9656 37.954 10.9645 37.954 10.9633V10.9602C37.954 10.3731 38.4316 9.89547 39.0187 9.89547H42.025C42.6121 9.89547 43.0897 10.3731 43.0897 10.9602V41.0229Z" fill="#fff"/>
</g>
</g>
<g id="Group_3">
<g id="Group_4">
<path id="Vector_2" d="M59.0605 25.052H49.0396C48.5208 25.052 48.1001 25.4726 48.1001 25.9915C48.1001 26.5103 48.5207 26.931 49.0396 26.931H59.0605C59.5793 26.931 60 26.5104 60 25.9915C60 25.4726 59.5794 25.052 59.0605 25.052Z" fill="#fff"/>
</g>
</g>
<g id="Group_5">
<g id="Group_6">
<path id="Vector_3" d="M56.9176 15.6006C56.7133 15.1236 56.1609 14.9028 55.6841 15.1072L54.6819 15.5367C54.2051 15.7411 53.9841 16.2934 54.1886 16.7702C54.3412 17.1265 54.6881 17.3398 55.0525 17.3398C55.176 17.3398 55.3015 17.3153 55.4221 17.2636L56.4243 16.8341C56.9011 16.6297 57.122 16.0775 56.9176 15.6006Z" fill="#fff"/>
</g>
</g>
<g id="Group_7">
<g id="Group_8">
<path id="Vector_4" d="M52.9094 17.3183C52.7051 16.8415 52.1528 16.6206 51.6759 16.825L48.6697 18.1135C48.1929 18.3178 47.9719 18.8701 48.1763 19.347C48.329 19.7031 48.6759 19.9165 49.0403 19.9165C49.1638 19.9165 49.2893 19.892 49.4099 19.8403L52.4161 18.5518C52.8929 18.3475 53.1139 17.7952 52.9094 17.3183Z" fill="#fff"/>
</g>
</g>
<g id="Group_9">
<g id="Group_10">
<path id="Vector_5" d="M56.4241 35.1488L55.4191 34.7181C54.9423 34.5136 54.3899 34.7346 54.1856 35.2115C53.9812 35.6883 54.2021 36.2406 54.6789 36.445L55.6839 36.8756C55.8045 36.9273 55.93 36.9518 56.0535 36.9518C56.4181 36.9518 56.7648 36.7384 56.9174 36.3822C57.1219 35.9054 56.9012 35.3531 56.4241 35.1488Z" fill="#fff"/>
</g>
</g>
<g id="Group_11">
<g id="Group_12">
<path id="Vector_6" d="M52.4146 33.4303L49.4098 32.1426C48.933 31.9383 48.3806 32.1591 48.1763 32.6359C47.9719 33.1129 48.1928 33.6651 48.6697 33.8694L51.6745 35.1572C51.7951 35.2089 51.9206 35.2334 52.0441 35.2334C52.4087 35.2334 52.7553 35.02 52.908 34.6638C53.1125 34.187 52.8915 33.6347 52.4146 33.4303Z" fill="#fff"/>
</g>
</g>
</g>
<defs>
<clipPath id="clip0">
<rect width="60" height="60" fill="white"/>
</clipPath>
</defs>
</svg>
