<svg width="250" height="250" viewBox="0 0 250 250" fill="none" xmlns="http://www.w3.org/2000/svg">
<g clip-path="url(#clip0)">
<path d="M86.4243 28.3218C89.1206 28.3218 91.3071 26.1353 91.3071 23.439V4.88428C91.3071 2.18799 89.1206 0.00146484 86.4243 0.00146484H22.4604C19.7642 0.00146484 17.5776 2.18799 17.5776 4.88428V19.5327H4.88281C2.18652 19.5327 0 21.7192 0 24.4155V111.328C0 114.024 2.18652 116.211 4.88281 116.211H68.8467C71.543 116.21 73.7295 114.024 73.7295 111.328V96.6792H86.4248C89.1211 96.6792 91.3076 94.4927 91.3076 91.7964V58.6104C91.3076 55.9141 89.1211 53.7276 86.4248 53.7276C83.7285 53.7276 81.542 55.9141 81.542 58.6104V86.9136H73.7295V47.648C73.7295 46.3574 73.2188 45.1192 72.3086 44.2041L49.1978 20.9717C48.2812 20.0503 47.0352 19.5327 45.7358 19.5327H27.3433V9.76709H81.5415V23.439C81.5415 26.1353 83.728 28.3218 86.4243 28.3218ZM50.6182 36.2471L57.1025 42.7656H50.6182V36.2471ZM40.853 29.2979V47.648C40.853 50.3442 43.0396 52.5308 45.7358 52.5308H63.9639V106.445H9.76562V29.2979H40.853Z" fill="white"/>
<path d="M89.8758 37.276C88.9681 36.3673 87.7084 35.8453 86.4242 35.8453C85.14 35.8453 83.8802 36.3673 82.972 37.276C82.0638 38.1847 81.5414 39.444 81.5414 40.7281C81.5414 42.0172 82.0634 43.2721 82.972 44.1798C83.8802 45.0929 85.14 45.611 86.4242 45.611C87.7084 45.611 88.9681 45.0929 89.8758 44.1798C90.784 43.2721 91.307 42.0167 91.307 40.7281C91.307 39.444 90.7845 38.1842 89.8758 37.276Z" fill="white"/>
<path d="M245.117 0.0012207H181.154C178.457 0.0012207 176.271 2.18774 176.271 4.88403V19.5325H163.575C160.879 19.5325 158.693 21.719 158.693 24.4153V111.328C158.693 114.024 160.879 116.211 163.575 116.211H227.539C230.236 116.211 232.422 114.024 232.422 111.328V96.6794H245.117C247.814 96.6794 250 94.4929 250 91.7966V4.88355C250 2.18726 247.814 0.0012207 245.117 0.0012207ZM222.657 106.445H168.459V29.2976H199.547V47.6477C199.547 50.344 201.733 52.5305 204.429 52.5305H222.657V106.445ZM209.312 42.7654V36.2468L215.796 42.7654H209.312ZM240.235 86.9138H232.422V47.6477C232.422 46.3572 231.911 45.1189 231.001 44.2039L207.891 20.9714C206.974 20.0501 205.728 19.5325 204.429 19.5325H186.036V9.76685H240.235V86.9138Z" fill="white"/>
<path d="M124.998 62.9877C122.302 62.9877 120.115 65.1742 120.115 67.8705V88.3778C120.115 91.0746 122.302 93.2606 124.998 93.2606C127.694 93.2606 129.881 91.0741 129.881 88.3778V67.8705C129.881 65.1742 127.694 62.9877 124.998 62.9877Z" fill="white"/>
<path d="M128.449 102.343C127.542 101.435 126.282 100.912 124.998 100.912C123.714 100.912 122.454 101.435 121.546 102.343C120.637 103.251 120.115 104.511 120.115 105.795C120.115 107.079 120.637 108.339 121.546 109.247C122.454 110.16 123.714 110.678 124.998 110.678C126.282 110.678 127.542 110.16 128.449 109.247C129.358 108.339 129.881 107.083 129.881 105.795C129.881 104.511 129.358 103.251 128.449 102.343Z" fill="white"/>
<path d="M109.977 104.083L103.611 97.7173C101.705 95.811 98.6127 95.811 96.7059 97.7173C94.7992 99.6245 94.7992 102.716 96.7059 104.623L103.073 110.988C104.026 111.941 105.275 112.418 106.525 112.418C107.774 112.418 109.024 111.941 109.977 110.988C111.884 109.081 111.884 105.99 109.977 104.083Z" fill="white"/>
<path d="M152.984 97.4774C151.076 95.5712 147.986 95.5712 146.078 97.4774L139.499 104.056C137.593 105.963 137.593 109.055 139.499 110.962C140.453 111.915 141.703 112.392 142.952 112.392C144.202 112.392 145.451 111.915 146.405 110.962L152.984 104.383C154.89 102.476 154.89 99.3846 152.984 97.4774Z" fill="white"/>
<path d="M192.705 207.898C190.364 207.271 188.005 207.183 185.755 207.55L185.979 206.715C187.128 202.426 186.539 197.946 184.319 194.1C182.099 190.255 178.514 187.504 174.225 186.355C173.115 186.058 172 185.88 170.895 185.815V182.263C170.895 158.604 152.902 139.07 129.88 136.624V125.06C129.88 122.364 127.694 120.178 124.998 120.178C122.301 120.178 120.115 122.364 120.115 125.06V136.624C97.0937 139.07 79.0996 158.603 79.0996 182.263V209.293C75.0952 210.537 71.7544 213.198 69.646 216.85C67.4257 220.696 66.8364 225.176 67.9834 229.455L72.4809 246.369C73.062 248.556 75.0366 249.999 77.1963 249.999C77.6118 249.999 78.0341 249.945 78.4541 249.833C81.0605 249.141 82.6113 246.466 81.9184 243.86L77.4184 226.937C76.9443 225.168 77.1875 223.32 78.1035 221.734C79.019 220.147 80.498 219.013 82.2671 218.538C84.0356 218.064 85.8842 218.308 87.4712 219.224C89.0576 220.14 90.1923 221.618 90.6665 223.388L96.707 245.93C97.0957 248.237 99.0981 249.997 101.517 249.997C104.213 249.997 106.399 247.811 106.399 245.115V180.009C106.399 176.228 109.476 173.151 113.257 173.151C117.039 173.151 120.115 176.227 120.115 180.009V245.115C120.115 247.811 122.302 249.997 124.998 249.997C127.694 249.997 129.881 247.811 129.881 245.115V234.444L143.591 183.28C144.065 181.51 145.2 180.032 146.786 179.116C148.372 178.2 150.22 177.956 151.99 178.431C155.642 179.41 157.818 183.178 156.839 186.83L142.963 238.616C142.909 238.816 142.873 239.017 142.846 239.217L141.603 243.85C140.905 246.455 142.451 249.132 145.055 249.831C147.664 250.53 150.337 248.983 151.036 246.379L163.299 200.637C164.278 196.985 168.046 194.807 171.698 195.787C175.351 196.766 177.526 200.534 176.547 204.185L172.72 218.463C172.582 218.855 172.454 219.254 172.344 219.662L165.946 243.725L165.913 243.85C165.913 243.851 165.913 243.853 165.912 243.855L165.911 243.859C165.877 243.987 165.855 244.097 165.838 244.199C165.361 246.69 166.877 249.163 169.365 249.83C169.789 249.944 170.214 249.998 170.633 249.998C172.694 249.998 174.585 248.681 175.259 246.658C175.286 246.583 175.312 246.501 175.337 246.408C175.34 246.398 175.344 246.389 175.347 246.379L182.041 221.411C183.311 218.231 186.793 216.422 190.179 217.331C191.949 217.805 193.428 218.94 194.343 220.526C195.259 222.113 195.502 223.961 195.025 225.74L190.211 243.86C189.519 246.467 191.07 249.141 193.676 249.833C194.097 249.945 194.519 249.998 194.934 249.998C197.093 249.998 199.068 248.554 199.649 246.368L204.461 228.258C206.832 219.404 201.56 210.271 192.705 207.898ZM96.6342 214.3C95.4321 212.909 93.9941 211.712 92.3549 210.766C91.2387 210.121 90.0683 209.619 88.8657 209.252V195.285H96.6342V214.3ZM120.115 164.872C118.023 163.92 115.702 163.386 113.257 163.386C104.091 163.386 96.6342 170.843 96.6342 180.009V185.52H88.8657V182.262C88.8657 163.996 102.494 148.861 120.115 146.469V164.872ZM154.517 168.997C145.665 166.626 136.53 171.898 134.158 180.752L129.881 196.714V180.009C129.881 179.544 129.857 179.086 129.819 178.631C129.856 178.39 129.881 178.145 129.881 177.894V146.469C143.78 148.356 155.189 158.169 159.391 171.198C157.932 170.23 156.298 169.475 154.517 168.997Z" fill="white"/>
<path d="M44.8251 57.1165H26.4628C23.7665 57.1165 21.58 59.303 21.58 61.9993C21.58 64.6956 23.7665 66.8821 26.4628 66.8821H44.8241C47.5204 66.8821 49.7069 64.6956 49.7069 61.9993C49.7069 59.303 47.5209 57.1165 44.8251 57.1165Z" fill="white"/>
<path d="M44.8251 76.6473H26.4628C23.7665 76.6473 21.58 78.8339 21.58 81.5302C21.58 84.2264 23.7665 86.413 26.4628 86.413H44.8241C47.5204 86.413 49.7069 84.2264 49.7069 81.5302C49.7069 78.8339 47.5209 76.6473 44.8251 76.6473Z" fill="white"/>
<path d="M204.738 57.1165H186.377C183.681 57.1165 181.494 59.303 181.494 61.9993C181.494 64.6956 183.681 66.8821 186.377 66.8821H204.738C207.435 66.8821 209.621 64.6956 209.621 61.9993C209.621 59.303 207.435 57.1165 204.738 57.1165Z" fill="white"/>
<path d="M204.738 76.6473H186.377C183.681 76.6473 181.494 78.8339 181.494 81.5302C181.494 84.2264 183.681 86.413 186.377 86.413H204.738C207.435 86.413 209.621 84.2264 209.621 81.5302C209.621 78.8339 207.435 76.6473 204.738 76.6473Z" fill="white"/>
</g>
<defs>
<clipPath id="clip0">
<rect width="250" height="250" fill="white"/>
</clipPath>
</defs>
</svg>
