<svg width="60" height="60" viewBox="0 0 60 60" fill="none" xmlns="http://www.w3.org/2000/svg">
<g clip-path="url(#clip0)">
<path d="M7.79127 52.6986C7.79127 53.8706 7.44217 54.8577 6.74149 55.6569C6.01029 56.4942 5.06016 56.9145 3.8971 56.9145C2.73095 56.9145 1.78391 56.4942 1.05268 55.6569C0.351711 54.8577 0 53.8706 0 52.6986C0 51.5234 0.351711 50.5365 1.05268 49.7403C1.79203 48.9108 2.74218 48.4963 3.8971 48.4963C5.06016 48.4963 6.01029 48.9108 6.74149 49.7403C7.44217 50.5365 7.79127 51.5234 7.79127 52.6986ZM5.47558 52.6986C5.47558 52.1677 5.3483 51.7197 5.09348 51.3574C4.80837 50.9457 4.40937 50.7411 3.8971 50.7411C3.38463 50.7411 2.9858 50.9457 2.7004 51.3574C2.44294 51.7197 2.31553 52.1677 2.31553 52.6986C2.31553 53.2265 2.44294 53.6799 2.7004 54.0531C2.9858 54.4648 3.38463 54.6697 3.8971 54.6697C4.40937 54.6697 4.80837 54.4648 5.09348 54.0531C5.3483 53.6799 5.47558 53.2265 5.47558 52.6986ZM16.1641 52.6986C16.1641 53.7933 15.8483 54.7498 15.2139 55.5682C14.5354 56.4638 13.6601 56.9145 12.5966 56.9145C11.8459 56.9145 11.2091 56.6961 10.6883 56.2649C10.6883 56.3642 10.6994 56.6048 10.7216 56.9895C10.7438 57.3761 10.7547 57.6913 10.7547 57.9401C10.7547 59.3146 10.3448 60 9.52513 60C9.18984 60 8.9158 59.8811 8.69688 59.646C8.48088 59.4085 8.37279 59.1232 8.37279 58.7863V49.8482C8.37279 49.5219 8.48365 49.2398 8.70518 49.0023C8.92668 48.7672 9.20104 48.6486 9.52786 48.6486C10.0207 48.6486 10.3808 48.8941 10.608 49.3838C11.0927 48.7922 11.7547 48.4963 12.5938 48.4963C13.6601 48.4963 14.5326 48.9384 15.2139 49.8261C15.8455 50.6473 16.1641 51.6038 16.1641 52.6986ZM13.8484 52.6986C13.8484 52.1677 13.7185 51.7197 13.4637 51.3574C13.1781 50.9457 12.7794 50.7411 12.267 50.7411C11.7547 50.7411 11.3558 50.9457 11.0705 51.3574C10.8156 51.7197 10.6883 52.1677 10.6883 52.6986C10.6883 53.2265 10.8156 53.6799 11.0705 54.0531C11.3558 54.4648 11.7547 54.6697 12.267 54.6697C12.7794 54.6697 13.1781 54.4648 13.4637 54.0531C13.7185 53.6799 13.8484 53.2265 13.8484 52.6986ZM24.5894 52.45C24.5894 52.8367 24.4979 53.1021 24.315 53.2516C24.1323 53.398 23.8471 53.4726 23.4621 53.4726H19.2825C19.2825 53.915 19.4904 54.2549 19.9058 54.4924C20.2409 54.678 20.6508 54.7722 21.1355 54.7722C21.5124 54.7722 21.9637 54.6473 22.4927 54.4017C23.0218 54.1527 23.3623 54.0308 23.5094 54.0308C23.7779 54.0308 24.0049 54.1277 24.1933 54.3268C24.3787 54.5232 24.4731 54.7609 24.4731 55.0347C24.4731 55.6675 23.9996 56.1601 23.052 56.5138C22.3292 56.779 21.5953 56.9145 20.8449 56.9145C19.6373 56.9145 18.6623 56.5138 17.9173 55.715C17.1721 54.9158 16.7984 53.9122 16.7984 52.6986C16.7984 51.5427 17.186 50.5558 17.9615 49.7323C18.7341 48.908 19.6955 48.4963 20.842 48.4963C21.9083 48.4963 22.8001 48.8861 23.5149 49.6657C24.2292 50.4455 24.5894 51.3743 24.5894 52.45ZM22.274 51.8691C22.2628 51.5151 22.0994 51.1945 21.7837 50.904C21.4678 50.6139 21.1329 50.4703 20.7782 50.4703C20.4127 50.4703 20.0719 50.6139 19.7563 50.904C19.4406 51.1945 19.2825 51.5151 19.2825 51.8691H22.274ZM32.3693 55.5485C32.3693 55.8861 32.2614 56.1707 32.0456 56.4085C31.8267 56.6437 31.5523 56.7627 31.2173 56.7627C30.4085 56.7627 30.004 56.1212 30.004 54.8412C30.004 54.5951 30.0207 54.2082 30.0539 53.6746C30.09 53.1436 30.1067 52.7539 30.1067 52.5078C30.1067 51.1501 29.6663 50.4703 28.7883 50.4703C27.9102 50.4703 27.4726 51.1501 27.4726 52.5078C27.4726 52.7539 27.4864 53.1436 27.5113 53.6746C27.5391 54.2082 27.5529 54.5951 27.5529 54.8412C27.5529 56.1212 27.1541 56.7627 26.3565 56.7627C26.0212 56.7627 25.7472 56.6437 25.531 56.4085C25.3123 56.1707 25.2042 55.8861 25.2042 55.5485V49.8457C25.2042 49.5106 25.3123 49.2263 25.531 48.9967C25.7472 48.7644 26.0242 48.6486 26.3593 48.6486C26.9132 48.6486 27.2981 48.8941 27.5141 49.3838C27.888 48.7922 28.5499 48.4963 29.4972 48.4963C30.3752 48.4963 31.0732 48.7283 31.5857 49.19C32.1092 49.6853 32.3693 50.365 32.3693 51.2305V55.5485ZM39.6341 55.3029C39.6341 55.8253 39.2941 56.2398 38.6123 56.5443C38.0725 56.79 37.4858 56.9163 36.8925 56.9145C35.726 56.9145 34.7791 56.4942 34.048 55.6569C33.3471 54.8577 32.9954 53.8706 32.9954 52.6986C32.9954 51.5234 33.3527 50.5312 34.07 49.7182C34.7873 48.9028 35.726 48.4963 36.8925 48.4963C37.5654 48.4963 38.1442 48.5958 38.6265 48.7922C39.2991 49.0576 39.6341 49.4721 39.6341 50.0362C39.6341 50.3208 39.5457 50.5724 39.3683 50.7909C39.1912 51.0065 38.9637 51.1171 38.6872 51.1171C38.4985 51.1171 38.227 51.0536 37.8727 50.9294C37.5182 50.8019 37.236 50.7411 37.0284 50.7411C36.4769 50.7411 36.0475 50.9374 35.7401 51.3298C35.4548 51.6838 35.3107 52.1373 35.3107 52.6986C35.3107 53.2265 35.4381 53.6746 35.6961 54.0367C35.9808 54.4598 36.3829 54.6697 36.895 54.6697C37.1225 54.6697 37.4323 54.6034 37.8284 54.4676C38.2248 54.3353 38.5101 54.2662 38.6872 54.2662C38.9449 54.2662 39.166 54.3766 39.3548 54.5923C39.5404 54.8107 39.6341 55.0455 39.6341 55.3029ZM48.0513 55.5485C48.0513 55.8861 47.9434 56.1707 47.7272 56.4085C47.5086 56.6437 47.2318 56.7627 46.8961 56.7627C46.3921 56.7627 46.0322 56.5164 45.8161 56.0271C45.3317 56.6189 44.6694 56.9145 43.8304 56.9145C42.7561 56.9145 41.8753 56.4638 41.1936 55.5682C40.5732 54.7498 40.2608 53.7933 40.2608 52.6986C40.2608 51.6038 40.5732 50.6473 41.1936 49.8261C41.8863 48.9384 42.764 48.4963 43.8304 48.4963C44.6694 48.4963 45.3317 48.7922 45.8161 49.3838C46.0322 48.8941 46.3921 48.6486 46.8961 48.6486C47.2233 48.6486 47.4976 48.7672 47.7194 49.0023C47.9405 49.2398 48.0513 49.5191 48.0513 49.8457V55.5485ZM45.7359 52.6986C45.7359 52.1677 45.6088 51.7197 45.3537 51.3574C45.0573 50.9457 44.6584 50.7411 44.1573 50.7411C43.6448 50.7411 43.2462 50.9457 42.9606 51.3574C42.7033 51.7197 42.5762 52.1677 42.5762 52.6986C42.5762 53.2265 42.7001 53.6799 42.9464 54.0531C43.2406 54.4648 43.6448 54.6697 44.1573 54.6697C44.6694 54.6697 45.0683 54.4648 45.3537 54.0531C45.6088 53.6799 45.7359 53.2265 45.7359 52.6986ZM53.9593 49.6932C53.9593 50.1881 53.7183 50.5281 53.2363 50.7132C52.7906 50.8628 52.347 51.0151 51.904 51.1722C51.419 51.4489 51.1783 51.963 51.1783 52.7096V55.5485C51.1783 55.8861 51.0672 56.1707 50.8517 56.4085C50.6325 56.6437 50.3556 56.7627 50.0206 56.7627C49.683 56.7627 49.4056 56.6437 49.1901 56.4085C48.9708 56.1707 48.8629 55.8861 48.8629 55.5485V49.8457C48.8629 49.5106 48.9708 49.2263 49.1869 48.9967C49.4056 48.7644 49.6831 48.6486 50.0181 48.6486C50.5718 48.6486 50.9565 48.8941 51.1729 49.3838C51.6687 48.7922 52.2007 48.4963 52.7739 48.4963C53.1004 48.4963 53.3804 48.6149 53.6129 48.8499C53.8425 49.0878 53.9593 49.3697 53.9593 49.6932ZM60 49.7984C60 50.3125 59.7977 50.636 59.3966 50.7745C59.1994 50.8434 58.7863 50.8793 58.1578 50.8793V55.5485C58.1578 55.8861 58.047 56.1707 57.8315 56.4085C57.6123 56.6437 57.3354 56.7627 57.0004 56.7627C56.6738 56.7627 56.3964 56.6437 56.1746 56.4085C55.9534 56.1707 55.8427 55.8861 55.8427 55.5485V50.8793C55.3661 50.8793 55.0201 50.8185 54.8014 50.6999C54.5026 50.5339 54.3547 50.2325 54.3547 49.7984C54.3547 49.3645 54.5073 49.0686 54.8146 48.9108C55.0226 48.7946 55.3661 48.7341 55.8427 48.7341V47.7443C55.8427 46.5805 56.2271 46 57.0004 46C57.7702 46 58.1578 46.5805 58.1578 47.7443V48.7341C58.7863 48.7341 59.1994 48.77 59.3966 48.8389C59.7977 48.9772 60 49.2982 60 49.7984Z" fill="url(#paint0_linear)"/>
<path d="M41.9076 8.405C52.7798 8.405 56.9799 9.44007 57 11.7204V11.7534C56.9728 14.827 49.4528 20.1422 40.4473 28.2059C45.4409 19.4926 62.6031 11.7804 34.4711 12.2152C7.5078 12.625 5.91367 4.39033 3 0C9.92563 7.31181 16.3977 8.405 41.9076 8.405Z" fill="url(#paint1_linear)"/>
<path d="M17.3008 39C19.4139 38.9995 21.1519 37.2557 21.1529 35.1361C21.1529 32.9946 19.428 31.2628 17.3008 31.2628H17.2988C15.1817 31.2628 13.4407 33.0099 13.4407 35.1331V35.1361C13.4407 37.2687 15.1666 39 17.3008 39Z" fill="url(#paint2_linear)"/>
<path d="M34.8684 39C36.9815 38.9995 38.7194 37.2557 38.7204 35.1361C38.7204 32.9946 36.9955 31.2628 34.8684 31.2628H34.8663C32.7502 31.2628 31.0093 33.0099 31.0093 35.1331V35.1361C31.0093 37.2687 32.7362 39 34.8684 39Z" fill="url(#paint3_linear)"/>
</g>
<defs>
<linearGradient id="paint0_linear" x1="39.301" y1="56.8128" x2="39.301" y2="44.7472" gradientUnits="userSpaceOnUse">
<stop stop-color="#04B6F0"/>
<stop offset="1" stop-color="#3ECAF0"/>
</linearGradient>
<linearGradient id="paint1_linear" x1="-68.647" y1="38.7711" x2="-68.647" y2="0.000101681" gradientUnits="userSpaceOnUse">
<stop stop-color="#04B6F0"/>
<stop offset="1" stop-color="#3ECAF0"/>
</linearGradient>
<linearGradient id="paint2_linear" x1="-68.647" y1="38.7711" x2="-68.647" y2="0.000101681" gradientUnits="userSpaceOnUse">
<stop stop-color="#04B6F0"/>
<stop offset="1" stop-color="#3ECAF0"/>
</linearGradient>
<linearGradient id="paint3_linear" x1="-68.647" y1="38.7711" x2="-68.647" y2="0.000101681" gradientUnits="userSpaceOnUse">
<stop stop-color="#04B6F0"/>
<stop offset="1" stop-color="#3ECAF0"/>
</linearGradient>
<clipPath id="clip0">
<rect width="60" height="60" fill="white"/>
</clipPath>
</defs>
</svg>
