<svg width="30" height="30" viewBox="0 0 30 30" fill="none" xmlns="http://www.w3.org/2000/svg">
<g clip-path="url(#clip0)">
<path d="M22.7149 27.1884C22.5526 26.9087 22.1942 26.8134 21.9141 26.9757L21.8915 26.9887C21.6117 27.1511 21.5165 27.5096 21.6788 27.7895C21.7875 27.9768 21.9841 28.0815 22.1861 28.0815C22.2858 28.0815 22.3871 28.0559 22.4796 28.0022L22.5021 27.9892C22.782 27.8268 22.8772 27.4683 22.7149 27.1884Z" fill="white"/>
<path d="M27.9899 7.50556C25.987 4.03652 22.7532 1.55513 18.884 0.518376C15.0149 -0.518382 10.9736 0.0137079 7.50455 2.0165C4.03556 4.01929 1.55412 7.2532 0.517419 11.1223C-0.51928 14.9914 0.012751 19.0328 2.01554 22.5018C3.81209 25.6136 6.66748 27.9785 10.0557 29.1608C11.6618 29.7211 13.3385 30.0008 15.0126 30.0008C16.8328 30.0008 18.6497 29.67 20.3672 29.0099C20.6692 28.8939 20.8199 28.5549 20.7038 28.2528C20.5877 27.9508 20.2486 27.7999 19.9467 27.9162C15.3752 29.6733 10.4263 28.8749 6.72883 26.0996L7.25377 23.3595L7.50672 23.2773C8.46256 22.9668 8.98756 21.9364 8.67713 20.9805L8.4915 20.4093C8.44855 20.2771 8.44879 20.1374 8.49209 20.0053C8.65492 19.5089 8.59674 18.9658 8.33242 18.5151C8.0681 18.0645 7.6225 17.7485 7.10974 17.6482L5.78728 17.3898L3.23564 15.4498C3.08277 15.3335 2.88267 15.2996 2.69998 15.3589L1.20607 15.8442C1.17437 15.3098 1.1739 14.7757 1.20402 14.2444C1.26297 14.2993 1.30134 14.3366 1.32496 14.3611C1.3542 14.4098 1.39041 14.4544 1.43283 14.4931C1.55482 14.6042 1.66533 14.6546 1.89736 14.6546C2.11058 14.6545 2.42623 14.612 2.94742 14.5351C3.44172 14.462 3.93343 14.3797 3.9383 14.3788C4.13535 14.3459 4.30193 14.2146 4.38033 14.0309C4.45873 13.8472 4.43804 13.6362 4.32549 13.4711L3.60707 12.4173L4.63609 11.6815C4.70465 11.6324 4.76183 11.5692 4.80373 11.4961L6.39883 8.71142L7.04177 8.02248C7.69879 7.3183 7.88629 6.28804 7.51937 5.39765C7.30293 4.87248 6.92488 4.43525 6.45203 4.14058C6.96414 3.73799 7.51017 3.36627 8.09049 3.03129C10.2197 1.80199 12.5433 1.20627 14.8424 1.18347L13.7962 2.49591L9.91638 3.85605C9.75883 3.91125 9.63226 4.03113 9.56863 4.18547L8.48511 6.81211C8.40818 6.99873 8.43261 7.21166 8.54986 7.37595L10.1324 9.59267C9.90572 9.79945 9.68511 10.1006 9.42162 10.4746C9.30607 10.6386 9.19697 10.7934 9.12156 10.8803C9.05599 10.9559 8.99037 11.0297 8.92533 11.1028C8.58496 11.4857 8.23304 11.8818 7.98302 12.4107C7.4333 13.5744 7.54433 14.9268 8.27277 15.9404C8.97713 16.9203 10.1383 17.4185 11.3777 17.2727C11.5796 17.2491 11.7679 17.2025 11.9501 17.1574C12.4524 17.0331 12.6115 17.0207 12.7727 17.1715C12.8511 17.2449 12.8583 17.2588 12.8567 17.5078C12.8556 17.6662 12.8543 17.8633 12.9089 18.0884C12.9964 18.4484 13.2225 18.6973 13.4042 18.8972C13.4945 18.9965 13.5879 19.0993 13.6166 19.1682C13.7994 19.6062 13.7198 19.8487 13.5454 20.3801C13.5305 20.4256 13.5153 20.472 13.5 20.5196C13.2351 21.3396 13.6043 22.153 13.9301 22.8705C14.0359 23.1036 14.1358 23.3235 14.2013 23.5179C14.7281 25.0812 15.123 25.4392 15.44 25.5833C15.606 25.6588 15.7778 25.6919 15.9513 25.6918C16.7959 25.6918 17.6773 24.9076 18.0822 24.4104C18.3365 24.0982 18.3991 23.7856 18.4448 23.5573C18.4676 23.4437 18.4855 23.3541 18.5198 23.2955C18.5721 23.2058 18.6338 23.1363 18.712 23.0483C18.869 22.8714 19.0646 22.6513 19.1912 22.2524C19.2874 21.9493 19.3573 21.875 19.5888 21.6285C19.6291 21.5856 19.6721 21.5398 19.7182 21.4897C20.4986 20.6405 20.2976 19.9918 20.0847 19.3049C19.9056 18.727 20.2189 18.3574 20.9764 17.652C21.3048 17.3462 21.6443 17.03 21.9067 16.6501C22.0216 16.4838 22.371 15.978 22.1547 15.4766C21.9428 14.985 21.4042 14.9024 20.9714 14.8361C20.8005 14.8098 20.5422 14.7702 20.46 14.7165C20.0975 14.4795 19.8757 13.9848 19.6612 13.5064C19.6185 13.4112 19.5763 13.3172 19.5336 13.226C19.4574 13.0632 19.3813 12.8662 19.3008 12.6578C19.0876 12.1061 18.846 11.4807 18.4347 11.0447C18.0651 10.653 17.3682 10.4644 16.7534 10.2978C16.5466 10.2419 16.3514 10.189 16.2227 10.1415C16.1148 10.1017 15.9978 10.0945 15.8861 10.1207C15.5869 10.1909 15.4002 10.2681 15.2615 10.3792C15.2249 10.4086 15.1165 10.505 15.0529 10.6599C14.8384 10.557 14.5435 10.3604 14.3619 10.2394C14.3582 10.2369 14.3544 10.2343 14.3506 10.2318C14.4118 9.98701 14.3564 9.79054 14.2984 9.66785C13.9711 8.97551 12.8846 9.0297 12.6703 9.04793C12.5485 9.05812 12.3945 9.06357 12.2315 9.06931C11.9756 9.0784 11.6927 9.08859 11.4128 9.12L11.4272 9.0798C11.6397 8.48783 12.205 8.09009 12.8339 8.09009H13.167C13.4905 8.09009 13.7529 7.82771 13.7529 7.50422C13.7529 7.18072 13.4905 6.91834 13.167 6.91834H12.8339C11.9002 6.91834 11.0451 7.40976 10.5659 8.18326L9.69197 6.95906L10.5518 4.87494L14.343 3.5458C14.4469 3.50935 14.5386 3.44431 14.6073 3.35812L16.2926 1.24412C20.5989 1.65375 24.6524 4.06816 26.9752 8.09133C27.5939 9.16295 28.0516 10.2911 28.3558 11.445L28.1075 11.6665C27.7833 11.9558 27.5933 12.3707 27.586 12.8049C27.586 12.8096 27.5859 12.8143 27.5857 12.819L27.181 11.7062C27.1207 11.5402 27.0319 11.3879 26.9172 11.2536L26.1954 10.4085C25.9155 10.0809 25.5081 9.89314 25.0773 9.89314H24.1938C23.8802 9.89314 23.5935 10.0649 23.4456 10.3413C23.2976 10.6178 23.3138 10.9516 23.4878 11.2125L23.5772 11.3467C23.0062 11.8377 22.3459 12.2306 21.6428 12.4955L20.4316 10.1756V9.65806C20.4316 9.49799 20.3661 9.34476 20.2503 9.23431L19.1597 8.19316C19.0995 8.13574 19.0278 8.09179 18.9493 8.0642L17.9676 7.7192C17.6621 7.61174 17.3278 7.77246 17.2206 8.07767C17.1133 8.383 17.2738 8.7174 17.579 8.82468L18.4418 9.12791L19.2599 9.90879V10.3194C19.2599 10.4138 19.2827 10.5069 19.3264 10.5906L20.8427 13.4949C20.979 13.7562 21.2885 13.8756 21.5647 13.7735L22.0062 13.6107C23.0319 13.2324 23.9826 12.6239 24.7555 11.8511C24.953 11.6535 24.9837 11.3442 24.8287 11.1118L24.7976 11.065H25.0773C25.1648 11.065 25.2476 11.1031 25.3045 11.1697L26.0263 12.0148C26.0495 12.042 26.0675 12.0728 26.0798 12.1066L26.8764 14.297C26.9448 14.4853 27.1047 14.6254 27.3 14.6688C27.3422 14.6781 27.3847 14.6827 27.427 14.6827C27.5806 14.6827 27.7302 14.6221 27.8412 14.511L28.2204 14.1319C28.4605 13.8917 28.6258 13.5878 28.7048 13.251C29.2912 17.9505 27.4485 22.8119 23.5535 25.869C23.2989 26.0687 23.2545 26.437 23.4544 26.6916C23.6541 26.9461 24.0223 26.9906 24.277 26.7907C27.089 24.5836 29.0208 21.4269 29.7166 17.902C30.4189 14.343 29.8057 10.6508 27.9899 7.50556ZM2.77041 16.5681L5.1864 18.4051C5.25783 18.4594 5.34068 18.4965 5.42869 18.5137L6.88486 18.7982C7.07072 18.8345 7.22576 18.9445 7.32156 19.1078C7.41736 19.2711 7.43752 19.4601 7.37857 19.64C7.25728 20.0099 7.2567 20.4012 7.37699 20.7713L7.56261 21.3425C7.67353 21.6838 7.48591 22.0519 7.14461 22.1628L6.56236 22.352C6.35922 22.418 6.20816 22.5893 6.16802 22.7989L5.69939 25.2452C4.66914 24.3022 3.76457 23.1878 3.03033 21.916C2.13455 20.3646 1.57486 18.7099 1.32818 17.0367L2.77041 16.5681ZM6.18508 7.22302L5.49584 7.96148C5.46508 7.99447 5.43818 8.03092 5.41574 8.07006L3.85058 10.8026L2.45951 11.7973C2.20041 11.9826 2.13677 12.3408 2.31619 12.604L2.83644 13.3671C2.53656 13.4118 2.26744 13.4486 2.08849 13.4681C2.0541 13.4351 2.01812 13.4016 1.98092 13.367C1.84164 13.2377 1.6481 13.0649 1.35959 12.8124C1.83543 9.8673 3.25457 7.09277 5.48652 4.9749C5.9139 5.10949 6.26465 5.4283 6.43597 5.84414C6.62875 6.31183 6.53019 6.85312 6.18508 7.22302ZM10.9622 10.4248C11.2236 10.2777 11.8301 10.2562 12.273 10.2405C12.4504 10.2342 12.6181 10.2282 12.7679 10.2157C12.847 10.2091 12.9347 10.2103 13.0175 10.2168C12.9805 10.3117 12.9685 10.4159 12.9846 10.5192C13.0128 10.701 13.1249 10.8589 13.287 10.9457C13.397 11.0045 13.55 11.1066 13.7119 11.2145C14.1698 11.5198 14.6889 11.8658 15.1765 11.8969C15.62 11.9256 15.8667 11.6729 15.9724 11.5653C15.9808 11.5567 15.9888 11.5482 15.9972 11.5404C16.0568 11.4919 16.1126 11.4268 16.154 11.3484C16.2477 11.3752 16.3462 11.4018 16.4471 11.4292C16.794 11.5231 17.4398 11.6979 17.5824 11.8491C17.8359 12.1178 18.0334 12.6291 18.2077 13.0802C18.2958 13.3082 18.379 13.5234 18.4723 13.7229C18.5124 13.8085 18.5518 13.8967 18.5919 13.986C18.8622 14.589 19.1687 15.2726 19.8188 15.6975C20.1136 15.8902 20.4749 15.9456 20.7938 15.9945C20.8323 16.0004 20.8765 16.0072 20.9214 16.0146C20.7321 16.2786 20.4627 16.5295 20.178 16.7947C19.4526 17.4701 18.5499 18.3108 18.9657 19.652C19.1619 20.2853 19.171 20.3537 18.8555 20.697C18.8125 20.7438 18.7724 20.7864 18.7349 20.8264C18.4646 21.1141 18.2512 21.3413 18.0745 21.8979C18.0231 22.0596 17.9566 22.1345 17.8359 22.2704C17.7393 22.3792 17.619 22.5146 17.5081 22.7045C17.3752 22.9319 17.3312 23.151 17.296 23.3269C17.2613 23.5001 17.2416 23.587 17.1736 23.6704C17.0189 23.8604 16.7303 24.1362 16.4339 24.3245C16.1586 24.4993 15.9978 24.5232 15.943 24.52C15.8805 24.4529 15.654 24.1594 15.3118 23.1438C15.2274 22.8933 15.1104 22.6355 14.9972 22.3861C14.7476 21.8365 14.4896 21.2682 14.6151 20.8798C14.63 20.8339 14.6446 20.7892 14.659 20.7454C14.8595 20.1343 15.0488 19.5572 14.6982 18.7169C14.5914 18.4611 14.4214 18.2741 14.2716 18.1091C14.1746 18.0024 14.0648 17.8815 14.0478 17.8119C14.0272 17.7269 14.0278 17.6289 14.0286 17.5154C14.0306 17.2093 14.0336 16.7467 13.5737 16.316C12.9253 15.7091 12.1693 15.8961 11.6689 16.0198C11.5152 16.0578 11.37 16.0938 11.2413 16.1089C10.4182 16.2053 9.6833 15.8948 9.22451 15.2563C8.74457 14.5886 8.6749 13.6899 9.04275 12.9112C9.22082 12.5344 9.48982 12.2316 9.80131 11.8812C9.86933 11.8046 9.93801 11.7274 10.0067 11.6483C10.1209 11.5166 10.2467 11.3382 10.3796 11.1494C10.5384 10.9241 10.8339 10.5046 10.9622 10.4248Z" fill="white"/>
<path d="M24.0247 20.1726L23.7428 19.1101C23.6812 18.8781 23.4844 18.7071 23.2461 18.6786C23.0075 18.6507 22.7761 18.77 22.6615 18.981C22.5973 19.0994 22.5395 19.2248 22.4836 19.346C22.3896 19.5499 22.2923 19.7609 22.1911 19.8773C22.1343 19.9427 21.9882 20.0132 21.8472 20.0813C21.5098 20.244 21.0478 20.467 20.8713 21.0296C20.7618 21.3786 20.8027 21.6547 20.8325 21.8563C20.8584 22.031 20.8644 22.0916 20.8175 22.2015L20.8117 22.2152C20.6252 22.6528 20.2782 23.4676 20.7648 24.1602C21.1119 24.6545 21.477 24.7816 21.7606 24.7816C21.816 24.7818 21.8684 24.7769 21.9168 24.769C22.5145 24.6713 22.9638 24.0496 23.3309 22.8124L24.0201 20.4897C24.0507 20.3864 24.0524 20.2767 24.0247 20.1726ZM22.2076 22.479C22.0205 23.1099 21.8549 23.4044 21.7593 23.5349C21.7483 23.5208 21.7363 23.5049 21.7236 23.4867C21.6116 23.3272 21.7789 22.9344 21.8897 22.6744L21.8956 22.6607C22.0742 22.2415 22.0264 21.9196 21.9917 21.6845C21.9694 21.534 21.9614 21.4693 21.9894 21.3804C22.0123 21.3073 22.1496 21.2364 22.3564 21.1366C22.4481 21.0923 22.5491 21.0436 22.651 20.9847L22.2076 22.479Z" fill="white"/>
<path d="M15.8224 6.96457L15.7829 6.95074C15.4778 6.84387 15.1432 7.00436 15.0361 7.30969C14.929 7.61508 15.0897 7.94936 15.3951 8.05647L15.4346 8.0703C15.4987 8.0928 15.5641 8.10346 15.6285 8.10346C15.8704 8.10346 16.0968 7.95246 16.1814 7.71135C16.2885 7.40596 16.1278 7.07162 15.8224 6.96457Z" fill="white"/>
</g>
<defs>
<clipPath id="clip0">
<rect width="30" height="30" fill="white"/>
</clipPath>
</defs>
</svg>
