<svg width="30" height="30" viewBox="0 0 30 30" fill="none" xmlns="http://www.w3.org/2000/svg">
<g clip-path="url(#clip0)">
<path d="M1.99805 15.3087C1.99043 15.2712 1.9793 15.2343 1.96465 15.1991C1.95 15.164 1.93184 15.13 1.91074 15.0983C1.88965 15.0661 1.86504 15.0362 1.83809 15.0093C1.81113 14.9817 1.78066 14.9577 1.74902 14.936C1.7168 14.9149 1.68281 14.8968 1.64766 14.8821C1.6125 14.8675 1.57559 14.8563 1.53809 14.8487C1.4625 14.8335 1.38457 14.8335 1.30898 14.8487C1.27148 14.8563 1.23457 14.8675 1.19941 14.8821C1.16426 14.8968 1.13027 14.9149 1.09805 14.936C1.06641 14.9577 1.03652 14.9817 1.00898 15.0093C0.982031 15.0362 0.958008 15.0661 0.936328 15.0983C0.915234 15.13 0.89707 15.164 0.882422 15.1991C0.867773 15.2349 0.856641 15.2712 0.849023 15.3087C0.841406 15.3468 0.837891 15.3854 0.837891 15.4235C0.837891 15.4616 0.841348 15.5003 0.849023 15.5378C0.856641 15.5753 0.867773 15.6122 0.882422 15.6474C0.89707 15.6825 0.915234 15.7171 0.936328 15.7487C0.958008 15.781 0.982031 15.8108 1.00898 15.8378C1.03652 15.8647 1.06641 15.8894 1.09805 15.9104C1.13021 15.9315 1.1642 15.9497 1.19936 15.9644C1.23451 15.979 1.27143 15.9901 1.30893 15.9978C1.34701 16.0054 1.3851 16.0095 1.42383 16.0095C1.46191 16.0095 1.5 16.0054 1.53809 15.9978C1.57559 15.9901 1.6125 15.979 1.64766 15.9644C1.68281 15.9497 1.7168 15.9315 1.74902 15.9104C1.78066 15.8894 1.81113 15.8647 1.83809 15.8378C1.86504 15.8108 1.88965 15.781 1.91074 15.7487C1.93184 15.7171 1.95 15.6825 1.96465 15.6474C1.9793 15.6122 1.99043 15.5753 1.99805 15.5378C2.00566 15.5003 2.00977 15.4616 2.00977 15.4235C2.00977 15.3854 2.00566 15.3468 1.99805 15.3087Z" fill="white"/>
<path d="M20.857 7.00747C20.8494 6.97055 20.8383 6.93364 20.8236 6.8979C20.809 6.86274 20.7908 6.82876 20.7697 6.79712C20.748 6.76489 20.724 6.73501 20.6965 6.70805C20.6695 6.6811 20.6396 6.65649 20.6074 6.6354C20.5758 6.6143 20.5418 6.59614 20.5066 6.58149C20.4715 6.56684 20.4346 6.55512 20.3971 6.54809C20.3215 6.53286 20.2436 6.53286 20.168 6.54809C20.1305 6.55512 20.0936 6.56684 20.0584 6.58149C20.0227 6.59614 19.9887 6.6143 19.957 6.6354C19.9248 6.65649 19.8949 6.6811 19.868 6.70805C19.841 6.73501 19.8164 6.76489 19.7953 6.79712C19.7742 6.82876 19.7561 6.86274 19.7414 6.8979C19.7268 6.93364 19.7156 6.97055 19.708 7.00747C19.7004 7.04555 19.6963 7.08423 19.6963 7.12237C19.6963 7.16046 19.7004 7.19913 19.708 7.23663C19.7156 7.27413 19.7268 7.31104 19.7414 7.3462C19.7561 7.38194 19.7742 7.41593 19.7953 7.44757C19.8164 7.47979 19.841 7.50968 19.868 7.53663C19.8949 7.56358 19.9248 7.58819 19.957 7.60928C19.9887 7.63038 20.0227 7.64854 20.0584 7.66319C20.0936 7.67784 20.1305 7.68897 20.168 7.69659C20.2055 7.70421 20.2441 7.70831 20.2822 7.70831C20.3209 7.70831 20.359 7.70421 20.3971 7.69659C20.4346 7.68897 20.4715 7.67784 20.5066 7.66319C20.5418 7.64854 20.5758 7.63038 20.6074 7.60928C20.6396 7.58819 20.6695 7.56358 20.6965 7.53663C20.724 7.50968 20.748 7.47979 20.7697 7.44757C20.7908 7.41593 20.809 7.38194 20.8236 7.3462C20.8383 7.31104 20.8494 7.27413 20.857 7.23663C20.8646 7.19913 20.8682 7.16046 20.8682 7.12237C20.8682 7.08428 20.8646 7.04561 20.857 7.00747Z" fill="white"/>
<path d="M14.9996 9.02173C11.7033 9.02173 9.02148 11.7036 9.02148 14.9999C9.02148 18.2962 11.7033 20.978 14.9996 20.978C18.2959 20.978 20.9778 18.2962 20.9778 14.9999C20.9778 11.7035 18.296 9.02173 14.9996 9.02173ZM14.9996 19.8061C12.3494 19.8061 10.1934 17.6501 10.1934 14.9999C10.1934 12.3497 12.3494 10.1937 14.9996 10.1937C17.6498 10.1937 19.8058 12.3497 19.8058 14.9999C19.8058 17.6501 17.6498 19.8061 14.9996 19.8061Z" fill="white"/>
<path d="M15.0005 11.3834C13.0062 11.3834 11.3838 13.0059 11.3838 15.0001C11.3838 16.9944 13.0062 18.6169 15.0005 18.6169C16.9948 18.6169 18.6173 16.9944 18.6173 15.0001C18.6172 13.0059 16.9948 11.3834 15.0005 11.3834ZM15.0005 17.4449C13.6525 17.4449 12.5557 16.3482 12.5557 15C12.5557 13.652 13.6525 12.5553 15.0005 12.5553C16.3486 12.5553 17.4454 13.652 17.4454 15C17.4454 16.3482 16.3486 17.4449 15.0005 17.4449Z" fill="white"/>
<path d="M22.3936 8.16432C22.1738 7.92678 21.8031 7.91237 21.5656 8.13215C21.328 8.35194 21.3136 8.72266 21.5334 8.96014C23.0607 10.6109 23.9018 12.7558 23.9018 14.9999C23.9018 18.9863 21.204 22.5017 17.4092 23.5703C17.0892 22.5442 16.1304 21.7972 15.0003 21.7972C13.8702 21.7972 12.9113 22.5442 12.5913 23.5703C8.79606 22.5018 6.09863 18.9872 6.09863 14.9999C6.09863 11.019 8.7984 7.49817 12.5913 6.42948C12.9112 7.45563 13.8701 8.20258 15.0002 8.20258C16.3912 8.20258 17.5228 7.07096 17.5228 5.68001C17.5228 4.28905 16.3912 3.15749 15.0002 3.15749C13.7606 3.15749 12.7271 4.05626 12.5168 5.23627C10.4421 5.76532 8.56402 6.96262 7.1975 8.63489C5.73318 10.4269 4.92676 12.6873 4.92676 14.9998C4.92676 17.3211 5.73863 19.5882 7.21291 21.3835C8.57873 23.0468 10.4498 24.2362 12.5167 24.7633C12.7269 25.9435 13.7606 26.8422 15.0001 26.8422C16.2397 26.8422 17.2733 25.9434 17.4836 24.7633C19.5516 24.2359 21.4238 23.0454 22.7897 21.3809C24.2625 19.5861 25.0736 17.3199 25.0736 14.9999C25.0736 12.4599 24.1218 10.0323 22.3936 8.16432ZM15.0002 4.32942C15.7449 4.32942 16.3508 4.93528 16.3508 5.68006C16.3508 6.42485 15.7449 7.03071 15.0002 7.03071C14.2555 7.03071 13.6496 6.42485 13.6496 5.68006C13.6496 4.93534 14.2555 4.32942 15.0002 4.32942ZM15.0002 25.6704C14.2555 25.6704 13.6496 25.0645 13.6496 24.3197C13.6496 23.575 14.2554 22.9691 15.0002 22.9691C15.7449 22.9691 16.3508 23.5749 16.3508 24.3197C16.3508 25.0645 15.745 25.6704 15.0002 25.6704Z" fill="white"/>
<path d="M28.7999 18.2187C29.0449 17.1679 29.1688 16.0873 29.1688 14.9999C29.1688 7.18723 22.8127 0.8311 15 0.8311C10.2323 0.8311 5.81789 3.2096 3.1783 7.19684C1.9875 6.8754 0.706525 7.47065 0.205256 8.63608C-0.344354 9.91384 0.248029 11.4005 1.52578 11.9501C1.84969 12.0894 2.1869 12.1553 2.51906 12.1553C3.49693 12.1553 4.42951 11.5834 4.83985 10.6296C5.27731 9.61249 4.99119 8.46311 4.2119 7.75923C6.6402 4.15178 10.6609 2.00298 15.0001 2.00298C22.1665 2.00298 27.997 7.83335 27.997 14.9999C27.997 15.9632 27.891 16.9203 27.6816 17.8525C26.6327 17.7683 25.5986 18.3513 25.1603 19.3703C24.7228 20.3874 25.0089 21.5369 25.7884 22.2408C23.3608 25.8549 19.3654 27.9967 15 27.9967C8.8019 27.9967 3.43793 23.585 2.24561 17.5066C2.18332 17.1891 1.87565 16.9821 1.55783 17.0445C1.24031 17.1067 1.03336 17.4147 1.09565 17.7322C2.39555 24.359 8.24309 29.1687 14.9999 29.1687C17.4572 29.1687 19.8799 28.5268 22.0061 27.3124C23.9368 26.2096 25.5938 24.6564 26.8216 22.8031C27.0378 22.8614 27.2569 22.8895 27.4739 22.8895C28.4518 22.8895 29.3844 22.3175 29.7946 21.3638C30.2953 20.2002 29.8487 18.8634 28.7999 18.2187ZM3.7633 10.1666C3.46893 10.8507 2.67287 11.1677 1.98885 10.8735C1.30477 10.5793 0.987541 9.78323 1.28186 9.09909C1.50152 8.58839 2.0008 8.28218 2.52445 8.28218C2.70223 8.28218 2.88287 8.31751 3.05625 8.3921C3.74039 8.68641 4.05756 9.48241 3.7633 10.1666ZM28.7183 20.9008C28.4239 21.5848 27.628 21.9021 26.9439 21.6077H26.9439C26.2598 21.3135 25.9426 20.5174 26.2369 19.8333C26.5312 19.1492 27.3272 18.8319 28.0113 19.1263C28.6953 19.4206 29.0125 20.2166 28.7183 20.9008Z" fill="white"/>
</g>
<defs>
<clipPath id="clip0">
<rect width="30" height="30" fill="white"/>
</clipPath>
</defs>
</svg>
