<svg width="60" height="60" viewBox="0 0 60 60" fill="none" xmlns="http://www.w3.org/2000/svg">
<path d="M36.0616 36.4138H57.2596V53.5781H36.0616V36.4138Z" fill="#F9EEBE"/>
<path d="M53.7404 33.0756H46.8678L41.6115 22.8103H36.0616V53.578H49.6515H49.6509C47.8986 50.5177 47.8582 47.6782 49.7271 45.8093C53.0752 42.4612 59.0846 45.3417 59.9994 45.8099V39.334C60 35.8775 57.1981 33.0756 53.7404 33.0756Z" fill="#EDC722"/>
<path d="M57.3434 42.8047C57.3434 42.8047 56.4708 42.3042 54.8187 42.3042H43.6773C39.8726 42.3042 37.7312 39.4665 37.7312 38.4023C37.7312 38.4023 38.9824 38.8201 40.2342 38.8201C40.2342 38.8201 37.6679 37.3597 37.6679 31.5378C37.6679 31.5378 40.3596 35.8776 45.3669 35.8776C50.3747 35.8776 50.2282 36.003 53.3999 36.003C56.571 36.003 57.3639 38.4157 57.3639 39.5984C57.3639 40.2454 57.3434 42.8047 57.3434 42.8047Z" fill="#040700"/>
<path d="M50.7638 39.5155V39.0847H54.8533V40.0171H52.7951L50.7638 39.5155Z" fill="white"/>
<path fill-rule="evenodd" clip-rule="evenodd" d="M0 40.3874C1.38191 38.692 2.85583 37.0797 4.55538 35.7013C5.66712 34.7988 6.83688 33.9572 8.38582 33.9801C8.63255 33.9836 8.78726 33.622 9.09377 33.7228C9.29771 33.7597 9.50811 33.8746 9.6933 33.6754C10.0602 33.4972 10.4505 33.5523 10.8355 33.5658C11.0512 34.1084 10.5155 34.2057 10.2911 34.4876C9.53624 35.3685 8.73862 36.21 8.10158 37.1917C7.0842 38.7611 6.55675 40.4777 6.41961 42.329C6.41481 42.4933 6.39341 42.6566 6.35573 42.8166C6.14827 43.3605 6.44071 43.9828 6.09142 44.5027C6.06212 44.5953 5.83766 44.42 5.89392 44.6609C5.95839 44.9393 5.95136 45.2311 6.01113 45.5136C6.03692 45.8055 5.79019 46.0094 5.76441 46.2849C5.4831 47.1458 5.35651 47.1756 4.69017 46.6154C4.48095 46.4402 4.31744 46.2573 4.23364 46.0018C4.17093 42.9356 5.19183 40.1659 6.55382 37.4882C6.71264 37.1758 6.96933 36.9385 7.16331 36.6548C7.2225 36.5693 7.15101 36.6818 7.21078 36.5939C7.25532 36.5283 7.29752 36.4614 7.33854 36.394C7.28052 36.4245 7.27642 36.4931 7.23305 36.5388C5.82829 38.2911 4.50557 40.0897 3.55147 42.1379C3.36687 42.5347 3.33932 43.0118 2.98886 43.33C2.04767 42.3431 1.03731 41.4312 0 40.5474V40.3874H0ZM25.1786 33.557C26.7855 33.6039 28.3778 33.8365 29.8054 34.5656C30.8093 35.0778 31.6644 35.8625 32.4573 36.6994C33.002 37.2683 33.5694 37.8152 34.158 38.3386C34.7828 38.8982 35.21 39.6707 35.8623 40.2286V40.7068C34.8261 41.3579 34.1112 42.3689 33.1635 43.1196C32.9004 43.0452 32.7984 42.8172 32.7023 42.6033C31.6984 40.3827 30.2766 38.4323 28.7828 36.5294C28.7288 36.4486 28.678 36.3657 28.6304 36.2809C28.6913 36.4163 28.7664 36.5423 28.8607 36.6595C30.6863 39.5036 31.7793 42.5734 31.7634 45.9877C31.713 46.2315 31.5483 46.3974 31.3837 46.5703C30.7689 47.2149 30.531 47.1622 30.245 46.3048C30.0926 46.1741 30.0399 46.0024 30.0387 45.8101C29.9777 45.4907 30.3147 45.1362 29.9496 44.842C29.7515 44.621 29.7802 44.3649 29.8224 44.1059C29.9221 43.725 30 43.3435 29.8271 42.9625C29.7857 42.904 29.7507 42.8411 29.7228 42.775C29.6887 42.6733 29.6801 42.5649 29.6976 42.4591C29.6484 42.1942 30.0363 41.8947 29.6325 41.6562C29.4321 41.4464 29.4491 41.1674 29.4046 40.9119C29.0008 38.6169 27.8287 36.7439 26.2282 35.1047C25.9486 34.8047 25.6445 34.5292 25.3755 34.2198C25.2161 34.0369 24.984 33.8547 25.1786 33.557Z" fill="#56332B"/>
<path fill-rule="evenodd" clip-rule="evenodd" d="M12.4425 54.2128C12.0943 54.2023 11.7826 54.0675 11.4702 53.9321C10.6755 53.4158 10.3309 52.6762 10.3813 51.7403C10.4358 51.4595 10.6503 51.2228 10.6023 50.8911C10.5044 51.0012 10.7013 51.3101 10.3755 51.2357C10.0086 50.7733 10.1205 50.264 10.2278 49.7559C10.614 49.2806 10.883 49.6932 11.1438 49.9012C11.9947 50.581 12.8369 51.2667 13.9135 51.5668C14.4667 51.7467 14.5101 51.3095 14.639 50.9702C14.7228 50.7504 14.799 50.4263 15.0568 50.4597C15.3669 50.4996 15.2737 50.8354 15.242 51.0528C15.1594 51.6219 15.4489 51.8745 15.9541 52.004C17.3934 52.3714 18.8205 52.4388 20.2504 51.9378C20.7158 51.7754 21.1582 51.6459 21.2063 51.0405C21.2192 50.8782 21.2942 50.6467 21.5696 50.7967C22.0531 51.6828 22.0467 51.6688 22.9943 51.2292C23.8693 50.8231 24.5901 50.223 25.2711 49.556C25.5026 49.3292 25.7623 49.0022 26.1115 49.4324C26.227 50.0231 26.3155 50.6115 26.0324 51.1812C25.8537 51.3646 25.815 51.1196 25.7095 51.0745C25.7552 51.2784 25.9146 51.4302 25.965 51.6342C25.9832 52.4089 25.9328 53.1567 25.1821 53.6291C24.6992 54.0809 24.1254 54.2738 23.4684 54.2597C22.8402 54.2474 22.3145 54.6102 21.7326 54.769C21.3973 54.8592 21.0703 54.9383 20.7228 54.8985C19.6239 54.9354 18.5269 54.7461 17.4268 54.878C16.7201 54.9618 16.0103 54.8106 15.303 54.885C14.5394 54.9225 13.9094 54.5082 13.226 54.2738C12.9781 54.0856 12.7079 54.1788 12.4425 54.2128Z" fill="#442823"/>
<path fill-rule="evenodd" clip-rule="evenodd" d="M6.2397 42.3078C6.3446 39.6946 7.4036 37.4822 9.09319 35.5377C9.45185 35.1251 9.82985 34.7301 10.1991 34.3269C10.4792 34.6686 10.2184 34.9182 10.0443 35.1714C9.38504 36.1325 8.67123 37.0561 8.09514 38.0735C7.89998 38.4181 7.72124 38.7627 7.64505 39.1525C8.26158 38.7844 8.34773 37.9809 8.97012 37.6317C9.14417 37.6627 9.2145 37.8075 9.30534 37.93C9.57668 38.1585 9.86853 38.0196 10.1399 37.954C10.9486 37.7594 11.7679 37.7541 12.5884 37.7899C13.6175 37.8344 13.917 38.2265 13.7048 39.2146C13.6224 39.6031 13.5193 39.9869 13.396 40.3644C13.2225 40.7377 13.3139 41.2124 12.9559 41.5137C12.5245 41.5459 12.5708 41.1491 12.4472 40.9229C11.9689 40.0456 11.1028 39.5562 10.1522 39.6535C9.19926 39.752 8.54523 40.3416 8.27506 41.3455C7.93808 42.6002 8.80368 43.8579 10.0994 43.9985C10.4106 44.0319 10.7441 43.961 11.0154 44.1884C10.7341 45.3248 10.1698 45.657 9.14124 45.2703C8.18187 44.9087 7.47041 44.2769 7.07131 43.3029C7.05314 44.8583 6.50166 46.392 6.92714 47.9602C6.91586 48.0219 6.88702 48.079 6.84409 48.1246C6.80115 48.1702 6.74594 48.2025 6.6851 48.2175C6.24204 47.6625 6.16468 46.9827 6.06095 46.3199C5.9877 45.8469 5.86404 46.2695 5.76382 46.2853L5.874 45.4795C5.81071 45.1718 5.73569 44.8624 5.9244 44.5682C6.21977 43.9944 5.90565 43.3275 6.20512 42.7549C6.31764 42.8569 6.28482 42.9747 6.28482 42.9436C6.28307 42.8317 6.35281 42.5697 6.2397 42.3078ZM29.9906 44.0442C29.9801 44.3302 29.9279 44.6221 30.0973 44.887C30.286 45.18 30.2016 45.49 30.1512 45.7983C30.1823 45.9677 30.2127 46.1359 30.245 46.3052C29.731 46.8444 29.8342 47.6754 29.3348 48.2222C29.2282 48.1372 29.186 48.0229 29.1713 47.8934C29.162 47.5981 29.2756 47.3279 29.3442 47.0501C29.4825 46.5842 29.4702 46.1183 29.3454 45.6524C29.2124 44.8407 29.0846 44.029 29.074 43.0978C28.6849 44.4726 27.7279 45.0915 26.5435 45.4097C25.8373 45.5996 25.2694 45.0593 25.1651 44.1849C25.3333 44.0337 25.546 44.005 25.7535 44.0155C26.9531 44.0718 27.6605 43.4511 28.0449 42.3752C28.0801 42.2766 28.143 42.1903 28.226 42.1267C28.3327 42.0956 28.4183 42.1021 28.4159 42.248C28.4616 42.0558 28.3333 41.8624 28.4276 41.6608C28.4435 41.625 28.3175 41.7551 28.2436 41.6848C28.0467 41.5506 28.042 41.3255 27.9699 41.1316C27.5761 40.055 26.4942 39.4519 25.3854 39.6852C24.3036 39.9132 23.6056 40.8467 23.649 42.0001C23.6595 42.2579 23.7726 42.5205 23.6273 42.7743C22.9258 42.8874 22.6199 42.3218 22.2178 41.935C22.0836 41.8055 22.1528 41.6315 22.3134 41.5365C22.8724 41.2066 22.764 40.6932 22.6826 40.1939C22.6275 39.854 22.5191 39.5252 22.4423 39.1894C22.2266 38.2411 22.5079 37.8532 23.5001 37.8051C24.3458 37.7641 25.1967 37.7442 26.0266 37.9698C26.3583 38.0601 26.6185 38.1298 26.6712 37.6129C26.7123 37.2074 27.0012 37.3445 27.1495 37.5719C27.572 38.2165 28.0883 38.7832 28.546 39.282C28.1639 38.0267 27.2948 36.9395 26.5417 35.785C26.3817 35.5377 26.0623 35.3156 26.3102 34.9481C28.0877 36.6653 29.261 38.7059 29.6437 41.1708C29.6712 41.3502 29.7328 41.523 29.7785 41.6989C29.9684 41.8524 29.8553 42.0593 29.8746 42.2421C29.5657 42.6055 29.8336 42.9454 29.918 43.2935C29.9602 43.3966 29.99 43.5039 30.0299 43.607C30.041 43.7559 30.0651 43.9042 29.9906 44.0442Z" fill="#CBAB8C"/>
<path fill-rule="evenodd" clip-rule="evenodd" d="M6.68567 48.2176L6.85797 48.0365C7.31274 47.9609 7.4868 48.3641 7.76869 48.5768C8.19241 48.8962 8.59444 49.2432 9.07442 49.4823C9.47703 49.6827 9.67981 49.5772 9.67805 49.1195C9.66867 47.0818 10.6497 45.53 12.0832 44.1979C12.1418 44.1439 12.1887 44.0719 12.2549 44.0332C13.9187 43.0509 15.388 41.7657 17.1098 40.8831C18.0082 40.4237 18.9535 40.6095 19.7564 41.1715C21.0381 42.0676 22.3127 42.9683 23.6243 43.8234C24.7314 44.5454 25.4124 45.6935 26.0312 46.8474C26.1883 47.1381 26.2112 47.4551 26.0928 47.7722C26.0748 47.807 26.0497 47.8376 26.0191 47.862C25.9885 47.8865 25.9531 47.9042 25.9152 47.914C25.4985 47.6819 25.5331 47.1873 25.2934 46.8427C24.1576 45.2012 22.7886 43.8462 20.915 43.0691C20.7188 42.9879 20.5386 42.8724 20.3829 42.728C18.9019 41.3748 17.5815 41.3549 16.1264 42.6765C15.8808 42.8997 15.5925 43.0105 15.2971 43.1283C13.4276 43.8755 12.0299 45.166 11.0178 46.8861C10.6878 47.4458 10.5636 48.0687 10.5571 48.7163C10.5542 49.031 10.6011 49.3586 10.386 49.6352C10.3573 50.1826 10.3057 50.7318 10.5009 51.2639C10.6509 51.3969 10.6069 51.5464 10.5372 51.6976C10.5436 52.5696 10.8683 53.308 11.4702 53.9322C9.6464 53.4352 8.35474 52.4131 8.01366 50.4446C7.85601 49.535 7.08125 48.9888 6.68567 48.2176Z" fill="#CBAB8C"/>
<path fill-rule="evenodd" clip-rule="evenodd" d="M31.7634 45.9878C31.3046 45.4633 31.6011 44.8204 31.5114 44.239C31.0854 41.484 30.0522 38.9663 28.689 36.5629C28.6275 36.3947 28.7048 36.3666 28.8478 36.4041C30.6482 38.4107 32.0471 40.6741 33.1629 43.1196C32.683 44.0696 32.3372 45.0835 31.7634 45.9878ZM7.3321 36.5623C6.11131 38.5537 5.23333 40.7357 4.73472 43.0177C4.57649 43.7397 4.42939 44.4623 4.45635 45.2119C4.46631 45.4879 4.55363 45.8096 4.23306 46.003C3.71851 45.1585 3.36688 44.239 2.9877 43.3312C3.22271 41.8884 4.07248 40.7297 4.78922 39.5172C5.45674 38.3885 6.30065 37.3822 7.17211 36.4035C7.31569 36.366 7.39423 36.3947 7.3321 36.5623Z" fill="#442823"/>
<path fill-rule="evenodd" clip-rule="evenodd" d="M29.3243 47.8718L29.3348 48.2211C28.7101 49.2215 28.1229 50.2107 27.8193 51.3951C27.5034 52.6288 26.1461 53.6122 25.1821 53.6297C25.6099 52.9991 25.8355 52.3076 25.8115 51.5416C25.7382 51.4408 25.7201 51.3447 25.8402 51.2644C26.0647 50.6256 25.9603 49.9687 25.9557 49.3164C25.6732 48.8423 25.6579 48.3699 25.9568 47.8958L26.0154 47.856C26.5499 48.1455 26.3178 48.704 26.4309 49.1312C26.5546 49.6018 26.6941 49.7161 27.1119 49.4377C27.62 49.1001 28.1112 48.7485 28.5437 48.3137C28.7541 48.1009 28.9375 47.7927 29.3243 47.8718Z" fill="#CBAB8C"/>
<path fill-rule="evenodd" clip-rule="evenodd" d="M15.303 54.8851C15.5392 54.6319 15.8468 54.7397 16.1235 54.7374C17.4116 54.7268 18.6997 54.728 19.9885 54.7362C20.2399 54.7374 20.5224 54.6471 20.7228 54.8986L20.4831 54.9109C19.8443 55.0035 19.2061 55.0035 18.5679 54.9109C18.3089 54.9888 18.0327 54.9888 17.7738 54.9109C17.0359 55.0046 16.2981 55.0046 15.5608 54.9109C15.4747 54.9032 15.3885 54.8939 15.303 54.8851Z" fill="#3D1E17"/>
<path fill-rule="evenodd" clip-rule="evenodd" d="M15.5603 54.9116H17.7732C17.036 55.0593 16.2981 55.098 15.5603 54.9116ZM18.5679 54.9116H20.4831C19.8443 55.0868 19.2061 55.0417 18.5679 54.9116Z" fill="#442823"/>
<path fill-rule="evenodd" clip-rule="evenodd" d="M12.4425 54.2129C12.7185 54.0459 12.9846 53.999 13.2254 54.2739L12.4425 54.2129Z" fill="#340900"/>
<path fill-rule="evenodd" clip-rule="evenodd" d="M29.3243 47.8718C28.5882 48.4954 27.9383 49.2215 27.0856 49.7091C26.581 49.9974 26.2844 50.0619 26.2727 49.3059C26.2657 48.8218 26.1068 48.3401 26.0154 47.8554C25.7318 45.9244 24.5093 44.6198 22.9779 43.6271C22.0227 43.0076 21.0762 42.3911 20.1813 41.6878C18.7038 40.5292 17.2997 40.5767 15.8715 41.8103C15.0885 42.4866 14.2024 43.0053 13.3256 43.5503C11.2897 44.815 9.94061 46.562 9.88376 49.0814C9.8609 50.0889 9.84743 50.0953 8.91853 49.6353C8.12209 49.2403 7.53662 48.581 6.85856 48.0359C6.20218 46.8709 6.66399 45.656 6.77358 44.4798C6.82516 43.9271 6.68919 43.3112 7.06954 42.6964C7.40828 43.9031 8.12854 44.665 9.23559 45.0981C9.82926 45.3301 10.2729 45.3442 10.5946 44.7101C10.6867 44.529 10.8642 44.3919 11.0025 44.2336C11.3641 43.4864 12.0176 43.0182 12.6394 42.5188C12.7812 42.4087 12.9148 42.2885 13.0602 42.183C13.7499 41.9011 13.008 41.5243 13.124 41.2037C13.2073 40.9371 13.0725 40.6458 13.2237 40.3885C13.3286 39.9285 13.4388 39.4708 13.5372 39.009C13.6919 38.287 13.5079 38.0291 12.7683 37.9998C11.7421 37.9594 10.7206 37.9799 9.71732 38.2741C9.51631 38.3327 9.04453 38.6515 9.09025 37.998C9.1594 37.8298 9.30064 37.6241 8.9285 37.6822C8.60089 38.4698 8.07227 39.1004 7.33678 39.7714C7.51025 38.2266 8.43387 37.2262 9.12893 36.1127C9.49638 35.5237 10.0994 35.0748 10.1985 34.3252C10.3919 34.0557 10.8478 34.0058 10.8349 33.5645C11.1162 33.7029 11.3829 33.6114 11.6712 33.5546C14.5425 32.9862 17.4763 32.8001 20.3964 33.0014C22.0051 33.1115 23.5821 33.3975 25.178 33.5552C25.3544 34.1822 26.009 34.4208 26.309 34.947C26.697 35.849 27.3768 36.5657 27.8691 37.4014C28.3086 38.1469 28.7505 38.8865 28.8261 39.9179C28.1235 39.0447 27.3241 38.4241 26.8974 37.4565C26.6343 37.78 26.9824 38.0303 26.8757 38.3696C25.9246 38.1457 24.9594 37.9564 23.959 37.9822C22.4616 38.0203 22.3883 38.0918 22.7353 39.503C22.8361 39.9097 22.9785 40.3106 22.958 40.7466C22.9351 41.2301 23.0436 41.774 22.0209 41.638C22.7089 42.1063 23.0523 42.5481 23.5628 42.7814C24.3241 43.0205 24.8322 43.5392 25.178 44.2383C25.447 44.6884 25.7124 45.3383 26.2575 45.2639C27.1412 45.1414 27.981 44.7376 28.502 43.9271C28.7265 43.5755 28.8806 43.1787 29.1121 42.7152C29.3694 43.7214 29.404 44.6884 29.4919 45.6489C29.605 46.1187 29.605 46.6086 29.4919 47.0783C29.4368 47.3432 29.3805 47.6075 29.3243 47.8718Z" fill="#EECBA2"/>
<path fill-rule="evenodd" clip-rule="evenodd" d="M9.69389 33.6753C9.51573 33.9707 9.30827 33.8845 9.09436 33.7228L9.69389 33.6753Z" fill="#4A2014"/>
<path fill-rule="evenodd" clip-rule="evenodd" d="M7.3321 36.5621L7.1727 36.4033C7.29987 36.1724 7.46397 35.9784 7.80036 35.8208C7.69253 36.1613 7.52726 36.3699 7.3321 36.5621Z" fill="#492B25"/>
<path fill-rule="evenodd" clip-rule="evenodd" d="M5.92557 44.5684C5.90848 44.8721 5.89168 45.1759 5.87517 45.4797C5.64368 45.1796 5.72749 44.8526 5.7943 44.5273C5.79547 44.5203 5.84235 44.515 5.86345 44.5215C5.88689 44.5297 5.90506 44.5525 5.92557 44.5684Z" fill="#4E2924"/>
<path fill-rule="evenodd" clip-rule="evenodd" d="M6.23971 42.3079C6.45538 42.5563 6.38564 42.8312 6.32703 43.1172C6.17056 43.0211 6.23619 42.8734 6.20572 42.7556L6.23971 42.3079Z" fill="#CFAF8F"/>
<path fill-rule="evenodd" clip-rule="evenodd" d="M28.8484 36.4038L28.6896 36.5627L28.2237 35.9573C28.5495 35.9702 28.7165 36.1636 28.8484 36.4038Z" fill="#492B25"/>
<path fill-rule="evenodd" clip-rule="evenodd" d="M29.9906 44.0444C29.9736 43.8908 29.956 43.7379 29.9402 43.5843C29.8394 43.3165 29.7456 43.0475 29.9496 42.7832C30.2356 43.194 30.1828 43.616 29.9906 44.0444Z" fill="#4E2924"/>
<path fill-rule="evenodd" clip-rule="evenodd" d="M30.1506 45.7978C30.1324 45.493 30.1137 45.1901 30.0967 44.8865C30.4413 45.1707 30.303 45.4843 30.1506 45.7978Z" fill="#4E2923"/>
<path fill-rule="evenodd" clip-rule="evenodd" d="M29.8037 43.4154C29.544 43.0514 29.5862 42.6781 29.7714 42.3013C29.833 42.3142 29.8629 42.3399 29.8605 42.3798C29.8582 42.4267 29.8488 42.4495 29.8341 42.4495C29.8306 42.5527 29.8283 42.6547 29.8259 42.7572C29.9033 42.9793 29.9285 43.2003 29.8037 43.4154Z" fill="#CFAF8F"/>
<path fill-rule="evenodd" clip-rule="evenodd" d="M29.8347 42.4498L29.772 42.3015C29.7744 42.1005 29.7767 41.9 29.7779 41.7002C30.177 41.9211 29.9414 42.1907 29.8347 42.4498Z" fill="#4E2924"/>
<path fill-rule="evenodd" clip-rule="evenodd" d="M29.8037 43.4155L29.8265 42.7573C29.8662 42.7706 29.9073 42.779 29.949 42.7825L29.9396 43.5837C29.8945 43.528 29.85 43.4717 29.8037 43.4155Z" fill="#9B7C66"/>
<path fill-rule="evenodd" clip-rule="evenodd" d="M25.9568 47.8959L25.9557 49.3165C25.4358 49.3633 25.2618 49.8603 24.9494 50.1486C24.3153 50.7335 23.6021 51.1584 22.8385 51.5224C21.8146 52.0111 21.8129 52.0076 21.5187 50.9076C21.698 49.4677 21.1676 48.3483 20.0201 47.4792C19.3262 46.9547 18.5884 46.4354 18.715 45.3846C18.7595 45.016 18.4489 44.8296 18.2602 44.5835C18.1729 44.2952 18.0434 44.0068 18.2579 43.7179C18.3417 43.6552 18.453 43.6734 18.5099 43.6423C18.2643 43.5175 17.9912 43.6054 17.7175 43.6505C17.6103 43.6622 17.5288 43.5831 17.4286 43.5679C17.5388 43.6294 17.656 43.6616 17.7838 43.6581C17.9027 43.6593 18.0182 43.6652 18.0862 43.7865C18.1084 43.9523 18.1371 44.1164 18.1623 44.2811C18.194 44.6714 18.2497 45.0594 18.2292 45.452C18.1958 45.9215 18.3094 46.4102 18.0469 46.8486C18.0004 46.9144 17.9436 46.9724 17.8787 47.0203C17.5968 47.1979 17.2757 47.3039 17.0002 47.4956C16.7382 47.6556 16.4733 47.8138 16.3884 48.1432C16.3589 48.2102 16.323 48.2742 16.2811 48.3342C15.6857 49.3264 14.8758 50.1779 14.4087 51.2551C14.3149 51.4714 14.2235 51.7714 13.8654 51.704C12.7062 51.5253 11.8975 50.74 11.0289 50.059C10.8256 49.899 10.6925 49.6364 10.3854 49.6353C10.2389 46.7771 12.1078 44.1527 15.1629 42.9508C15.5597 42.7937 15.9184 42.6396 16.1956 42.2791C16.9539 41.294 19.7324 41.2166 20.4017 42.4602C20.5769 42.7855 20.908 42.8119 21.1852 42.9502C23.3612 44.0338 25.0994 45.5399 25.9568 47.8959Z" fill="#56332B"/>
<path fill-rule="evenodd" clip-rule="evenodd" d="M13.866 51.7041C14.1215 51.4351 14.3178 51.1491 14.3806 50.7588C14.4274 50.4658 14.503 50.1534 14.8951 50.0456C15.1606 49.9735 15.2444 49.6939 15.3405 49.4367C15.5257 48.9432 15.7548 48.4615 16.26 48.1972C17.3208 47.4523 18.4161 47.0385 19.6369 47.8467C19.7382 47.9076 19.8279 48.0125 19.9697 47.9317C19.8795 47.7934 19.7236 47.7383 19.6034 47.6386C19.1832 47.3374 18.6318 47.2507 18.2825 46.8317C18.1284 46.0616 18.0487 45.2921 18.3358 44.532C18.7513 44.7107 19.0379 44.9076 18.9242 45.4785C18.7291 46.4619 19.5595 46.9073 20.1766 47.3245C21.0188 47.8936 22.032 49.7502 21.8146 50.6896C21.7783 50.8444 21.654 50.8842 21.5181 50.9071C21.2104 52.3974 19.8894 52.2737 18.8603 52.4683C17.7961 52.6711 16.7042 52.4537 15.654 52.1618C14.9654 51.9707 14.9139 51.8113 15.0768 50.5683C14.7468 50.7664 14.8177 51.1292 14.7462 51.4099C14.5921 52.0188 14.3091 52.0534 13.866 51.7041Z" fill="#56332B"/>
<path fill-rule="evenodd" clip-rule="evenodd" d="M10.5372 51.6981L10.5009 51.2645L10.5577 50.7358C10.6685 51.0664 10.7851 51.3952 10.5372 51.6981ZM25.8402 51.2645L25.8115 51.5417C25.587 51.3676 25.682 51.1408 25.7576 50.9076L25.8402 51.2645Z" fill="#3E211E"/>
<path fill-rule="evenodd" clip-rule="evenodd" d="M12.773 42.6202L11.0019 44.2342C9.9324 44.3602 8.99647 44.1575 8.37291 43.1741C7.82144 42.3055 7.81558 41.4089 8.34478 40.5515C8.89801 39.656 9.75892 39.2844 10.7957 39.4321C11.772 39.5704 12.4085 40.1659 12.7507 41.0813C12.8058 41.229 12.8498 41.3802 12.899 41.529C13.301 41.9445 12.9365 42.2704 12.773 42.6202Z" fill="black"/>
<path fill-rule="evenodd" clip-rule="evenodd" d="M12.773 42.6202L12.899 41.5295C13.066 41.1668 12.9699 40.7284 13.2237 40.3896L13.2243 41.3478C13.1727 41.6684 13.3725 42.0288 13.0731 42.3107C12.9729 42.4133 12.8732 42.5158 12.773 42.6202Z" fill="#CFAF8F"/>
<path fill-rule="evenodd" clip-rule="evenodd" d="M8.9285 37.6834C8.9871 37.5726 9.07267 37.3869 9.19046 37.514C9.31939 37.6524 9.26196 37.8645 9.09025 37.9993C9.08087 37.8715 9.05977 37.749 8.9285 37.6834Z" fill="#DCBB97"/>
<path fill-rule="evenodd" clip-rule="evenodd" d="M25.1785 44.2401C24.6405 43.7548 24.1014 43.2696 23.5634 42.7832C23.0664 40.7765 24.2766 39.2042 26.1836 39.4292C27.4987 39.5851 28.0965 40.4935 28.3549 41.6966C28.4856 41.832 28.4845 41.968 28.3526 42.1022C27.7583 43.8803 27.1014 44.3221 25.1785 44.2401Z" fill="black"/>
<path fill-rule="evenodd" clip-rule="evenodd" d="M29.4925 47.0795V45.6501C29.7386 46.126 29.7375 46.6025 29.4925 47.0795Z" fill="#CDAF91"/>
<path fill-rule="evenodd" clip-rule="evenodd" d="M28.3526 42.1022C28.3538 41.9668 28.3549 41.8315 28.3549 41.6967C28.3872 41.6351 28.4176 41.573 28.4499 41.5115C28.6157 41.7576 28.5425 42.0301 28.4833 42.2763C28.4692 42.3378 28.386 42.1772 28.3526 42.1022Z" fill="#CFAF8F"/>
<path fill-rule="evenodd" clip-rule="evenodd" d="M22.1516 37.1969C21.3376 37.4201 21.1664 38.1222 21.065 38.7962C20.9818 39.3477 20.7814 39.2416 20.4526 39.0517C18.7542 38.0671 17.0688 37.9429 15.3557 39.1877C15.2502 38.5536 15.8404 37.7823 14.9871 37.3516C14.9519 37.2115 14.9754 37.1318 15.143 37.1992C15.3891 37.3182 15.6839 37.5151 15.6927 37.736C15.7296 38.6842 16.2383 38.3373 16.7306 38.1861C17.8605 37.8368 18.9781 37.9476 20.0541 38.3988C20.462 38.5694 20.6929 38.7048 20.7492 38.0701C20.8101 37.3785 21.4161 37.1886 21.9934 37.0351C22.1604 36.9771 22.1909 37.0539 22.1516 37.1969Z" fill="#CBAB8C"/>
<path fill-rule="evenodd" clip-rule="evenodd" d="M15.4395 40.3714C17.2393 38.8952 19.6099 39.0692 21.0838 40.4922C20.0488 40.1089 19.1246 39.8006 18.1723 39.7778C17.2376 39.7549 16.3362 40.096 15.4395 40.3714Z" fill="#CDAD8D"/>
<path fill-rule="evenodd" clip-rule="evenodd" d="M28.6925 45.809C28.1545 46.5199 27.3833 46.4589 26.6232 46.4396C26.5751 46.4062 26.5593 46.3734 26.5739 46.3388C26.5874 46.3042 26.6038 46.2861 26.6185 46.2861C27.3165 46.2562 27.9717 46.0962 28.5278 45.6437C28.6779 45.6045 28.7499 45.642 28.6925 45.809ZM9.40143 46.4425C8.15138 46.4507 7.94568 46.3523 7.40768 45.4421C7.95105 45.9528 8.65944 46.2518 9.40436 46.2849C9.45828 46.3206 9.47586 46.3558 9.45711 46.3915C9.43835 46.4249 9.42019 46.4425 9.40143 46.4425Z" fill="#CDAD8E"/>
<path fill-rule="evenodd" clip-rule="evenodd" d="M13.0731 42.3103C13.1194 41.9886 12.9418 41.6322 13.2243 41.3474C13.3087 41.6129 13.5812 41.6234 13.7845 41.7494C13.6169 42.0366 13.4183 42.264 13.0731 42.3103Z" fill="#CBAB8D"/>
<path fill-rule="evenodd" clip-rule="evenodd" d="M18.6417 36.5665C18.259 36.6016 17.8763 36.6356 17.3929 36.679C17.8658 36.1972 18.3083 36.1439 18.8058 36.4082C18.8381 36.5506 18.8123 36.6338 18.6417 36.5665Z" fill="#CFAF8F"/>
<path fill-rule="evenodd" clip-rule="evenodd" d="M22.1516 37.1969L21.9928 37.0358C22.3983 36.7322 22.842 36.9326 23.2768 36.9672L22.1516 37.1969Z" fill="#DAB996"/>
<path fill-rule="evenodd" clip-rule="evenodd" d="M15.143 37.1994L14.9871 37.3518C14.7515 37.1666 14.3964 37.2908 14.1854 37.0417C14.1297 37.006 14.111 36.9708 14.1297 36.9351C14.1479 36.8999 14.1666 36.8823 14.1854 36.8823C14.5353 36.8958 14.8664 36.965 15.143 37.1994Z" fill="#D1B090"/>
<path fill-rule="evenodd" clip-rule="evenodd" d="M18.6417 36.5664L18.8058 36.4082C18.991 36.5248 19.2571 36.533 19.3555 36.8425C19.0766 36.7968 18.8345 36.7557 18.6417 36.5664Z" fill="#CFAF8F"/>
<path fill-rule="evenodd" clip-rule="evenodd" d="M28.6925 45.8089L28.5278 45.6442C28.6562 45.4602 28.7488 45.231 29.0541 45.2263C29.0014 45.4795 28.8584 45.6524 28.6925 45.8089Z" fill="#D2B191"/>
<path fill-rule="evenodd" clip-rule="evenodd" d="M9.40146 46.4425C9.40322 46.3897 9.40439 46.337 9.40439 46.2842C9.60834 46.2004 9.80115 46.0487 10.1288 46.2215C9.84276 46.3083 9.6224 46.3745 9.40146 46.4425Z" fill="#DEBD99"/>
<path fill-rule="evenodd" clip-rule="evenodd" d="M13.3895 37.0394H12.7683L12.7625 36.9128L13.3895 36.8823C13.4411 36.9175 13.4587 36.9521 13.4411 36.9872C13.4235 37.0224 13.4065 37.0394 13.3895 37.0394Z" fill="#D9B895"/>
<path fill-rule="evenodd" clip-rule="evenodd" d="M20.0881 37.1594C19.9398 37.2613 19.8847 37.3117 19.8748 37.3035C19.7974 37.2449 19.7037 37.1869 19.6638 37.1049C19.6251 37.024 19.6831 36.9589 19.7851 37.0041C19.8801 37.0463 19.9715 37.0984 20.0881 37.1594Z" fill="#E3C19B"/>
<path fill-rule="evenodd" clip-rule="evenodd" d="M13.3895 37.0394C13.389 36.987 13.389 36.9347 13.3895 36.8823H14.1854V37.0412C13.9199 37.0406 13.6544 37.0406 13.3895 37.0394Z" fill="#CCAC8D"/>
<path fill-rule="evenodd" clip-rule="evenodd" d="M26.6185 46.2865C26.6197 46.3381 26.6208 46.3897 26.6232 46.4401L26.0612 46.1998C26.3161 46.1008 26.4802 46.099 26.6185 46.2865Z" fill="#DEBD99"/>
<path fill-rule="evenodd" clip-rule="evenodd" d="M19.7769 48.0449C18.5685 47.2654 17.4163 47.77 16.2606 48.1972L16.2618 48.015C16.4993 47.7998 16.7547 47.6053 17.0254 47.4336C17.3196 47.2754 17.6132 47.1165 17.922 46.987C18.6376 46.803 19.0824 47.3451 19.6286 47.6188C19.7505 47.736 19.8478 47.8602 19.7769 48.0449Z" fill="#7B483F"/>
<path fill-rule="evenodd" clip-rule="evenodd" d="M18.3364 44.5321C18.4003 45.3256 18.1688 46.139 18.5023 46.9132C18.2807 47.0439 18.0598 47.0439 17.8383 46.9132C18.1383 46.4666 17.949 45.962 18.0123 45.4868C18.1471 45.0654 18.1354 44.644 18.0205 44.2221L17.9924 43.7491C18.1043 43.6389 18.2198 43.6383 18.3382 43.7397C18.1489 44.0029 18.371 44.2678 18.3364 44.5321Z" fill="#1D110E"/>
<path fill-rule="evenodd" clip-rule="evenodd" d="M17.8382 46.9126H18.5022C18.9702 47.0196 19.4037 47.2427 19.7628 47.5614C19.7962 47.7079 19.7552 47.7776 19.5958 47.7249C19.0473 47.44 18.5714 46.9589 17.8699 47.0943C17.6947 47.1617 17.6665 47.0761 17.697 46.9296C17.7434 46.9195 17.7907 46.9138 17.8382 46.9126Z" fill="#040202"/>
<path fill-rule="evenodd" clip-rule="evenodd" d="M17.5417 41.944C17.9818 41.7606 18.3083 41.8303 18.6523 41.8467C18.2204 42.1738 18.2204 42.1738 17.5417 41.944Z" fill="#76453C"/>
<path fill-rule="evenodd" clip-rule="evenodd" d="M17.6865 42.8388C17.6472 42.9865 17.6337 43.1775 17.4122 43.14C17.2604 43.1136 17.217 42.966 17.2358 42.8288C17.2581 42.6665 17.3348 42.5094 17.5288 42.5264C17.7081 42.5422 17.6736 42.7116 17.6865 42.8388Z" fill="#341813"/>
<path fill-rule="evenodd" clip-rule="evenodd" d="M18.6464 42.5276C18.8334 42.5633 18.8691 42.7304 18.9125 42.864C18.9535 42.9935 18.8972 43.1412 18.7437 43.1465C18.5491 43.1547 18.5081 42.9818 18.4981 42.8294C18.4899 42.7104 18.4753 42.5674 18.6464 42.5276Z" fill="#371A15"/>
<path fill-rule="evenodd" clip-rule="evenodd" d="M18.3376 43.7395L17.9918 43.7489C17.897 43.7419 17.8023 43.7343 17.7076 43.726C17.6437 43.6962 17.6226 43.6651 17.6431 43.6335C17.6636 43.6024 17.6847 43.5866 17.7058 43.5866C17.9853 43.4067 18.2602 43.3475 18.5567 43.5684C18.654 43.6405 18.7542 43.6633 18.5667 43.7243C18.4958 43.7466 18.4143 43.7348 18.3376 43.7395Z" fill="#070403"/>
<path fill-rule="evenodd" clip-rule="evenodd" d="M17.6964 46.9302L17.8693 47.0949C17.5962 47.2461 17.3231 47.3973 17.05 47.5467C16.9838 47.5033 16.8906 47.4893 16.8754 47.3885C17.1004 47.1488 17.4087 47.0568 17.6964 46.9302Z" fill="#130B09"/>
<path fill-rule="evenodd" clip-rule="evenodd" d="M16.876 47.3889L17.0506 47.5477C16.7851 47.6989 16.6339 48.0435 16.2618 48.0148C16.284 47.6269 16.6216 47.5489 16.876 47.3889Z" fill="#0B0605"/>
<path fill-rule="evenodd" clip-rule="evenodd" d="M18.0205 44.2212C18.2514 44.6437 18.262 45.0657 18.0123 45.4859L18.0205 44.2212Z" fill="#090504"/>
<path fill-rule="evenodd" clip-rule="evenodd" d="M13.9855 46.4741C14.1109 46.4946 14.1561 46.5831 14.1555 46.6939C14.1549 46.8246 14.06 46.892 13.9545 46.8463C13.9108 46.8247 13.8723 46.7941 13.8416 46.7563C13.8109 46.7186 13.7886 46.6747 13.7763 46.6277C13.7529 46.4905 13.8789 46.4776 13.9855 46.4741Z" fill="#482B25"/>
<path fill-rule="evenodd" clip-rule="evenodd" d="M22.0578 46.8763C21.872 46.8499 21.8427 46.7479 21.8691 46.6448C21.8832 46.5862 21.9881 46.4959 22.008 46.5065C22.0901 46.5475 22.2032 46.6172 22.2102 46.6875C22.2172 46.7503 22.1012 46.827 22.0578 46.8763Z" fill="#462A24"/>
<path fill-rule="evenodd" clip-rule="evenodd" d="M17.7058 43.5861C17.6983 43.6323 17.6987 43.6795 17.707 43.7256C17.4936 43.735 17.326 43.65 17.1613 43.4976C17.4069 43.3458 17.5405 43.5404 17.7058 43.5861Z" fill="#472A24"/>
<path fill-rule="evenodd" clip-rule="evenodd" d="M19.5958 47.7253L19.7628 47.5618C19.9275 47.6725 20.1854 47.7311 20.1139 47.999C20.094 48.0734 19.9117 48.1812 19.7769 48.0447L19.5958 47.7253Z" fill="#150C0A"/>
<path fill-rule="evenodd" clip-rule="evenodd" d="M21.3135 50.3146C21.1606 50.1406 21.1014 49.9689 21.1061 49.7092C21.3868 49.8645 21.3704 50.0638 21.3135 50.3146Z" fill="#39211D"/>
<path fill-rule="evenodd" clip-rule="evenodd" d="M11.0893 41.396C10.6837 41.3837 10.4212 41.1574 10.4089 40.7736C10.3966 40.395 10.638 40.1154 11.0371 40.0955C11.445 40.0756 11.6911 40.3452 11.7117 40.7238C11.7328 41.1123 11.4895 41.3497 11.0893 41.396Z" fill="#F6F6F6"/>
<path fill-rule="evenodd" clip-rule="evenodd" d="M25.2278 40.0732C25.6087 40.1752 25.8666 40.3592 25.8461 40.7783C25.8267 41.1979 25.57 41.403 25.1797 41.3837C24.7882 41.3643 24.5409 41.1147 24.565 40.7138C24.589 40.3229 24.8615 40.1283 25.2278 40.0732Z" fill="#F7F7F7"/>
<path fill-rule="evenodd" clip-rule="evenodd" d="M36.78 28.2309C36.6511 28.1383 36.6734 27.8423 37.09 26.9211C37.2541 26.5601 37.6298 25.9488 38.2809 25.3663C38.3553 25.6066 38.4028 25.8357 38.4005 26.0496C38.3923 27.4761 37.3872 28.0105 36.78 28.2309ZM31.4253 29.4651C31.2553 29.556 31.1 29.6128 31.0273 29.5706C30.9734 29.5372 31.0977 29.4194 31.0977 29.4194C31.0977 29.4194 31.9662 28.4729 32.3085 28.0398C32.5071 27.7896 32.7374 27.4919 32.99 27.1602C32.9918 27.1942 32.9918 27.2258 32.9918 27.2586C32.9906 28.3926 31.9088 29.1586 31.4253 29.4651ZM24.48 26.1094C24.0768 27.1004 23.2346 29.6409 22.723 29.5056C22.2834 29.3878 22.0156 27.4585 22.6357 25.5585C22.9469 24.6032 23.6144 23.4604 24.0047 23.015C24.6347 22.3036 25.3303 22.068 25.4979 22.3575C25.7124 22.7279 24.7302 25.487 24.48 26.1094ZM16.069 31.8984C14.9162 33.1737 13.3028 33.6542 12.6101 33.2493C11.864 32.8109 12.16 30.9332 13.5759 29.5812C14.4391 28.7554 15.5544 27.9959 16.2946 27.5294C16.4622 27.4268 16.7095 27.275 17.0107 27.0928C17.0361 27.0777 17.0617 27.0631 17.0875 27.0488V27.0465L17.2657 26.9375C17.7814 28.865 17.2821 30.5599 16.069 31.8984ZM42.9312 22.7279C41.6712 22.7292 40.4285 23.0222 39.3006 23.5841C38.9303 22.8328 38.5522 22.1711 38.4907 21.68C38.4157 21.1045 38.3307 20.7622 38.4198 20.0801C38.5083 19.395 38.8986 18.428 38.8927 18.3559C38.8881 18.2832 38.8054 17.9345 37.999 17.9281C37.1903 17.9246 36.4999 18.0857 36.419 18.3026C36.2758 18.696 36.1643 19.1003 36.0856 19.5116C35.9426 20.2536 34.4727 22.899 33.637 24.2821C33.3633 23.7435 33.1313 23.267 33.0832 22.8908C33.0088 22.3159 32.9238 21.9736 33.0129 21.2915C33.102 20.6069 33.4917 19.6388 33.4876 19.5649C33.4817 19.494 33.3991 19.1459 32.5921 19.1389C31.7839 19.133 31.093 19.2965 31.0127 19.5122C30.9306 19.729 30.8451 20.233 30.6792 20.7212C30.5128 21.2088 28.5571 25.623 28.0455 26.7652C27.8402 27.2275 27.6237 27.6847 27.3962 28.1365V28.1342L27.3692 28.191C27.2327 28.4641 27.1494 28.6153 27.1494 28.6153C27.1494 28.6153 27.1524 28.6177 27.1524 28.6194C27.0439 28.8216 26.9273 29.0057 26.8705 29.0057C26.8289 29.0057 26.748 28.4753 26.8863 27.7439C27.1764 26.2137 27.8773 23.8261 27.8697 23.7447C27.8673 23.7031 28.0004 23.2864 27.4137 23.0684C26.8435 22.8586 26.6407 23.2096 26.5886 23.2108C26.5388 23.2108 26.5018 23.335 26.5018 23.335C26.5018 23.335 27.136 20.6515 25.2911 20.6515C24.1354 20.6515 22.5372 21.9308 21.7484 23.0895C21.2514 23.3643 20.1877 23.9533 19.0578 24.5804C18.6253 24.8212 18.1828 25.0668 17.7621 25.3024L17.6765 25.2057C15.4372 22.7871 11.2979 21.0758 11.472 17.825C11.5364 16.6405 11.9426 13.5286 19.4259 9.75385C25.556 6.66066 30.4636 7.51161 31.3116 9.39694C32.5224 12.0928 28.6884 17.1012 22.3233 17.825C19.8965 18.1004 18.6194 17.1469 18.3024 16.7917C17.9683 16.4202 17.9185 16.4032 17.7925 16.4723C17.5886 16.586 17.7175 16.9154 17.7925 17.1123C17.9836 17.6128 18.763 18.5013 20.0945 18.9443C21.2643 19.3323 24.1108 19.5468 27.5544 18.1965C31.4118 16.6874 34.4247 12.4831 33.5386 8.97029C32.6384 5.39889 26.789 4.22269 21.2508 6.21526C17.956 7.40026 14.3893 9.26215 11.8242 11.6919C9.15588 14.2178 8.44852 16.4577 8.44852 17.6849C8.44852 17.8589 8.46317 18.0125 8.48778 18.1444C9.19925 21.8769 14.2815 24.3073 16.3145 26.1088L16.035 26.2659C15.0146 26.7769 11.1414 28.8298 10.1733 30.9976C9.07383 33.4579 10.3473 35.2213 11.1912 35.4587C13.8039 36.1953 16.485 34.8714 17.925 32.6954C19.3667 30.52 19.1903 27.6853 18.5292 26.3924C18.521 26.3772 18.5128 26.3602 18.5034 26.3456C18.7671 26.1873 19.035 26.0273 19.3022 25.8691C19.7884 25.5814 20.2786 25.3004 20.7726 25.0264C20.5253 25.7138 20.3436 26.5366 20.2493 27.7251C20.1379 29.1217 20.7035 30.9273 21.4425 31.637C21.7677 31.9494 22.1598 31.9582 22.4077 31.9582C23.2686 31.9582 23.6613 31.2321 24.0932 30.3753C24.6241 29.3233 25.0953 28.099 25.0953 28.099C25.0953 28.099 24.504 31.4061 26.1133 31.4061C26.6982 31.4061 27.2889 30.6355 27.5503 30.2452L27.5521 30.2516L27.5978 30.1742C27.6581 30.0799 27.6927 30.0207 27.6927 30.0207C27.6927 30.0207 27.6927 30.0137 27.6951 30.0037C27.9312 29.5888 28.454 28.6435 29.2381 27.0875C30.2502 25.0732 31.2207 22.5544 31.2207 22.5544C31.2207 22.5544 31.3116 23.1686 31.6081 24.1895C31.7828 24.7884 32.152 25.4512 32.4438 26.0877C32.2077 26.4176 32.0647 26.6064 32.0647 26.6064C32.0647 26.6064 32.0647 26.611 32.0688 26.6181C31.88 26.8695 31.6708 27.1426 31.4487 27.4069C30.6505 28.371 29.6993 29.471 29.5722 29.7898C29.4204 30.1637 29.4561 30.4391 29.7468 30.6589C29.9578 30.8207 30.3352 30.8453 30.7302 30.8207C31.4493 30.7697 31.9533 30.5892 32.2041 30.4802C32.6565 30.319 33.0826 30.0921 33.4688 29.8068C34.253 29.2237 34.7253 28.3868 34.6796 27.2832C34.6544 26.6738 34.464 26.0695 34.2219 25.4975C34.2917 25.3944 34.362 25.2895 34.4346 25.1846C35.67 23.3538 36.6277 21.3442 36.6277 21.3442C36.6277 21.3442 36.7191 21.9596 37.0145 22.9799C37.1657 23.4974 37.4599 24.06 37.7247 24.6091C36.5644 25.5667 35.8423 26.6773 35.5939 27.4057C35.1291 28.7536 35.4925 29.3655 36.1717 29.5026C36.4806 29.5653 36.9142 29.4229 37.2413 29.2829C37.7262 29.1203 38.1827 28.883 38.5944 28.5796C39.3798 27.9965 40.1322 27.1789 40.0871 26.0725C40.0666 25.569 39.9318 25.0691 39.7496 24.5903C40.7341 24.1748 42.0088 23.9433 43.6327 24.1356C47.118 24.5464 47.8031 26.7511 47.6724 27.673C47.5417 28.5948 46.8097 29.1024 46.5653 29.2559C46.3204 29.4094 46.2459 29.4616 46.2665 29.5759C46.2975 29.7417 46.4094 29.7353 46.6187 29.699C46.9058 29.6509 48.4477 28.9494 48.514 27.2469C48.5989 25.0832 46.553 22.7079 42.9312 22.7279Z" fill="#CC649B"/>
</svg>
