<svg width="30" height="30" viewBox="0 0 30 30" fill="none" xmlns="http://www.w3.org/2000/svg">
<path d="M15.0004 2.34456C14.6759 2.34456 14.415 2.60589 14.415 2.92991C14.415 3.23149 14.6419 3.48245 14.9418 3.51221C15.289 3.54667 15.5858 3.27626 15.5858 2.92991C15.5858 2.60542 15.3244 2.34456 15.0004 2.34456Z" fill="white"/>
<path d="M26.7188 3.51562C25.1033 3.51562 23.7891 2.20137 23.7891 0.585938C23.7891 0.262383 23.5267 0 23.2031 0H6.79688C6.47332 0 6.21094 0.262383 6.21094 0.585938C6.21094 2.20137 4.89668 3.51562 3.28125 3.51562C2.9577 3.51562 2.69531 3.77801 2.69531 4.10156V13.6635C2.69531 21.1153 7.55244 27.7925 14.8317 29.9753C14.8866 29.9917 14.9433 30 15 30C15.0567 30 15.1135 29.9917 15.1683 29.9753C22.2899 27.839 27.3047 21.2783 27.3047 13.6635V4.10156C27.3047 3.77801 27.0423 3.51562 26.7188 3.51562ZM26.1328 13.6635C26.1328 20.6624 21.6667 26.7236 15 28.8013C8.38641 26.7401 3.86719 20.6241 3.86719 13.6635V4.64578C5.6608 4.38809 7.0834 2.96549 7.34109 1.17188H22.6589C22.9166 2.96549 24.3392 4.38809 26.1328 4.64578V13.6635Z" fill="white"/>
<path d="M24.6101 5.41934C23.3882 4.8842 22.4205 3.91652 21.8854 2.69461C21.792 2.48145 21.5814 2.34375 21.3486 2.34375H17.3426C17.019 2.34375 16.7566 2.60613 16.7566 2.92969C16.7566 3.25324 17.019 3.51562 17.3426 3.51562H20.9781C21.5972 4.7274 22.5773 5.70744 23.7891 6.32654V13.6635C23.7891 19.3976 20.3467 24.3453 15 26.3258C9.65326 24.3452 6.21094 19.3976 6.21094 13.6635V6.32654C7.42271 5.70744 8.40275 4.7274 9.02186 3.51562H12.6574C12.981 3.51562 13.2434 3.25324 13.2434 2.92969C13.2434 2.60613 12.981 2.34375 12.6574 2.34375H8.65137C8.41863 2.34375 8.20805 2.4815 8.11465 2.69461C7.57951 3.91652 6.61184 4.8842 5.38992 5.41934C5.17682 5.51273 5.03906 5.72338 5.03906 5.95605V13.6635C5.03906 19.9455 8.92447 25.4205 14.8045 27.5013C14.8678 27.5237 14.9338 27.5349 15 27.5349C15.0662 27.5349 15.1322 27.5237 15.1955 27.5013C21.0706 25.4222 24.9609 19.9506 24.9609 13.6635V5.95605C24.9609 5.72332 24.8232 5.51273 24.6101 5.41934Z" fill="white"/>
<path d="M15 8.55469C12.0922 8.55469 9.72656 10.9204 9.72656 13.8281C9.72656 16.7359 12.0922 19.1016 15 19.1016C17.9078 19.1016 20.2734 16.7359 20.2734 13.8281C20.2734 10.9204 17.9078 8.55469 15 8.55469ZM15 17.9297C12.7384 17.9297 10.8984 16.0897 10.8984 13.8281C10.8984 11.5665 12.7384 9.72656 15 9.72656C17.2616 9.72656 19.1016 11.5665 19.1016 13.8281C19.1016 16.0897 17.2616 17.9297 15 17.9297Z" fill="white"/>
<path d="M17.7581 12.2419C17.5292 12.0131 17.1583 12.0131 16.9294 12.2419L14.4141 14.7573L13.6565 13.9998C13.4277 13.771 13.0568 13.771 12.8279 13.9998C12.599 14.2286 12.599 14.5996 12.8279 14.8284L13.9997 16.0003C14.1142 16.1146 14.2641 16.1719 14.4141 16.1719C14.5641 16.1719 14.714 16.1146 14.8284 16.0003L17.7581 13.0706C17.9869 12.8418 17.9869 12.4707 17.7581 12.2419Z" fill="white"/>
</svg>
