<svg width="60" height="60" viewBox="0 0 60 60" fill="none" xmlns="http://www.w3.org/2000/svg">
<g id="shopping-cart" clip-path="url(#clip0)">
<path id="Vector" d="M21.3281 49.4531C18.4204 49.4531 16.0547 51.8188 16.0547 54.7266C16.0547 57.6343 18.4204 60 21.3281 60C24.2358 60 26.6016 57.6343 26.6016 54.7266C26.6016 51.8188 24.2358 49.4531 21.3281 49.4531ZM21.3281 58.2422C19.3895 58.2422 17.8125 56.6652 17.8125 54.7266C17.8125 52.7879 19.3895 51.2109 21.3281 51.2109C23.2668 51.2109 24.8438 52.7879 24.8438 54.7266C24.8438 56.6652 23.2668 58.2422 21.3281 58.2422Z" fill="#AC7BB0"/>
<path id="Vector_2" d="M22.207 54.7266C22.207 55.2118 21.8134 55.6055 21.3281 55.6055C20.8429 55.6055 20.4492 55.2118 20.4492 54.7266C20.4492 54.2413 20.8429 53.8477 21.3281 53.8477C21.8134 53.8477 22.207 54.2413 22.207 54.7266Z" fill="#AC7BB0"/>
<path id="Vector_3" d="M51.2109 49.4531C48.3032 49.4531 45.9375 51.8188 45.9375 54.7266C45.9375 57.6343 48.3032 60 51.2109 60C54.1187 60 56.4844 57.6343 56.4844 54.7266C56.4844 51.8188 54.1187 49.4531 51.2109 49.4531ZM51.2109 58.2422C49.2723 58.2422 47.6953 56.6652 47.6953 54.7266C47.6953 52.7879 49.2723 51.2109 51.2109 51.2109C53.1496 51.2109 54.7266 52.7879 54.7266 54.7266C54.7266 56.6652 53.1496 58.2422 51.2109 58.2422Z" fill="#AC7BB0"/>
<path id="Vector_4" d="M52.0898 54.7266C52.0898 55.2118 51.6962 55.6055 51.2109 55.6055C50.7257 55.6055 50.332 55.2118 50.332 54.7266C50.332 54.2413 50.7257 53.8477 51.2109 53.8477C51.6962 53.8477 52.0898 54.2413 52.0898 54.7266Z" fill="#AC7BB0"/>
<path id="Vector_5" d="M17.4408 37.1484H55.6055C56.0426 37.1484 56.4134 36.8271 56.4757 36.394L59.9913 11.7847C60.0275 11.5324 59.9519 11.277 59.7849 11.0843C59.6182 10.8916 59.3761 10.7812 59.1211 10.7812H14.1801L13.2518 4.28238C13.2504 4.27368 13.2495 4.26453 13.2481 4.25583L13.2449 4.23477C12.9117 1.89972 10.7208 0 8.36197 0H2.63672C1.18286 0 0 1.18286 0 2.63672C0 4.09058 1.18286 5.27344 2.63672 5.27344H11.6176L16.0208 36.0933L13.1277 41.104C12.7428 41.7705 12.5391 42.5299 12.5391 43.3008C12.5391 45.7242 14.5102 47.6953 16.9336 47.6953H55.6055C56.0912 47.6953 56.4844 47.3021 56.4844 46.8164C56.4844 46.3307 56.0912 45.9375 55.6055 45.9375H16.9336C15.4797 45.9375 14.2969 44.7546 14.2969 43.3008C14.2969 42.8384 14.4186 42.3834 14.6498 41.9838L17.4408 37.1484ZM2.63672 3.51562C2.15195 3.51562 1.75781 3.12149 1.75781 2.63672C1.75781 2.15195 2.15195 1.75781 2.63672 1.75781H8.36197C9.51233 1.75781 10.6311 2.49939 11.18 3.51562H2.63672ZM56.0152 27.1875H49.5319L50.0839 20.7422H56.9357L56.0152 27.1875ZM47.7672 27.1875H41.2756L41.4597 20.7422H45.7617C46.2474 20.7422 46.6406 20.349 46.6406 19.8633C46.6406 19.3776 46.2474 18.9844 45.7617 18.9844H41.51L41.694 12.5391H49.0228L47.7672 27.1875ZM41.0413 35.3906L41.2253 28.9453H47.6166L47.0645 35.3906H41.0413ZM39.4666 28.9453L39.2825 35.3906H33.2565L33.0725 28.9453H39.4666ZM33.0222 27.1875L32.8381 20.7422H39.7009L39.5169 27.1875H33.0222ZM39.7513 18.9844H32.7878L32.6038 12.5391H39.9353L39.7513 18.9844ZM31.0291 18.9844H24.0683L23.5162 12.5391H30.845L31.0291 18.9844ZM31.0794 20.7422L31.2634 27.1875H27.4805C26.9948 27.1875 26.6016 27.5807 26.6016 28.0664C26.6016 28.5521 26.9948 28.9453 27.4805 28.9453H31.3138L31.4978 35.3906H25.4745L24.2194 20.7422H31.0794ZM23.0072 27.1875H16.5239L15.6033 20.7422H22.4551L23.0072 27.1875ZM23.1578 28.9453L23.7103 35.3906H17.6958L16.7752 28.9453H23.1578ZM54.8433 35.3906H48.8287L49.3808 28.9453H55.7639L54.8433 35.3906ZM57.187 18.9844H50.235L50.787 12.5391H58.1076L57.187 18.9844ZM21.7516 12.5391L22.3041 18.9844H15.352L14.4315 12.5391H21.7516Z" fill="#AC7BB0"/>
</g>
<defs>
<clipPath id="clip0">
<rect width="60" height="60" fill="#AC7BB0"/>
</clipPath>
</defs>
</svg>
