<svg width="250" height="250" viewBox="0 0 250 250" fill="none" xmlns="http://www.w3.org/2000/svg">
<path d="M35.1487 32.2266H35.2803C37.9773 32.2266 40.1631 30.0407 40.1631 27.3438C40.1631 24.6468 37.9773 22.4609 35.2803 22.4609H35.1487C32.4517 22.4609 30.2659 24.6468 30.2659 27.3438C30.2659 30.0407 32.4517 32.2266 35.1487 32.2266Z" fill="white"/>
<path d="M234.266 22.4609H54.7962C52.0992 22.4609 49.9134 24.6468 49.9134 27.3438C49.9134 30.0407 52.0992 32.2266 54.7962 32.2266H234.266C237.556 32.2266 240.234 34.9045 240.234 38.1947V41.9922H53.7109C51.0139 41.9922 48.8281 44.178 48.8281 46.875C48.8281 49.5682 46.6385 51.7578 43.9453 51.7578H9.76562V38.1947C9.76562 34.9045 12.4435 32.2266 15.7337 32.2266H21.122C23.8171 32.2266 26.0048 30.0407 26.0048 27.3438C26.0048 24.6468 23.8171 22.4609 21.122 22.4609H15.7337C7.05719 22.4609 0 29.52 0 38.1947V211.805C0 220.48 7.05719 227.539 15.7337 227.539H234.266C242.943 227.539 250 220.48 250 211.805V38.1947C250 29.52 242.943 22.4609 234.266 22.4609ZM234.266 217.773H15.7337C12.4435 217.773 9.76562 215.096 9.76562 211.805V61.5234H43.9453C50.312 61.5234 55.7423 57.4417 57.7564 51.7578H240.234V211.805C240.234 215.096 237.556 217.773 234.266 217.773Z" fill="white"/>
<path d="M61.5234 162.56C64.2204 162.56 66.4062 160.374 66.4062 157.677C66.4062 154.982 64.2204 152.794 61.5234 152.794H53.7109C51.0139 152.794 48.8281 154.982 48.8281 157.677C48.8281 160.374 51.0139 162.56 53.7109 162.56H61.5234Z" fill="white"/>
<path d="M63.6826 174.799L56.3412 177.471C53.8063 178.392 52.4998 181.194 53.4229 183.729C54.1439 185.713 56.0169 186.943 58.012 186.943C58.5651 186.943 59.1297 186.848 59.6809 186.647L67.0223 183.975C69.5553 183.054 70.8618 180.252 69.9406 177.717C69.0174 175.182 66.2155 173.876 63.6826 174.799Z" fill="white"/>
<path d="M193.659 177.471L186.317 174.799C183.783 173.876 180.983 175.182 180.059 177.717C179.138 180.252 180.445 183.054 182.978 183.975L190.319 186.647C190.87 186.848 191.435 186.943 191.988 186.943C193.983 186.943 195.856 185.713 196.577 183.729C197.5 181.196 196.194 178.392 193.659 177.471Z" fill="white"/>
<path d="M196.289 152.794H188.477C185.78 152.794 183.594 154.982 183.594 157.677C183.594 160.374 185.78 162.56 188.477 162.56H196.289C198.986 162.56 201.172 160.374 201.172 157.677C201.172 154.982 198.986 152.794 196.289 152.794Z" fill="white"/>
<path d="M180.059 137.636C180.782 139.62 182.653 140.852 184.648 140.852C185.204 140.852 185.768 140.756 186.317 140.556L193.659 137.884C196.194 136.961 197.5 134.159 196.577 131.626C195.656 129.091 192.854 127.785 190.319 128.706L182.978 131.378C180.445 132.301 179.138 135.103 180.059 137.636Z" fill="white"/>
<path d="M183.352 108.715C181.618 106.649 178.537 106.381 176.472 108.112L170.486 113.134C168.421 114.868 168.152 117.949 169.886 120.014C170.851 121.164 172.234 121.759 173.628 121.759C174.736 121.759 175.85 121.384 176.764 120.617L182.749 115.595C184.814 113.861 185.083 110.781 183.352 108.715Z" fill="white"/>
<path d="M163.086 91.711C160.751 90.3625 157.764 91.1616 156.416 93.4982L152.51 100.264C151.161 102.598 151.96 105.585 154.297 106.934C155.066 107.378 155.905 107.588 156.734 107.588C158.421 107.588 160.063 106.712 160.967 105.146L164.873 98.381C166.222 96.0464 165.421 93.0595 163.086 91.711Z" fill="white"/>
<path d="M135.174 99.9737C135.462 100.025 135.746 100.05 136.028 100.05C138.353 100.05 140.413 98.383 140.831 96.0122L142.187 88.3198C142.656 85.6629 140.883 83.1319 138.226 82.6626C135.571 82.1953 133.038 83.9673 132.57 86.6242L131.214 94.3185C130.745 96.9735 132.519 99.5064 135.174 99.9737Z" fill="white"/>
<path d="M109.169 96.0122C109.587 98.383 111.647 100.05 113.972 100.05C114.252 100.05 114.538 100.025 114.824 99.9737C117.481 99.5064 119.255 96.9735 118.786 94.3185L117.43 86.6242C116.962 83.9673 114.43 82.1953 111.773 82.6626C109.118 83.1319 107.344 85.6648 107.813 88.3198L109.169 96.0122Z" fill="white"/>
<path d="M93.5841 93.4982C92.2356 91.1616 89.2487 90.3625 86.9141 91.711C84.5795 93.0595 83.7784 96.0445 85.1269 98.381L89.0332 105.146C89.9373 106.712 91.5795 107.588 93.2656 107.588C94.0953 107.588 94.9345 107.378 95.7032 106.934C98.0397 105.585 98.8389 102.6 97.4904 100.264L93.5841 93.4982Z" fill="white"/>
<path d="M79.5136 113.134L73.5283 108.112C71.4627 106.381 68.3823 106.649 66.6485 108.715C64.9166 110.781 65.1856 113.861 67.2512 115.595L73.2365 120.617C74.152 121.384 75.264 121.759 76.3722 121.759C77.7664 121.759 79.1493 121.166 80.1144 120.014C81.8482 117.949 81.5792 114.868 79.5136 113.134Z" fill="white"/>
<path d="M67.0223 131.378L59.6809 128.706C57.1461 127.785 54.3442 129.091 53.4229 131.626C52.4998 134.159 53.8063 136.961 56.3412 137.884L63.6826 140.556C64.2338 140.756 64.7964 140.852 65.3515 140.852C67.3466 140.852 69.2177 139.62 69.9406 137.636C70.8618 135.103 69.5553 132.301 67.0223 131.378Z" fill="white"/>
<path d="M148.954 116.188C146.618 114.84 143.633 115.641 142.284 117.975L127.676 143.278C126.808 143.118 125.914 143.028 125 143.028C116.922 143.028 110.352 149.601 110.352 157.677C110.352 165.754 116.922 172.325 125 172.325C133.078 172.325 139.648 165.754 139.648 157.677C139.648 154.051 138.321 150.73 136.129 148.169L150.742 122.858C152.088 120.523 151.289 117.537 148.954 116.188ZM125 162.56C122.309 162.56 120.117 160.37 120.117 157.677C120.117 154.985 122.309 152.794 125 152.794C127.693 152.794 129.883 154.985 129.883 157.677C129.883 160.37 127.693 162.56 125 162.56Z" fill="white"/>
<path d="M142.09 183.382H122.053C119.356 183.382 117.17 185.57 117.17 188.265C117.17 190.962 119.356 193.148 122.053 193.148H142.09C144.787 193.148 146.973 190.962 146.973 188.265C146.973 185.57 144.787 183.382 142.09 183.382Z" fill="white"/>
<path d="M108.025 183.382H107.91C105.213 183.382 103.027 185.568 103.027 188.265C103.027 190.962 105.213 193.148 107.91 193.148H108.025C110.722 193.148 112.907 190.962 112.907 188.265C112.907 185.568 110.722 183.382 108.025 183.382Z" fill="white"/>
<path d="M230.469 56.6406H210.432C207.735 56.6406 205.549 58.8284 205.549 61.5234C205.549 64.2204 207.735 66.4062 210.432 66.4062H230.469C233.166 66.4062 235.352 64.2204 235.352 61.5234C235.352 58.8284 233.166 56.6406 230.469 56.6406Z" fill="white"/>
<path d="M196.404 56.6406H196.289C193.592 56.6406 191.406 58.8264 191.406 61.5234C191.406 64.2204 193.592 66.4062 196.289 66.4062H196.404C199.1 66.4062 201.286 64.2204 201.286 61.5234C201.286 58.8264 199.1 56.6406 196.404 56.6406Z" fill="white"/>
</svg>
