<svg width="60" height="60" viewBox="0 0 60 60" fill="none" xmlns="http://www.w3.org/2000/svg">
<path d="M10.9161 0.000866218H49.6927C55.2115 -0.0717491 59.7862 4.4304 59.8589 10.0218V49.4519C59.7862 55.0433 55.2841 59.5454 49.7653 59.4728H10.9161C5.32476 59.5454 0.822615 55.0433 0.75 49.4519V10.0218C0.822615 4.4304 5.32476 -0.0717491 10.9161 0.000866218Z" fill="#F1B52A"/>
<path d="M6.19615 44.0058H11.2066C11.8601 44.0058 12.3684 43.4975 12.3684 42.844V37.9061C12.3684 37.2526 11.7875 36.7443 11.2066 36.7443H10.19C11.7875 28.4661 18.2503 22.0034 26.5284 20.5511V21.4951C26.5284 22.1486 27.0367 22.6569 27.6903 22.6569H32.7007C33.3543 22.6569 33.8626 22.1486 33.8626 21.4951V20.5511C42.1407 22.0034 48.6761 28.4661 50.201 36.7443H49.257C48.6035 36.7443 48.0952 37.2526 48.0952 37.9061V42.844C48.0952 43.4975 48.6035 44.0058 49.257 44.0058H54.2675C54.921 44.0058 55.4293 43.4975 55.4293 42.844V37.9061C55.4293 37.2526 54.8484 36.7443 54.2675 36.7443H52.6699C51.4355 29.5554 46.8607 23.3831 40.3253 20.188H48.5309C49.1844 21.0594 50.4188 21.2772 51.3629 20.6237C52.2342 19.9701 52.4521 18.7357 51.8712 17.8643V17.7917C51.2176 16.9203 49.9832 16.7024 49.1118 17.356L48.6761 17.7917H33.9352V16.4846C33.9352 15.8311 33.4269 15.3228 32.7733 15.3228H27.7629C27.1093 15.3228 26.601 15.8311 26.601 16.4846V17.7917H11.9328C11.2792 16.9203 10.0448 16.7024 9.10076 17.356C8.22937 18.0095 8.01153 19.244 8.59245 20.1154V20.188C9.24599 21.0594 10.4804 21.2772 11.4244 20.6237L11.8601 20.188H20.0657C13.5303 23.3831 8.95553 29.5554 7.72107 36.7443H6.19615C5.54261 36.7443 5.0343 37.2526 5.0343 37.9061V42.844C5.0343 43.4975 5.54261 44.0058 6.19615 44.0058ZM53.1056 41.6821H50.4915V39.1406H53.1056V41.6821ZM28.9973 17.7917H31.6115V20.3332H28.9973V17.7917ZM7.43061 39.1406H10.0448V41.6821H7.43061V39.1406Z" fill="#0D0F0F"/>
</svg>
