<svg width="250" height="250" viewBox="0 0 250 250" fill="none" xmlns="http://www.w3.org/2000/svg">
<g clip-path="url(#clip0)">
<path d="M112.484 57.9776C112.167 57.9776 111.845 57.949 111.527 57.8861C111.216 57.8212 110.912 57.7297 110.615 57.6076C110.321 57.4855 110.039 57.3329 109.774 57.1575C109.507 56.9782 109.257 56.7722 109.032 56.5471C108.807 56.322 108.603 56.0741 108.421 55.8052C108.246 55.5419 108.095 55.2577 107.973 54.9659C107.851 54.6684 107.758 54.3594 107.695 54.0523C107.632 53.7357 107.601 53.4133 107.601 53.0948C107.601 52.7782 107.632 52.4558 107.695 52.143C107.758 51.8302 107.851 51.5232 107.973 51.2294C108.095 50.9319 108.246 50.6496 108.421 50.3864C108.603 50.1174 108.807 49.8676 109.032 49.6425C109.257 49.4193 109.507 49.2134 109.774 49.0379C110.039 48.8624 110.321 48.7098 110.615 48.5877C110.912 48.4657 111.216 48.3741 111.527 48.3112C112.158 48.1834 112.806 48.1834 113.436 48.3112C113.749 48.3741 114.056 48.4657 114.349 48.5877C114.647 48.7098 114.931 48.8624 115.194 49.0379C115.463 49.2134 115.711 49.4193 115.936 49.6425C116.161 49.8676 116.365 50.1174 116.543 50.3864C116.718 50.6496 116.869 50.9319 116.991 51.2294C117.113 51.5232 117.207 51.8302 117.27 52.143C117.333 52.4558 117.367 52.7782 117.367 53.0948C117.367 53.4133 117.333 53.7357 117.27 54.0523C117.207 54.3594 117.113 54.6684 116.991 54.9659C116.869 55.2577 116.718 55.5419 116.543 55.8052C116.365 56.0741 116.161 56.324 115.936 56.5471C115.028 57.455 113.768 57.9776 112.484 57.9776Z" fill="white"/>
<path d="M113.939 215.401C70.4766 215.401 35.1162 180.086 35.1162 136.679C35.1162 101.32 58.9657 70.0952 93.1149 60.7435C95.7146 60.0301 97.2462 57.3446 96.5329 54.7429C95.8214 52.1413 93.1359 50.6116 90.5343 51.3231C52.1546 61.8345 25.3506 96.9335 25.3506 136.679C25.3506 185.471 65.0921 225.166 113.939 225.166C162.787 225.166 202.528 185.471 202.528 136.679C202.528 133.982 200.342 131.796 197.645 131.796C194.948 131.796 192.762 133.982 192.762 136.679C192.762 180.086 157.404 215.401 113.939 215.401Z" fill="white"/>
<path d="M203.562 57.3158C204.487 58.2409 205.732 58.7444 207.012 58.7444C207.367 58.7444 207.724 58.7063 208.078 58.6262L223.606 55.1548C224.508 54.9526 225.336 54.4987 225.99 53.8444L248.838 31.023C250.051 29.8118 250.542 28.0533 250.128 26.39C249.714 24.7268 248.457 23.4012 246.819 22.8996L231.914 18.3334L227.344 3.45036C226.841 1.81194 225.517 0.558816 223.856 0.144921C222.195 -0.268973 220.436 0.2174 219.227 1.42857L196.379 24.2481C195.723 24.9042 195.267 25.732 195.064 26.6361L191.587 42.1448C191.221 43.7774 191.717 45.4845 192.902 46.6671L194.773 48.5363L190.336 52.969C170.16 34.5821 143.339 23.3555 113.939 23.3555C51.382 23.3555 0.488159 74.192 0.488159 136.677C0.488159 199.163 51.382 250 113.939 250C176.498 250 227.392 199.163 227.392 136.677C227.392 107.059 215.958 80.0591 197.266 59.8488L201.681 55.439L203.562 57.3158ZM217.627 136.677C217.627 193.779 171.112 240.234 113.939 240.234C56.7664 240.234 10.2538 193.779 10.2538 136.677C10.2538 79.5765 56.7664 33.1211 113.939 33.1211C140.644 33.1211 165.022 43.2548 183.422 59.8755L155.125 88.1386C144.009 78.7144 129.627 73.0228 113.941 73.0228C78.802 73.0228 50.2147 101.578 50.2147 136.677C50.2147 171.778 78.802 200.333 113.941 200.333C149.078 200.333 177.666 171.778 177.666 136.677C177.666 120.754 171.781 106.176 162.071 95.0031L190.355 66.7534C207.283 85.1898 217.627 109.751 217.627 136.677ZM143.036 136.677C143.036 152.7 129.984 165.733 113.939 165.733C97.8965 165.733 84.8426 152.699 84.8426 136.677C84.8426 120.657 97.8965 107.622 113.939 107.622C120.071 107.622 125.765 109.526 130.463 112.772L117.887 125.332L118.557 120.564C118.933 117.893 117.071 115.425 114.401 115.049C111.732 114.674 109.26 116.535 108.887 119.205L106.19 138.409C105.976 139.925 106.489 141.455 107.572 142.538C108.496 143.461 109.739 143.971 111.027 143.971C111.252 143.971 111.477 143.953 111.704 143.923L130.928 141.23C133.598 140.856 135.46 138.388 135.086 135.717C134.712 133.047 132.24 131.184 129.574 131.559L124.803 132.227L137.459 119.587C140.964 124.386 143.036 130.295 143.036 136.677ZM137.455 105.787C130.92 100.813 122.77 97.8565 113.939 97.8565C92.5101 97.8565 75.077 115.271 75.077 136.677C75.077 158.083 92.5101 175.499 113.939 175.499C135.368 175.499 152.801 158.083 152.801 136.677C152.801 127.602 149.668 119.244 144.426 112.627L155.146 101.919C163.099 111.309 167.9 123.444 167.9 136.677C167.9 166.393 143.692 190.567 113.939 190.567C84.1865 190.567 59.9784 166.393 59.9784 136.677C59.9784 106.962 84.1865 82.7885 113.939 82.7885C126.932 82.7885 138.866 87.3966 148.189 95.0642L137.455 105.787ZM204.283 30.1552L220.388 14.0686L223.339 23.6778C223.814 25.2266 225.027 26.4396 226.578 26.9127L236.189 29.8576L220.093 45.9328L208.567 48.5115L201.706 41.6584L204.283 30.1552Z" fill="white"/>
</g>
<defs>
<clipPath id="clip0">
<rect width="250" height="250" fill="white"/>
</clipPath>
</defs>
</svg>
