<svg width="24" height="24" viewBox="0 0 24 24" fill="none" xmlns="http://www.w3.org/2000/svg">
<g clip-path="url(#clip0)">
<path d="M17.9273 10.0504C17.9634 10.8264 16.7994 10.8805 16.7633 10.1045C16.664 8.11942 15.7346 7.15393 13.8217 7.04565C13.0457 7.00053 13.1179 5.83653 13.8849 5.88165C16.4024 6.01699 17.801 7.46072 17.9273 10.0504ZM19.759 11.07C19.8492 7.24416 17.4581 4.24843 12.9194 3.91457C12.1524 3.86043 12.2336 2.69643 13.0006 2.75057C18.2341 3.12955 21.0223 6.72983 20.923 11.0971C20.914 11.8731 19.741 11.837 19.759 11.07ZM23.9999 12.2791C24.009 13.0551 22.8359 13.0642 22.8359 12.2882C22.7818 4.9342 17.8822 0.927869 11.9358 0.882752C11.1689 0.873729 11.1689 -0.28125 11.9358 -0.28125C18.586 -0.236134 23.9368 4.35671 23.9999 12.2791ZM22.9803 21.131V21.149C22.0058 22.8634 20.1831 24.7583 18.3063 24.1538L18.2882 24.1267C16.3843 23.5943 11.8997 21.2844 9.06643 19.0286C7.60466 17.8736 6.26922 16.5111 5.24056 15.2027C4.31117 14.0387 3.37274 12.6581 2.46139 10.9978C0.539437 7.52388 0.115343 5.97188 0.115343 5.97188C-0.489216 4.09504 1.39665 2.27234 3.12009 1.29782H3.13814C3.96828 0.864706 4.76233 1.00908 5.2947 1.64973C5.2947 1.64973 6.41359 2.98518 6.89182 3.64387C7.34299 4.25746 7.94754 5.24099 8.26336 5.79141C8.81378 6.77495 8.47089 7.77653 7.9295 8.1916L6.84671 9.05784C6.29629 9.49998 6.36847 10.3211 6.36847 10.3211C6.36847 10.3211 7.97461 16.3938 13.9751 17.9277C13.9751 17.9277 14.7962 17.9999 15.2383 17.4495L16.1046 16.3667C16.5197 15.8253 17.5212 15.4824 18.5048 16.0328C19.8312 16.7818 21.5185 17.9458 22.6374 19.0015C23.2691 19.5158 23.4134 20.3008 22.9803 21.131Z" fill="white"/>
</g>
<defs>
<clipPath id="clip0">
<rect width="24" height="24" fill="white"/>
</clipPath>
</defs>
</svg>
