<svg width="60" height="60" viewBox="0 0 60 60" fill="none" xmlns="http://www.w3.org/2000/svg">
<path d="M27.0121 47.7273H23.9205V48.0553C24.8875 48.0553 25.043 48.2625 25.043 49.4889V51.6998C25.043 52.926 24.8877 53.1505 23.9205 53.1505C23.178 53.047 22.6769 52.6496 21.9861 51.8897L21.1917 51.0262C22.2624 50.836 22.8323 50.1626 22.8323 49.4025C22.8323 48.4528 22.0207 47.7273 20.5007 47.7273H17.461V48.0553C18.428 48.0553 18.5835 48.2625 18.5835 49.4889V51.6998C18.5835 52.926 18.428 53.1505 17.461 53.1505V53.4787H20.8979V53.1505C19.9309 53.1505 19.7754 52.926 19.7754 51.6998V51.0781H20.0689L21.9861 53.4787H27.0121C29.4819 53.4787 30.5528 52.1662 30.5528 50.5942C30.5528 49.0226 29.482 47.7273 27.0121 47.7273ZM19.7755 50.5423V48.2455H20.4835C21.2606 48.2455 21.6062 48.7809 21.6062 49.4026C21.6062 50.0072 21.2606 50.5425 20.4835 50.5425H19.7755V50.5423ZM27.0641 52.9433H26.9431C26.3214 52.9433 26.235 52.788 26.235 51.9934V48.2455C26.235 48.2455 26.995 48.2455 27.0641 48.2455C28.8603 48.2455 29.1882 49.558 29.1882 50.5771C29.1882 51.6305 28.8601 52.9433 27.0641 52.9433Z" fill="#00749A"/>
<path d="M7.84122 51.1817L9.03297 47.658C9.37855 46.6391 9.22307 46.3456 8.11771 46.3456V46H11.3647V46.3456C10.2766 46.3456 10.0176 46.6046 9.5858 47.8654L7.61666 53.7723H7.39224L5.63036 48.3662L3.83429 53.7723H3.60973L1.69266 47.8654C1.27815 46.6046 1.00181 46.3456 0 46.3456V46H3.83429V46.3456C2.81518 46.3456 2.53869 46.5873 2.90157 47.658L4.05871 51.1817L5.80314 46H6.1314L7.84122 51.1817Z" fill="#00749A"/>
<path d="M13.7133 53.7031C11.8135 53.7031 10.259 52.3042 10.259 50.5941C10.259 48.9016 11.8136 47.5024 13.7133 47.5024C15.6132 47.5024 17.1675 48.9016 17.1675 50.5941C17.1675 52.3042 15.6132 53.7031 13.7133 53.7031ZM13.7133 48.0383C12.1244 48.0383 11.5716 49.4716 11.5716 50.5943C11.5716 51.7344 12.1244 53.1505 13.7133 53.1505C15.3197 53.1505 15.8723 51.7344 15.8723 50.5943C15.8723 49.4716 15.3197 48.0383 13.7133 48.0383Z" fill="#00749A"/>
<path d="M34.8186 53.1334V53.4788H30.8635V53.1334C32.0207 53.1334 32.228 52.8399 32.228 51.1125V48.3492C32.228 46.6218 32.0207 46.3456 30.8635 46.3456V46H34.4386C36.2175 46 37.2023 46.9154 37.2023 48.1419C37.2023 49.3337 36.2175 50.2663 34.4386 50.2663H33.4541V51.1123C33.4541 52.8399 33.6613 53.1334 34.8186 53.1334ZM34.4386 46.6218H33.4541V49.6272H34.4386C35.4059 49.6272 35.8549 48.9536 35.8549 48.1419C35.8549 47.3129 35.4059 46.6218 34.4386 46.6218Z" fill="#464342"/>
<path d="M49.0675 51.8552L48.9811 52.166C48.8258 52.736 48.6355 52.9433 47.4093 52.9433H47.1674C46.2695 52.9433 46.114 52.736 46.114 51.5098V50.7154C47.4612 50.7154 47.5649 50.8361 47.5649 51.7344H47.893V49.1608H47.5649C47.5649 50.0589 47.4612 50.1797 46.114 50.1797V48.2455H47.0637C48.2902 48.2455 48.48 48.4528 48.6355 49.0227L48.7221 49.3507H48.9983L48.8775 47.7273H43.7996V48.0553C44.7666 48.0553 44.9222 48.2625 44.9222 49.4889V51.6998C44.9222 52.8215 44.7902 53.1041 44.0276 53.1444C43.3029 53.0337 42.8053 52.6384 42.1245 51.8897L41.33 51.0262C42.4009 50.836 42.9708 50.1626 42.9708 49.4025C42.9708 48.4528 42.1591 47.7273 40.6393 47.7273H37.5995V48.0553C38.5666 48.0553 38.722 48.2625 38.722 49.4889V51.6998C38.722 52.926 38.5667 53.1505 37.5995 53.1505V53.4787H41.0366V53.1505C40.0696 53.1505 39.9139 52.926 39.9139 51.6998V51.0781H40.2076L42.1247 53.4787H49.2231L49.3268 51.8554H49.0675V51.8552ZM39.9138 50.5423V48.2455H40.6218C41.399 48.2455 41.7446 48.7809 41.7446 49.4026C41.7446 50.0072 41.399 50.5425 40.6218 50.5425H39.9138V50.5423Z" fill="#464342"/>
<path d="M52.5735 53.7032C51.8827 53.7032 51.2781 53.3406 51.019 53.1159C50.9326 53.2024 50.7773 53.4615 50.7428 53.7032H50.4146V51.32H50.76C50.8983 52.4598 51.6926 53.1333 52.7117 53.1333C53.2644 53.1333 53.7135 52.8225 53.7135 52.3045C53.7135 51.8555 53.3163 51.5099 52.6081 51.1818L51.6236 50.7155C50.9326 50.3871 50.4146 49.8171 50.4146 49.0573C50.4146 48.2283 51.1918 47.5203 52.2627 47.5203C52.8327 47.5203 53.3162 47.7275 53.6099 47.9693C53.6962 47.9002 53.7826 47.7101 53.8345 47.5027H54.1626V49.5409H53.7999C53.6789 48.7291 53.2299 48.0555 52.3146 48.0555C51.831 48.0555 51.3818 48.3319 51.3818 48.7638C51.3818 49.2128 51.7445 49.4545 52.5737 49.8346L53.5234 50.3009C54.3526 50.6981 54.6805 51.3374 54.6805 51.8555C54.6805 52.9434 53.7307 53.7032 52.5735 53.7032Z" fill="#464342"/>
<path d="M57.8931 53.7032C57.2021 53.7032 56.5975 53.3406 56.3386 53.1159C56.2522 53.2024 56.0969 53.4615 56.0624 53.7032H55.7342V51.32H56.0796C56.2178 52.4598 57.0122 53.1333 58.0313 53.1333C58.584 53.1333 59.0331 52.8225 59.0331 52.3045C59.0331 51.8555 58.6359 51.5099 57.9276 51.1818L56.9431 50.7155C56.2522 50.3871 55.734 49.8171 55.734 49.0573C55.734 48.2283 56.5113 47.5203 57.5822 47.5203C58.1522 47.5203 58.6356 47.7275 58.9294 47.9693C59.0156 47.9002 59.102 47.7101 59.1537 47.5027H59.4819V49.5409H59.1194C58.9983 48.7291 58.5494 48.0555 57.6341 48.0555C57.1505 48.0555 56.7012 48.3319 56.7012 48.7638C56.7012 49.2128 57.064 49.4545 57.8931 49.8346L58.8429 50.3009C59.672 50.6981 60 51.3374 60 51.8555C60 52.9434 59.0501 53.7032 57.8931 53.7032Z" fill="#464342"/>
<path d="M14.618 23.4172C14.618 29.6712 18.2525 35.0759 23.5228 37.6371L15.9859 16.9871C15.1093 18.9521 14.618 21.1266 14.618 23.4172Z" fill="#464342"/>
<path d="M41.0844 22.6201C41.0844 20.6674 40.3829 19.3151 39.7814 18.2625C38.9804 16.961 38.2297 15.8589 38.2297 14.5574C38.2297 13.105 39.3313 11.753 40.8829 11.753C40.953 11.753 41.0194 11.7617 41.0877 11.7656C38.2766 9.19029 34.5315 7.61792 30.4181 7.61792C24.8983 7.61792 20.042 10.45 17.2168 14.7396C17.5875 14.7507 17.9368 14.7585 18.2336 14.7585C19.8862 14.7585 22.4444 14.558 22.4444 14.558C23.2961 14.5078 23.3965 15.7588 22.5457 15.8595C22.5457 15.8595 21.6898 15.9602 20.7373 16.0101L26.4911 33.1243L29.9488 22.7542L27.4871 16.0095C26.6363 15.9596 25.8303 15.8589 25.8303 15.8589C24.9788 15.809 25.0786 14.5072 25.9301 14.5574C25.9301 14.5574 28.5394 14.7579 30.0919 14.7579C31.7442 14.7579 34.3027 14.5574 34.3027 14.5574C35.155 14.5072 35.2552 15.7582 34.404 15.8589C34.404 15.8589 33.5463 15.9596 32.5957 16.0095L38.3055 32.9941L39.8815 27.7277C40.5645 25.5423 41.0844 23.9727 41.0844 22.6201Z" fill="#464342"/>
<path d="M30.6952 24.8L25.9547 38.5753C27.3701 38.9914 28.867 39.219 30.418 39.219C32.258 39.219 34.0225 38.9009 35.6649 38.3233C35.6225 38.2557 35.584 38.1838 35.5525 38.1057L30.6952 24.8Z" fill="#464342"/>
<path d="M44.2819 15.8372C44.3499 16.3404 44.3883 16.8807 44.3883 17.4618C44.3883 19.0652 44.0889 20.8675 43.187 23.1212L38.3607 37.075C43.058 34.3358 46.2175 29.2468 46.2175 23.4179C46.2178 20.6709 45.5161 18.0878 44.2819 15.8372Z" fill="#464342"/>
<path d="M30.4181 5C20.2626 5 12 13.262 12 23.4175C12 33.5741 20.2626 41.8358 30.4181 41.8358C40.5732 41.8358 48.8371 33.5741 48.8371 23.4175C48.8368 13.262 40.5732 5 30.4181 5ZM30.4181 40.9916C20.7283 40.9916 12.8445 33.1078 12.8445 23.4175C12.8445 13.7277 20.728 5.84451 30.4181 5.84451C40.1075 5.84451 47.9907 13.7277 47.9907 23.4175C47.9907 33.1078 40.1075 40.9916 30.4181 40.9916Z" fill="#464342"/>
</svg>
