<svg id="Layer_1" xmlns="http://www.w3.org/2000/svg" width="83" height="83" viewBox="-10 -8.3 100 100"><style>.st1{fill:#e8e8e8}.st5{fill:#fff}.st6{fill:#d34a47}</style><path d="M62.3 60.9c0 3.2-2.6 5.8-5.8 5.8H6.4c-3.2 0-5.8-2.6-5.8-5.8V11.3c0-3.2 2.6-5.8 5.8-5.8h50.1c3.2 0 5.8 2.6 5.8 5.8v49.6z" fill="#3d4545"/><path class="st1" d="M62.3 14.6v-3.3c0-3.2-2.6-5.8-5.8-5.8H6.4C3.2 5.5.6 8.1.6 11.3v3.3h61.7z"/><circle cx="55.8" cy="10.3" r="1.8" fill="#ec4643"/><circle cx="50.9" cy="10.3" r="1.8" fill="#ffcd2e"/><circle cx="46" cy="10.3" r="1.8" fill="#c2e046"/><path class="st1" d="M20.8 34.2L11 24.4c-1.1-1.1-2.8-1.1-3.9 0s-1.1 2.8 0 3.9l7.8 7.8L7.1 44c-1.1 1-1.1 2.8 0 3.8 1.1 1.1 2.8 1.1 3.9 0l9.8-9.8c.5-.5.8-1.2.8-1.9s-.3-1.4-.8-1.9zM42.3 45.9c0 1.5-1.2 2.7-2.8 2.7H25.7c-1.5 0-2.8-1.2-2.8-2.7 0-1.5 1.2-2.8 2.8-2.8h13.8c1.5 0 2.8 1.3 2.8 2.8z"/><g><path class="st5" d="M46.7 42.8L48 56.1l28.8 2 2.8-26.3-31.8 2.9zM49.7 65.5l-.9-1.7h27.4l-1.1 2-11.9 2.9-13.4-3.2zM44.8 25.8l-.1-1.4h36l-.4 1.6-11 2.8-21.3-.9z"/><path class="st6" d="M72.5 81.8l.8-12.8 2.1-3.6s-4.8 2-12.9 2c-8.1 0-12.8-1.9-12.8-1.9l2.4 3.9.8 12.4c0 1.3 4.4 2.4 9.8 2.4s9.8-1.1 9.8-2.4M70.1 22l1.6-6.4 8.9-9.4-2.4-2-9.4 10-1.9 7.6c-1.4 0-2.8-.1-4.2-.1-9.9 0-18 1.1-18 2.5s8.1 2.5 18 2.5 18-1.1 18-2.5c0-.9-4.3-1.8-10.6-2.2"/><path class="st5" d="M69.1 25.6s-.3.1-1.4.1c-1 0-1.8 0-2-.3-.1-.1-.1-.2-.1-.3 0-.2.1-.3.3-.4l.1.3c-.1 0-.1 0-.1.1s1.1.2 1.9.2c.8 0 1.8-.1 1.8-.2 0 0-.1-.1-.2-.1l.2-.2c.2.1.4.2.4.4-.1.3-.6.4-.9.4"/><path class="st6" d="M80.6 6.3c.2-.3-.1-.9-.8-1.5-.6-.6-1.3-.8-1.6-.5-.2.2.2.9.8 1.5.7.5 1.4.8 1.6.5M72.1 50.5c-.2-2 4.4-5 3.3-5.1-2.6.1-3.9 3-5.2 6-.5 1.1-2.1 5.8-3.2 5.2-1.1-.6 1.4-4.4 2.1-6.7-.8.6-3.7 2.8-4.4.7-1.2 1-3.8 1.6-3.5-1.1-.6 1.1-2.1 2.7-3.8 2.1-2.3-.9 1.3-8.1 2.2-7.7.9.4-.2 2-.5 2.6-.6 1.4-1.3 3.2-.9 3.5.8.6 3-2.3 3.1-2.4.4-.5 1.6-4.1 2.5-3.7 1 .4-2.4 5.1-1.1 6.1.3.2 1.3-.1 1.9-.8.4-.4.3-1.4 1.6-4.6 1.3-3.2 2.5-7.2 3.5-6.9.9.3.2 2.4-.2 3.1-1.6 3.6-4.2 9.5-3 9.1 1.3-.5 1.9-.5 3.2-1.9 1.2-1.5 1.2-3.8 2-3.8.8.1.7.8.5 1.4.8-.9 3.9-2.9 4.6-1 .9 2.3-4.4 5.6-3 5.4 1.3-.2 3.3-1.5 4.2-2.7l2.4-21.7s-2.4 2-17.9 2c-15.5 0-17.7-2-17.7-2l2.1 19.8c1.1-3.1 3.7-9.4 7.8-9.2 1.9.1 4.3 3.7 2.2 3.8-.9.1-1-1.8-2.1-2.1-.8-.2-1.8.4-2.5 1.1-1.4 1.4-4.3 6.7-4 9.3.5 3.4 4.7-1.2 5.4-2.5.5-1 .8-3.8 1.9-3.5 1.1.3-.1 3.2-.9 5.8-.9 2.9-1.4 6-2.5 5.6-1.1-.4.7-4.1.6-4.7-1 1-3 3.4-5.4 2.2l1.3 12.3s3.4 2.7 13.6 2.7 13.8-2.6 13.8-2.6l1.6-14.3c-1.3 1.5-5.4 3.8-5.6 1.2"/></g></svg>