<svg width="1754" height="111" viewBox="0 0 1754 111" fill="none" xmlns="http://www.w3.org/2000/svg">
<path d="M0.48 70.728V106.44H34.08V93H89.088V106.44H122.688V70.728H111.168V21.576H16.992C16.992 54.696 15.168 61.224 10.56 70.728H0.48ZM45.504 70.728C48.48 65.928 50.688 58.056 50.688 43.848H74.688V70.728H45.504ZM201.524 93H238.004V21.576H201.524L162.356 61.992V21.576H125.876V93H162.356L201.524 52.68V93ZM352.304 69.096C352.304 59.784 344.72 54.12 334.832 52.392C342.032 50.856 349.328 46.536 349.328 38.568V37.992C349.328 29.16 338.096 20.136 298.544 20.136H295.184C248.72 20.136 241.808 36.744 241.808 45.672V46.632H278.768C279.824 42.216 284.432 39.72 297.392 39.72C306.32 39.72 312.752 40.68 312.752 43.464V43.656C312.752 46.248 309.392 47.016 302.48 47.016H281.744V64.968H302.288C310.064 64.968 313.52 66.216 313.52 68.808V69C313.52 71.592 309.776 73.416 297.872 73.416C283.856 73.416 279.248 69.48 278.768 65.064H241.808V67.08C241.808 80.616 254.672 94.344 295.952 94.344H299.216C339.152 94.344 352.304 83.016 352.304 69.864V69.096ZM415.256 63.336H397.976L406.52 43.56L415.256 63.336ZM428.312 93H469.016L433.208 21.576H381.944L348.247 93H385.112L388.856 84.456H424.568L428.312 93ZM545.305 93H581.785V21.576H545.305L506.137 61.992V21.576H469.657V93H506.137L545.305 52.68V93ZM528.793 18.792C547.993 18.792 551.929 6.79199 551.929 1.128V0.935995H532.441C532.441 1.99199 531.769 5.832 526.489 5.832H526.297C520.921 5.832 520.153 1.99199 520.153 0.935995H500.377V1.128C500.377 6.79199 502.873 18.792 523.897 18.792H528.793ZM661.814 93H698.294V21.576H661.814V45.288H623.606V21.576H587.126V93H623.606V67.56H661.814V93ZM807.711 93H844.191V21.576H807.711L768.543 61.992V21.576H732.063V93H768.543L807.711 52.68V93ZM924.22 93H960.7V21.576H924.22V45.288H886.012V21.576H849.532V93H886.012V67.56H924.22V93ZM996.111 93H1032.59V46.152H1063.41V21.576H965.295V46.152H996.111V93ZM1067.69 21.576V93H1154.19V72.84H1103.6V66.696H1153.23V47.112H1103.6V41.544H1153.81V21.576H1067.69ZM1229.76 73.512C1257.03 73.512 1264.8 61.896 1264.8 48.456V45.96C1264.8 32.52 1257.41 21.576 1229.76 21.576H1158.82V93H1195.3V73.512H1229.76ZM1195.3 42.504H1220.84C1225.83 42.504 1227.27 44.52 1227.27 47.112V47.304C1227.27 49.704 1225.83 51.912 1220.84 51.912H1195.3V42.504ZM1304.14 41.064V21.576H1267.75V93H1338.6C1365.86 93 1373.64 81.384 1373.64 67.944V65.448C1373.64 52.008 1366.25 41.064 1338.6 41.064H1304.14ZM1304.14 72.072V61.992H1329.67C1334.66 61.992 1336.1 64.2 1336.1 66.888V67.08C1336.1 69.672 1334.66 72.072 1329.67 72.072H1304.14ZM1377.07 21.576V93H1463.57V72.84H1412.97V66.696H1462.61V47.112H1412.97V41.544H1463.18V21.576H1377.07ZM1539.14 73.512C1566.4 73.512 1574.18 61.896 1574.18 48.456V45.96C1574.18 32.52 1566.79 21.576 1539.14 21.576H1468.19V93H1504.67V73.512H1539.14ZM1504.67 42.504H1530.21C1535.2 42.504 1536.64 44.52 1536.64 47.112V47.304C1536.64 49.704 1535.2 51.912 1530.21 51.912H1504.67V42.504ZM1627.26 63.336H1609.98L1618.52 43.56L1627.26 63.336ZM1640.31 93H1681.02L1645.21 21.576H1593.94L1560.25 93H1597.11L1600.86 84.456H1636.57L1640.31 93Z" fill="white"/>
</svg>
