<svg width="1737" height="110" viewBox="0 0 1737 110" fill="none" xmlns="http://www.w3.org/2000/svg">
<path d="M55.48 39.272V40.272H54.48V39.272H55.48ZM55.48 3.56H54.48V2.56H55.48V3.56ZM89.08 3.56V2.56H90.08V3.56H89.08ZM89.08 17V18H88.08V17H89.08ZM144.088 17H145.088V18H144.088V17ZM144.088 3.56H143.088V2.56H144.088V3.56ZM177.688 3.56V2.56H178.688V3.56H177.688ZM177.688 39.272H178.688V40.272H177.688V39.272ZM166.168 39.272H165.168V38.272H166.168V39.272ZM166.168 88.424H167.168V89.424H166.168V88.424ZM71.992 88.424V89.424H70.992V88.424H71.992ZM65.56 39.272V38.272H66.1865L66.4598 38.8357L65.56 39.272ZM100.504 39.272L99.6541 39.7989L98.7074 38.272H100.504V39.272ZM105.688 66.152V67.152H104.688V66.152H105.688ZM129.688 66.152H130.688V67.152H129.688V66.152ZM129.688 39.272V38.272H130.688V39.272H129.688ZM54.48 39.272V3.56H56.48V39.272H54.48ZM55.48 2.56H89.08V4.56H55.48V2.56ZM90.08 3.56V17H88.08V3.56H90.08ZM89.08 16H144.088V18H89.08V16ZM143.088 17V3.56H145.088V17H143.088ZM144.088 2.56H177.688V4.56H144.088V2.56ZM178.688 3.56V39.272H176.688V3.56H178.688ZM177.688 40.272H166.168V38.272H177.688V40.272ZM167.168 39.272V88.424H165.168V39.272H167.168ZM166.168 89.424H71.992V87.424H166.168V89.424ZM70.992 88.424C70.992 71.8671 70.5351 62.0195 69.5148 55.1387C68.5016 48.3057 66.9333 44.3965 64.6602 39.7083L66.4598 38.8357C68.7947 43.6515 70.4424 47.7583 71.4932 54.8453C72.5369 61.8845 72.992 71.8609 72.992 88.424H70.992ZM65.56 40.272H55.48V38.272H65.56V40.272ZM101.354 38.7451C104.472 43.7737 106.688 51.8631 106.688 66.152H104.688C104.688 52.0249 102.488 44.3703 99.6541 39.7989L101.354 38.7451ZM105.688 65.152H129.688V67.152H105.688V65.152ZM128.688 66.152V39.272H130.688V66.152H128.688ZM129.688 40.272H100.504V38.272H129.688V40.272ZM256.523 17H255.523V16H256.523V17ZM293.004 17V16H294.004V17H293.004ZM293.004 88.424H294.004V89.424H293.004V88.424ZM256.523 88.424V89.424H256.1L255.805 89.1199L256.523 88.424ZM217.355 48.008H216.355V45.5392L218.074 47.3121L217.355 48.008ZM217.355 88.424H218.355V89.424H217.355V88.424ZM180.876 88.424V89.424H179.876V88.424H180.876ZM180.876 17H179.876V16H180.876V17ZM217.355 17V16H217.778L218.073 16.3032L217.355 17ZM256.523 57.32H257.523V59.7846L255.806 58.0168L256.523 57.32ZM256.523 16H293.004V18H256.523V16ZM294.004 17V88.424H292.004V17H294.004ZM293.004 89.424H256.523V87.424H293.004V89.424ZM255.805 89.1199L216.637 48.7039L218.074 47.3121L257.242 87.7281L255.805 89.1199ZM218.355 48.008V88.424H216.355V48.008H218.355ZM217.355 89.424H180.876V87.424H217.355V89.424ZM179.876 88.424V17H181.876V88.424H179.876ZM180.876 16H217.355V18H180.876V16ZM218.073 16.3032L257.241 56.6232L255.806 58.0168L216.638 17.6968L218.073 16.3032ZM255.523 57.32V17H257.523V57.32H255.523ZM389.832 57.608L389.624 58.586L389.66 56.6229L389.832 57.608ZM296.808 63.368H295.808V62.368H296.808V63.368ZM333.768 63.368V62.368H334.557L334.741 63.1354L333.768 63.368ZM336.744 62.984V63.984H335.744V62.984H336.744ZM336.744 45.032H335.744V44.032H336.744V45.032ZM333.768 44.936L334.762 45.0441L334.665 45.936H333.768V44.936ZM296.808 44.936V45.936H295.808V44.936H296.808ZM408.304 40.904C408.304 45.8636 406.272 49.8731 402.942 52.846C399.634 55.7993 395.076 57.7068 390.004 58.5931L389.66 56.6229C394.476 55.7812 398.654 53.9927 401.61 51.354C404.544 48.7349 406.304 45.2564 406.304 40.904H408.304ZM390.041 56.63C393.744 57.42 397.534 58.9368 400.42 61.3395C403.329 63.7617 405.328 67.0993 405.328 71.432H403.328C403.328 67.7967 401.679 64.9903 399.14 62.8765C396.578 60.7432 393.12 59.332 389.624 58.586L390.041 56.63ZM405.328 71.432V72.008H403.328V71.432H405.328ZM405.328 72.008C405.328 76.9615 402.136 81.7108 394.166 85.1655C386.227 88.6065 373.369 90.864 353.544 90.864V88.864C373.271 88.864 385.805 86.6095 393.371 83.3305C400.904 80.0652 403.328 75.8865 403.328 72.008H405.328ZM353.544 90.864H350.184V88.864H353.544V90.864ZM350.184 90.864C326.861 90.864 313.277 86.7007 305.499 81.2636C297.665 75.7867 295.808 69.0786 295.808 64.328H297.808C297.808 68.5054 299.408 74.5653 306.645 79.6244C313.939 84.7233 327.043 88.864 350.184 88.864V90.864ZM295.808 64.328V63.368H297.808V64.328H295.808ZM296.808 62.368H333.768V64.368H296.808V62.368ZM334.741 63.1354C335.183 64.9851 336.343 66.4804 338.992 67.5531C341.713 68.6551 345.947 69.28 352.392 69.28V71.28C345.877 71.28 341.328 70.657 338.241 69.4069C335.082 68.1276 333.409 66.1669 332.796 63.6006L334.741 63.1354ZM352.392 69.28C356.839 69.28 360.593 69.0393 363.209 68.4745C364.525 68.1904 365.471 67.8411 366.064 67.4565C366.64 67.0829 366.752 66.7732 366.752 66.536H368.752C368.752 67.6908 368.061 68.5452 367.152 69.1345C366.26 69.7129 365.039 70.1256 363.631 70.4295C360.8 71.0407 356.873 71.28 352.392 71.28V69.28ZM366.752 66.536V66.344H368.752V66.536H366.752ZM366.752 66.344C366.752 65.9389 366.632 65.6596 366.401 65.4214C366.142 65.1542 365.685 64.8813 364.918 64.6491C363.37 64.1802 360.935 63.984 357.48 63.984V61.984C360.938 61.984 363.639 62.1718 365.498 62.7349C366.435 63.0187 367.25 63.4238 367.837 64.0296C368.453 64.6644 368.752 65.4531 368.752 66.344H366.752ZM357.48 63.984H336.744V61.984H357.48V63.984ZM335.744 62.984V45.032H337.744V62.984H335.744ZM336.744 44.032H357.288V46.032H336.744V44.032ZM357.288 44.032C361.153 44.032 363.822 43.7179 365.493 43.1391C366.322 42.8519 366.83 42.5244 367.125 42.2064C367.397 41.9124 367.52 41.5919 367.52 41.192H369.52C369.52 42.0881 369.212 42.8956 368.593 43.5646C367.996 44.2096 367.155 44.6801 366.148 45.0289C364.147 45.7221 361.199 46.032 357.288 46.032V44.032ZM367.52 41.192V41H369.52V41.192H367.52ZM367.52 41C367.52 40.6258 367.398 40.2783 367.043 39.9246C366.661 39.5434 365.986 39.1361 364.854 38.7719C362.584 38.0416 358.801 37.584 352.872 37.584V35.584C358.847 35.584 362.888 36.0384 365.467 36.8681C366.759 37.2839 367.764 37.8186 368.455 38.5084C369.175 39.2257 369.52 40.0782 369.52 41H367.52ZM352.872 37.584C345.933 37.584 341.463 38.5624 338.704 39.9919C336 41.3933 334.962 43.2091 334.762 45.0441L332.774 44.8279C333.055 42.2469 334.56 39.8867 337.784 38.2161C340.954 36.5736 345.795 35.584 352.872 35.584V37.584ZM333.768 45.936H296.808V43.936H333.768V45.936ZM295.808 44.936V42.92H297.808V44.936H295.808ZM295.808 42.92C295.808 35.7815 299.225 28.6527 307.878 23.359C316.478 18.0979 330.227 14.656 350.952 14.656V16.656C330.398 16.656 317.074 20.0781 308.922 25.065C300.824 30.0193 297.808 36.5225 297.808 42.92H295.808ZM350.952 14.656H354.216V16.656H350.952V14.656ZM354.216 14.656C374.25 14.656 387.717 17.4924 396.212 22.0843C404.773 26.7122 408.304 33.1471 408.304 40.136H406.304C406.304 33.9729 403.26 28.1678 395.261 23.8437C387.195 19.4836 374.119 16.656 354.216 16.656V14.656ZM408.304 40.136V40.904H406.304V40.136H408.304ZM470.255 46.664V45.664H471.79L471.17 47.0681L470.255 46.664ZM452.975 46.664L452.058 47.0606L451.454 45.664H452.975V46.664ZM461.52 66.44L462.434 66.8441L461.509 68.9378L460.602 66.8366L461.52 66.44ZM483.311 17L482.396 16.5986L482.658 16H483.311V17ZM524.016 17V16H525.635L524.909 17.4482L524.016 17ZM488.208 88.424L489.101 88.8722L488.825 89.424H488.208V88.424ZM436.944 88.424V89.424H436.31L436.039 88.8507L436.944 88.424ZM403.247 17L402.343 17.4267L401.67 16H403.247V17ZM440.112 17V16H440.765L441.027 16.5986L440.112 17ZM443.855 25.544V26.544H443.202L442.94 25.9454L443.855 25.544ZM479.568 25.544L480.483 25.9454L480.221 26.544H479.568V25.544ZM470.255 47.664H452.975V45.664H470.255V47.664ZM453.893 46.2674L462.438 66.0434L460.602 66.8366L452.058 47.0606L453.893 46.2674ZM460.605 66.0359L469.341 46.2599L471.17 47.0681L462.434 66.8441L460.605 66.0359ZM483.311 16H524.016V18H483.311V16ZM524.909 17.4482L489.101 88.8722L487.314 87.9758L523.122 16.5518L524.909 17.4482ZM488.208 89.424H436.944V87.424H488.208V89.424ZM436.039 88.8507L402.343 17.4267L404.152 16.5733L437.848 87.9973L436.039 88.8507ZM403.247 16H440.112V18H403.247V16ZM441.027 16.5986L444.771 25.1426L442.94 25.9454L439.196 17.4014L441.027 16.5986ZM443.855 24.544H479.568V26.544H443.855V24.544ZM478.652 25.1426L482.396 16.5986L484.227 17.4014L480.483 25.9454L478.652 25.1426ZM600.305 17H599.305V16H600.305V17ZM636.785 17V16H637.785V17H636.785ZM636.785 88.424H637.785V89.424H636.785V88.424ZM600.305 88.424V89.424H599.881L599.587 89.1199L600.305 88.424ZM561.137 48.008H560.137V45.5392L561.855 47.3121L561.137 48.008ZM561.137 88.424H562.137V89.424H561.137V88.424ZM524.657 88.424V89.424H523.657V88.424H524.657ZM524.657 17H523.657V16H524.657V17ZM561.137 17V16H561.559L561.854 16.3032L561.137 17ZM600.305 57.32H601.305V59.7846L599.587 58.0168L600.305 57.32ZM606.929 109.064H607.929V110.064H606.929V109.064ZM587.441 109.064V110.064H586.441V109.064H587.441ZM575.153 109.064H576.153V110.064H575.153V109.064ZM555.377 109.064V110.064H554.377V109.064H555.377ZM600.305 16H636.785V18H600.305V16ZM637.785 17V88.424H635.785V17H637.785ZM636.785 89.424H600.305V87.424H636.785V89.424ZM599.587 89.1199L560.419 48.7039L561.855 47.3121L601.023 87.7281L599.587 89.1199ZM562.137 48.008V88.424H560.137V48.008H562.137ZM561.137 89.424H524.657V87.424H561.137V89.424ZM523.657 88.424V17H525.657V88.424H523.657ZM524.657 16H561.137V18H524.657V16ZM561.854 16.3032L601.022 56.6232L599.587 58.0168L560.419 17.6968L561.854 16.3032ZM599.305 57.32V17H601.305V57.32H599.305ZM583.793 90.208C593.615 90.208 599.689 93.2862 603.299 97.2419C606.884 101.169 607.929 105.843 607.929 108.872H605.929C605.929 106.237 605.006 102.079 601.822 98.5901C598.664 95.1298 593.171 92.208 583.793 92.208V90.208ZM607.929 108.872V109.064H605.929V108.872H607.929ZM606.929 110.064H587.441V108.064H606.929V110.064ZM586.441 109.064C586.441 108.686 586.308 107.695 585.648 106.824C585.03 106.009 583.852 105.168 581.489 105.168V103.168C584.405 103.168 586.204 104.247 587.242 105.616C588.238 106.929 588.441 108.386 588.441 109.064H586.441ZM581.489 105.168H581.297V103.168H581.489V105.168ZM581.297 105.168C578.878 105.168 577.646 106.015 576.993 106.84C576.299 107.717 576.153 108.706 576.153 109.064H574.153C574.153 108.366 574.39 106.907 575.425 105.6C576.5 104.241 578.339 103.168 581.297 103.168V105.168ZM575.153 110.064H555.377V108.064H575.153V110.064ZM554.377 109.064V108.872H556.377V109.064H554.377ZM554.377 108.872C554.377 105.915 555.025 101.219 558.501 97.2566C561.998 93.2687 568.194 90.208 578.897 90.208V92.208C568.576 92.208 563.011 95.1474 560.005 98.5754C556.976 102.029 556.377 106.165 556.377 108.872H554.377ZM578.897 90.208H583.793V92.208H578.897V90.208ZM716.813 17H715.813V16H716.813V17ZM753.294 17V16H754.294V17H753.294ZM753.294 88.424H754.294V89.424H753.294V88.424ZM716.813 88.424V89.424H715.813V88.424H716.813ZM716.813 64.712V63.712H717.813V64.712H716.813ZM678.606 64.712H677.606V63.712H678.606V64.712ZM678.606 88.424H679.606V89.424H678.606V88.424ZM642.125 88.424V89.424H641.125V88.424H642.125ZM642.125 17H641.125V16H642.125V17ZM678.606 17V16H679.606V17H678.606ZM678.606 42.44V43.44H677.606V42.44H678.606ZM716.813 42.44H717.813V43.44H716.813V42.44ZM716.813 16H753.294V18H716.813V16ZM754.294 17V88.424H752.294V17H754.294ZM753.294 89.424H716.813V87.424H753.294V89.424ZM715.813 88.424V64.712H717.813V88.424H715.813ZM716.813 65.712H678.606V63.712H716.813V65.712ZM679.606 64.712V88.424H677.606V64.712H679.606ZM678.606 89.424H642.125V87.424H678.606V89.424ZM641.125 88.424V17H643.125V88.424H641.125ZM642.125 16H678.606V18H642.125V16ZM679.606 17V42.44H677.606V17H679.606ZM678.606 41.44H716.813V43.44H678.606V41.44ZM715.813 42.44V17H717.813V42.44H715.813ZM862.711 17H861.711V16H862.711V17ZM899.191 17V16H900.191V17H899.191ZM899.191 88.424H900.191V89.424H899.191V88.424ZM862.711 88.424V89.424H862.288L861.993 89.1199L862.711 88.424ZM823.543 48.008H822.543V45.5392L824.261 47.3121L823.543 48.008ZM823.543 88.424H824.543V89.424H823.543V88.424ZM787.063 88.424V89.424H786.063V88.424H787.063ZM787.063 17H786.063V16H787.063V17ZM823.543 17V16H823.966L824.26 16.3032L823.543 17ZM862.711 57.32H863.711V59.7846L861.994 58.0168L862.711 57.32ZM862.711 16H899.191V18H862.711V16ZM900.191 17V88.424H898.191V17H900.191ZM899.191 89.424H862.711V87.424H899.191V89.424ZM861.993 89.1199L822.825 48.7039L824.261 47.3121L863.429 87.7281L861.993 89.1199ZM824.543 48.008V88.424H822.543V48.008H824.543ZM823.543 89.424H787.063V87.424H823.543V89.424ZM786.063 88.424V17H788.063V88.424H786.063ZM787.063 16H823.543V18H787.063V16ZM824.26 16.3032L863.428 56.6232L861.994 58.0168L822.826 17.6968L824.26 16.3032ZM861.711 57.32V17H863.711V57.32H861.711ZM979.22 17H978.22V16H979.22V17ZM1015.7 17V16H1016.7V17H1015.7ZM1015.7 88.424H1016.7V89.424H1015.7V88.424ZM979.22 88.424V89.424H978.22V88.424H979.22ZM979.22 64.712V63.712H980.22V64.712H979.22ZM941.012 64.712H940.012V63.712H941.012V64.712ZM941.012 88.424H942.012V89.424H941.012V88.424ZM904.532 88.424V89.424H903.532V88.424H904.532ZM904.532 17H903.532V16H904.532V17ZM941.012 17V16H942.012V17H941.012ZM941.012 42.44V43.44H940.012V42.44H941.012ZM979.22 42.44H980.22V43.44H979.22V42.44ZM979.22 16H1015.7V18H979.22V16ZM1016.7 17V88.424H1014.7V17H1016.7ZM1015.7 89.424H979.22V87.424H1015.7V89.424ZM978.22 88.424V64.712H980.22V88.424H978.22ZM979.22 65.712H941.012V63.712H979.22V65.712ZM942.012 64.712V88.424H940.012V64.712H942.012ZM941.012 89.424H904.532V87.424H941.012V89.424ZM903.532 88.424V17H905.532V88.424H903.532ZM904.532 16H941.012V18H904.532V16ZM942.012 17V42.44H940.012V17H942.012ZM941.012 41.44H979.22V43.44H941.012V41.44ZM978.22 42.44V17H980.22V42.44H978.22ZM1051.11 17H1050.11V16H1051.11V17ZM1087.59 17V16H1088.59V17H1087.59ZM1087.59 63.848V64.848H1086.59V63.848H1087.59ZM1118.41 63.848V62.848H1119.41V63.848H1118.41ZM1118.41 88.424H1119.41V89.424H1118.41V88.424ZM1020.29 88.424V89.424H1019.29V88.424H1020.29ZM1020.29 63.848H1019.29V62.848H1020.29V63.848ZM1051.11 63.848H1052.11V64.848H1051.11V63.848ZM1051.11 16H1087.59V18H1051.11V16ZM1088.59 17V63.848H1086.59V17H1088.59ZM1087.59 62.848H1118.41V64.848H1087.59V62.848ZM1119.41 63.848V88.424H1117.41V63.848H1119.41ZM1118.41 89.424H1020.29V87.424H1118.41V89.424ZM1019.29 88.424V63.848H1021.29V88.424H1019.29ZM1020.29 62.848H1051.11V64.848H1020.29V62.848ZM1050.11 63.848V17H1052.11V63.848H1050.11ZM1122.69 88.424V89.424H1121.69V88.424H1122.69ZM1122.69 17H1121.69V16H1122.69V17ZM1209.19 17V16H1210.19V17H1209.19ZM1209.19 37.16H1210.19V38.16H1209.19V37.16ZM1158.6 37.16H1157.6V36.16H1158.6V37.16ZM1158.6 43.304V44.304H1157.6V43.304H1158.6ZM1208.23 43.304V42.304H1209.23V43.304H1208.23ZM1208.23 62.888H1209.23V63.888H1208.23V62.888ZM1158.6 62.888H1157.6V61.888H1158.6V62.888ZM1158.6 68.456V69.456H1157.6V68.456H1158.6ZM1208.81 68.456V67.456H1209.81V68.456H1208.81ZM1208.81 88.424H1209.81V89.424H1208.81V88.424ZM1121.69 88.424V17H1123.69V88.424H1121.69ZM1122.69 16H1209.19V18H1122.69V16ZM1210.19 17V37.16H1208.19V17H1210.19ZM1209.19 38.16H1158.6V36.16H1209.19V38.16ZM1159.6 37.16V43.304H1157.6V37.16H1159.6ZM1158.6 42.304H1208.23V44.304H1158.6V42.304ZM1209.23 43.304V62.888H1207.23V43.304H1209.23ZM1208.23 63.888H1158.6V61.888H1208.23V63.888ZM1159.6 62.888V68.456H1157.6V62.888H1159.6ZM1158.6 67.456H1208.81V69.456H1158.6V67.456ZM1209.81 68.456V88.424H1207.81V68.456H1209.81ZM1208.81 89.424H1122.69V87.424H1208.81V89.424ZM1213.82 88.424V89.424H1212.82V88.424H1213.82ZM1213.82 17H1212.82V16H1213.82V17ZM1250.3 17V16H1251.3V17H1250.3ZM1250.3 36.488V37.488H1249.3V36.488H1250.3ZM1250.3 67.496V68.496H1249.3V67.496H1250.3ZM1250.3 58.088H1249.3V57.088H1250.3V58.088ZM1284.76 35.488C1298.51 35.488 1307.55 38.4137 1313.16 43.2165C1318.8 48.0452 1320.8 54.628 1320.8 61.544H1318.8C1318.8 55.02 1316.92 49.0748 1311.86 44.7355C1306.76 40.3703 1298.28 37.488 1284.76 37.488V35.488ZM1320.8 61.544V64.04H1318.8V61.544H1320.8ZM1320.8 64.04C1320.8 70.9462 1318.9 77.3735 1313.29 82.0405C1307.73 86.6731 1298.69 89.424 1284.76 89.424V87.424C1298.49 87.424 1306.97 84.7029 1312.01 80.5035C1317.01 76.3385 1318.8 70.5738 1318.8 64.04H1320.8ZM1284.76 89.424H1213.82V87.424H1284.76V89.424ZM1212.82 88.424V17H1214.82V88.424H1212.82ZM1213.82 16H1250.3V18H1213.82V16ZM1251.3 17V36.488H1249.3V17H1251.3ZM1250.3 35.488H1284.76V37.488H1250.3V35.488ZM1250.3 66.496H1275.84V68.496H1250.3V66.496ZM1275.84 66.496C1278.23 66.496 1279.56 66.0086 1280.28 65.3988C1280.97 64.8207 1281.27 63.9966 1281.27 62.888H1283.27C1283.27 64.3714 1282.85 65.8513 1281.57 66.9292C1280.32 67.9754 1278.44 68.496 1275.84 68.496V66.496ZM1281.27 62.888V62.696H1283.27V62.888H1281.27ZM1281.27 62.696C1281.27 61.6996 1280.98 60.8599 1280.27 60.248C1279.54 59.6144 1278.2 59.088 1275.84 59.088V57.088C1278.46 57.088 1280.34 57.6656 1281.58 58.736C1282.84 59.8281 1283.27 61.2924 1283.27 62.696H1281.27ZM1275.84 59.088H1250.3V57.088H1275.84V59.088ZM1251.3 58.088V67.496H1249.3V58.088H1251.3ZM1359.14 68.936H1358.14V67.936H1359.14V68.936ZM1359.14 88.424H1360.14V89.424H1359.14V88.424ZM1322.75 88.424V89.424H1321.75V88.424H1322.75ZM1322.75 17H1321.75V16H1322.75V17ZM1359.14 37.928H1358.14V36.928H1359.14V37.928ZM1359.14 48.008V49.008H1358.14V48.008H1359.14ZM1360.14 68.936V88.424H1358.14V68.936H1360.14ZM1359.14 89.424H1322.75V87.424H1359.14V89.424ZM1321.75 88.424V17H1323.75V88.424H1321.75ZM1322.75 16H1393.6V18H1322.75V16ZM1393.6 16C1407.35 16 1416.39 18.9257 1422 23.7285C1427.63 28.5572 1429.64 35.14 1429.64 42.056H1427.64C1427.64 35.532 1425.76 29.5868 1420.69 25.2475C1415.6 20.8823 1407.11 18 1393.6 18V16ZM1429.64 42.056V44.552H1427.64V42.056H1429.64ZM1429.64 44.552C1429.64 51.4582 1427.73 57.8855 1422.13 62.5525C1416.56 67.1851 1407.53 69.936 1393.6 69.936V67.936C1407.32 67.936 1415.81 65.2149 1420.85 61.0155C1425.85 56.8505 1427.64 51.0858 1427.64 44.552H1429.64ZM1393.6 69.936H1359.14V67.936H1393.6V69.936ZM1360.14 37.928V48.008H1358.14V37.928H1360.14ZM1359.14 47.008H1384.67V49.008H1359.14V47.008ZM1384.67 47.008C1387.04 47.008 1388.36 46.4808 1389.09 45.8256C1389.8 45.1895 1390.1 44.2816 1390.1 43.112H1392.1C1392.1 44.6304 1391.69 46.1705 1390.43 47.3104C1389.19 48.4312 1387.29 49.008 1384.67 49.008V47.008ZM1390.1 43.112V42.92H1392.1V43.112H1390.1ZM1390.1 42.92C1390.1 41.8042 1389.8 40.859 1389.08 40.181C1388.34 39.4935 1387.02 38.928 1384.67 38.928V36.928C1387.31 36.928 1389.21 37.5625 1390.45 38.723C1391.69 39.893 1392.1 41.4438 1392.1 42.92H1390.1ZM1384.67 38.928H1359.14V36.928H1384.67V38.928ZM1432.07 88.424V89.424H1431.07V88.424H1432.07ZM1432.07 17H1431.07V16H1432.07V17ZM1518.57 17V16H1519.57V17H1518.57ZM1518.57 37.16H1519.57V38.16H1518.57V37.16ZM1467.97 37.16H1466.97V36.16H1467.97V37.16ZM1467.97 43.304V44.304H1466.97V43.304H1467.97ZM1517.61 43.304V42.304H1518.61V43.304H1517.61ZM1517.61 62.888H1518.61V63.888H1517.61V62.888ZM1467.97 62.888H1466.97V61.888H1467.97V62.888ZM1467.97 68.456V69.456H1466.97V68.456H1467.97ZM1518.18 68.456V67.456H1519.18V68.456H1518.18ZM1518.18 88.424H1519.18V89.424H1518.18V88.424ZM1431.07 88.424V17H1433.07V88.424H1431.07ZM1432.07 16H1518.57V18H1432.07V16ZM1519.57 17V37.16H1517.57V17H1519.57ZM1518.57 38.16H1467.97V36.16H1518.57V38.16ZM1468.97 37.16V43.304H1466.97V37.16H1468.97ZM1467.97 42.304H1517.61V44.304H1467.97V42.304ZM1518.61 43.304V62.888H1516.61V43.304H1518.61ZM1517.61 63.888H1467.97V61.888H1517.61V63.888ZM1468.97 62.888V68.456H1466.97V62.888H1468.97ZM1467.97 67.456H1518.18V69.456H1467.97V67.456ZM1519.18 68.456V88.424H1517.18V68.456H1519.18ZM1518.18 89.424H1432.07V87.424H1518.18V89.424ZM1523.19 88.424V89.424H1522.19V88.424H1523.19ZM1523.19 17H1522.19V16H1523.19V17ZM1559.67 17V16H1560.67V17H1559.67ZM1559.67 36.488V37.488H1558.67V36.488H1559.67ZM1559.67 67.496V68.496H1558.67V67.496H1559.67ZM1559.67 58.088H1558.67V57.088H1559.67V58.088ZM1594.14 35.488C1607.89 35.488 1616.93 38.4137 1622.53 43.2165C1628.17 48.0452 1630.18 54.628 1630.18 61.544H1628.18C1628.18 55.02 1626.3 49.0748 1621.23 44.7355C1616.14 40.3703 1607.65 37.488 1594.14 37.488V35.488ZM1630.18 61.544V64.04H1628.18V61.544H1630.18ZM1630.18 64.04C1630.18 70.9462 1628.27 77.3735 1622.67 82.0405C1617.1 86.6731 1608.06 89.424 1594.14 89.424V87.424C1607.86 87.424 1616.34 84.7029 1621.39 80.5035C1626.39 76.3385 1628.18 70.5738 1628.18 64.04H1630.18ZM1594.14 89.424H1523.19V87.424H1594.14V89.424ZM1522.19 88.424V17H1524.19V88.424H1522.19ZM1523.19 16H1559.67V18H1523.19V16ZM1560.67 17V36.488H1558.67V17H1560.67ZM1559.67 35.488H1594.14V37.488H1559.67V35.488ZM1559.67 66.496H1585.21V68.496H1559.67V66.496ZM1585.21 66.496C1587.6 66.496 1588.93 66.0086 1589.65 65.3988C1590.34 64.8207 1590.64 63.9966 1590.64 62.888H1592.64C1592.64 64.3714 1592.22 65.8513 1590.94 66.9292C1589.7 67.9754 1587.81 68.496 1585.21 68.496V66.496ZM1590.64 62.888V62.696H1592.64V62.888H1590.64ZM1590.64 62.696C1590.64 61.6996 1590.35 60.8599 1589.64 60.248C1588.91 59.6144 1587.58 59.088 1585.21 59.088V57.088C1587.83 57.088 1589.72 57.6656 1590.95 58.736C1592.21 59.8281 1592.64 61.2924 1592.64 62.696H1590.64ZM1585.21 59.088H1559.67V57.088H1585.21V59.088ZM1560.67 58.088V67.496H1558.67V58.088H1560.67ZM1682.26 46.664V45.664H1683.79L1683.17 47.0681L1682.26 46.664ZM1664.98 46.664L1664.06 47.0606L1663.45 45.664H1664.98V46.664ZM1673.52 66.44L1674.43 66.8441L1673.51 68.9378L1672.6 66.8366L1673.52 66.44ZM1695.31 17L1694.4 16.5986L1694.66 16H1695.31V17ZM1736.02 17V16H1737.64L1736.91 17.4482L1736.02 17ZM1700.21 88.424L1701.1 88.8722L1700.82 89.424H1700.21V88.424ZM1648.94 88.424V89.424H1648.31L1648.04 88.8507L1648.94 88.424ZM1615.25 17L1614.34 17.4267L1613.67 16H1615.25V17ZM1652.11 17V16H1652.77L1653.03 16.5986L1652.11 17ZM1655.86 25.544V26.544H1655.2L1654.94 25.9454L1655.86 25.544ZM1691.57 25.544L1692.48 25.9454L1692.22 26.544H1691.57V25.544ZM1682.26 47.664H1664.98V45.664H1682.26V47.664ZM1665.89 46.2674L1674.44 66.0434L1672.6 66.8366L1664.06 47.0606L1665.89 46.2674ZM1672.6 66.0359L1681.34 46.2599L1683.17 47.0681L1674.43 66.8441L1672.6 66.0359ZM1695.31 16H1736.02V18H1695.31V16ZM1736.91 17.4482L1701.1 88.8722L1699.31 87.9758L1735.12 16.5518L1736.91 17.4482ZM1700.21 89.424H1648.94V87.424H1700.21V89.424ZM1648.04 88.8507L1614.34 17.4267L1616.15 16.5733L1649.85 87.9973L1648.04 88.8507ZM1615.25 16H1652.11V18H1615.25V16ZM1653.03 16.5986L1656.77 25.1426L1654.94 25.9454L1651.2 17.4014L1653.03 16.5986ZM1655.86 24.544H1691.57V26.544H1655.86V24.544ZM1690.65 25.1426L1694.4 16.5986L1696.23 17.4014L1692.48 25.9454L1690.65 25.1426Z" fill="white"/>
</svg>
