<svg width="1874" height="96" viewBox="0 0 1874 96" fill="none" xmlns="http://www.w3.org/2000/svg">
<path d="M125.976 80.424V81.424H124.976V80.424H125.976ZM125.976 9H124.976V8H125.976V9ZM162.456 9V8H163.456V9H162.456ZM162.456 28.488V29.488H161.456V28.488H162.456ZM162.456 59.496V60.496H161.456V59.496H162.456ZM162.456 50.088H161.456V49.088H162.456V50.088ZM196.92 27.488C210.67 27.488 219.707 30.4137 225.315 35.2165C230.952 40.0452 232.96 46.628 232.96 53.544H230.96C230.96 47.02 229.08 41.0748 224.013 36.7355C218.917 32.3703 210.434 29.488 196.92 29.488V27.488ZM232.96 53.544V56.04H230.96V53.544H232.96ZM232.96 56.04C232.96 62.9462 231.053 69.3735 225.448 74.0405C219.884 78.6731 210.846 81.424 196.92 81.424V79.424C210.642 79.424 219.124 76.7029 224.168 72.5035C229.171 68.3385 230.96 62.5738 230.96 56.04H232.96ZM196.92 81.424H125.976V79.424H196.92V81.424ZM124.976 80.424V9H126.976V80.424H124.976ZM125.976 8H162.456V10H125.976V8ZM163.456 9V28.488H161.456V9H163.456ZM162.456 27.488H196.92V29.488H162.456V27.488ZM162.456 58.496H187.992V60.496H162.456V58.496ZM187.992 58.496C190.382 58.496 191.711 58.0086 192.436 57.3988C193.123 56.8207 193.424 55.9966 193.424 54.888H195.424C195.424 56.3714 195.005 57.8513 193.724 58.9292C192.481 59.9754 190.594 60.496 187.992 60.496V58.496ZM193.424 54.888V54.696H195.424V54.888H193.424ZM193.424 54.696C193.424 53.6996 193.132 52.8599 192.425 52.248C191.694 51.6144 190.361 51.088 187.992 51.088V49.088C190.615 49.088 192.498 49.6656 193.735 50.736C194.996 51.8281 195.424 53.2924 195.424 54.696H193.424ZM187.992 51.088H162.456V49.088H187.992V51.088ZM163.456 50.088V59.496H161.456V50.088H163.456ZM235.101 80.424V81.424H234.101V80.424H235.101ZM235.101 9H234.101V8H235.101V9ZM321.597 9V8H322.597V9H321.597ZM321.597 29.16H322.597V30.16H321.597V29.16ZM271.005 29.16H270.005V28.16H271.005V29.16ZM271.005 35.304V36.304H270.005V35.304H271.005ZM320.637 35.304V34.304H321.637V35.304H320.637ZM320.637 54.888H321.637V55.888H320.637V54.888ZM271.005 54.888H270.005V53.888H271.005V54.888ZM271.005 60.456V61.456H270.005V60.456H271.005ZM321.213 60.456V59.456H322.213V60.456H321.213ZM321.213 80.424H322.213V81.424H321.213V80.424ZM234.101 80.424V9H236.101V80.424H234.101ZM235.101 8H321.597V10H235.101V8ZM322.597 9V29.16H320.597V9H322.597ZM321.597 30.16H271.005V28.16H321.597V30.16ZM272.005 29.16V35.304H270.005V29.16H272.005ZM271.005 34.304H320.637V36.304H271.005V34.304ZM321.637 35.304V54.888H319.637V35.304H321.637ZM320.637 55.888H271.005V53.888H320.637V55.888ZM272.005 54.888V60.456H270.005V54.888H272.005ZM271.005 59.456H321.213V61.456H271.005V59.456ZM322.213 60.456V80.424H320.213V60.456H322.213ZM321.213 81.424H235.101V79.424H321.213V81.424ZM326.226 9H325.226V8H326.226V9ZM362.418 9V8H363.418V9H362.418ZM362.418 44.328L363.298 44.8037L361.418 44.328H362.418ZM381.522 9L380.642 8.52433L380.926 8H381.522V9ZM398.898 9V8H399.493L399.777 8.52249L398.898 9ZM418.098 44.328H419.098L417.219 44.8055L418.098 44.328ZM418.098 9H417.098V8H418.098V9ZM454.386 9V8H455.386V9H454.386ZM454.386 80.424H455.386V81.424H454.386V80.424ZM408.594 80.424V81.424H408.003L407.718 80.9058L408.594 80.424ZM391.122 48.648L390.238 48.1806L391.105 46.5411L391.998 48.1662L391.122 48.648ZM374.322 80.424L375.206 80.8914L374.924 81.424H374.322V80.424ZM326.226 80.424V81.424H325.226V80.424H326.226ZM326.226 8H362.418V10H326.226V8ZM363.418 9V44.328H361.418V9H363.418ZM361.538 43.8523L380.642 8.52433L382.402 9.47567L363.298 44.8037L361.538 43.8523ZM381.522 8H398.898V10H381.522V8ZM399.777 8.52249L418.977 43.8505L417.219 44.8055L398.019 9.47751L399.777 8.52249ZM417.098 44.328V9H419.098V44.328H417.098ZM418.098 8H454.386V10H418.098V8ZM455.386 9V80.424H453.386V9H455.386ZM454.386 81.424H408.594V79.424H454.386V81.424ZM407.718 80.9058L390.246 49.1298L391.998 48.1662L409.47 79.9422L407.718 80.9058ZM392.006 49.1154L375.206 80.8914L373.438 79.9566L390.238 48.1806L392.006 49.1154ZM374.322 81.424H326.226V79.424H374.322V81.424ZM325.226 80.424V9H327.226V80.424H325.226ZM513.774 82.864C489.515 82.864 475.33 77.7077 467.209 70.4664C459.058 63.199 457.19 53.9923 457.19 46.344H459.19C459.19 53.6717 460.97 62.225 468.539 68.9736C476.138 75.7483 489.745 80.864 513.774 80.864V82.864ZM457.19 46.344V43.464H459.19V46.344H457.19ZM457.19 43.464C457.19 35.9531 459.109 26.6581 467.275 19.2628C475.418 11.8882 489.602 6.56 513.774 6.56V8.56C489.85 8.56 476.242 13.8398 468.617 20.7452C461.015 27.6299 459.19 36.2869 459.19 43.464H457.19ZM513.774 6.56H518.574V8.56H513.774V6.56ZM518.574 6.56C542.793 6.56 556.978 11.8879 565.11 19.2633C573.264 26.6596 575.158 35.9555 575.158 43.464H573.158C573.158 36.2845 571.356 27.6284 563.766 20.7447C556.154 13.8401 542.547 8.56 518.574 8.56V6.56ZM575.158 43.464V46.344H573.158V43.464H575.158ZM575.158 46.344C575.158 53.9923 573.29 63.199 565.14 70.4664C557.018 77.7077 542.833 82.864 518.574 82.864V80.864C542.603 80.864 556.21 75.7483 563.809 68.9736C571.378 62.225 573.158 53.6717 573.158 46.344H575.158ZM518.574 82.864H513.774V80.864H518.574V82.864ZM535.526 44.424C535.526 41.4177 534.405 38.2325 531.49 35.7814C528.56 33.3174 523.707 31.504 516.078 31.504V29.504C524.001 29.504 529.372 31.3866 532.778 34.2506C536.199 37.1275 537.526 40.9023 537.526 44.424H535.526ZM516.078 31.504C508.557 31.504 503.728 33.3834 500.794 35.9062C497.868 38.4222 496.726 41.6625 496.726 44.616H494.726C494.726 41.1375 496.08 37.3218 499.49 34.3898C502.892 31.4646 508.239 29.504 516.078 29.504V31.504ZM496.726 44.616V45.768H494.726V44.616H496.726ZM496.726 45.768C496.726 48.6369 497.755 51.6701 500.597 54.0076C503.463 56.3643 508.292 58.112 516.078 58.112V60.112C508.024 60.112 502.677 58.3077 499.327 55.5524C495.953 52.7779 494.726 49.1391 494.726 45.768H496.726ZM516.078 58.112C523.765 58.112 528.623 56.3659 531.541 54.0029C534.437 51.6569 535.526 48.6199 535.526 45.768H537.526C537.526 49.1561 536.215 52.7911 532.799 55.5571C529.405 58.3061 524.039 60.112 516.078 60.112V58.112ZM535.526 45.768V44.424H537.526V45.768H535.526ZM652.439 9H651.439V8H652.439V9ZM688.919 9V8H689.919V9H688.919ZM688.919 80.424H689.919V81.424H688.919V80.424ZM652.439 80.424V81.424H651.439V80.424H652.439ZM652.439 56.712V55.712H653.439V56.712H652.439ZM614.231 56.712H613.231V55.712H614.231V56.712ZM614.231 80.424H615.231V81.424H614.231V80.424ZM577.751 80.424V81.424H576.751V80.424H577.751ZM577.751 9H576.751V8H577.751V9ZM614.231 9V8H615.231V9H614.231ZM614.231 34.44V35.44H613.231V34.44H614.231ZM652.439 34.44H653.439V35.44H652.439V34.44ZM652.439 8H688.919V10H652.439V8ZM689.919 9V80.424H687.919V9H689.919ZM688.919 81.424H652.439V79.424H688.919V81.424ZM651.439 80.424V56.712H653.439V80.424H651.439ZM652.439 57.712H614.231V55.712H652.439V57.712ZM615.231 56.712V80.424H613.231V56.712H615.231ZM614.231 81.424H577.751V79.424H614.231V81.424ZM576.751 80.424V9H578.751V80.424H576.751ZM577.751 8H614.231V10H577.751V8ZM615.231 9V34.44H613.231V9H615.231ZM614.231 33.44H652.439V35.44H614.231V33.44ZM651.439 34.44V9H653.439V34.44H651.439ZM724.33 9H723.33V8H724.33V9ZM760.81 9V8H761.81V9H760.81ZM760.81 55.848V56.848H759.81V55.848H760.81ZM791.626 55.848V54.848H792.626V55.848H791.626ZM791.626 80.424H792.626V81.424H791.626V80.424ZM693.514 80.424V81.424H692.514V80.424H693.514ZM693.514 55.848H692.514V54.848H693.514V55.848ZM724.33 55.848H725.33V56.848H724.33V55.848ZM724.33 8H760.81V10H724.33V8ZM761.81 9V55.848H759.81V9H761.81ZM760.81 54.848H791.626V56.848H760.81V54.848ZM792.626 55.848V80.424H790.626V55.848H792.626ZM791.626 81.424H693.514V79.424H791.626V81.424ZM692.514 80.424V55.848H694.514V80.424H692.514ZM693.514 54.848H724.33V56.848H693.514V54.848ZM723.33 55.848V9H725.33V55.848H723.33ZM870.314 9H869.314V8H870.314V9ZM906.794 9V8H907.794V9H906.794ZM906.794 80.424H907.794V81.424H906.794V80.424ZM870.314 80.424V81.424H869.314V80.424H870.314ZM870.314 56.712V55.712H871.314V56.712H870.314ZM832.106 56.712H831.106V55.712H832.106V56.712ZM832.106 80.424H833.106V81.424H832.106V80.424ZM795.626 80.424V81.424H794.626V80.424H795.626ZM795.626 9H794.626V8H795.626V9ZM832.106 9V8H833.106V9H832.106ZM832.106 34.44V35.44H831.106V34.44H832.106ZM870.314 34.44H871.314V35.44H870.314V34.44ZM870.314 8H906.794V10H870.314V8ZM907.794 9V80.424H905.794V9H907.794ZM906.794 81.424H870.314V79.424H906.794V81.424ZM869.314 80.424V56.712H871.314V80.424H869.314ZM870.314 57.712H832.106V55.712H870.314V57.712ZM833.106 56.712V80.424H831.106V56.712H833.106ZM832.106 81.424H795.626V79.424H832.106V81.424ZM794.626 80.424V9H796.626V80.424H794.626ZM795.626 8H832.106V10H795.626V8ZM833.106 9V34.44H831.106V9H833.106ZM832.106 33.44H870.314V35.44H832.106V33.44ZM869.314 34.44V9H871.314V34.44H869.314ZM948.637 60.936H947.637V59.936H948.637V60.936ZM948.637 80.424H949.637V81.424H948.637V80.424ZM912.253 80.424V81.424H911.253V80.424H912.253ZM912.253 9H911.253V8H912.253V9ZM948.637 29.928H947.637V28.928H948.637V29.928ZM948.637 40.008V41.008H947.637V40.008H948.637ZM1058.56 80.424H1059.56V81.424H1058.56V80.424ZM1022.17 80.424V81.424H1021.17V80.424H1022.17ZM1022.17 9H1021.17V8H1022.17V9ZM1058.56 9V8H1059.56V9H1058.56ZM949.637 60.936V80.424H947.637V60.936H949.637ZM948.637 81.424H912.253V79.424H948.637V81.424ZM911.253 80.424V9H913.253V80.424H911.253ZM912.253 8H983.101V10H912.253V8ZM983.101 8C996.851 8 1005.89 10.9257 1011.5 15.7285C1017.13 20.5572 1019.14 27.14 1019.14 34.056H1017.14C1017.14 27.532 1015.26 21.5868 1010.19 17.2475C1005.1 12.8823 996.615 10 983.101 10V8ZM1019.14 34.056V36.552H1017.14V34.056H1019.14ZM1019.14 36.552C1019.14 43.4582 1017.23 49.8855 1011.63 54.5525C1006.06 59.1851 997.026 61.936 983.101 61.936V59.936C996.823 59.936 1005.31 57.2149 1010.35 53.0155C1015.35 48.8505 1017.14 43.0858 1017.14 36.552H1019.14ZM983.101 61.936H948.637V59.936H983.101V61.936ZM949.637 29.928V40.008H947.637V29.928H949.637ZM948.637 39.008H974.173V41.008H948.637V39.008ZM974.173 39.008C976.544 39.008 977.865 38.4808 978.591 37.8256C979.296 37.1895 979.605 36.2816 979.605 35.112H981.605C981.605 36.6304 981.194 38.1705 979.931 39.3104C978.689 40.4312 976.794 41.008 974.173 41.008V39.008ZM979.605 35.112V34.92H981.605V35.112H979.605ZM979.605 34.92C979.605 33.8042 979.298 32.859 978.576 32.181C977.844 31.4935 976.523 30.928 974.173 30.928V28.928C976.814 28.928 978.709 29.5625 979.945 30.723C981.191 31.893 981.605 33.4438 981.605 34.92H979.605ZM974.173 30.928H948.637V28.928H974.173V30.928ZM1058.56 81.424H1022.17V79.424H1058.56V81.424ZM1021.17 80.424V9H1023.17V80.424H1021.17ZM1022.17 8H1058.56V10H1022.17V8ZM1059.56 9V80.424H1057.56V9H1059.56ZM1064.04 80.424V81.424H1063.04V80.424H1064.04ZM1064.04 9H1063.04V8H1064.04V9ZM1150.53 9V8H1151.53V9H1150.53ZM1150.53 29.16H1151.53V30.16H1150.53V29.16ZM1099.94 29.16H1098.94V28.16H1099.94V29.16ZM1099.94 35.304V36.304H1098.94V35.304H1099.94ZM1149.57 35.304V34.304H1150.57V35.304H1149.57ZM1149.57 54.888H1150.57V55.888H1149.57V54.888ZM1099.94 54.888H1098.94V53.888H1099.94V54.888ZM1099.94 60.456V61.456H1098.94V60.456H1099.94ZM1150.15 60.456V59.456H1151.15V60.456H1150.15ZM1150.15 80.424H1151.15V81.424H1150.15V80.424ZM1063.04 80.424V9H1065.04V80.424H1063.04ZM1064.04 8H1150.53V10H1064.04V8ZM1151.53 9V29.16H1149.53V9H1151.53ZM1150.53 30.16H1099.94V28.16H1150.53V30.16ZM1100.94 29.16V35.304H1098.94V29.16H1100.94ZM1099.94 34.304H1149.57V36.304H1099.94V34.304ZM1150.57 35.304V54.888H1148.57V35.304H1150.57ZM1149.57 55.888H1099.94V53.888H1149.57V55.888ZM1100.94 54.888V60.456H1098.94V54.888H1100.94ZM1099.94 59.456H1150.15V61.456H1099.94V59.456ZM1151.15 60.456V80.424H1149.15V60.456H1151.15ZM1150.15 81.424H1064.04V79.424H1150.15V81.424ZM1183.57 80.424V81.424H1182.57V80.424H1183.57ZM1183.57 9H1182.57V8H1183.57V9ZM1220.05 9V8H1221.05V9H1220.05ZM1220.05 28.488V29.488H1219.05V28.488H1220.05ZM1220.05 59.496V60.496H1219.05V59.496H1220.05ZM1220.05 50.088H1219.05V49.088H1220.05V50.088ZM1254.51 27.488C1268.26 27.488 1277.3 30.4137 1282.91 35.2165C1288.55 40.0452 1290.55 46.628 1290.55 53.544H1288.55C1288.55 47.02 1286.67 41.0748 1281.61 36.7355C1276.51 32.3703 1268.03 29.488 1254.51 29.488V27.488ZM1290.55 53.544V56.04H1288.55V53.544H1290.55ZM1290.55 56.04C1290.55 62.9462 1288.65 69.3735 1283.04 74.0405C1277.48 78.6731 1268.44 81.424 1254.51 81.424V79.424C1268.24 79.424 1276.72 76.7029 1281.76 72.5035C1286.76 68.3385 1288.55 62.5738 1288.55 56.04H1290.55ZM1254.51 81.424H1183.57V79.424H1254.51V81.424ZM1182.57 80.424V9H1184.57V80.424H1182.57ZM1183.57 8H1220.05V10H1183.57V8ZM1221.05 9V28.488H1219.05V9H1221.05ZM1220.05 27.488H1254.51V29.488H1220.05V27.488ZM1220.05 58.496H1245.59V60.496H1220.05V58.496ZM1245.59 58.496C1247.98 58.496 1249.31 58.0086 1250.03 57.3988C1250.72 56.8207 1251.02 55.9966 1251.02 54.888H1253.02C1253.02 56.3714 1252.6 57.8513 1251.32 58.9292C1250.07 59.9754 1248.19 60.496 1245.59 60.496V58.496ZM1251.02 54.888V54.696H1253.02V54.888H1251.02ZM1251.02 54.696C1251.02 53.6996 1250.73 52.8599 1250.02 52.248C1249.29 51.6144 1247.95 51.088 1245.59 51.088V49.088C1248.21 49.088 1250.09 49.6656 1251.33 50.736C1252.59 51.8281 1253.02 53.2924 1253.02 54.696H1251.02ZM1245.59 51.088H1220.05V49.088H1245.59V51.088ZM1221.05 50.088V59.496H1219.05V50.088H1221.05ZM1342.63 38.664V37.664H1344.17L1343.55 39.0681L1342.63 38.664ZM1325.35 38.664L1324.43 39.0606L1323.83 37.664H1325.35V38.664ZM1333.89 58.44L1334.81 58.8441L1333.88 60.9378L1332.98 58.8366L1333.89 58.44ZM1355.69 9L1354.77 8.59864L1355.03 8H1355.69V9ZM1396.39 9V8H1398.01L1397.28 9.44817L1396.39 9ZM1360.58 80.424L1361.48 80.8722L1361.2 81.424H1360.58V80.424ZM1309.32 80.424V81.424H1308.68L1308.41 80.8507L1309.32 80.424ZM1275.62 9L1274.72 9.42667L1274.05 8H1275.62V9ZM1312.49 9V8H1313.14L1313.4 8.59864L1312.49 9ZM1316.23 17.544V18.544H1315.58L1315.31 17.9454L1316.23 17.544ZM1351.94 17.544L1352.86 17.9454L1352.6 18.544H1351.94V17.544ZM1342.63 39.664H1325.35V37.664H1342.63V39.664ZM1326.27 38.2674L1334.81 58.0434L1332.98 58.8366L1324.43 39.0606L1326.27 38.2674ZM1332.98 58.0359L1341.72 38.2599L1343.55 39.0681L1334.81 58.8441L1332.98 58.0359ZM1355.69 8H1396.39V10H1355.69V8ZM1397.28 9.44817L1361.48 80.8722L1359.69 79.9758L1395.5 8.55183L1397.28 9.44817ZM1360.58 81.424H1309.32V79.424H1360.58V81.424ZM1308.41 80.8507L1274.72 9.42667L1276.53 8.57333L1310.22 79.9973L1308.41 80.8507ZM1275.62 8H1312.49V10H1275.62V8ZM1313.4 8.59864L1317.15 17.1426L1315.31 17.9454L1311.57 9.40136L1313.4 8.59864ZM1316.23 16.544H1351.94V18.544H1316.23V16.544ZM1351.03 17.1426L1354.77 8.59864L1356.6 9.40136L1352.86 17.9454L1351.03 17.1426ZM1397.13 9H1396.13V8H1397.13V9ZM1433.51 56.04H1432.51V55.04H1433.51V56.04ZM1433.51 60.456V61.456H1432.51V60.456H1433.51ZM1493.22 60.456V59.456H1494.22V60.456H1493.22ZM1493.22 80.424H1494.22V81.424H1493.22V80.424ZM1397.13 80.424V81.424H1396.13V80.424H1397.13ZM1433.51 29.64H1432.51V28.64H1433.51V29.64ZM1433.51 38.088V39.088H1432.51V38.088H1433.51ZM1397.13 8H1467.98V10H1397.13V8ZM1467.98 8C1481.72 8 1490.75 10.8519 1496.36 15.4895C1502 20.1567 1504.02 26.5008 1504.02 33.096H1502.02C1502.02 26.9232 1500.15 21.2193 1495.08 17.0305C1489.98 12.8121 1481.49 10 1467.98 10V8ZM1504.02 33.096V33.672H1502.02V33.096H1504.02ZM1504.02 33.672C1504.02 40.0319 1502.09 45.9618 1496.47 50.2584C1490.91 54.51 1481.89 57.04 1467.98 57.04V55.04C1481.71 55.04 1490.21 52.53 1495.26 48.6696C1500.25 44.8542 1502.02 39.6001 1502.02 33.672H1504.02ZM1467.98 57.04H1433.51V55.04H1467.98V57.04ZM1434.51 56.04V60.456H1432.51V56.04H1434.51ZM1433.51 59.456H1493.22V61.456H1433.51V59.456ZM1494.22 60.456V80.424H1492.22V60.456H1494.22ZM1493.22 81.424H1397.13V79.424H1493.22V81.424ZM1396.13 80.424V9H1398.13V80.424H1396.13ZM1434.51 29.64V38.088H1432.51V29.64H1434.51ZM1433.51 37.088H1459.62V39.088H1433.51V37.088ZM1459.62 37.088C1461.72 37.088 1462.91 36.5552 1463.58 35.9622C1464.24 35.3732 1464.48 34.6274 1464.48 33.96H1466.48C1466.48 35.1166 1466.05 36.4348 1464.91 37.4538C1463.77 38.4688 1462.04 39.088 1459.62 39.088V37.088ZM1464.48 33.96V33.768H1466.48V33.96H1464.48ZM1464.48 33.768C1464.48 33.1006 1464.24 32.3548 1463.58 31.7658C1462.91 31.1728 1461.72 30.64 1459.62 30.64V28.64C1462.04 28.64 1463.77 29.2592 1464.91 30.2742C1466.05 31.2932 1466.48 32.6114 1466.48 33.768H1464.48ZM1459.62 30.64H1433.51V28.64H1459.62V30.64ZM1560.49 82.864C1536.23 82.864 1522.05 77.7077 1513.93 70.4664C1505.78 63.199 1503.91 53.9923 1503.91 46.344H1505.91C1505.91 53.6717 1507.69 62.225 1515.26 68.9736C1522.86 75.7483 1536.46 80.864 1560.49 80.864V82.864ZM1503.91 46.344V43.464H1505.91V46.344H1503.91ZM1503.91 43.464C1503.91 35.9531 1505.83 26.6581 1513.99 19.2628C1522.14 11.8882 1536.32 6.56 1560.49 6.56V8.56C1536.57 8.56 1522.96 13.8398 1515.34 20.7452C1507.73 27.6299 1505.91 36.2869 1505.91 43.464H1503.91ZM1560.49 6.56H1565.29V8.56H1560.49V6.56ZM1565.29 6.56C1589.51 6.56 1603.7 11.8879 1611.83 19.2633C1619.98 26.6596 1621.88 35.9555 1621.88 43.464H1619.88C1619.88 36.2845 1618.07 27.6284 1610.48 20.7447C1602.87 13.8401 1589.27 8.56 1565.29 8.56V6.56ZM1621.88 43.464V46.344H1619.88V43.464H1621.88ZM1621.88 46.344C1621.88 53.9923 1620.01 63.199 1611.86 70.4664C1603.74 77.7077 1589.55 82.864 1565.29 82.864V80.864C1589.32 80.864 1602.93 75.7483 1610.53 68.9736C1618.1 62.225 1619.88 53.6717 1619.88 46.344H1621.88ZM1565.29 82.864H1560.49V80.864H1565.29V82.864ZM1582.24 44.424C1582.24 41.4177 1581.12 38.2325 1578.21 35.7814C1575.28 33.3174 1570.43 31.504 1562.8 31.504V29.504C1570.72 29.504 1576.09 31.3866 1579.5 34.2506C1582.92 37.1275 1584.24 40.9023 1584.24 44.424H1582.24ZM1562.8 31.504C1555.28 31.504 1550.45 33.3834 1547.51 35.9062C1544.59 38.4222 1543.44 41.6625 1543.44 44.616H1541.44C1541.44 41.1375 1542.8 37.3218 1546.21 34.3898C1549.61 31.4646 1554.96 29.504 1562.8 29.504V31.504ZM1543.44 44.616V45.768H1541.44V44.616H1543.44ZM1543.44 45.768C1543.44 48.6369 1544.47 51.6701 1547.32 54.0076C1550.18 56.3643 1555.01 58.112 1562.8 58.112V60.112C1554.74 60.112 1549.4 58.3077 1546.05 55.5524C1542.67 52.7779 1541.44 49.1391 1541.44 45.768H1543.44ZM1562.8 58.112C1570.48 58.112 1575.34 56.3659 1578.26 54.0029C1581.16 51.6569 1582.24 48.6199 1582.24 45.768H1584.24C1584.24 49.1561 1582.93 52.7911 1579.52 55.5571C1576.12 58.3061 1570.76 60.112 1562.8 60.112V58.112ZM1582.24 45.768V44.424H1584.24V45.768H1582.24ZM1652.83 9H1651.83V8H1652.83V9ZM1689.31 9V8H1690.31V9H1689.31ZM1689.31 55.848V56.848H1688.31V55.848H1689.31ZM1720.13 55.848V54.848H1721.13V55.848H1720.13ZM1720.13 80.424H1721.13V81.424H1720.13V80.424ZM1622.01 80.424V81.424H1621.01V80.424H1622.01ZM1622.01 55.848H1621.01V54.848H1622.01V55.848ZM1652.83 55.848H1653.83V56.848H1652.83V55.848ZM1652.83 8H1689.31V10H1652.83V8ZM1690.31 9V55.848H1688.31V9H1690.31ZM1689.31 54.848H1720.13V56.848H1689.31V54.848ZM1721.13 55.848V80.424H1719.13V55.848H1721.13ZM1720.13 81.424H1622.01V79.424H1720.13V81.424ZM1621.01 80.424V55.848H1623.01V80.424H1621.01ZM1622.01 54.848H1652.83V56.848H1622.01V54.848ZM1651.83 55.848V9H1653.83V55.848H1651.83ZM1760.61 60.936H1759.61V59.936H1760.61V60.936ZM1760.61 80.424H1761.61V81.424H1760.61V80.424ZM1724.22 80.424V81.424H1723.22V80.424H1724.22ZM1724.22 9H1723.22V8H1724.22V9ZM1760.61 29.928H1759.61V28.928H1760.61V29.928ZM1760.61 40.008V41.008H1759.61V40.008H1760.61ZM1870.53 80.424H1871.53V81.424H1870.53V80.424ZM1834.14 80.424V81.424H1833.14V80.424H1834.14ZM1834.14 9H1833.14V8H1834.14V9ZM1870.53 9V8H1871.53V9H1870.53ZM1761.61 60.936V80.424H1759.61V60.936H1761.61ZM1760.61 81.424H1724.22V79.424H1760.61V81.424ZM1723.22 80.424V9H1725.22V80.424H1723.22ZM1724.22 8H1795.07V10H1724.22V8ZM1795.07 8C1808.82 8 1817.86 10.9257 1823.46 15.7285C1829.1 20.5572 1831.11 27.14 1831.11 34.056H1829.11C1829.11 27.532 1827.23 21.5868 1822.16 17.2475C1817.07 12.8823 1808.58 10 1795.07 10V8ZM1831.11 34.056V36.552H1829.11V34.056H1831.11ZM1831.11 36.552C1831.11 43.4582 1829.2 49.8855 1823.6 54.5525C1818.03 59.1851 1809 61.936 1795.07 61.936V59.936C1808.79 59.936 1817.27 57.2149 1822.32 53.0155C1827.32 48.8505 1829.11 43.0858 1829.11 36.552H1831.11ZM1795.07 61.936H1760.61V59.936H1795.07V61.936ZM1761.61 29.928V40.008H1759.61V29.928H1761.61ZM1760.61 39.008H1786.14V41.008H1760.61V39.008ZM1786.14 39.008C1788.51 39.008 1789.83 38.4808 1790.56 37.8256C1791.26 37.1895 1791.57 36.2816 1791.57 35.112H1793.57C1793.57 36.6304 1793.16 38.1705 1791.9 39.3104C1790.66 40.4312 1788.76 41.008 1786.14 41.008V39.008ZM1791.57 35.112V34.92H1793.57V35.112H1791.57ZM1791.57 34.92C1791.57 33.8042 1791.27 32.859 1790.54 32.181C1789.81 31.4935 1788.49 30.928 1786.14 30.928V28.928C1788.78 28.928 1790.68 29.5625 1791.91 30.723C1793.16 31.893 1793.57 33.4438 1793.57 34.92H1791.57ZM1786.14 30.928H1760.61V28.928H1786.14V30.928ZM1870.53 81.424H1834.14V79.424H1870.53V81.424ZM1833.14 80.424V9H1835.14V80.424H1833.14ZM1834.14 8H1870.53V10H1834.14V8ZM1871.53 9V80.424H1869.53V9H1871.53Z" fill="white"/>
</svg>
