<svg width="1746" height="75" viewBox="0 0 1746 75" fill="none" xmlns="http://www.w3.org/2000/svg">
<path d="M71.92 53.512C99.184 53.512 106.96 41.896 106.96 28.456V25.96C106.96 12.52 99.568 1.576 71.92 1.576H0.976V73H37.456V53.512H71.92ZM37.456 22.504H62.992C67.984 22.504 69.424 24.52 69.424 27.112V27.304C69.424 29.704 67.984 31.912 62.992 31.912H37.456V22.504ZM110.101 1.576V73H196.597V52.84H146.005V46.696H195.637V27.112H146.005V21.544H196.213V1.576H110.101ZM201.226 73H237.418V37.672L256.522 73H273.898L293.098 37.672V73H329.386V1.576H283.594L266.122 33.352L249.322 1.576H201.226V73ZM388.774 0.135994C340.486 0.135994 333.19 20.68 333.19 35.656V38.536C333.19 53.224 340.678 74.44 388.774 74.44H393.574C441.766 74.44 449.158 53.224 449.158 38.536V35.656C449.158 20.68 441.862 0.135994 393.574 0.135994H388.774ZM411.526 37.576C411.526 44.104 406.63 51.496 391.078 51.496C375.718 51.496 370.726 43.816 370.726 37.384V36.232C370.726 29.992 375.238 22.888 391.078 22.888C406.726 22.888 411.526 29.992 411.526 36.232V37.576ZM527.439 73H563.919V1.576H527.439V25.288H489.231V1.576H452.751V73H489.231V47.56H527.439V73ZM599.33 73H635.81V26.152H666.626V1.576H568.514V26.152H599.33V73ZM745.314 73H781.794V1.576H745.314V25.288H707.106V1.576H670.626V73H707.106V47.56H745.314V73ZM823.637 21.064V1.576H787.253V73H858.101C885.365 73 893.141 61.384 893.141 47.944V45.448C893.141 32.008 885.749 21.064 858.101 21.064H823.637ZM823.637 52.072V41.992H849.173C854.165 41.992 855.605 44.2 855.605 46.888V47.08C855.605 49.672 854.165 52.072 849.173 52.072H823.637ZM933.557 1.576H897.173V73H933.557V1.576ZM939.039 1.576V73H1025.53V52.84H974.943V46.696H1024.57V27.112H974.943V21.544H1025.15V1.576H939.039ZM1129.51 53.512C1156.78 53.512 1164.55 41.896 1164.55 28.456V25.96C1164.55 12.52 1157.16 1.576 1129.51 1.576H1058.57V73H1095.05V53.512H1129.51ZM1095.05 22.504H1120.59C1125.58 22.504 1127.02 24.52 1127.02 27.112V27.304C1127.02 29.704 1125.58 31.912 1120.59 31.912H1095.05V22.504ZM1217.63 43.336H1200.35L1208.89 23.56L1217.63 43.336ZM1230.69 73H1271.39L1235.58 1.576H1184.32L1150.62 73H1187.49L1191.23 64.456H1226.94L1230.69 73ZM1272.13 73H1342.98C1370.24 73 1378.02 61.672 1378.02 48.904V48.328C1378.02 36.04 1370.62 25.96 1342.98 25.96H1308.51V21.544H1368.22V1.576H1272.13V73ZM1308.51 52.36V43.912H1334.62C1339.14 43.912 1340.48 46.216 1340.48 48.04V48.232C1340.48 50.056 1339.14 52.36 1334.62 52.36H1308.51ZM1435.49 0.135994C1387.2 0.135994 1379.91 20.68 1379.91 35.656V38.536C1379.91 53.224 1387.4 74.44 1435.49 74.44H1440.29C1488.48 74.44 1495.88 53.224 1495.88 38.536V35.656C1495.88 20.68 1488.58 0.135994 1440.29 0.135994H1435.49ZM1458.24 37.576C1458.24 44.104 1453.35 51.496 1437.8 51.496C1422.44 51.496 1417.44 43.816 1417.44 37.384V36.232C1417.44 29.992 1421.96 22.888 1437.8 22.888C1453.44 22.888 1458.24 29.992 1458.24 36.232V37.576ZM1527.83 73H1564.31V26.152H1595.13V1.576H1497.01V26.152H1527.83V73ZM1635.61 21.064V1.576H1599.22V73H1670.07C1697.33 73 1705.11 61.384 1705.11 47.944V45.448C1705.11 32.008 1697.72 21.064 1670.07 21.064H1635.61ZM1635.61 52.072V41.992H1661.14C1666.13 41.992 1667.57 44.2 1667.57 46.888V47.08C1667.57 49.672 1666.13 52.072 1661.14 52.072H1635.61ZM1745.53 1.576H1709.14V73H1745.53V1.576Z" fill="white"/>
</svg>
